<svg width="231" height="152" viewBox="0 0 231 152" fill="none" xmlns="http://www.w3.org/2000/svg">
<path opacity="0.26" d="M37.2583 10.3639C19.3564 25.1301 43.287 44.0841 30.8895 52.3581C18.4917 60.6323 -29.8631 117.218 28.3719 134.823C79.3836 150.244 73.175 156.344 110.087 136.074C146.999 115.803 143.152 117.827 173.527 131.53C203.902 145.234 235.651 123.914 224.856 98.6102C214.062 73.3069 207.189 73.6223 219.515 57.4632C231.841 41.304 210.38 -11.9893 167.95 22.5681C125.521 57.1254 120.902 36.7271 102.959 18.7575C93.2452 9.02841 65.5494 -12.9714 37.2583 10.3639Z" fill="#EAD8AE"/>
<path opacity="0.26" d="M40.7225 10.3639C23.1473 25.1301 46.6411 44.0841 34.4698 52.3581C22.2986 60.6323 -28.109 76.7697 22.6531 108.784C73.4152 140.797 75.9834 156.344 112.221 136.074C148.459 115.803 144.682 117.827 174.503 131.53C204.324 145.234 235.493 123.914 224.895 98.6102C214.298 73.3069 207.551 73.6223 219.651 57.4632C231.752 41.304 210.683 -11.9893 169.028 22.5681C127.373 57.1254 122.839 36.7271 105.224 18.7575C95.687 9.02841 68.4969 -12.9714 40.7225 10.3639Z" fill="#EAD8AE"/>
<path opacity="0.26" d="M43.3394 17.1032C26.63 31.0911 48.9666 49.0463 37.3947 56.8845C25.8229 64.7228 -22.1016 80.0096 26.1601 110.337C74.4218 140.664 76.8634 155.391 111.316 136.188C145.769 116.986 142.178 118.903 170.53 131.885C198.882 144.866 228.516 124.669 218.44 100.699C208.365 76.7291 201.95 77.0281 213.455 61.7205C224.96 46.4129 204.928 -4.07208 165.325 28.6643C125.722 61.4006 121.411 42.0772 104.664 25.0544C95.5967 15.838 69.7459 -5.00243 43.3394 17.1032Z" fill="#EAD8AE"/>
<path d="M86.9089 134.647C78.6187 136.301 68.032 127.281 64.6217 117.426C61.1118 107.285 67.5471 103.037 67.4974 88.9643C67.4408 72.9786 59.109 70.5693 53.5976 49.0218C52.3541 44.1603 45.1585 16.0269 54.0768 10.7534C62.323 5.87756 85.4852 19.8706 89.5448 37.7803C92.4395 50.5508 83.4909 55.9128 86.9087 70.7867C89.9074 83.8375 97.7888 84.0263 100.808 96.6177C104.485 111.947 97.7938 132.475 86.9089 134.647Z" fill="#EAD8AE"/>
<path d="M86.306 138.52C88.5408 121.297 84.1811 94.7249 80.1302 75.4669C75.7445 54.617 70.7669 37.6099 70.7172 37.4404L70.0273 37.6424C70.0771 37.8114 75.0479 54.7959 79.4279 75.6194C83.4667 94.8214 87.8148 121.305 85.5929 138.428L86.306 138.52Z" fill="url(#paint0_linear_1723_10024)"/>
<path d="M68.9237 144.932C79.7981 139.277 83.5202 119.859 77.3389 113.548C73.1623 109.283 67.1726 113.769 61.3943 109.348C54.0166 103.705 59.4438 93.0755 53.6435 79.2901C48.7074 67.5588 36.867 56.4578 29.948 58.7355C22.7054 61.1197 18.8906 78.8102 25.0761 89.4567C29.0986 96.3805 35.2558 96.7204 36.5916 103.16C38.1416 110.632 30.6533 114.039 30.6124 121.283C30.5392 134.295 54.5378 152.413 68.9237 144.932Z" fill="#A27E2A"/>
<path d="M63.0563 149.905C63.1211 149.905 63.1871 149.891 63.2493 149.86C63.4695 149.754 63.5613 149.489 63.4544 149.27C49.0378 119.621 44.8104 85.2264 44.7694 84.8825C44.7406 84.6399 44.5198 84.4667 44.2772 84.4959C44.0345 84.5246 43.8609 84.7445 43.8899 84.987C43.9312 85.3324 48.1766 119.875 62.6575 149.656C62.7339 149.813 62.8918 149.905 63.0563 149.905Z" fill="url(#paint1_linear_1723_10024)"/>
<path d="M33.4774 93.7901C33.5229 93.7901 33.5688 93.7755 33.6074 93.7455C33.6997 93.6737 33.7162 93.541 33.6442 93.4491C29.0938 87.6195 24.0502 78.8615 25.8659 70.2427C26.9471 65.1097 29.9904 62.4325 30.0211 62.4061C30.1094 62.3299 30.1191 62.1966 30.0427 62.1083C29.9661 62.02 29.8323 62.0103 29.744 62.0867C29.6147 62.1983 26.5618 64.8845 25.4516 70.1556C24.4312 75.0002 24.9663 83.0191 33.3104 93.7083C33.3521 93.762 33.4145 93.7901 33.4774 93.7901Z" fill="#F0F0F0"/>
<path d="M69.9049 142.343C69.9725 142.343 70.0387 142.311 70.0798 142.251C77.073 132.065 79.4579 124.194 77.1676 118.858C75.1316 114.114 69.9907 113.231 69.939 113.222C69.8235 113.204 69.7151 113.282 69.6962 113.397C69.6776 113.512 69.7557 113.62 69.8711 113.639C69.9204 113.647 74.8393 114.498 76.7807 119.029C79.0062 124.224 76.6342 131.957 69.7305 142.012C69.6643 142.109 69.689 142.24 69.7853 142.306C69.8222 142.331 69.8639 142.343 69.9049 142.343Z" fill="#F0F0F0"/>
<path d="M143.753 90.2455C145.765 80.884 150.652 73.0999 156.857 68.1959C162.403 63.812 166.093 57.472 167.012 50.4773C167.108 49.7422 167.236 49.0017 167.396 48.2586C169.816 36.9996 178.689 29.3521 187.216 31.1775C195.743 33.0029 200.693 43.6098 198.273 54.8688C197.778 57.171 197.014 59.3217 196.037 61.2711C192.92 67.4924 192.156 74.6614 194.165 81.3249C195.96 87.2798 196.29 94.1511 194.782 101.17C192.532 111.638 186.687 120.134 179.426 124.836C176.679 126.615 174.266 128.88 172.341 131.52C169.143 135.908 164.27 138.302 159.483 137.277C154.319 136.171 150.7 131.397 149.903 125.488C149.453 122.145 148.349 118.933 146.765 115.95C143.028 108.908 141.718 99.7106 143.753 90.2455Z" fill="#A27E2A"/>
<path opacity="0.57" d="M181.656 42.5156C178.942 49.7182 176.463 57.0019 174.061 64.3116C173.459 66.1387 172.887 67.9753 172.309 69.81L171.443 72.5621L170.599 75.3215C170.044 77.1634 169.463 78.9974 168.929 80.8457L167.326 86.3897C166.305 90.0993 165.252 93.8002 164.3 97.5287C163.821 99.3921 163.306 101.246 162.865 103.119L161.517 108.732C159.795 116.233 158.261 123.78 157.113 131.39L157.441 131.443L158.517 125.782L158.783 124.366L159.085 122.958L159.692 120.141L160.295 117.325C160.494 116.385 160.728 115.453 160.943 114.517C161.385 112.649 161.813 110.776 162.267 108.91C164.133 101.458 166.098 94.0294 168.217 86.6428C169.304 82.9575 170.36 79.2634 171.473 75.5855L172.301 72.8249L173.151 70.0713C173.717 68.2351 174.283 66.3989 174.867 64.5684C176.005 60.8978 177.169 57.2347 178.363 53.5813C179.538 49.9218 180.748 46.2723 181.968 42.6284L181.656 42.5156Z" fill="white"/>
<path d="M177.229 112.124C180.454 105.907 185.398 101.353 190.712 99.0824C195.463 97.0522 199.285 93.2873 201.283 88.5308C201.493 88.0308 201.726 87.5331 201.982 87.0396C205.861 79.5631 213.584 75.8683 219.232 78.7869C224.88 81.7056 226.315 90.1325 222.436 97.6091C221.643 99.1379 220.689 100.508 219.625 101.696C216.229 105.487 214.306 110.396 214.432 115.479C214.545 120.022 213.449 124.93 211.031 129.591C207.425 136.542 201.67 141.415 195.651 143.342C193.374 144.07 191.237 145.206 189.373 146.7C186.274 149.181 182.382 149.937 179.211 148.299C175.79 146.531 174.166 142.471 174.747 138.153C175.076 135.709 174.919 133.233 174.382 130.826C173.112 125.145 173.968 118.409 177.229 112.124Z" fill="url(#paint2_linear_1723_10024)"/>
<path opacity="0.57" d="M213.129 85.7185C209.828 90.2783 206.675 94.9404 203.572 99.635C202.795 100.808 202.038 101.994 201.277 103.177L200.135 104.952L199.008 106.737C198.261 107.929 197.498 109.112 196.765 110.313L194.566 113.916C193.13 116.336 191.674 118.744 190.283 121.191C189.586 122.414 188.865 123.622 188.193 124.859L186.159 128.559C183.498 133.519 180.96 138.548 178.682 143.695L178.902 143.795L180.754 140.008L181.214 139.061L181.699 138.125L182.671 136.256L183.639 134.385C183.961 133.76 184.306 133.148 184.638 132.529C185.31 131.296 185.972 130.057 186.653 128.828C189.407 123.93 192.225 119.068 195.143 114.264C196.621 111.874 198.078 109.471 199.572 107.09L200.688 105.302L201.818 103.523C202.572 102.336 203.325 101.15 204.09 99.9707C205.6 97.5998 207.127 95.2395 208.673 92.8917C210.207 90.5358 211.764 88.1939 213.327 85.8577L213.129 85.7185Z" fill="white"/>
<path d="M178.722 115.909C177.732 112.686 175.989 109.821 173.706 107.499C170.818 104.563 167.064 102.495 162.873 101.671C162.873 101.671 155.28 100.274 148.194 98.0825C145.102 101.31 136.731 108.146 121.566 107.777C107.193 107.427 100.705 101.621 98.2254 98.4585C92.3297 100.432 86.4117 101.671 86.4117 101.671C78.9066 103.146 69.3649 108.61 67.1231 115.909C64.4709 124.544 61.7516 140.076 62.7351 150.451H183.11C184.093 140.076 181.374 124.544 178.722 115.909Z" fill="#082133"/>
<path d="M121.565 107.777C136.731 108.146 145.101 101.31 148.193 98.0826C142.044 96.1811 136.277 93.6816 136.18 90.9764L135.255 64.917H110.83L109.904 90.9764C109.801 93.8639 104.024 96.5172 98.2246 98.4588C100.704 101.621 107.192 107.427 121.565 107.777Z" fill="url(#paint3_linear_1723_10024)"/>
<path d="M101.621 41.807C101.621 41.807 104.52 71.3201 110.898 78.8429C110.898 78.8429 130.033 80.5791 136.991 76.5282C136.991 76.5282 141.919 61.7716 141.339 42.0962C141.339 42.0962 142.29 24.1919 122.495 22.7102C99.3016 20.9743 101.621 41.807 101.621 41.807Z" fill="url(#paint4_linear_1723_10024)"/>
<path d="M139.311 51.0658C139.311 51.0658 141.05 45.8577 143.949 45.8577C146.848 45.8577 143.369 59.7463 139.311 59.7463V51.0658Z" fill="url(#paint5_linear_1723_10024)"/>
<path d="M104.26 52.4339C104.26 52.4339 101.833 47.5073 98.9606 47.8975C96.088 48.2877 101.412 61.581 105.434 61.0349L104.26 52.4339Z" fill="url(#paint6_linear_1723_10024)"/>
<path d="M104.005 61.6815C104.711 67.4653 106.675 77.7316 112.005 83.9041C112.729 84.7417 113.765 85.2447 114.872 85.2979C118.835 85.4883 128.976 85.829 134.693 84.6921C136.116 84.4092 137.287 83.4081 137.755 82.0377C139.07 78.19 141.291 72.2649 140.883 59.3273C140.862 58.6625 139.95 58.492 139.692 59.1053L136.098 67.6533C134.19 72.7151 132.274 71.6267 130.942 69.6378C129.344 67.2534 126.659 65.8226 123.785 65.8226C121.086 65.8226 118.568 67.104 116.915 69.2334C116.893 69.2626 116.87 69.2917 116.847 69.3207C115.369 71.1727 112.496 71.01 111.204 69.0249L105.963 60.9715C105.345 60.0223 103.868 60.5582 104.005 61.6815Z" fill="url(#paint7_linear_1723_10024)"/>
<path d="M104.786 51.4272C103.672 51.9204 102.373 51.3699 101.957 50.2271C101.226 48.2164 100.102 45.1606 99.1923 42.8255C97.7106 39.023 89.879 34.1642 98.134 24.658C106.389 15.1517 111.064 25.4692 116.558 22.7398C122.052 20.0105 128.614 13.673 134.329 17.6867C140.044 21.7005 136.234 25.503 138.139 26.5592C140.044 27.6155 143.007 22.123 145.124 29.5167C146.762 35.2372 144.094 45.7688 142.803 50.2427C142.489 51.3291 141.25 51.8476 140.254 51.3095C139.728 51.0256 139.381 50.4981 139.331 49.9034C139.188 48.2176 138.852 44.483 138.351 40.2905C137.669 34.5855 132.452 42.4896 122.278 43.6082C112.104 44.7267 112.951 39.2342 108.082 39.2342C106.029 39.2342 105.966 46.3842 106.035 49.4663C106.053 50.3113 105.56 51.0843 104.786 51.4272Z" fill="url(#paint8_linear_1723_10024)"/>
<path opacity="0.65" d="M101.774 46.0939C101.965 45.968 101.973 45.6797 101.918 45.4221C101.894 45.2926 101.843 45.1598 101.799 45.0231C101.753 44.8883 101.714 44.7516 101.662 44.6192C101.463 44.0856 101.215 43.5712 100.948 43.0665C100.397 42.0639 99.7702 41.0995 99.1528 40.1122C98.5495 39.1191 97.9514 38.0945 97.55 36.9639C97.136 35.8373 96.9519 34.6283 96.9677 33.4286C97.002 32.2287 97.2253 31.0307 97.6673 29.9098C98.105 28.7892 98.7625 27.7494 99.5861 26.8744C101.236 25.1312 103.533 24.0096 105.887 23.8759C105.946 23.8725 105.996 23.9171 105.999 23.9756C106.002 24.0291 105.964 24.0758 105.913 24.0857C103.66 24.527 101.608 25.6982 100.124 27.3649C98.6448 29.0302 97.7968 31.22 97.7312 33.4474C97.7079 34.559 97.8479 35.6793 98.2162 36.7334C98.5679 37.7958 99.1039 38.8066 99.6733 39.8056C100.237 40.8089 100.846 41.8055 101.341 42.8698C101.584 43.4041 101.808 43.9485 101.981 44.5114C102.027 44.6511 102.059 44.7956 102.099 44.9371C102.136 45.0776 102.177 45.2202 102.195 45.3778C102.213 45.532 102.218 45.6925 102.18 45.8558C102.145 46.0174 102.042 46.1881 101.884 46.2747C101.832 46.3028 101.768 46.284 101.74 46.2329C101.713 46.1845 101.729 46.1241 101.774 46.0939Z" fill="white"/>
<path opacity="0.65" d="M102.821 46.5482C102.814 46.5482 102.807 46.5476 102.801 46.5463C102.743 46.5353 102.706 46.48 102.717 46.4227C103.154 44.1341 102.015 41.9339 100.913 39.8062C99.8417 37.7368 98.7336 35.5968 99.0096 33.3221C99.397 30.1303 102.363 27.9441 104.56 26.5775C104.61 26.5466 104.675 26.5619 104.706 26.6113C104.737 26.6607 104.722 26.726 104.672 26.7568C102.512 28.1006 99.5961 30.2458 99.2198 33.3476C98.9514 35.5577 100.044 37.6683 101.101 39.7094C102.22 41.869 103.376 44.1022 102.924 46.4625C102.915 46.5132 102.87 46.5482 102.821 46.5482Z" fill="white"/>
<path opacity="0.65" d="M117.699 38.325C117.893 38.9205 118.278 39.4402 118.776 39.8145C119.268 40.1969 119.859 40.4442 120.466 40.5722C121.076 40.6922 121.704 40.6796 122.321 40.5649C122.938 40.4558 123.536 40.2425 124.117 39.9896C125.275 39.4704 126.358 38.7555 127.437 38.0478C128.513 37.3308 129.571 36.5739 130.67 35.8631C131.765 35.1497 132.897 34.4673 134.113 33.936C135.329 33.4052 136.597 32.977 137.965 32.8844C138.644 32.8464 139.364 32.9311 140.004 33.2499C140.085 33.2875 140.162 33.3314 140.236 33.3802C140.31 33.4278 140.387 33.4728 140.459 33.523C140.596 33.6346 140.74 33.7383 140.858 33.8697C141.109 34.1156 141.308 34.4052 141.474 34.7041C141.807 35.3058 141.979 35.9621 142.093 36.6113C142.21 37.2626 142.252 37.9175 142.273 38.5688C142.275 38.6271 142.229 38.6759 142.171 38.6778C142.116 38.6794 142.069 38.6376 142.062 38.5842C141.983 37.9422 141.899 37.3017 141.75 36.6814C141.604 36.0618 141.392 35.4598 141.074 34.9342C140.914 34.6735 140.729 34.4293 140.506 34.2309C140.402 34.1228 140.275 34.0436 140.159 33.9517C140.097 33.9117 140.031 33.8767 139.967 33.8387C139.905 33.7994 139.839 33.7645 139.771 33.736C139.234 33.4869 138.615 33.435 138.003 33.4795C137.695 33.5028 137.387 33.5501 137.08 33.6158C136.773 33.6825 136.467 33.7759 136.162 33.8549C135.558 34.051 134.958 34.2586 134.379 34.5299C133.217 35.0531 132.107 35.7048 131.023 36.406C129.938 37.1065 128.87 37.8467 127.772 38.5552C126.673 39.2593 125.557 39.9565 124.327 40.4763C123.712 40.7307 123.067 40.9335 122.399 41.0313C121.735 41.134 121.039 41.1283 120.378 40.9635C119.721 40.7947 119.095 40.4985 118.577 40.0593C118.052 39.6322 117.662 39.0339 117.495 38.3809C117.481 38.3245 117.515 38.2669 117.572 38.2525C117.626 38.2386 117.682 38.2694 117.699 38.322L117.699 38.325Z" fill="white"/>
<path d="M118.562 61.5189C120.822 61.3077 122.912 62.7366 123.525 64.9169C126.391 75.1123 133.269 104.252 126.66 129.752C125.656 133.624 121.874 136.131 117.907 135.562C117.856 135.555 117.804 135.548 117.752 135.54C115.337 135.183 113.116 134.022 111.42 132.268C108.508 129.258 102.561 124.025 93.9761 120.911C89.4588 119.273 87.3357 114.113 89.4338 109.798C95.0861 98.171 104.906 78.0455 110.502 66.9994C112.067 63.9111 115.11 61.8415 118.562 61.5189Z" fill="#DFC486"/>
<path d="M96.8115 115.449C94.8773 115.241 93.5766 113.301 93.3347 111.582C93.0754 109.738 93.6581 107.917 94.2775 106.211C96.6905 99.5627 100.023 93.1805 103.245 87.0084C106.28 81.1946 109.419 75.1828 111.782 68.9619L111.98 69.0367C109.612 75.2692 106.471 81.2867 103.432 87.106C100.213 93.2719 96.8846 99.6477 94.4764 106.283C93.8662 107.964 93.2915 109.756 93.5442 111.552C93.775 113.193 95.0064 115.042 96.8342 115.239L96.8115 115.449Z" fill="white"/>
<path d="M77.8105 108.421C69.3094 127.738 62.4336 150.451 62.4336 150.451H83.0393L90.9536 111.034C85.5268 111.079 80.9269 109.711 77.8105 108.421Z" fill="#082133"/>
<path d="M119.619 63.205C119.156 62.2026 117.996 61.7279 116.958 62.1105L103.641 67.0212C102.118 67.5831 100.835 68.6529 100.011 70.0499L90.8996 85.498C86.5594 90.2524 81.9888 98.9267 77.8105 108.421C80.9267 109.711 85.5269 111.079 90.9538 111.035L94.8984 91.3883C95.4324 88.7284 97.2089 86.4835 99.6804 85.3547C102.445 84.0919 105.81 82.28 106.653 80.6276C108.144 77.7058 110.775 71.7657 116.913 69.2336C120.814 67.6241 120.423 64.9444 119.619 63.205Z" fill="url(#paint9_linear_1723_10024)"/>
<path d="M187.066 147.194C187.066 147.194 187.264 148.311 187.361 149.416C187.398 149.848 187.065 150.223 186.631 150.241C185.156 150.302 182.001 150.422 180.869 150.371C180.699 150.364 180.588 150.19 180.651 150.032C180.703 149.899 180.805 149.792 180.935 149.733L186.146 147.343L187.066 147.194Z" fill="url(#paint10_linear_1723_10024)"/>
<path d="M187.228 146.538L187.069 147.874C187.069 147.874 186.157 148.298 185.533 147.82L185.911 146.332L187.228 146.538Z" fill="url(#paint11_linear_1723_10024)"/>
<path d="M187.109 121.429C187.177 121.777 187.477 138.833 185.65 146.477C185.62 146.601 185.683 146.73 185.802 146.779C186.083 146.893 186.632 147.058 187.29 147.08C187.494 147.087 187.677 146.955 187.734 146.76C188.256 144.986 190.758 136.101 191.085 127.614C191.45 118.129 191.085 127.291 191.085 127.291L190.871 121.428L187.109 121.429Z" fill="url(#paint12_linear_1723_10024)"/>
<path d="M193.061 147.777C193.061 147.777 193.376 148.34 193.68 149.838C193.736 150.109 193.546 150.368 193.271 150.395C192.784 150.442 192.034 150.504 191.434 150.5C191.157 150.498 190.941 150.257 190.974 149.983C191.041 149.436 191.248 148.539 191.888 147.84L193.061 147.777Z" fill="url(#paint13_linear_1723_10024)"/>
<path d="M193.338 146.059L192.967 148.079C192.967 148.079 192.601 148.351 191.875 148.154L192.052 145.98L193.338 146.059Z" fill="url(#paint14_linear_1723_10024)"/>
<path d="M194.341 121.952C195.835 130.951 194.017 144.194 193.403 146.786C193.366 146.944 193.237 147.066 193.076 147.093C192.803 147.138 192.352 147.175 191.908 147.046C191.755 147.002 191.647 146.864 191.641 146.705C191.559 144.61 191.707 131.745 190.315 126.661C190.244 126.404 190.086 126.179 189.868 126.024L187.166 124.107L186.959 121.008L194.341 121.952Z" fill="url(#paint15_linear_1723_10024)"/>
<path d="M184.819 104.901C189.296 104.827 194.236 106.074 194.236 106.074C195.571 113.846 194.47 122.811 194.47 122.811C191.004 123.718 187.093 122.256 187.093 122.256C186.517 119.008 183.829 109.865 183.829 109.865C181.642 109.594 179.84 108.964 178.355 108.131C179.487 106.822 180.021 105.155 180.253 104.17C181.836 104.662 183.438 104.924 184.819 104.901Z" fill="#795E20"/>
<path d="M171.594 98.3191C172.034 97.7889 172.59 98.0398 172.59 98.0398C173.249 100.818 176.704 103.07 180.253 104.171C180.021 105.156 179.488 106.822 178.356 108.132C172.465 104.826 171.594 98.3191 171.594 98.3191Z" fill="url(#paint16_linear_1723_10024)"/>
<path d="M171.701 98.4536C171.655 98.5996 172.188 98.8221 172.502 98.2249C172.513 97.9386 172.687 96.7125 172.516 96.4793C171.603 95.2374 169.834 93.6807 169.834 93.6807C169.535 93.9751 169.781 94.2646 169.781 94.2646L170.639 95.1571C170.46 95.4809 170.241 95.7543 170.138 96.1459C170.06 96.4425 170.108 96.7596 170.258 97.0294C170.409 97.3004 170.614 97.6526 170.809 97.9281C171.177 98.4498 171.701 98.4536 171.701 98.4536Z" fill="url(#paint17_linear_1723_10024)"/>
<path d="M171.015 95.7361L171.797 96.3979L172.043 97.0568L171.345 97.8289C171.345 97.8289 171.111 96.5215 170.937 96.2384C170.762 95.9556 170.852 95.8189 171.015 95.7361Z" fill="url(#paint18_linear_1723_10024)"/>
<path d="M192.52 110.401L194.237 106.074C194.237 106.074 198.419 108.91 199.107 112.506C198.316 112.564 196.878 112.769 195.471 113.479C195.162 111.781 192.52 110.401 192.52 110.401Z" fill="#795E20"/>
<path d="M192.369 115.222C192.369 115.222 194.408 116.297 195.145 114.86C195.406 114.35 195.553 113.923 195.471 113.478C196.879 112.769 198.317 112.564 199.107 112.506C199.314 113.59 199.285 114.79 198.567 115.908C196.417 119.251 191.748 116.377 191.748 116.377L192.369 115.222Z" fill="url(#paint19_linear_1723_10024)"/>
<path d="M189.355 101.273L190.78 105.385C190.803 105.453 190.775 105.529 190.712 105.563C190.324 105.778 188.924 106.397 187.238 105.33C187.063 105.219 186.943 105.038 186.917 104.832L186.455 101.273L189.355 101.273Z" fill="url(#paint20_linear_1723_10024)"/>
<path d="M186.255 97.4656C186.255 97.4656 184.69 100.404 184.891 101.592C185.091 102.779 187.03 102.694 188.723 101.729L189.906 98.556L186.255 97.4656Z" fill="url(#paint21_linear_1723_10024)"/>
<path d="M188.648 100.171C188.579 100.141 188.554 100.057 188.595 99.9938C188.72 99.8027 188.955 99.4129 189.03 99.0715C189.03 99.0715 189.311 98.8917 188.314 98.6537C187.317 98.4154 185.83 98.0457 185.518 97.1988C185.213 96.373 186.014 94.2962 187.291 95.9509C187.339 96.0139 187.435 96.0154 187.483 95.9522C187.693 95.6803 188.243 95.1156 189.008 95.4579C189.723 95.7781 189.803 96.3012 189.793 96.5648C189.791 96.6424 189.86 96.7028 189.936 96.6882C190.298 96.6193 191.166 96.5602 191.571 97.4487C191.904 98.1805 191.687 98.5947 191.49 98.7973C191.426 98.863 191.454 98.971 191.542 98.9978C191.78 99.0705 192.086 99.2716 192.056 99.8272C192.013 100.595 191.153 100.528 190.907 100.493C190.867 100.487 190.827 100.501 190.8 100.531C190.59 100.763 189.643 101.748 188.619 101.867C188.53 101.877 188.461 101.789 188.49 101.705L188.933 100.419C188.954 100.359 188.925 100.294 188.868 100.268L188.648 100.171Z" fill="url(#paint22_linear_1723_10024)"/>
<path d="M188.47 100.354C188.47 100.354 189.584 99.5907 189.665 100.233C189.746 100.875 188.662 101.163 188.125 100.924L188.47 100.354Z" fill="url(#paint23_linear_1723_10024)"/>
<path d="M191.938 123.396C191.534 123.396 191.204 123.073 191.198 122.668L190.555 79.925C190.549 79.5167 190.875 79.1808 191.284 79.1747C191.702 79.1681 192.03 79.4947 192.036 79.9028L192.679 122.646C192.685 123.054 192.359 123.39 191.949 123.396C191.946 123.396 191.942 123.396 191.938 123.396Z" fill="#082133"/>
<path d="M193.79 117.314C193.79 117.314 194.147 115.849 194.003 115.329C193.859 114.81 193.58 114.141 192.65 114.29C191.72 114.438 190.623 114.829 190.623 114.829C190.623 114.829 190.679 115.506 191.385 115.288L190.947 115.626C190.947 115.626 191.01 116.168 191.606 115.879L191.199 116.328C191.199 116.328 191.455 116.773 191.894 116.487C192.334 116.202 192.545 117.49 193.79 117.314Z" fill="url(#paint24_linear_1723_10024)"/>
<path d="M189.536 83.6308C209.053 83.6308 224.874 67.8404 224.874 48.3618C224.874 28.8833 209.053 13.0928 189.536 13.0928C170.019 13.0928 154.197 28.8833 154.197 48.3618C154.197 67.8404 170.019 83.6308 189.536 83.6308Z" fill="#082133"/>
<path opacity="0.74" d="M210.515 68.5791C221.817 57.2995 221.817 39.0116 210.515 27.7319C199.213 16.4523 180.889 16.4523 169.587 27.7319C158.285 39.0116 158.285 57.2995 169.587 68.5791C180.889 79.8587 199.213 79.8587 210.515 68.5791Z" fill="white"/>
<path d="M169.419 74.9069L162.742 67.6536L212.316 22.1958L218.993 29.4491L169.419 74.9069Z" fill="#082133"/>
<path d="M200.935 30.0359L197.942 25.5591L191.756 30.0359H200.935Z" fill="url(#paint25_linear_1723_10024)"/>
<path d="M194.912 30.0359H176.736V65.7688H194.912V30.0359Z" fill="url(#paint26_linear_1723_10024)"/>
<path d="M200.934 30.0359H194.727V65.7688H200.934V30.0359Z" fill="url(#paint27_linear_1723_10024)"/>
<path d="M194.727 30.0359H176.736L179.95 25.5591H197.941L194.727 30.0359Z" fill="url(#paint28_linear_1723_10024)"/>
<path d="M197.94 25.5591H180.135V22.5925C180.135 22.3318 180.346 22.1204 180.608 22.1204H197.468C197.729 22.1204 197.941 22.3316 197.941 22.5925V25.5591H197.94Z" fill="url(#paint29_linear_1723_10024)"/>
<path d="M174.233 62.5905L207.428 44.5802C208.974 43.7413 210.908 44.3072 211.755 45.8472C214.343 50.5518 218.712 60.9275 215.63 73.3106C215.198 75.0471 213.422 76.0919 211.691 75.6242L174.586 65.593C173.166 65.2087 172.941 63.2921 174.233 62.5905Z" fill="url(#paint30_linear_1723_10024)"/>
<path d="M206.793 68.4787C208.293 68.4787 209.509 67.2654 209.509 65.7688C209.509 64.2721 208.293 63.0588 206.793 63.0588C205.294 63.0588 204.078 64.2721 204.078 65.7688C204.078 67.2654 205.294 68.4787 206.793 68.4787Z" fill="url(#paint31_linear_1723_10024)"/>
<path d="M205.656 58.8017C207.585 58.8017 209.148 57.2413 209.148 55.3165C209.148 53.3917 207.585 51.8313 205.656 51.8313C203.728 51.8313 202.164 53.3917 202.164 55.3165C202.164 57.2413 203.728 58.8017 205.656 58.8017Z" fill="url(#paint32_linear_1723_10024)"/>
<path d="M204.328 61.5966C204.107 62.3119 203.348 62.7135 202.631 62.4936C201.914 62.2736 201.512 61.5155 201.732 60.8002C201.953 60.0849 202.712 59.6833 203.429 59.9032C204.146 60.1231 204.548 60.8813 204.328 61.5966Z" fill="url(#paint33_linear_1723_10024)"/>
<path d="M195.226 56.1838C196.678 55.8093 198.159 56.6803 198.534 58.1294C198.91 59.5784 198.037 61.0567 196.585 61.4313C195.133 61.8058 193.652 60.9346 193.277 59.4857C192.901 58.0365 193.774 56.5581 195.226 56.1838Z" fill="url(#paint34_linear_1723_10024)"/>
<path d="M185.789 59.0531C187.656 58.5715 189.561 59.6917 190.044 61.5554C190.527 63.419 189.404 65.3203 187.537 65.8019C185.669 66.2836 183.764 65.1633 183.282 63.2997C182.799 61.4358 183.922 59.5348 185.789 59.0531Z" fill="url(#paint35_linear_1723_10024)"/>
<path d="M193.635 63.0876C194.361 62.9004 195.102 63.3358 195.29 64.0604C195.477 64.785 195.041 65.5239 194.315 65.7113C193.589 65.8985 192.848 65.4631 192.661 64.7385C192.473 64.0139 192.909 63.2748 193.635 63.0876Z" fill="url(#paint36_linear_1723_10024)"/>
<path d="M196.453 54.0258C198.704 62.7633 194.651 70.1026 187.774 71.8673C180.897 73.6321 173.8 69.1541 171.549 60.4165C169.298 51.679 172.745 41.9909 179.622 40.2261C186.499 38.4613 194.202 45.2883 196.453 54.0258Z" fill="url(#paint37_linear_1723_10024)"/>
<path d="M191.799 57.1416C193.003 61.8146 190.534 65.8174 186.484 66.8567C182.434 67.8961 178.336 65.5785 177.132 60.9054C175.928 56.2323 178.074 50.9733 182.124 49.9339C186.174 48.8946 190.595 52.4685 191.799 57.1416Z" fill="url(#paint38_linear_1723_10024)"/>
<path d="M40.4109 97.6965C59.9278 97.6965 75.7495 81.906 75.7495 62.4275C75.7495 42.9489 59.9278 27.1584 40.4109 27.1584C20.8939 27.1584 5.07227 42.9489 5.07227 62.4275C5.07227 81.906 20.8939 97.6965 40.4109 97.6965Z" fill="#082133"/>
<path opacity="0.74" d="M61.3916 82.6435C72.6935 71.3639 72.6935 53.076 61.3916 41.7964C50.0897 30.5168 31.7657 30.5168 20.4639 41.7964C9.16199 53.076 9.16198 71.3639 20.4639 82.6435C31.7657 93.9232 50.0897 93.9232 61.3916 82.6435Z" fill="white"/>
<path d="M20.2944 88.9726L13.6172 81.7193L63.1914 36.2615L69.8687 43.5147L20.2944 88.9726Z" fill="#082133"/>
<path d="M34.7721 42.1759C35.6412 46.0581 34.8767 49.5327 33.0648 49.9368C31.2527 50.3409 29.0793 47.5214 28.2102 43.639C27.3411 39.7569 28.1057 36.2823 29.9178 35.8781C31.7296 35.474 33.9032 38.2938 34.7721 42.1759Z" fill="#D5B15D"/>
<path d="M31.4733 52.6771C32.3424 56.5593 31.5779 60.0339 29.766 60.438C27.9539 60.8421 25.7805 58.0226 24.9114 54.1402C24.0423 50.2581 24.8069 46.7834 26.6189 46.3793C28.4306 45.9754 30.6042 48.795 31.4733 52.6771Z" fill="#D5B15D"/>
<path d="M28.1745 63.1783C29.0436 67.0605 28.279 70.5351 26.4672 70.9392C24.6551 71.3434 22.4817 68.5238 21.6126 64.6415C20.7435 60.7593 21.508 57.2847 23.3201 56.8805C25.132 56.4766 27.3054 59.2962 28.1745 63.1783Z" fill="#D5B15D"/>
<path d="M38.4549 43.328C35.5207 46.0201 34.1608 49.3087 35.4174 50.6727C36.6741 52.0368 40.0714 50.9602 43.0055 48.2681C45.9396 45.5759 47.2996 42.2874 46.0429 40.9233C44.7865 39.5591 41.389 40.6358 38.4549 43.328Z" fill="#D5B15D"/>
<path d="M35.156 53.8294C32.2219 56.5216 30.862 59.8099 32.1186 61.1742C33.3753 62.5382 36.7725 61.4617 39.7067 58.7695C42.6408 56.0773 44.0007 52.789 42.7441 51.4248C41.4876 50.0605 38.0904 51.1373 35.156 53.8294Z" fill="#D5B15D"/>
<path d="M31.8572 64.3306C28.9231 67.0227 27.5631 70.3113 28.8198 71.6753C30.0765 73.0396 33.4737 71.9628 36.4078 69.2706C39.342 66.5785 40.7019 63.2899 39.4452 61.9259C38.1886 60.5619 34.7913 61.6384 31.8572 64.3306Z" fill="#D5B15D"/>
<path d="M41.4735 36.7009C40.259 40.5674 38.049 43.3183 36.537 42.8453C35.0251 42.3723 34.7842 38.8544 35.9985 34.9879C37.2131 31.1213 39.4231 28.3704 40.935 28.8434C42.447 29.3166 42.6881 32.8344 41.4735 36.7009Z" fill="#D5B15D"/>
<path d="M44.7457 26.2852C44.7457 26.2852 44.8598 42.0736 36.5375 42.8455L35.916 44.8238C35.916 44.8238 46.5118 42.4967 44.7457 26.2852Z" fill="url(#paint39_linear_1723_10024)"/>
<path d="M49.5586 38.4804C49.6337 38.1192 46.0644 52.2962 33.7534 52.0076L33.0293 54.3128C33.0293 54.3128 46.6096 52.6542 49.5586 38.4804Z" fill="url(#paint40_linear_1723_10024)"/>
<path d="M47.212 53.1243C47.4317 52.8275 36.554 64.3235 30.6144 61.9964L29.9707 64.0453C29.9707 64.0453 37.7452 65.9153 47.212 53.1243Z" fill="url(#paint41_linear_1723_10024)"/>
<path d="M39.3549 24.5989C39.3549 24.5989 30.2301 37.4967 36.6216 42.8722L36.0002 44.8506C36.0002 44.8506 28.6314 36.9029 39.3549 24.5989Z" fill="url(#paint42_linear_1723_10024)"/>
<path d="M28.4271 31.8695C28.5721 31.53 23.3933 45.2034 33.6661 51.9807L32.942 54.2859C32.942 54.2859 22.7409 45.1867 28.4271 31.8695Z" fill="url(#paint43_linear_1723_10024)"/>
<path d="M21.9766 45.2288C21.966 44.8602 24.3212 60.4963 30.529 61.9698L29.8853 64.0187C29.8853 64.0187 22.433 61.1245 21.9766 45.2288Z" fill="url(#paint44_linear_1723_10024)"/>
<path d="M36.8053 41.1134C33.7782 49.3747 27.6689 66.7128 25.5202 77.6926C25.4163 78.2234 26.1152 78.3988 26.2875 77.885C29.075 69.5675 35.1363 51.1686 37.5626 41.3423C37.6938 40.8104 36.9936 40.5985 36.8053 41.1134Z" fill="url(#paint45_linear_1723_10024)"/>
<path d="M32.5364 71.3885C32.5364 71.3885 30.4098 72.6552 28.8163 70.8501C27.2619 69.0891 20.8615 62.019 12.5377 71.7629C12.2919 72.0504 12.475 72.4957 12.8526 72.5223C13.7717 72.587 15.1998 72.8702 16.3858 73.9079C18.3064 75.5886 28.1674 77.237 30.6671 75.2196C33.1667 73.2023 32.5364 71.3885 32.5364 71.3885Z" fill="url(#paint46_linear_1723_10024)"/>
<path opacity="0.33" d="M14.6431 71.0533C14.571 71.0533 14.5011 71.0151 14.4643 70.9475C14.4128 70.853 14.444 70.736 14.5333 70.679C14.5502 70.6656 14.5796 70.6388 14.6215 70.601C16.4307 68.9765 21.3701 65.733 28.1439 70.6861C28.2347 70.7525 28.2542 70.8796 28.1877 70.9701C28.1212 71.0607 27.9938 71.0803 27.903 71.014C21.3701 66.237 16.629 69.3451 14.8938 70.9031C14.8053 70.9825 14.7754 71.0094 14.7403 71.0284C14.7094 71.0453 14.6759 71.0533 14.6431 71.0533ZM14.5454 70.6716C14.5428 70.673 14.5396 70.6745 14.536 70.6771C14.539 70.6752 14.5422 70.6735 14.5454 70.6716Z" fill="white"/>
<path opacity="0.33" d="M16.0885 71.6684C16.0292 71.6684 15.9704 71.6426 15.9301 71.5932C15.8594 71.5059 15.8728 71.3779 15.9602 71.3073C16.0047 71.2714 17.0738 70.4201 19.077 69.9853C20.9128 69.5869 23.9148 69.4832 27.7919 71.2514C27.8942 71.298 27.9393 71.4187 27.8925 71.5207C27.8457 71.6227 27.7248 71.6675 27.6226 71.621C20.4139 68.3332 16.2578 71.5898 16.2165 71.6229C16.1789 71.6534 16.1336 71.6684 16.0885 71.6684Z" fill="white"/>
<path d="M14.5524 79.0101C14.3468 78.9533 14.3307 78.6652 14.5274 78.5823C15.2873 78.2619 16.6324 77.5054 18.1693 75.7888C20.5489 73.1315 25.2532 71.0635 30.8581 73.8212L32.4752 73.8486C32.4752 73.8486 34.1347 84.4158 14.5524 79.0101Z" fill="url(#paint47_linear_1723_10024)"/>
<path opacity="0.33" d="M24.4339 79.8543C23.5837 79.9369 22.6733 79.9565 21.7081 79.912C18.8847 79.781 16.5515 79.142 16.5282 79.1354C16.4198 79.1054 16.3563 78.9934 16.3864 78.8853C16.4164 78.7771 16.5288 78.714 16.637 78.7438C16.728 78.7689 25.7822 81.2179 29.8992 77.2906C29.9804 77.2132 30.1093 77.216 30.187 77.2971C30.2647 77.3782 30.262 77.5069 30.1805 77.5844C28.8578 78.8462 26.8988 79.6147 24.4339 79.8543Z" fill="white"/>
<path opacity="0.33" d="M24.088 78.6556C21.135 78.9425 18.9455 78.3958 18.3586 78.2259L18.3433 78.2215C18.2604 78.2023 18.1954 78.1324 18.1865 78.0432C18.1757 77.9315 18.2574 77.8322 18.3694 77.8212C18.409 77.8174 18.4339 77.8246 18.4718 77.8355C19.371 78.0956 24.1333 79.2644 29.592 76.7421C29.694 76.6952 29.815 76.7394 29.8622 76.8412C29.9095 76.943 29.865 77.0639 29.763 77.111C27.7257 78.0523 25.7813 78.4911 24.088 78.6556Z" fill="white"/>
<path d="M67.1764 70.3915C66.0315 69.3251 64.6425 68.3069 62.9587 67.378C51.7673 61.204 40.8089 64.7173 34.7175 69.4476C28.6262 74.1782 28.6071 74.262 30.0786 75.5722C31.6283 76.9519 30.949 74.8176 33.5066 73.3482C35.4749 72.2173 42.9486 71.0288 49.096 78.3717C50.7494 80.3464 52.6074 82.0443 54.5293 83.4411C54.8479 73.5311 64.0382 70.9236 67.1764 70.3915Z" fill="url(#paint48_linear_1723_10024)"/>
<path d="M67.1764 70.3916C64.0382 70.924 54.8479 73.5312 54.5293 83.4411C59.7539 87.2379 65.4517 88.8048 68.8001 87.6275C68.9899 87.5607 70.9123 88.1727 71.6502 85.9107C72.2771 83.9887 73.6413 76.4133 67.1764 70.3916Z" fill="url(#paint49_linear_1723_10024)"/>
<path d="M62.032 81.5641C62.9223 81.5641 63.644 80.8917 63.644 80.0623C63.644 79.2329 62.9223 78.5605 62.032 78.5605C61.1417 78.5605 60.4199 79.2329 60.4199 80.0623C60.4199 80.8917 61.1417 81.5641 62.032 81.5641Z" fill="url(#paint50_linear_1723_10024)"/>
<path d="M62.2035 80.82C62.6513 80.82 63.0144 80.4577 63.0144 80.0107C63.0144 79.5638 62.6513 79.2014 62.2035 79.2014C61.7556 79.2014 61.3926 79.5638 61.3926 80.0107C61.3926 80.4577 61.7556 80.82 62.2035 80.82Z" fill="url(#paint51_linear_1723_10024)"/>
<path opacity="0.33" d="M61.9136 78.9458C62.0611 78.9874 62.1466 79.1406 62.1049 79.2876C62.0632 79.4349 61.9098 79.5202 61.7624 79.4786C61.6151 79.437 61.5294 79.2838 61.5711 79.1368C61.6128 78.9898 61.766 78.9042 61.9136 78.9458Z" fill="white"/>
<path opacity="0.33" d="M62.2146 80.011C62.2814 80.011 62.3355 79.957 62.3355 79.8904C62.3355 79.8238 62.2814 79.7698 62.2146 79.7698C62.1479 79.7698 62.0938 79.8238 62.0938 79.8904C62.0938 79.957 62.1479 80.011 62.2146 80.011Z" fill="white"/>
<path d="M63.6855 85.729C63.6855 85.729 64.1967 86.8081 66.9141 87.9896C67.6005 87.9448 68.2347 87.8263 68.8005 87.6273C68.8005 87.6273 66.7983 87.6695 63.6855 85.729Z" fill="url(#paint52_linear_1723_10024)"/>
<path d="M53.1029 73.1313C52.1766 74.0294 50.7796 75.8907 52.237 77.9977C52.3028 78.0928 52.4533 78.0359 52.4393 77.9212C52.3333 77.0524 52.2344 75.0184 53.2754 73.2682C53.3421 73.1561 53.1967 73.0405 53.1029 73.1313Z" fill="url(#paint53_linear_1723_10024)"/>
<path d="M54.5345 73.9373C53.9062 74.5869 53.1305 75.8464 53.9437 77.6707C53.9956 77.7871 54.1725 77.7402 54.1571 77.6137C54.0563 76.778 54.022 75.3214 54.712 74.0674C54.7741 73.9551 54.6236 73.845 54.5345 73.9373Z" fill="url(#paint54_linear_1723_10024)"/>
<path d="M36.0886 64.277C35.6602 64.3869 35.5922 64.9609 35.9798 65.1736C36.2998 65.3493 36.7648 65.4974 37.4352 65.5268C39.2629 65.6071 39.5644 66.7275 40.4078 66.6885C41.2513 66.6494 52.411 60.6461 66.5753 69.8519C66.5753 69.8519 64.7694 64.8778 59.1621 62.9383C52.0393 60.4743 39.352 63.4405 36.0886 64.277Z" fill="url(#paint55_linear_1723_10024)"/>
<path d="M37.1894 79.6878C36.8596 79.6829 36.7311 79.2581 37.0027 79.0716C38.4714 78.0626 41.4318 75.9759 42.5924 74.773C44.1638 73.1443 46.0927 71.0728 48.2314 71.6776C50.3701 72.2824 47.8267 72.4525 47.1625 73.3885C46.4983 74.3246 45.9761 77.9912 43.1719 78.9655C41.2331 79.6392 38.6186 79.7089 37.1894 79.6878Z" fill="url(#paint56_linear_1723_10024)"/>
<path opacity="0.33" d="M46.4688 72.3452C45.8872 73.0328 45.2716 73.6862 44.633 74.3191C43.9949 74.9518 43.3347 75.5638 42.6459 76.1441C41.9548 76.721 41.2489 77.284 40.4924 77.7798C39.7397 78.2783 38.9496 78.7323 38.1014 79.0589C38.0489 79.0792 37.9901 79.053 37.9698 79.0006C37.9511 78.9524 37.9717 78.899 38.0159 78.8749L38.0212 78.8721C38.2164 78.7655 38.4117 78.6611 38.6077 78.5595C38.707 78.5115 38.7991 78.448 38.8941 78.3911L39.1769 78.2166C39.3689 78.1068 39.5505 77.9786 39.734 77.8539C39.9175 77.7293 40.1042 77.6101 40.2807 77.4747L40.8184 77.0816L41.3441 76.6716C41.5222 76.5387 41.6911 76.3933 41.8644 76.2539C42.0371 76.1139 42.2092 75.9727 42.3779 75.8274C43.0616 75.257 43.7224 74.6583 44.3792 74.0548C44.5445 73.9048 44.7056 73.7508 44.8688 73.5985C45.0329 73.447 45.1935 73.2924 45.3552 73.1384C45.6812 72.8336 45.9998 72.5192 46.3185 72.2083L46.32 72.2068C46.3602 72.1675 46.4248 72.1681 46.4642 72.2083C46.5008 72.2463 46.502 72.3057 46.4688 72.3452Z" fill="white"/>
<path opacity="0.33" d="M45.9683 73.7767C45.8633 74.0885 45.7282 74.3853 45.5832 74.6785C45.4376 74.9713 45.2757 75.2559 45.1025 75.5341C44.9252 75.8093 44.7414 76.0821 44.537 76.3398C44.4364 76.4699 44.3306 76.596 44.2246 76.7222C44.1149 76.8453 44.0042 76.9676 43.8878 77.0847C43.6571 77.3206 43.4149 77.5475 43.151 77.7493C42.8892 77.9529 42.615 78.1428 42.3196 78.2979C42.026 78.455 41.7174 78.5852 41.3973 78.6771C41.0762 78.7649 40.7462 78.8158 40.4171 78.8213C40.3889 78.8218 40.3657 78.7994 40.3652 78.7713C40.3648 78.7461 40.3828 78.725 40.4067 78.7204L40.4082 78.7202C40.7238 78.6602 41.0294 78.5744 41.3235 78.4597C41.6172 78.3431 41.8947 78.1931 42.1629 78.0294C42.6951 77.6931 43.1751 77.2779 43.6122 76.82C44.0487 76.3611 44.4468 75.863 44.8191 75.3446C45.1931 74.827 45.5426 74.2873 45.8747 73.7357L45.8756 73.7344C45.8902 73.7104 45.9215 73.7025 45.9456 73.7169C45.9672 73.7292 45.9757 73.7545 45.9683 73.7767Z" fill="white"/>
<path d="M35.2933 78.9904C35.9149 78.2472 36.7978 77.8209 37.7486 77.713C38.303 77.65 38.8632 77.5148 39.3933 77.3055C41.605 76.4321 42.4504 74.6044 41.8187 73.0112C41.1871 71.4179 39.3175 70.6623 37.1058 71.5356C36.5758 71.7449 36.0743 72.0289 35.6271 72.3616C34.8596 72.9322 33.9236 73.2241 32.9607 73.1067C31.6598 72.948 30.1803 73.1257 28.8438 73.6534C25.8735 74.8262 24.7377 77.2812 25.586 79.4211C26.4344 81.5611 28.9456 82.5759 31.9159 81.4029C33.2526 80.8754 34.4534 79.9945 35.2933 78.9904Z" fill="#F4EBD7"/>
<path d="M39.3233 83.7007C40.2335 83.3656 41.2116 83.4351 42.0898 83.8145C42.6018 84.0357 43.1551 84.1971 43.7192 84.2793C46.0727 84.6221 47.7184 83.4581 47.9663 81.7627C48.2142 80.0672 46.9706 78.4822 44.6171 78.1393C44.053 78.0571 43.4766 78.054 42.9227 78.1199C41.9725 78.2329 41.0152 78.0204 40.239 77.4396C39.1904 76.6551 37.8188 76.0733 36.3966 75.866C33.2356 75.4055 31.0254 76.969 30.6922 79.2462C30.3592 81.5235 32.0295 83.6523 35.1905 84.1126C36.6127 84.3198 38.0938 84.1536 39.3233 83.7007Z" fill="#DFC486"/>
<path d="M34.3561 96.9958C34.3561 96.9958 40.0349 104.252 33.5557 111.632L31.1199 111.406C31.1199 111.406 35.8087 103.892 33.7202 97.902L31.318 97.7421C30.8775 97.7128 30.4629 97.5237 30.1524 97.2104L29.4666 96.5183C29.2231 96.2727 29.4528 95.862 29.7902 95.9402L34.3561 96.9958Z" fill="#141005"/>
<path d="M31.2473 132.522C31.2473 132.522 26.6463 142.531 24.2324 146.676C24.2324 146.676 23.753 149.284 24.2324 150.105L24.641 150.286L22.734 150.229C22.734 150.229 22.5647 146.721 22.697 146.525C22.8293 146.329 23.0939 146.342 23.0939 146.342C23.0939 146.342 23.9115 139.876 26.2797 138.496L28.5746 130.608L31.2473 132.522Z" fill="url(#paint57_linear_1723_10024)"/>
<path d="M25.4539 150.777C25.4567 150.823 23.9648 150.802 23.1544 150.787C22.8551 150.782 22.6 150.572 22.5363 150.28L21.9244 147.071C21.8662 146.766 22.0603 146.47 22.3634 146.4L22.705 146.323C22.705 146.323 23.1922 146.99 23.039 147.618C22.8855 148.246 22.749 149.873 23.1368 150.063C23.5244 150.252 24.6396 150.285 24.6396 150.285C24.6396 150.285 25.4285 150.364 25.4539 150.777Z" fill="#C19632"/>
<path d="M35.6081 150.835C35.759 150.921 35.6968 151.151 35.523 151.149C34.1669 151.136 31.1278 151.093 30.8579 150.981C30.5093 150.836 30.9849 149.585 31.4855 149.162L34.2497 150.063L35.6081 150.835Z" fill="#C19632"/>
<path d="M36.4649 131.884C36.4649 131.884 33.4916 146.239 32.6507 149.039L34.6403 150.286C34.6403 150.286 33.6432 150.116 32.9038 150.063C32.1645 150.009 31.4844 149.163 31.4844 149.163L31.7227 148.783C31.7227 148.783 32.4684 134.506 32.2868 132.885L36.4649 131.884Z" fill="url(#paint58_linear_1723_10024)"/>
<path d="M43.8452 98.4005C43.8452 98.4005 44.2554 105.868 37.4434 109.684L39.0834 113.417C39.0834 113.417 45.2426 109.699 45.0231 99.5594C45.0166 99.2611 45.1169 98.9705 45.3121 98.7444L46.6229 97.2268C47.1222 96.6486 47.3089 95.8642 47.1233 95.1236L46.9508 94.4354C46.893 94.2049 46.6301 94.094 46.4242 94.2133L46.287 94.2928C45.8505 94.5456 45.5049 94.9293 45.2989 95.3889L44.6553 96.8248C44.4449 97.2942 44.3682 97.3825 43.9593 97.3633C43.8251 97.3569 43.6905 97.3698 43.5614 97.4066L42.876 97.6018L43.8452 98.4005Z" fill="url(#paint59_linear_1723_10024)"/>
<path d="M37.6804 109.124C36.5408 109.44 32.6798 110.453 30.2695 110.412L31.7495 118.747L31.6316 120.106L36.4568 120.085C36.4568 120.085 37.815 116.936 38.8867 115.367C39.1961 114.913 38.9659 114.373 38.7904 113.853L39.0315 113.693C39.2768 113.53 39.383 113.223 39.2916 112.944L38.1166 109.356C38.0555 109.175 37.8648 109.073 37.6804 109.124Z" fill="#082133"/>
<path d="M36.8433 119.373L36.7485 120.197C36.7485 120.197 38.1121 124.272 36.0667 133.791C36.0667 133.791 31.637 135.044 27.9961 132.047C27.9961 132.047 29.0231 123.062 29.3036 122.644C30.7008 120.559 31.6317 120.106 31.6317 120.106L31.6736 119.207C31.6736 119.207 35.5678 119.909 36.8433 119.373Z" fill="#C19632"/>
<path d="M34.956 109.796C34.9729 109.774 33.9487 106.71 33.9487 106.71L32.4814 106.843L31.9082 110.319C31.9082 110.319 34.2077 110.782 34.956 109.796Z" fill="url(#paint60_linear_1723_10024)"/>
<path d="M32.8319 101.878C32.9297 101.939 35.9671 103.191 35.3145 106.338C35.276 106.524 35.1516 106.682 34.9778 106.759C34.532 106.958 33.5725 107.298 32.4249 107.181C30.8338 107.02 29.7911 104.249 29.8353 103.442C29.8796 102.636 31.8623 101.275 32.8319 101.878Z" fill="url(#paint61_linear_1723_10024)"/>
<path d="M33.8357 108.471C33.8357 107.781 33.6912 107.126 33.431 106.533C33.1379 105.864 33.1982 105.083 33.667 104.523C34.4348 103.606 34.7133 102.444 34.2902 101.426C33.6296 99.8371 31.5114 99.2046 29.559 100.013C28.1751 100.586 27.2476 101.73 27.0601 102.913C26.9523 103.593 26.5876 104.199 26.0394 104.617C25.2622 105.209 24.6699 106.031 24.3628 106.981C24.1554 107.622 23.7382 108.175 23.1512 108.509C21.8258 109.264 20.7211 110.429 20.052 111.924C18.3737 115.674 20.0694 120.076 23.8392 121.757C27.6089 123.437 32.0256 121.759 33.7039 118.009C34.6363 115.926 34.526 113.641 33.5983 111.734C33.3654 111.256 33.3167 110.704 33.5096 110.208C33.7195 109.67 33.8357 109.084 33.8357 108.471Z" fill="url(#paint62_linear_1723_10024)"/>
<defs>
<linearGradient id="paint0_linear_1723_10024" x1="68.5976" y1="37.8763" x2="89.1805" y2="137.929" gradientUnits="userSpaceOnUse">
<stop stop-color="#2B3582"/>
<stop offset="1" stop-color="#150E42"/>
</linearGradient>
<linearGradient id="paint1_linear_1723_10024" x1="46.5867" y1="84.0193" x2="60.261" y2="150.489" gradientUnits="userSpaceOnUse">
<stop stop-color="#2B3582"/>
<stop offset="1" stop-color="#150E42"/>
</linearGradient>
<linearGradient id="paint2_linear_1723_10024" x1="222.025" y1="86.0516" x2="173.518" y2="86.3716" gradientUnits="userSpaceOnUse">
<stop stop-color="#C19632"/>
<stop offset="1" stop-color="#082133"/>
</linearGradient>
<linearGradient id="paint3_linear_1723_10024" x1="127.428" y1="55.9378" x2="111.974" y2="211.6" gradientUnits="userSpaceOnUse">
<stop stop-color="#F9B776"/>
<stop offset="1" stop-color="#F47960"/>
</linearGradient>
<linearGradient id="paint4_linear_1723_10024" x1="122.685" y1="76.5128" x2="121.192" y2="33.4091" gradientUnits="userSpaceOnUse">
<stop stop-color="#F9B776"/>
<stop offset="0.0496" stop-color="#F9B475"/>
<stop offset="1" stop-color="#F47960"/>
</linearGradient>
<linearGradient id="paint5_linear_1723_10024" x1="142.927" y1="75.8119" x2="141.435" y2="32.7076" gradientUnits="userSpaceOnUse">
<stop stop-color="#F9B776"/>
<stop offset="0.0496" stop-color="#F9B475"/>
<stop offset="1" stop-color="#F47960"/>
</linearGradient>
<linearGradient id="paint6_linear_1723_10024" x1="102.551" y1="77.2102" x2="101.059" y2="34.1065" gradientUnits="userSpaceOnUse">
<stop stop-color="#F9B776"/>
<stop offset="0.0496" stop-color="#F9B475"/>
<stop offset="1" stop-color="#F47960"/>
</linearGradient>
<linearGradient id="paint7_linear_1723_10024" x1="123.945" y1="37.2562" x2="121.278" y2="84.0183" gradientUnits="userSpaceOnUse">
<stop stop-color="#2B3582"/>
<stop offset="1" stop-color="#150E42"/>
</linearGradient>
<linearGradient id="paint8_linear_1723_10024" x1="143.903" y1="70.1582" x2="110.268" y2="19.1733" gradientUnits="userSpaceOnUse">
<stop stop-color="#2B3582"/>
<stop offset="1" stop-color="#150E42"/>
</linearGradient>
<linearGradient id="paint9_linear_1723_10024" x1="62.4338" y1="86.507" x2="120.146" y2="86.507" gradientUnits="userSpaceOnUse">
<stop stop-color="#F9B776"/>
<stop offset="0.0496" stop-color="#F9B475"/>
<stop offset="1" stop-color="#F47960"/>
</linearGradient>
<linearGradient id="paint10_linear_1723_10024" x1="181.034" y1="145.651" x2="200.076" y2="166.404" gradientUnits="userSpaceOnUse">
<stop stop-color="#CB236D"/>
<stop offset="1" stop-color="#4C246D"/>
</linearGradient>
<linearGradient id="paint11_linear_1723_10024" x1="187.228" y1="147.19" x2="185.533" y2="147.19" gradientUnits="userSpaceOnUse">
<stop stop-color="#F9B776"/>
<stop offset="1" stop-color="#F47960"/>
</linearGradient>
<linearGradient id="paint12_linear_1723_10024" x1="191.247" y1="134.254" x2="185.643" y2="134.254" gradientUnits="userSpaceOnUse">
<stop stop-color="#2B3582"/>
<stop offset="1" stop-color="#150E42"/>
</linearGradient>
<linearGradient id="paint13_linear_1723_10024" x1="185.316" y1="141.723" x2="204.358" y2="162.476" gradientUnits="userSpaceOnUse">
<stop stop-color="#CB236D"/>
<stop offset="1" stop-color="#4C246D"/>
</linearGradient>
<linearGradient id="paint14_linear_1723_10024" x1="193.339" y1="147.103" x2="191.875" y2="147.103" gradientUnits="userSpaceOnUse">
<stop stop-color="#F9B776"/>
<stop offset="1" stop-color="#F47960"/>
</linearGradient>
<linearGradient id="paint15_linear_1723_10024" x1="194.916" y1="134.071" x2="186.959" y2="134.071" gradientUnits="userSpaceOnUse">
<stop stop-color="#2B3582"/>
<stop offset="1" stop-color="#150E42"/>
</linearGradient>
<linearGradient id="paint16_linear_1723_10024" x1="180.253" y1="103.056" x2="171.594" y2="103.056" gradientUnits="userSpaceOnUse">
<stop stop-color="#F9B776"/>
<stop offset="1" stop-color="#F47960"/>
</linearGradient>
<linearGradient id="paint17_linear_1723_10024" x1="173.523" y1="101.607" x2="179.315" y2="114.81" gradientUnits="userSpaceOnUse">
<stop stop-color="#F9B776"/>
<stop offset="1" stop-color="#F47960"/>
</linearGradient>
<linearGradient id="paint18_linear_1723_10024" x1="171.636" y1="97.2128" x2="169.218" y2="93.488" gradientUnits="userSpaceOnUse">
<stop stop-color="#F9B776"/>
<stop offset="1" stop-color="#F47960"/>
</linearGradient>
<linearGradient id="paint19_linear_1723_10024" x1="199.219" y1="115.016" x2="191.748" y2="115.016" gradientUnits="userSpaceOnUse">
<stop stop-color="#F9B776"/>
<stop offset="1" stop-color="#F47960"/>
</linearGradient>
<linearGradient id="paint20_linear_1723_10024" x1="190.788" y1="103.605" x2="186.455" y2="103.605" gradientUnits="userSpaceOnUse">
<stop stop-color="#F9B776"/>
<stop offset="1" stop-color="#F47960"/>
</linearGradient>
<linearGradient id="paint21_linear_1723_10024" x1="185.424" y1="100.854" x2="190.183" y2="97.9462" gradientUnits="userSpaceOnUse">
<stop stop-color="#F9B776"/>
<stop offset="1" stop-color="#F47960"/>
</linearGradient>
<linearGradient id="paint22_linear_1723_10024" x1="192.709" y1="94.8979" x2="186.564" y2="99.7609" gradientUnits="userSpaceOnUse">
<stop stop-color="#2B3582"/>
<stop offset="1" stop-color="#150E42"/>
</linearGradient>
<linearGradient id="paint23_linear_1723_10024" x1="186.675" y1="101.936" x2="190.957" y2="99.3193" gradientUnits="userSpaceOnUse">
<stop stop-color="#F9B776"/>
<stop offset="1" stop-color="#F47960"/>
</linearGradient>
<linearGradient id="paint24_linear_1723_10024" x1="194.037" y1="115.8" x2="190.623" y2="115.8" gradientUnits="userSpaceOnUse">
<stop stop-color="#F9B776"/>
<stop offset="1" stop-color="#F47960"/>
</linearGradient>
<linearGradient id="paint25_linear_1723_10024" x1="199.739" y1="27.3303" x2="188.4" y2="36.4065" gradientUnits="userSpaceOnUse">
<stop stop-color="#53D8FF"/>
<stop offset="1" stop-color="#3840F7"/>
</linearGradient>
<linearGradient id="paint26_linear_1723_10024" x1="191.942" y1="35.9655" x2="156.246" y2="105.891" gradientUnits="userSpaceOnUse">
<stop stop-color="#53D8FF"/>
<stop offset="1" stop-color="#3840F7"/>
</linearGradient>
<linearGradient id="paint27_linear_1723_10024" x1="209.279" y1="38.7733" x2="168.878" y2="71.1143" gradientUnits="userSpaceOnUse">
<stop stop-color="#53D8FF"/>
<stop offset="1" stop-color="#3840F7"/>
</linearGradient>
<linearGradient id="paint28_linear_1723_10024" x1="195.491" y1="21.2969" x2="166.722" y2="44.3263" gradientUnits="userSpaceOnUse">
<stop stop-color="#53D8FF"/>
<stop offset="1" stop-color="#3840F7"/>
</linearGradient>
<linearGradient id="paint29_linear_1723_10024" x1="195.703" y1="18.6473" x2="172.128" y2="37.5189" gradientUnits="userSpaceOnUse">
<stop stop-color="#53D8FF"/>
<stop offset="1" stop-color="#3840F7"/>
</linearGradient>
<linearGradient id="paint30_linear_1723_10024" x1="216.893" y1="46.2982" x2="174.198" y2="89.094" gradientUnits="userSpaceOnUse">
<stop offset="0.1571" stop-color="#F7D845"/>
<stop offset="1" stop-color="#D93C65"/>
</linearGradient>
<linearGradient id="paint31_linear_1723_10024" x1="216.05" y1="75.3847" x2="199.529" y2="58.1542" gradientUnits="userSpaceOnUse">
<stop offset="0.1571" stop-color="#F7D845"/>
<stop offset="1" stop-color="#D93C65"/>
</linearGradient>
<linearGradient id="paint32_linear_1723_10024" x1="217.561" y1="67.6838" x2="196.313" y2="45.5235" gradientUnits="userSpaceOnUse">
<stop offset="0.1571" stop-color="#F7D845"/>
<stop offset="1" stop-color="#D93C65"/>
</linearGradient>
<linearGradient id="paint33_linear_1723_10024" x1="207.658" y1="66.0064" x2="199.398" y2="57.3912" gradientUnits="userSpaceOnUse">
<stop offset="0.1571" stop-color="#F7D845"/>
<stop offset="1" stop-color="#D93C65"/>
</linearGradient>
<linearGradient id="paint34_linear_1723_10024" x1="199.266" y1="45.901" x2="193.278" y2="68.9893" gradientUnits="userSpaceOnUse">
<stop offset="0.1571" stop-color="#F7D845"/>
<stop offset="1" stop-color="#D93C65"/>
</linearGradient>
<linearGradient id="paint35_linear_1723_10024" x1="183.885" y1="55.752" x2="191.001" y2="72.9215" gradientUnits="userSpaceOnUse">
<stop offset="0.1571" stop-color="#F7D845"/>
<stop offset="1" stop-color="#D93C65"/>
</linearGradient>
<linearGradient id="paint36_linear_1723_10024" x1="195.655" y1="57.9461" x2="192.662" y2="69.4903" gradientUnits="userSpaceOnUse">
<stop offset="0.1571" stop-color="#F7D845"/>
<stop offset="1" stop-color="#D93C65"/>
</linearGradient>
<linearGradient id="paint37_linear_1723_10024" x1="175.289" y1="81.7662" x2="188.085" y2="44.3167" gradientUnits="userSpaceOnUse">
<stop stop-color="#CCCCCC"/>
<stop offset="0.9974" stop-color="white"/>
</linearGradient>
<linearGradient id="paint38_linear_1723_10024" x1="186.792" y1="48.9783" x2="180.895" y2="73.6269" gradientUnits="userSpaceOnUse">
<stop offset="0.1571" stop-color="#F7D845"/>
<stop offset="1" stop-color="#D93C65"/>
</linearGradient>
<linearGradient id="paint39_linear_1723_10024" x1="44.4836" y1="28.4313" x2="35.8621" y2="28.4703" gradientUnits="userSpaceOnUse">
<stop stop-color="#C19632"/>
<stop offset="1" stop-color="#082133"/>
</linearGradient>
<linearGradient id="paint40_linear_1723_10024" x1="48.7163" y1="40.3073" x2="32.9317" y2="40.46" gradientUnits="userSpaceOnUse">
<stop stop-color="#C19632"/>
<stop offset="1" stop-color="#082133"/>
</linearGradient>
<linearGradient id="paint41_linear_1723_10024" x1="46.3355" y1="54.3947" x2="29.8708" y2="54.6334" gradientUnits="userSpaceOnUse">
<stop stop-color="#C19632"/>
<stop offset="1" stop-color="#082133"/>
</linearGradient>
<linearGradient id="paint42_linear_1723_10024" x1="39.0577" y1="26.9434" x2="33.4964" y2="26.9582" gradientUnits="userSpaceOnUse">
<stop stop-color="#C19632"/>
<stop offset="1" stop-color="#082133"/>
</linearGradient>
<linearGradient id="paint43_linear_1723_10024" x1="33.3108" y1="34.4591" x2="26.6614" y2="34.4782" gradientUnits="userSpaceOnUse">
<stop stop-color="#C19632"/>
<stop offset="1" stop-color="#082133"/>
</linearGradient>
<linearGradient id="paint44_linear_1723_10024" x1="30.0926" y1="47.3984" x2="21.9254" y2="47.4329" gradientUnits="userSpaceOnUse">
<stop stop-color="#C19632"/>
<stop offset="1" stop-color="#082133"/>
</linearGradient>
<linearGradient id="paint45_linear_1723_10024" x1="36.9631" y1="45.1451" x2="25.4375" y2="45.1796" gradientUnits="userSpaceOnUse">
<stop stop-color="#C19632"/>
<stop offset="1" stop-color="#082133"/>
</linearGradient>
<linearGradient id="paint46_linear_1723_10024" x1="21.8205" y1="66.4367" x2="23.0931" y2="76.5395" gradientUnits="userSpaceOnUse">
<stop stop-color="#53D8FF"/>
<stop offset="1" stop-color="#3840F7"/>
</linearGradient>
<linearGradient id="paint47_linear_1723_10024" x1="20.1718" y1="73.0316" x2="30.0543" y2="83.1845" gradientUnits="userSpaceOnUse">
<stop stop-color="#53D8FF"/>
<stop offset="1" stop-color="#3840F7"/>
</linearGradient>
<linearGradient id="paint48_linear_1723_10024" x1="29.2734" y1="73.7561" x2="67.1764" y2="73.7561" gradientUnits="userSpaceOnUse">
<stop stop-color="#53D8FF"/>
<stop offset="1" stop-color="#3840F7"/>
</linearGradient>
<linearGradient id="paint49_linear_1723_10024" x1="74.7355" y1="92.9148" x2="44.3706" y2="57.6106" gradientUnits="userSpaceOnUse">
<stop stop-color="#53D8FF"/>
<stop offset="1" stop-color="#3840F7"/>
</linearGradient>
<linearGradient id="paint50_linear_1723_10024" x1="60.4199" y1="80.0623" x2="63.6439" y2="80.0623" gradientUnits="userSpaceOnUse">
<stop stop-color="#2B3582"/>
<stop offset="1" stop-color="#150E42"/>
</linearGradient>
<linearGradient id="paint51_linear_1723_10024" x1="62.4924" y1="77.9919" x2="61.883" y2="82.2659" gradientUnits="userSpaceOnUse">
<stop stop-color="#53D8FF"/>
<stop offset="1" stop-color="#3840F7"/>
</linearGradient>
<linearGradient id="paint52_linear_1723_10024" x1="67.8856" y1="82.7435" x2="65.3736" y2="88.7843" gradientUnits="userSpaceOnUse">
<stop stop-color="#53D8FF"/>
<stop offset="1" stop-color="#3840F7"/>
</linearGradient>
<linearGradient id="paint53_linear_1723_10024" x1="51.6056" y1="75.5721" x2="53.2924" y2="75.5721" gradientUnits="userSpaceOnUse">
<stop stop-color="#53D8FF"/>
<stop offset="1" stop-color="#3840F7"/>
</linearGradient>
<linearGradient id="paint54_linear_1723_10024" x1="53.5937" y1="75.8201" x2="54.7267" y2="75.8201" gradientUnits="userSpaceOnUse">
<stop stop-color="#53D8FF"/>
<stop offset="1" stop-color="#3840F7"/>
</linearGradient>
<linearGradient id="paint55_linear_1723_10024" x1="51.6822" y1="51.1519" x2="51.1931" y2="66.0483" gradientUnits="userSpaceOnUse">
<stop stop-color="#53D8FF"/>
<stop offset="1" stop-color="#3840F7"/>
</linearGradient>
<linearGradient id="paint56_linear_1723_10024" x1="36.8555" y1="75.6305" x2="49.0712" y2="75.6305" gradientUnits="userSpaceOnUse">
<stop stop-color="#53D8FF"/>
<stop offset="1" stop-color="#3840F7"/>
</linearGradient>
<linearGradient id="paint57_linear_1723_10024" x1="31.2472" y1="140.447" x2="22.6464" y2="140.447" gradientUnits="userSpaceOnUse">
<stop stop-color="#F9B776"/>
<stop offset="1" stop-color="#F47960"/>
</linearGradient>
<linearGradient id="paint58_linear_1723_10024" x1="36.465" y1="141.085" x2="31.4844" y2="141.085" gradientUnits="userSpaceOnUse">
<stop stop-color="#F9B776"/>
<stop offset="1" stop-color="#F47960"/>
</linearGradient>
<linearGradient id="paint59_linear_1723_10024" x1="47.1938" y1="103.791" x2="37.4434" y2="103.791" gradientUnits="userSpaceOnUse">
<stop stop-color="#F9B776"/>
<stop offset="1" stop-color="#F47960"/>
</linearGradient>
<linearGradient id="paint60_linear_1723_10024" x1="34.9562" y1="108.569" x2="31.9084" y2="108.569" gradientUnits="userSpaceOnUse">
<stop stop-color="#F9B776"/>
<stop offset="1" stop-color="#F47960"/>
</linearGradient>
<linearGradient id="paint61_linear_1723_10024" x1="30.1114" y1="104.638" x2="7.92735" y2="106.149" gradientUnits="userSpaceOnUse">
<stop stop-color="#F9B776"/>
<stop offset="1" stop-color="#F47960"/>
</linearGradient>
<linearGradient id="paint62_linear_1723_10024" x1="33.6474" y1="101.851" x2="21.4232" y2="125.63" gradientUnits="userSpaceOnUse">
<stop stop-color="#2B3582"/>
<stop offset="1" stop-color="#150E42"/>
</linearGradient>
</defs>
</svg>
