<svg width="204" height="208" viewBox="0 0 204 208" fill="none" xmlns="http://www.w3.org/2000/svg">
<path d="M86.3815 0.0184157C58.7695 0.506141 16.0484 11.0047 3.75161 37.9841C-0.543138 47.407 -0.252403 61.2598 0.329061 88.9653C0.499979 97.1087 0.783366 108.978 2.77376 123.705C6.9083 154.297 9.72293 175.123 20.3754 187.25C47.0673 217.636 143.485 216.758 184.657 162.053C207.118 132.212 210.573 89.7606 190.036 54.6771C167.425 16.0508 123.348 -0.634608 86.3815 0.0184157Z" fill="#FAF5EB"/>
<path d="M73.6028 138.1C55.516 140.816 37.743 125.886 38.3922 116.445C38.7299 111.535 43.9116 110.142 43.5595 105.007C43.1693 99.3179 36.6157 98.2157 28.6618 89.3804C24.5522 84.8154 17.1 76.5373 18.9158 69.1687C20.7165 61.8614 29.8365 62.7339 32.2086 54.9789C34.4516 47.6459 27.1496 44.0789 27.9839 33.2093C28.0615 32.1982 29.0724 20.8324 36.0816 17.9693C43.2026 15.0605 53.9997 21.955 56.9704 30.1268C59.6694 37.5511 55.1151 43.8476 58.405 46.5067C62.0305 49.437 68.7488 42.7505 72.7622 45.4031C78.5634 49.2372 68.7589 66.0047 76.0703 73.9217C80.3697 78.5772 85.6873 74.8662 92.3462 79.5146C100.941 85.5139 102.635 99.061 101.287 108.024C99.3333 121.013 89.2798 135.745 73.6028 138.1Z" fill="#DFC486"/>
<mask id="mask0_280_1229" style="mask-type:luminance" maskUnits="userSpaceOnUse" x="18" y="17" width="84" height="122">
<path d="M73.6028 138.1C55.516 140.816 37.743 125.886 38.3922 116.445C38.7299 111.535 43.9116 110.142 43.5595 105.007C43.1693 99.3179 36.6157 98.2157 28.6618 89.3804C24.5522 84.8154 17.1 76.5373 18.9158 69.1687C20.7165 61.8614 29.8365 62.7339 32.2086 54.9789C34.4516 47.6459 27.1496 44.0789 27.9839 33.2093C28.0615 32.1982 29.0724 20.8324 36.0816 17.9693C43.2026 15.0605 53.9997 21.955 56.9704 30.1268C59.6694 37.5511 55.1151 43.8476 58.405 46.5067C62.0305 49.437 68.7488 42.7505 72.7622 45.4031C78.5634 49.2372 68.7589 66.0047 76.0703 73.9217C80.3697 78.5772 85.6873 74.8662 92.3462 79.5146C100.941 85.5139 102.635 99.061 101.287 108.024C99.3333 121.013 89.2798 135.745 73.6028 138.1Z" fill="white"/>
</mask>
<g mask="url(#mask0_280_1229)">
<path d="M86.0429 139.888L85.5422 140.181C74.2251 120.795 64.6467 101.889 57.073 83.9869C51.0128 69.662 46.2149 55.944 42.8128 43.2138C37.0153 21.5202 37.291 10.0542 37.2944 9.94092L37.8738 9.9586C37.8706 10.0712 37.6004 21.4794 43.3837 43.1047C48.7219 63.0655 60.456 96.0597 86.0429 139.888Z" fill="white"/>
<path d="M43.4422 45.2744C28.7392 34.9466 22.7265 20.6213 22.6675 20.4778L23.2036 20.2573C23.262 20.3994 29.2166 34.5735 43.7755 44.7999L43.4422 45.2744Z" fill="white"/>
<path d="M58.1068 86.5756C39.3845 80.8666 28.8713 74.0874 23.3488 69.4055C17.3335 64.3058 15.7894 60.6019 15.7266 60.4468L16.2639 60.229C16.279 60.2661 17.8415 63.9894 23.7731 69.0051C29.254 73.6394 39.689 80.3534 58.2759 86.0211L58.1068 86.5756Z" fill="white"/>
<path d="M76.3243 123.506C42.1872 121.137 27.4288 107.379 27.2837 107.241L27.6843 106.822C27.7208 106.857 31.557 110.411 39.71 114.188C46.8893 117.513 59.0763 121.728 76.3643 122.928L76.3243 123.506Z" fill="white"/>
<path d="M60.2556 76.563C59.0842 78.1928 57.8047 79.7861 56.4052 81.3229L55.9766 80.9326C65.1211 70.8911 69.1323 58.3511 70.8866 49.6C72.7883 40.1132 72.5215 32.9208 72.5185 32.8494L73.0978 32.8257C73.1008 32.8979 73.3703 40.1596 71.4551 49.7139C69.9544 57.1997 66.8135 67.4385 60.2556 76.563Z" fill="white"/>
<path d="M75.0791 114.088C74.4467 114.968 73.7749 115.837 73.0601 116.695L72.6147 116.324C81.6788 105.446 83.8423 92.5293 84.0615 83.6087C84.2992 73.9355 82.3681 66.7562 82.3486 66.6847L82.9079 66.5317C82.9276 66.604 84.8809 73.8655 84.6412 83.6229C84.4368 91.9331 82.5595 103.68 75.0791 114.088Z" fill="white"/>
</g>
<path d="M156.469 181.716C156.469 184.744 154.321 187.332 151.672 187.487L49.4907 193.451C46.456 193.628 43.9785 191.123 43.9785 187.867V41.2882C43.9785 38.0318 46.456 35.4829 49.4907 35.6058L151.672 39.7467C154.321 39.8541 156.469 42.4044 156.469 45.4321V181.716Z" fill="#082133"/>
<path d="M159.469 181.716C159.469 184.744 157.321 187.332 154.672 187.487L52.4911 193.451C49.4565 193.628 46.979 191.123 46.979 187.867V41.2882C46.979 38.0318 49.4565 35.4829 52.4911 35.6058L154.672 39.7467C157.321 39.8541 159.469 42.4044 159.469 45.4321V181.716Z" fill="#082133"/>
<path d="M49.5498 41.3831V187.727C49.5498 189.467 50.8681 190.803 52.4913 190.711L133.306 186.133L154.672 184.923C156.092 184.842 157.24 183.461 157.24 181.838V45.3503C157.24 43.7269 156.092 42.3664 154.672 42.3114L132.534 41.4523L52.4913 38.3459C50.8681 38.2828 49.5498 39.6427 49.5498 41.3831Z" fill="#082133"/>
<path d="M155.663 45.2457V175.526C155.663 176.13 155.259 176.647 154.665 176.677L144.225 177.213L52.4457 181.909C51.7665 181.944 51.2905 181.446 51.2905 180.802V41.3865C51.2905 40.7401 51.7865 40.2349 52.4657 40.2607L53.5245 40.3007L154.679 44.108C155.274 44.1317 155.663 44.6416 155.663 45.2457Z" fill="#D5B15D"/>
<mask id="mask1_280_1229" style="mask-type:luminance" maskUnits="userSpaceOnUse" x="51" y="40" width="105" height="142">
<path d="M155.663 45.2457V175.526C155.663 176.13 155.259 176.647 154.665 176.677L144.225 177.213L52.4457 181.909C51.7665 181.944 51.2905 181.446 51.2905 180.802V41.3865C51.2905 40.7401 51.7865 40.2349 52.4657 40.2607L53.5245 40.3007L154.679 44.108C155.274 44.1317 155.663 44.6416 155.663 45.2457Z" fill="white"/>
</mask>
<g mask="url(#mask1_280_1229)">
<path d="M181.919 80.1576L145.662 81.3918C145.541 58.3132 145.441 25.3373 145.638 22.277C145.628 22.4327 145.56 23.2566 145.212 24.1868L140.409 19.3701C139.894 20.7575 139.878 21.9178 139.836 25.0186C139.813 26.778 139.796 29.3034 139.787 32.5247C139.772 37.9159 139.778 45.3566 139.804 54.6408C139.848 70.4354 139.938 86.3215 139.939 86.4802L139.966 91.2797L152.405 91.011V125.584L128.947 125.067L114.932 92.5546L95.6794 92.9518L121.537 38.6957L117.447 32.9033L89.0208 93.0892L76.7885 93.3416C76.8057 87.8831 76.8339 78.1795 76.8508 68.5162C76.8657 59.9808 76.8689 53.1473 76.8604 48.206C76.8434 38.352 76.8121 38.2395 76.6386 37.6148L74.3535 39.9517C74.2623 39.6219 74.2423 39.3426 74.2392 39.2899C74.3589 41.3402 74.3055 71.2669 74.234 93.3943L61.4603 93.6578C59.1404 77.7496 53.7164 40.5788 53.534 39.5518L49.2794 42.6815L49.2691 42.6205C49.5008 44.0579 54.2949 77.1069 57.4971 99.2211L57.9581 102.404L84.7247 102.185L68.0956 137.393L35.46 136.043V144.437L70.25 146.309L91.3048 102.131L112.267 101.959L122.075 124.915L96.1609 124.344V189.553L98.8755 189.854V129.288L124.254 130.016L149.848 189.919L154.56 184.483L131.165 130.214L155.551 130.913V90.943L181.919 90.3733V80.1576H181.919Z" fill="#F4F7FA"/>
</g>
<path opacity="0.3" d="M144.265 177.213L52.4658 181.909C51.7865 181.944 51.2905 181.446 51.2905 180.802V41.3865C51.2905 40.7401 51.7865 40.2349 52.4658 40.2607L53.5245 40.3007C56.6668 44.5828 63.1742 49.5184 76.3357 53.7465C107.359 63.7092 72.1802 107.189 111.39 121.173C143.311 132.558 127.026 162.458 144.265 177.213Z" fill="#EAD8AE"/>
<path d="M115.591 184.599L94.8106 185.742C93.6996 185.803 92.7979 185.033 92.7979 184.021V183.945C92.7979 182.934 93.6996 182.066 94.8106 182.008L115.591 180.915C116.671 180.858 117.545 181.619 117.545 182.615V182.689C117.545 183.685 116.671 184.54 115.591 184.599Z" fill="#082133"/>
<path d="M106.334 40.4356C106.334 40.9737 105.858 41.3917 105.271 41.3692C104.683 41.3468 104.206 40.8918 104.206 40.353C104.206 39.8142 104.683 39.3962 105.271 39.4194C105.858 39.4425 106.334 39.8975 106.334 40.4356Z" fill="#C19632"/>
<path d="M48.6868 197.559C48.6868 197.559 54.7103 200.314 54.8078 200.752C54.9053 201.19 50.9302 200.596 49.3068 200.655C47.6833 200.714 46.3491 200.231 46.4976 199.544C46.6464 198.857 47.2187 197.129 47.2187 197.129L48.6868 197.559Z" fill="#A27E2A"/>
<path d="M48.9128 195.335L48.5395 198.049C48.5395 198.049 47.5841 198.387 46.9437 197.983L46.6772 195.005L48.9128 195.335Z" fill="url(#paint0_linear_280_1229)"/>
<path d="M20.5148 195.333L19.8108 196.457C19.6138 196.771 19.5544 197.15 19.6476 197.509C19.8907 198.446 20.3762 200.272 20.5887 200.748C20.8779 201.397 24.7794 201.792 24.7794 201.792C24.7794 201.792 25.1285 201.303 24.3197 200.709C23.511 200.116 22.9904 200.022 22.7065 199.148C22.4228 198.275 22.2378 195.806 22.2378 195.806L20.5148 195.333Z" fill="#A27E2A"/>
<path d="M23.441 192.477C23.1843 192.681 21.9218 196.482 21.9218 196.482C21.9218 196.482 21.5149 197 20.7461 196.232C19.9774 195.465 20.3981 195.888 20.3981 195.888L20.5516 192.147L23.441 192.477Z" fill="url(#paint1_linear_280_1229)"/>
<path d="M52.3616 140.798C52.6603 148.897 52.6521 157.696 52.1635 167.095C51.6135 177.679 50.5356 187.459 49.1856 196.325C48.6916 196.339 48.1725 196.34 47.6304 196.324C47.2643 196.313 46.9095 196.294 46.5667 196.27C45.8816 194.429 45.0725 192.009 44.3495 189.119C43.5896 186.08 43.1332 183.354 42.8096 180.748C41.6704 171.572 43.0332 170.775 42.1071 163.975C41.287 157.953 40.1007 157.715 38.7278 149.163C37.2384 139.885 38.3671 138.496 38.9157 137.995C41.2506 135.861 46.7197 137.331 52.3616 140.798Z" fill="#030E16"/>
<path opacity="0.4" d="M38.9157 137.995C41.1427 135.959 46.2217 137.207 51.5816 140.335C45.3908 146.991 44.7072 151.317 45.4408 154.127C46.2698 157.303 48.8111 158.223 48.7931 161.693C48.7709 165.958 44.9192 167.078 44.9902 171.591C45.0371 174.576 46.7286 174.549 47.1191 178.235C47.5812 182.597 45.368 184.095 46.076 187.323C46.3805 188.712 47.255 190.528 49.7533 192.402C49.5697 193.727 49.3814 195.038 49.1855 196.324C48.6917 196.339 48.1726 196.34 47.6304 196.324C47.2643 196.313 46.9095 196.294 46.5669 196.269C45.8817 194.429 45.0724 192.009 44.3495 189.118C43.5896 186.079 43.1332 183.354 42.8096 180.748C41.6705 171.572 43.0332 170.775 42.1071 163.975C41.287 157.952 40.1007 157.714 38.7279 149.163C37.2384 139.885 38.3671 138.496 38.9157 137.995Z" fill="#030E16"/>
<path d="M48.5373 140.653C43.2019 148.419 37.444 158.088 32.2876 169.664C28.3909 178.413 25.5603 186.629 23.479 193.952C23.1994 194.08 22.54 194.337 21.6985 194.224C20.5507 194.069 19.8644 193.334 19.685 193.129C18.8577 187.874 18.961 183.425 19.2538 180.215C19.4412 178.159 19.7725 174.736 21.0932 170.513C22.5724 165.782 23.5821 165.518 25.5091 160.514C27.5091 155.32 27.0308 154.021 28.9498 147.52C29.7381 144.849 31.0566 140.875 33.2279 136.122C38.331 137.632 43.4342 139.143 48.5373 140.653Z" fill="#030E16"/>
<path d="M70.2103 129.694C70.1598 131.584 67.0537 133.249 64.5527 133.759C58.705 134.953 51.9255 130.704 48.7077 126.004C48.0759 125.081 47.3738 123.962 47.2045 124.048C46.822 124.244 50.3374 130.02 51.8615 136.59C52.6413 139.95 52.4371 141.524 53.895 143.762C54.2252 144.268 54.6322 144.796 54.4892 145.396C54.131 146.897 50.6968 147.287 48.3145 147.558C45.7993 147.843 43.454 147.816 41.1354 147.782C37.4236 147.728 37.1313 147.535 36.2841 147.951C33.7023 149.218 33.8773 152.254 31.9345 152.659C30.303 152.999 28.6479 151.177 28.1232 150.599C25.3955 147.596 25.5413 143.976 25.0575 140.325C23.9329 131.836 19.3209 122.536 14.8094 116.648C13.4411 114.862 12.4896 113.923 12.4302 112.264C12.2557 107.392 19.9732 102.015 26.3987 101.397C28.1599 101.227 31.3137 101.281 34.2701 101.559C35.4518 101.671 36.7098 101.835 38.062 102.071C41.3412 102.645 43.6241 103.044 45.9506 104.109C55.332 108.401 53.2847 117.956 63.4386 124.562C66.93 126.834 70.2632 127.715 70.2103 129.694Z" fill="#DFC486"/>
<path d="M31.7724 96.3433C31.7724 96.3433 31.3695 98.5919 30.442 100.192C29.6037 101.639 26.1381 102.158 25.4161 102.41C24.694 102.661 26.5053 103.919 28.4317 104.375C30.3578 104.831 35.9923 105.129 37.0957 104.522C38.1992 103.916 36.3791 103.73 35.0536 103.034C33.7281 102.337 33.2848 99.5041 33.6953 98.2999C34.1057 97.0956 31.7724 96.3433 31.7724 96.3433Z" fill="url(#paint2_linear_280_1229)"/>
<path d="M35.4343 95.692C36.8322 94.6931 37.2193 91.9916 36.4429 91.3851C36.221 91.2118 36.009 91.2914 32.8544 92.5567C31.2879 93.1852 30.5173 93.5198 30.2636 94.2116C30.1086 94.634 30.1337 95.2045 30.3048 95.654C30.393 95.8853 30.5647 96.1733 30.9465 96.723C31.2854 97.2107 31.2626 97.1942 31.3665 97.336C31.6161 97.6764 32.0974 98.2497 32.9795 98.9143C33.0286 98.6657 33.1061 98.3571 33.236 98.0206C33.286 97.8911 33.4875 97.385 33.807 96.9588C34.3569 96.2251 34.9807 96.0163 35.4343 95.692Z" fill="#030E16"/>
<path d="M31.8522 98.2621C31.8522 98.2621 32.7668 99.6245 34.4608 99.4397C35.9775 99.2741 36.051 95.8533 35.0478 95.1719C34.7131 94.9446 34.0596 94.8728 33.5382 95.0438C33.2302 95.1448 33.1304 95.279 32.6241 95.4342C32.157 95.5773 32.0212 95.5308 31.8839 95.6572C31.7121 95.815 31.5976 96.1888 31.939 97.1731C31.6359 96.8919 31.2826 96.7944 31.041 96.9217C31.0025 96.942 30.9011 97.0176 30.8471 97.1278C30.6516 97.5268 31.029 98.0088 31.8522 98.2621Z" fill="url(#paint3_linear_280_1229)"/>
<path d="M62.0081 129.403C57.7683 128.449 56.0789 128.479 53.9822 126.79C50.4915 123.978 49.9672 119.697 47.9386 119.749C46.98 119.774 46.2012 120.753 45.647 121.711C46.1576 122.511 46.6684 123.311 47.179 124.111C47.1811 124.08 47.1879 124.057 47.2049 124.048C47.3741 123.962 48.0762 125.081 48.7081 126.003C51.9259 130.704 58.7055 134.953 64.5531 133.759C66.2298 133.417 68.1743 132.555 69.2919 131.455C66.4059 130.48 63.9409 129.839 62.0081 129.403Z" fill="#DFC486"/>
<path d="M68.9131 133.049C68.9131 133.049 71.3055 132.811 72.731 132.201C74.1566 131.591 75.0775 132.467 74.9465 133.074C74.8155 133.68 72.4702 134.524 71.5332 134.554C70.5963 134.584 68.9131 133.049 68.9131 133.049Z" fill="url(#paint4_linear_280_1229)"/>
<path d="M17.388 145.704C14.8194 145.933 9.03753 146.037 4.94817 142.254C-1.85975 135.956 1.51754 123.968 3.88738 118.812C6.6043 112.901 10.9286 109.592 13.5565 107.581C16.8169 105.087 18.8069 103.564 21.2011 103.905C27.3929 104.787 31.6812 117.477 28.2821 121.11C27.1693 122.3 26.0673 121.626 22.8469 122.652C21.7981 122.986 13.9706 125.479 12.6078 131.244C11.654 135.279 14.0825 140.004 18.4048 143.177C18.0657 144.019 17.7269 144.861 17.388 145.704Z" fill="#DFC486"/>
<path d="M46.1789 143.614C43.271 141.776 42.8407 139.913 39.5844 138.655C35.3541 137.02 33.3213 139.097 31.224 137.42C28.728 135.424 30.9375 131.948 29.0697 125.915C28.7527 124.891 26.3448 117.113 20.8198 116.122C18.2435 115.66 14.8406 116.647 13.5294 118.831C12.5032 120.539 13.4592 121.813 12.2115 123.699C10.9647 125.584 9.47356 125.123 7.88412 126.695C5.36037 129.192 4.97358 134.456 7.25208 137.433C8.31482 138.822 9.6958 139.371 12.2944 140.404C13.8816 141.035 15.3572 141.428 16.6279 141.677C13.446 138.623 11.7947 134.685 12.608 131.244C13.4574 127.651 16.8187 125.329 19.4845 124.009C22.152 129.029 24.3321 134.845 25.058 140.325C25.5418 143.977 25.396 147.597 28.1237 150.599C28.6484 151.177 30.3034 152.999 31.9349 152.659C33.8778 152.254 33.7028 149.218 36.2845 147.951C37.1318 147.535 37.4241 147.728 41.1359 147.782C43.4545 147.816 45.7999 147.844 48.315 147.558C50.4335 147.318 53.3788 146.981 54.2578 145.853C50.4331 145.749 47.8805 144.689 46.1789 143.614Z" fill="#DFC486"/>
<path d="M19.0746 147.722L18.7754 146.842C18.2984 145.439 19.0827 143.942 20.5264 143.502L77.13 126.26L78.8547 132.106L22.5371 149.452C21.1009 149.895 19.5502 149.121 19.0746 147.722Z" fill="#141005"/>
<path d="M112.312 149.686C96.0955 154.942 78.7175 145.752 73.65 128.717C68.4607 111.273 78.2391 92.767 95.3187 87.8493C112.09 83.0202 129.049 93.3241 133.377 110.422C137.607 127.13 128.247 144.521 112.312 149.686ZM111.003 144.924C124.459 140.6 132.346 125.924 128.734 111.844C125.052 97.4884 110.781 88.9109 96.7334 92.9974C82.4709 97.1465 74.2879 112.609 78.5767 127.208C82.7809 141.519 97.3478 149.311 111.003 144.924Z" fill="#EAD8AE"/>
<path opacity="0.6" d="M77.13 126.26L69.9128 128.458C69.4176 130.76 68.4548 132.079 67.4858 132.882C63.8403 135.904 58.9725 132.608 52.1812 136.152C48.7733 137.93 49.4208 139.061 46.2265 140.302C40.9455 142.353 38.5282 139.512 33.8545 141.379C29.1272 143.267 28.6611 147.348 25.9801 147.202C24.8332 147.139 23.3567 146.305 21.7103 143.142L20.5264 143.502C19.0827 143.942 18.2984 145.439 18.7754 146.842L19.0746 147.722C19.5503 149.121 21.1009 149.894 22.5371 149.452L78.8547 132.106L77.13 126.26Z" fill="#141005"/>
<path d="M113.408 151.152C97.1922 156.408 79.8142 147.218 74.7467 130.183C69.5574 112.738 79.3358 94.2328 96.4154 89.3151C113.187 84.4861 130.146 94.7899 134.474 111.887C138.703 128.596 129.344 145.987 113.408 151.152ZM112.1 146.39C125.556 142.066 133.443 127.39 129.831 113.31C126.148 98.9542 111.877 90.3768 97.8301 94.4632C83.5676 98.6124 75.3845 114.075 79.6733 128.674C83.8776 142.985 98.4444 150.777 112.1 146.39Z" fill="#141005"/>
<path d="M112.946 149.471C97.6344 154.419 81.2518 145.72 76.492 129.648C71.6243 113.213 80.8372 95.7866 96.9168 91.1399C112.723 86.572 128.733 96.262 132.835 112.39C136.848 128.171 128.008 144.604 112.946 149.471ZM112.099 146.389C125.556 142.066 133.443 127.39 129.831 113.31C126.148 98.9542 111.877 90.3768 97.83 94.4632C83.5675 98.6123 75.3844 114.075 79.6733 128.674C83.8776 142.985 98.4444 150.777 112.099 146.389Z" fill="#141005"/>
<path d="M17.606 145.162L18.178 143.74C18.178 143.74 19.1118 143.797 19.8782 143.247C20.2958 142.948 21.0367 142.859 21.2522 142.918C21.4675 142.978 22.2809 142.943 21.3538 143.385C20.4267 143.827 20.434 144.156 20.8205 144.519C21.2069 144.882 22.6774 145.663 23.2066 145.7C23.7359 145.738 22.7789 146.556 22.2452 146.661C21.7114 146.765 20.8361 146.898 19.7532 146.26C19.3581 146.028 17.606 145.162 17.606 145.162Z" fill="url(#paint5_linear_280_1229)"/>
<path d="M140.753 49.8188C140.753 67.4124 118.361 109.656 109.078 124.383C107.499 126.887 101.008 126.422 99.4299 123.918C90.1463 109.191 64.8267 67.4124 64.8267 49.8188C64.8267 28.2757 81.8234 10.8115 102.79 10.8115C123.757 10.8115 140.753 28.2757 140.753 49.8188Z" fill="#F4EBD7"/>
<path d="M144.875 49.8188C144.875 67.4124 119.555 109.191 110.271 123.918C108.693 126.422 105.13 126.422 103.552 123.918C94.2678 109.191 68.9482 67.4124 68.9482 49.8188C68.9482 28.2757 85.945 10.8115 106.912 10.8115C127.878 10.8115 144.875 28.2757 144.875 49.8188Z" fill="#C19632"/>
<path opacity="0.7" d="M106.911 67.7046C118.459 67.7046 127.821 58.0857 127.821 46.2202C127.821 34.3547 118.459 24.7358 106.911 24.7358C95.3634 24.7358 86.002 34.3547 86.002 46.2202C86.002 58.0857 95.3634 67.7046 106.911 67.7046Z" fill="white"/>
<path opacity="0.7" d="M106.911 66.425C117.771 66.425 126.575 57.3789 126.575 46.2201C126.575 35.0612 117.771 26.0151 106.911 26.0151C96.051 26.0151 87.2471 35.0612 87.2471 46.2201C87.2471 57.3789 96.051 66.425 106.911 66.425Z" fill="white"/>
<path d="M171.623 186.647C185.374 186.22 196.514 172.775 194.761 165.876C193.85 162.288 189.827 161.956 189.396 158.108C188.917 153.845 193.619 152.146 198.314 144.536C200.74 140.603 205.139 133.473 202.802 128.264C200.485 123.099 193.853 124.974 191.053 119.555C188.404 114.431 193.327 110.807 191.245 102.875C191.051 102.137 188.771 93.8625 183.198 92.6884C177.536 91.4955 170.475 98.0531 169.378 104.501C168.381 110.359 172.6 114.405 170.524 116.816C168.236 119.473 162.363 115.431 159.75 117.935C155.974 121.554 165.49 132.641 161.146 139.486C158.592 143.51 154.157 141.481 149.855 145.818C144.304 151.416 144.876 161.67 147.082 168.122C150.278 177.471 159.704 187.018 171.623 186.647Z" fill="#D5B15D"/>
<mask id="mask2_280_1229" style="mask-type:luminance" maskUnits="userSpaceOnUse" x="145" y="92" width="59" height="95">
<path d="M171.623 186.647C185.374 186.22 196.514 172.775 194.761 165.876C193.85 162.288 189.827 161.956 189.396 158.108C188.917 153.845 193.619 152.146 198.314 144.536C200.74 140.603 205.139 133.473 202.802 128.264C200.485 123.099 193.853 124.974 191.053 119.555C188.404 114.431 193.327 110.807 191.245 102.875C191.051 102.137 188.771 93.8625 183.198 92.6884C177.536 91.4955 170.475 98.0531 169.378 104.501C168.381 110.359 172.6 114.405 170.524 116.816C168.236 119.473 162.363 115.431 159.75 117.935C155.974 121.554 165.49 132.641 161.146 139.486C158.592 143.51 154.157 141.481 149.855 145.818C144.304 151.416 144.876 161.67 147.082 168.122C150.278 177.471 159.704 187.018 171.623 186.647Z" fill="white"/>
</mask>
<g mask="url(#mask2_280_1229)">
<path d="M162.658 189.648L163.068 189.797C168.83 173.925 173.37 158.643 176.562 144.374C179.116 132.956 180.817 122.157 181.619 112.278C182.986 95.4421 181.236 86.994 181.218 86.9106L180.792 87.0018C180.809 87.0848 182.547 95.4908 181.182 112.274C179.922 127.765 175.685 153.764 162.658 189.648Z" fill="white"/>
<path d="M181.431 113.888C190.92 104.263 193.439 92.8512 193.463 92.737L193.037 92.646C193.013 92.759 190.516 104.051 181.121 113.581L181.431 113.888Z" fill="white"/>
<path d="M176.145 146.429C189.231 139.68 196.097 133.246 199.553 129.037C203.317 124.452 203.961 121.503 203.987 121.38L203.56 121.291C203.553 121.32 202.899 124.287 199.185 128.798C195.754 132.966 188.936 139.341 175.945 146.041L176.145 146.429Z" fill="white"/>
<path d="M167.641 176.214C192.585 169.86 201.652 157.689 201.741 157.567L201.388 157.311C201.366 157.342 199.006 160.489 193.481 164.383C188.617 167.811 180.166 172.574 167.534 175.792L167.641 176.214Z" fill="white"/>
<path d="M173.206 139.308C174.292 140.357 175.454 141.363 176.697 142.312L176.961 141.965C168.841 135.767 164.182 127.027 161.704 120.787C159.018 114.023 158.246 108.665 158.239 108.611L157.807 108.672C157.814 108.726 158.593 114.136 161.299 120.948C163.418 126.286 167.123 133.44 173.206 139.308Z" fill="white"/>
<path d="M167.294 169.076C167.88 169.642 168.495 170.195 169.139 170.734L169.419 170.399C161.245 163.57 157.903 154.303 156.538 147.731C155.058 140.605 155.52 135.031 155.524 134.976L155.09 134.938C155.085 134.994 154.618 140.631 156.111 147.82C157.382 153.942 160.355 162.382 167.294 169.076Z" fill="white"/>
</g>
<path d="M185.706 112.85V192.935C185.706 194.133 184.699 194.423 183.559 194.498L144.676 197.8L144.09 197.838C142.888 197.917 141.903 196.974 141.903 195.742V113.369C141.903 112.137 142.888 111.119 144.09 111.106L144.885 111.098L183.913 112.49C185.054 112.478 185.706 111.653 185.706 112.85Z" fill="#082133"/>
<path d="M186.924 112.797V192.896C186.924 194.093 185.992 195.135 184.851 195.209L145.295 197.8C144.093 197.878 143.107 196.935 143.107 195.703V113.316C143.107 112.084 144.093 111.066 145.295 111.053L184.851 110.641C185.992 110.629 186.924 111.6 186.924 112.797Z" fill="#082133"/>
<path d="M185.636 117.256V191.444C185.636 192.562 184.765 193.533 183.7 193.602L146.504 195.997C145.385 196.069 144.467 195.189 144.467 194.041V117.862C144.467 116.714 145.385 115.763 146.504 115.748L183.7 115.249C184.766 115.234 185.636 116.138 185.636 117.256Z" fill="#F4EBD7"/>
<path d="M166.059 113.288C166.059 113.709 165.73 114.054 165.324 114.059C164.918 114.065 164.589 113.727 164.589 113.306C164.589 112.885 164.918 112.539 165.324 112.535C165.73 112.53 166.059 112.867 166.059 113.288Z" fill="#E9F4FC"/>
<path d="M179.837 162.522L150.131 164.017C149.757 164.036 149.454 163.741 149.454 163.358V156.74C149.454 156.358 149.757 156.034 150.131 156.018L179.837 154.692C180.195 154.676 180.485 154.966 180.485 155.34V161.812C180.485 162.186 180.195 162.504 179.837 162.522Z" fill="#EAD8AE"/>
<path d="M179.769 174.765L150.202 176.517C149.789 176.541 149.454 176.219 149.454 175.796V169.323C149.454 168.9 149.789 168.54 150.202 168.518L179.769 166.935C180.164 166.914 180.485 167.232 180.485 167.645V173.975C180.485 174.388 180.164 174.742 179.769 174.765Z" fill="#EAD8AE"/>
<path d="M176.826 134.957C176.826 141.625 171.62 147.232 165.143 147.485C158.605 147.739 153.259 142.45 153.259 135.669C153.259 128.887 158.605 123.275 165.143 123.135C171.62 122.996 176.826 128.29 176.826 134.957Z" fill="white"/>
<path d="M165.141 147.781C161.897 147.906 158.843 146.716 156.542 144.43C154.238 142.142 152.971 139.035 152.971 135.681C152.971 132.298 154.257 129.095 156.594 126.66C158.891 124.266 161.928 122.908 165.149 122.84C168.354 122.771 171.363 123.992 173.62 126.278C175.875 128.562 177.117 131.641 177.117 134.946C177.117 138.252 175.874 141.407 173.619 143.828C171.36 146.252 168.349 147.656 165.143 147.781C165.142 147.781 165.142 147.781 165.141 147.781ZM164.901 123.439C161.926 123.564 159.128 124.846 156.998 127.065C154.773 129.383 153.548 132.434 153.548 135.657C153.548 138.856 154.757 141.818 156.953 143.998C159.145 146.176 162.053 147.309 165.141 147.19C165.142 147.19 165.142 147.19 165.143 147.19C171.421 146.945 176.536 141.462 176.536 134.969C176.536 128.473 171.418 123.297 165.137 123.431C165.058 123.433 164.979 123.435 164.901 123.439Z" fill="white"/>
<path d="M160.369 133.468C160.369 135.242 162.435 139.461 163.893 142.221C164.501 143.37 166.102 143.447 166.712 142.354C168.183 139.718 170.279 135.646 170.279 133.855C170.279 131.092 168.044 128.775 165.301 128.681C162.571 128.587 160.369 130.731 160.369 133.468ZM162.647 133.557C162.647 132.084 163.833 130.933 165.301 130.987C166.772 131.041 167.968 132.285 167.968 133.765C167.968 135.245 166.772 136.396 165.301 136.335C163.834 136.274 162.647 135.03 162.647 133.557Z" fill="#A27E2A"/>
<path d="M119.693 83.2028V83.3043C120.581 82.0923 122.171 80.4086 123.123 79.4336C123.141 79.3906 123.17 79.3474 123.188 79.3043C123.719 78.0301 124.436 76.6507 125.372 75.2738C126.301 73.8932 127.482 72.5341 128.859 71.2827C129.024 71.1204 129.214 70.9772 129.391 70.8238C129.481 70.749 129.571 70.6717 129.663 70.5969L129.796 70.4828C129.843 70.4447 129.892 70.4105 129.938 70.3737C130.127 70.2305 130.316 70.0859 130.507 69.9401L130.649 69.8311L130.798 69.7296C130.897 69.6611 130.996 69.5927 131.095 69.5255C131.485 69.2428 131.906 68.9981 132.317 68.7395C132.526 68.614 132.746 68.4986 132.959 68.3794C133.064 68.3198 133.172 68.259 133.279 68.2007C133.39 68.1462 133.501 68.0904 133.61 68.0358C135.37 67.1471 137.289 66.5043 139.258 66.1505C139.504 66.1099 139.75 66.0694 139.999 66.0288C140.246 65.9945 140.497 65.973 140.743 65.9438L141.116 65.902L141.49 65.8817L141.864 65.8589C141.988 65.8525 142.111 65.8399 142.237 65.8424C142.485 65.8412 142.734 65.8386 142.983 65.8373C143.044 65.8373 143.11 65.8335 143.167 65.8373L143.333 65.8462L143.665 65.8639L143.995 65.8804C144.024 65.8817 144.044 65.8817 144.082 65.8842L144.421 65.9096L144.874 65.9413L145.212 65.9667L145.269 65.9705L145.289 65.9718C145.289 65.973 145.407 65.9718 145.21 65.9756L145.941 66.0833C146.062 66.1024 146.183 66.1138 146.304 66.1404L146.663 66.2127L147.021 66.2836L147.2 66.3191C147.26 66.3305 147.318 66.3483 147.376 66.3622C147.611 66.4218 147.845 66.4802 148.079 66.541C148.197 66.5664 148.311 66.607 148.425 66.6412L148.767 66.749L149.11 66.8517L149.444 66.9746C149.667 67.0583 149.891 67.1318 150.107 67.2206C150.323 67.3118 150.54 67.4031 150.754 67.4956C152.459 68.2538 153.992 69.2338 155.296 70.3533L155.542 70.5587L155.776 70.778C155.93 70.9225 156.09 71.0607 156.237 71.209C156.244 71.2141 156.249 71.2216 156.255 71.2267C156.541 71.5234 156.832 71.8024 157.089 72.1091C157.158 72.1839 157.225 72.26 157.291 72.3361L157.392 72.4477L157.486 72.5668C157.612 72.7215 157.736 72.8775 157.86 73.0309C157.89 73.0688 157.923 73.1056 157.954 73.145L158.039 73.2641C158.097 73.344 158.154 73.4239 158.211 73.5012C158.323 73.661 158.445 73.808 158.545 73.9728C159.392 75.2407 160.037 76.5085 160.476 77.7179C160.918 78.9249 161.18 80.0571 161.331 81.0574C161.348 81.1829 161.364 81.3059 161.381 81.4276C161.395 81.548 161.419 81.666 161.424 81.7839C161.443 82.0197 161.462 82.2441 161.481 82.4583C161.494 82.6764 161.494 82.8856 161.503 83.0821C161.506 83.181 161.513 83.2774 161.514 83.3699C161.51 83.465 161.508 83.5575 161.506 83.6463C161.504 83.825 161.501 83.9936 161.499 84.1508C161.5 84.1952 161.492 84.2181 161.49 84.2485C161.486 84.2776 161.482 84.3068 161.478 84.3347C161.473 84.3904 161.466 84.3828 161.461 84.4336C161.457 84.4766 161.452 84.4969 161.448 84.4969H153.102L158.173 90.1198L169.963 103.014L186.825 84.4969H177.959C177.946 84.4969 177.932 84.3448 177.918 84.2256C177.884 83.9682 177.847 83.7172 177.807 83.4117C177.784 83.2595 177.764 83.1175 177.739 82.954C177.727 82.8741 177.715 82.798 177.703 82.7143C177.691 82.6319 177.68 82.5432 177.663 82.4709C177.601 82.1641 177.537 81.8408 177.468 81.496C177.431 81.3248 177.396 81.1499 177.358 80.9698C177.317 80.7898 177.269 80.6072 177.221 80.4196C177.125 80.0455 177.031 79.6525 176.914 79.2481C176.79 78.8462 176.661 78.4291 176.527 77.9955C176.463 77.7774 176.378 77.5631 176.299 77.3413C176.219 77.1232 176.137 76.8988 176.053 76.6706C175.365 74.8639 174.425 72.8963 173.169 70.9184C171.918 68.9393 170.324 66.9679 168.432 65.1397C168.203 64.9051 167.949 64.6908 167.705 64.4664C167.58 64.3561 167.458 64.2445 167.333 64.133L167.144 63.9656L166.952 63.8059C166.692 63.5941 166.429 63.3799 166.168 63.1656L165.97 63.0058L165.765 62.8537C165.627 62.751 165.49 62.6496 165.352 62.5482C164.81 62.1336 164.228 61.7596 163.65 61.3742C163.359 61.1865 163.057 61.0116 162.756 60.8302C162.608 60.7415 162.457 60.6527 162.306 60.5614C162.152 60.4777 161.997 60.3941 161.842 60.3104C159.375 58.959 156.649 57.9332 153.819 57.3196C153.466 57.2499 153.11 57.1789 152.755 57.1092C152.4 57.0432 152.038 56.9976 151.681 56.943L151.143 56.867L150.602 56.8137L150.062 56.7617C149.882 56.7452 149.703 56.7249 149.522 56.7186C149.162 56.7021 148.8 56.659 148.439 56.6426C148.35 56.6387 148.259 56.6045 148.169 56.6045H147.897L147.359 56.6349L146.82 56.6527C146.64 56.6527 146.46 56.6768 146.281 56.6856L145.21 56.7503C144.966 56.7541 145.126 56.7567 145.064 56.7579L145.036 56.7618L144.979 56.7681L144.867 56.7833L144.642 56.8112L144.193 56.867L143.967 56.8948L143.856 56.9088L143.717 56.9278L143.149 57.0115L142.581 57.0978L142.3 57.1421C142.207 57.1573 142.125 57.1776 142.036 57.1954C141.69 57.2689 141.344 57.3438 140.998 57.416C140.825 57.4502 140.656 57.4997 140.486 57.544L139.975 57.6797L139.468 57.8154L138.967 57.9739C138.635 58.0816 138.301 58.1831 137.975 58.2997C137.65 58.4213 137.326 58.5431 137.003 58.6648C134.438 59.6842 132.098 61.0445 130.086 62.628C129.959 62.7257 129.833 62.8246 129.708 62.9221C129.585 63.0236 129.465 63.1263 129.344 63.2303C129.103 63.4357 128.861 63.6335 128.629 63.8439C128.171 64.2737 127.715 64.6857 127.298 65.132C127.191 65.241 127.087 65.3513 126.981 65.4591L126.825 65.6214L126.675 65.79C126.476 66.0157 126.28 66.2401 126.086 66.462L125.94 66.6294L125.801 66.8018C125.711 66.9172 125.618 67.0313 125.528 67.1453C125.348 67.3748 125.159 67.5929 124.997 67.83C124.078 69.0711 123.299 70.3289 122.655 71.5688C122.341 72.171 122.061 72.7707 121.813 73.3627C121.049 75.1707 120.558 76.8911 120.249 78.4239C120.215 78.6166 120.178 78.8055 120.144 78.9918C120.111 79.1769 120.071 79.3583 120.05 79.5395C120.002 79.9009 119.953 80.247 119.909 80.5805C119.871 80.9152 119.851 81.2372 119.823 81.5427C119.811 81.6948 119.796 81.8432 119.787 81.9903C119.782 82.1348 119.752 82.2768 119.746 82.4163C119.738 82.6931 119.693 82.9581 119.693 83.2028Z" fill="#A27E2A"/>
<path d="M119.693 83.2034V83.3049C120.581 82.0928 122.171 80.4091 123.123 79.4342C123.141 79.3911 123.17 79.348 123.188 79.3049C123.719 78.0307 124.436 76.6513 125.372 75.2744C126.301 73.8938 127.482 72.5347 128.859 71.2833C129.024 71.121 129.214 70.9777 129.391 70.8244C129.481 70.7496 129.571 70.6722 129.663 70.5975L129.796 70.4833C129.843 70.4453 129.892 70.4111 129.938 70.3743C130.127 70.2311 130.316 70.0865 130.507 69.9407L130.649 69.8317L130.798 69.7302C130.897 69.6617 130.996 69.5932 131.095 69.5261C131.485 69.2434 131.906 68.9987 132.317 68.7401C132.526 68.6146 132.746 68.4992 132.959 68.38C133.064 68.3204 133.172 68.2595 133.279 68.2012C133.39 68.1468 133.501 68.0909 133.61 68.0364C135.37 67.1476 137.289 66.5049 139.258 66.1511C139.504 66.1105 139.75 66.07 139.999 66.0294C140.246 65.9951 140.497 65.9736 140.743 65.9444L141.116 65.9026L141.49 65.8823L141.864 65.8595C141.988 65.8531 142.111 65.8405 142.237 65.843C142.485 65.8417 142.734 65.8392 142.983 65.8379C143.044 65.8379 143.11 65.8341 143.167 65.8379L143.333 65.8468L143.665 65.8645L143.995 65.881C144.024 65.8823 144.044 65.8823 144.082 65.8848L144.421 65.9102L144.874 65.9419L145.212 65.9672L145.269 65.9711L145.289 65.9723C145.289 65.9736 145.407 65.9723 145.21 65.9762L145.941 66.0839C146.062 66.1029 146.183 66.1143 146.304 66.1409L146.663 66.2133L147.021 66.2842L147.2 66.3197C147.26 66.3311 147.318 66.3489 147.376 66.3628C147.611 66.4224 147.845 66.4808 148.079 66.5416C148.197 66.567 148.311 66.6075 148.425 66.6418L148.767 66.7495L149.11 66.8523L149.444 66.9752C149.667 67.0589 149.891 67.1324 150.107 67.2211C150.323 67.3124 150.54 67.4037 150.754 67.4962C152.459 68.2544 153.992 69.2344 155.296 70.3539L155.542 70.5592L155.776 70.7786C155.93 70.9231 156.09 71.0613 156.237 71.2096C156.244 71.2147 156.249 71.2222 156.255 71.2273C152.509 66.5883 146.439 63.5747 139.591 63.5747C132.573 63.5747 126.375 66.7379 122.655 71.5696C122.341 72.1718 122.061 72.7715 121.813 73.3635C121.049 75.1715 120.558 76.8919 120.249 78.4247C120.215 78.6174 120.178 78.8063 120.143 78.9927C120.111 79.1777 120.071 79.3591 120.05 79.5403C120.002 79.9017 119.953 80.2478 119.909 80.5813C119.871 80.916 119.851 81.238 119.823 81.5435C119.811 81.6956 119.796 81.844 119.787 81.9911C119.782 82.1356 119.752 82.2776 119.745 82.4171C119.738 82.6937 119.693 82.9587 119.693 83.2034Z" fill="#513F15"/>
<defs>
<linearGradient id="paint0_linear_280_1229" x1="47.7385" y1="198.662" x2="48.0582" y2="178.917" gradientUnits="userSpaceOnUse">
<stop stop-color="#FFC444"/>
<stop offset="0.9964" stop-color="#F36F56"/>
</linearGradient>
<linearGradient id="paint1_linear_280_1229" x1="21.7955" y1="198.242" x2="22.1152" y2="178.496" gradientUnits="userSpaceOnUse">
<stop stop-color="#FFC444"/>
<stop offset="0.9964" stop-color="#F36F56"/>
</linearGradient>
<linearGradient id="paint2_linear_280_1229" x1="30.7434" y1="98.0787" x2="33.8623" y2="125.592" gradientUnits="userSpaceOnUse">
<stop stop-color="#FFC444"/>
<stop offset="0.9964" stop-color="#F36F56"/>
</linearGradient>
<linearGradient id="paint3_linear_280_1229" x1="33.5506" y1="94.9123" x2="31.1" y2="115.186" gradientUnits="userSpaceOnUse">
<stop stop-color="#FFC444"/>
<stop offset="0.9964" stop-color="#F36F56"/>
</linearGradient>
<linearGradient id="paint4_linear_280_1229" x1="74.3231" y1="131.715" x2="69.7746" y2="134.471" gradientUnits="userSpaceOnUse">
<stop stop-color="#FFC444"/>
<stop offset="0.9964" stop-color="#F36F56"/>
</linearGradient>
<linearGradient id="paint5_linear_280_1229" x1="21.946" y1="149.248" x2="19.5" y2="142.939" gradientUnits="userSpaceOnUse">
<stop stop-color="#FFC444"/>
<stop offset="0.9964" stop-color="#F36F56"/>
</linearGradient>
</defs>
</svg>
