<svg width="217" height="217" viewBox="0 0 217 217" fill="none" xmlns="http://www.w3.org/2000/svg">
<path d="M162.75 162.75C192.711 132.789 192.711 84.2114 162.75 54.25C132.789 24.2886 84.2114 24.2886 54.25 54.25C24.2886 84.2114 24.2885 132.789 54.25 162.75C84.2114 192.711 132.789 192.711 162.75 162.75Z" fill="#082133"/>
<path d="M172.441 120.086C171.856 118.007 171.091 117.296 170.636 116.87C170.913 114.46 169.961 113.502 169.504 113.04C169.861 111.297 170.024 110.502 167.539 103.708C166.696 101.404 167.966 102.387 167.983 102.409C168 102.431 169.733 105.086 169.661 106.753C170.038 107.138 170.313 107.612 170.461 108.132C170.749 108.97 170.522 109.871 170.767 110.714C170.795 110.813 170.911 110.905 170.972 110.987C171.161 111.238 171.812 112.215 172.242 114.26C172.551 115.727 172.553 116.094 172.57 120.582C172.532 120.433 172.484 120.234 172.443 120.086M167.131 102.599C166.543 101.08 165.654 99.0805 164.754 98.1803C165.888 99.1756 166.991 102.187 167.201 102.78L167.131 102.599ZM159.853 89.7855H159.855L159.848 89.7872H159.85H159.853M185.601 108.731C185.601 75.6618 164.873 47.4478 135.743 36.458C137.789 37.2755 137.789 37.2755 140.215 38.3232C140.678 38.5296 141.292 38.8096 141.749 39.0258C141.304 38.8277 140.709 38.5607 140.263 38.3617C143.605 40.0183 143.605 40.0183 143.879 40.1615C141.989 39.3652 140.187 38.3756 138.294 37.5855C138.373 37.6195 146.559 41.2585 152.681 45.5081C151.734 44.9003 150.796 44.2801 149.849 43.6726C151.601 45.0373 153.534 46.1685 155.106 47.7659C151.019 45.1588 147.226 42.0975 142.921 39.8284C141.322 39.0887 139.772 38.2459 138.131 37.5994C140.908 39.0856 146.689 42.1779 148.873 43.5616C147.948 43.1698 147.948 43.1698 143.647 41.2155C147.9 43.7366 147.9 43.7366 148.573 44.2727C148.127 44.0344 147.539 43.7034 147.111 43.4328C147.301 43.8549 147.568 44.2373 147.898 44.56C147.478 44.3507 147.073 44.1112 146.687 43.8436C146.575 44.5425 146.527 44.8318 148.081 46.3998C146.619 46.0069 145.789 44.613 144.419 44.0737C145.661 45.5248 147.389 46.3992 148.727 47.7359L148.078 47.6725C148.053 48.4651 148.053 48.4651 150.035 50.3578C149.213 50.3029 149.213 50.3029 147.998 49.5516C148.428 50.2174 149.107 50.6466 149.603 51.2501C149.438 51.2308 149.438 51.2308 143.031 46.551C146.485 47.7272 146.485 47.7272 146.638 47.7487L146.735 47.0596C145.556 45.6726 133.978 39.0657 133.821 42.5258L134.679 55.6511C134.74 55.8923 136.199 61.5514 138.376 60.5368C139.085 60.2062 139.125 59.3221 139.722 58.8983C143.085 63.5208 143.884 64.6188 144.181 64.6488C144.748 63.4237 144.748 63.4237 145.491 63.1811C145.064 62.0994 144.496 60.6571 144.069 59.5752L144.624 59.1463C144.232 56.3283 141.073 54.4979 141.832 51.2696C140.816 49.784 140.816 49.784 140.372 48.7137L140.944 48.3621C143.769 49.8774 143.1 51.964 142.814 52.8549C145.672 57.2687 146.441 58.4548 148.683 56.8135C149.176 56.9475 149.639 57.1766 150.045 57.488C149.278 58.2408 148.2 57.9976 147.308 58.3489C147.498 59.9743 149.329 60.4009 149.819 61.8067C149.558 62.2913 149.557 62.2913 149.557 62.2913H149.552C149.267 61.8836 148.919 61.5242 148.521 61.2264L147.847 61.3628C147.881 62.4233 148.608 63.724 149.065 64.6814C148.857 65.0791 148.764 65.5275 148.797 65.9756C148.335 65.8177 147.891 65.6131 147.471 65.365L146.854 65.6224C146.095 67.5722 142.164 66.6216 141.632 65.2982C141.092 63.9576 140.879 62.5127 140.319 61.1788C139.821 61.7167 139.821 61.7167 141.158 66.5305C138.302 68.1522 138.698 72.7458 134.859 73.4682C134.148 74.6475 132.503 74.0018 131.739 75.077C132.93 77.4087 137.582 78.4583 135.867 81.7251C133.76 82.146 131.527 81.0967 129.485 82.2779C129.266 83.6393 129.626 85.4949 129.783 86.8638C129.459 87.2663 129.241 87.7438 129.148 88.2526L130.061 88.7339C130.105 89.3059 130.147 89.8805 130.187 90.4578C131.525 90.5 132.209 92.6789 133.763 91.7756C135.022 91.0438 136.69 91.3711 137.782 90.2084C139.356 88.5315 139.309 86.0271 140.782 84.298C140.725 83.6226 140.631 83.0004 140.533 82.3818C145.536 81.1049 145.536 81.1049 145.662 80.9882C154.016 88.2184 153.146 88.7908 149.401 89.3821L152.135 91.3297C151.91 89.7162 154.036 88.2263 152.515 86.574L153.066 86.1494L153.619 86.4891C153.389 85.2659 152.004 84.9165 151.61 83.8179L151 84.0415C149.496 82.9053 148.404 80.9964 147.886 79.9598C148.175 79.6343 148.567 79.4181 148.996 79.3469C153.162 83.333 153.162 83.333 153.953 83.8179C154.915 88.0259 158.132 90.9951 158.16 91.0081C158.348 90.5975 158.421 90.1437 158.373 89.6946C159.292 89.9036 159.292 89.9036 159.849 89.7872C159.317 89.3943 158.512 88.8004 157.462 87.0111L158.098 86.8769C158.233 86.4509 158.232 85.9933 158.096 85.5679C161.284 86.4874 160.251 90.896 163.312 91.9202C163.649 91.5619 163.9 91.1325 164.049 90.6636C165.239 92.2551 165.561 92.034 166.758 91.212C168.966 92.3188 167.301 97.9428 166.181 98.1924C162.789 98.9488 160.4 95.2331 156.98 96.1135C156.789 96.6281 156.789 96.6281 156.746 98.5386L156.109 98.961C153.926 98.4036 148.079 95.0166 148.036 94.9866C148.033 89.8011 148.033 89.8011 141.327 91.0064C133.606 92.3935 133.606 92.3935 133.499 92.3497C132.833 92.8875 132.384 93.6193 131.824 94.2525L131.608 94.4507H131.6L121.6 109.716C122.96 112.516 122.96 112.516 121.615 117.519C120.608 121.263 128.553 127.704 128.634 127.767C129.335 128.303 130.327 129.133 131.207 129.191C131.487 129.159 131.76 129.086 132.019 128.975C133.597 128.554 140.428 127.155 140.444 127.155C142.725 127.155 144.505 128.91 146.769 128.971C146.663 131.81 145.089 134.58 146.369 137.485C147.517 140.092 147.341 141.712 146.958 144.137C146.517 146.927 144.187 148.786 143.402 151.406C142.853 153.242 143.677 155.15 143.112 156.985C142.286 159.664 142.308 162.558 141.06 165.13C141.142 165.306 141.251 165.541 141.332 165.718C146.93 164.426 146.93 164.426 149.142 162.65C152.606 159.869 162.634 148.862 163.158 148.194C165.581 145.106 164.939 140.957 166.778 137.667C168.991 133.703 172.977 131.116 174.996 127.002C176.381 124.179 176.643 122.614 176.643 120.715C174.9 122.292 174.012 122.404 172.888 122.546C172.831 122.078 172.743 121.455 172.66 120.991C179.918 114.097 184.713 109.543 179.704 106.386C179.639 105.735 179.552 104.869 179.487 104.219C179.369 105.488 179.277 106.491 177.613 106.841C177.096 104.626 175.771 102.646 175.717 100.295L176.291 99.8097C177.385 101.075 177.476 102.887 178.627 104.122L179.309 103.802C179.362 103.604 179.434 103.341 179.487 103.143C180.133 104.788 180.133 104.788 183.127 105.528C183.455 106.652 183.494 107.858 184.085 108.906C183.946 109.396 183.92 109.911 184.007 110.412L184.48 109.923C184.48 110.003 184.516 118.16 183.543 124.805C184.343 123.124 184.756 119.755 185.381 114.655C185.529 112.699 185.603 110.724 185.604 108.729" fill="url(#paint0_linear_155_565)"/>
<path d="M135.401 68.557C135.409 69.239 135.258 69.9168 135.353 70.6017C135.383 70.8182 135.641 71.0058 135.764 71.1788C136.031 71.4395 135.868 71.5948 135.279 71.6403C132.369 71.8654 131.477 72.0923 130.249 72.9161C131.298 71.0998 131.411 70.998 131.531 70.8911C131.222 70.4456 130.651 70.2386 130.548 69.6063C130.494 69.2742 130.986 69.5242 131.17 69.3723C131.269 69.2905 131.211 69.0995 131.168 68.96C131.058 68.5989 130.954 68.2569 131.058 67.9722C131.188 67.6179 131.703 67.8986 131.778 67.466C131.804 67.3119 131.35 66.3151 131.345 66.3055C131.265 66.143 131.019 65.6483 130.008 65.8539C129.895 65.7062 129.798 65.5442 129.72 65.3712C129.443 64.8208 129.62 64.1582 129.35 63.6061C129.256 63.4129 129.227 63.3546 128.833 63.2511C128.372 63.1296 128.326 62.9336 128.26 62.3843C128.016 60.3458 128.138 60.0145 129.265 59.6587C129.702 60.2294 129.563 60.8639 129.421 61.2916C129.317 61.6041 129.324 61.6742 129.409 61.7698C129.9 62.3191 130.537 60.7896 130.875 61.4604C131.004 61.7197 130.973 61.9906 130.852 62.8079C130.714 63.7284 130.606 64.4555 131.518 64.0752C132.456 65.7776 132.456 65.7776 132.796 66.0479C133.391 66.5199 133.915 67.0323 134.314 68.51H135.4C135.4 68.5243 135.4 68.5435 135.4 68.5578" fill="url(#paint1_linear_155_565)"/>
<path d="M129.259 65.5806C129.244 65.8872 129.121 66.1239 128.877 66.5946C129.355 68.1276 129.107 68.8558 129.077 68.9337C129.024 69.0724 128.951 69.1996 128.86 69.3096C128.6 69.5972 128.198 69.5429 127.93 69.8121C127.703 70.0408 127.741 70.4391 127.511 70.6663C127.483 70.6906 127.449 70.7045 127.413 70.7062C127.378 70.7079 127.342 70.6973 127.312 70.6758C127.233 70.6368 126.657 70.2094 126.554 69.9197C126.508 69.7891 126.584 69.6275 126.671 69.4405C126.98 68.8531 127.162 68.1913 127.203 67.5089C127.181 67.3985 127.138 67.3991 126.968 67.5132C126.744 67.6637 126.219 68.0163 125.963 66.8638C125.866 66.4235 126.192 66.3033 126.331 66.2506C126.723 66.1061 127.17 66.2837 127.534 65.9804C127.556 65.4528 127.073 65.1219 127.116 64.5848C127.153 64.1298 127.528 64.0942 127.688 64.0776C128.351 64.115 129.291 64.9116 129.259 65.5779" fill="url(#paint2_linear_155_565)"/>
<path d="M119.261 49.6763C119.349 50.113 119.332 50.5643 119.213 50.9934C119.098 51.1579 118.876 51.0344 118.75 51.1661C118.397 51.5337 118.205 52.0204 117.846 52.3828C117.603 52.6138 117.318 52.7966 117.007 52.9215C116.64 53.0497 116.243 53.0644 115.867 52.9638C115.181 52.8413 114.641 52.29 113.909 52.2991C113.509 52.305 113.131 52.3105 113.051 52.2155C113.04 52.1946 113.032 52.1721 113.029 52.1487C113.188 51.836 113.829 51.7665 113.644 51.3132C113.537 51.0488 113.069 50.7548 112.36 50.5064C113.589 50.4794 113.414 49.657 113.205 49.4898C112.951 49.3678 112.663 49.3354 112.388 49.3979C112.094 49.4248 111.76 49.4555 111.647 49.351C111.465 49.1832 111.678 48.6101 112.194 48.5546C112.443 48.5382 112.691 48.5825 112.919 48.6836C112.556 48.2318 112.008 47.5503 112.911 47.5059C113.472 47.9316 113.566 48.0422 113.63 48.6229C113.637 48.7533 113.688 48.8776 113.774 48.9761C113.86 49.0747 113.976 49.1419 114.104 49.1672C114.18 49.1853 114.259 49.1805 114.332 49.1534C114.614 49.0171 114.792 48.743 115.064 48.5957C115.374 48.4284 115.725 48.3718 116.045 48.2303C116.158 48.18 118.816 47.032 119.261 49.6781" fill="url(#paint3_linear_155_565)"/>
<path d="M167.137 146.848C166.389 148.26 160.627 157.185 159.093 156.872C159.077 156.712 159.035 156.29 160.415 153.741C160.845 152.946 161.604 152.434 162.08 151.678C162.637 150.793 162.86 149.741 163.407 148.851C163.453 148.775 163.518 148.675 163.571 148.603C163.83 148.245 164.18 148.164 164.586 148.071C165.192 147.932 165.74 147.535 166.365 146.781C166.889 146.15 167.168 145.335 167.788 144.778C167.819 144.754 167.854 144.737 167.891 144.727C168.028 144.931 167.774 145.645 167.137 146.848Z" fill="url(#paint4_linear_155_565)"/>
<path d="M123.508 33.5025C126.413 34.1443 129.259 35.0089 132.018 36.0878C135.618 37.4851 138.988 39.3373 142.517 40.877C141.816 40.7979 141.464 40.7579 137.839 39.0564C136.24 38.306 134.757 37.3407 133.074 36.7476C125.765 34.1721 125.765 34.1721 124.266 33.7611C124.381 33.7776 124.493 33.8006 124.606 33.8208C123.614 33.4543 122.546 33.3995 121.526 33.1436C121.958 33.1953 123.012 33.4006 123.508 33.5019" fill="url(#paint5_linear_155_565)"/>
<path d="M93.7657 141.719C93.5462 142.576 87.7531 152.766 87.7055 152.827C86.1412 154.805 81.2347 153.57 81.7008 156.927C82.067 159.562 78.9725 162.784 78.9396 162.814C78.287 163.431 77.987 163.583 76.9259 163.019C76.9073 163.25 76.8825 163.558 76.8636 163.789L77.5212 164.094C78.0149 165.484 77.9881 165.52 77.3063 166.444C76.8127 166.488 76.3162 166.49 75.8223 166.449L75.3695 166.994C75.4399 167.218 75.5338 167.516 75.6039 167.74L74.9514 168.034C74.9254 168.25 74.8908 168.538 74.8649 168.754C75.7806 169.139 75.7806 169.139 75.9995 171.053L75.2985 171.177L82.3141 178.925C80.8459 179.206 76.7681 178.677 70.6304 167.689C70.7088 168.207 70.8486 168.713 71.0468 169.197C70.4073 168.648 70.2554 168.518 68.0884 163.894C65.4476 158.262 67.858 151.21 62.8408 146.246C58.3172 141.771 52.6875 136.202 53.794 132.401C56.2495 123.964 55.4893 122.291 54.6094 120.353C54.0574 120.46 54.0574 120.46 52.9087 121.519C50.4532 118.317 46.8313 116.115 44.8506 112.506C43.2677 109.684 39.2327 109.562 37.9107 106.452C37.8907 106.405 36.5679 96.7065 36.8564 92.398C36.6485 95.5015 42.4898 100.259 38.312 102.329C40.1549 101.416 36.9739 97.9749 36.2329 96.1222C39.5069 91.0942 27.5005 103.984 36.6634 80.1094C37.2073 78.5576 37.8985 77.0609 38.7278 75.6396L42.678 68.1914C43.7177 65.9153 50.4129 57.5593 53.7855 54.437L53.714 54.4844C54.8089 53.5563 55.9301 52.6596 57.0775 51.7942C62.3016 47.8555 68.0132 44.6021 74.0717 42.1142C73.6745 42.2824 72.619 42.731 71.0387 43.4992C75.4225 41.9011 75.4225 41.9011 75.5095 41.8787C75.27 42.0189 75.27 42.0189 72.8743 43.2634C73.5913 43.0044 74.3014 42.7271 75.0204 42.4722C73.3352 44.2868 73.3352 44.2868 72.071 44.8593C72.7867 45.1422 73.4629 45.4094 75.8967 44.2128L75.2452 45.0393L75.6149 45.6281C77.5325 45.3113 78.8951 43.8503 80.6918 43.2839C80.4582 43.594 80.4582 43.594 78.3121 45.2048C81.4029 44.1954 83.6998 41.6832 86.8985 40.8774C84.7223 42.2028 82.7675 43.8449 80.5546 45.1181C81.1053 44.9283 81.6435 44.7042 82.1659 44.4472C81.5945 45.0921 81.5945 45.0921 79.3816 46.5795C81.8552 46.5186 83.2515 44.2961 85.4565 43.6966C85.4213 43.963 85.3745 44.3185 85.3396 44.5851C84.3659 45.3141 84.3659 45.3141 75.4946 49.2856L75.78 49.9305C71.9763 52.6782 66.5782 53.1375 64.0701 57.7398L64.7818 57.8865C64.6928 58.5756 64.6928 58.5756 63.2519 60.3106C63.7439 60.337 64.2264 60.4564 64.6736 60.6625C65.5715 63.4662 65.5715 63.4662 66.674 63.6274C66.2427 64.4924 65.6679 65.6462 65.2371 66.5111C65.1926 67.9262 65.2089 67.9626 65.5941 68.8982C67.2412 68.8267 71.1945 63.2588 71.2339 63.2024C72.1317 61.9468 72.6132 60.4436 72.6111 58.9025C74.9542 57.5567 76.066 54.3784 79.4186 54.5382C79.7415 56.0803 79.7414 56.0803 80.4064 56.5401L78.8768 59.5121C79.2293 59.8441 79.6089 60.1466 80.0116 60.4163C81.1668 60.0316 81.7022 58.8894 82.6982 58.3079C83.8781 60.8918 81.1203 64.6357 84.7062 66.4169C83.6161 68.7578 84.358 71.6185 82.5601 73.7583C83.0346 74.0488 83.0346 74.0488 84.6668 74.1071L84.9485 75.0665C84.114 76.4516 84.114 76.4516 79.2912 76.1252C80.3619 74.7421 81.7613 72.8743 82.8714 71.5203L75.3072 71.5136C75.2948 71.5175 73.952 71.9944 69.8009 75.5446C73.5001 72.9329 74.2647 72.9909 75.5318 73.0873L75.8462 73.7715C75.3839 74.1139 74.8527 74.353 74.289 74.4724C74.4524 75.147 74.4524 75.147 74.0841 76.8696C74.7744 77.277 75.2957 77.8935 75.9646 78.3276C76.6703 78.0152 77.2209 77.4643 77.9086 77.122C77.9461 77.3791 77.9963 77.722 78.034 77.9788C76.9411 79.2183 75.7831 79.7126 72.4015 80.3833C72.4441 79.2248 72.444 79.2248 73.3978 78.0108C72.8726 78.1731 72.3731 78.4094 71.8318 78.5261L71.829 78.4633L71.5377 79.1883C67.1944 80.3802 63.6015 84.5026 63.5714 84.5435C54.6601 96.3356 54.6601 96.3356 54.6356 101.556L53.6421 101.196C52.9899 99.2983 53.9025 97.3901 53.5768 95.49C50.8474 95.1395 50.8474 95.1395 49.6632 94.4481C49.2665 94.7591 48.9772 95.1854 48.8354 95.6677C48.3035 95.8006 48.3035 95.8006 45.6516 94.9581C39.0344 103.653 43.4728 108.829 45.209 108.307C46.7775 107.836 47.505 104.226 49.1155 105.734C48.6469 107.638 48.0496 109.508 47.6154 111.42C48.6151 112.371 50.0923 112.012 51.1937 112.682C51.5267 119.105 51.5267 119.105 51.8631 119.604C55.1329 119.533 55.1329 119.533 55.695 120.347C56.4275 119.772 56.4275 119.772 56.9347 117.982C58.5638 118.321 59.8176 117.24 61.2672 116.901C64.4403 119.469 68.6404 120.495 71.5368 123.479C72.1586 124.12 72.7543 124.785 73.3902 125.412C74.8082 126.811 77.0871 126.456 78.5122 127.84C79.7057 128.999 78.7043 131.004 80.2162 132.041L93.3741 138.91C93.6276 139.268 94.1576 140.013 93.7685 141.718" fill="url(#paint6_linear_155_565)"/>
<path d="M110.759 33.1526C110.788 33.1865 110.818 33.2354 110.844 33.2707C110.422 33.3535 110.367 33.3623 110.228 33.5742C110.578 33.9411 111.132 34.0611 111.454 34.4623C111.823 34.9222 111.907 35.5 112.176 36.0013C112.093 36.0777 111.983 36.1798 111.901 36.2567C111.912 36.558 112.134 36.843 111.98 37.1573C111.604 37.2861 111.397 37.3573 111.948 38.27C111.964 38.2976 113.321 41.2599 112.321 42.4675C111.702 43.2141 109.976 44.9272 107.309 44.71C106.762 44.6656 106.59 44.6825 106.473 44.795C106.125 45.1261 106.327 45.6271 106.058 45.9814C105.858 46.2452 105.601 46.462 104.519 47.3744C104.394 47.4798 104.235 47.6288 104.107 47.7289C103.564 48.1711 102.942 48.5198 102.269 48.7586C99.9575 49.7218 99.5772 50.2024 99.6075 51.1589C99.6282 51.8078 99.5958 51.8652 99.4758 52.0788C99.2523 52.329 98.9686 52.5259 98.648 52.6535C98.303 52.8347 98.1651 52.9901 97.851 54.1384C97.3363 56.0214 97.0529 57.0588 96.0942 57.4119C95.5969 57.5954 94.2228 57.0875 94.4149 56.164C94.4332 56.0755 94.4444 55.9113 94.3601 55.868C93.7464 55.554 93.1315 56.142 92.5176 55.8658C92.4569 55.8398 92.4078 55.795 92.3785 55.7389C92.3602 55.6876 90.9054 49.8589 92.304 46.7978C93.3608 44.486 94.0814 44.3147 94.5584 44.1996C95.1965 44.0468 96.1835 43.0486 96.281 42.2752C95.0436 41.0847 95.0436 41.0847 95.122 40.8463C95.7536 40.7782 96.0648 41.5201 96.7188 41.3981C97.1201 40.6954 96.8311 39.8912 97.093 39.168C96.4245 39.1915 96.2736 39.8302 95.8193 40.108C95.756 39.9149 95.756 39.9149 100.415 34.3332C99.9487 33.799 99.3692 34.0495 98.9034 34.2504C99.2036 33.7187 102.687 32.0432 108.587 32.0391C108.599 32.0391 110.641 33.0251 110.761 33.1523" fill="url(#paint7_linear_155_565)"/>
<path d="M95.0117 99.4307H39.7725V102.745H95.0117V99.4307Z" fill="#231F20"/>
<path d="M44.1902 85.0688H87.5733C90.132 85.0688 92.5859 86.0967 94.3952 87.9262C96.2044 89.7558 97.2209 92.2372 97.2209 94.8245V130.552C97.2209 131.834 96.9713 133.102 96.4865 134.286C96.0017 135.469 95.291 136.545 94.3952 137.451C93.4993 138.357 92.4358 139.075 91.2653 139.565C90.0948 140.056 88.8402 140.308 87.5733 140.308H62.1993C55.6652 140.308 49.3987 137.683 44.7785 133.011C40.1582 128.338 37.5626 122.002 37.5625 115.394V91.772C37.5624 89.9944 38.2606 88.2895 39.5036 87.0325C40.7465 85.7754 42.4323 85.0691 44.1902 85.0688Z" fill="#082133"/>
<path d="M42.9153 91.6973H91.868C92.4087 91.6973 92.9272 91.9048 93.3095 92.2742C93.6918 92.6437 93.9066 93.1447 93.9066 93.6672V103.85H40.877V93.6672C40.877 93.1448 41.0917 92.6437 41.474 92.2743C41.8562 91.9049 42.3747 91.6973 42.9153 91.6973Z" fill="url(#paint8_linear_155_565)"/>
<path d="M93.013 102.745H41.7298L40.877 103.662V131.449C40.877 133.291 42.6707 134.784 44.8838 134.784H89.8998C92.1129 134.784 93.9066 133.291 93.9066 131.449V103.662L93.013 102.745ZM50.4086 127.988C50.4085 128.087 50.3884 128.185 50.3494 128.276C50.3105 128.368 50.2535 128.45 50.1817 128.52C50.1099 128.59 50.0247 128.645 49.931 128.683C49.8372 128.721 49.7367 128.74 49.6353 128.74H46.2941C46.1927 128.74 46.0922 128.721 45.9984 128.683C45.9046 128.646 45.8194 128.59 45.7475 128.52C45.6757 128.451 45.6187 128.368 45.5797 128.276C45.5408 128.185 45.5207 128.087 45.5206 127.988V125.841C45.5207 125.743 45.5408 125.645 45.5797 125.553C45.6187 125.462 45.6757 125.379 45.7475 125.309C45.8194 125.239 45.9046 125.184 45.9984 125.146C46.0922 125.109 46.1927 125.089 46.2941 125.089H49.6353C49.7367 125.089 49.8372 125.109 49.931 125.146C50.0247 125.184 50.1099 125.24 50.1817 125.309C50.2535 125.379 50.3105 125.462 50.3494 125.553C50.3884 125.645 50.4085 125.743 50.4086 125.841V127.988ZM50.4086 122.81C50.4085 122.909 50.3884 123.006 50.3494 123.098C50.3105 123.189 50.2535 123.272 50.1817 123.342C50.1099 123.412 50.0247 123.467 49.931 123.505C49.8372 123.542 49.7367 123.562 49.6353 123.562H46.2941C46.1927 123.562 46.0922 123.542 45.9984 123.505C45.9046 123.467 45.8194 123.412 45.7475 123.342C45.6757 123.272 45.6187 123.189 45.5797 123.098C45.5408 123.006 45.5207 122.909 45.5206 122.81V120.663C45.5207 120.564 45.5408 120.466 45.5797 120.375C45.6187 120.284 45.6757 120.201 45.7475 120.131C45.8194 120.061 45.9046 120.006 45.9984 119.968C46.0922 119.93 46.1927 119.911 46.2941 119.911H49.6353C49.7367 119.911 49.8372 119.93 49.931 119.968C50.0247 120.006 50.1099 120.061 50.1817 120.131C50.2535 120.201 50.3105 120.284 50.3494 120.375C50.3884 120.466 50.4085 120.564 50.4086 120.663V122.81ZM50.4086 117.631C50.4085 117.73 50.3884 117.828 50.3494 117.919C50.3105 118.01 50.2535 118.093 50.1817 118.163C50.1099 118.233 50.0247 118.288 49.9309 118.326C49.8372 118.364 49.7367 118.383 49.6353 118.383H46.2941C46.1927 118.383 46.0922 118.364 45.9985 118.326C45.9047 118.288 45.8195 118.233 45.7476 118.163C45.6758 118.093 45.6188 118.01 45.5798 117.919C45.5409 117.828 45.5207 117.73 45.5206 117.631V115.484C45.5207 115.385 45.5409 115.288 45.5798 115.196C45.6188 115.105 45.6758 115.022 45.7476 114.952C45.8195 114.882 45.9047 114.827 45.9985 114.789C46.0922 114.752 46.1927 114.732 46.2941 114.733H49.6353C49.8401 114.732 50.0366 114.811 50.1816 114.952C50.3266 115.093 50.4083 115.285 50.4086 115.484V117.631ZM56.8873 127.988C56.8872 128.087 56.8671 128.185 56.8282 128.276C56.7892 128.368 56.7322 128.45 56.6604 128.52C56.5886 128.59 56.5034 128.645 56.4097 128.683C56.3159 128.721 56.2154 128.74 56.114 128.74H52.7729C52.6714 128.74 52.5709 128.721 52.4771 128.683C52.3833 128.646 52.2981 128.59 52.2262 128.52C52.1544 128.451 52.0974 128.368 52.0584 128.276C52.0195 128.185 51.9994 128.087 51.9993 127.988V125.841C51.9994 125.743 52.0195 125.645 52.0584 125.553C52.0974 125.462 52.1544 125.379 52.2262 125.309C52.2981 125.239 52.3833 125.184 52.4771 125.146C52.5709 125.109 52.6714 125.089 52.7729 125.089H56.114C56.2154 125.089 56.3159 125.109 56.4097 125.146C56.5034 125.184 56.5886 125.24 56.6604 125.309C56.7322 125.379 56.7892 125.462 56.8282 125.553C56.8671 125.645 56.8872 125.743 56.8873 125.841V127.988ZM56.8873 122.81C56.8872 122.909 56.8671 123.006 56.8282 123.098C56.7892 123.189 56.7322 123.272 56.6604 123.342C56.5886 123.412 56.5034 123.467 56.4097 123.505C56.3159 123.542 56.2154 123.562 56.114 123.562H52.7729C52.6714 123.562 52.5709 123.542 52.4771 123.505C52.3833 123.467 52.2981 123.412 52.2262 123.342C52.1544 123.272 52.0974 123.189 52.0584 123.098C52.0195 123.006 51.9994 122.909 51.9993 122.81V120.663C51.9994 120.564 52.0195 120.466 52.0584 120.375C52.0974 120.284 52.1544 120.201 52.2262 120.131C52.2981 120.061 52.3833 120.006 52.4771 119.968C52.5709 119.93 52.6714 119.911 52.7729 119.911H56.114C56.2154 119.911 56.3159 119.93 56.4097 119.968C56.5034 120.006 56.5886 120.061 56.6604 120.131C56.7322 120.201 56.7892 120.284 56.8282 120.375C56.8671 120.466 56.8872 120.564 56.8873 120.663V122.81ZM56.8873 117.631C56.8872 117.73 56.8671 117.828 56.8281 117.919C56.7892 118.01 56.7322 118.093 56.6604 118.163C56.5886 118.233 56.5034 118.288 56.4096 118.326C56.3159 118.364 56.2154 118.383 56.114 118.383H52.7729C52.6714 118.383 52.5709 118.364 52.4772 118.326C52.3834 118.288 52.2982 118.233 52.2263 118.163C52.1545 118.093 52.0975 118.01 52.0585 117.919C52.0196 117.828 51.9994 117.73 51.9993 117.631V115.484C51.9994 115.385 52.0196 115.288 52.0585 115.196C52.0975 115.105 52.1545 115.022 52.2263 114.952C52.2982 114.882 52.3834 114.827 52.4772 114.789C52.5709 114.752 52.6714 114.732 52.7729 114.733H56.114C56.3188 114.732 56.5153 114.811 56.6603 114.952C56.8054 115.093 56.887 115.285 56.8873 115.484V117.631ZM56.8873 112.452C56.8872 112.551 56.8671 112.649 56.8282 112.74C56.7892 112.831 56.7322 112.914 56.6604 112.984C56.5886 113.054 56.5034 113.109 56.4097 113.147C56.3159 113.185 56.2154 113.204 56.114 113.204H52.7729C52.6714 113.204 52.5709 113.185 52.4771 113.147C52.3833 113.11 52.2981 113.054 52.2262 112.984C52.1544 112.915 52.0974 112.832 52.0584 112.74C52.0195 112.649 51.9994 112.551 51.9993 112.452V110.306C51.9994 110.207 52.0196 110.109 52.0585 110.018C52.0975 109.927 52.1545 109.844 52.2263 109.774C52.2982 109.704 52.3834 109.649 52.4772 109.611C52.5709 109.573 52.6714 109.554 52.7729 109.554H56.114C56.2154 109.554 56.3159 109.573 56.4096 109.611C56.5034 109.649 56.5886 109.704 56.6604 109.774C56.7322 109.844 56.7892 109.927 56.8281 110.018C56.8671 110.109 56.8872 110.207 56.8873 110.306V112.452ZM63.3632 127.988C63.363 128.087 63.343 128.184 63.304 128.276C63.2651 128.367 63.2081 128.45 63.1362 128.52C63.0644 128.59 62.9791 128.645 62.8853 128.683C62.7916 128.72 62.6911 128.74 62.5896 128.74H59.247C59.1456 128.74 59.0451 128.72 58.9514 128.683C58.8576 128.645 58.7724 128.59 58.7006 128.52C58.6288 128.45 58.5718 128.367 58.5329 128.276C58.494 128.184 58.4739 128.087 58.4738 127.988V125.841C58.4739 125.743 58.494 125.645 58.5329 125.553C58.5718 125.462 58.6288 125.379 58.7006 125.309C58.7724 125.24 58.8576 125.184 58.9514 125.146C59.0451 125.109 59.1456 125.089 59.247 125.089H62.5882C62.6898 125.089 62.7904 125.108 62.8844 125.146C62.9783 125.184 63.0637 125.239 63.1357 125.309C63.2077 125.379 63.2648 125.462 63.3039 125.553C63.3429 125.644 63.363 125.742 63.3632 125.841V127.988ZM63.3632 122.809C63.363 122.908 63.343 123.006 63.304 123.097C63.2651 123.188 63.2081 123.271 63.1362 123.341C63.0644 123.411 62.9791 123.466 62.8853 123.504C62.7916 123.542 62.6911 123.561 62.5896 123.561H59.247C59.1456 123.561 59.0451 123.542 58.9514 123.504C58.8576 123.466 58.7724 123.411 58.7006 123.341C58.6288 123.271 58.5718 123.188 58.5329 123.097C58.494 123.006 58.4739 122.908 58.4738 122.809V120.663C58.4739 120.564 58.494 120.466 58.5329 120.375C58.5718 120.283 58.6288 120.2 58.7006 120.131C58.7724 120.061 58.8576 120.005 58.9514 119.968C59.0451 119.93 59.1456 119.911 59.247 119.911H62.5882C62.6896 119.91 62.7901 119.93 62.8839 119.968C62.9777 120.005 63.063 120.061 63.1348 120.13C63.2066 120.2 63.2637 120.283 63.3026 120.374C63.3415 120.466 63.3616 120.564 63.3617 120.663L63.3632 122.809ZM63.3632 117.631C63.363 117.729 63.3429 117.827 63.3039 117.919C63.265 118.01 63.208 118.093 63.1361 118.162C63.0643 118.232 62.9791 118.288 62.8853 118.325C62.7915 118.363 62.691 118.382 62.5896 118.382H59.247C59.1456 118.382 59.0452 118.363 58.9514 118.325C58.8576 118.288 58.7724 118.232 58.7006 118.162C58.6288 118.093 58.5718 118.01 58.5329 117.918C58.494 117.827 58.4739 117.729 58.4738 117.631V115.484C58.4741 115.284 58.5557 115.093 58.7007 114.952C58.8457 114.811 59.0422 114.732 59.247 114.732H62.5882C62.6896 114.732 62.7901 114.751 62.8839 114.789C62.9776 114.827 63.0629 114.882 63.1347 114.952C63.2065 115.022 63.2636 115.104 63.3025 115.196C63.3415 115.287 63.3616 115.385 63.3617 115.484L63.3632 117.631ZM63.3632 112.452C63.363 112.551 63.343 112.648 63.304 112.74C63.2651 112.831 63.2081 112.914 63.1362 112.984C63.0644 113.054 62.9791 113.109 62.8853 113.147C62.7916 113.184 62.6911 113.204 62.5896 113.204H59.247C59.1456 113.204 59.0451 113.184 58.9514 113.147C58.8576 113.109 58.7724 113.054 58.7006 112.984C58.6288 112.914 58.5718 112.831 58.5329 112.74C58.494 112.648 58.4739 112.551 58.4738 112.452V110.306C58.4739 110.207 58.494 110.109 58.5329 110.018C58.5718 109.927 58.6288 109.844 58.7006 109.774C58.7724 109.704 58.8576 109.649 58.9514 109.611C59.0452 109.573 59.1456 109.554 59.247 109.554H62.5882C62.6896 109.554 62.7901 109.573 62.8839 109.611C62.9776 109.649 63.0629 109.704 63.1347 109.774C63.2065 109.844 63.2636 109.927 63.3025 110.018C63.3415 110.109 63.3616 110.207 63.3617 110.306L63.3632 112.452ZM69.8388 127.987C69.8386 128.086 69.8186 128.184 69.7796 128.275C69.7407 128.366 69.6837 128.449 69.6119 128.519C69.5401 128.589 69.4549 128.644 69.3611 128.682C69.2674 128.72 69.1669 128.739 69.0655 128.739H65.7243C65.6229 128.739 65.5224 128.72 65.4287 128.682C65.3349 128.644 65.2497 128.589 65.1779 128.519C65.1061 128.449 65.0491 128.366 65.0102 128.275C64.9713 128.184 64.9512 128.086 64.9511 127.987V125.841C64.9512 125.743 64.9713 125.645 65.0102 125.553C65.0491 125.462 65.1061 125.379 65.1779 125.309C65.2497 125.24 65.3349 125.184 65.4287 125.146C65.5224 125.109 65.6229 125.089 65.7243 125.089H69.0655C69.1669 125.089 69.2674 125.109 69.3611 125.146C69.4549 125.184 69.5401 125.24 69.6119 125.309C69.6837 125.379 69.7407 125.462 69.7796 125.553C69.8186 125.645 69.8386 125.743 69.8388 125.841V127.987ZM69.8388 122.809C69.8386 122.907 69.8186 123.005 69.7796 123.097C69.7407 123.188 69.6837 123.271 69.6119 123.341C69.5401 123.41 69.4549 123.466 69.3611 123.504C69.2674 123.541 69.1669 123.561 69.0655 123.561H65.7243C65.6229 123.561 65.5224 123.541 65.4287 123.504C65.3349 123.466 65.2497 123.41 65.1779 123.341C65.1061 123.271 65.0491 123.188 65.0102 123.097C64.9713 123.005 64.9512 122.907 64.9511 122.809V120.662C64.9512 120.563 64.9713 120.465 65.0102 120.374C65.0491 120.283 65.1061 120.2 65.1779 120.13C65.2497 120.06 65.3349 120.005 65.4287 119.967C65.5224 119.929 65.6229 119.91 65.7243 119.91H69.0655C69.1669 119.91 69.2674 119.929 69.3611 119.967C69.4549 120.005 69.5401 120.06 69.6119 120.13C69.6837 120.2 69.7407 120.283 69.7796 120.374C69.8186 120.465 69.8386 120.563 69.8388 120.662V122.809ZM69.8388 117.63C69.8386 117.729 69.8186 117.827 69.7796 117.918C69.7407 118.009 69.6837 118.092 69.6119 118.162C69.5401 118.232 69.4549 118.287 69.3611 118.325C69.2674 118.362 69.1669 118.382 69.0655 118.382H65.7243C65.6229 118.382 65.5225 118.362 65.4287 118.325C65.3349 118.287 65.2497 118.232 65.1779 118.162C65.1061 118.092 65.0491 118.009 65.0102 117.918C64.9713 117.827 64.9512 117.729 64.9511 117.63V115.483C64.9514 115.284 65.033 115.092 65.178 114.951C65.323 114.81 65.5195 114.731 65.7243 114.731H69.0655C69.2703 114.731 69.4668 114.81 69.6118 114.951C69.7568 115.092 69.8385 115.284 69.8388 115.483V117.63ZM69.8388 112.451C69.8386 112.55 69.8186 112.648 69.7796 112.739C69.7407 112.83 69.6837 112.913 69.6119 112.983C69.5401 113.053 69.4549 113.108 69.3611 113.146C69.2674 113.184 69.1669 113.203 69.0655 113.203H65.7243C65.6229 113.203 65.5224 113.184 65.4287 113.146C65.3349 113.108 65.2497 113.053 65.1779 112.983C65.1061 112.913 65.0491 112.83 65.0102 112.739C64.9713 112.648 64.9512 112.55 64.9511 112.451V110.306C64.9512 110.207 64.9713 110.109 65.0102 110.018C65.0491 109.927 65.1061 109.844 65.1779 109.774C65.2497 109.704 65.3349 109.649 65.4287 109.611C65.5225 109.573 65.6229 109.554 65.7243 109.554H69.0655C69.1669 109.554 69.2674 109.573 69.3611 109.611C69.4549 109.649 69.5401 109.704 69.6119 109.774C69.6837 109.844 69.7407 109.927 69.7796 110.018C69.8186 110.109 69.8386 110.207 69.8388 110.306V112.451ZM76.3146 127.987C76.3145 128.085 76.2944 128.183 76.2555 128.275C76.2166 128.366 76.1596 128.449 76.0878 128.519C76.016 128.588 75.9308 128.644 75.837 128.682C75.7433 128.719 75.6428 128.739 75.5414 128.739H72.2002C72.0987 128.739 71.9983 128.719 71.9045 128.682C71.8107 128.644 71.7254 128.589 71.6536 128.519C71.5818 128.449 71.5247 128.366 71.4858 128.275C71.4469 128.183 71.4268 128.085 71.4267 127.987V125.841C71.4268 125.743 71.4469 125.645 71.4858 125.553C71.5247 125.462 71.5818 125.379 71.6536 125.309C71.7254 125.239 71.8107 125.184 71.9045 125.146C71.9983 125.109 72.0987 125.089 72.2002 125.089H75.5414C75.6428 125.089 75.7433 125.109 75.837 125.146C75.9308 125.184 76.016 125.24 76.0878 125.309C76.1596 125.379 76.2166 125.462 76.2555 125.553C76.2944 125.645 76.3145 125.743 76.3146 125.841V127.987ZM76.3146 122.808C76.3145 122.907 76.2944 123.005 76.2555 123.096C76.2166 123.187 76.1596 123.27 76.0878 123.34C76.016 123.41 75.9308 123.465 75.837 123.503C75.7433 123.541 75.6428 123.56 75.5414 123.56H72.2002C72.0987 123.56 71.9983 123.541 71.9045 123.503C71.8107 123.465 71.7254 123.41 71.6536 123.34C71.5818 123.27 71.5247 123.187 71.4858 123.096C71.4469 123.005 71.4268 122.907 71.4267 122.808V120.661C71.4268 120.563 71.4469 120.465 71.4858 120.373C71.5247 120.282 71.5818 120.199 71.6536 120.129C71.7254 120.059 71.8107 120.004 71.9045 119.966C71.9983 119.929 72.0987 119.909 72.2002 119.91H75.5414C75.6428 119.909 75.7433 119.929 75.837 119.966C75.9308 120.004 76.016 120.06 76.0878 120.129C76.1596 120.199 76.2166 120.282 76.2555 120.373C76.2944 120.465 76.3145 120.563 76.3146 120.661V122.808ZM76.3146 117.629C76.3145 117.728 76.2944 117.826 76.2555 117.917C76.2166 118.009 76.1596 118.092 76.0878 118.161C76.016 118.231 75.9308 118.286 75.837 118.324C75.7432 118.362 75.6428 118.381 75.5414 118.381H72.2002C72.0988 118.381 71.9983 118.362 71.9045 118.324C71.8108 118.287 71.7255 118.231 71.6537 118.161C71.5819 118.092 71.5248 118.009 71.4859 117.917C71.4469 117.826 71.4268 117.728 71.4267 117.629V115.483C71.4268 115.384 71.4469 115.286 71.4859 115.195C71.5248 115.103 71.5819 115.02 71.6537 114.951C71.7255 114.881 71.8108 114.825 71.9045 114.788C71.9983 114.75 72.0988 114.731 72.2002 114.731H75.5414C75.7462 114.731 75.9427 114.81 76.0877 114.951C76.2327 115.092 76.3143 115.283 76.3146 115.483V117.629ZM76.3146 112.451C76.3145 112.549 76.2944 112.647 76.2555 112.739C76.2166 112.83 76.1596 112.913 76.0878 112.983C76.016 113.052 75.9308 113.108 75.837 113.145C75.7433 113.183 75.6428 113.203 75.5414 113.202H72.2002C72.0987 113.203 71.9983 113.183 71.9045 113.146C71.8107 113.108 71.7254 113.053 71.6536 112.983C71.5818 112.913 71.5247 112.83 71.4858 112.739C71.4469 112.647 71.4268 112.549 71.4267 112.451V110.306C71.4268 110.207 71.4469 110.109 71.4859 110.018C71.5248 109.927 71.5819 109.844 71.6537 109.774C71.7255 109.704 71.8108 109.649 71.9045 109.611C71.9983 109.573 72.0988 109.554 72.2002 109.554H75.5414C75.6428 109.554 75.7432 109.573 75.837 109.611C75.9308 109.649 76.016 109.704 76.0878 109.774C76.1596 109.844 76.2166 109.927 76.2555 110.018C76.2944 110.109 76.3145 110.207 76.3146 110.306V112.451ZM82.7905 127.986C82.7904 128.085 82.7703 128.183 82.7314 128.274C82.6924 128.365 82.6354 128.448 82.5636 128.518C82.4917 128.588 82.4065 128.643 82.3127 128.681C82.2189 128.719 82.1184 128.738 82.017 128.738H78.6758C78.5744 128.738 78.4739 128.719 78.3801 128.681C78.2864 128.643 78.2012 128.588 78.1294 128.518C78.0576 128.448 78.0006 128.365 77.9617 128.274C77.9227 128.183 77.9026 128.085 77.9025 127.986V125.841C77.9026 125.743 77.9227 125.645 77.9617 125.553C78.0006 125.462 78.0576 125.379 78.1294 125.309C78.2012 125.24 78.2864 125.184 78.3801 125.146C78.4739 125.109 78.5744 125.089 78.6758 125.089H82.017C82.1184 125.089 82.2189 125.109 82.3127 125.146C82.4065 125.184 82.4917 125.239 82.5636 125.309C82.6354 125.379 82.6924 125.462 82.7314 125.553C82.7703 125.645 82.7904 125.743 82.7905 125.841V127.986ZM82.7905 122.807C82.7904 122.906 82.7703 123.004 82.7314 123.096C82.6924 123.187 82.6354 123.27 82.5636 123.34C82.4917 123.409 82.4065 123.465 82.3127 123.502C82.2189 123.54 82.1184 123.56 82.017 123.559H78.6758C78.5744 123.56 78.4739 123.54 78.3801 123.502C78.2864 123.465 78.2012 123.409 78.1294 123.34C78.0576 123.27 78.0006 123.187 77.9617 123.095C77.9227 123.004 77.9026 122.906 77.9025 122.807V120.661C77.9026 120.562 77.9227 120.464 77.9617 120.373C78.0006 120.282 78.0576 120.199 78.1294 120.129C78.2012 120.059 78.2864 120.004 78.3801 119.966C78.4739 119.928 78.5744 119.909 78.6758 119.909H82.017C82.1184 119.909 82.2189 119.928 82.3127 119.966C82.4065 120.004 82.4917 120.059 82.5636 120.129C82.6354 120.199 82.6924 120.282 82.7314 120.373C82.7703 120.464 82.7904 120.562 82.7905 120.661V122.807ZM82.7905 117.629C82.7904 117.728 82.7702 117.826 82.7313 117.917C82.6923 118.008 82.6353 118.091 82.5635 118.161C82.4916 118.231 82.4064 118.286 82.3126 118.324C82.2189 118.361 82.1184 118.381 82.017 118.381H78.6758C78.5744 118.381 78.4739 118.361 78.3802 118.324C78.2864 118.286 78.2012 118.231 78.1294 118.161C78.0576 118.091 78.0006 118.008 77.9617 117.917C77.9227 117.826 77.9026 117.728 77.9025 117.629V115.482C77.9028 115.282 77.9845 115.091 78.1295 114.95C78.2745 114.809 78.471 114.73 78.6758 114.73H82.017C82.1184 114.73 82.2189 114.75 82.3126 114.787C82.4064 114.825 82.4916 114.88 82.5635 114.95C82.6353 115.02 82.6923 115.103 82.7313 115.194C82.7702 115.285 82.7904 115.383 82.7905 115.482V117.629ZM82.7905 112.45C82.7904 112.549 82.7703 112.647 82.7314 112.738C82.6924 112.829 82.6354 112.912 82.5636 112.982C82.4917 113.052 82.4065 113.107 82.3127 113.145C82.2189 113.183 82.1184 113.202 82.017 113.202H78.6758C78.5744 113.202 78.4739 113.183 78.3801 113.145C78.2864 113.107 78.2012 113.052 78.1294 112.982C78.0576 112.912 78.0006 112.829 77.9617 112.738C77.9227 112.647 77.9026 112.549 77.9025 112.45V110.306C77.9026 110.207 77.9227 110.109 77.9617 110.018C78.0006 109.927 78.0576 109.844 78.1294 109.774C78.2012 109.704 78.2864 109.649 78.3802 109.611C78.4739 109.573 78.5744 109.554 78.6758 109.554H82.017C82.1184 109.554 82.2189 109.573 82.3126 109.611C82.4064 109.649 82.4916 109.704 82.5635 109.774C82.6353 109.844 82.6923 109.927 82.7313 110.018C82.7702 110.109 82.7904 110.207 82.7905 110.306V112.45ZM89.2661 122.807C89.266 122.906 89.2459 123.004 89.207 123.095C89.1681 123.187 89.1111 123.27 89.0393 123.34C88.9675 123.409 88.8823 123.465 88.7885 123.502C88.6947 123.54 88.5943 123.56 88.4928 123.559H85.1517C85.0502 123.56 84.9498 123.54 84.856 123.502C84.7623 123.465 84.6771 123.409 84.6052 123.34C84.5334 123.27 84.4765 123.187 84.4375 123.095C84.3986 123.004 84.3785 122.906 84.3784 122.807V120.661C84.3785 120.562 84.3986 120.464 84.4375 120.373C84.4765 120.282 84.5334 120.199 84.6052 120.129C84.6771 120.059 84.7623 120.004 84.856 119.966C84.9498 119.928 85.0502 119.909 85.1517 119.909H88.4928C88.5943 119.909 88.6947 119.928 88.7885 119.966C88.8823 120.004 88.9675 120.059 89.0393 120.129C89.1111 120.199 89.1681 120.282 89.207 120.373C89.2459 120.464 89.266 120.562 89.2661 120.661V122.807ZM89.2661 117.629C89.266 117.728 89.2459 117.826 89.207 117.917C89.1681 118.008 89.1111 118.091 89.0392 118.161C88.9674 118.231 88.8822 118.286 88.7885 118.324C88.6947 118.361 88.5943 118.381 88.4928 118.381H85.1517C85.0503 118.381 84.9498 118.361 84.8561 118.324C84.7623 118.286 84.6771 118.231 84.6053 118.161C84.5335 118.091 84.4765 118.008 84.4375 117.917C84.3986 117.826 84.3785 117.728 84.3784 117.629V115.482C84.3787 115.282 84.4603 115.091 84.6054 114.95C84.7504 114.809 84.9469 114.73 85.1517 114.73H88.4928C88.6977 114.73 88.8942 114.809 89.0392 114.95C89.1842 115.091 89.2658 115.282 89.2661 115.482V117.629ZM89.2661 112.45C89.266 112.549 89.2459 112.647 89.207 112.738C89.1681 112.829 89.1111 112.912 89.0393 112.982C88.9675 113.052 88.8823 113.107 88.7885 113.145C88.6947 113.183 88.5943 113.202 88.4928 113.202H85.1517C85.0502 113.202 84.9498 113.183 84.856 113.145C84.7623 113.107 84.6771 113.052 84.6052 112.982C84.5334 112.912 84.4765 112.829 84.4375 112.738C84.3986 112.647 84.3785 112.549 84.3784 112.45V110.306C84.3785 110.207 84.3986 110.109 84.4375 110.018C84.4765 109.927 84.5335 109.844 84.6053 109.774C84.6771 109.704 84.7623 109.649 84.8561 109.611C84.9498 109.573 85.0503 109.554 85.1517 109.554H88.4928C88.5943 109.554 88.6947 109.573 88.7885 109.611C88.8822 109.649 88.9674 109.704 89.0392 109.774C89.1111 109.844 89.1681 109.927 89.207 110.018C89.2459 110.109 89.266 110.207 89.2661 110.306V112.45Z" fill="url(#paint9_linear_155_565)"/>
<path d="M84.586 86.1733H82.2368C81.3601 86.1733 80.6494 86.8968 80.6494 87.7892V97.8149C80.6494 98.7073 81.3601 99.4308 82.2368 99.4308H84.586C85.4627 99.4308 86.1733 98.7073 86.1733 97.8149V87.7892C86.1733 86.8968 85.4627 86.1733 84.586 86.1733Z" fill="url(#paint10_linear_155_565)" stroke="#082133" stroke-miterlimit="10"/>
<path d="M53.6514 86.1733H51.3022C50.4255 86.1733 49.7148 86.8968 49.7148 87.7892V97.8149C49.7148 98.7073 50.4255 99.4308 51.3022 99.4308H53.6514C54.5281 99.4308 55.2388 98.7073 55.2388 97.8149V87.7892C55.2388 86.8968 54.5281 86.1733 53.6514 86.1733Z" fill="url(#paint11_linear_155_565)" stroke="#082133" stroke-miterlimit="10"/>
<path d="M40.8766 106.06H93.9062V100.536H40.8766V106.06Z" fill="#082133"/>
<path d="M139.203 143.622C156.897 143.622 171.242 128.289 171.242 109.374C171.242 90.459 156.897 75.1255 139.203 75.1255C121.508 75.1255 107.164 90.459 107.164 109.374C107.164 128.289 121.508 143.622 139.203 143.622Z" fill="#082133"/>
<path d="M112.026 98.26C115.512 96.5745 118.786 99.3715 118.291 103.534C118.264 103.756 118.238 103.977 118.219 104.199C118.161 104.882 118.251 105.604 118.99 105.556C119.438 105.527 120.18 105.064 120.233 104.696C120.456 103.393 120.494 102.066 120.348 100.753C120.188 99.6501 120.296 98.9895 121.2 98.4398C122.467 97.6702 122.918 96.3825 122.804 94.8146C122.748 94.0297 122.533 93.3772 121.709 93.3331C120.865 93.2878 120.669 93.926 120.551 94.7136C120.236 96.8034 119.359 97.2249 117.541 96.4835C116.458 96.0338 115.322 95.7228 114.159 95.5579C112.816 95.3756 112.503 95.1329 112.956 93.8355C113.639 91.887 115.661 90.5735 117.662 90.9126C118.806 91.1068 119.412 90.7527 119.62 89.4398C119.755 88.4997 120.109 87.6036 120.654 86.8229C121.199 86.0421 121.92 85.3982 122.76 84.9424C125.553 83.3143 128.042 84.9282 128.04 88.4579C128.04 89.6915 127.718 90.9273 127.527 92.1575C127.266 93.8305 127.379 95.4822 128.57 96.6275C129.286 97.3159 130.297 97.7096 131.234 98.0078C132.359 98.3658 132.691 98.8402 132.414 100.265C132.167 101.528 131.384 101.116 130.701 100.933C129.259 100.591 128.011 99.6973 127.231 98.4468C127.014 98.1058 126.135 97.8955 125.844 98.1074C125.524 98.3411 125.332 99.1895 125.446 99.6612C125.638 100.278 125.991 100.833 126.469 101.272C127.155 101.949 127.944 102.495 128.784 103.173C128.492 103.615 128.25 103.966 128.021 104.328C126.659 106.493 126.264 108.908 126.531 111.487C126.614 112.3 126.851 113.009 127.783 112.917C128.745 112.823 128.752 112.041 128.748 111.242C128.744 110.482 128.72 109.716 128.783 108.962C128.911 107.335 129.658 105.817 130.874 104.717C131.034 104.579 131.225 104.481 131.431 104.431C131.637 104.38 131.852 104.378 132.059 104.425C132.283 104.499 132.472 105.141 132.476 105.53C132.5 107.724 132.46 109.918 132.45 112.112C132.441 114.076 132.446 114.076 130.743 114.403C127.953 114.938 126.713 116.918 127.29 119.99C127.446 120.818 127.723 121.618 127.945 122.431C128.225 123.458 128.591 124.467 128.769 125.516C129.12 127.583 128.969 129.566 127.407 131.06C123.399 134.896 116.474 132.316 115.474 126.575C115.272 125.418 115.383 124.18 115.446 122.985C115.488 122.176 115.432 121.522 114.589 121.378C113.802 121.243 113.501 121.84 113.405 122.557C113.281 123.48 113.229 124.416 113.153 125.347C113.111 125.853 113.079 126.36 113.03 127.03C111.075 126.135 109.952 124.543 108.894 122.772C108.894 122.772 107.969 120.192 108.643 115.445C109.062 112.49 107.456 109.748 107.367 108.598C106.687 99.8082 112.026 98.2584 112.026 98.2584V98.26ZM106.053 112.478C104.639 122.87 109.398 127.189 109.398 127.189L112.604 129.658C113.411 130.304 114.292 130.882 114.971 131.671C117.536 134.649 120.608 135.792 124.274 135.287C125.301 135.142 126.349 135.232 127.336 135.551C131.008 136.801 134.339 134.479 134.714 130.274C134.766 129.696 134.78 129.112 134.78 128.531C134.783 115.318 134.784 102.105 134.782 88.8919C134.782 85.3735 133.443 83.1486 130.359 82.2999C128.525 81.8461 126.632 81.6738 124.746 81.7891C121.932 81.9001 119.702 83.4133 118.453 86.2597C117.796 87.756 116.932 88.4876 115.472 88.7396C113.261 89.1213 111.862 90.6029 111.081 92.9954C110.635 94.2992 110.048 95.5514 109.33 96.7302C109.14 97.0762 108.885 97.3828 108.578 97.6333C102.334 102.37 106.053 112.478 106.053 112.478V112.478Z" fill="url(#paint12_linear_155_565)"/>
<path d="M113.46 115.09C114.942 115.351 116.536 115.157 118.035 114.864C120.241 114.434 121.735 114.925 122.776 116.801C124.563 120.019 123.352 123.386 120.079 124.297C119.358 124.498 118.727 124.791 118.879 125.836C119.018 126.796 119.6 127.06 120.384 127.05C122.599 127.02 124.731 125.414 125.423 122.963C126.306 119.833 126.189 116.748 124.147 114.18C122.18 111.706 119.64 111.605 116.979 112.448C116.813 112.501 116.645 112.547 116.479 112.599C114.41 113.252 112.923 112.596 112.272 110.743C111.44 108.374 112.009 106.449 113.894 105.259C114.232 105.046 114.799 104.956 114.871 104.596C115.338 102.235 112.953 102.806 112.953 102.806C107.869 105.376 109.692 111.458 109.692 111.458C110.773 114.846 113.46 115.09 113.46 115.09Z" fill="url(#paint13_linear_155_565)"/>
<path d="M130.364 85.0688C130.506 87.7526 130.64 90.3135 130.777 92.8738C130.798 93.2524 130.736 93.7466 130.88 93.9821C131.132 94.4434 131.484 94.8004 131.893 95.0094C132.029 95.0617 132.499 94.287 132.517 93.8631C132.593 92.0966 132.579 90.3195 132.553 88.5476C132.528 86.7306 131.818 85.5767 130.364 85.0688Z" fill="#082133"/>
<path d="M130.533 116.39C129.796 116.906 129.528 117.719 129.715 118.724C130.007 120.283 130.292 121.851 130.688 123.369C131.661 127.105 131.761 130.627 129.26 133.661C131.387 133.849 132.541 132.587 132.556 130.13C132.583 126.045 132.576 121.958 132.561 117.872C132.554 116.112 131.745 115.54 130.533 116.39Z" fill="#082133"/>
<path d="M141.412 85.0688C141.2 87.7526 140.998 90.3135 140.793 92.8738C140.762 93.2524 140.852 93.7466 140.639 93.9821C140.261 94.4434 139.733 94.8004 139.12 95.0094C138.914 95.0617 138.21 94.287 138.182 93.8631C138.068 92.0966 138.09 90.3195 138.128 88.5476C138.166 86.7306 139.231 85.5767 141.412 85.0688Z" fill="url(#paint14_linear_155_565)"/>
<path d="M140.139 116.39C140.876 116.906 141.144 117.719 140.956 118.724C140.665 120.283 140.379 121.851 139.984 123.369C139.011 127.105 138.911 130.627 141.412 133.661C139.285 133.849 138.131 132.587 138.116 130.13C138.089 126.045 138.096 121.958 138.111 117.872C138.117 116.112 138.926 115.54 140.139 116.39Z" fill="url(#paint15_linear_155_565)"/>
<path d="M163.307 108.599C163.218 109.749 161.612 112.491 162.032 115.447C162.705 120.194 161.78 122.773 161.78 122.773C160.721 124.545 159.599 126.137 157.644 127.032C157.596 126.361 157.564 125.854 157.521 125.348C157.444 124.417 157.392 123.482 157.27 122.558C157.174 121.841 156.873 121.244 156.085 121.379C155.242 121.523 155.187 122.177 155.228 122.986C155.29 124.181 155.401 125.419 155.2 126.576C154.2 132.317 147.275 134.897 143.266 131.061C141.704 129.567 141.554 127.584 141.905 125.517C142.083 124.469 142.449 123.46 142.729 122.433C142.951 121.62 143.228 120.82 143.383 119.991C143.959 116.919 142.72 114.939 139.931 114.404C138.227 114.077 138.232 114.077 138.224 112.113C138.214 109.919 138.173 107.725 138.198 105.532C138.202 105.143 138.39 104.501 138.615 104.427C138.821 104.38 139.036 104.381 139.242 104.432C139.448 104.483 139.639 104.581 139.8 104.718C141.016 105.818 141.763 107.336 141.891 108.963C141.954 109.718 141.93 110.483 141.926 111.243C141.922 112.042 141.929 112.825 142.891 112.919C143.823 113.01 144.059 112.301 144.143 111.488C144.411 108.908 144.015 106.491 142.652 104.33C142.424 103.968 142.182 103.616 141.89 103.175C142.729 102.496 143.52 101.95 144.205 101.273C144.683 100.835 145.036 100.279 145.228 99.6626C145.342 99.1909 145.15 98.3419 144.83 98.1088C144.54 97.8969 143.66 98.1072 143.443 98.4482C142.663 99.6987 141.415 100.593 139.973 100.935C139.289 101.117 138.506 101.53 138.26 100.267C137.982 98.8416 138.315 98.3671 139.44 98.0092C140.377 97.7112 141.388 97.3173 142.104 96.6289C143.295 95.4836 143.408 93.8319 143.147 92.1589C142.956 90.9278 142.635 89.6929 142.634 88.4593C142.632 84.9296 145.122 83.3157 147.914 84.9437C148.754 85.3996 149.475 86.0435 150.021 86.8243C150.566 87.605 150.919 88.5011 151.054 89.4412C151.261 90.7541 151.865 91.1079 153.013 90.914C155.014 90.5749 157.035 91.8884 157.718 93.8369C158.173 95.1343 157.858 95.377 156.515 95.5593C155.353 95.7242 154.216 96.0352 153.133 96.4849C151.314 97.2263 150.439 96.8048 150.124 94.715C150.005 93.9274 149.81 93.2892 148.965 93.3344C148.141 93.3786 147.928 94.0311 147.87 94.816C147.756 96.3839 148.208 97.6716 149.474 98.4412C150.378 98.9908 150.486 99.6515 150.327 100.755C150.18 102.068 150.219 103.395 150.442 104.697C150.494 105.064 151.237 105.527 151.684 105.557C152.423 105.606 152.513 104.883 152.455 104.201C152.436 103.979 152.41 103.757 152.384 103.535C151.888 99.3732 155.163 96.5759 158.648 98.2614C158.646 98.257 163.985 99.8068 163.307 108.598V108.599ZM162.094 97.6333C161.787 97.3827 161.532 97.0762 161.341 96.7302C160.624 95.5514 160.037 94.2992 159.59 92.9954C158.809 90.6029 157.411 89.1213 155.2 88.7396C153.739 88.4876 152.875 87.756 152.219 86.2597C150.97 83.4133 148.739 81.899 145.926 81.7891C144.04 81.6738 142.146 81.8461 140.313 82.2999C137.228 83.1475 135.889 85.3735 135.889 88.8919C135.888 102.105 135.889 115.318 135.891 128.531C135.891 129.112 135.905 129.696 135.957 130.274C136.332 134.479 139.663 136.801 143.335 135.551C144.322 135.232 145.37 135.142 146.398 135.287C150.064 135.792 153.136 134.649 155.701 131.671C156.38 130.882 157.261 130.304 158.068 129.658L161.273 127.189C161.273 127.189 166.033 122.87 164.619 112.478C164.619 112.476 168.338 102.369 162.094 97.6325V97.6333Z" fill="url(#paint16_linear_155_565)"/>
<path d="M157.485 115.09C156.102 115.351 154.614 115.157 153.216 114.864C151.157 114.434 149.762 114.925 148.79 116.801C147.122 120.019 148.253 123.386 151.308 124.297C151.981 124.498 152.57 124.791 152.428 125.836C152.298 126.796 151.755 127.06 151.023 127.05C148.956 127.02 146.965 125.414 146.32 122.963C145.496 119.833 145.605 116.748 147.511 114.18C149.347 111.706 151.716 111.605 154.201 112.448C154.356 112.501 154.513 112.547 154.668 112.599C156.599 113.252 157.987 112.596 158.595 110.743C159.371 108.374 158.84 106.449 157.081 105.259C156.765 105.046 156.235 104.956 156.168 104.596C155.733 102.235 157.959 102.806 157.959 102.806C162.704 105.376 161.002 111.458 161.002 111.458C159.994 114.846 157.485 115.09 157.485 115.09Z" fill="url(#paint17_linear_155_565)"/>
<path d="M138.128 88.9344C138.165 86.9151 139.231 85.6332 141.412 85.0688C141.199 88.0511 140.998 90.8967 140.792 93.7417C140.761 94.1624 140.854 94.7116 140.638 94.9733C140.261 95.4853 139.733 95.8818 139.12 96.1139C138.915 96.172 138.211 95.3111 138.183 94.8401C138.068 92.8781 138.091 90.9033 138.128 88.9344Z" fill="#082133"/>
<path d="M138.11 119.977C138.116 118.48 139.046 117.776 140.139 118.497C140.876 118.983 141.144 119.749 140.956 120.696C140.665 122.164 140.38 123.641 139.984 125.072C139.01 128.591 138.911 131.908 141.412 134.767C139.285 134.944 138.131 133.756 138.115 131.441C138.09 127.619 138.096 123.798 138.11 119.977Z" fill="#082133"/>
<defs>
<linearGradient id="paint0_linear_155_565" x1="121.525" y1="101.087" x2="185.601" y2="101.087" gradientUnits="userSpaceOnUse">
<stop stop-color="#A56C0B"/>
<stop offset="0.172" stop-color="#E0C35C"/>
<stop offset="0.253" stop-color="#F8E67D"/>
<stop offset="0.459" stop-color="#D7B750"/>
<stop offset="0.566" stop-color="#C9A33D"/>
<stop offset="0.661" stop-color="#CEAB44"/>
<stop offset="0.807" stop-color="#DDC059"/>
<stop offset="0.985" stop-color="#F6E37A"/>
<stop offset="1" stop-color="#F8E67D"/>
</linearGradient>
<linearGradient id="paint1_linear_155_565" x1="128.156" y1="66.2873" x2="135.889" y2="66.2873" gradientUnits="userSpaceOnUse">
<stop stop-color="#A56C0B"/>
<stop offset="0.172" stop-color="#E0C35C"/>
<stop offset="0.253" stop-color="#F8E67D"/>
<stop offset="0.459" stop-color="#D7B750"/>
<stop offset="0.566" stop-color="#C9A33D"/>
<stop offset="0.661" stop-color="#CEAB44"/>
<stop offset="0.807" stop-color="#DDC059"/>
<stop offset="0.985" stop-color="#F6E37A"/>
<stop offset="1" stop-color="#F8E67D"/>
</linearGradient>
<linearGradient id="paint2_linear_155_565" x1="125.945" y1="67.3936" x2="129.26" y2="67.3936" gradientUnits="userSpaceOnUse">
<stop stop-color="#A56C0B"/>
<stop offset="0.172" stop-color="#E0C35C"/>
<stop offset="0.253" stop-color="#F8E67D"/>
<stop offset="0.459" stop-color="#D7B750"/>
<stop offset="0.566" stop-color="#C9A33D"/>
<stop offset="0.661" stop-color="#CEAB44"/>
<stop offset="0.807" stop-color="#DDC059"/>
<stop offset="0.985" stop-color="#F6E37A"/>
<stop offset="1" stop-color="#F8E67D"/>
</linearGradient>
<linearGradient id="paint3_linear_155_565" x1="111.583" y1="50.2665" x2="119.309" y2="50.2665" gradientUnits="userSpaceOnUse">
<stop stop-color="#A56C0B"/>
<stop offset="0.172" stop-color="#E0C35C"/>
<stop offset="0.253" stop-color="#F8E67D"/>
<stop offset="0.459" stop-color="#D7B750"/>
<stop offset="0.566" stop-color="#C9A33D"/>
<stop offset="0.661" stop-color="#CEAB44"/>
<stop offset="0.807" stop-color="#DDC059"/>
<stop offset="0.985" stop-color="#F6E37A"/>
<stop offset="1" stop-color="#F8E67D"/>
</linearGradient>
<linearGradient id="paint4_linear_155_565" x1="159.089" y1="150.803" x2="167.927" y2="150.803" gradientUnits="userSpaceOnUse">
<stop stop-color="#A56C0B"/>
<stop offset="0.172" stop-color="#E0C35C"/>
<stop offset="0.253" stop-color="#F8E67D"/>
<stop offset="0.459" stop-color="#D7B750"/>
<stop offset="0.566" stop-color="#C9A33D"/>
<stop offset="0.661" stop-color="#CEAB44"/>
<stop offset="0.807" stop-color="#DDC059"/>
<stop offset="0.985" stop-color="#F6E37A"/>
<stop offset="1" stop-color="#F8E67D"/>
</linearGradient>
<linearGradient id="paint5_linear_155_565" x1="121.526" y1="37.0106" x2="142.517" y2="37.0106" gradientUnits="userSpaceOnUse">
<stop stop-color="#A56C0B"/>
<stop offset="0.172" stop-color="#E0C35C"/>
<stop offset="0.253" stop-color="#F8E67D"/>
<stop offset="0.459" stop-color="#D7B750"/>
<stop offset="0.566" stop-color="#C9A33D"/>
<stop offset="0.661" stop-color="#CEAB44"/>
<stop offset="0.807" stop-color="#DDC059"/>
<stop offset="0.985" stop-color="#F6E37A"/>
<stop offset="1" stop-color="#F8E67D"/>
</linearGradient>
<linearGradient id="paint6_linear_155_565" x1="31.7345" y1="103.208" x2="97.6917" y2="111.767" gradientUnits="userSpaceOnUse">
<stop stop-color="#A56C0B"/>
<stop offset="0.172" stop-color="#E0C35C"/>
<stop offset="0.253" stop-color="#F8E67D"/>
<stop offset="0.459" stop-color="#D7B750"/>
<stop offset="0.566" stop-color="#C9A33D"/>
<stop offset="0.661" stop-color="#CEAB44"/>
<stop offset="0.807" stop-color="#DDC059"/>
<stop offset="0.985" stop-color="#F6E37A"/>
<stop offset="1" stop-color="#F8E67D"/>
</linearGradient>
<linearGradient id="paint7_linear_155_565" x1="91.695" y1="44.7443" x2="112.688" y2="44.7443" gradientUnits="userSpaceOnUse">
<stop stop-color="#A56C0B"/>
<stop offset="0.172" stop-color="#E0C35C"/>
<stop offset="0.253" stop-color="#F8E67D"/>
<stop offset="0.459" stop-color="#D7B750"/>
<stop offset="0.566" stop-color="#C9A33D"/>
<stop offset="0.661" stop-color="#CEAB44"/>
<stop offset="0.807" stop-color="#DDC059"/>
<stop offset="0.985" stop-color="#F6E37A"/>
<stop offset="1" stop-color="#F8E67D"/>
</linearGradient>
<linearGradient id="paint8_linear_155_565" x1="40.877" y1="97.7736" x2="93.9063" y2="97.7736" gradientUnits="userSpaceOnUse">
<stop stop-color="#A56C0B"/>
<stop offset="0.172" stop-color="#E0C35C"/>
<stop offset="0.253" stop-color="#F8E67D"/>
<stop offset="0.459" stop-color="#D7B750"/>
<stop offset="0.566" stop-color="#C9A33D"/>
<stop offset="0.661" stop-color="#CEAB44"/>
<stop offset="0.807" stop-color="#DDC059"/>
<stop offset="0.985" stop-color="#F6E37A"/>
<stop offset="1" stop-color="#F8E67D"/>
</linearGradient>
<linearGradient id="paint9_linear_155_565" x1="40.877" y1="118.764" x2="93.9066" y2="118.764" gradientUnits="userSpaceOnUse">
<stop stop-color="#A56C0B"/>
<stop offset="0.172" stop-color="#E0C35C"/>
<stop offset="0.253" stop-color="#F8E67D"/>
<stop offset="0.459" stop-color="#D7B750"/>
<stop offset="0.566" stop-color="#C9A33D"/>
<stop offset="0.661" stop-color="#CEAB44"/>
<stop offset="0.807" stop-color="#DDC059"/>
<stop offset="0.985" stop-color="#F6E37A"/>
<stop offset="1" stop-color="#F8E67D"/>
</linearGradient>
<linearGradient id="paint10_linear_155_565" x1="80.6494" y1="92.8019" x2="86.1733" y2="92.8019" gradientUnits="userSpaceOnUse">
<stop stop-color="#A56C0B"/>
<stop offset="0.172" stop-color="#E0C35C"/>
<stop offset="0.253" stop-color="#F8E67D"/>
<stop offset="0.459" stop-color="#D7B750"/>
<stop offset="0.566" stop-color="#C9A33D"/>
<stop offset="0.661" stop-color="#CEAB44"/>
<stop offset="0.807" stop-color="#DDC059"/>
<stop offset="0.985" stop-color="#F6E37A"/>
<stop offset="1" stop-color="#F8E67D"/>
</linearGradient>
<linearGradient id="paint11_linear_155_565" x1="49.7148" y1="92.8019" x2="55.2388" y2="92.8019" gradientUnits="userSpaceOnUse">
<stop stop-color="#A56C0B"/>
<stop offset="0.172" stop-color="#E0C35C"/>
<stop offset="0.253" stop-color="#F8E67D"/>
<stop offset="0.459" stop-color="#D7B750"/>
<stop offset="0.566" stop-color="#C9A33D"/>
<stop offset="0.661" stop-color="#CEAB44"/>
<stop offset="0.807" stop-color="#DDC059"/>
<stop offset="0.985" stop-color="#F6E37A"/>
<stop offset="1" stop-color="#F8E67D"/>
</linearGradient>
<linearGradient id="paint12_linear_155_565" x1="104.954" y1="108.828" x2="134.783" y2="108.828" gradientUnits="userSpaceOnUse">
<stop stop-color="#A56C0B"/>
<stop offset="0.172" stop-color="#E0C35C"/>
<stop offset="0.253" stop-color="#F8E67D"/>
<stop offset="0.459" stop-color="#D7B750"/>
<stop offset="0.566" stop-color="#C9A33D"/>
<stop offset="0.661" stop-color="#CEAB44"/>
<stop offset="0.807" stop-color="#DDC059"/>
<stop offset="0.985" stop-color="#F6E37A"/>
<stop offset="1" stop-color="#F8E67D"/>
</linearGradient>
<linearGradient id="paint13_linear_155_565" x1="109.375" y1="114.898" x2="125.946" y2="114.898" gradientUnits="userSpaceOnUse">
<stop stop-color="#A56C0B"/>
<stop offset="0.172" stop-color="#E0C35C"/>
<stop offset="0.253" stop-color="#F8E67D"/>
<stop offset="0.459" stop-color="#D7B750"/>
<stop offset="0.566" stop-color="#C9A33D"/>
<stop offset="0.661" stop-color="#CEAB44"/>
<stop offset="0.807" stop-color="#DDC059"/>
<stop offset="0.985" stop-color="#F6E37A"/>
<stop offset="1" stop-color="#F8E67D"/>
</linearGradient>
<linearGradient id="paint14_linear_155_565" x1="141.412" y1="90.0406" x2="138.098" y2="90.0406" gradientUnits="userSpaceOnUse">
<stop stop-color="#A56C0B"/>
<stop offset="0.172" stop-color="#E0C35C"/>
<stop offset="0.253" stop-color="#F8E67D"/>
<stop offset="0.459" stop-color="#D7B750"/>
<stop offset="0.566" stop-color="#C9A33D"/>
<stop offset="0.661" stop-color="#CEAB44"/>
<stop offset="0.807" stop-color="#DDC059"/>
<stop offset="0.985" stop-color="#F6E37A"/>
<stop offset="1" stop-color="#F8E67D"/>
</linearGradient>
<linearGradient id="paint15_linear_155_565" x1="141.412" y1="124.841" x2="138.098" y2="124.841" gradientUnits="userSpaceOnUse">
<stop stop-color="#A56C0B"/>
<stop offset="0.172" stop-color="#E0C35C"/>
<stop offset="0.253" stop-color="#F8E67D"/>
<stop offset="0.459" stop-color="#D7B750"/>
<stop offset="0.566" stop-color="#C9A33D"/>
<stop offset="0.661" stop-color="#CEAB44"/>
<stop offset="0.807" stop-color="#DDC059"/>
<stop offset="0.985" stop-color="#F6E37A"/>
<stop offset="1" stop-color="#F8E67D"/>
</linearGradient>
<linearGradient id="paint16_linear_155_565" x1="165.718" y1="108.827" x2="135.888" y2="108.827" gradientUnits="userSpaceOnUse">
<stop stop-color="#A56C0B"/>
<stop offset="0.172" stop-color="#E0C35C"/>
<stop offset="0.253" stop-color="#F8E67D"/>
<stop offset="0.459" stop-color="#D7B750"/>
<stop offset="0.566" stop-color="#C9A33D"/>
<stop offset="0.661" stop-color="#CEAB44"/>
<stop offset="0.807" stop-color="#DDC059"/>
<stop offset="0.985" stop-color="#F6E37A"/>
<stop offset="1" stop-color="#F8E67D"/>
</linearGradient>
<linearGradient id="paint17_linear_155_565" x1="161.298" y1="114.898" x2="145.832" y2="114.898" gradientUnits="userSpaceOnUse">
<stop stop-color="#A56C0B"/>
<stop offset="0.172" stop-color="#E0C35C"/>
<stop offset="0.253" stop-color="#F8E67D"/>
<stop offset="0.459" stop-color="#D7B750"/>
<stop offset="0.566" stop-color="#C9A33D"/>
<stop offset="0.661" stop-color="#CEAB44"/>
<stop offset="0.807" stop-color="#DDC059"/>
<stop offset="0.985" stop-color="#F6E37A"/>
<stop offset="1" stop-color="#F8E67D"/>
</linearGradient>
</defs>
</svg>
