<svg width="83" height="75" viewBox="0 0 83 75" fill="none" xmlns="http://www.w3.org/2000/svg">
<g clip-path="url(#clip0_1779_7001)">
<path d="M35.1162 43.6649V40.8328H35.5447V43.6649H35.1162ZM35.3207 41.2441V40.8328H36.355V41.2438L35.3207 41.2441ZM35.3207 42.4634V42.0544H36.2576V42.4634H35.3207ZM35.3207 43.6652V43.2542H36.355V43.6652H35.3207Z" fill="#082133"/>
<path d="M37.0954 43.6941C37.0287 43.6986 36.9618 43.6879 36.8997 43.663C36.8376 43.638 36.782 43.5993 36.737 43.5499C36.6465 43.4262 36.6029 43.2743 36.614 43.1214C36.614 42.8993 36.6689 42.7318 36.7786 42.619C36.8884 42.5061 37.0491 42.4496 37.2607 42.4494H37.4672L37.4944 42.8059H37.2744C37.2386 42.8034 37.2026 42.8093 37.1695 42.8232C37.1363 42.837 37.1069 42.8585 37.0835 42.8857C37.0359 42.9547 37.0133 43.0378 37.0192 43.1214C37.0153 43.1768 37.0323 43.2317 37.0669 43.2751C37.0859 43.2938 37.1087 43.3081 37.1338 43.3171C37.1588 43.3262 37.1855 43.3298 37.212 43.3277C37.2451 43.33 37.2784 43.3253 37.3096 43.3139C37.3408 43.3025 37.3693 43.2846 37.3931 43.2615C37.4383 43.207 37.4606 43.1372 37.4555 43.0667L37.4925 43.2439C37.4939 43.3291 37.4776 43.4137 37.4448 43.4922C37.4175 43.5555 37.3708 43.6084 37.3114 43.6432C37.2451 43.6789 37.1706 43.6965 37.0954 43.6941ZM37.4558 43.6649V42.2001C37.4576 42.1717 37.4537 42.1431 37.4443 42.1162C37.4349 42.0893 37.4203 42.0645 37.4012 42.0433C37.3807 42.024 37.3565 42.0092 37.3301 41.9996C37.3037 41.9901 37.2756 41.986 37.2475 41.9877C37.2225 41.9864 37.1975 41.9906 37.1744 42.0003C37.1514 42.0099 37.1307 42.0246 37.1141 42.0433C37.0797 42.0881 37.0628 42.1438 37.0664 42.2001H36.6554C36.651 42.1203 36.6628 42.0404 36.6901 41.9653C36.7173 41.8901 36.7595 41.8213 36.8141 41.7628C36.8736 41.7088 36.9432 41.6673 37.019 41.6407C37.0948 41.6141 37.1751 41.6029 37.2553 41.6079C37.4197 41.5976 37.5815 41.6529 37.7052 41.7616C37.7607 41.8196 37.8035 41.8885 37.831 41.9639C37.8585 42.0393 37.87 42.1196 37.8649 42.1997V43.6644L37.4558 43.6649Z" fill="#082133"/>
<path d="M38.7937 43.6941C38.711 43.698 38.6284 43.6853 38.5508 43.6567C38.4732 43.6281 38.4021 43.5842 38.3418 43.5275C38.2844 43.4689 38.2396 43.3992 38.2101 43.3227C38.1807 43.2462 38.1671 43.1644 38.1704 43.0825V43.0594L38.5777 43.0555V43.0785C38.5744 43.1408 38.5954 43.2018 38.6361 43.2489C38.6563 43.2702 38.6809 43.2869 38.7081 43.2978C38.7353 43.3087 38.7646 43.3137 38.7939 43.3123C38.8227 43.3138 38.8515 43.3093 38.8785 43.2991C38.9055 43.2889 38.9301 43.2732 38.9507 43.2529C38.9703 43.2316 38.9855 43.2066 38.9954 43.1793C39.0052 43.1521 39.0096 43.1231 39.0082 43.0942C39.0111 43.0439 38.9939 42.9945 38.9604 42.9568C38.9248 42.9211 38.8825 42.893 38.8358 42.874C38.7845 42.852 38.7284 42.8293 38.6673 42.8059C38.6128 42.7838 38.5579 42.7585 38.5027 42.7299C38.4469 42.7009 38.3957 42.6638 38.3508 42.6198C38.3028 42.5723 38.2647 42.5157 38.2388 42.4533C38.2079 42.3746 38.1933 42.2905 38.1959 42.206C38.192 42.1265 38.204 42.047 38.2313 41.9723C38.2585 41.8975 38.3005 41.829 38.3547 41.7707C38.4099 41.7158 38.4759 41.6731 38.5485 41.645C38.621 41.617 38.6986 41.6044 38.7764 41.6079C38.8542 41.6017 38.9324 41.6124 39.0057 41.6392C39.079 41.666 39.1457 41.7083 39.2011 41.7633C39.2566 41.8182 39.2995 41.8844 39.327 41.9575C39.3545 42.0305 39.3659 42.1087 39.3604 42.1865V42.2096L38.9531 42.2136V42.1843C38.9555 42.1332 38.9391 42.083 38.907 42.043C38.8909 42.0249 38.8708 42.0106 38.8484 42.0013C38.826 41.992 38.8017 41.9879 38.7775 41.9893C38.7535 41.9885 38.7297 41.9933 38.7079 42.0033C38.6861 42.0132 38.6669 42.0281 38.6519 42.0467C38.6181 42.091 38.6011 42.1459 38.6042 42.2015C38.6015 42.2508 38.6171 42.2993 38.648 42.3379C38.6795 42.3734 38.7184 42.4016 38.7619 42.4207C38.8115 42.4432 38.8622 42.463 38.9139 42.48C38.9723 42.4995 39.0307 42.522 39.0892 42.5474C39.1482 42.573 39.203 42.6074 39.2518 42.6495C39.3045 42.6962 39.3455 42.7546 39.3716 42.8199C39.4042 42.9067 39.4194 42.999 39.4164 43.0917C39.4204 43.1727 39.4074 43.2536 39.3782 43.3293C39.349 43.4049 39.3043 43.4736 39.2469 43.5309C39.1858 43.5866 39.1144 43.6297 39.0366 43.6577C38.9588 43.6857 38.8762 43.698 38.7937 43.6941Z" fill="#082133"/>
<path d="M40.1282 43.8578L39.5127 41.6431H39.9277L40.3387 43.3941L40.1282 43.8578ZM40.5022 41.6431H40.9172L40.3408 44.1382C40.3298 44.1946 40.3077 44.2481 40.2758 44.2958C40.2438 44.3435 40.2027 44.3843 40.1547 44.4158C40.036 44.4832 39.9005 44.5152 39.7642 44.508H39.6609V44.093H39.77C39.8329 44.0968 39.8953 44.0805 39.9483 44.0463C39.9963 44.0049 40.0278 43.9476 40.0369 43.8849L40.5022 41.6431Z" fill="#082133"/>
<path d="M41.9297 43.6648V40.8326H42.3582V43.6648H41.9297ZM42.1848 43.6648V43.2635H42.6306C42.6917 43.2677 42.752 43.2473 42.7981 43.2071C42.818 43.1869 42.8335 43.1628 42.8435 43.1364C42.8536 43.1099 42.858 43.0816 42.8565 43.0533V42.6793C42.8613 42.6043 42.8384 42.5302 42.7923 42.471C42.7705 42.4463 42.7434 42.4268 42.713 42.414C42.6827 42.4012 42.6499 42.3954 42.617 42.397H42.1845V41.9973H42.6111C42.6407 41.9989 42.6702 41.9937 42.6974 41.9821C42.7246 41.9704 42.7487 41.9526 42.7679 41.9301C42.8083 41.8745 42.828 41.8065 42.8234 41.738V41.4419C42.825 41.4141 42.821 41.3862 42.8116 41.36C42.8023 41.3337 42.7877 41.3096 42.7689 41.2891C42.7485 41.2698 42.7243 41.2549 42.6978 41.2454C42.6714 41.2358 42.6433 41.2318 42.6152 41.2335H42.1848V40.8326H42.6348C42.7998 40.8219 42.9626 40.8758 43.0887 40.9827C43.1438 41.0382 43.1865 41.1047 43.214 41.1779C43.2415 41.2511 43.2532 41.3292 43.2484 41.4073V41.7091C43.2534 41.826 43.2176 41.941 43.1471 42.0344C43.0749 42.1216 42.9728 42.1786 42.8607 42.1942C42.9818 42.2077 43.0936 42.2656 43.1743 42.3568C43.2517 42.4542 43.2911 42.5764 43.2854 42.7007V43.0805C43.2901 43.1591 43.2786 43.2379 43.2516 43.3119C43.2246 43.386 43.1828 43.4537 43.1286 43.5108C43.0683 43.5647 42.9979 43.6061 42.9215 43.6325C42.8451 43.6589 42.7642 43.6698 42.6835 43.6646L42.1848 43.6648Z" fill="#082133"/>
<path d="M44.1771 43.6941C44.0169 43.704 43.8591 43.6505 43.7379 43.5451C43.6839 43.49 43.642 43.4242 43.615 43.3519C43.588 43.2796 43.5765 43.2024 43.5812 43.1254V42.167C43.5763 42.0908 43.5878 42.0145 43.6148 41.9431C43.6419 41.8717 43.6838 41.807 43.7379 41.7531C43.8603 41.6501 44.0175 41.5981 44.1771 41.6079C44.3362 41.5978 44.493 41.6499 44.6144 41.7531C44.668 41.8073 44.7095 41.8721 44.7362 41.9435C44.7629 42.0148 44.7742 42.091 44.7693 42.167V43.1311C44.774 43.2074 44.7627 43.2839 44.736 43.3555C44.7094 43.4271 44.6679 43.4924 44.6144 43.547C44.4936 43.6514 44.3365 43.7042 44.1771 43.6941ZM44.1771 43.2967C44.2002 43.2981 44.2233 43.2942 44.2448 43.2855C44.2662 43.2767 44.2853 43.2632 44.3008 43.246C44.3324 43.2049 44.3481 43.1537 44.3447 43.1019V42.1943C44.3478 42.1441 44.3321 42.0945 44.3008 42.0551C44.2851 42.0382 44.2659 42.0249 44.2445 42.0163C44.2232 42.0077 44.2002 42.004 44.1771 42.0053C44.1539 42.0041 44.1306 42.0079 44.1089 42.0165C44.0872 42.0251 44.0676 42.0382 44.0515 42.0551C44.0189 42.0939 44.0023 42.1437 44.0054 42.1943V43.1019C44.0021 43.1541 44.0185 43.2055 44.0515 43.246C44.0675 43.2631 44.087 43.2765 44.1087 43.2853C44.1304 43.2941 44.1538 43.298 44.1771 43.2967Z" fill="#082133"/>
<path d="M45.6889 43.6941C45.5286 43.704 45.3708 43.6505 45.2496 43.5451C45.1956 43.49 45.1537 43.4241 45.1267 43.3518C45.0997 43.2795 45.0882 43.2024 45.0929 43.1254V42.167C45.088 42.0909 45.0995 42.0145 45.1265 41.9431C45.1536 41.8718 45.1955 41.807 45.2496 41.7531C45.3719 41.6501 45.5292 41.5981 45.6889 41.6079C45.8479 41.5978 46.0047 41.6499 46.1262 41.7531C46.1797 41.8073 46.2212 41.8721 46.2479 41.9435C46.2746 42.0148 46.2859 42.091 46.281 42.167V43.1311C46.2858 43.2074 46.2744 43.2839 46.2478 43.3555C46.2211 43.4271 46.1797 43.4924 46.1262 43.547C46.0053 43.6514 45.8483 43.7042 45.6889 43.6941ZM45.6889 43.2967C45.712 43.2981 45.7351 43.2942 45.7565 43.2855C45.7779 43.2767 45.797 43.2632 45.8125 43.246C45.8442 43.2049 45.8598 43.1537 45.8564 43.1019V42.1943C45.8595 42.1441 45.8439 42.0945 45.8125 42.0551C45.7969 42.0382 45.7776 42.0249 45.7563 42.0163C45.7349 42.0077 45.7119 42.004 45.6889 42.0053C45.6656 42.0041 45.6423 42.0079 45.6206 42.0165C45.5989 42.0251 45.5794 42.0382 45.5632 42.0551C45.5306 42.0939 45.5141 42.1437 45.5171 42.1943V43.1019C45.5138 43.1541 45.5303 43.2055 45.5632 43.246C45.5792 43.2631 45.5987 43.2765 45.6204 43.2853C45.6421 43.2941 45.6655 43.298 45.6889 43.2967Z" fill="#082133"/>
<path d="M46.6455 43.6649V40.8328H47.0701V43.6649H46.6455ZM46.9103 43.4195L46.8909 42.8547L47.5979 41.6431H48.036L46.9103 43.4195ZM47.6583 43.6649L47.2178 42.6286L47.4791 42.3289L48.1161 43.6651L47.6583 43.6649Z" fill="#082133"/>
<path d="M48.2285 41.2711V40.8467H48.6531V41.2712L48.2285 41.2711ZM48.2285 43.665V41.6432H48.6531V43.665H48.2285Z" fill="#082133"/>
<path d="M49.0391 43.6649V41.6431H49.4694V43.6649H49.0391ZM49.8691 43.6649V42.2509C49.8739 42.1839 49.8565 42.1171 49.8194 42.0611C49.801 42.0393 49.7778 42.0223 49.7516 42.0113C49.7253 42.0002 49.6969 41.9956 49.6685 41.9977C49.6401 41.9956 49.6115 42.0004 49.5854 42.0117C49.5592 42.0231 49.5363 42.0407 49.5185 42.063C49.4822 42.1202 49.4651 42.1875 49.4697 42.2551L49.4289 41.9902C49.4606 41.8786 49.5243 41.7788 49.612 41.7029C49.6865 41.6414 49.7801 41.6079 49.8767 41.608C49.9359 41.6047 49.9949 41.6154 50.0491 41.6393C50.1032 41.6632 50.151 41.6995 50.1884 41.7454C50.268 41.8602 50.3065 41.9985 50.2974 42.1379V43.6649H49.8691Z" fill="#082133"/>
<path d="M51.0861 43.7C51.0256 43.7026 50.9654 43.6902 50.9108 43.6638C50.8563 43.6375 50.8091 43.598 50.7735 43.549C50.6914 43.4221 50.6522 43.2723 50.6615 43.1215V42.1944C50.6524 42.042 50.6916 41.8907 50.7735 41.7619C50.8086 41.7123 50.8557 41.6722 50.9103 41.6453C50.9649 41.6185 51.0253 41.6057 51.0861 41.6082C51.1777 41.609 51.2659 41.6429 51.3344 41.7037C51.4165 41.776 51.4791 41.8678 51.5166 41.9706L51.4757 42.2355C51.4771 42.1905 51.4692 42.1458 51.4526 42.104C51.4391 42.0708 51.416 42.0424 51.3864 42.0222C51.3549 42.0026 51.3183 41.9927 51.2812 41.9939C51.2537 41.9925 51.2261 41.9975 51.2008 42.0085C51.1755 42.0195 51.153 42.0362 51.1352 42.0573C51.0971 42.1093 51.0784 42.173 51.0826 42.2374V43.0847C51.0787 43.1455 51.0974 43.2055 51.1352 43.2532C51.1537 43.2733 51.1763 43.289 51.2016 43.2992C51.2268 43.3095 51.254 43.314 51.2812 43.3126C51.3182 43.3138 51.3547 43.3043 51.3864 43.2854C51.4161 43.2658 51.4392 43.2376 51.4526 43.2046C51.469 43.164 51.4768 43.1206 51.4757 43.0769L51.503 43.3476C51.4746 43.4475 51.4187 43.5373 51.3416 43.6067C51.2708 43.6683 51.1799 43.7015 51.0861 43.7ZM51.275 44.4869C51.1126 44.4969 50.9528 44.4427 50.83 44.336C50.7752 44.2801 50.7328 44.2133 50.7055 44.14C50.6781 44.0667 50.6665 43.9885 50.6713 43.9104V43.8362L51.0959 43.8342V43.9063C51.0932 43.9323 51.0964 43.9585 51.1052 43.9831C51.1139 44.0077 51.1281 44.03 51.1465 44.0485C51.165 44.0669 51.1873 44.0811 51.2119 44.0898C51.2365 44.0986 51.2627 44.1018 51.2887 44.0991C51.3138 44.1006 51.3388 44.0969 51.3624 44.0884C51.3861 44.0799 51.4077 44.0666 51.426 44.0495C51.4433 44.0308 51.4566 44.0089 51.4651 43.9849C51.4736 43.961 51.4772 43.9356 51.4757 43.9102V41.6431H51.9023V43.9102C51.907 43.9888 51.8947 44.0675 51.8663 44.141C51.8379 44.2144 51.794 44.2809 51.7377 44.3358C51.6084 44.4432 51.443 44.4973 51.2752 44.4869H51.275Z" fill="#082133"/>
<path d="M53.0908 43.6649V40.8327H53.5197V43.6649H53.0908ZM53.307 42.5664V42.1591H53.8251C53.8555 42.1606 53.8859 42.1551 53.9138 42.1429C53.9417 42.1307 53.9663 42.1122 53.9858 42.0888C54.0269 42.0333 54.0472 41.9651 54.0432 41.8961V41.5123C54.0478 41.4407 54.0279 41.3697 53.9868 41.3108C53.9674 41.287 53.9427 41.2682 53.9147 41.2559C53.8866 41.2435 53.856 41.238 53.8254 41.2397H53.3073V40.8324H53.8294C53.9506 40.8288 54.0708 40.8545 54.18 40.9074C54.2745 40.9558 54.3517 41.0324 54.4011 41.1265C54.4551 41.2346 54.4815 41.3544 54.4779 41.4752V41.9368C54.4813 42.0549 54.4545 42.1719 54.4 42.2767C54.3494 42.3695 54.2716 42.4446 54.1771 42.4919C54.0687 42.5438 53.9496 42.5692 53.8294 42.5659L53.307 42.5664Z" fill="#082133"/>
<path d="M55.2665 43.694C55.1818 43.6991 55.0969 43.6868 55.0172 43.6578C54.9374 43.6288 54.8645 43.5838 54.8028 43.5255C54.7448 43.4608 54.7003 43.3852 54.6719 43.3031C54.6434 43.221 54.6317 43.1341 54.6373 43.0473V42.2913C54.6254 42.1085 54.6831 41.928 54.7987 41.7859C54.8566 41.7252 54.927 41.6779 55.005 41.6471C55.083 41.6163 55.1668 41.6028 55.2505 41.6076C55.3345 41.6024 55.4185 41.6148 55.4974 41.6439C55.5762 41.6731 55.6481 41.7185 55.7084 41.7771C55.8232 41.9101 55.8811 42.0828 55.8697 42.2582V42.8115H54.9621V42.4803H55.4588V42.2529C55.463 42.1839 55.4438 42.1156 55.4042 42.059C55.386 42.0361 55.3625 42.0179 55.3358 42.0059C55.309 41.9938 55.2798 41.9884 55.2505 41.9899C55.2216 41.9887 55.1928 41.9948 55.1668 42.0075C55.1408 42.0203 55.1184 42.0393 55.1016 42.0629C55.0622 42.1246 55.0433 42.1973 55.0478 42.2704V43.0612C55.0435 43.1262 55.0637 43.1904 55.1043 43.2413C55.1461 43.2796 55.2 43.3019 55.2566 43.3044C55.3132 43.3069 55.3689 43.2894 55.4139 43.255C55.432 43.2368 55.4461 43.215 55.4551 43.191C55.4642 43.167 55.4681 43.1414 55.4666 43.1157V43.0749L55.8756 43.0767V43.1118C55.8803 43.1906 55.8686 43.2695 55.8411 43.3435C55.8136 43.4174 55.7709 43.4848 55.7159 43.5414C55.592 43.6494 55.4305 43.7042 55.2665 43.694Z" fill="#082133"/>
<path d="M56.2402 43.6649V41.6431H56.6688V43.6649H56.2402ZM57.1888 42.0463C57.1752 42.0477 57.1616 42.0483 57.1479 42.0482H57.0914C57.0353 42.0448 56.9791 42.0526 56.9259 42.071C56.8728 42.0894 56.8238 42.1181 56.7817 42.1554C56.7439 42.1938 56.7144 42.2395 56.6949 42.2897C56.6755 42.3399 56.6666 42.3936 56.6688 42.4474L56.6279 41.9956C56.6824 41.8826 56.764 41.7849 56.8655 41.7112C56.9596 41.6434 57.0728 41.6073 57.1888 41.6079V42.0463Z" fill="#082133"/>
<path d="M57.3311 42.0229V41.6431H58.2871V42.0229H57.3311ZM57.522 43.6649V41.3685C57.5113 41.2239 57.5563 41.0807 57.6476 40.9682C57.7313 40.878 57.8615 40.8328 58.0382 40.8328H58.2875V41.2341H58.083C58.0634 41.2328 58.0438 41.2365 58.0261 41.2448C58.0084 41.2532 57.9931 41.2659 57.9816 41.2818C57.959 41.3154 57.9475 41.3553 57.9486 41.3958V43.6649H57.522Z" fill="#082133"/>
<path d="M59.0272 43.694C58.9425 43.6991 58.8577 43.6868 58.778 43.6578C58.6982 43.6288 58.6253 43.5838 58.5636 43.5255C58.5056 43.4608 58.4611 43.3852 58.4326 43.3031C58.4042 43.221 58.3924 43.1341 58.398 43.0473V42.2913C58.3861 42.1085 58.4438 41.928 58.5594 41.7859C58.6173 41.7252 58.6877 41.6779 58.7658 41.6471C58.8438 41.6163 58.9276 41.6028 59.0113 41.6076C59.0952 41.6024 59.1793 41.6148 59.2581 41.6439C59.3369 41.6731 59.4088 41.7185 59.469 41.7771C59.5838 41.9101 59.6418 42.0828 59.6304 42.2582V42.8115H58.7233V42.4803H59.22V42.2529C59.2242 42.1839 59.205 42.1156 59.1655 42.059C59.1472 42.0361 59.1237 42.0179 59.097 42.0059C59.0702 41.9938 59.041 41.9884 59.0118 41.9899C58.9828 41.9887 58.954 41.9948 58.928 42.0075C58.902 42.0203 58.8796 42.0393 58.8627 42.0629C58.8233 42.1246 58.8045 42.1973 58.809 42.2704V43.0612C58.8046 43.1262 58.8248 43.1904 58.8654 43.2413C58.9072 43.2796 58.9611 43.3019 59.0177 43.3044C59.0744 43.3069 59.13 43.2894 59.1751 43.255C59.1931 43.2368 59.2071 43.215 59.2162 43.191C59.2253 43.167 59.2292 43.1414 59.2276 43.1157V43.0749L59.6367 43.0767V43.1118C59.6415 43.1906 59.6297 43.2695 59.6022 43.3435C59.5747 43.4174 59.5321 43.4848 59.477 43.5414C59.353 43.6495 59.1914 43.7043 59.0272 43.694Z" fill="#082133"/>
<path d="M60.5864 43.6941C60.4187 43.7047 60.2533 43.6503 60.1247 43.5421C60.0685 43.4865 60.0249 43.4194 59.9967 43.3456C59.9685 43.2717 59.9563 43.1926 59.9611 43.1137V42.2176C59.956 42.1355 59.9679 42.0532 59.9958 41.9758C60.0238 41.8984 60.0673 41.8276 60.1237 41.7677C60.2555 41.664 60.4183 41.6077 60.586 41.6079C60.7537 41.6081 60.9164 41.6647 61.0479 41.7687C61.1048 41.829 61.1488 41.9003 61.1773 41.9781C61.2057 42.056 61.2181 42.1388 61.2136 42.2216V42.3404L60.7929 42.3423V42.2429C60.7972 42.178 60.7786 42.1135 60.7402 42.0609C60.7221 42.0397 60.6993 42.0229 60.6736 42.0119C60.6479 42.001 60.6201 41.996 60.5922 41.9976C60.5642 41.9961 60.5362 42.001 60.5104 42.012C60.4846 42.023 60.4616 42.0397 60.4433 42.0609C60.4048 42.1113 60.3857 42.1738 60.3895 42.2371V43.0942C60.3878 43.1222 60.3917 43.1504 60.4009 43.1769C60.4101 43.2035 60.4245 43.228 60.4433 43.2489C60.4629 43.268 60.4862 43.2829 60.5119 43.2924C60.5375 43.302 60.5649 43.3061 60.5922 43.3045C60.6196 43.3061 60.6469 43.3018 60.6725 43.2919C60.698 43.282 60.7211 43.2667 60.7402 43.2471C60.7778 43.2015 60.7967 43.1433 60.7929 43.0844V42.9907L61.2174 42.9945V43.106C61.2215 43.1858 61.2088 43.2657 61.1801 43.3403C61.1515 43.415 61.1074 43.4828 61.0509 43.5394C60.9221 43.6493 60.7554 43.7048 60.5864 43.6941Z" fill="#082133"/>
<path d="M61.3496 42.0405V41.6432H62.2455V42.0405H61.3496ZM62.043 43.6748C61.8677 43.6748 61.7404 43.6287 61.6612 43.5365C61.5751 43.4227 61.5329 43.2816 61.5424 43.1392V41.0549H61.967V43.1002C61.9645 43.1426 61.9769 43.1846 62.002 43.2189C62.0141 43.2333 62.0294 43.2446 62.0467 43.2521C62.0639 43.2595 62.0827 43.2629 62.1014 43.2618H62.2455V43.6748H62.043Z" fill="#082133"/>
<path d="M63.3359 43.6649V40.8328H63.7645V43.6649H63.3359ZM63.5404 41.2441V40.8328H64.5747V41.2438L63.5404 41.2441ZM63.5404 42.4634V42.0544H64.4773V42.4634H63.5404ZM63.5404 43.6652V43.2542H64.5747V43.6652H63.5404Z" fill="#082133"/>
<path d="M64.7246 43.6649L65.3264 42.5505L65.5252 42.907L65.1784 43.6647L64.7246 43.6649ZM65.7414 43.6649L65.2992 42.7475L64.7577 41.6431H65.2135L65.5836 42.5488L66.1972 43.6649H65.7414ZM65.5914 42.7318L65.4141 42.3696L65.7079 41.6431H66.1657L65.5914 42.7318Z" fill="#082133"/>
<path d="M66.4297 44.4869V41.6434H66.8582V44.4869H66.4297ZM67.2263 43.6941C67.1364 43.6954 67.0492 43.6632 66.9819 43.6036C66.9074 43.5349 66.8549 43.4458 66.8309 43.3474L66.8582 43.0477C66.8569 43.0954 66.8648 43.143 66.8813 43.1879C66.8942 43.2235 66.9177 43.2544 66.9485 43.2764C66.9799 43.2973 67.017 43.3078 67.0546 43.3066C67.0824 43.3078 67.11 43.3019 67.1349 43.2894C67.1598 43.277 67.1811 43.2585 67.1968 43.2356C67.2336 43.1772 67.2513 43.1088 67.2475 43.0399V42.253C67.2516 42.1859 67.2338 42.1193 67.1968 42.0631C67.1804 42.0411 67.1589 42.0235 67.1341 42.0118C67.1093 42 67.082 41.9946 67.0546 41.9959C67.0173 41.9948 66.9804 42.0046 66.9485 42.0241C66.918 42.0445 66.8945 42.0737 66.8813 42.1079C66.8646 42.1517 66.8567 42.1983 66.8582 42.2452L66.8173 41.9784C66.8521 41.8732 66.9131 41.7787 66.9945 41.7037C67.0346 41.6685 67.0816 41.6421 67.1325 41.626C67.1833 41.6099 67.237 41.6046 67.29 41.6104C67.343 41.6162 67.3943 41.6329 67.4405 41.6596C67.4867 41.6862 67.5268 41.7222 67.5584 41.7652C67.6407 41.8977 67.6798 42.0525 67.6705 42.2083V43.0829C67.6802 43.2419 67.6396 43.4 67.5546 43.5347C67.5175 43.5866 67.4681 43.6284 67.4107 43.6562C67.3534 43.6841 67.29 43.6971 67.2263 43.6941Z" fill="#082133"/>
<path d="M68.6229 43.694C68.5382 43.6991 68.4534 43.6868 68.3736 43.6578C68.2939 43.6288 68.2209 43.5838 68.1593 43.5255C68.1012 43.4608 68.0567 43.3852 68.0283 43.3031C67.9999 43.221 67.9881 43.1341 67.9937 43.0474V42.2913C67.9818 42.1085 68.0395 41.928 68.1551 41.7859C68.213 41.7252 68.2835 41.6779 68.3615 41.6471C68.4395 41.6163 68.5233 41.6028 68.6071 41.6076C68.691 41.6024 68.775 41.6148 68.8538 41.6439C68.9326 41.6731 69.0045 41.7185 69.0647 41.7771C69.1795 41.91 69.2375 42.0828 69.2261 42.2582V42.8115H68.3185V42.4803H68.8152V42.2529C68.8194 42.1839 68.8001 42.1156 68.7605 42.059C68.7423 42.0361 68.7188 42.0179 68.6921 42.0059C68.6653 41.9938 68.6361 41.9884 68.6068 41.9899C68.5779 41.9887 68.5491 41.9948 68.5231 42.0075C68.4971 42.0203 68.4746 42.0393 68.4578 42.0629C68.4184 42.1246 68.3995 42.1973 68.404 42.2704V43.0612C68.3997 43.1262 68.4199 43.1904 68.4605 43.2413C68.5023 43.2796 68.5562 43.3019 68.6128 43.3044C68.6695 43.3069 68.7251 43.2894 68.7701 43.255C68.7882 43.2368 68.8023 43.215 68.8113 43.191C68.8204 43.167 68.8243 43.1414 68.8228 43.1157V43.0749L69.2319 43.0767V43.1118C69.2366 43.1906 69.2249 43.2695 69.1974 43.3434C69.1699 43.4174 69.1272 43.4848 69.0722 43.5414C68.9483 43.6493 68.7869 43.7042 68.6229 43.694Z" fill="#082133"/>
<path d="M69.5967 43.6649V41.6431H70.0252V43.6649H69.5967ZM70.5453 42.0463C70.5317 42.0477 70.518 42.0483 70.5044 42.0482H70.4479C70.3918 42.0448 70.3355 42.0526 70.2824 42.071C70.2292 42.0894 70.1802 42.1181 70.1382 42.1554C70.1003 42.1938 70.0708 42.2395 70.0514 42.2897C70.0319 42.3399 70.023 42.3936 70.0252 42.4474L69.9843 41.9956C70.0388 41.8826 70.1204 41.7849 70.2219 41.7112C70.316 41.6434 70.4292 41.6073 70.5453 41.6079V42.0463Z" fill="#082133"/>
<path d="M70.8232 41.2711V40.8467H71.2479V41.2712L70.8232 41.2711ZM70.8232 43.665V41.6432H71.2479V43.665H70.8232Z" fill="#082133"/>
<path d="M72.2224 43.694C72.1378 43.6991 72.0529 43.6868 71.9732 43.6578C71.8935 43.6288 71.8205 43.5838 71.7589 43.5255C71.7009 43.4608 71.6563 43.3852 71.6279 43.3031C71.5995 43.221 71.5877 43.1341 71.5933 43.0473V42.2913C71.5814 42.1085 71.6391 41.928 71.7547 41.7859C71.8126 41.7252 71.883 41.6779 71.961 41.6471C72.039 41.6163 72.1228 41.6028 72.2065 41.6076C72.2904 41.6024 72.3745 41.6148 72.4533 41.644C72.5322 41.6731 72.6041 41.7185 72.6643 41.7771C72.7791 41.9101 72.8371 42.0828 72.8257 42.2582V42.8115H71.9183V42.4803H72.415V42.2529C72.4192 42.184 72.4 42.1157 72.3605 42.059C72.3422 42.0361 72.3187 42.0179 72.292 42.0059C72.2652 41.9939 72.236 41.9884 72.2068 41.9899C72.1778 41.9887 72.149 41.9948 72.123 42.0075C72.097 42.0203 72.0746 42.0393 72.0577 42.0629C72.0183 42.1246 71.9995 42.1973 72.0039 42.2704V43.0612C71.9996 43.1262 72.0198 43.1904 72.0604 43.2413C72.1022 43.2796 72.1561 43.3019 72.2128 43.3044C72.2694 43.3069 72.3251 43.2894 72.3701 43.255C72.3882 43.2368 72.4022 43.215 72.4113 43.191C72.4203 43.167 72.4242 43.1413 72.4227 43.1157V43.0749L72.8317 43.0767V43.1118C72.8365 43.1906 72.8248 43.2695 72.7973 43.3435C72.7698 43.4174 72.7271 43.4848 72.672 43.5414C72.5481 43.6494 72.3865 43.7042 72.2224 43.694Z" fill="#082133"/>
<path d="M73.1963 43.6649V41.6431H73.6267V43.6649H73.1963ZM74.0263 43.6649V42.2508C74.0311 42.1838 74.0137 42.117 73.9766 42.061C73.9582 42.0393 73.9349 42.0222 73.9087 42.0112C73.8825 42.0002 73.854 41.9955 73.8256 41.9977C73.7972 41.9955 73.7687 42.0003 73.7425 42.0117C73.7164 42.0231 73.6934 42.0406 73.6756 42.0629C73.6394 42.1202 73.6223 42.1875 73.627 42.255L73.5861 41.9901C73.6178 41.8786 73.6814 41.7787 73.7691 41.7029C73.8437 41.6415 73.9374 41.608 74.034 41.6083C74.0932 41.6049 74.1522 41.6156 74.2064 41.6395C74.2605 41.6634 74.3083 41.6998 74.3457 41.7457C74.4254 41.8604 74.4638 41.9988 74.4548 42.1382V43.6652L74.0263 43.6649Z" fill="#082133"/>
<path d="M75.4437 43.6941C75.276 43.7047 75.1107 43.6503 74.9821 43.5421C74.9259 43.4865 74.8823 43.4194 74.8541 43.3455C74.8259 43.2717 74.8137 43.1926 74.8185 43.1137V42.2176C74.8134 42.1355 74.8252 42.0532 74.8532 41.9758C74.8812 41.8984 74.9247 41.8276 74.9812 41.7677C75.1129 41.664 75.2758 41.6077 75.4434 41.6079C75.6111 41.6081 75.7738 41.6647 75.9054 41.7687C75.9622 41.829 76.0062 41.9003 76.0346 41.9781C76.0631 42.056 76.0754 42.1388 76.0709 42.2216V42.3404L75.6502 42.3423V42.2429C75.6545 42.178 75.6359 42.1135 75.5976 42.0609C75.5794 42.0397 75.5566 42.0229 75.531 42.0119C75.5053 42.0009 75.4774 41.996 75.4496 41.9976C75.4216 41.9961 75.3936 42.001 75.3677 42.012C75.3419 42.023 75.3189 42.0397 75.3006 42.0609C75.2621 42.1113 75.243 42.1738 75.2468 42.2371V43.0942C75.2451 43.1222 75.249 43.1503 75.2582 43.1769C75.2675 43.2035 75.2818 43.2279 75.3006 43.2489C75.3202 43.268 75.3435 43.2829 75.3692 43.2924C75.3949 43.302 75.4222 43.3061 75.4496 43.3045C75.4769 43.3061 75.5043 43.3018 75.5298 43.2919C75.5554 43.282 75.5785 43.2667 75.5976 43.2471C75.6352 43.2015 75.6539 43.1433 75.6502 43.0844V42.9907L76.0748 42.9945V43.106C76.0789 43.1859 76.0662 43.2657 76.0375 43.3403C76.0088 43.415 75.9648 43.4828 75.9083 43.5394C75.7794 43.6493 75.6128 43.7048 75.4437 43.6941Z" fill="#082133"/>
<path d="M76.952 43.694C76.8673 43.6991 76.7825 43.6868 76.7028 43.6578C76.623 43.6288 76.5501 43.5838 76.4884 43.5255C76.4304 43.4608 76.3859 43.3852 76.3575 43.3031C76.329 43.221 76.3172 43.1341 76.3228 43.0473V42.2913C76.3109 42.1085 76.3686 41.928 76.4842 41.7859C76.5421 41.7252 76.6125 41.6779 76.6906 41.6471C76.7686 41.6163 76.8524 41.6028 76.9361 41.6076C77.02 41.6024 77.1041 41.6148 77.1829 41.644C77.2618 41.6731 77.3336 41.7185 77.3939 41.7771C77.5087 41.9101 77.5666 42.0828 77.5553 42.2582V42.8115H76.6478V42.4803H77.1445V42.2529C77.1487 42.184 77.1295 42.1157 77.09 42.059C77.0717 42.0362 77.0482 42.0179 77.0215 42.0059C76.9948 41.9939 76.9656 41.9884 76.9363 41.9899C76.9074 41.9887 76.8786 41.9948 76.8526 42.0075C76.8266 42.0203 76.8041 42.0393 76.7873 42.0629C76.7479 42.1246 76.729 42.1973 76.7335 42.2704V43.0612C76.7292 43.1262 76.7493 43.1904 76.7899 43.2413C76.8317 43.2796 76.8857 43.3019 76.9423 43.3044C76.9989 43.3069 77.0546 43.2894 77.0996 43.255C77.1177 43.2368 77.1317 43.215 77.1408 43.191C77.1498 43.167 77.1537 43.1413 77.1522 43.1157V43.0749L77.5613 43.0767V43.1118C77.5661 43.1906 77.5543 43.2695 77.5268 43.3435C77.4993 43.4174 77.4567 43.4848 77.4016 43.5414C77.2777 43.6494 77.1161 43.7042 76.952 43.694Z" fill="#082133"/>
<path d="M25.8108 41.7376C30.5726 36.9757 30.5726 29.2552 25.8108 24.4933C21.0489 19.7315 13.3284 19.7315 8.56648 24.4933C3.8046 29.2552 3.8046 36.9757 8.56648 41.7376C13.3284 46.4995 21.0489 46.4995 25.8108 41.7376Z" fill="#082133"/>
<path d="M27.2923 34.9097C27.1995 34.5813 27.0783 34.4688 27.0059 34.4017C27.0499 34.0209 26.8991 33.8694 26.8266 33.7966C26.8831 33.5213 26.909 33.3955 26.5151 32.3222C26.3815 31.9583 26.5828 32.1135 26.5855 32.117C26.5882 32.1206 26.8629 32.5397 26.8514 32.8032C26.9112 32.8641 26.9548 32.939 26.9781 33.0211C27.0242 33.1536 26.9879 33.2959 27.0267 33.4292C27.0312 33.4446 27.0498 33.4593 27.0593 33.4722C27.162 33.6285 27.2306 33.8047 27.2605 33.9893C27.3094 34.2211 27.3097 34.2789 27.3125 34.9884C27.3064 34.9648 27.2988 34.9334 27.2923 34.91M26.4507 32.1469C26.3576 31.907 26.2165 31.5911 26.0741 31.4489C26.254 31.6062 26.4288 32.0818 26.462 32.1756L26.451 32.1469M25.2975 30.1227H25.2964H25.2971M29.3779 33.1155C29.378 30.6346 28.6218 28.2126 27.2099 26.1727C25.7981 24.1327 23.7979 22.5716 21.476 21.6978C21.8002 21.8269 21.8002 21.8269 22.1848 21.9924C22.258 22.025 22.3554 22.0693 22.428 22.1034L22.1924 21.9986C22.722 22.2602 22.722 22.2602 22.7655 22.2829C22.4658 22.1572 22.1804 22.0008 21.8803 21.8756C21.8928 21.881 23.1902 22.4559 24.1604 23.1273C24.0104 23.0312 23.8617 22.9332 23.7116 22.8372C23.9893 23.0529 24.2957 23.2316 24.5448 23.4839C23.8971 23.072 23.2959 22.5885 22.6136 22.23C22.36 22.1131 22.1146 21.98 21.8544 21.8778C22.2946 22.1126 23.2107 22.6011 23.5568 22.8197C23.4104 22.7578 23.4104 22.7578 22.7286 22.4491C23.4027 22.8474 23.4027 22.8474 23.5094 22.9321C23.4387 22.8944 23.3455 22.8422 23.2777 22.7994C23.3078 22.8661 23.3501 22.9265 23.4024 22.9775C23.3358 22.9444 23.2716 22.9066 23.2103 22.8643C23.1923 22.9747 23.1848 23.0204 23.4311 23.2681C23.1994 23.206 23.0678 22.9858 22.8508 22.9006C23.0475 23.1299 23.3215 23.268 23.5336 23.4792L23.4305 23.4692C23.4266 23.5944 23.4266 23.5944 23.7407 23.8934C23.6105 23.8847 23.6105 23.8847 23.4179 23.766C23.486 23.8712 23.5936 23.9391 23.6723 24.0341C23.6461 24.0311 23.6461 24.0311 22.6307 23.2917C23.1781 23.4775 23.1781 23.4775 23.2024 23.4809C23.207 23.4482 23.2132 23.4047 23.2178 23.372C23.031 23.1529 21.196 22.1091 21.1711 22.6558L21.3071 24.7293C21.3168 24.7678 21.5479 25.6615 21.8928 25.5012C22.0053 25.449 22.0117 25.3091 22.1063 25.2423C22.6392 25.9724 22.7659 26.1461 22.8128 26.1508C22.9028 25.9573 22.9028 25.9573 23.0203 25.9189C22.9527 25.748 22.8626 25.5202 22.795 25.3493L22.8829 25.2815C22.8209 24.8363 22.3201 24.5472 22.4405 24.0371C22.2791 23.8024 22.2791 23.8024 22.2091 23.6333L22.2998 23.5778C22.7474 23.8172 22.6413 24.1465 22.596 24.2876C23.0495 24.9849 23.1708 25.1722 23.5264 24.9129C23.6046 24.9341 23.6779 24.9703 23.7423 25.0195C23.6208 25.1385 23.4498 25.0998 23.3085 25.1556C23.3387 25.4123 23.6287 25.4797 23.7065 25.7018C23.6651 25.7787 23.665 25.7787 23.665 25.7787H23.6642C23.6191 25.7142 23.5639 25.6574 23.5008 25.6104L23.3939 25.632C23.3993 25.7995 23.5148 26.005 23.587 26.1562C23.554 26.2191 23.5392 26.2899 23.5445 26.3607C23.4713 26.3358 23.4009 26.3035 23.3342 26.2642L23.2364 26.3049C23.1161 26.613 22.4932 26.4627 22.4088 26.2537C22.3234 26.0419 22.2895 25.8136 22.2008 25.6029C22.1218 25.6874 22.1218 25.6874 22.3337 26.4483C21.8811 26.7045 21.944 27.4302 21.3353 27.5443C21.2228 27.7306 20.9619 27.6289 20.8409 27.7985C21.0297 28.1668 21.767 28.3327 21.4951 28.8487C21.1612 28.9152 20.8073 28.7494 20.4838 28.936C20.449 29.1512 20.506 29.4443 20.5309 29.6607C20.4796 29.7243 20.445 29.7997 20.4304 29.8801L20.575 29.9563C20.5819 30.0467 20.5886 30.1375 20.595 30.2287C20.8069 30.2354 20.9155 30.5796 21.1618 30.4369C21.3612 30.3216 21.6256 30.3729 21.7986 30.1893C22.0481 29.9244 22.0407 29.5287 22.2741 29.2556C22.2653 29.1488 22.2502 29.0506 22.2346 28.9529C23.0276 28.7511 23.0276 28.7511 23.0475 28.7327C24.3715 29.8749 24.2336 29.9653 23.6401 30.0588L24.0734 30.3662C24.0376 30.1113 24.3747 29.8759 24.1336 29.615L24.221 29.5478L24.3086 29.6016C24.2721 29.4084 24.0527 29.3532 23.9901 29.1797L23.8935 29.2149C23.6553 29.0354 23.482 28.7338 23.4 28.5701C23.4459 28.5187 23.508 28.4845 23.576 28.4732C24.2362 29.103 24.2362 29.103 24.3616 29.1797C24.514 29.8444 25.0238 30.3135 25.0284 30.3156C25.0581 30.2507 25.0697 30.179 25.0621 30.1081C25.2076 30.1411 25.2076 30.1411 25.296 30.1227C25.1378 30.0076 25.0083 29.8575 24.9177 29.6841L25.0186 29.663C25.0399 29.5957 25.0398 29.5234 25.0181 29.4562C25.5234 29.6014 25.3597 30.2979 25.8449 30.4597C25.8981 30.4031 25.938 30.3353 25.9616 30.2612C26.1503 30.5126 26.2013 30.4777 26.3911 30.3478C26.7409 30.5227 26.4771 31.4111 26.2996 31.4506C25.7616 31.5701 25.3835 30.9831 24.8413 31.1222C24.8111 31.2035 24.8111 31.2035 24.8042 31.5053L24.7034 31.5721C24.3576 31.484 23.4307 30.9489 23.4238 30.9441C23.4238 30.1249 23.4238 30.1249 22.3606 30.3153C21.1369 30.5346 21.1369 30.5346 21.12 30.5276C21.0232 30.6201 20.9344 30.7206 20.8545 30.8281L20.8203 30.8595H20.8191L19.2344 33.2714C19.4496 33.7138 19.4496 33.7138 19.2366 34.504C19.0771 35.0958 20.3364 36.1131 20.3492 36.1228C20.4603 36.2074 20.6175 36.3386 20.7569 36.3479C20.8012 36.3428 20.8446 36.3312 20.8856 36.3137C21.1358 36.2472 22.2183 36.0262 22.2209 36.0262C22.5824 36.0262 22.8646 36.3035 23.2234 36.3131C23.2065 36.7616 22.957 37.1992 23.1598 37.658C23.3419 38.0699 23.3135 38.3257 23.2532 38.7091C23.1834 39.1498 22.8141 39.4435 22.6898 39.8575C22.6027 40.1475 22.7333 40.4493 22.6437 40.7388C22.513 41.1621 22.5163 41.6192 22.3186 42.0256L22.3616 42.1184C23.2488 41.9143 23.2488 41.9143 23.5994 41.6338C24.1484 41.1945 25.7377 39.4556 25.8204 39.35C26.2047 38.8621 26.1027 38.2067 26.394 37.6869C26.7448 37.0608 27.3766 36.652 27.6965 36.002C27.916 35.5563 27.9578 35.3091 27.9575 35.009C27.6813 35.258 27.5405 35.2757 27.3624 35.2981C27.3535 35.2241 27.3393 35.1258 27.3263 35.0525C28.4766 33.9634 29.2364 33.2439 28.4427 32.7452C28.4323 32.6425 28.4186 32.5055 28.4083 32.4028C28.3897 32.6033 28.3749 32.7617 28.1113 32.8171C28.0292 32.4671 27.8193 32.1543 27.8107 31.7829C27.8381 31.7599 27.8745 31.7291 27.9017 31.7061C28.0752 31.9059 28.0896 32.1923 28.272 32.3874L28.3801 32.3368L28.4083 32.2328C28.5106 32.4925 28.5106 32.4925 28.9847 32.6093C29.0367 32.7869 29.0427 32.9774 29.1364 33.143C29.1144 33.2205 29.1102 33.3019 29.1241 33.3812L29.199 33.3038C29.199 33.3165 29.2048 34.6051 29.0504 35.655C29.1774 35.3894 29.2426 34.8571 29.3418 34.0515C29.3652 33.7425 29.377 33.4304 29.3772 33.1153" fill="url(#paint0_linear_1779_7001)"/>
<path d="M21.5657 26.7526C21.5554 26.8606 21.5526 26.9692 21.5574 27.0776C21.5626 27.1121 21.6071 27.1419 21.6285 27.1695C21.6746 27.2109 21.6464 27.2356 21.5446 27.2428C21.0415 27.2787 20.8871 27.3147 20.6749 27.4457C20.8563 27.1569 20.8759 27.1407 20.8966 27.1235C20.8432 27.0527 20.7443 27.0198 20.7266 26.9193C20.7174 26.8664 20.8024 26.9062 20.8342 26.8821C20.8514 26.869 20.8413 26.8386 20.8342 26.8164C20.8104 26.7677 20.8037 26.7124 20.8152 26.6594C20.8375 26.6031 20.9267 26.6477 20.9395 26.579C20.921 26.5151 20.896 26.4533 20.8648 26.3946C20.8508 26.3688 20.8084 26.2901 20.6336 26.3228C20.614 26.2993 20.5973 26.2735 20.5839 26.246C20.536 26.1584 20.5665 26.0531 20.5198 25.9653C20.5035 25.9346 20.4986 25.9253 20.4306 25.9088C20.351 25.8895 20.343 25.8584 20.3316 25.771C20.2894 25.4469 20.3106 25.3944 20.5054 25.3376C20.5333 25.3743 20.5506 25.4179 20.5553 25.4637C20.56 25.5095 20.552 25.5557 20.5321 25.5973C20.514 25.647 20.5154 25.6581 20.53 25.6731C20.6145 25.7605 20.725 25.5172 20.7836 25.6241C20.8062 25.6653 20.8006 25.7086 20.7796 25.8383C20.7559 25.9843 20.7372 26.1002 20.8949 26.0398C21.0571 26.3105 21.0571 26.3105 21.1159 26.3535C21.2503 26.4455 21.3443 26.5856 21.3782 26.745H21.5662V26.7526" fill="url(#paint1_linear_1779_7001)"/>
<path d="M20.4838 26.3936C20.4751 26.4474 20.4533 26.4981 20.4203 26.5415C20.4997 26.7653 20.4587 26.8713 20.4536 26.8826C20.4449 26.9029 20.4326 26.9214 20.4175 26.9375C20.3744 26.9794 20.3076 26.9715 20.2632 27.0108C20.2254 27.0442 20.2318 27.1022 20.1936 27.1354C20.1889 27.1389 20.1832 27.141 20.1773 27.1412C20.1714 27.1415 20.1656 27.1399 20.1606 27.1368C20.1108 27.11 20.0678 27.0723 20.0347 27.0265C20.027 27.0074 20.0396 26.9838 20.0542 26.9565C20.1053 26.8709 20.1355 26.7745 20.1424 26.6751C20.1388 26.659 20.1315 26.6591 20.1033 26.6757C20.0661 26.6977 19.979 26.7491 19.9366 26.581C19.9204 26.5168 19.9745 26.4993 19.9981 26.4917C20.063 26.4707 20.1373 26.4966 20.1979 26.4524C20.2015 26.3755 20.1214 26.327 20.1287 26.2488C20.1349 26.1824 20.197 26.1771 20.2236 26.1748C20.3336 26.1803 20.4898 26.2965 20.4844 26.3937" fill="url(#paint2_linear_1779_7001)"/>
<path d="M18.822 23.7211C18.8348 23.7848 18.8324 23.8506 18.815 23.9132C18.7983 23.9372 18.7659 23.9192 18.7475 23.9384C18.696 23.9922 18.668 24.0631 18.6155 24.116C18.58 24.1498 18.5384 24.1765 18.493 24.1947C18.4394 24.2134 18.3815 24.2156 18.3267 24.2008C18.2268 24.183 18.1478 24.1022 18.041 24.1039C17.9826 24.1047 17.9274 24.1055 17.9158 24.0916C17.9142 24.0886 17.9131 24.0853 17.9125 24.0819C17.9356 24.0362 18.0293 24.026 18.0024 23.9598C17.9871 23.9214 17.9184 23.8784 17.815 23.842C17.9944 23.8381 17.9687 23.7181 17.938 23.6936C17.9009 23.6757 17.8588 23.671 17.8187 23.6801C17.7757 23.684 17.7269 23.6885 17.7105 23.6732C17.6841 23.6487 17.7149 23.565 17.7903 23.557C17.8266 23.5546 17.8629 23.561 17.8962 23.5758C17.8432 23.5099 17.7632 23.4102 17.8949 23.4038C17.9768 23.466 17.9906 23.4821 18 23.567C18.0011 23.586 18.0084 23.6041 18.021 23.6185C18.0335 23.6329 18.0504 23.6427 18.0692 23.6464C18.0802 23.6491 18.0918 23.6484 18.1025 23.6444C18.1436 23.6245 18.1694 23.5845 18.2093 23.563C18.2545 23.5385 18.3058 23.5303 18.3524 23.5096C18.3689 23.5019 18.7568 23.3346 18.8217 23.721" fill="url(#paint3_linear_1779_7001)"/>
<path d="M29.0671 35.8408C29.0545 35.9022 29.0382 35.9629 29.0183 36.0223C29.007 36.0009 29.1394 35.452 29.1412 35.4468C29.1202 35.6112 29.0803 35.784 29.0673 35.8408" fill="url(#paint4_linear_1779_7001)"/>
<path d="M26.5263 39.2761C26.4039 39.4998 25.4608 40.9137 25.2097 40.8642C25.2071 40.839 25.2002 40.7719 25.4261 40.3682C25.4965 40.2422 25.6207 40.1607 25.6986 40.0413C25.7897 39.9011 25.8262 39.7344 25.9157 39.5934C25.9234 39.5814 25.934 39.5656 25.9425 39.5542C25.9849 39.5055 26.0444 39.4752 26.1087 39.4696C26.2258 39.4357 26.3283 39.3637 26.4 39.2652C26.4857 39.1653 26.5313 39.0361 26.6329 38.9479C26.638 38.9442 26.6437 38.9416 26.6498 38.9402C26.6721 38.9725 26.6306 39.0857 26.5263 39.2763" fill="url(#paint5_linear_1779_7001)"/>
<path d="M19.6175 21.1759C20.0687 21.2806 20.5106 21.4217 20.9389 21.5978C21.498 21.8258 22.0213 22.1281 22.5692 22.3796C22.4603 22.3666 22.4057 22.3601 21.8428 22.0824C21.5945 21.9599 21.3641 21.8023 21.1028 21.7058C19.968 21.2854 19.968 21.2854 19.7349 21.2185C19.7526 21.2211 19.7702 21.2249 19.7878 21.2282C19.6337 21.1684 19.4678 21.1595 19.3096 21.1177C19.3768 21.1261 19.5401 21.1596 19.617 21.1762" fill="url(#paint6_linear_1779_7001)"/>
<path d="M14.8689 38.4904C14.834 38.6271 13.9145 40.2525 13.907 40.2621C13.6587 40.5777 12.8799 40.3807 12.954 40.9161C13.012 41.3365 12.521 41.8504 12.516 41.8551C12.4124 41.9535 12.3648 41.9781 12.1963 41.8877C12.1934 41.9246 12.1895 41.9738 12.1865 42.0107L12.2909 42.0592C12.3692 42.2809 12.365 42.2867 12.2567 42.434C12.1784 42.4411 12.0996 42.4414 12.0212 42.4348L11.9491 42.522C11.9602 42.5576 11.9751 42.6053 11.9864 42.641L11.8828 42.6877C11.8786 42.7223 11.8731 42.7682 11.869 42.803C12.0143 42.8645 12.0143 42.8645 12.0491 43.1698L11.9379 43.1895L13.0516 44.4254C12.8185 44.4704 12.1713 44.3858 11.1971 42.6333C11.2095 42.7158 11.2317 42.7965 11.2631 42.8738C11.1617 42.7862 11.1375 42.7654 10.7935 42.028C10.3743 41.1297 10.7569 40.0048 9.96048 39.213C9.24253 38.4992 8.34897 37.6109 8.52458 37.0046C8.91429 35.6588 8.79356 35.392 8.654 35.0833C8.56638 35.1005 8.56638 35.1005 8.38409 35.2692C7.9943 34.7586 7.41945 34.4073 7.10528 33.8316C6.85405 33.3816 6.2138 33.3619 6.00376 32.8661C6.00053 32.8584 5.79057 31.3116 5.83638 30.6244C5.80341 31.1194 6.73055 31.8783 6.06739 32.2084C6.35989 32.0627 5.85505 31.5139 5.73739 31.2184C6.25706 30.4164 4.35137 32.4724 5.80579 28.6643C5.89212 28.4168 6.00182 28.178 6.13341 27.9513L6.76029 26.7627C6.92529 26.3996 7.988 25.0668 8.52335 24.5688L8.5119 24.5765C8.68574 24.4284 8.86372 24.2854 9.04586 24.1474C9.87504 23.5191 10.7817 23.0001 11.7434 22.6033C11.6803 22.6302 11.5128 22.7016 11.2619 22.8242C11.9577 22.5692 11.9577 22.5692 11.9715 22.5657C11.9336 22.5878 11.9336 22.5878 11.5533 22.7866C11.6671 22.7453 11.7798 22.701 11.8939 22.6604C11.6265 22.9498 11.6265 22.9498 11.4258 23.0411C11.5394 23.0863 11.6467 23.1289 12.0329 22.9381C12.0022 22.9776 11.9605 23.0303 11.9296 23.0699L11.9882 23.1637C12.2925 23.1132 12.5089 22.8802 12.794 22.7898C12.757 22.8393 12.757 22.8393 12.4164 23.0962C12.9069 22.9348 13.2715 22.5345 13.7792 22.406C13.4334 22.6174 13.1235 22.8793 12.7725 23.0823C12.8599 23.052 12.9453 23.0163 13.0283 22.9753C12.9376 23.0782 12.9376 23.0782 12.5864 23.3154C12.9789 23.3057 13.2006 22.9512 13.5505 22.8556C13.545 22.8981 13.5375 22.9548 13.5319 22.9973C13.3775 23.1134 13.3775 23.1134 11.9693 23.7471L12.0146 23.8501C11.4111 24.2882 10.5545 24.3617 10.156 25.0957L10.269 25.1187C10.2548 25.2286 10.2548 25.2286 10.0261 25.5054C10.1042 25.5096 10.1808 25.5286 10.2517 25.5615C10.3943 26.0086 10.3943 26.0086 10.5695 26.0344C10.5011 26.1727 10.4098 26.3563 10.3414 26.4944C10.3343 26.7201 10.3367 26.7259 10.398 26.8752C10.6593 26.8637 11.2869 25.976 11.2932 25.9666C11.4356 25.7663 11.5121 25.5266 11.5118 25.2808C11.8837 25.0663 12.0601 24.5592 12.5923 24.5847C12.6435 24.8306 12.6435 24.8306 12.749 24.904C12.6762 25.0461 12.5791 25.2356 12.5063 25.3778C12.5622 25.4308 12.6225 25.479 12.6864 25.522C12.8699 25.4606 12.9549 25.2784 13.1128 25.1857C13.3002 25.5978 12.8626 26.195 13.4316 26.4791C13.2586 26.8525 13.3762 27.3091 13.0909 27.6501C13.1662 27.6962 13.1662 27.6962 13.4253 27.7057C13.4387 27.7518 13.4566 27.8128 13.47 27.8588C13.3376 28.0797 13.3376 28.0797 12.5721 28.0279C12.7422 27.8072 12.964 27.5093 13.1403 27.2933L11.9397 27.2923C11.9377 27.2929 11.7245 27.3692 11.0657 27.9353C11.6528 27.5187 11.7743 27.528 11.9753 27.5433L12.0253 27.6524C11.9519 27.7071 11.8676 27.7453 11.7781 27.7644C11.804 27.872 11.804 27.872 11.7456 28.1468C11.8552 28.2118 11.9377 28.3102 12.044 28.3794C12.1561 28.3295 12.2434 28.2417 12.3524 28.1873L12.3722 28.3239C12.1988 28.5216 12.015 28.6006 11.4783 28.7074C11.485 28.523 11.485 28.523 11.6364 28.329C11.553 28.3549 11.4738 28.3926 11.3878 28.4111L11.3874 28.4012L11.3413 28.5165C10.6519 28.7066 10.0817 29.3642 10.0768 29.3706C8.66276 31.2513 8.66276 31.2513 8.65853 32.084L8.50083 32.0266C8.39731 31.724 8.54218 31.4195 8.49045 31.1165C8.05724 31.0606 8.05724 31.0606 7.86926 30.9503C7.80634 31 7.76041 31.0679 7.73784 31.1448C7.65331 31.166 7.65331 31.166 7.23239 31.0317C6.18206 32.4186 6.88656 33.2442 7.16215 33.161C7.41115 33.0857 7.52658 32.5099 7.78219 32.7505C7.7078 33.0541 7.61311 33.3525 7.54395 33.6573C7.70265 33.8091 7.93712 33.7517 8.11204 33.8588C8.16491 34.8832 8.16491 34.8832 8.21825 34.9629C8.73723 34.9515 8.73723 34.9515 8.8263 35.0814C8.94273 34.9896 8.94273 34.9897 9.02319 34.7041C9.28172 34.7583 9.48069 34.5859 9.71079 34.5317C10.2145 34.9414 10.8812 35.1049 11.3409 35.5809C11.4396 35.6832 11.5341 35.7891 11.6351 35.8893C11.8601 36.1122 12.2218 36.0558 12.448 36.2765C12.6375 36.4614 12.4788 36.7812 12.7185 36.9465L14.8068 38.0421C14.8472 38.0992 14.9312 38.2181 14.8695 38.49" fill="url(#paint7_linear_1779_7001)"/>
<path d="M17.5161 21.1021C17.5203 21.1076 17.5251 21.1155 17.529 21.1213C17.4648 21.1344 17.4566 21.1361 17.4355 21.1704C17.4886 21.2299 17.5727 21.2494 17.6216 21.3144C17.6656 21.394 17.7023 21.4775 17.7311 21.5638C17.7186 21.5762 17.7019 21.5928 17.6894 21.6053C17.6911 21.6541 17.7248 21.7003 17.7014 21.7513C17.6443 21.7722 17.6129 21.7837 17.6966 21.9317C17.6991 21.936 17.9049 22.4163 17.7531 22.612C17.6592 22.7331 17.3972 23.0108 16.9922 22.9756C16.9092 22.9684 16.8831 22.9712 16.8653 22.9894C16.8126 23.0432 16.8432 23.1242 16.8023 23.1819C16.7318 23.2644 16.6536 23.34 16.5687 23.4077C16.5497 23.4247 16.5257 23.4489 16.506 23.4651C16.4236 23.5368 16.3292 23.5933 16.2271 23.632C15.8761 23.7882 15.8184 23.866 15.823 24.0209C15.8262 24.126 15.8213 24.1354 15.803 24.17C15.7691 24.2105 15.726 24.2424 15.6773 24.263C15.6249 24.2925 15.604 24.3176 15.5563 24.5037C15.4782 24.809 15.4351 24.9771 15.2897 25.0344C15.2141 25.0641 15.0053 24.9818 15.0347 24.832C15.0374 24.8178 15.0391 24.7911 15.0263 24.7841C14.9332 24.7332 14.8399 24.8285 14.7466 24.7841C14.7374 24.7799 14.73 24.7727 14.7256 24.7636C14.7228 24.7553 14.5018 23.8106 14.7142 23.3143C14.8746 22.9396 14.984 22.9116 15.0564 22.8932C15.1212 22.8649 15.1784 22.8221 15.2238 22.7679C15.2691 22.7138 15.3013 22.6499 15.3177 22.5812C15.1297 22.3882 15.1297 22.3882 15.1418 22.3496C15.2377 22.3386 15.2851 22.4588 15.3842 22.4391C15.4451 22.3252 15.4013 22.1948 15.441 22.0779C15.3395 22.0818 15.3166 22.1855 15.2477 22.2303C15.2381 22.1988 15.2381 22.1988 15.9453 21.2943C15.8744 21.2076 15.7864 21.2481 15.7158 21.2808C15.7613 21.1946 16.2901 20.9231 17.1857 20.9224C17.1874 20.9224 17.4975 21.0822 17.5157 21.1028" fill="url(#paint8_linear_1779_7001)"/>
<path d="M15.0371 31.7097H6.25781V32.1687H15.0371V31.7097Z" fill="#231F20"/>
<path d="M6.84991 29.4717H13.9888C14.3504 29.4717 14.6972 29.6153 14.9529 29.871C15.2086 30.1267 15.3523 30.4735 15.3523 30.8351V36.7512C15.3523 37.1128 15.2086 37.4596 14.9529 37.7153C14.6972 37.971 14.3504 38.1147 13.9888 38.1147H9.39509C8.4716 38.1147 7.58594 37.7478 6.93294 37.0948C6.27994 36.4418 5.91309 35.5561 5.91309 34.6327V30.4085C5.91309 30.16 6.01179 29.9218 6.18748 29.7461C6.36316 29.5704 6.60145 29.4717 6.84991 29.4717Z" fill="#082133"/>
<path d="M7.02689 30.4653H14.296C14.4428 30.4653 14.5835 30.5236 14.6873 30.6274C14.791 30.7312 14.8493 30.8719 14.8493 31.0187V32.4517H6.47363V31.0186C6.47365 30.8719 6.53195 30.7312 6.6357 30.6274C6.73945 30.5237 6.88016 30.4654 7.02689 30.4653Z" fill="url(#paint9_linear_1779_7001)"/>
<path d="M14.7081 32.2046H6.60835L6.47363 32.3531V36.8567C6.47363 37.1552 6.75699 37.3971 7.10651 37.3971H14.2165C14.566 37.3971 14.8493 37.1552 14.8493 36.8567V32.3531L14.7081 32.2046ZM7.97908 36.2957C7.97904 36.3281 7.96616 36.3591 7.94326 36.3819C7.92036 36.4048 7.88932 36.4176 7.85697 36.4176H7.32915C7.29679 36.4176 7.26576 36.4048 7.24286 36.3819C7.21996 36.3591 7.20707 36.3281 7.20703 36.2957V35.9479C7.20707 35.9155 7.21996 35.8845 7.24286 35.8617C7.26576 35.8388 7.29679 35.826 7.32915 35.826H7.85697C7.88932 35.826 7.92036 35.8388 7.94326 35.8617C7.96616 35.8845 7.97904 35.9155 7.97908 35.9479V36.2957ZM7.97908 35.4564C7.97904 35.4888 7.96616 35.5198 7.94326 35.5426C7.92036 35.5655 7.88932 35.5783 7.85697 35.5783H7.32915C7.29679 35.5783 7.26576 35.5655 7.24286 35.5426C7.21996 35.5198 7.20707 35.4888 7.20703 35.4564V35.1086C7.20707 35.0762 7.21996 35.0452 7.24286 35.0224C7.26576 34.9995 7.29679 34.9867 7.32915 34.9867H7.85697C7.88932 34.9867 7.92036 34.9995 7.94326 35.0224C7.96616 35.0452 7.97904 35.0762 7.97908 35.1086V35.4564ZM7.97908 34.6172C7.97902 34.6495 7.96613 34.6805 7.94323 34.7034C7.92033 34.7262 7.88931 34.739 7.85697 34.739H7.32915C7.29681 34.739 7.26578 34.7262 7.24288 34.7034C7.21999 34.6805 7.20709 34.6495 7.20703 34.6172V34.2693C7.20707 34.2369 7.21996 34.2059 7.24286 34.1831C7.26576 34.1602 7.29679 34.1474 7.32915 34.1474H7.85697C7.88932 34.1474 7.92036 34.1602 7.94326 34.1831C7.96616 34.2059 7.97904 34.2369 7.97908 34.2693V34.6172ZM9.00237 36.2957C9.00235 36.3117 8.99917 36.3276 8.99302 36.3424C8.98687 36.3572 8.97786 36.3707 8.96651 36.382C8.95517 36.3933 8.9417 36.4023 8.92689 36.4084C8.91207 36.4145 8.8962 36.4176 8.88017 36.4176H8.35243C8.33641 36.4176 8.32054 36.4145 8.30573 36.4084C8.29092 36.4023 8.27746 36.3933 8.26612 36.382C8.25478 36.3706 8.24578 36.3572 8.23963 36.3424C8.23349 36.3276 8.23032 36.3117 8.23031 36.2957V35.9479C8.23032 35.9319 8.23349 35.916 8.23963 35.9012C8.24578 35.8864 8.25478 35.873 8.26612 35.8616C8.27746 35.8503 8.29092 35.8414 8.30573 35.8352C8.32054 35.8291 8.33641 35.826 8.35243 35.826H8.88017C8.8962 35.826 8.91207 35.8291 8.92689 35.8352C8.9417 35.8413 8.95517 35.8503 8.96651 35.8616C8.97786 35.873 8.98687 35.8864 8.99302 35.9012C8.99917 35.916 9.00235 35.9319 9.00237 35.9479V36.2957ZM9.00237 35.4564C9.00235 35.4724 8.99917 35.4883 8.99302 35.5031C8.98687 35.5179 8.97786 35.5314 8.96651 35.5427C8.95517 35.554 8.9417 35.563 8.92689 35.5691C8.91207 35.5752 8.8962 35.5783 8.88017 35.5783H8.35243C8.33641 35.5783 8.32054 35.5752 8.30573 35.5691C8.29092 35.563 8.27746 35.554 8.26612 35.5427C8.25478 35.5313 8.24578 35.5179 8.23963 35.5031C8.23349 35.4883 8.23032 35.4724 8.23031 35.4564V35.1086C8.23032 35.0926 8.23349 35.0767 8.23963 35.0619C8.24578 35.0471 8.25478 35.0337 8.26612 35.0223C8.27746 35.011 8.29092 35.002 8.30573 34.9959C8.32054 34.9898 8.33641 34.9867 8.35243 34.9867H8.88017C8.8962 34.9867 8.91207 34.9898 8.92689 34.9959C8.9417 35.002 8.95517 35.011 8.96651 35.0223C8.97786 35.0337 8.98687 35.0471 8.99302 35.0619C8.99917 35.0767 9.00235 35.0926 9.00237 35.1086V35.4564ZM9.00237 34.6172C9.00231 34.6496 8.9894 34.6806 8.96649 34.7034C8.94357 34.7262 8.91253 34.7391 8.88017 34.739H8.35243C8.33641 34.739 8.32055 34.7359 8.30574 34.7298C8.29094 34.7237 8.27748 34.7147 8.26614 34.7034C8.2548 34.6921 8.2458 34.6787 8.23966 34.6639C8.23351 34.6491 8.23033 34.6332 8.23031 34.6172V34.2693C8.23032 34.2533 8.23349 34.2374 8.23963 34.2226C8.24578 34.2078 8.25478 34.1944 8.26612 34.183C8.27746 34.1717 8.29092 34.1628 8.30573 34.1566C8.32054 34.1505 8.33641 34.1474 8.35243 34.1474H8.88017C8.8962 34.1474 8.91207 34.1505 8.92689 34.1566C8.9417 34.1627 8.95517 34.1717 8.96651 34.183C8.97786 34.1944 8.98687 34.2078 8.99302 34.2226C8.99917 34.2374 9.00235 34.2533 9.00237 34.2693V34.6172ZM9.00237 33.7779C9.00231 33.8103 8.9894 33.8413 8.96649 33.8641C8.94357 33.8869 8.91253 33.8998 8.88017 33.8997H8.35243C8.33641 33.8997 8.32055 33.8966 8.30574 33.8905C8.29094 33.8844 8.27748 33.8754 8.26614 33.8641C8.2548 33.8528 8.2458 33.8394 8.23966 33.8246C8.23351 33.8098 8.23033 33.7939 8.23031 33.7779V33.4303C8.23032 33.4143 8.23349 33.3984 8.23963 33.3836C8.24578 33.3688 8.25478 33.3554 8.26612 33.3441C8.27746 33.3327 8.29092 33.3238 8.30573 33.3176C8.32054 33.3115 8.33641 33.3084 8.35243 33.3084H8.88017C8.8962 33.3084 8.91207 33.3115 8.92689 33.3176C8.9417 33.3238 8.95517 33.3327 8.96651 33.3441C8.97786 33.3554 8.98687 33.3688 8.99302 33.3836C8.99917 33.3984 9.00235 33.4143 9.00237 33.4303V33.7779ZM10.0251 36.2957C10.0251 36.3117 10.0219 36.3276 10.0158 36.3424C10.0096 36.3572 10.0006 36.3706 9.98931 36.382C9.97797 36.3933 9.96451 36.4023 9.9497 36.4084C9.93489 36.4145 9.91902 36.4176 9.90299 36.4176H9.37525C9.35923 36.4176 9.34336 36.4145 9.32855 36.4084C9.31374 36.4023 9.30028 36.3933 9.28894 36.382C9.2776 36.3706 9.2686 36.3572 9.26245 36.3424C9.25631 36.3276 9.25314 36.3117 9.25313 36.2957V35.9479C9.25314 35.9319 9.25631 35.916 9.26245 35.9012C9.2686 35.8864 9.2776 35.873 9.28894 35.8616C9.30028 35.8503 9.31374 35.8414 9.32855 35.8352C9.34336 35.8291 9.35923 35.826 9.37525 35.826H9.90299C9.91902 35.826 9.93489 35.8291 9.9497 35.8352C9.96451 35.8414 9.97797 35.8503 9.98931 35.8616C10.0006 35.873 10.0096 35.8864 10.0158 35.9012C10.0219 35.916 10.0251 35.9319 10.0251 35.9479V36.2957ZM10.0251 35.4564C10.0251 35.4724 10.0219 35.4883 10.0158 35.5031C10.0096 35.5179 10.0006 35.5313 9.98931 35.5427C9.97797 35.554 9.96451 35.563 9.9497 35.5691C9.93489 35.5752 9.91902 35.5783 9.90299 35.5783H9.37525C9.35923 35.5783 9.34336 35.5752 9.32855 35.5691C9.31374 35.563 9.30028 35.554 9.28894 35.5427C9.2776 35.5313 9.2686 35.5179 9.26245 35.5031C9.25631 35.4883 9.25314 35.4724 9.25313 35.4564V35.1086C9.25314 35.0926 9.25631 35.0767 9.26245 35.0619C9.2686 35.0471 9.2776 35.0337 9.28894 35.0223C9.30028 35.011 9.31374 35.002 9.32855 34.9959C9.34336 34.9898 9.35923 34.9867 9.37525 34.9867H9.90299C9.91902 34.9867 9.93489 34.9898 9.9497 34.9959C9.96451 35.002 9.97797 35.011 9.98931 35.0223C10.0006 35.0337 10.0096 35.0471 10.0158 35.0619C10.0219 35.0767 10.0251 35.0926 10.0251 35.1086V35.4564ZM10.0251 34.6172C10.0251 34.6332 10.0219 34.6491 10.0158 34.6639C10.0096 34.6787 10.0006 34.6921 9.98928 34.7034C9.97794 34.7147 9.96448 34.7237 9.94968 34.7298C9.93487 34.7359 9.91901 34.739 9.90299 34.739H9.37525C9.35923 34.739 9.34337 34.7359 9.32857 34.7298C9.31376 34.7237 9.3003 34.7147 9.28896 34.7034C9.27762 34.6921 9.26862 34.6787 9.26248 34.6639C9.25633 34.6491 9.25315 34.6332 9.25313 34.6172V34.2693C9.25314 34.2533 9.25631 34.2374 9.26245 34.2226C9.2686 34.2078 9.2776 34.1944 9.28894 34.183C9.30028 34.1717 9.31374 34.1628 9.32855 34.1566C9.34336 34.1505 9.35923 34.1474 9.37525 34.1474H9.90299C9.91902 34.1474 9.93489 34.1505 9.9497 34.1566C9.96451 34.1628 9.97797 34.1717 9.98931 34.183C10.0006 34.1944 10.0096 34.2078 10.0158 34.2226C10.0219 34.2374 10.0251 34.2533 10.0251 34.2693V34.6172ZM10.0251 33.7779C10.0251 33.7939 10.0219 33.8098 10.0158 33.8246C10.0096 33.8394 10.0006 33.8528 9.98928 33.8641C9.97794 33.8754 9.96448 33.8844 9.94968 33.8905C9.93487 33.8966 9.91901 33.8997 9.90299 33.8997H9.37525C9.35923 33.8997 9.34337 33.8966 9.32857 33.8905C9.31376 33.8844 9.3003 33.8754 9.28896 33.8641C9.27762 33.8528 9.26862 33.8394 9.26248 33.8246C9.25633 33.8098 9.25315 33.7939 9.25313 33.7779V33.4303C9.25314 33.4143 9.25631 33.3984 9.26245 33.3836C9.2686 33.3688 9.2776 33.3554 9.28894 33.3441C9.30028 33.3327 9.31374 33.3238 9.32855 33.3176C9.34336 33.3115 9.35923 33.3084 9.37525 33.3084H9.90299C9.91902 33.3084 9.93489 33.3115 9.9497 33.3176C9.96451 33.3238 9.97797 33.3327 9.98931 33.3441C10.0006 33.3554 10.0096 33.3688 10.0158 33.3836C10.0219 33.3984 10.0251 33.4143 10.0251 33.4303V33.7779ZM11.0479 36.2957C11.0479 36.3117 11.0448 36.3276 11.0386 36.3424C11.0325 36.3572 11.0235 36.3706 11.0121 36.382C11.0008 36.3933 10.9873 36.4023 10.9725 36.4084C10.9577 36.4145 10.9418 36.4176 10.9258 36.4176H10.3981C10.382 36.4176 10.3662 36.4145 10.3514 36.4084C10.3365 36.4023 10.3231 36.3933 10.3117 36.382C10.3004 36.3707 10.2914 36.3572 10.2852 36.3424C10.2791 36.3276 10.2759 36.3117 10.2759 36.2957V35.9479C10.2759 35.9319 10.2791 35.916 10.2852 35.9012C10.2914 35.8864 10.3004 35.873 10.3117 35.8616C10.3231 35.8503 10.3365 35.8413 10.3514 35.8352C10.3662 35.8291 10.382 35.826 10.3981 35.826H10.9258C10.9418 35.826 10.9577 35.8291 10.9725 35.8352C10.9873 35.8414 11.0008 35.8503 11.0121 35.8616C11.0235 35.873 11.0325 35.8864 11.0386 35.9012C11.0448 35.916 11.0479 35.9319 11.0479 35.9479V36.2957ZM11.0479 35.4564C11.0479 35.4724 11.0448 35.4883 11.0386 35.5031C11.0325 35.5179 11.0235 35.5313 11.0121 35.5427C11.0008 35.554 10.9873 35.563 10.9725 35.5691C10.9577 35.5752 10.9418 35.5783 10.9258 35.5783H10.3981C10.382 35.5783 10.3662 35.5752 10.3514 35.5691C10.3365 35.563 10.3231 35.554 10.3117 35.5427C10.3004 35.5314 10.2914 35.5179 10.2852 35.5031C10.2791 35.4883 10.2759 35.4724 10.2759 35.4564V35.1086C10.2759 35.0926 10.2791 35.0767 10.2852 35.0619C10.2914 35.0471 10.3004 35.0337 10.3117 35.0223C10.3231 35.011 10.3365 35.002 10.3514 34.9959C10.3662 34.9898 10.382 34.9867 10.3981 34.9867H10.9258C10.9418 34.9867 10.9577 34.9898 10.9725 34.9959C10.9873 35.002 11.0008 35.011 11.0121 35.0223C11.0235 35.0337 11.0325 35.0471 11.0386 35.0619C11.0448 35.0767 11.0479 35.0926 11.0479 35.1086V35.4564ZM11.0479 34.6172C11.0479 34.6332 11.0447 34.6491 11.0386 34.6639C11.0324 34.6787 11.0234 34.6921 11.0121 34.7034C11.0008 34.7147 10.9873 34.7237 10.9725 34.7298C10.9577 34.7359 10.9418 34.739 10.9258 34.739H10.3981C10.3657 34.7391 10.3347 34.7262 10.3118 34.7034C10.2888 34.6806 10.2759 34.6496 10.2759 34.6172V34.2693C10.2759 34.2533 10.2791 34.2374 10.2852 34.2226C10.2914 34.2078 10.3004 34.1944 10.3117 34.183C10.3231 34.1717 10.3365 34.1627 10.3514 34.1566C10.3662 34.1505 10.382 34.1474 10.3981 34.1474H10.9258C10.9418 34.1474 10.9577 34.1505 10.9725 34.1566C10.9873 34.1628 11.0008 34.1717 11.0121 34.183C11.0235 34.1944 11.0325 34.2078 11.0386 34.2226C11.0448 34.2374 11.0479 34.2533 11.0479 34.2693V34.6172ZM11.0479 33.7779C11.0479 33.7939 11.0447 33.8098 11.0386 33.8246C11.0324 33.8394 11.0234 33.8528 11.0121 33.8641C11.0008 33.8754 10.9873 33.8844 10.9725 33.8905C10.9577 33.8966 10.9418 33.8997 10.9258 33.8997H10.3981C10.3657 33.8998 10.3347 33.8869 10.3118 33.8641C10.2888 33.8413 10.2759 33.8103 10.2759 33.7779V33.4303C10.2759 33.4143 10.2791 33.3984 10.2852 33.3836C10.2914 33.3688 10.3004 33.3554 10.3117 33.3441C10.3231 33.3327 10.3365 33.3238 10.3514 33.3176C10.3662 33.3115 10.382 33.3084 10.3981 33.3084H10.9258C10.9418 33.3084 10.9577 33.3115 10.9725 33.3176C10.9873 33.3238 11.0008 33.3327 11.0121 33.3441C11.0235 33.3554 11.0325 33.3688 11.0386 33.3836C11.0448 33.3984 11.0479 33.4143 11.0479 33.4303V33.7779ZM12.0708 36.2957C12.0707 36.3281 12.0578 36.3591 12.0349 36.3819C12.012 36.4048 11.981 36.4176 11.9486 36.4176H11.4208C11.3885 36.4176 11.3574 36.4048 11.3345 36.3819C11.3116 36.3591 11.2987 36.3281 11.2987 36.2957V35.9479C11.2987 35.9155 11.3116 35.8845 11.3345 35.8617C11.3574 35.8388 11.3885 35.826 11.4208 35.826H11.9486C11.981 35.826 12.012 35.8388 12.0349 35.8617C12.0578 35.8845 12.0707 35.9155 12.0708 35.9479V36.2957ZM12.0708 35.4564C12.0707 35.4888 12.0578 35.5198 12.0349 35.5426C12.012 35.5655 11.981 35.5783 11.9486 35.5783H11.4208C11.3885 35.5783 11.3574 35.5655 11.3345 35.5426C11.3116 35.5198 11.2987 35.4888 11.2987 35.4564V35.1086C11.2987 35.0762 11.3116 35.0452 11.3345 35.0224C11.3574 34.9995 11.3885 34.9867 11.4208 34.9867H11.9486C11.981 34.9867 12.012 34.9995 12.0349 35.0224C12.0578 35.0452 12.0707 35.0762 12.0708 35.1086V35.4564ZM12.0708 34.6172C12.0707 34.6495 12.0578 34.6805 12.0349 34.7034C12.012 34.7262 11.981 34.739 11.9486 34.739H11.4208C11.3885 34.739 11.3575 34.7262 11.3346 34.7034C11.3117 34.6805 11.2988 34.6495 11.2987 34.6172V34.2693C11.2987 34.2369 11.3116 34.2059 11.3345 34.1831C11.3574 34.1602 11.3885 34.1474 11.4208 34.1474H11.9486C11.981 34.1474 12.012 34.1602 12.0349 34.1831C12.0578 34.2059 12.0707 34.2369 12.0708 34.2693V34.6172ZM12.0708 33.7779C12.0707 33.8102 12.0578 33.8412 12.0349 33.8641C12.012 33.8869 11.981 33.8997 11.9486 33.8997H11.4208C11.3885 33.8997 11.3575 33.8869 11.3346 33.8641C11.3117 33.8412 11.2988 33.8102 11.2987 33.7779V33.4303C11.2987 33.3979 11.3116 33.3669 11.3345 33.3441C11.3574 33.3212 11.3885 33.3084 11.4208 33.3084H11.9486C11.981 33.3084 12.012 33.3212 12.0349 33.3441C12.0578 33.3669 12.0707 33.3979 12.0708 33.4303V33.7779ZM13.0936 36.2957C13.0936 36.3117 13.0904 36.3276 13.0842 36.3424C13.0781 36.3572 13.0691 36.3707 13.0577 36.382C13.0464 36.3933 13.0329 36.4023 13.0181 36.4084C13.0033 36.4145 12.9874 36.4176 12.9714 36.4176H12.4436C12.4276 36.4176 12.4117 36.4145 12.3969 36.4084C12.3821 36.4023 12.3687 36.3933 12.3573 36.382C12.346 36.3706 12.337 36.3572 12.3308 36.3424C12.3247 36.3276 12.3215 36.3117 12.3215 36.2957V35.9479C12.3215 35.9319 12.3247 35.916 12.3308 35.9012C12.337 35.8864 12.346 35.873 12.3573 35.8616C12.3687 35.8503 12.3821 35.8414 12.3969 35.8352C12.4117 35.8291 12.4276 35.826 12.4436 35.826H12.9714C12.9874 35.826 13.0033 35.8291 13.0181 35.8352C13.0329 35.8413 13.0464 35.8503 13.0577 35.8616C13.0691 35.873 13.0781 35.8864 13.0842 35.9012C13.0904 35.916 13.0936 35.9319 13.0936 35.9479V36.2957ZM13.0936 35.4564C13.0936 35.4724 13.0904 35.4883 13.0842 35.5031C13.0781 35.5179 13.0691 35.5314 13.0577 35.5427C13.0464 35.554 13.0329 35.563 13.0181 35.5691C13.0033 35.5752 12.9874 35.5783 12.9714 35.5783H12.4436C12.4276 35.5783 12.4117 35.5752 12.3969 35.5691C12.3821 35.563 12.3687 35.554 12.3573 35.5427C12.346 35.5313 12.337 35.5179 12.3308 35.5031C12.3247 35.4883 12.3215 35.4724 12.3215 35.4564V35.1086C12.3215 35.0926 12.3247 35.0767 12.3308 35.0619C12.337 35.0471 12.346 35.0337 12.3573 35.0223C12.3687 35.011 12.3821 35.002 12.3969 34.9959C12.4117 34.9898 12.4276 34.9867 12.4436 34.9867H12.9714C12.9874 34.9867 13.0033 34.9898 13.0181 34.9959C13.0329 35.002 13.0464 35.011 13.0577 35.0223C13.0691 35.0337 13.0781 35.0471 13.0842 35.0619C13.0904 35.0767 13.0936 35.0926 13.0936 35.1086V35.4564ZM13.0936 34.6172C13.0935 34.6496 13.0806 34.6806 13.0577 34.7034C13.0348 34.7262 13.0037 34.7391 12.9714 34.739H12.4436C12.4276 34.739 12.4118 34.7359 12.397 34.7298C12.3821 34.7237 12.3687 34.7147 12.3574 34.7034C12.346 34.6921 12.337 34.6787 12.3309 34.6639C12.3247 34.6491 12.3215 34.6332 12.3215 34.6172V34.2693C12.3215 34.2533 12.3247 34.2374 12.3308 34.2226C12.337 34.2078 12.346 34.1944 12.3573 34.183C12.3687 34.1717 12.3821 34.1628 12.3969 34.1566C12.4117 34.1505 12.4276 34.1474 12.4436 34.1474H12.9714C12.9874 34.1474 13.0033 34.1505 13.0181 34.1566C13.0329 34.1627 13.0464 34.1717 13.0577 34.183C13.0691 34.1944 13.0781 34.2078 13.0842 34.2226C13.0904 34.2374 13.0936 34.2533 13.0936 34.2693V34.6172ZM13.0936 33.7779C13.0935 33.8103 13.0806 33.8413 13.0577 33.8641C13.0348 33.8869 13.0037 33.8998 12.9714 33.8997H12.4436C12.4276 33.8997 12.4118 33.8966 12.397 33.8905C12.3821 33.8844 12.3687 33.8754 12.3574 33.8641C12.346 33.8528 12.337 33.8394 12.3309 33.8246C12.3247 33.8098 12.3215 33.7939 12.3215 33.7779V33.4303C12.3215 33.4143 12.3247 33.3984 12.3308 33.3836C12.337 33.3688 12.346 33.3554 12.3573 33.3441C12.3687 33.3327 12.3821 33.3238 12.3969 33.3176C12.4117 33.3115 12.4276 33.3084 12.4436 33.3084H12.9714C12.9874 33.3084 13.0033 33.3115 13.0181 33.3176C13.0329 33.3238 13.0464 33.3327 13.0577 33.3441C13.0691 33.3554 13.0781 33.3688 13.0842 33.3836C13.0904 33.3984 13.0936 33.4143 13.0936 33.4303V33.7779ZM14.1164 35.4564C14.1164 35.4724 14.1132 35.4883 14.107 35.5031C14.1009 35.5179 14.0919 35.5314 14.0805 35.5427C14.0692 35.554 14.0557 35.563 14.0409 35.5691C14.0261 35.5752 14.0102 35.5783 13.9942 35.5783H13.4665C13.4504 35.5783 13.4346 35.5752 13.4198 35.5691C13.4049 35.563 13.3915 35.554 13.3801 35.5427C13.3688 35.5313 13.3598 35.5179 13.3537 35.5031C13.3475 35.4883 13.3444 35.4724 13.3443 35.4564V35.1086C13.3444 35.0926 13.3475 35.0767 13.3537 35.0619C13.3598 35.0471 13.3688 35.0337 13.3801 35.0223C13.3915 35.011 13.4049 35.002 13.4198 34.9959C13.4346 34.9898 13.4504 34.9867 13.4665 34.9867H13.9942C14.0102 34.9867 14.0261 34.9898 14.0409 34.9959C14.0557 35.002 14.0692 35.011 14.0805 35.0223C14.0919 35.0337 14.1009 35.0471 14.107 35.0619C14.1132 35.0767 14.1164 35.0926 14.1164 35.1086V35.4564ZM14.1164 34.6172C14.1163 34.6496 14.1034 34.6806 14.0805 34.7034C14.0576 34.7262 14.0266 34.7391 13.9942 34.739H13.4665C13.4504 34.739 13.4346 34.7359 13.4198 34.7298C13.405 34.7237 13.3915 34.7147 13.3802 34.7034C13.3688 34.6921 13.3598 34.6787 13.3537 34.6639C13.3475 34.6491 13.3444 34.6332 13.3443 34.6172V34.2693C13.3444 34.2533 13.3475 34.2374 13.3537 34.2226C13.3598 34.2078 13.3688 34.1944 13.3801 34.183C13.3915 34.1717 13.4049 34.1628 13.4198 34.1566C13.4346 34.1505 13.4504 34.1474 13.4665 34.1474H13.9942C14.0102 34.1474 14.0261 34.1505 14.0409 34.1566C14.0557 34.1627 14.0692 34.1717 14.0805 34.183C14.0919 34.1944 14.1009 34.2078 14.107 34.2226C14.1132 34.2374 14.1164 34.2533 14.1164 34.2693V34.6172ZM14.1164 33.7779C14.1163 33.8103 14.1034 33.8413 14.0805 33.8641C14.0576 33.8869 14.0266 33.8998 13.9942 33.8997H13.4665C13.4504 33.8997 13.4346 33.8966 13.4198 33.8905C13.405 33.8844 13.3915 33.8754 13.3802 33.8641C13.3688 33.8528 13.3598 33.8394 13.3537 33.8246C13.3475 33.8098 13.3444 33.7939 13.3443 33.7779V33.4303C13.3444 33.4143 13.3475 33.3984 13.3537 33.3836C13.3598 33.3688 13.3688 33.3554 13.3801 33.3441C13.3915 33.3327 13.4049 33.3238 13.4198 33.3176C13.4346 33.3115 13.4504 33.3084 13.4665 33.3084H13.9942C14.0102 33.3084 14.0261 33.3115 14.0409 33.3176C14.0557 33.3238 14.0692 33.3327 14.0805 33.3441C14.0919 33.3554 14.1009 33.3688 14.107 33.3836C14.1132 33.3984 14.1164 33.4143 14.1164 33.4303V33.7779Z" fill="url(#paint10_linear_1779_7001)"/>
<path d="M13.3533 29.5676H12.9238C12.7987 29.5676 12.6973 29.6691 12.6973 29.7942V31.4219C12.6973 31.547 12.7987 31.6485 12.9238 31.6485H13.3533C13.4784 31.6485 13.5798 31.547 13.5798 31.4219V29.7942C13.5798 29.6691 13.4784 29.5676 13.3533 29.5676Z" fill="url(#paint11_linear_1779_7001)" stroke="#082133" stroke-miterlimit="10"/>
<path d="M8.40796 29.5676H7.97851C7.85339 29.5676 7.75195 29.6691 7.75195 29.7942V31.4219C7.75195 31.547 7.85339 31.6485 7.97851 31.6485H8.40796C8.53309 31.6485 8.63452 31.547 8.63452 31.4219V29.7942C8.63452 29.6691 8.53309 29.5676 8.40796 29.5676Z" fill="url(#paint12_linear_1779_7001)" stroke="#082133" stroke-miterlimit="10"/>
<path d="M6.45341 32.7776H14.8555V31.9564H6.45341V32.7776Z" fill="#082133"/>
<path d="M22.1125 38.7275C24.9339 38.7275 27.2211 36.2934 27.2211 33.2906C27.2211 30.2879 24.9339 27.8538 22.1125 27.8538C19.2911 27.8538 17.0039 30.2879 17.0039 33.2906C17.0039 36.2934 19.2911 38.7275 22.1125 38.7275Z" fill="#082133"/>
<path d="M17.767 31.4669C18.324 31.1952 18.8473 31.646 18.7682 32.3169C18.7639 32.3527 18.7598 32.3885 18.7568 32.4245C18.7475 32.5345 18.7619 32.6509 18.8797 32.6431C18.9512 32.6384 19.07 32.5638 19.0783 32.5048C19.1139 32.2948 19.1201 32.0809 19.0966 31.8692C19.0712 31.6914 19.0885 31.5848 19.2329 31.4964C19.4353 31.3723 19.5076 31.1648 19.4893 30.9123C19.4801 30.7857 19.446 30.6806 19.3142 30.6735C19.1793 30.6658 19.148 30.769 19.1291 30.8963C19.0788 31.2331 18.9386 31.301 18.6482 31.1816C18.4751 31.1091 18.2935 31.0589 18.1077 31.0324C17.893 31.003 17.8429 30.9639 17.9156 30.7548C17.9668 30.6012 18.0699 30.4703 18.2071 30.3843C18.3442 30.2984 18.507 30.2628 18.6676 30.2836C18.8505 30.3149 18.9473 30.2578 18.9803 30.0463C19.0018 29.8947 19.0584 29.7503 19.1455 29.6244C19.2326 29.4986 19.3478 29.3948 19.4821 29.3213C19.9284 29.0589 20.3263 29.319 20.3259 29.888C20.3136 30.0885 20.2862 30.2878 20.2439 30.4842C20.2024 30.7539 20.2204 31.0202 20.4107 31.2047C20.5341 31.3101 20.6796 31.3862 20.8364 31.4276C21.0162 31.4852 21.0693 31.5617 21.0249 31.7914C20.9856 31.9951 20.8605 31.9285 20.7512 31.899C20.5208 31.8438 20.3215 31.6998 20.1969 31.4982C20.1691 31.4688 20.1334 31.448 20.0941 31.4383C20.0548 31.4286 20.0135 31.4304 19.9752 31.4435C19.9468 31.478 19.9264 31.5184 19.9154 31.5617C19.9044 31.605 19.9031 31.6502 19.9116 31.694C19.9423 31.7935 19.9987 31.883 20.0751 31.9537C20.1846 32.0628 20.3108 32.1509 20.4451 32.2602C20.3984 32.3313 20.3597 32.3879 20.3232 32.4464C20.1146 32.7926 20.0305 33.1998 20.0849 33.6004C20.0984 33.731 20.136 33.8457 20.2848 33.8309C20.4385 33.8155 20.4397 33.6897 20.439 33.5609C20.4384 33.438 20.4345 33.315 20.4446 33.1934C20.4651 32.9312 20.5845 32.6867 20.7787 32.5094C20.8044 32.4872 20.8349 32.4714 20.8678 32.4633C20.9008 32.4551 20.9351 32.4548 20.9682 32.4624C21.004 32.4744 21.0341 32.5777 21.0347 32.6406C21.0387 32.9941 21.0321 33.3476 21.0306 33.7011C21.0292 34.0177 21.03 34.0177 20.7577 34.07C20.312 34.1563 20.1139 34.4754 20.2059 34.9706C20.2307 35.1041 20.2751 35.2331 20.3105 35.3641C20.3553 35.5296 20.4138 35.6922 20.4422 35.8612C20.4984 36.1944 20.4743 36.514 20.2247 36.7549C19.584 37.3732 18.4773 36.9572 18.3175 36.0319C18.2949 35.8397 18.2934 35.6457 18.313 35.4533C18.3197 35.3226 18.3107 35.2174 18.1761 35.1942C18.0501 35.1725 18.0021 35.2687 17.9867 35.3842C17.967 35.5331 17.9587 35.684 17.9462 35.834C17.9395 35.9155 17.9344 35.9973 17.9266 36.1053C17.6142 35.9611 17.4348 35.7045 17.2657 35.419C17.2657 35.419 17.1178 35.0033 17.2254 34.238C17.2924 33.7615 17.0357 33.3196 17.0215 33.1343C16.9137 31.7165 17.767 31.4669 17.767 31.4669ZM16.8124 33.7587C16.5863 35.4337 17.3471 36.1298 17.3471 36.1298L17.8593 36.528C17.9952 36.6243 18.1218 36.7329 18.2377 36.8524C18.6475 37.3324 19.1385 37.5167 19.7243 37.4353C19.8886 37.4119 20.0561 37.4264 20.2138 37.4778C20.8006 37.6793 21.333 37.305 21.393 36.6272C21.4012 36.5342 21.4033 36.44 21.4034 36.3464C21.404 34.2166 21.404 32.0868 21.4034 29.957C21.4034 29.39 21.1895 29.0311 20.6964 28.8946C20.4033 28.8214 20.1008 28.7936 19.7994 28.8123C19.3498 28.8299 18.9933 29.074 18.7937 29.5328C18.6888 29.774 18.5507 29.8919 18.3172 29.9325C17.9637 29.9939 17.7403 30.2328 17.6155 30.6184C17.5442 30.8286 17.4503 31.0304 17.3356 31.2204C17.3053 31.2762 17.2645 31.3256 17.2154 31.366C16.2181 32.1296 16.8124 33.7587 16.8124 33.7587Z" fill="url(#paint13_linear_1779_7001)"/>
<path d="M17.997 34.1664C18.2242 34.1962 18.455 34.1849 18.6782 34.1329C19.0067 34.0692 19.2292 34.1422 19.3843 34.4201C19.6504 34.8971 19.47 35.3962 18.9825 35.5313C18.8749 35.5611 18.7814 35.6047 18.8039 35.7596C18.8246 35.9019 18.9115 35.9411 19.0281 35.9396C19.2014 35.9318 19.3678 35.8689 19.5028 35.7599C19.6378 35.6508 19.7343 35.5015 19.7784 35.3337C19.9099 34.8698 19.8924 34.4125 19.5884 34.0317C19.2955 33.6648 18.9174 33.65 18.521 33.7751C18.4963 33.7827 18.4713 33.7897 18.4466 33.7974C18.1385 33.8942 17.917 33.7969 17.8201 33.5221C17.6962 33.171 17.781 32.8857 18.0617 32.7093C18.112 32.6777 18.1966 32.6644 18.2072 32.6107C18.2767 32.2607 17.9216 32.3454 17.9216 32.3454C17.1645 32.7264 17.436 33.628 17.436 33.628C17.5968 34.1303 17.997 34.1664 17.997 34.1664Z" fill="url(#paint14_linear_1779_7001)"/>
<path d="M20.5576 29.3135C20.5884 29.7721 20.6179 30.2098 20.6478 30.6475C20.6523 30.7122 20.6391 30.7966 20.6702 30.8368C20.7252 30.9157 20.8021 30.9767 20.8913 31.0124C20.9212 31.0214 21.0236 30.8889 21.0276 30.8165C21.0443 30.5146 21.0409 30.2109 21.0353 29.908C21.0301 29.5974 20.8751 29.4002 20.5576 29.3135Z" fill="#082133"/>
<path d="M20.6914 34.4998C20.6329 34.5338 20.5876 34.5864 20.5626 34.6492C20.5375 34.7121 20.5343 34.7814 20.5534 34.8463C20.6024 35.0778 20.6508 35.3105 20.7175 35.536C20.8817 36.0904 20.8986 36.6132 20.4766 37.0635C20.8355 37.0915 21.0299 36.9042 21.0327 36.5395C21.0371 35.9331 21.036 35.3265 21.0335 34.7199C21.0324 34.4584 20.8959 34.3739 20.6914 34.4998Z" fill="#082133"/>
<path d="M22.3856 29.3135C22.3548 29.7721 22.3253 30.2098 22.2953 30.6475C22.291 30.7122 22.3041 30.7966 22.2731 30.8368C22.218 30.9157 22.1412 30.9767 22.0519 31.0124C22.022 31.0214 21.9195 30.8889 21.9155 30.8165C21.8989 30.5146 21.9023 30.2109 21.9079 29.908C21.9132 29.5974 22.0682 29.4002 22.3856 29.3135Z" fill="url(#paint15_linear_1779_7001)"/>
<path d="M22.2516 34.4998C22.31 34.5338 22.3554 34.5864 22.3804 34.6492C22.4054 34.7121 22.4086 34.7814 22.3895 34.8463C22.3405 35.0778 22.2922 35.3105 22.2255 35.536C22.0612 36.0904 22.0444 36.6132 22.4664 37.0635C22.1076 37.0915 21.913 36.9042 21.9102 36.5395C21.9058 35.9331 21.9069 35.3265 21.9094 34.7199C21.9104 34.4584 22.0471 34.3739 22.2516 34.4998Z" fill="url(#paint16_linear_1779_7001)"/>
<path d="M25.9209 33.1336C25.9067 33.3189 25.6501 33.761 25.717 34.2373C25.8246 35.0026 25.6767 35.4183 25.6767 35.4183C25.5076 35.7038 25.3282 35.9604 25.0158 36.1047C25.0081 35.9966 25.0029 35.9148 24.9962 35.8333C24.9837 35.6833 24.9754 35.5324 24.9557 35.3836C24.9403 35.2683 24.8923 35.1718 24.7664 35.1935C24.6317 35.2166 24.6227 35.3222 24.6295 35.4526C24.649 35.645 24.6475 35.8391 24.6249 36.0312C24.4651 36.9566 23.3584 37.3725 22.7177 36.7542C22.4681 36.5133 22.4441 36.1937 22.5002 35.8605C22.5286 35.6914 22.5871 35.5289 22.6319 35.3634C22.6673 35.2324 22.7117 35.1034 22.7365 34.9699C22.8287 34.4747 22.6305 34.1552 22.1847 34.0693C21.9124 34.0167 21.9132 34.0167 21.9118 33.7004C21.9103 33.3469 21.9041 32.9934 21.9076 32.6399C21.9083 32.577 21.9384 32.4737 21.9742 32.4617C22.0073 32.4541 22.0416 32.4544 22.0746 32.4626C22.1075 32.4707 22.138 32.4865 22.1637 32.5087C22.3579 32.6859 22.4774 32.9305 22.4978 33.1927C22.5079 33.3143 22.504 33.4377 22.5034 33.5602C22.5027 33.689 22.5039 33.815 22.6576 33.8302C22.8067 33.845 22.8443 33.7303 22.8575 33.5997C22.912 33.1991 22.8279 32.7919 22.6192 32.4457C22.5827 32.3873 22.544 32.3304 22.4973 32.2595C22.6316 32.1502 22.7578 32.0621 22.8673 31.953C22.9438 31.8824 23.0003 31.7929 23.0311 31.6934C23.0396 31.6496 23.0383 31.6044 23.0273 31.5611C23.0163 31.5177 22.9959 31.4774 22.9675 31.4429C22.9292 31.4298 22.888 31.428 22.8487 31.4377C22.8094 31.4474 22.7737 31.4682 22.7459 31.4976C22.6212 31.6992 22.4219 31.8432 22.1915 31.8984C22.0823 31.9278 21.9571 31.9944 21.9178 31.7908C21.8734 31.5611 21.9266 31.4846 22.1064 31.427C22.2632 31.3856 22.4087 31.3094 22.532 31.2041C22.7224 31.0197 22.7404 30.7533 22.6988 30.4836C22.6567 30.2872 22.6294 30.0879 22.6172 29.8874C22.6172 29.3187 23.0147 29.0583 23.461 29.3208C23.5952 29.3943 23.7105 29.498 23.7976 29.6239C23.8847 29.7497 23.9413 29.8942 23.9627 30.0457C23.9958 30.2573 24.0927 30.3147 24.2755 30.283C24.4361 30.2622 24.5988 30.2978 24.736 30.3838C24.8732 30.4697 24.9762 30.6007 25.0275 30.7542C25.1002 30.9633 25.0501 31.0025 24.8354 31.0318C24.6496 31.0584 24.468 31.1086 24.2949 31.1811C24.0045 31.3005 23.8645 31.2326 23.814 30.8958C23.795 30.7688 23.7638 30.6659 23.6289 30.6729C23.4972 30.6801 23.463 30.7852 23.4538 30.9118C23.4356 31.1645 23.5076 31.372 23.7102 31.4958C23.8547 31.5844 23.8716 31.6909 23.8465 31.8687C23.823 32.0803 23.8292 32.2942 23.8648 32.5042C23.8732 32.5633 23.9919 32.6379 24.0633 32.6426C24.1815 32.6502 24.1959 32.534 24.1863 32.4239C24.1832 32.388 24.1791 32.3522 24.1748 32.3163C24.0957 31.6455 24.619 31.1947 25.176 31.4663C25.1759 31.4669 26.0294 31.7165 25.9209 33.1336ZM25.727 31.366C25.6779 31.3256 25.6371 31.2762 25.6068 31.2204C25.4921 31.0304 25.3982 30.8286 25.3269 30.6184C25.2021 30.2328 24.9786 29.994 24.6253 29.9325C24.3919 29.8919 24.2538 29.7739 24.1488 29.5328C23.949 29.074 23.5927 28.8299 23.1431 28.8123C22.8417 28.7936 22.5391 28.8214 22.2461 28.8946C21.7531 29.0311 21.5391 29.39 21.5391 29.957C21.5391 32.0869 21.5391 34.2166 21.5391 36.3464C21.5391 36.44 21.5412 36.5342 21.5494 36.6272C21.6094 37.305 22.1418 37.6793 22.7286 37.4778C22.8864 37.4264 23.0538 37.4119 23.2181 37.4353C23.8039 37.5167 24.2949 37.3324 24.7048 36.8524C24.8206 36.7328 24.9472 36.6242 25.0831 36.528L25.5954 36.1298C25.5954 36.1298 26.3562 35.4337 26.13 33.7587C26.1305 33.7587 26.7249 32.1295 25.727 31.366Z" fill="url(#paint17_linear_1779_7001)"/>
<path d="M24.9462 34.1664C24.7189 34.1962 24.4882 34.1849 24.2649 34.1329C23.9364 34.0692 23.714 34.1422 23.5588 34.4201C23.2928 34.8971 23.4731 35.3962 23.9606 35.5313C24.0682 35.5611 24.1617 35.6047 24.1392 35.7596C24.1185 35.9019 24.0316 35.9411 23.915 35.9396C23.7417 35.9318 23.5754 35.8688 23.4404 35.7598C23.3054 35.6508 23.2088 35.5015 23.1647 35.3337C23.0332 34.8698 23.0508 34.4125 23.3548 34.0317C23.6477 33.6648 24.0259 33.65 24.4221 33.7751C24.4468 33.7827 24.4718 33.7897 24.4966 33.7974C24.8047 33.8942 25.0262 33.7969 25.1231 33.5221C25.247 33.171 25.1622 32.8857 24.8815 32.7093C24.8311 32.6777 24.7466 32.6644 24.736 32.6107C24.6668 32.2607 25.0216 32.3454 25.0216 32.3454C25.7786 32.7264 25.5071 33.628 25.5071 33.628C25.3466 34.1303 24.9462 34.1664 24.9462 34.1664Z" fill="url(#paint18_linear_1779_7001)"/>
<path d="M21.8598 30.0628C21.8653 29.7522 22.0204 29.555 22.3378 29.4683C22.307 29.9269 22.2775 30.3646 22.2475 30.8023C22.2432 30.867 22.2563 30.9514 22.2252 30.9916C22.1702 31.0705 22.0933 31.1315 22.0041 31.1672C21.9742 31.1763 21.8717 31.0437 21.8677 30.9713C21.8511 30.6694 21.8545 30.3657 21.8598 30.0628Z" fill="#082133"/>
<path d="M21.8615 34.8879C21.8625 34.6521 22.0194 34.5411 22.2037 34.6547C22.2622 34.6887 22.3075 34.7413 22.3325 34.8041C22.3576 34.8669 22.3608 34.9363 22.3417 35.0011C22.2926 35.2326 22.2444 35.4653 22.1776 35.6908C22.0133 36.2452 21.9965 36.768 22.4186 37.2183C22.0597 37.2463 21.8653 37.059 21.8623 36.6944C21.858 36.0922 21.859 35.4899 21.8615 34.8879Z" fill="#082133"/>
<path d="M44.6399 30.9321C44.6399 30.9321 44.6399 29.4536 42.1757 30.7349C39.7114 32.0163 40.1548 36.7272 41.9785 35.4806C43.8023 34.234 43.3092 34.2342 43.3092 34.2342C43.3092 34.2342 43.4078 37.7827 46.0691 33.9385L46.562 32.657C46.562 32.657 44.5906 35.5159 44.6892 34.037C44.7626 33.0948 44.9616 32.1666 45.2809 31.2771C45.2809 31.2771 44.5909 30.7842 43.9009 31.2771C43.9009 31.2771 43.5474 33.1091 43.4081 33.2485C43.2602 33.3963 41.9295 35.417 41.9295 33.8399C41.9295 32.2627 43.753 30.1433 44.5416 30.9321H44.6399Z" fill="#082133"/>
<path d="M50.494 31.5305C50.5105 31.5359 50.5257 31.5446 50.5386 31.5561C50.5516 31.5676 50.562 31.5817 50.5692 31.5975M48.4719 34.217C48.6328 34.5403 48.7854 34.8898 48.9298 35.2657C49.0759 35.6476 49.2024 36.0366 49.3086 36.4314C49.4177 36.8371 49.5039 37.2487 49.5667 37.6641C49.6298 38.0747 49.6618 38.4894 49.6625 38.9048C49.6626 39.0605 49.6343 39.2148 49.5791 39.3603C49.5239 39.5072 49.4388 39.6409 49.3291 39.753C49.2123 39.8709 49.0735 39.9646 48.9206 40.0288C48.7435 40.1015 48.5534 40.1371 48.362 40.1333C48.094 40.1366 47.8328 40.0497 47.62 39.8868C47.3893 39.7064 47.1966 39.482 47.053 39.2266C46.8801 38.9233 46.743 38.601 46.6446 38.266C46.5307 37.8897 46.4374 37.5074 46.3654 37.1209C46.2903 36.7225 46.2305 36.32 46.1861 35.9135C46.1417 35.5069 46.1083 35.1197 46.0862 34.7519L46.0527 32.3119C46.0771 31.4617 46.1707 30.6149 46.3327 29.7799C46.4658 29.0908 46.6616 28.4154 46.9176 27.7619C47.1273 27.2253 47.3963 26.7139 47.7197 26.2371C47.9837 25.8475 48.2921 25.4899 48.6389 25.1717C48.9155 24.9155 49.2315 24.7053 49.5747 24.5492C49.8463 24.424 50.1407 24.3557 50.4397 24.3486C50.6056 24.3485 50.77 24.3798 50.9243 24.4409C51.082 24.5033 51.2244 24.5988 51.3421 24.7209C51.471 24.8564 51.5706 25.0171 51.6346 25.1928C51.7116 25.4101 51.7484 25.6395 51.7432 25.8698C51.7422 26.2817 51.6643 26.6898 51.5134 27.073C51.3546 27.4791 51.1529 27.8671 50.9118 28.2304C50.6598 28.6114 50.376 28.9703 50.0636 29.3035C49.7459 29.6433 49.4242 29.9595 49.0984 30.2519C48.7727 30.5444 48.4552 30.809 48.1459 31.0457C47.8367 31.2826 47.5651 31.4817 47.3312 31.6432C47.3256 31.7267 47.3228 31.8103 47.3229 31.8939V32.1529L47.3017 32.3121H49.6674L49.4633 32.8049H47.6957L47.8638 33.1431C48.058 33.3971 48.2306 33.6669 48.38 33.9496M50.4227 24.6825C50.302 24.6975 50.1848 24.7329 50.0759 24.787C49.8697 24.8844 49.6795 25.0126 49.5118 25.1673C49.2624 25.3926 49.037 25.6432 48.8392 25.915C48.5695 26.2882 48.3451 26.6922 48.1705 27.1183C47.937 27.6843 47.7552 28.2702 47.6274 28.869C47.4601 29.6559 47.3581 30.4553 47.3224 31.2591C47.5452 31.0977 47.8 30.9056 48.087 30.6827C48.374 30.4598 48.6678 30.2119 48.9686 29.9389C49.2694 29.6661 49.5647 29.3722 49.8544 29.0573C50.1394 28.7485 50.3992 28.4174 50.6315 28.0671C50.8553 27.731 51.0404 27.3707 51.1834 26.9931C51.3205 26.6342 51.3912 26.2535 51.3922 25.8693C51.3933 25.7153 51.3722 25.5619 51.3295 25.4139C51.2908 25.2779 51.2271 25.1504 51.1416 25.0378C51.0596 24.9306 50.9556 24.8423 50.8366 24.7788C50.7088 24.7128 50.5667 24.6798 50.4229 24.6826L50.4227 24.6825ZM47.2593 34.9173C47.4002 35.7622 47.6236 36.1612 47.7406 36.7406C47.8376 37.2418 47.9631 37.737 48.1166 38.2238C48.2164 38.5559 48.3538 38.8755 48.5261 39.1764C48.6652 39.4022 48.7933 39.515 48.9104 39.515C48.9598 39.5142 49.0088 39.5072 49.0564 39.4941C49.1131 39.4779 49.1648 39.4477 49.2068 39.4063C49.2586 39.355 49.2998 39.2939 49.328 39.2266C49.3653 39.1294 49.3824 39.0256 49.3782 38.9216C49.3773 38.5325 49.3451 38.1441 49.2821 37.7601C49.2176 37.3632 49.1325 36.97 49.0272 36.5819C48.9213 36.1919 48.8001 35.8145 48.6637 35.4497C48.5273 35.0848 48.3866 34.7464 48.2416 34.4344C48.2416 34.4344 47.7942 33.3969 47.5971 33.298C47.3999 33.199 46.9073 33.3965 47.2593 34.9173Z" fill="#082133"/>
<path d="M66.4125 31.5304L64.1082 32.5585C64.1082 32.5585 60.8061 31.1291 60.6278 29.8132C60.4771 28.7012 61.644 26.5458 64.1082 26.053C66.5725 25.5601 63.7375 28.9268 63.7375 28.9268L63.8712 29.8136C63.8712 29.8136 65.6854 29.2075 65.7839 26.2504C65.8042 25.6419 65.4372 25.1786 64.8815 24.9657C64.2077 24.7076 63.4255 24.7728 62.7391 24.942C61.8862 25.1502 61.095 25.5586 60.4312 26.1332C59.7199 26.7419 59.2284 27.5676 59.0325 28.4831C58.968 28.8081 58.9411 29.1395 58.9524 29.4706C58.9707 30.046 59.0534 30.5426 59.427 30.9892C59.7379 31.3443 60.0913 31.6598 60.4792 31.9287C60.7619 32.1339 61.0556 32.3238 61.3549 32.5037C61.5354 32.6121 61.718 32.7171 61.9027 32.8188C62.0035 32.8743 62.1048 32.9289 62.2065 32.9826C62.2557 33.0086 62.4852 33.1678 62.5313 33.1507C62.5313 33.1507 58.2928 34.7278 58.687 36.7978C59.0813 38.8677 63.6939 38.1077 64.6404 36.0727C65.5869 34.0378 64.6404 32.9476 64.6404 32.9476L66.4425 32.2415L66.4125 31.5304ZM61.482 36.9206C59.0034 37.2905 59.5249 36.255 59.792 35.6376C60.0591 35.0203 63.1719 33.5934 63.1719 33.5934C63.1719 33.5934 63.9604 36.5505 61.482 36.9206Z" fill="#082133"/>
<path d="M70.2293 32.4162C70.1845 32.6752 70.1191 32.9607 70.0329 33.2727C69.9467 33.5846 69.8423 33.9064 69.7195 34.2378C69.6058 34.5505 69.4646 34.8526 69.2975 35.1403C69.1564 35.3882 68.979 35.6136 68.7711 35.8089C68.6078 35.9723 68.3879 36.0665 68.157 36.0721C67.9872 36.0638 67.8272 35.9905 67.7099 35.8674C67.5407 35.7025 67.3983 35.5122 67.2878 35.3033C67.139 35.0293 67.0146 34.7427 66.916 34.4469C66.7955 34.0925 66.6964 33.7311 66.6194 33.3648C66.533 32.9575 66.4675 32.5461 66.423 32.1322C66.3394 31.3686 66.2496 30.5554 66.4147 29.7882C66.7199 28.3694 66.5107 29.5124 66.5777 29.1111L65.4385 29.0593V28.3318C65.5973 28.3067 66.3851 28.3843 66.6191 28.3677C66.6806 28 66.7488 27.6463 66.8238 27.3065C66.8988 26.9667 66.9726 26.6659 67.0453 26.404C67.1014 26.1913 67.1698 25.982 67.25 25.7772C67.314 25.6213 67.3655 25.5434 67.4046 25.5432C67.4858 25.5469 67.5661 25.5625 67.6428 25.5893C67.7476 25.6241 67.8442 25.6795 67.9272 25.7523C68.0253 25.8385 68.1049 25.9437 68.1611 26.0615C68.2296 26.2107 68.2625 26.3739 68.2573 26.538C68.2502 26.8007 68.2193 27.0622 68.165 27.3193C68.1035 27.6397 68.0339 27.9976 67.9561 28.393H69.9725V29.0596L68.1849 29.1046C68.1116 29.1064 68.0406 29.1306 67.9815 29.174C67.9224 29.2174 67.878 29.2779 67.8544 29.3473C67.8006 29.5062 67.7526 29.5462 67.7096 29.8596C67.6516 30.2791 67.6222 30.7021 67.6218 31.1256C67.6218 31.3261 67.626 31.5754 67.6344 31.8734C67.6427 32.1715 67.6581 32.4876 67.6805 32.8219C67.7027 33.1561 67.7334 33.4903 67.7727 33.8245C67.8064 34.1279 67.8566 34.4292 67.9232 34.7271C67.9695 34.9508 68.0424 35.1682 68.1404 35.3746C68.2239 35.539 68.3241 35.6211 68.4412 35.6212C68.5582 35.6212 68.6807 35.5446 68.8088 35.3914C68.9549 35.2099 69.0796 35.0122 69.1807 34.8023C69.3087 34.5431 69.4216 34.2766 69.5188 34.0043C69.6246 33.7117 69.7179 33.4262 69.7987 33.1478C69.8796 32.8694 69.9436 32.6117 69.9909 32.3748" fill="#082133"/>
<path d="M53.2159 30.9321C53.2159 30.9321 53.2159 29.4536 50.7518 30.7349C48.2876 32.0163 48.731 36.727 50.5546 35.4806C52.3781 34.2342 51.8852 34.2342 51.8852 34.2342C51.8852 34.2342 52.2796 37.7827 54.941 33.9385V32.657C54.941 32.657 53.1667 35.5159 53.2656 34.037C53.339 33.0948 53.538 32.1666 53.8573 31.2771C53.8573 31.2771 53.1674 30.7842 52.4774 31.2771C52.4774 31.2771 52.1239 33.1091 51.9845 33.2485C51.8367 33.3963 50.506 35.417 50.506 33.8399C50.506 32.2627 52.3295 30.1433 53.1181 30.9321H53.2159Z" fill="#082133"/>
<path d="M73.6193 30.9321C73.6193 30.9321 73.6193 29.4536 71.1551 30.7349C68.6908 32.0163 69.1344 36.727 70.9579 35.4806C72.7815 34.2342 72.2886 34.2342 72.2886 34.2342C72.2886 34.2342 72.3872 37.7827 75.0485 33.9385L75.3443 32.657C75.3443 32.657 73.57 35.5159 73.6689 34.037C73.7423 33.0948 73.9414 32.1666 74.2607 31.2771C74.2607 31.2771 73.5706 30.7842 72.8806 31.2771C72.8806 31.2771 72.5271 33.1091 72.3878 33.2485C72.2399 33.3963 70.9092 35.417 70.9092 33.8399C70.9092 32.2627 72.7328 30.1433 73.5213 30.9321H73.6193Z" fill="#082133"/>
<path d="M79.14 30.2422C78.9428 29.5522 77.6614 30.1646 77.6614 30.1646V31.7208C77.6614 31.7208 76.38 34.2836 76.0369 34.1869C75.6939 34.0903 76.38 30.8337 76.38 30.3408C76.38 29.848 75.2958 30.1437 75.2958 30.1437C75.2958 30.1437 73.9651 33.9386 75.2343 34.7237C76.5035 35.5087 77.8088 32.6572 77.8088 32.6572L77.6117 33.9386C77.6117 33.9386 72.5846 38.8672 75.7021 39.5327C79.475 40.338 79.3371 30.9323 79.14 30.2422ZM75.6311 38.848C74.1026 37.3194 77.6025 35.2009 77.6025 35.2009C77.6025 35.2009 76.7154 39.9321 75.6311 38.848Z" fill="#082133"/>
<path d="M58.5983 32.4163C58.5537 32.6754 58.4883 32.9609 58.402 33.2728C58.3157 33.5848 58.2113 33.9065 58.0886 34.238C57.9749 34.5507 57.8337 34.8527 57.6667 35.1405C57.5256 35.3884 57.3481 35.6138 57.1402 35.8091C56.9769 35.9725 56.757 36.0667 56.5261 36.0723C56.3563 36.064 56.1963 35.9907 56.079 35.8676C55.9098 35.7027 55.7674 35.5124 55.657 35.3035C55.5081 35.0295 55.3837 34.7429 55.2852 34.4471C55.1646 34.0927 55.0655 33.7313 54.9885 33.365C54.9021 32.9577 54.8366 32.5463 54.7922 32.1323C54.7443 31.6925 54.7205 31.2503 54.7211 30.8079C54.7211 30.5071 54.7036 30.1612 54.7838 29.7884C55.089 28.3696 54.8799 29.5126 54.9468 29.1114L53.8076 29.0596V28.332C53.9665 28.3069 54.7543 28.3846 54.9882 28.3679C55.0497 28.0003 55.1179 27.6465 55.1929 27.3067C55.2678 26.967 55.3417 26.6661 55.4144 26.4042C55.4706 26.1915 55.5389 25.9822 55.6191 25.7774C55.6831 25.6216 55.7346 25.5436 55.7736 25.5435C55.8549 25.5472 55.9351 25.5627 56.0119 25.5896C56.1166 25.6243 56.2133 25.6797 56.2962 25.7526C56.3944 25.8387 56.474 25.9439 56.5302 26.0617C56.5987 26.211 56.6316 26.3741 56.6263 26.5382C56.6192 26.8009 56.5884 27.0624 56.5341 27.3195C56.4726 27.6399 56.403 27.9978 56.3251 28.3933H58.3415V29.0599L56.5539 29.1048C56.4806 29.1066 56.4096 29.1308 56.3505 29.1742C56.2914 29.2176 56.2471 29.2781 56.2235 29.3475C56.1697 29.5064 56.1216 29.5464 56.0787 29.8598C56.0206 30.2793 55.9912 30.7023 55.9908 31.1258C55.9908 31.3264 55.995 31.5756 56.0034 31.8737C56.0118 32.1717 56.0272 32.4878 56.0495 32.8221C56.0718 33.1564 56.1026 33.4906 56.1418 33.8248C56.1754 34.1281 56.2256 34.4294 56.2922 34.7273C56.3386 34.951 56.4116 35.1684 56.5096 35.3748C56.5931 35.5391 56.6933 35.6213 56.8104 35.6213C56.9274 35.6214 57.0499 35.5448 57.178 35.3916C57.3241 35.2101 57.4488 35.0124 57.5498 34.8025C57.678 34.5432 57.791 34.2768 57.8884 34.0045C57.9941 33.7119 58.0874 33.4264 58.1683 33.1479C58.2491 32.8695 58.3132 32.6119 58.3604 32.375" fill="#082133"/>
<path d="M35.0832 28.0318C34.6434 29.4389 33.3516 33.7811 33.4639 35.8959C33.5052 36.6722 34.5475 36.9465 34.9419 36.2767C34.9552 36.2541 34.968 36.2304 34.9803 36.2057C35.3184 35.5294 35.3666 33.621 35.3735 33.091C35.3735 33.0857 35.3753 33.0807 35.3787 33.0767C35.3822 33.0727 35.3869 33.07 35.3921 33.0692C35.3973 33.0684 35.4026 33.0695 35.4071 33.0723C35.4115 33.0751 35.4149 33.0794 35.4164 33.0844C35.741 34.0633 37.9864 40.1087 43.1492 37.4935C43.1529 37.4916 43.156 37.4887 43.1582 37.4852C43.1604 37.4817 43.1616 37.4776 43.1616 37.4734V36.9651C43.1617 36.9612 43.1607 36.9573 43.1588 36.9539C43.1568 36.9504 43.154 36.9476 43.1506 36.9456C43.1472 36.9437 43.1433 36.9427 43.1393 36.9428C43.1354 36.9428 43.1315 36.944 43.1282 36.946C42.8857 37.1009 41.3715 37.9968 40.1059 37.0929C38.726 36.1072 37.2199 32.7723 36.8397 32.8626C36.4595 32.9529 42.1348 31.75 41.0232 27.9964C39.8141 23.9151 35.4396 26.089 35.0753 26.2784C35.0723 26.2799 35.0698 26.2822 35.0679 26.2848C35.0659 26.2875 35.0646 26.2906 35.064 26.2939C35.0635 26.2972 35.0637 26.3006 35.0646 26.3037C35.0656 26.3069 35.0673 26.3099 35.0695 26.3123L35.536 26.8469C35.5391 26.8505 35.5433 26.8531 35.5479 26.8541C35.5526 26.8551 35.5574 26.8546 35.5618 26.8526C35.8068 26.7373 39.0407 25.2671 39.5149 27.8273C40.0037 30.4673 36.118 32.5795 35.6275 32.1535C35.624 32.1504 35.6217 32.1463 35.6207 32.1418C35.6197 32.1372 35.6202 32.1325 35.622 32.1283C35.738 31.8419 37.5235 27.3703 35.9206 27.3853C35.7307 27.3913 35.5476 27.457 35.3973 27.573C35.2469 27.6891 35.137 27.8496 35.0832 28.0318Z" fill="#082133"/>
</g>
<defs>
<linearGradient id="paint0_linear_1779_7001" x1="19.2227" y1="31.9082" x2="29.378" y2="31.9082" gradientUnits="userSpaceOnUse">
<stop stop-color="#A56C0B"/>
<stop offset="0.172" stop-color="#E0C35C"/>
<stop offset="0.253" stop-color="#F8E67D"/>
<stop offset="0.459" stop-color="#D7B750"/>
<stop offset="0.566" stop-color="#C9A33D"/>
<stop offset="0.661" stop-color="#CEAB44"/>
<stop offset="0.807" stop-color="#DDC059"/>
<stop offset="0.985" stop-color="#F6E37A"/>
<stop offset="1" stop-color="#F8E67D"/>
</linearGradient>
<linearGradient id="paint1_linear_1779_7001" x1="20.3132" y1="26.3917" x2="21.65" y2="26.3917" gradientUnits="userSpaceOnUse">
<stop stop-color="#A56C0B"/>
<stop offset="0.172" stop-color="#E0C35C"/>
<stop offset="0.253" stop-color="#F8E67D"/>
<stop offset="0.459" stop-color="#D7B750"/>
<stop offset="0.566" stop-color="#C9A33D"/>
<stop offset="0.661" stop-color="#CEAB44"/>
<stop offset="0.807" stop-color="#DDC059"/>
<stop offset="0.985" stop-color="#F6E37A"/>
<stop offset="1" stop-color="#F8E67D"/>
</linearGradient>
<linearGradient id="paint2_linear_1779_7001" x1="19.9337" y1="26.658" x2="20.4839" y2="26.658" gradientUnits="userSpaceOnUse">
<stop stop-color="#A56C0B"/>
<stop offset="0.172" stop-color="#E0C35C"/>
<stop offset="0.253" stop-color="#F8E67D"/>
<stop offset="0.459" stop-color="#D7B750"/>
<stop offset="0.566" stop-color="#C9A33D"/>
<stop offset="0.661" stop-color="#CEAB44"/>
<stop offset="0.807" stop-color="#DDC059"/>
<stop offset="0.985" stop-color="#F6E37A"/>
<stop offset="1" stop-color="#F8E67D"/>
</linearGradient>
<linearGradient id="paint3_linear_1779_7001" x1="17.7016" y1="23.8072" x2="18.8291" y2="23.8072" gradientUnits="userSpaceOnUse">
<stop stop-color="#A56C0B"/>
<stop offset="0.172" stop-color="#E0C35C"/>
<stop offset="0.253" stop-color="#F8E67D"/>
<stop offset="0.459" stop-color="#D7B750"/>
<stop offset="0.566" stop-color="#C9A33D"/>
<stop offset="0.661" stop-color="#CEAB44"/>
<stop offset="0.807" stop-color="#DDC059"/>
<stop offset="0.985" stop-color="#F6E37A"/>
<stop offset="1" stop-color="#F8E67D"/>
</linearGradient>
<linearGradient id="paint4_linear_1779_7001" x1="29.0176" y1="35.7345" x2="29.141" y2="35.7345" gradientUnits="userSpaceOnUse">
<stop stop-color="#A56C0B"/>
<stop offset="0.172" stop-color="#E0C35C"/>
<stop offset="0.253" stop-color="#F8E67D"/>
<stop offset="0.459" stop-color="#D7B750"/>
<stop offset="0.566" stop-color="#C9A33D"/>
<stop offset="0.661" stop-color="#CEAB44"/>
<stop offset="0.807" stop-color="#DDC059"/>
<stop offset="0.985" stop-color="#F6E37A"/>
<stop offset="1" stop-color="#F8E67D"/>
</linearGradient>
<linearGradient id="paint5_linear_1779_7001" x1="25.209" y1="39.9028" x2="26.6557" y2="39.9028" gradientUnits="userSpaceOnUse">
<stop stop-color="#A56C0B"/>
<stop offset="0.172" stop-color="#E0C35C"/>
<stop offset="0.253" stop-color="#F8E67D"/>
<stop offset="0.459" stop-color="#D7B750"/>
<stop offset="0.566" stop-color="#C9A33D"/>
<stop offset="0.661" stop-color="#CEAB44"/>
<stop offset="0.807" stop-color="#DDC059"/>
<stop offset="0.985" stop-color="#F6E37A"/>
<stop offset="1" stop-color="#F8E67D"/>
</linearGradient>
<linearGradient id="paint6_linear_1779_7001" x1="19.3099" y1="21.7485" x2="22.5692" y2="21.7485" gradientUnits="userSpaceOnUse">
<stop stop-color="#A56C0B"/>
<stop offset="0.172" stop-color="#E0C35C"/>
<stop offset="0.253" stop-color="#F8E67D"/>
<stop offset="0.459" stop-color="#D7B750"/>
<stop offset="0.566" stop-color="#C9A33D"/>
<stop offset="0.661" stop-color="#CEAB44"/>
<stop offset="0.807" stop-color="#DDC059"/>
<stop offset="0.985" stop-color="#F6E37A"/>
<stop offset="1" stop-color="#F8E67D"/>
</linearGradient>
<linearGradient id="paint7_linear_1779_7001" x1="5.0223" y1="32.3594" x2="15.493" y2="33.7115" gradientUnits="userSpaceOnUse">
<stop stop-color="#A56C0B"/>
<stop offset="0.172" stop-color="#E0C35C"/>
<stop offset="0.253" stop-color="#F8E67D"/>
<stop offset="0.459" stop-color="#D7B750"/>
<stop offset="0.566" stop-color="#C9A33D"/>
<stop offset="0.661" stop-color="#CEAB44"/>
<stop offset="0.807" stop-color="#DDC059"/>
<stop offset="0.985" stop-color="#F6E37A"/>
<stop offset="1" stop-color="#F8E67D"/>
</linearGradient>
<linearGradient id="paint8_linear_1779_7001" x1="14.6223" y1="22.9811" x2="17.8089" y2="22.9811" gradientUnits="userSpaceOnUse">
<stop stop-color="#A56C0B"/>
<stop offset="0.172" stop-color="#E0C35C"/>
<stop offset="0.253" stop-color="#F8E67D"/>
<stop offset="0.459" stop-color="#D7B750"/>
<stop offset="0.566" stop-color="#C9A33D"/>
<stop offset="0.661" stop-color="#CEAB44"/>
<stop offset="0.807" stop-color="#DDC059"/>
<stop offset="0.985" stop-color="#F6E37A"/>
<stop offset="1" stop-color="#F8E67D"/>
</linearGradient>
<linearGradient id="paint9_linear_1779_7001" x1="6.47363" y1="31.4585" x2="14.8493" y2="31.4585" gradientUnits="userSpaceOnUse">
<stop stop-color="#A56C0B"/>
<stop offset="0.172" stop-color="#E0C35C"/>
<stop offset="0.253" stop-color="#F8E67D"/>
<stop offset="0.459" stop-color="#D7B750"/>
<stop offset="0.566" stop-color="#C9A33D"/>
<stop offset="0.661" stop-color="#CEAB44"/>
<stop offset="0.807" stop-color="#DDC059"/>
<stop offset="0.985" stop-color="#F6E37A"/>
<stop offset="1" stop-color="#F8E67D"/>
</linearGradient>
<linearGradient id="paint10_linear_1779_7001" x1="6.47363" y1="34.8007" x2="14.8493" y2="34.8007" gradientUnits="userSpaceOnUse">
<stop stop-color="#A56C0B"/>
<stop offset="0.172" stop-color="#E0C35C"/>
<stop offset="0.253" stop-color="#F8E67D"/>
<stop offset="0.459" stop-color="#D7B750"/>
<stop offset="0.566" stop-color="#C9A33D"/>
<stop offset="0.661" stop-color="#CEAB44"/>
<stop offset="0.807" stop-color="#DDC059"/>
<stop offset="0.985" stop-color="#F6E37A"/>
<stop offset="1" stop-color="#F8E67D"/>
</linearGradient>
<linearGradient id="paint11_linear_1779_7001" x1="12.6973" y1="30.608" x2="13.5798" y2="30.608" gradientUnits="userSpaceOnUse">
<stop stop-color="#A56C0B"/>
<stop offset="0.172" stop-color="#E0C35C"/>
<stop offset="0.253" stop-color="#F8E67D"/>
<stop offset="0.459" stop-color="#D7B750"/>
<stop offset="0.566" stop-color="#C9A33D"/>
<stop offset="0.661" stop-color="#CEAB44"/>
<stop offset="0.807" stop-color="#DDC059"/>
<stop offset="0.985" stop-color="#F6E37A"/>
<stop offset="1" stop-color="#F8E67D"/>
</linearGradient>
<linearGradient id="paint12_linear_1779_7001" x1="7.75195" y1="30.608" x2="8.63452" y2="30.608" gradientUnits="userSpaceOnUse">
<stop stop-color="#A56C0B"/>
<stop offset="0.172" stop-color="#E0C35C"/>
<stop offset="0.253" stop-color="#F8E67D"/>
<stop offset="0.459" stop-color="#D7B750"/>
<stop offset="0.566" stop-color="#C9A33D"/>
<stop offset="0.661" stop-color="#CEAB44"/>
<stop offset="0.807" stop-color="#DDC059"/>
<stop offset="0.985" stop-color="#F6E37A"/>
<stop offset="1" stop-color="#F8E67D"/>
</linearGradient>
<linearGradient id="paint13_linear_1779_7001" x1="16.6367" y1="33.1705" x2="21.4039" y2="33.1705" gradientUnits="userSpaceOnUse">
<stop stop-color="#A56C0B"/>
<stop offset="0.172" stop-color="#E0C35C"/>
<stop offset="0.253" stop-color="#F8E67D"/>
<stop offset="0.459" stop-color="#D7B750"/>
<stop offset="0.566" stop-color="#C9A33D"/>
<stop offset="0.661" stop-color="#CEAB44"/>
<stop offset="0.807" stop-color="#DDC059"/>
<stop offset="0.985" stop-color="#F6E37A"/>
<stop offset="1" stop-color="#F8E67D"/>
</linearGradient>
<linearGradient id="paint14_linear_1779_7001" x1="17.3886" y1="34.138" x2="19.8563" y2="34.138" gradientUnits="userSpaceOnUse">
<stop stop-color="#A56C0B"/>
<stop offset="0.172" stop-color="#E0C35C"/>
<stop offset="0.253" stop-color="#F8E67D"/>
<stop offset="0.459" stop-color="#D7B750"/>
<stop offset="0.566" stop-color="#C9A33D"/>
<stop offset="0.661" stop-color="#CEAB44"/>
<stop offset="0.807" stop-color="#DDC059"/>
<stop offset="0.985" stop-color="#F6E37A"/>
<stop offset="1" stop-color="#F8E67D"/>
</linearGradient>
<linearGradient id="paint15_linear_1779_7001" x1="22.3855" y1="30.1632" x2="21.9032" y2="30.1632" gradientUnits="userSpaceOnUse">
<stop stop-color="#A56C0B"/>
<stop offset="0.172" stop-color="#E0C35C"/>
<stop offset="0.253" stop-color="#F8E67D"/>
<stop offset="0.459" stop-color="#D7B750"/>
<stop offset="0.566" stop-color="#C9A33D"/>
<stop offset="0.661" stop-color="#CEAB44"/>
<stop offset="0.807" stop-color="#DDC059"/>
<stop offset="0.985" stop-color="#F6E37A"/>
<stop offset="1" stop-color="#F8E67D"/>
</linearGradient>
<linearGradient id="paint16_linear_1779_7001" x1="22.4664" y1="35.7544" x2="21.9072" y2="35.7544" gradientUnits="userSpaceOnUse">
<stop stop-color="#A56C0B"/>
<stop offset="0.172" stop-color="#E0C35C"/>
<stop offset="0.253" stop-color="#F8E67D"/>
<stop offset="0.459" stop-color="#D7B750"/>
<stop offset="0.566" stop-color="#C9A33D"/>
<stop offset="0.661" stop-color="#CEAB44"/>
<stop offset="0.807" stop-color="#DDC059"/>
<stop offset="0.985" stop-color="#F6E37A"/>
<stop offset="1" stop-color="#F8E67D"/>
</linearGradient>
<linearGradient id="paint17_linear_1779_7001" x1="26.3061" y1="33.1705" x2="21.5391" y2="33.1705" gradientUnits="userSpaceOnUse">
<stop stop-color="#A56C0B"/>
<stop offset="0.172" stop-color="#E0C35C"/>
<stop offset="0.253" stop-color="#F8E67D"/>
<stop offset="0.459" stop-color="#D7B750"/>
<stop offset="0.566" stop-color="#C9A33D"/>
<stop offset="0.661" stop-color="#CEAB44"/>
<stop offset="0.807" stop-color="#DDC059"/>
<stop offset="0.985" stop-color="#F6E37A"/>
<stop offset="1" stop-color="#F8E67D"/>
</linearGradient>
<linearGradient id="paint18_linear_1779_7001" x1="25.5547" y1="34.138" x2="23.0871" y2="34.138" gradientUnits="userSpaceOnUse">
<stop stop-color="#A56C0B"/>
<stop offset="0.172" stop-color="#E0C35C"/>
<stop offset="0.253" stop-color="#F8E67D"/>
<stop offset="0.459" stop-color="#D7B750"/>
<stop offset="0.566" stop-color="#C9A33D"/>
<stop offset="0.661" stop-color="#CEAB44"/>
<stop offset="0.807" stop-color="#DDC059"/>
<stop offset="0.985" stop-color="#F6E37A"/>
<stop offset="1" stop-color="#F8E67D"/>
</linearGradient>
<clipPath id="clip0_1779_7001">
<rect width="83" height="83" fill="white" transform="translate(0 -8.5)"/>
</clipPath>
</defs>
</svg>
