<svg width="16" height="14" viewBox="0 0 16 14" fill="none" xmlns="http://www.w3.org/2000/svg">
<path d="M12.5282 5.74797V2.79784C12.5282 2.57209 12.3678 2.38053 12.1495 2.33784L8.20903 0.0628125C8.064 -0.0209375 7.88531 -0.0209375 7.74028 0.0628125L3.70613 2.39194C3.56109 2.47566 3.47175 2.63041 3.47175 2.79788V5.748C1.91741 6.23703 0 7.24638 0 8.875C0 10.2726 1.48163 11.4867 3.97828 12.1487L3.79203 13.0016C3.71216 13.3672 4.07456 13.6766 4.42409 13.5368L6.76784 12.5993C7.07791 12.4753 7.16284 12.0745 6.92812 11.8356L5.17812 10.0543C4.91775 9.78938 4.46525 9.91887 4.38578 10.2828L4.17856 11.2317C2.20031 10.6987 0.9375 9.78706 0.9375 8.875C0.9375 8.08297 1.89644 7.28291 3.47175 6.7355V7.45613C3.47175 7.62359 3.56109 7.77834 3.70613 7.86206L7.76562 10.2058C7.91066 10.2896 8.08934 10.2896 8.23438 10.2058L12.2939 7.86206C12.4389 7.77831 12.5282 7.62359 12.5282 7.45613V6.7355C14.1036 7.28291 15.0625 8.08297 15.0625 8.875C15.0625 10.6108 11.2501 11.492 9.37781 11.6464C9.11981 11.6677 8.92794 11.8941 8.94922 12.1521C8.97031 12.4076 9.19406 12.602 9.45497 12.5807C11.8956 12.3789 16 11.3243 16 8.875C16 7.24622 14.0821 6.23688 12.5282 5.74797ZM5.11678 11.3296L5.76594 11.9903L4.89653 12.3381L5.11678 11.3296ZM7.97466 1.01L11.0967 2.8125C10.7155 3.03256 8.25434 4.4535 8 4.60034C7.7225 4.44012 5.29441 3.03828 4.878 2.79784L7.97466 1.01ZM4.40925 3.60978L7.53125 5.41225V8.98797L4.40925 7.18547V3.60978ZM11.5907 7.18547L8.46875 8.98797V5.41225L11.5907 3.60978V7.18547Z" fill="#141005"/>
</svg>
