<svg width="14" height="16" viewBox="0 0 14 16" fill="none" xmlns="http://www.w3.org/2000/svg">
<path d="M10.2993 12.288H1.61432C0.960832 12.288 0.429188 11.6804 0.429188 10.9336V5.06662C0.429188 4.31977 0.960832 3.71218 1.61432 3.71218H2.93844C3.05695 3.71218 3.15304 3.6024 3.15304 3.46693C3.15304 3.33146 3.05695 3.22168 2.93844 3.22168H1.61432C0.724172 3.22168 0 4.0493 0 5.06662V10.9336C0 11.9509 0.724172 12.7785 1.61432 12.7785H10.2993C10.4178 12.7785 10.5139 12.6687 10.5139 12.5332C10.5139 12.3978 10.4178 12.288 10.2993 12.288Z" fill="#141005"/>
<path d="M12.3855 3.22168H3.79662C3.67812 3.22168 3.58203 3.33146 3.58203 3.46693C3.58203 3.6024 3.67812 3.71218 3.79662 3.71218H12.3855C13.039 3.71218 13.5706 4.31977 13.5706 5.06662V10.9336C13.5706 11.6804 13.039 12.288 12.3855 12.288H11.1575C11.039 12.288 10.9429 12.3978 10.9429 12.5332C10.9429 12.6687 11.039 12.7785 11.1575 12.7785H12.3855C13.2756 12.7785 13.9998 11.9509 13.9998 10.9336V5.06662C13.9998 4.0493 13.2756 3.22168 12.3855 3.22168Z" fill="#141005"/>
<path d="M12.3852 4.36621H1.61386C1.27592 4.36621 1.00098 4.68046 1.00098 5.06665V10.9336C1.00098 11.3198 1.27592 11.634 1.61386 11.634H12.3852C12.7232 11.634 12.9981 11.3198 12.9981 10.9336V5.06665C12.9981 4.68043 12.7232 4.36621 12.3852 4.36621ZM12.5689 10.9336C12.5689 11.0493 12.4865 11.1435 12.3852 11.1435H1.61386C1.51258 11.1435 1.43016 11.0493 1.43016 10.9336V9.99902H12.5689V10.9336ZM12.5689 9.50852H1.43016V6.49171H12.5689V9.50852ZM12.5689 6.00121H1.43016V5.06665C1.43016 4.9509 1.51258 4.85671 1.61386 4.85671H12.3852C12.4865 4.85671 12.5689 4.9509 12.5689 5.06665V6.00121Z" fill="#141005"/>
<path d="M2.74304 6.79102H2.2363L1.88379 9.30892H2.20169L2.26149 8.85211H2.68638L2.74618 9.30892H3.09555L2.74304 6.79102ZM2.30554 8.51036L2.47236 7.23702L2.63919 8.51036H2.30554Z" fill="#141005"/>
<path d="M4.188 7.96727C4.34222 7.88455 4.41146 7.71908 4.41146 7.46008V7.37014C4.41146 6.98167 4.25724 6.79102 3.89843 6.79102H3.37598V9.30892H3.92047C4.26667 9.30895 4.44607 9.10033 4.44607 8.71186V8.5068C4.4461 8.24064 4.37372 8.04998 4.188 7.96727ZM3.7222 7.15077H3.88903C4.01177 7.15077 4.06529 7.22989 4.06529 7.40977V7.55002C4.06529 7.75145 3.98659 7.81623 3.85755 7.81623H3.7222V7.15077ZM4.0999 8.70111C4.0999 8.88814 4.03696 8.9493 3.9205 8.9493H3.7222V8.17592H3.87642C4.03379 8.17592 4.09987 8.24786 4.09987 8.48167V8.70111H4.0999Z" fill="#141005"/>
<path d="M5.77745 7.63986V7.39527C5.77745 6.99239 5.6012 6.76221 5.26129 6.76221C4.92138 6.76221 4.74512 6.99243 4.74512 7.39527V8.70458C4.74512 9.10746 4.92135 9.33764 5.26129 9.33764C5.6012 9.33764 5.77745 9.10743 5.77745 8.70458V8.37008H5.45012V8.72977C5.45012 8.90961 5.38089 8.97433 5.27072 8.97433C5.16055 8.97433 5.09132 8.90961 5.09132 8.72977V7.37008C5.09132 7.19024 5.16055 7.12189 5.27072 7.12189C5.38089 7.12189 5.45012 7.19024 5.45012 7.37008V7.63986H5.77745Z" fill="#141005"/>
<path d="M7.3287 7.87012H6.69922V8.2298H7.3287V7.87012Z" fill="#141005"/>
<path d="M8.88673 6.79102C8.83322 6.96008 8.77342 7.10755 8.50586 7.10755V7.38811H8.77342V9.30892H9.11962V6.79102H8.88673Z" fill="#141005"/>
<path d="M10.0044 8.94918C10.0012 8.93118 10.0012 8.91321 10.0012 8.89521C10.0012 8.48155 10.6905 8.18658 10.6905 7.39527C10.6905 6.99239 10.5143 6.76221 10.1744 6.76221C9.83446 6.76221 9.6582 6.99243 9.6582 7.39527V7.63986H9.98551V7.37008C9.98551 7.19024 10.0547 7.12189 10.1649 7.12189C10.2751 7.12189 10.3443 7.18305 10.3443 7.40964C10.3443 8.13624 9.65823 8.25855 9.65823 8.99952V9.30886H10.6591V8.94918H10.659H10.0044Z" fill="#141005"/>
<path d="M12.0372 7.46002V7.39527C12.0372 6.99239 11.861 6.76221 11.5211 6.76221C11.1811 6.76221 11.0049 6.99243 11.0049 7.39527V7.53196H11.3322V7.37008C11.3322 7.19024 11.4014 7.12189 11.5116 7.12189C11.6218 7.12189 11.691 7.18305 11.691 7.40964V7.54989C11.691 7.75133 11.6123 7.81611 11.4833 7.81611H11.348V8.1758H11.4644C11.6218 8.1758 11.691 8.26218 11.691 8.49593V8.69377C11.691 8.91677 11.6218 8.97793 11.5116 8.97793C11.4015 8.97793 11.3322 8.90958 11.3322 8.72974V8.49593H11.0049V8.70455C11.0049 9.10743 11.1812 9.33761 11.5211 9.33761C11.861 9.33761 12.0372 9.10739 12.0372 8.70455V8.50671C12.0372 8.25133 11.968 8.06427 11.7949 7.97796C11.9617 7.89886 12.0372 7.7298 12.0372 7.46002Z" fill="#141005"/>
<path d="M3.52612 5.70193C3.65596 5.70193 3.76122 5.58163 3.76122 5.43324C3.76122 5.28485 3.65596 5.16455 3.52612 5.16455C3.39627 5.16455 3.29102 5.28485 3.29102 5.43324C3.29102 5.58163 3.39627 5.70193 3.52612 5.70193Z" fill="#141005"/>
<path d="M3.52612 10.8411C3.65596 10.8411 3.76122 10.7208 3.76122 10.5724C3.76122 10.424 3.65596 10.3037 3.52612 10.3037C3.39627 10.3037 3.29102 10.424 3.29102 10.5724C3.29102 10.7208 3.39627 10.8411 3.52612 10.8411Z" fill="#141005"/>
<path d="M10.4744 5.70193C10.6042 5.70193 10.7095 5.58163 10.7095 5.43324C10.7095 5.28485 10.6042 5.16455 10.4744 5.16455C10.3445 5.16455 10.2393 5.28485 10.2393 5.43324C10.2393 5.58163 10.3445 5.70193 10.4744 5.70193Z" fill="#141005"/>
<path d="M10.4744 10.8411C10.6042 10.8411 10.7095 10.7208 10.7095 10.5724C10.7095 10.424 10.6042 10.3037 10.4744 10.3037C10.3445 10.3037 10.2393 10.424 10.2393 10.5724C10.2393 10.7208 10.3445 10.8411 10.4744 10.8411Z" fill="#141005"/>
</svg>
