<svg width="32" height="32" viewBox="0 0 32 32" fill="none" xmlns="http://www.w3.org/2000/svg">
<path d="M15.772 15.4145C17.8896 15.4145 19.7231 14.655 21.2217 13.1565C22.7197 11.6582 23.4795 9.82493 23.4795 7.70702C23.4795 5.58983 22.72 3.75634 21.2214 2.25756C19.7229 0.75952 17.8894 0 15.772 0C13.6541 0 11.8208 0.75952 10.3225 2.25781C8.82422 3.7561 8.06445 5.58959 8.06445 7.70702C8.06445 9.82493 8.82422 11.6584 10.3225 13.1567C11.8213 14.6548 13.6548 15.4145 15.772 15.4145ZM11.6487 3.58373C12.7983 2.43408 14.147 1.87524 15.772 1.87524C17.3967 1.87524 18.7456 2.43408 19.8955 3.58373C21.0452 4.73363 21.6042 6.08251 21.6042 7.70702C21.6042 9.33201 21.0452 10.6806 19.8955 11.8305C18.7456 12.9804 17.3967 13.5393 15.772 13.5393C14.1475 13.5393 12.7988 12.9802 11.6487 11.8305C10.4988 10.6809 9.9397 9.33201 9.9397 7.70702C9.9397 6.08251 10.4988 4.73363 11.6487 3.58373Z" fill="black"/>
<path d="M29.2581 24.6062C29.2148 23.9826 29.1274 23.3025 28.9988 22.5842C28.8689 21.8606 28.7017 21.1765 28.5015 20.5513C28.2944 19.905 28.0134 19.2668 27.6655 18.6553C27.3049 18.0205 26.8811 17.4678 26.4055 17.0129C25.9082 16.5371 25.2993 16.1545 24.5952 15.8755C23.8936 15.5979 23.116 15.4573 22.2842 15.4573C21.9575 15.4573 21.6416 15.5913 21.0315 15.9885C20.656 16.2334 20.2168 16.5166 19.7266 16.8298C19.3074 17.0969 18.7395 17.3472 18.0381 17.5737C17.3538 17.7952 16.6589 17.9075 15.9729 17.9075C15.2874 17.9075 14.5925 17.7952 13.9077 17.5737C13.207 17.3474 12.6389 17.0972 12.2205 16.8301C11.7349 16.5198 11.2954 16.2366 10.9143 15.9883C10.3047 15.5911 9.98877 15.457 9.66211 15.457C8.83008 15.457 8.05273 15.5979 7.35132 15.8757C6.64771 16.1543 6.03857 16.5369 5.54077 17.0132C5.06519 17.4683 4.64136 18.0207 4.28101 18.6553C3.93359 19.2668 3.65234 19.9048 3.44531 20.5515C3.24536 21.1767 3.07812 21.8606 2.94824 22.5842C2.81934 23.3015 2.73218 23.9819 2.68896 24.6069C2.64648 25.218 2.625 25.854 2.625 26.4966C2.625 28.167 3.15601 29.5193 4.20312 30.5166C5.2373 31.5007 6.60547 31.9997 8.26978 31.9997H23.678C25.3418 31.9997 26.71 31.5007 27.7444 30.5166C28.7917 29.52 29.3228 28.1672 29.3228 26.4963C29.3225 25.8515 29.3008 25.2156 29.2581 24.6062ZM26.4514 29.1579C25.7681 29.8083 24.8608 30.1245 23.6777 30.1245H8.26978C7.08643 30.1245 6.1792 29.8083 5.49609 29.1582C4.82593 28.5202 4.50024 27.6494 4.50024 26.4966C4.50024 25.897 4.52002 25.3049 4.55957 24.7366C4.59814 24.1789 4.677 23.5664 4.79395 22.9155C4.90942 22.2727 5.0564 21.6694 5.2312 21.1233C5.39893 20.5996 5.62769 20.081 5.91138 19.5815C6.18213 19.1055 6.49365 18.697 6.8374 18.3679C7.15894 18.0601 7.56421 17.8081 8.04175 17.6191C8.4834 17.4443 8.97974 17.3486 9.51855 17.3342C9.58423 17.3691 9.70117 17.4358 9.89062 17.5593C10.2761 17.8105 10.7205 18.0972 11.2117 18.4109C11.7654 18.7639 12.4788 19.0828 13.3311 19.3579C14.2024 19.6396 15.0911 19.7827 15.9731 19.7827C16.8552 19.7827 17.7441 19.6396 18.615 19.3581C19.468 19.0825 20.1812 18.7639 20.7356 18.4104C21.2383 18.0891 21.6702 17.8108 22.0557 17.5593C22.2451 17.436 22.3621 17.3691 22.4277 17.3342C22.9668 17.3486 23.4631 17.4443 23.905 17.6191C24.3823 17.8081 24.7876 18.0603 25.1091 18.3679C25.4529 18.6968 25.7644 19.1052 26.0352 19.5818C26.3191 20.081 26.5481 20.5998 26.7156 21.123C26.8906 21.6699 27.0378 22.2729 27.1531 22.9153C27.2698 23.5674 27.3489 24.1802 27.3875 24.7368V24.7373C27.4272 25.3034 27.4473 25.8952 27.4475 26.4966C27.4473 27.6496 27.1216 28.5202 26.4514 29.1579Z" fill="black"/>
</svg>
