<svg width="16" height="16" viewBox="0 0 16 16" fill="none" xmlns="http://www.w3.org/2000/svg">
<g clip-path="url(#clip0_1932_8684)">
<path d="M11.7164 4.37187C11.7102 5.17812 11.4852 5.9625 11.0602 6.64062C10.2602 7.92188 8.88203 8.68437 7.37578 8.68437C5.86641 8.68437 4.49141 7.91875 3.69141 6.64062C3.26016 5.95312 3.03516 5.15938 3.03516 4.34375C3.03516 3.17812 3.49141 2.08437 4.31641 1.26562C5.13203 0.446875 6.21953 0 7.37578 0H7.40078C8.55703 0.00625 9.64453 0.465625 10.4633 1.29375C11.2789 2.12188 11.7258 3.21562 11.7164 4.37187ZM7.37578 0.884375C6.45703 0.884375 5.59141 1.24063 4.93828 1.89062C4.28203 2.54375 3.91953 3.41562 3.91953 4.34062C3.91953 4.99062 4.10078 5.62187 4.44141 6.16875C5.07891 7.1875 6.17578 7.79688 7.37578 7.79688C8.57578 7.79688 9.67266 7.1875 10.3102 6.16875C10.6477 5.62812 10.8289 5.00313 10.832 4.3625C10.8383 3.44375 10.482 2.57188 9.83203 1.9125C9.18203 1.25312 8.31641 0.8875 7.39453 0.88125C7.38828 0.884375 7.38203 0.884375 7.37578 0.884375Z" fill="#141005"/>
<path d="M11.4211 16C11.2711 16 11.1242 15.9406 11.0148 15.8313C10.8742 15.6906 10.818 15.4938 10.8586 15.3031L11.2117 13.6656C11.2336 13.5562 11.2898 13.4594 11.368 13.3781L13.7336 11.0125C13.9586 10.7875 14.3242 10.7875 14.5492 11.0125L15.8336 12.2969C15.943 12.4063 16.0023 12.55 16.0023 12.7031C16.0023 12.8563 15.943 13.0031 15.8336 13.1094L13.468 15.475C13.3898 15.5531 13.2898 15.6063 13.1805 15.6313L11.543 15.9844C11.5023 15.9969 11.4617 16 11.4211 16ZM12.0555 13.9406L11.8242 15.0188L12.9023 14.7844L14.9836 12.7031L14.1367 11.8563L12.0555 13.9406Z" fill="#141005"/>
<path d="M7.37493 15.1813C4.89993 15.1813 2.53431 14.4188 0.531184 12.9813C0.099934 12.6719 -0.093816 12.1188 0.043684 11.6032C0.224934 10.9313 0.499934 10.2844 0.862434 9.68755C1.97806 7.8313 4.23431 6.99067 6.34681 7.64692C6.67806 7.75005 7.02181 7.80005 7.37181 7.80005C7.72181 7.80005 8.06556 7.74692 8.39681 7.64692C10.2031 7.08755 12.1593 7.62192 13.3843 9.0063C13.4937 9.1313 13.5249 9.30942 13.4624 9.46255C13.3999 9.6188 13.2562 9.72505 13.0906 9.74067C11.1999 9.9063 9.72181 11.525 9.72181 13.425C9.72181 13.7657 9.76868 14.1063 9.85931 14.4313C9.89368 14.55 9.87493 14.6813 9.80931 14.7844C9.74368 14.8907 9.63743 14.9625 9.51243 14.9844C8.81243 15.1157 8.09368 15.1813 7.37493 15.1813ZM4.89993 8.30942C3.57181 8.30942 2.32181 8.97817 1.62181 10.1407C1.30306 10.6688 1.05931 11.2375 0.899934 11.8344C0.856184 11.9938 0.915559 12.1657 1.04681 12.2625C2.89681 13.5938 5.08431 14.2969 7.37181 14.2969C7.88118 14.2969 8.39368 14.2625 8.89993 14.1907C8.85618 13.9375 8.83743 13.6813 8.83743 13.425C8.83743 12.2719 9.26868 11.1688 10.0468 10.3219C10.6093 9.70942 11.3187 9.2688 12.0999 9.03442C11.1312 8.33755 9.85306 8.12192 8.65931 8.4938C8.24368 8.62192 7.80931 8.68755 7.37181 8.68755C6.93431 8.68755 6.49993 8.62192 6.08431 8.4938C5.69368 8.3688 5.29368 8.30942 4.89993 8.30942Z" fill="#141005"/>
</g>
<defs>
<clipPath id="clip0_1932_8684">
<rect width="16" height="16" fill="white"/>
</clipPath>
</defs>
</svg>
