<svg width="24" height="24" viewBox="0 0 24 24" fill="none" xmlns="http://www.w3.org/2000/svg">
<g clip-path="url(#clip0_1397_11721)">
<path fill-rule="evenodd" clip-rule="evenodd" d="M12 0C18.6269 0 24 5.37313 24 12C24 18.6269 18.6269 24 12 24C5.37313 24 0 18.6269 0 12C0 5.37313 5.37313 0 12 0ZM12 1.61194C17.7313 1.61194 22.3881 6.26866 22.3881 12C22.3881 17.7313 17.7313 22.3881 12 22.3881C6.26866 22.3881 1.61194 17.7313 1.61194 12C1.61194 6.26866 6.26866 1.61194 12 1.61194Z" fill="#141005"/>
<path fill-rule="evenodd" clip-rule="evenodd" d="M8.05923 7.021H12.5727C12.501 7.27174 12.4652 7.52249 12.4652 7.77323C12.4652 8.13144 12.5368 8.45383 12.6443 8.77622H9.24132C9.06222 8.77622 8.88311 8.95532 8.88311 9.13443C8.88311 9.34935 9.06222 9.49264 9.24132 9.49264H13.0025C13.5398 10.3882 14.507 10.9613 15.6174 10.9971V16.4061C15.6174 16.8359 15.2234 17.23 14.7577 17.23H8.05923C7.59356 17.23 7.23535 16.8359 7.23535 16.4061V7.84488C7.23535 7.37921 7.59356 7.021 8.05923 7.021ZM9.24132 12.7523H12.501C12.6801 12.7523 12.8592 12.9314 12.8592 13.1105C12.8592 13.3255 12.6801 13.4688 12.501 13.4688H9.24132C9.06222 13.4688 8.88311 13.3255 8.88311 13.1105C8.88311 12.9314 9.06222 12.7523 9.24132 12.7523ZM9.24132 10.7822H13.6115C13.8264 10.7822 13.9697 10.9255 13.9697 11.1404C13.9697 11.3195 13.8264 11.4986 13.6115 11.4986H9.24132C9.06222 11.4986 8.88311 11.3195 8.88311 11.1404C8.88311 10.9255 9.06222 10.7822 9.24132 10.7822Z" fill="#141005"/>
<path fill-rule="evenodd" clip-rule="evenodd" d="M15.7255 4.51343C17.5166 4.51343 18.9852 5.98208 18.9852 7.77313C18.9852 9.56417 17.5166 10.997 15.7255 10.997C13.9345 10.997 12.4658 9.56417 12.4658 7.77313C12.4658 5.98208 13.9345 4.51343 15.7255 4.51343ZM15.2599 9.31343V8.2388H14.1852C13.9345 8.2388 13.7196 8.02388 13.7196 7.77313C13.7196 7.52238 13.9345 7.30746 14.1852 7.30746H15.2599V6.19701C15.2599 5.94626 15.4748 5.73134 15.7255 5.73134C15.9763 5.73134 16.1912 5.94626 16.1912 6.19701V7.30746H17.2658C17.5166 7.30746 17.7315 7.52238 17.7315 7.77313C17.7315 8.02388 17.5166 8.2388 17.2658 8.2388H16.1912V9.31343C16.1912 9.56417 15.9763 9.7791 15.7255 9.7791C15.4748 9.7791 15.2599 9.56417 15.2599 9.31343Z" fill="#141005"/>
</g>
<defs>
<clipPath id="clip0_1397_11721">
<rect width="24" height="24" fill="white"/>
</clipPath>
</defs>
</svg>
