<svg width="24" height="24" viewBox="0 0 24 24" fill="none" xmlns="http://www.w3.org/2000/svg">
<g clip-path="url(#clip0_1008_2850)">
<path d="M17.0459 16.375C17.1541 16.4389 17.2797 16.4762 17.4141 16.4762H23.2266C23.6272 16.4762 23.9532 16.1503 23.9532 15.7497V10.4059C23.9532 10.0053 23.6272 9.67933 23.2266 9.67933H20.6719V7.83326C20.6719 7.63916 20.5144 7.48169 20.3204 7.48169H18.6744C18.4446 7.04718 18.1626 6.63904 17.8319 6.26898C17.7025 6.12415 17.4804 6.1117 17.3355 6.24097C17.1907 6.37024 17.1783 6.59253 17.3075 6.73737C17.5152 6.96973 17.701 7.21912 17.8642 7.48169H13.7348C13.5407 7.48169 13.3832 7.63916 13.3832 7.83326C13.3832 8.02753 13.5407 8.18482 13.7348 8.18482H18.2318C18.438 8.6598 18.5761 9.16334 18.6389 9.67933H17.4141C17.0135 9.67933 16.6875 10.0053 16.6875 10.4059V15.7116C16.1649 16.3464 15.5759 16.8704 14.9339 17.2718H11.6746C11.1528 17.2718 10.6685 17.513 10.3508 17.909C8.96248 17.4763 7.68477 16.4726 6.7317 15.0592C6.29152 14.4068 5.93812 13.689 5.68452 12.9494H7.59377C7.78786 12.9494 7.94533 12.7921 7.94533 12.5979C7.94533 12.4038 7.78786 12.2463 7.59377 12.2463H5.47523C5.31263 11.6029 5.22657 10.953 5.22657 10.3244C5.22657 9.35505 5.4897 8.40693 5.98939 7.56995H6.4922C6.89284 7.56995 7.21876 7.24402 7.21876 6.84339V6.15051C8.31154 5.27216 9.61049 4.96582 10.8194 5.30292C11.0528 5.56348 11.3249 5.82294 11.6419 6.07819C11.7387 6.15637 11.8568 6.19739 11.9781 6.19739C12.0194 6.19739 12.0612 6.19263 12.1026 6.18292C12.2657 6.14447 12.3994 6.03516 12.4695 5.88281C12.5226 5.76709 12.5838 5.62317 12.6449 5.45691C13.7965 4.97644 15.0989 5.10956 16.2415 5.83044C16.2997 5.86707 16.3647 5.88464 16.4288 5.88464C16.5454 5.88464 16.6597 5.8266 16.7265 5.72058C16.8302 5.55652 16.7809 5.33935 16.6167 5.23572C15.44 4.49322 14.1121 4.28485 12.8813 4.6311C12.9632 4.23504 13.0091 3.789 12.9734 3.32244C12.8987 2.34484 12.4237 0.99224 10.5853 0.100515H10.5852C10.4511 0.0356953 10.2946 0.0292865 10.1558 0.0831197C10.0166 0.137136 9.90511 0.247366 9.84981 0.385977C9.61727 0.968436 9.11116 2.67517 10.2067 4.48077C9.1855 4.3938 8.14949 4.67029 7.21876 5.28186V1.49963C7.21876 1.09899 6.89284 0.773062 6.4922 0.773062H0.679689C0.279053 0.773062 -0.046875 1.09899 -0.046875 1.49963V6.84339C-0.046875 7.24402 0.279053 7.56995 0.679689 7.56995H3.11719V9.03864C3.11719 9.23292 3.27448 9.39021 3.46876 9.39021C3.66303 9.39021 3.82032 9.23292 3.82032 9.03864V7.56995H5.18684C4.7516 8.42396 4.52345 9.36475 4.52345 10.3244C4.52345 10.9539 4.60255 11.6023 4.75251 12.2463H3.82032V10.531C3.82032 10.3367 3.66285 10.1794 3.46876 10.1794C3.27448 10.1794 3.11719 10.3367 3.11719 10.531V12.5979C3.11719 12.7921 3.27448 12.9494 3.46876 12.9494H4.94496C5.22218 13.8283 5.62977 14.6829 6.14869 15.4523C6.15913 15.4679 6.16993 15.4831 6.18055 15.4984C5.66914 15.5623 5.1949 15.8013 4.82337 16.1887C4.67121 16.3473 4.59083 16.5663 4.60273 16.7893C4.61445 17.0111 4.71699 17.2187 4.88325 17.3588L5.83595 18.1615C5.01216 18.4195 4.4123 19.1935 4.4123 20.1059C4.4123 20.4901 4.72376 20.8028 5.10664 20.8028H8.96102C9.15511 20.8028 9.31258 20.6455 9.31258 20.4513C9.31258 20.2572 9.15511 20.0997 8.96102 20.0997H5.11543C5.11872 19.3676 5.71016 18.7731 6.4369 18.7731H9.98879C9.98147 18.8379 9.97725 18.9031 9.97725 18.9692C9.97725 19.1269 10.0377 19.2766 10.1486 19.3924C10.2594 19.5068 10.4083 19.5722 10.5678 19.5766C12.5069 19.6295 14.0199 19.8236 14.422 20.071C14.6082 20.1856 14.8343 20.3597 15.0312 20.515C15.1835 20.6353 15.4047 20.6093 15.5248 20.4568C15.6451 20.3042 15.6191 20.0832 15.4666 19.9629C15.254 19.7952 15.0074 19.6057 14.7904 19.4722C14.0927 19.043 11.9614 18.9146 10.6846 18.8764C10.6947 18.7687 10.7219 18.6643 10.7663 18.5649C10.9261 18.2066 11.2826 17.9749 11.6746 17.9749H16.8351C19.6881 17.9749 20.5556 19.2559 20.7442 20.45L15.9494 21.3514H15.7284C15.3395 21.3514 14.9511 21.3016 14.5741 21.2038C14.1978 21.106 13.8342 20.9601 13.4931 20.77C12.7063 20.3315 11.8149 20.0997 10.9153 20.0997H10.4451C10.251 20.0997 10.0935 20.2572 10.0935 20.4513C10.0935 20.6455 10.251 20.8028 10.4451 20.8028H10.9153C11.6953 20.8028 12.4684 21.0039 13.1507 21.3842C13.544 21.6034 13.9635 21.7716 14.3974 21.8842C14.8321 21.9972 15.28 22.0545 15.7284 22.0545H15.7733L16.758 23.8633C16.8196 23.9762 16.938 24.0467 17.0669 24.0467H23.5481C23.6747 24.0467 23.7913 23.9788 23.8537 23.8687C23.9164 23.7587 23.9149 23.6236 23.8501 23.515L22.0188 20.4447C21.9432 20.318 21.7966 20.2519 21.6519 20.2793L21.4346 20.3202C21.3144 19.5945 21.0033 18.9635 20.5221 18.479C19.7264 17.6779 18.486 17.2718 16.8353 17.2718H16.1285C16.451 17.003 16.7573 16.7036 17.0459 16.375ZM10.4407 0.81536C11.5721 1.4121 12.1879 2.27288 12.2723 3.37591C12.3349 4.19513 12.0886 4.96582 11.9158 5.39172C9.80733 3.58044 10.1754 1.59997 10.4407 0.81536ZM0.656251 6.84339V1.49963C0.656251 1.48681 0.666688 1.47619 0.679689 1.47619H6.4922C6.50502 1.47619 6.51564 1.48681 6.51564 1.49963V6.84339C6.51564 6.85639 6.50502 6.86682 6.4922 6.86682H0.679689C0.666688 6.86682 0.656251 6.85639 0.656251 6.84339ZM5.30476 16.7518C5.30403 16.7377 5.30513 16.7022 5.33076 16.6754C5.6349 16.3583 6.03499 16.1838 6.45741 16.1838C6.54475 16.1838 6.63118 16.1917 6.71577 16.2067C7.37019 16.9891 8.12807 17.6206 8.94765 18.07H6.8185L5.33625 16.8208C5.30989 16.7989 5.30549 16.7652 5.30476 16.7518ZM22.9291 23.3434H17.2757L16.522 21.9591L21.5406 21.0156L22.9291 23.3434ZM18.991 8.18482H19.9688V9.67933H19.3475C19.2924 9.167 19.1719 8.66474 18.991 8.18482ZM17.3907 10.4059C17.3907 10.3931 17.4011 10.3825 17.4141 10.3825H23.2266C23.2394 10.3825 23.25 10.3931 23.25 10.4059V15.7497C23.25 15.7627 23.2394 15.7731 23.2266 15.7731H17.4141C17.4011 15.7731 17.3907 15.7627 17.3907 15.7497V10.4059Z" fill="#141005"/>
<path d="M16.9533 1.7995L19.7001 1.79932C19.8942 1.79932 20.0516 1.64203 20.0516 1.44775C20.0516 1.25366 19.8942 1.09619 19.7001 1.09619L16.9531 1.09637C16.759 1.09637 16.6016 1.25385 16.6016 1.44812C16.6016 1.64221 16.759 1.7995 16.9533 1.7995Z" fill="#141005"/>
<path d="M16.6016 2.85419C16.6016 3.04828 16.7589 3.20575 16.9531 3.20575L22.578 3.20557C22.7722 3.20557 22.9295 3.0481 22.9295 2.854C22.9295 2.65973 22.7722 2.50244 22.578 2.50244L16.9531 2.50262C16.7589 2.50262 16.6016 2.65991 16.6016 2.85419Z" fill="#141005"/>
<path d="M22.578 3.90869L16.9531 3.90887C16.7589 3.90887 16.6016 4.06635 16.6016 4.26044C16.6016 4.45471 16.759 4.612 16.9531 4.612L22.578 4.61182C22.7722 4.61182 22.9295 4.45453 22.9295 4.26025C22.9295 4.06616 22.7722 3.90869 22.578 3.90869Z" fill="#141005"/>
<path d="M4.33211 6.46131C4.56246 6.58106 4.83547 6.56019 5.04476 6.40711C5.25222 6.2555 5.35384 6.00446 5.31008 5.75214L5.14602 4.80714L5.84127 4.13715C6.02712 3.95807 6.0934 3.69477 6.0143 3.44977C5.93483 3.20349 5.72555 3.02735 5.4681 2.99036L4.50405 2.85193L4.07356 1.9895C3.95876 1.75952 3.72695 1.6167 3.46877 1.6167C3.21059 1.6167 2.97896 1.7597 2.86415 1.9895L2.43385 2.85193L1.4698 2.99036C1.21217 3.02735 1.00288 3.20349 0.923412 3.44977C0.84431 3.69477 0.910778 3.95807 1.09645 4.13715L1.7917 4.80714L1.62764 5.75214C1.58387 6.00446 1.6855 6.2555 1.89296 6.40711C2.01198 6.49427 2.15169 6.53858 2.29231 6.53858C2.39906 6.53858 2.50636 6.51313 2.60579 6.46131L3.46895 6.0127L4.33211 6.46131ZM2.33095 5.81184L2.4875 4.90931C2.52559 4.69031 2.45235 4.46747 2.29213 4.31293L1.63258 3.67737L2.54756 3.54572C2.7671 3.51441 2.95717 3.37763 3.05586 3.17987L3.46895 2.3526L3.88185 3.17987C3.98055 3.37763 4.17061 3.51441 4.39015 3.5459L5.30513 3.67737L4.64577 4.31293C4.48537 4.46747 4.41231 4.69031 4.45021 4.90931L4.60677 5.81184L3.78169 5.38282C3.58577 5.2812 3.35213 5.28101 3.1562 5.38282L2.33095 5.81184Z" fill="#141005"/>
<path d="M18.6432 13.6665L18.4791 14.6115C18.4354 14.8638 18.537 15.1149 18.7444 15.2665C18.8635 15.3536 19.0032 15.398 19.1438 15.398C19.2505 15.398 19.3578 15.3725 19.4573 15.3207L20.3204 14.8721L21.1836 15.3207C21.4139 15.4404 21.687 15.4196 21.8964 15.2665C22.1037 15.1149 22.2053 14.8638 22.1616 14.6115L21.9977 13.6665L22.6928 12.9965C22.8786 12.8174 22.9449 12.5541 22.866 12.3091C22.7863 12.0629 22.577 11.8867 22.3196 11.8497L21.3555 11.7113L20.925 10.8489C20.8102 10.6189 20.5786 10.4761 20.3202 10.4761C20.0623 10.4761 19.8306 10.6191 19.7158 10.8489L19.2853 11.7113L18.3213 11.8497C18.0638 11.8867 17.8544 12.0629 17.7749 12.3091C17.696 12.5541 17.7623 12.8174 17.9479 12.9965L18.6432 13.6665ZM19.3992 12.4053C19.6188 12.3738 19.8087 12.237 19.9073 12.0392L20.3204 11.212L20.7333 12.0392C20.832 12.237 21.0221 12.3738 21.2416 12.4053L22.1568 12.5367L21.4973 13.1723C21.3369 13.3268 21.2638 13.5497 21.3017 13.7687L21.4583 14.6712L20.6332 14.2422C20.4374 14.1406 20.2036 14.1404 20.0077 14.2422L19.1826 14.6712L19.3392 13.7687C19.3771 13.5497 19.304 13.3268 19.1436 13.1723L18.4842 12.5367L19.3992 12.4053Z" fill="#141005"/>
</g>
<defs>
<clipPath id="clip0_1008_2850">
<rect width="24" height="24" fill="white"/>
</clipPath>
</defs>
</svg>
