<svg width="303" height="302" viewBox="0 0 303 302" fill="none" xmlns="http://www.w3.org/2000/svg">
<path d="M265.353 258.88C259.196 265.362 253.37 269.543 248.767 272.845C194.66 311.668 130.637 300.351 117.031 297.588C96.9379 293.507 58.0991 285.618 30.0193 252.597C-12.4631 202.639 -5.84792 123.931 27.1042 71.9744C33.1317 62.4706 64.9706 9.72306 129.683 1.26402C168.846 -3.85529 214.498 6.46982 247.557 34.1672C316.953 92.3068 312.013 209.759 265.353 258.88Z" fill="#F4EBD7"/>
<path d="M20.9872 265.129C20.9872 267.737 23.1231 269.871 25.7336 269.871H282.397C285.008 269.871 287.144 267.737 287.144 265.129L289.279 117.632C289.279 115.024 286.207 109.932 280.575 110.315L29.7353 103.824C26.4599 103.74 23.2929 105 20.9735 107.312C18.6541 109.624 17.385 112.785 17.4623 116.058L20.9872 265.129Z" fill="#C19632"/>
<path d="M25.6717 260.58C25.6717 263.05 27.6924 265.07 30.1621 265.07H276.206C278.676 265.07 280.697 263.05 280.697 260.58L282.712 126.68C282.474 118.623 275.41 115.727 271.128 115.898L30.7205 109.448C28.4193 109.386 26.1946 110.273 24.5648 111.898C22.9349 113.524 22.0386 115.749 22.0964 118.05L25.6717 260.58Z" fill="#082133"/>
<path opacity="0.55" d="M278.038 196.968C278.035 196.968 278.032 196.968 278.028 196.968C277.665 196.963 277.374 196.664 277.38 196.3L277.539 185.441C277.544 185.081 277.838 184.793 278.197 184.793C278.2 184.793 278.203 184.793 278.207 184.793C278.57 184.798 278.861 185.097 278.855 185.461L278.696 196.32C278.69 196.68 278.397 196.968 278.038 196.968Z" fill="white"/>
<path opacity="0.55" d="M278.43 170.358C278.426 170.358 278.423 170.358 278.42 170.358C278.056 170.353 277.766 170.053 277.771 169.69L278.382 128.1C278.37 125.629 277.621 123.657 276.153 122.251C273.413 119.626 269.064 119.76 268.88 119.768L192.041 117.708C191.678 117.699 191.391 117.396 191.401 117.033C191.41 116.669 191.689 116.36 192.076 116.393L268.87 118.453C269.348 118.425 273.979 118.345 277.063 121.3C278.798 122.963 279.685 125.253 279.698 128.106L279.087 169.71C279.082 170.07 278.788 170.358 278.43 170.358Z" fill="white"/>
<path d="M0.778439 282.115H302.146C302.484 282.115 302.76 281.839 302.76 281.501V269.77C302.76 269.432 302.484 269.156 302.146 269.156H0.778439C0.440608 269.156 0.164062 269.432 0.164062 269.77V281.501C0.164171 281.839 0.440608 282.115 0.778439 282.115Z" fill="#C19632"/>
<path d="M233.982 1.74932L55.8767 0.658887C50.0234 0.623029 45.342 5.51219 45.6319 11.3584L57.885 264.404H256.083L267.088 38.3214L233.982 1.74932Z" fill="#EAD8AE"/>
<path d="M241.388 37.2367C235.586 37.0326 231.126 32.0322 231.583 26.245L233.492 2.08203L267.123 38.1723L241.388 37.2367Z" fill="#DFC486"/>
<path opacity="0.39" d="M234.813 130.199H80.311C75.6495 130.199 71.8314 128.069 71.6894 125.39L68.4611 64.4479C68.3129 61.6504 72.216 59.3363 77.0826 59.3363H234.813C239.576 59.3363 243.438 61.5572 243.438 64.2969V125.238C243.438 127.978 239.576 130.199 234.813 130.199Z" fill="white"/>
<path d="M234.565 130.744H80.0629C75.0813 130.744 71.0553 128.405 70.8971 125.418L67.6689 64.4765C67.6142 63.4422 68.0263 62.4304 68.8612 61.5503C70.4752 59.8483 73.5306 58.791 76.8347 58.791H234.565C239.707 58.791 243.735 61.2094 243.735 64.2966V125.238C243.735 128.325 239.707 130.744 234.565 130.744ZM76.8348 59.8811C73.8195 59.8811 71.0675 60.8082 69.6523 62.3004C69.0196 62.9676 68.7187 63.6803 68.7577 64.4185L71.9859 125.36C72.1112 127.728 75.7348 129.654 80.063 129.654H234.565C238.945 129.654 242.645 127.632 242.645 125.238V64.2965C242.645 61.9031 238.945 59.8811 234.565 59.8811H76.8348Z" fill="white"/>
<path d="M113.337 58.8459L112.987 130.197L114.078 130.202L114.427 58.8513L113.337 58.8459Z" fill="white"/>
<path d="M204.186 58.8451L203.836 130.196L204.926 130.202L205.276 58.8504L204.186 58.8451Z" fill="white"/>
<path d="M113.885 78.213L113.88 79.3032L243.193 79.9369L243.198 78.8466L113.885 78.213Z" fill="white"/>
<path d="M243.178 106.244H113.525V107.334H243.178V106.244Z" fill="white"/>
<path opacity="0.39" d="M235.077 248.662H80.5756C75.9141 248.662 72.096 246.532 71.954 243.853L68.7258 182.911C68.5776 180.114 72.4806 177.8 77.3474 177.8H235.077C239.841 177.8 243.703 180.02 243.703 182.76V243.702C243.703 246.441 239.841 248.662 235.077 248.662Z" fill="white"/>
<path d="M234.83 249.207H80.3276C75.3459 249.207 71.32 246.868 71.1618 243.882L67.9335 182.94C67.8789 181.906 68.2909 180.894 69.1259 180.014C70.7398 178.312 73.7952 177.255 77.0993 177.255H234.829C239.972 177.255 244 179.673 244 182.76V243.702C244 246.789 239.972 249.207 234.83 249.207ZM77.0994 178.345C74.0841 178.345 71.3322 179.272 69.9169 180.764C69.2842 181.431 68.9829 182.144 69.0223 182.882L72.2506 243.824C72.3759 246.191 75.9994 248.117 80.3277 248.117H234.83C239.21 248.117 242.91 246.095 242.91 243.702V182.76C242.91 180.367 239.21 178.345 234.83 178.345L77.0994 178.345Z" fill="white"/>
<path d="M113.605 177.313L113.256 248.665L114.346 248.67L114.696 177.319L113.605 177.313Z" fill="white"/>
<path d="M204.455 177.313L204.105 248.664L205.196 248.669L205.545 177.318L204.455 177.313Z" fill="white"/>
<path d="M114.152 196.676L114.146 197.766L243.46 198.4L243.465 197.31L114.152 196.676Z" fill="white"/>
<path d="M243.444 224.706H113.791V225.796H243.444V224.706Z" fill="white"/>
<path opacity="0.55" d="M226.284 47.2812H81.8899C81.4243 47.2812 81.0469 46.9039 81.0469 46.4382V35.5818C81.0469 35.1163 81.4243 34.7388 81.8899 34.7388H226.284C226.749 34.7388 227.127 35.1162 227.127 35.5818V46.4382C227.127 46.9038 226.749 47.2812 226.284 47.2812Z" fill="white"/>
<path opacity="0.42" d="M240.513 151.462H72.8953C72.4812 151.462 72.1455 151.126 72.1455 150.712V142.764C72.1455 142.35 72.4812 142.014 72.8953 142.014H240.513C240.927 142.014 241.263 142.35 241.263 142.764V150.712C241.263 151.126 240.927 151.462 240.513 151.462Z" fill="white"/>
<path opacity="0.42" d="M240.021 165.998H72.4041C71.99 165.998 71.6543 165.662 71.6543 165.248V157.3C71.6543 156.886 71.99 156.55 72.4041 156.55H240.022C240.436 156.55 240.771 156.886 240.771 157.3V165.248C240.771 165.662 240.436 165.998 240.021 165.998Z" fill="white"/>
<path d="M200.364 95.3139L200.752 128.607L200.812 133.762C200.836 134.435 200.304 135.004 199.631 135.028L133.489 137.363C132.816 137.387 132.245 136.856 132.222 136.183L131.965 131.035L130.33 98.1928C130.306 97.5204 131.052 96.1802 132.506 96.2279L197.09 92.2728C197.933 92.222 198.761 92.5172 199.38 93.0928C199.998 93.6674 200.354 94.4703 200.364 95.3139Z" fill="#082133"/>
<g opacity="0.12">
<path d="M199.159 132.779C199.181 133.406 198.674 133.938 198.034 133.96L135.025 136.185C134.384 136.207 133.842 135.713 133.82 135.085L132.043 99.6322C132.021 99.005 132.732 97.7539 134.118 97.7971L195.642 94.0624C196.445 94.0136 197.233 94.2893 197.822 94.8253C198.411 95.3612 198.75 96.1103 198.758 96.898L199.159 132.779Z" fill="#E9F4FC"/>
</g>
<path d="M190.948 134.553C190.851 134.553 190.77 134.476 190.767 134.378C190.763 134.278 190.842 134.194 190.942 134.19L197.995 133.941C198.406 133.927 198.828 133.717 199.153 133.367C199.477 133.017 199.655 132.579 199.64 132.167L198.879 110.593C198.875 110.493 198.954 110.409 199.054 110.405C199.157 110.392 199.239 110.48 199.242 110.581L200.004 132.154C200.041 133.222 199.071 134.267 198.008 134.304L190.955 134.553C190.953 134.553 190.95 134.553 190.948 134.553Z" fill="#91B3FA"/>
<path d="M132.563 113.115C132.465 113.115 132.385 113.038 132.381 112.94L131.925 100.009C131.875 98.5904 132.932 97.3529 134.234 97.307L139.837 97.1091C139.941 97.0956 140.022 97.1838 140.025 97.2843C140.029 97.3844 139.95 97.4687 139.85 97.4721L134.247 97.67C133.161 97.7085 132.246 98.7954 132.288 99.9961L132.745 112.927C132.748 113.028 132.67 113.112 132.569 113.115C132.567 113.115 132.565 113.115 132.563 113.115Z" fill="#91B3FA"/>
<path d="M148.454 111.36C148.43 110.684 147.863 110.156 147.187 110.179L139.017 110.468C138.341 110.492 137.813 111.059 137.837 111.735L138.056 117.949C138.08 118.624 138.647 119.153 139.323 119.129L147.493 118.841C148.169 118.817 148.697 118.25 148.673 117.574L148.454 111.36Z" fill="#082133"/>
<path opacity="0.8" d="M141.71 116.584C141.332 116.584 141.017 116.283 141.003 115.901L140.931 113.85C140.918 113.46 141.223 113.132 141.613 113.118L143.943 113.036C144.314 113.022 144.661 113.328 144.675 113.718C144.675 113.718 144.675 113.718 144.675 113.718L144.748 115.769C144.761 116.159 144.455 116.487 144.065 116.501L141.736 116.583C141.727 116.583 141.719 116.584 141.71 116.584ZM143.968 113.707C143.968 113.707 143.967 113.707 143.967 113.707L141.637 113.789C141.617 113.79 141.601 113.807 141.602 113.827L141.674 115.877C141.675 115.897 141.691 115.912 141.711 115.912C141.711 115.912 141.711 115.912 141.712 115.912L144.042 115.83C144.062 115.829 144.078 115.812 144.077 115.792L144.004 113.742C144.004 113.722 143.987 113.707 143.968 113.707Z" fill="white"/>
<path d="M137.932 114.759C137.752 114.759 137.603 114.616 137.597 114.435C137.59 114.25 137.735 114.094 137.921 114.088L141.273 113.97C141.449 113.967 141.614 114.108 141.62 114.293C141.627 114.478 141.482 114.634 141.297 114.64L137.944 114.759C137.94 114.759 137.936 114.759 137.932 114.759Z" fill="white"/>
<path d="M137.96 115.597C137.78 115.597 137.632 115.454 137.625 115.273C137.618 115.088 137.764 114.932 137.949 114.926L141.302 114.807C141.479 114.803 141.642 114.945 141.649 115.131C141.655 115.316 141.51 115.472 141.325 115.478L137.972 115.596C137.968 115.597 137.964 115.597 137.96 115.597Z" fill="white"/>
<path d="M144.916 114.512C144.736 114.512 144.588 114.369 144.581 114.188C144.575 114.002 144.72 113.847 144.905 113.84L148.537 113.712C148.708 113.705 148.878 113.85 148.884 114.036C148.891 114.221 148.746 114.377 148.56 114.383L144.928 114.511C144.924 114.511 144.921 114.512 144.916 114.512Z" fill="white"/>
<path d="M144.945 115.351C144.765 115.351 144.616 115.208 144.61 115.027C144.603 114.841 144.748 114.686 144.933 114.679L148.566 114.551C148.738 114.542 148.906 114.689 148.913 114.875C148.919 115.06 148.774 115.215 148.589 115.222L144.957 115.35C144.953 115.35 144.949 115.351 144.945 115.351Z" fill="white"/>
<path d="M142.018 113.788C141.871 113.788 141.736 113.69 141.695 113.541L140.868 110.526C140.818 110.347 140.924 110.163 141.102 110.114C141.279 110.065 141.466 110.169 141.515 110.348L142.342 113.363C142.391 113.542 142.286 113.727 142.107 113.776C142.078 113.784 142.048 113.788 142.018 113.788Z" fill="white"/>
<path d="M143.965 113.719C143.942 113.719 143.919 113.717 143.896 113.712C143.715 113.674 143.598 113.497 143.636 113.315L144.275 110.248C144.313 110.067 144.492 109.951 144.673 109.988C144.854 110.026 144.97 110.204 144.933 110.385L144.293 113.452C144.26 113.61 144.12 113.719 143.965 113.719Z" fill="white"/>
<path d="M141.498 119.494C141.476 119.494 141.454 119.492 141.432 119.488C141.25 119.452 141.132 119.275 141.169 119.093L141.782 116.027C141.818 115.845 141.994 115.727 142.176 115.764C142.358 115.8 142.476 115.977 142.439 116.159L141.827 119.225C141.795 119.384 141.655 119.494 141.498 119.494Z" fill="white"/>
<path d="M144.911 119.374C144.765 119.374 144.63 119.277 144.588 119.129L143.734 116.115C143.684 115.937 143.788 115.751 143.966 115.701C144.145 115.65 144.33 115.754 144.38 115.932L145.234 118.946C145.284 119.125 145.181 119.31 145.003 119.361C144.972 119.37 144.941 119.374 144.911 119.374Z" fill="white"/>
<path d="M148.132 102.258C148.161 103.06 147.533 103.734 146.73 103.762L137.623 104.084C136.82 104.112 136.146 103.484 136.118 102.682L136.112 102.515C136.084 101.712 136.712 101.038 137.514 101.01L146.622 100.689C147.425 100.66 148.098 101.288 148.126 102.09L148.132 102.258Z" fill="#E9F4FC"/>
<path d="M149.742 124.088C149.769 124.854 149.17 125.496 148.404 125.523L138.325 125.879C137.559 125.906 136.916 125.307 136.889 124.542L136.889 124.521C136.862 123.755 137.46 123.112 138.226 123.085L148.305 122.729C149.071 122.702 149.714 123.301 149.741 124.067L149.742 124.088Z" fill="#E9F4FC"/>
<path d="M164.271 123.575C164.298 124.341 163.699 124.983 162.933 125.01L152.854 125.366C152.088 125.393 151.446 124.794 151.419 124.029L151.418 124.008C151.391 123.242 151.99 122.599 152.755 122.572L162.835 122.216C163.6 122.189 164.243 122.788 164.27 123.554L164.271 123.575Z" fill="#E9F4FC"/>
<path d="M178.8 123.062C178.827 123.828 178.228 124.47 177.463 124.497L167.383 124.853C166.618 124.88 165.975 124.282 165.948 123.516L165.947 123.495C165.92 122.729 166.519 122.086 167.285 122.059L177.364 121.704C178.13 121.676 178.772 122.275 178.799 123.041L178.8 123.062Z" fill="#E9F4FC"/>
<path d="M193.607 122.539C193.634 123.305 193.035 123.947 192.269 123.974L182.19 124.33C181.424 124.357 180.782 123.758 180.755 122.993L180.754 122.972C180.727 122.206 181.326 121.563 182.091 121.536L192.171 121.18C192.936 121.153 193.579 121.752 193.606 122.518L193.607 122.539Z" fill="#E9F4FC"/>
<g opacity="0.8">
<path d="M159.46 129.904C159.481 130.513 159.005 131.024 158.396 131.045L139.646 131.707C139.037 131.729 138.526 131.253 138.505 130.644L138.504 130.613C138.482 130.005 138.958 129.494 139.567 129.472L158.317 128.81C158.926 128.789 159.437 129.265 159.458 129.874L159.46 129.904Z" fill="#E9F4FC"/>
<path d="M192.129 128.191C192.15 128.8 191.674 129.311 191.065 129.333L182.932 129.62C182.323 129.641 181.812 129.165 181.791 128.556L181.79 128.526C181.768 127.917 182.244 127.406 182.853 127.385L190.986 127.097C191.595 127.076 192.106 127.552 192.127 128.161L192.129 128.191Z" fill="#E9F4FC"/>
</g>
<path d="M140.33 81.1125C146.713 81.1125 151.887 75.9384 151.887 69.5558C151.887 63.1732 146.713 57.9991 140.33 57.9991C133.948 57.9991 128.773 63.1732 128.773 69.5558C128.773 75.9384 133.948 81.1125 140.33 81.1125Z" fill="#141005"/>
<path d="M140.331 80.7279C146.501 80.7279 151.503 75.7258 151.503 69.5555C151.503 63.3851 146.501 58.383 140.331 58.383C134.16 58.383 129.158 63.3851 129.158 69.5555C129.158 75.7258 134.16 80.7279 140.331 80.7279Z" fill="#141005"/>
<path opacity="0.78" d="M131.117 65.3484C131.052 65.3484 130.985 65.3335 130.922 65.3018C130.708 65.1939 130.622 64.9329 130.73 64.7188C132.57 61.0731 136.249 58.8082 140.33 58.8082C140.982 58.8082 141.634 58.8669 142.268 58.9824C142.504 59.0254 142.661 59.2512 142.618 59.4871C142.575 59.7229 142.35 59.8787 142.113 59.8364C141.53 59.73 140.93 59.6762 140.33 59.6762C136.578 59.6762 133.197 61.7585 131.505 65.1101C131.429 65.2613 131.276 65.3484 131.117 65.3484Z" fill="white"/>
<path opacity="0.78" d="M147.258 76.4858C150.951 72.793 150.951 66.8058 147.258 63.1131C143.566 59.4203 137.578 59.4203 133.886 63.1131C130.193 66.8059 130.193 72.7931 133.886 76.4859C137.578 80.1787 143.566 80.1787 147.258 76.4858Z" fill="white"/>
<path d="M139.646 76.8288V75.8001C138.574 75.7572 137.513 75.504 136.759 75.1742C136.49 75.0565 136.353 74.7544 136.431 74.4713L136.692 73.513C136.788 73.1615 137.17 72.9797 137.506 73.1205C138.254 73.4339 139.176 73.6816 140.171 73.6816C141.204 73.6816 141.975 73.3315 141.975 72.6136C141.975 71.9658 141.379 71.5807 139.944 71.1955C137.895 70.6353 136.425 69.7423 136.425 67.939C136.425 66.3107 137.615 65.0676 139.681 64.7351V63.7062C139.681 63.3752 139.949 63.1068 140.281 63.1068H140.885C141.216 63.1068 141.484 63.3752 141.484 63.7062V64.6299C142.477 64.6696 143.199 64.8393 143.772 65.0408C144.066 65.144 144.227 65.4604 144.145 65.7609L143.905 66.6471C143.812 66.9889 143.447 67.1761 143.116 67.0508C142.588 66.8512 141.842 66.6433 140.872 66.6433C139.646 66.6433 139.296 67.151 139.296 67.6063C139.296 68.1666 140.031 68.5517 141.625 69.0421C143.901 69.7248 144.846 70.6703 144.846 72.3685C144.846 73.9268 143.69 75.3274 141.449 75.6776V76.829C141.449 77.1601 141.181 77.4284 140.85 77.4284H140.245C139.915 77.4282 139.646 77.1598 139.646 76.8288Z" fill="#EAD8AE"/>
<path d="M173.227 75.9687C184.338 75.9687 193.345 66.9615 193.345 55.8505C193.345 44.7395 184.338 35.7323 173.227 35.7323C162.116 35.7323 153.108 44.7395 153.108 55.8505C153.108 66.9615 162.116 75.9687 173.227 75.9687Z" fill="#141005"/>
<path d="M173.227 75.2997C183.969 75.2997 192.677 66.592 192.677 55.8505C192.677 45.1091 183.969 36.4014 173.227 36.4014C162.486 36.4014 153.778 45.1091 153.778 55.8505C153.778 66.592 162.486 75.2997 173.227 75.2997Z" fill="#141005"/>
<path opacity="0.78" d="M157.189 48.2054C157.123 48.2054 157.056 48.1905 156.993 48.1587C156.779 48.0509 156.694 47.7898 156.802 47.5758C159.95 41.3378 166.244 37.4628 173.227 37.4628C174.34 37.4628 175.456 37.5632 176.543 37.7612C176.779 37.8042 176.935 38.03 176.892 38.2658C176.85 38.5015 176.624 38.6565 176.388 38.615C175.352 38.4263 174.288 38.3307 173.227 38.3307C166.573 38.3307 160.577 42.023 157.576 47.9668C157.5 48.1182 157.347 48.2054 157.189 48.2054Z" fill="white"/>
<path opacity="0.78" d="M173.652 72.7363C182.743 72.7363 190.113 65.3662 190.113 56.2749C190.113 47.1835 182.743 39.8135 173.652 39.8135C164.56 39.8135 157.19 47.1835 157.19 56.2749C157.19 65.3662 164.56 72.7363 173.652 72.7363Z" fill="white"/>
<path d="M172.035 68.5123V66.7215C170.168 66.6467 168.322 66.2061 167.01 65.632C166.542 65.427 166.303 64.9015 166.438 64.4081L166.893 62.74C167.06 62.128 167.725 61.8114 168.31 62.0567C169.611 62.6021 171.217 63.0336 172.95 63.0336C174.748 63.0336 176.089 62.4239 176.089 61.1742C176.089 60.0465 175.053 59.3761 172.553 58.7056C168.987 57.7303 166.427 56.1759 166.427 53.0366C166.427 50.2019 168.5 48.038 172.096 47.4591V45.668C172.096 45.0916 172.563 44.6245 173.14 44.6245H174.192C174.768 44.6245 175.235 45.0916 175.235 45.668V47.2761C176.963 47.3452 178.22 47.6407 179.218 47.9913C179.73 48.1709 180.009 48.7217 179.867 49.2448L179.449 50.7876C179.288 51.3826 178.652 51.7084 178.075 51.4904C177.156 51.1428 175.857 50.7811 174.169 50.7811C172.035 50.7811 171.426 51.665 171.426 52.4574C171.426 53.4327 172.706 54.1033 175.479 54.9567C179.441 56.1452 181.087 57.791 181.087 60.7475C181.087 63.4602 179.076 65.8984 175.174 66.508V68.5122C175.174 69.0886 174.707 69.5558 174.131 69.5558H173.079C172.503 69.5559 172.035 69.0887 172.035 68.5123Z" fill="#EAD8AE"/>
<path d="M187.102 121.488C198.535 121.488 207.803 112.219 207.803 100.786C207.803 89.3531 198.535 80.0847 187.102 80.0847C175.669 80.0847 166.4 89.3531 166.4 100.786C166.4 112.219 175.669 121.488 187.102 121.488Z" fill="#141005"/>
<path d="M187.102 120.799C198.155 120.799 207.115 111.839 207.115 100.786C207.115 89.7333 198.155 80.7732 187.102 80.7732C176.049 80.7732 167.089 89.7333 167.089 100.786C167.089 111.839 176.049 120.799 187.102 120.799Z" fill="#141005"/>
<path opacity="0.78" d="M170.6 92.9063C170.534 92.9063 170.467 92.8915 170.405 92.8597C170.19 92.7518 170.105 92.4908 170.213 92.2767C173.451 85.8625 179.922 81.8776 187.103 81.8776C188.248 81.8776 189.396 81.9809 190.513 82.1843C190.749 82.2273 190.905 82.4531 190.863 82.689C190.82 82.9246 190.595 83.0801 190.358 83.0383C189.292 82.8442 188.196 82.7456 187.103 82.7456C180.252 82.7456 174.077 86.5475 170.987 92.6679C170.911 92.8193 170.758 92.9063 170.6 92.9063Z" fill="white"/>
<path opacity="0.78" d="M199.512 113.2C206.127 106.585 206.127 95.8606 199.512 89.2458C192.897 82.631 182.173 82.631 175.558 89.2457C168.943 95.8604 168.943 106.585 175.558 113.2C182.173 119.815 192.898 119.815 199.512 113.2Z" fill="white"/>
<path d="M185.876 113.815V111.972C183.955 111.895 182.055 111.441 180.706 110.851C180.224 110.64 179.978 110.099 180.116 109.591L180.585 107.875C180.756 107.245 181.441 106.919 182.043 107.172C183.382 107.733 185.035 108.177 186.817 108.177C188.668 108.177 190.048 107.55 190.048 106.264C190.048 105.103 188.981 104.413 186.41 103.724C182.74 102.72 180.106 101.12 180.106 97.8902C180.106 94.9734 182.239 92.7468 185.939 92.151V90.308C185.939 89.7149 186.42 89.2342 187.013 89.2342H188.096C188.689 89.2342 189.169 89.7149 189.169 90.308V91.9627C190.947 92.0339 192.241 92.3378 193.268 92.6987C193.794 92.8835 194.082 93.4503 193.936 93.9885L193.505 95.5759C193.339 96.1881 192.685 96.5235 192.092 96.2992C191.146 95.9416 189.809 95.5693 188.072 95.5693C185.877 95.5693 185.249 96.4788 185.249 97.2942C185.249 98.2977 186.567 98.9877 189.42 99.866C193.498 101.089 195.191 102.783 195.191 105.825C195.191 108.616 193.121 111.125 189.107 111.752V113.815C189.107 114.408 188.626 114.888 188.033 114.888H186.95C186.357 114.888 185.876 114.408 185.876 113.815Z" fill="#EAD8AE"/>
<path d="M213.659 87.7542C222.036 87.7542 228.827 80.9633 228.827 72.5864C228.827 64.2095 222.036 57.4186 213.659 57.4186C205.282 57.4186 198.491 64.2095 198.491 72.5864C198.491 80.9633 205.282 87.7542 213.659 87.7542Z" fill="#141005"/>
<path d="M213.659 87.2499C221.758 87.2499 228.323 80.6849 228.323 72.5866C228.323 64.4882 221.758 57.9232 213.659 57.9232C205.561 57.9232 198.996 64.4882 198.996 72.5866C198.996 80.6849 205.561 87.2499 213.659 87.2499Z" fill="#141005"/>
<path opacity="0.78" d="M201.567 66.9294C201.502 66.9294 201.435 66.9146 201.372 66.8828C201.158 66.7749 201.072 66.5139 201.18 66.2998C203.572 61.5607 208.354 58.6168 213.659 58.6168C214.506 58.6168 215.354 58.693 216.179 58.8435C216.415 58.8866 216.571 59.1126 216.528 59.3483C216.485 59.5843 216.261 59.7404 216.023 59.6975C215.249 59.5564 214.454 59.4848 213.659 59.4848C208.683 59.4848 204.199 62.2461 201.955 66.691C201.879 66.8424 201.726 66.9294 201.567 66.9294Z" fill="white"/>
<path opacity="0.78" d="M216.822 84.9642C223.492 83.3892 227.622 76.7052 226.047 70.0351C224.472 63.365 217.788 59.2347 211.118 60.8097C204.448 62.3847 200.318 69.0686 201.893 75.7387C203.468 82.4088 210.152 86.5392 216.822 84.9642Z" fill="white"/>
<path d="M212.761 82.1317V80.7815C211.354 80.7251 209.961 80.3929 208.972 79.9601C208.619 79.8056 208.439 79.4093 208.541 79.0374L208.884 77.7797C209.01 77.3183 209.511 77.0797 209.952 77.2645C210.933 77.6758 212.144 78.0011 213.45 78.0011C214.806 78.0011 215.817 77.5415 215.817 76.5993C215.817 75.7491 215.036 75.2436 213.152 74.7382C210.463 74.0028 208.533 72.831 208.533 70.4641C208.533 68.327 210.096 66.6956 212.807 66.2591V64.9087C212.807 64.4742 213.159 64.122 213.594 64.122H214.387C214.822 64.122 215.174 64.4743 215.174 64.9087V66.1211C216.476 66.1732 217.424 66.3959 218.177 66.6604C218.562 66.7958 218.773 67.2111 218.666 67.6054L218.35 68.7685C218.229 69.217 217.749 69.4628 217.315 69.2984C216.622 69.0364 215.643 68.7636 214.369 68.7636C212.761 68.7636 212.301 69.4299 212.301 70.0274C212.301 70.7627 213.267 71.2682 215.358 71.9116C218.345 72.8078 219.586 74.0485 219.586 76.2775C219.586 78.3227 218.069 80.1609 215.128 80.6206V82.1316C215.128 82.5662 214.776 82.9183 214.341 82.9183H213.548C213.113 82.9184 212.761 82.5663 212.761 82.1317Z" fill="#EAD8AE"/>
<path d="M129.81 301.112H1.82086C0.815185 301.112 0 300.297 0 299.291V199.865H131.63V299.291C131.63 300.296 130.815 301.112 129.81 301.112Z" fill="#141005"/>
<path d="M129.81 293.835H1.82086C0.815185 293.835 0 293.02 0 292.014V195.568H131.63V292.014C131.63 293.02 130.815 293.835 129.81 293.835Z" fill="#C19632"/>
<path d="M12.11 199.865H7.57812V207.569H12.11V199.865Z" fill="#082133"/>
<path d="M22.3063 199.865H17.7744V207.569H22.3063V199.865Z" fill="#082133"/>
<path d="M31.3141 199.865H26.7822V207.569H31.3141V199.865Z" fill="#082133"/>
<path d="M41.5094 199.865H36.9775V207.569H41.5094V199.865Z" fill="#082133"/>
<path d="M50.5172 199.865H45.9854V207.569H50.5172V199.865Z" fill="#082133"/>
<path d="M60.7145 199.865H56.1826V207.569H60.7145V199.865Z" fill="#082133"/>
<path d="M69.7204 199.865H65.1885V207.569H69.7204V199.865Z" fill="#082133"/>
<path d="M79.9176 199.865H75.3857V207.569H79.9176V199.865Z" fill="#082133"/>
<path d="M88.9235 199.865H84.3916V207.569H88.9235V199.865Z" fill="#082133"/>
<path d="M99.1207 199.865H94.5889V207.569H99.1207V199.865Z" fill="#082133"/>
<path d="M108.129 199.865H103.597V207.569H108.129V199.865Z" fill="#082133"/>
<path d="M118.324 199.865H113.792V207.569H118.324V199.865Z" fill="#082133"/>
<path d="M72.2623 211.556H58.584V225.234H72.2623V211.556Z" fill="white"/>
<path d="M88.8854 211.556H75.207V225.234H88.8854V211.556Z" fill="white"/>
<path d="M105.339 211.556H91.6611V225.234H105.339V211.556Z" fill="white"/>
<path d="M121.659 211.556H107.98V225.234H121.659V211.556Z" fill="white"/>
<path d="M22.8815 228.755H9.20312V242.433H22.8815V228.755Z" fill="white"/>
<path d="M39.3365 228.755H25.6582V242.433H39.3365V228.755Z" fill="white"/>
<path d="M55.6559 228.755H41.9775V242.433H55.6559V228.755Z" fill="white"/>
<path d="M72.2447 228.755H58.5664V242.433H72.2447V228.755Z" fill="white"/>
<path d="M88.8688 228.755H75.1904V242.433H88.8688V228.755Z" fill="white"/>
<path d="M105.323 228.755H91.6445V242.433H105.323V228.755Z" fill="white"/>
<path d="M121.642 228.755H107.964V242.433H121.642V228.755Z" fill="white"/>
<path d="M23.2867 245.142H9.6084V258.82H23.2867V245.142Z" fill="white"/>
<path d="M39.7408 245.142H26.0625V258.82H39.7408V245.142Z" fill="white"/>
<path d="M56.0611 245.142H42.3828V258.82H56.0611V245.142Z" fill="#141005"/>
<path d="M72.652 245.142H58.9736V258.82H72.652V245.142Z" fill="white"/>
<path d="M89.275 245.142H75.5967V258.82H89.275V245.142Z" fill="white"/>
<path d="M105.729 245.142H92.0508V258.82H105.729V245.142Z" fill="white"/>
<path d="M122.049 245.142H108.371V258.82H122.049V245.142Z" fill="white"/>
<path d="M23.693 261.326H10.0146V275.004H23.693V261.326Z" fill="white"/>
<path d="M40.1481 261.326H26.4697V275.004H40.1481V261.326Z" fill="white"/>
<path d="M56.4674 261.326H42.7891V275.004H56.4674V261.326Z" fill="white"/>
<path d="M73.0572 261.326H59.3789V275.004H73.0572V261.326Z" fill="white"/>
<path d="M89.6813 261.326H76.0029V275.004H89.6813V261.326Z" fill="white"/>
<path d="M106.136 261.326H92.458V275.004H106.136V261.326Z" fill="white"/>
<path d="M122.456 261.326H108.777V275.004H122.456V261.326Z" fill="white"/>
<path d="M23.693 277.473H10.0146V291.151H23.693V277.473Z" fill="white"/>
<path d="M40.1481 277.473H26.4697V291.151H40.1481V277.473Z" fill="white"/>
<path d="M56.4674 277.473H42.7891V291.151H56.4674V277.473Z" fill="white"/>
<path d="M16.5247 193.733H10.7062C9.36648 193.733 8.27051 194.829 8.27051 196.168V201.581H10.0296V198.063C10.0296 196.723 11.1257 195.627 12.4653 195.627H18.284C18.5027 195.627 18.7141 195.659 18.9162 195.714C18.7015 194.59 17.709 193.733 16.5247 193.733Z" fill="#082133"/>
<path d="M27.8284 193.784H22.0099C20.6702 193.784 19.5742 194.88 19.5742 196.22V201.633H21.3334V198.114C21.3334 196.775 22.4294 195.679 23.769 195.679H29.5877C29.8064 195.679 30.0178 195.711 30.2199 195.766C30.0052 194.641 29.0127 193.784 27.8284 193.784Z" fill="#082133"/>
<path d="M37.3919 193.784H31.5734C30.2337 193.784 29.1377 194.88 29.1377 196.22V201.633H30.8968V198.114C30.8968 196.775 31.9929 195.679 33.3325 195.679H39.1512C39.3699 195.679 39.5812 195.711 39.7834 195.766C39.5686 194.641 38.5762 193.784 37.3919 193.784Z" fill="#082133"/>
<path d="M46.9847 193.784H41.1661C39.8264 193.784 38.7305 194.88 38.7305 196.22V201.633H40.4896V198.114C40.4896 196.775 41.5857 195.679 42.9253 195.679H48.7439C48.9627 195.679 49.174 195.711 49.3761 195.766C49.1614 194.641 48.169 193.784 46.9847 193.784Z" fill="#082133"/>
<path d="M56.5794 193.784H50.7609C49.4212 193.784 48.3252 194.88 48.3252 196.22V201.633H50.0843V198.114C50.0843 196.775 51.1804 195.679 52.52 195.679H58.3387C58.5574 195.679 58.7687 195.711 58.9709 195.766C58.7561 194.641 57.7637 193.784 56.5794 193.784Z" fill="#082133"/>
<path d="M66.1751 193.784H60.3566C59.0169 193.784 57.9209 194.88 57.9209 196.22V201.633H59.68V198.114C59.68 196.775 60.7761 195.679 62.1157 195.679H67.9344C68.1531 195.679 68.3644 195.711 68.5666 195.766C68.3518 194.641 67.3594 193.784 66.1751 193.784Z" fill="#082133"/>
<path d="M75.7698 193.784H69.9513C68.6116 193.784 67.5156 194.88 67.5156 196.22V201.633H69.2748V198.114C69.2748 196.775 70.3708 195.679 71.7104 195.679H77.5291C77.7478 195.679 77.9592 195.711 78.1613 195.766C77.9466 194.641 76.9542 193.784 75.7698 193.784Z" fill="#082133"/>
<path d="M85.4173 193.733H79.5987C78.259 193.733 77.1631 194.829 77.1631 196.168V201.581H78.9222V198.063C78.9222 196.723 80.0183 195.627 81.3579 195.627H87.1765C87.3953 195.627 87.6066 195.659 87.8087 195.714C87.594 194.59 86.6016 193.733 85.4173 193.733Z" fill="url(#paint0_linear_7628_4608)"/>
<path d="M94.4632 193.646H88.6446C87.3051 193.646 86.209 194.742 86.209 196.082V201.494H87.968V197.976C87.968 196.636 89.0641 195.54 90.4037 195.54H96.2223C96.4411 195.54 96.6524 195.572 96.8545 195.627C96.6399 194.503 95.6474 193.646 94.4632 193.646Z" fill="url(#paint1_linear_7628_4608)"/>
<path d="M103.859 193.646H98.0402C96.7005 193.646 95.6045 194.742 95.6045 196.082V201.494H97.3635V197.976C97.3635 196.636 98.4596 195.54 99.7992 195.54H105.618C105.837 195.54 106.048 195.572 106.25 195.627C106.035 194.503 105.043 193.646 103.859 193.646Z" fill="url(#paint2_linear_7628_4608)"/>
<path d="M122.465 193.866H116.647C115.307 193.866 114.211 194.962 114.211 196.302V201.714H115.97V198.196C115.97 196.857 117.066 195.761 118.406 195.761H124.224C124.443 195.761 124.654 195.793 124.857 195.847C124.642 194.723 123.649 193.866 122.465 193.866Z" fill="#082133"/>
<path d="M85.3626 193.613H79.5441C78.2044 193.613 77.1084 194.709 77.1084 196.049V201.461H78.8675V197.943C78.8675 196.604 79.9636 195.508 81.3032 195.508H87.1219C87.3406 195.508 87.5519 195.539 87.7541 195.594C87.5393 194.47 86.5469 193.613 85.3626 193.613Z" fill="#082133"/>
<path d="M168.288 238.158C168.228 238.135 135.735 181.232 131.344 175.877C130.606 174.976 129.463 174.518 128.306 174.656L119.236 175.736L108.582 198.786L126.332 188.448C124.576 200.596 147.378 218.648 155.198 225.235C155.992 225.904 156.057 227.101 155.34 227.851L152.218 231.119C157.344 236.315 163.258 239.651 169.934 241.194L168.288 238.158Z" fill="url(#paint3_linear_7628_4608)"/>
<path d="M154.023 229.355C154.023 229.355 152.031 229.999 151.356 231.773C151.033 232.622 151.381 233.584 152.12 234.113C155.401 236.464 166.223 244.053 171.218 245.539C171.627 245.661 172.017 245.291 171.924 244.874C171.668 243.713 170.839 241.396 168.168 238.005L168.408 238.489C168.711 239.103 168.043 239.741 167.447 239.405C164.107 237.52 157.303 233.392 154.023 229.355Z" fill="#082133"/>
<path d="M155.632 252.123C155.577 252.088 150.702 240.343 150.648 240.308C146.178 213.094 135.273 189.788 132.056 183.655C131.515 182.623 130.489 181.943 129.328 181.844L120.228 181.067L105.129 201.483L124.604 194.952C120.425 206.492 139.102 228.785 145.428 236.819C146.07 237.634 145.891 238.82 145.037 239.41L141.319 241.978C145.287 248.104 150.404 252.568 156.629 255.43L155.632 252.123Z" fill="url(#paint4_linear_7628_4608)"/>
<path d="M143.444 240.616C143.444 240.616 141.362 240.843 140.342 242.445C139.855 243.211 140.001 244.223 140.617 244.891C143.354 247.857 152.417 257.479 157.007 259.945C157.384 260.148 157.84 259.864 157.834 259.437C157.818 258.249 157.475 255.812 155.546 251.95L155.682 252.473C155.855 253.135 155.072 253.625 154.556 253.175C151.667 250.652 145.839 245.234 143.444 240.616Z" fill="#082133"/>
<path d="M77.6296 176.767C77.6296 176.767 69.3972 189.012 68.7217 194.597C68.0462 200.183 70.998 202.114 79.6146 202.826C105.256 204.946 117.896 197.261 117.896 197.261C119.65 186.077 120.899 183.232 135.548 177.151C135.548 177.151 117.019 178.622 113.29 177.175C109.561 175.728 77.6296 176.767 77.6296 176.767Z" fill="#141005"/>
<path d="M110.409 107.642C110.409 107.642 104.675 100.858 98.579 109.182C97.475 110.689 93.2345 109.445 91.68 112.601C90.8773 114.23 89.1435 115.155 87.3576 114.826C82.9094 114.006 75.6388 113.937 72.049 120.907C69.3088 126.228 71.4244 129.342 74.1635 131.117C76.1751 132.421 76.8932 135.068 75.6767 137.134C74.5099 139.115 74.2905 141.798 77.3033 145.027C84.0549 152.263 97.4199 140.435 97.4199 140.435L108.032 115.359L110.409 107.642Z" fill="#141005"/>
<path d="M99.8941 175.146C99.8941 175.146 109.481 166.017 114.2 159.971C116.751 156.703 117.552 152.4 116.372 148.426C114.218 141.167 110.389 133.649 110.04 132.479C109.504 130.686 98.7552 130.76 98.7552 130.76C98.7552 130.76 77.6028 144.488 69.292 167.743L78.6256 170.649C78.6256 170.649 84.1484 161.383 89.6053 155.492C89.6053 155.492 80.1629 167.966 79.8304 173.072L99.8941 175.146Z" fill="#C19632"/>
<path d="M118.161 178.749L110.957 170.911L102.638 173.151C102.638 173.151 92.9389 174.654 87.3879 173.151C81.8369 171.649 81.8369 171.649 81.8369 171.649L69.2927 167.743L67.3227 173.311C66.8224 174.725 67.3251 176.294 68.5474 177.163C69.6327 177.934 70.9048 178.781 71.7156 179.136C73.3676 179.859 109.77 179.365 109.77 179.365L118.161 178.749Z" fill="url(#paint5_linear_7628_4608)"/>
<path d="M106.142 117.836L98.917 131.27C99.394 134.203 106.78 134.286 107.921 132.535C108.037 132.356 108.104 132.15 108.148 131.942L112.469 122.966C112.655 122.09 110.255 119.141 109.466 118.721L106.594 117.192C105.488 116.603 110.102 116.557 106.142 117.836Z" fill="url(#paint6_linear_7628_4608)"/>
<path d="M120.764 114.684C120.764 114.684 121.58 119.223 118.012 124.994C114.445 130.765 110.893 130.504 109.088 128.446C107.283 126.388 105.121 122.96 106.105 117.204C107.088 111.449 119.532 108.896 120.764 114.684Z" fill="url(#paint7_linear_7628_4608)"/>
<path d="M110.373 117.307C110.373 117.307 116.149 109.72 120.584 116.334L120.509 118.619C120.509 118.619 126.276 118.349 125.651 113.034C125.026 107.718 120.317 104.087 113.79 105.903C107.263 107.719 103.448 109.787 102.711 114.319C101.974 118.851 105.675 118.111 105.675 118.111C105.675 118.111 107.088 114.984 108.795 114.77C110.502 114.556 109.885 117.03 109.885 117.03L110.373 117.307Z" fill="#141005"/>
<path d="M109.097 117.627C109.097 117.627 112.089 113.744 109.365 112.938C106.641 112.132 106.743 116.743 106.921 118.458L109.097 117.627Z" fill="url(#paint8_linear_7628_4608)"/>
<path d="M94.265 181.328C94.2904 181.329 94.3157 181.33 94.3412 181.33L127.474 181.293C128.293 181.293 128.956 180.628 128.955 179.809C128.955 178.99 128.287 178.313 127.471 178.328L94.3378 178.364C93.5188 178.364 92.8556 179.029 92.8564 179.848C92.8574 180.642 93.4815 181.289 94.265 181.328Z" fill="#082133"/>
<path d="M157.258 151.245H129.665C127.63 151.245 125.777 152.42 124.909 154.261L112.152 181.31H146.443C147.755 181.31 148.934 180.509 149.416 179.289L159.308 154.259C159.879 152.812 158.814 151.245 157.258 151.245Z" fill="#082133"/>
<path d="M137.869 165.637C137.271 167.495 137.713 169.299 138.856 169.667C139.999 170.035 141.41 168.827 142.008 166.969C142.606 165.111 142.164 163.307 141.021 162.939C139.878 162.572 138.467 163.779 137.869 165.637Z" fill="#91B3FA"/>
<defs>
<linearGradient id="paint0_linear_7628_4608" x1="148.489" y1="192.115" x2="-78.8311" y2="210.3" gradientUnits="userSpaceOnUse">
<stop stop-color="#FEBBBA"/>
<stop offset="1" stop-color="#FF928E"/>
</linearGradient>
<linearGradient id="paint1_linear_7628_4608" x1="148.539" y1="192.748" x2="-78.7812" y2="210.933" gradientUnits="userSpaceOnUse">
<stop stop-color="#FEBBBA"/>
<stop offset="1" stop-color="#FF928E"/>
</linearGradient>
<linearGradient id="paint2_linear_7628_4608" x1="148.599" y1="193.494" x2="-78.7212" y2="211.68" gradientUnits="userSpaceOnUse">
<stop stop-color="#FEBBBA"/>
<stop offset="1" stop-color="#FF928E"/>
</linearGradient>
<linearGradient id="paint3_linear_7628_4608" x1="176.076" y1="190.49" x2="124.85" y2="219.73" gradientUnits="userSpaceOnUse">
<stop stop-color="#FEBBBA"/>
<stop offset="1" stop-color="#FF928E"/>
</linearGradient>
<linearGradient id="paint4_linear_7628_4608" x1="171.12" y1="197.782" x2="346.394" y2="88.0584" gradientUnits="userSpaceOnUse">
<stop stop-color="#FEBBBA"/>
<stop offset="1" stop-color="#FF928E"/>
</linearGradient>
<linearGradient id="paint5_linear_7628_4608" x1="86.3549" y1="173.636" x2="35.3252" y2="173.636" gradientUnits="userSpaceOnUse">
<stop stop-color="#FEBBBA"/>
<stop offset="1" stop-color="#FF928E"/>
</linearGradient>
<linearGradient id="paint6_linear_7628_4608" x1="107.122" y1="149.246" x2="105.943" y2="130.865" gradientUnits="userSpaceOnUse">
<stop stop-color="#FEBBBA"/>
<stop offset="1" stop-color="#FF928E"/>
</linearGradient>
<linearGradient id="paint7_linear_7628_4608" x1="105.387" y1="133.695" x2="127.592" y2="91.2001" gradientUnits="userSpaceOnUse">
<stop stop-color="#FEBBBA"/>
<stop offset="1" stop-color="#FF928E"/>
</linearGradient>
<linearGradient id="paint8_linear_7628_4608" x1="100.304" y1="131.038" x2="122.508" y2="88.5437" gradientUnits="userSpaceOnUse">
<stop stop-color="#FEBBBA"/>
<stop offset="1" stop-color="#FF928E"/>
</linearGradient>
</defs>
</svg>
