<svg width="303" height="299" viewBox="0 0 303 299" fill="none" xmlns="http://www.w3.org/2000/svg">
<path d="M169.679 3.68628C173.5 6.57459 175.98 11.1428 175.98 16.302V177.379C175.98 186.117 168.895 193.201 160.157 193.201H94.2777C92.9117 193.201 91.593 193.01 90.3291 192.685C92.9803 194.689 96.2714 195.892 99.8515 195.892H165.73C174.469 195.892 181.553 188.808 181.553 180.069V18.9926C181.553 11.62 176.503 5.44277 169.679 3.68628Z" fill="#EAD8AE"/>
<path d="M160.154 193.681H94.277C85.2881 193.681 77.9746 186.368 77.9746 177.378V16.3024C77.9746 7.31347 85.2873 0 94.277 0H160.155C169.145 0 176.458 7.31274 176.458 16.3024V177.378C176.457 186.367 169.144 193.681 160.154 193.681ZM94.277 0.95815C85.8164 0.95815 78.9328 7.8418 78.9328 16.3024V177.378C78.9328 185.84 85.8164 192.722 94.277 192.722H160.155C168.617 192.722 175.499 185.84 175.499 177.378V16.3024C175.499 7.8418 168.617 0.95815 160.155 0.95815H94.277Z" fill="#DFC486"/>
<path d="M160.128 171.269H94.3083C89.7182 171.269 85.9834 167.534 85.9834 162.944V22.2094C85.9834 17.6193 89.7182 13.8853 94.3083 13.8853H160.128C164.717 13.8853 168.451 17.6193 168.451 22.2094V162.944C168.451 167.534 164.717 171.269 160.128 171.269ZM94.3083 14.8434C90.2458 14.8434 86.9408 18.1484 86.9408 22.2094V162.944C86.9408 167.005 90.2458 170.311 94.3083 170.311H160.128C164.19 170.311 167.493 167.005 167.493 162.944V22.2094C167.493 18.1477 164.19 14.8434 160.128 14.8434H94.3083Z" fill="#EAD8AE"/>
<path d="M190.007 39.5481H90.0693V84.8592H190.007V39.5481Z" fill="#EAD8AE"/>
<path d="M193.157 79.1432H96.9134C95.8932 79.1432 95.0664 78.3164 95.0664 77.2963V35.6791C95.0664 34.6589 95.8932 33.8322 96.9134 33.8322H193.157C194.177 33.8322 195.004 34.6589 195.004 35.6791V77.297C195.004 78.3164 194.177 79.1432 193.157 79.1432Z" fill="white"/>
<path d="M190.156 79.6218H99.915C96.9778 79.6218 94.5879 77.2319 94.5879 74.2947V38.6804C94.5879 35.7432 96.9778 33.3533 99.915 33.3533H190.156C193.093 33.3533 195.482 35.7432 195.482 38.6804V74.2954C195.482 77.2319 193.093 79.6218 190.156 79.6218ZM99.915 34.3107C97.5054 34.3107 95.546 36.2708 95.546 38.6804V74.2954C95.546 76.705 97.5054 78.6644 99.915 78.6644H190.156C192.565 78.6644 194.524 76.705 194.524 74.2954V38.6804C194.524 36.2708 192.565 34.3107 190.156 34.3107H99.915Z" fill="#DFC486"/>
<path d="M140.919 9.37254H113.512C113.155 9.37254 112.865 9.08283 112.865 8.72599V6.62507C112.865 6.26822 113.155 5.97852 113.512 5.97852H140.919C141.276 5.97852 141.565 6.26822 141.565 6.62507V8.72599C141.565 9.08283 141.276 9.37254 140.919 9.37254Z" fill="#DFC486"/>
<path d="M130.354 55.627H106.927V76.2268H130.354V55.627Z" fill="#F4EBD7"/>
<path d="M155.76 55.627H132.333V76.2268H155.76V55.627Z" fill="#F4EBD7"/>
<path d="M164.99 100.36H141.563V120.959H164.99V100.36Z" fill="#F4EBD7"/>
<path d="M138.932 100.36H115.505V120.959H138.932V100.36Z" fill="#F4EBD7"/>
<path d="M239.145 8.02905H210.322V20.7003H239.145V8.02905Z" fill="#F4EBD7"/>
<path d="M273.035 8.02905H244.213V20.7003H273.035V8.02905Z" fill="#F4EBD7"/>
<path d="M111.621 44.8219V44.9905C111.621 45.9997 111.323 46.5944 110.599 46.8404V46.8666C111.454 47.1257 111.816 47.7985 111.816 48.9887V49.2996C111.816 50.7875 111.014 51.5895 109.539 51.5895H107.52V42.5313H109.435C110.857 42.5305 111.621 43.334 111.621 44.8219ZM108.891 43.7995V46.2712H109.317C109.977 46.2712 110.249 45.9348 110.249 45.1715V44.8737C110.249 44.136 109.977 43.7995 109.382 43.7995H108.891ZM108.891 47.5387V50.3205H109.485C110.145 50.3205 110.444 49.9717 110.444 49.2084V48.7034C110.444 47.9014 110.146 47.5387 109.421 47.5387H108.891Z" fill="#DFC486"/>
<path d="M117.859 44.6919V49.4279C117.859 50.8516 117.018 51.7179 115.646 51.7179C114.275 51.7179 113.434 50.8509 113.434 49.4279V44.6919C113.434 43.2682 114.275 42.402 115.646 42.402C117.018 42.402 117.859 43.2682 117.859 44.6919ZM114.805 44.705V49.4148C114.805 50.0876 115.103 50.4503 115.646 50.4503C116.19 50.4503 116.488 50.0876 116.488 49.4148V44.705C116.488 44.0322 116.191 43.6703 115.646 43.6703C115.103 43.6703 114.805 44.0322 114.805 44.705Z" fill="#DFC486"/>
<path d="M124.122 44.6919V49.4279C124.122 50.8516 123.282 51.7179 121.91 51.7179C120.539 51.7179 119.697 50.8509 119.697 49.4279V44.6919C119.697 43.2682 120.539 42.402 121.91 42.402C123.282 42.402 124.122 43.2682 124.122 44.6919ZM121.069 44.705V49.4148C121.069 50.0876 121.367 50.4503 121.911 50.4503C122.454 50.4503 122.752 50.0876 122.752 49.4148V44.705C122.752 44.0322 122.455 43.6703 121.911 43.6703C121.367 43.6703 121.069 44.0322 121.069 44.705Z" fill="#DFC486"/>
<path d="M128.978 46.1288L130.88 51.5894H129.419L128.073 47.6298L127.478 48.7945V51.5894H126.106V42.5311H127.478V46.3105H127.504L129.406 42.5311H130.843L128.978 46.1288Z" fill="#DFC486"/>
<path d="M133.713 51.5895H132.341V42.5312H133.713V51.5895Z" fill="#DFC486"/>
<path d="M140.301 51.5895H138.955L137.156 45.5852H137.13V51.5895H135.837V42.5312H137.364L138.981 47.9277H139.008V42.5312H140.301L140.301 51.5895Z" fill="#DFC486"/>
<path d="M146.577 44.576V45.197L145.257 45.2612V44.7183C145.257 43.9937 144.985 43.6704 144.455 43.6704C143.925 43.6704 143.652 43.9937 143.652 44.5891V49.5317C143.652 50.1271 143.911 50.4504 144.442 50.4504C144.972 50.4504 145.231 50.1271 145.231 49.4018V47.8489H144.455V46.5806H146.577V49.5448C146.577 50.916 145.788 51.718 144.416 51.718C143.058 51.718 142.281 50.916 142.281 49.5448V44.576C142.281 43.2041 143.057 42.4021 144.416 42.4021C145.788 42.4021 146.577 43.2041 146.577 44.576Z" fill="#DFC486"/>
<path d="M190.215 44.0513C190.215 40.7011 187.499 37.985 184.148 37.985C180.797 37.985 178.081 40.7011 178.081 44.0513C178.081 44.4987 178.137 44.9321 178.228 45.3525C178.314 45.7436 178.447 46.115 178.604 46.4733L178.638 46.5755L183.681 58.301C183.858 58.7104 184.439 58.7104 184.615 58.301L189.701 46.4784C189.701 46.4784 189.688 46.4974 189.664 46.5288C189.833 46.153 189.977 45.764 190.067 45.3517C190.16 44.9321 190.215 44.4987 190.215 44.0513ZM184.149 50.1184C184.35 50.1184 184.543 50.0863 184.74 50.0666C184.544 50.098 184.347 50.1184 184.149 50.1184Z" fill="#DFC486"/>
<path d="M187.192 43.9064C187.192 45.5877 185.829 46.9509 184.148 46.9509C182.467 46.9509 181.104 45.5877 181.104 43.9064C181.104 42.2251 182.467 40.8619 184.148 40.8619C185.829 40.8619 187.192 42.2251 187.192 43.9064Z" fill="white"/>
<path d="M133.858 188.065C136.821 185.102 136.821 180.298 133.858 177.335C130.895 174.371 126.09 174.371 123.127 177.335C120.164 180.298 120.164 185.102 123.127 188.065C126.09 191.029 130.895 191.029 133.858 188.065Z" fill="#DFC486"/>
<path d="M127.217 188.944C131.407 188.944 134.805 185.547 134.805 181.357C134.805 177.166 131.407 173.769 127.217 173.769C123.026 173.769 119.629 177.166 119.629 181.357C119.629 185.547 123.026 188.944 127.217 188.944Z" fill="#EAD8AE"/>
<path d="M50.844 293.248C78.9244 293.248 101.688 287.656 101.688 280.757C101.688 273.859 78.9244 268.267 50.844 268.267C22.7636 268.267 0 273.859 0 280.757C0 287.656 22.7636 293.248 50.844 293.248Z" fill="#F4EBD7"/>
<path d="M58.397 30.272C58.8341 29.4977 58.8524 28.425 58.2262 27.793C58.027 27.5916 57.7774 27.4464 57.5709 27.2523C57.2783 26.9779 57.0842 26.6174 56.8419 26.2978C56.3545 25.6549 55.6371 25.166 54.838 25.055C54.039 24.9441 50.4253 25.6053 49.6197 25.5666C48.4331 25.5089 47.2144 26.2525 46.843 27.3807C46.7481 27.6682 46.1738 31.1323 46.4489 31.7088C46.5409 31.9015 46.6285 32.1051 46.627 32.3182C46.6248 32.6823 49.003 36.7418 49.5598 36.5091C51.4061 35.737 53.253 34.9649 55.0993 34.1929C55.5379 34.0097 55.9932 33.8141 56.3026 33.4536C56.7558 32.9253 56.3632 32.3262 56.7193 31.8445C57.171 31.2338 57.9832 31.0046 58.397 30.272Z" fill="#141005"/>
<path d="M41.2614 148.004C27.6561 148.004 13.1963 145.551 13.1963 141.002C13.1963 136.455 27.6561 134.001 41.2614 134.001C54.866 134.001 69.3258 136.455 69.3258 141.002C69.3258 145.55 54.866 148.004 41.2614 148.004ZM41.2614 134.959C25.2866 134.959 14.1544 138.144 14.1544 141.002C14.1544 143.861 25.2866 147.046 41.2614 147.046C57.2355 147.046 68.3677 143.861 68.3677 141.002C68.3677 138.144 57.2355 134.959 41.2614 134.959Z" fill="#EAD8AE"/>
<path d="M63.4406 286.099H56.2979V161.266L63.4406 159.406V286.099ZM57.256 285.142H62.4831V160.644L57.256 162.006V285.142Z" fill="#EAD8AE"/>
<path d="M26.225 286.099H19.083V159.406L26.225 161.265V286.099ZM20.0412 285.142H25.2676V162.006L20.0412 160.644V285.142Z" fill="#EAD8AE"/>
<path d="M41.2614 162.932C27.6561 162.932 13.1963 160.478 13.1963 155.93C13.1963 151.381 27.6561 148.929 41.2614 148.929C54.866 148.929 69.3258 151.382 69.3258 155.93C69.3258 160.477 54.866 162.932 41.2614 162.932ZM41.2614 149.887C25.2866 149.887 14.1544 153.071 14.1544 155.93C14.1544 158.789 25.2866 161.975 41.2614 161.975C57.2355 161.975 68.3677 158.789 68.3677 155.93C68.3677 153.072 57.2355 149.887 41.2614 149.887Z" fill="#EAD8AE"/>
<path d="M41.2614 248.011C27.6561 248.011 13.1963 245.558 13.1963 241.01C13.1963 236.463 27.6561 234.008 41.2614 234.008C54.866 234.008 69.3258 236.463 69.3258 241.01C69.3258 245.558 54.866 248.011 41.2614 248.011ZM41.2614 234.966C25.2866 234.966 14.1544 238.152 14.1544 241.01C14.1544 243.869 25.2866 247.053 41.2614 247.053C57.2355 247.053 68.3677 243.87 68.3677 241.01C68.3677 238.152 57.2355 234.966 41.2614 234.966Z" fill="#EAD8AE"/>
<path d="M105.423 161.441C93.7745 128.68 76.5023 112.038 75.5522 104.59C75.4785 104.015 74.9837 103.591 74.405 103.604L25.9188 104.665C25.3226 104.679 24.8388 105.148 24.8132 105.743C24.4892 113.254 22.5897 159.299 23.2669 193.142C23.939 226.748 27.3607 265.506 27.9752 272.25C28.0285 272.834 28.5167 273.276 29.1019 273.276H42.3153C42.9152 273.276 43.4107 272.809 43.445 272.21C43.445 272.21 48.0621 216.298 53.6599 175.113C54.9377 165.712 56.2665 157.078 57.6034 150.053C57.8253 148.887 65.273 144.215 77.1466 165.341C80.8917 172.004 95.7499 170.539 102.547 173.493C103.552 170.369 106.588 164.718 105.423 161.441Z" fill="#082133"/>
<path d="M65.2715 44.8995C65.2715 44.8995 75.6674 43.8771 81.6899 61.5055C86.1793 74.6474 94.9625 85.5336 99.5365 85.5336C107.898 85.5336 115.646 73.7673 115.646 73.7673L121.91 77.2299C121.91 77.2299 112.671 100.352 95.7922 100.352C81.2134 100.352 76.3431 92.8624 76.3431 92.8624L65.2715 44.8995Z" fill="#C19632"/>
<path d="M34.6397 44.8992H65.2728C65.2728 44.8992 77.134 67.9261 77.1464 100.03C77.1471 102.311 75.8737 104.408 73.8567 105.474C65.9741 109.641 45.0195 118.436 25.5931 106.791C24.0562 105.87 23.1266 104.199 23.1725 102.408C23.436 92.112 25.037 56.2342 34.6397 44.8992Z" fill="#C19632"/>
<path d="M51.9779 49.5498C56.1571 51.8558 58.2135 44.8992 58.2135 44.8992H52.882L51.4393 45.6836C51.4393 45.6836 46.2027 46.363 51.9779 49.5498Z" fill="#082133"/>
<path d="M55.2507 29.3981C55.9834 29.5155 56.5022 30.1854 56.4519 30.9261C56.4059 31.6084 56.4059 32.3944 56.5905 32.8103C56.9605 33.6422 56.2797 38.3943 55.4069 39.316C54.9603 39.7881 52.9594 39.6589 51.2029 37.8098C49.4464 35.9606 49.5646 32.0704 49.5646 32.0704C49.5646 32.0704 49.2406 28.4311 55.2507 29.3981Z" fill="#EAD8AE"/>
<path d="M56.0469 44.5037C55.9885 42.2729 54.2853 30.3548 54.2853 30.3548C54.2853 30.3548 51.7108 31.3947 50.1302 32.725C50.0805 32.3696 49.9419 31.9106 49.6602 31.3012C49.6602 31.3012 49.0012 30.1198 48.4145 30.3548C47.8271 30.5897 47.2404 31.5289 48.4145 32.5856L49.1479 33.8327C49.0443 34.0181 48.9735 34.2049 48.9429 34.3917C48.9429 34.3917 47.4162 43.9747 46.9463 44.8555C46.9463 44.8555 50.8541 50.1395 53.1272 49.7287C55.4011 49.3186 56.106 46.7353 56.0469 44.5037Z" fill="#EAD8AE"/>
<path d="M55.9051 42.7845C55.8073 41.8446 55.6657 40.6624 55.5066 39.4028C55.4432 39.3481 55.4052 39.3167 55.4052 39.3167C55.4052 39.3167 52.8628 41.1272 51.2012 37.8105C51.2012 37.8105 52.6424 43.169 55.9051 42.7845Z" fill="#EAD8AE"/>
<path d="M73.1147 73.3184C73.7576 77.451 76.3198 85.4591 76.3439 85.5343C75.4477 77.3656 73.9051 70.1003 72.25 64.0522C72.2507 64.0712 72.4704 69.1735 73.1147 73.3184Z" fill="#082133"/>
<path d="M31.1145 273.276C31.1145 273.276 21.5293 281.973 17.9981 282.842C17.3829 282.993 16.8969 283.635 16.9064 284.402C16.9159 285.163 17.3311 285.993 18.954 286.27C22.1999 286.824 40.1757 283.409 40.1757 283.409C40.1757 283.409 40.0217 280.272 39.8735 276.95C39.802 275.339 39.0686 273.275 39.0686 273.275H31.1145V273.276Z" fill="#082133"/>
<path d="M72.4895 239.394C72.4895 239.394 73.3302 252.309 75.264 255.389C75.6004 255.926 75.5041 256.726 74.9641 257.27C74.4277 257.811 73.552 258.119 72.1932 257.189C69.4757 255.33 58.9316 240.376 58.9316 240.376C58.9316 240.376 61.2238 238.229 63.6399 235.945C64.8126 234.836 66.7742 233.864 66.7742 233.864L72.4895 239.394Z" fill="#082133"/>
<path d="M115.896 74.1247C115.896 74.1247 117.773 65.8107 120.235 66.7667C122.697 67.7226 125.736 68.8479 125.34 71.0035C124.944 73.1592 120.57 76.9269 120.57 76.9269C120.57 76.9269 116.779 75.96 115.896 74.1247Z" fill="#EAD8AE"/>
<path d="M12.9165 127.791C12.9165 127.791 15.7909 135.115 13.2624 135.879C10.7338 136.643 7.64701 137.629 6.63048 135.687C5.61468 133.744 7.22231 127.454 7.22231 127.454C7.22231 127.454 11.0899 126.889 12.9165 127.791Z" fill="#EAD8AE"/>
<path d="M14.1544 141.004H13.1963V156.45H14.1544V141.004Z" fill="#EAD8AE"/>
<path d="M77.1451 165.342L62.2482 233.91C62.0884 234.488 62.4073 235.09 62.975 235.283L74.5961 239.232C75.15 239.42 75.755 239.158 75.9929 238.623C78.6017 232.755 93.792 199.431 105.066 166.249C101.127 152.553 75.4594 153.797 77.1451 165.342Z" fill="#082133"/>
<path d="M39.3864 47.2939C37.9152 45.0004 34.8963 44.2217 32.5122 45.5404C11.1994 57.3286 2.06447 86.3446 6.4327 127.79H13.6754C13.6754 127.79 20.7853 84.8428 40.0402 60.2541C43.9443 55.2686 41.1684 50.0721 39.3864 47.2939Z" fill="#C19632"/>
<path d="M26.5498 89.3414C28.3325 84.7061 33.5334 69.9522 33.5334 69.9522L23.7519 90.2886C23.3966 95.4443 23.2397 99.7702 23.1725 102.409C23.1266 104.2 24.0555 105.871 25.5931 106.792L24.813 105.744C24.813 105.744 24.767 93.9768 26.5498 89.3414Z" fill="#082133"/>
<path d="M56.2953 144.364L53.4121 176.934C53.4938 176.324 53.5756 175.716 53.6573 175.113C54.9351 165.712 56.2639 157.079 57.6008 150.053C57.8227 148.887 65.2704 144.215 77.144 165.341C75.208 150.896 58.1635 144.012 56.2953 144.364Z" fill="#082133"/>
<path d="M239.624 67.236H209.243V3.20776H239.624V67.236ZM210.201 66.2785H238.666V4.16518H210.201V66.2785Z" fill="#DFC486"/>
<path d="M273.816 67.236H243.434V3.20776H273.816V67.236ZM244.392 66.2785H272.858V4.16518H244.392V66.2785Z" fill="#DFC486"/>
<path d="M164.131 127.923H141.563V128.881H164.131V127.923Z" fill="#DFC486"/>
<path d="M164.131 136.143H141.563V137.102H164.131V136.143Z" fill="#DFC486"/>
<path d="M164.131 144.364H141.563V145.322H164.131V144.364Z" fill="#DFC486"/>
<path d="M212.709 23.094V24.0521H232.843V23.094H212.709ZM212.709 29.3172H232.843V28.3591H212.709V29.3172ZM212.709 34.5823H232.843V33.6242H212.709V34.5823ZM212.709 39.8474H232.843V38.8892H212.709V39.8474ZM212.709 45.1125H232.843V44.1543H212.709V45.1125ZM212.709 50.3783H232.843V49.4201H212.709V50.3783ZM212.709 55.6426H232.843V54.6845H212.709V55.6426ZM212.709 60.9085H232.843V59.9503H212.709V60.9085Z" fill="#F4EBD7"/>
<path d="M246.872 23.094V24.0521H267.006V23.094H246.872ZM246.872 29.3172H267.006V28.3591H246.872V29.3172ZM246.872 34.5823H267.006V33.6242H246.872V34.5823ZM246.872 39.8474H267.006V38.8892H246.872V39.8474ZM246.872 45.1125H267.006V44.1543H246.872V45.1125ZM246.872 50.3783H267.006V49.4201H246.872V50.3783ZM246.872 55.6426H267.006V54.6845H246.872V55.6426ZM246.872 60.9085H267.006V59.9503H246.872V60.9085Z" fill="#F4EBD7"/>
<path d="M184.891 299C229.061 299 264.867 293.812 264.867 287.412C264.867 281.013 229.061 275.825 184.891 275.825C140.722 275.825 104.915 281.013 104.915 287.412C104.915 293.812 140.722 299 184.891 299Z" fill="#F4EBD7"/>
<path d="M220.225 85.5525C220.045 82.0774 222.565 78.7097 225.893 77.6902C227.87 77.0838 230.032 77.2867 231.931 78.1084C234.215 79.0964 236.759 79.4971 239.23 79.2074C240.617 79.0446 242.042 79.1877 243.361 79.6525C245.998 80.5822 248.156 82.7794 249.037 85.4335C249.931 88.1241 249.545 91.0729 250.125 93.8482C250.626 96.2432 251.864 98.4784 253.627 100.174C256.71 103.138 261.12 104.288 265.38 104.667C269.64 105.047 273.954 104.773 278.182 105.421C282.409 106.07 286.719 107.822 289.185 111.316C290.812 113.62 291.494 116.512 291.389 119.33C291.29 121.994 290.505 124.643 289.042 126.873C286.312 131.035 281.428 133.422 276.498 134.119C269.836 135.061 263.016 133.263 256.632 131.762C251.843 130.636 247.517 127.881 244.821 123.766C240.939 117.842 240.738 111.244 238.557 104.515C237.735 101.98 237.72 98.3988 236.267 96.1651C235.238 94.5845 234.008 92.9754 232.225 92.3602C230.653 91.818 229.299 92.3215 227.735 92.458C226.579 92.5587 225.378 92.1588 224.335 91.6487C222.041 90.5271 220.358 88.1182 220.225 85.5525Z" fill="#141005"/>
<path d="M263.144 281.57L227.097 211.326L232.881 206.958L257.455 254.84L256.602 255.278L232.549 208.41L228.317 211.607L263.997 281.133L263.144 281.57Z" fill="#EAD8AE"/>
<path d="M215.431 285.964L209.075 282.701L247.945 206.958L253.732 211.326L253.549 211.685L215.431 285.964ZM210.366 282.286L215.015 284.673L252.512 211.606L248.278 208.409L210.366 282.286Z" fill="#EAD8AE"/>
<path d="M124.628 278.158C124.628 278.158 114.902 286.696 111.357 287.507C110.739 287.648 110.242 288.282 110.239 289.049C110.236 289.81 110.638 290.647 112.256 290.95C115.493 291.557 133.522 288.439 133.522 288.439C133.522 288.439 133.42 285.3 133.326 281.977C133.281 280.364 132.582 278.289 132.582 278.289L124.628 278.158Z" fill="#082133"/>
<path d="M203.714 275.825C203.714 275.825 193.988 284.363 190.442 285.174C189.825 285.315 189.328 285.949 189.325 286.715C189.322 287.477 189.724 288.314 191.341 288.617C194.578 289.224 212.607 286.106 212.607 286.106C212.607 286.106 212.505 282.967 212.411 279.644C212.366 278.031 211.667 275.955 211.667 275.955L203.714 275.825Z" fill="#082133"/>
<path d="M257.939 139.402C255.279 140.57 252.929 142.34 250.71 144.215C247.224 147.16 243.957 150.449 241.624 154.37C237.474 161.348 236.23 170.319 230.008 175.533C223.539 180.953 211.934 179.808 207.803 187.167C200.088 200.905 204.425 211.633 216.475 211.633C233.369 211.633 250.289 213.439 267.106 211.834C270.456 211.514 273.889 211.066 276.841 209.451C279.354 208.077 281.36 205.937 283.138 203.692C294.8 188.959 295.859 144.743 278.336 139.705C271.724 137.805 264.465 136.538 257.939 139.402Z" fill="white"/>
<path d="M234.009 212.783C228.26 212.572 222.316 212.351 216.478 212.351C211.184 212.351 207.076 210.314 204.911 206.617C202.04 201.712 202.867 194.494 207.178 186.816C209.677 182.369 214.728 180.858 219.614 179.395C223.187 178.326 226.882 177.221 229.55 174.985C233.371 171.78 235.234 167.142 237.206 162.23C238.32 159.457 239.472 156.589 241.01 154.003C243.076 150.529 246.011 147.246 250.249 143.666C252.288 141.944 254.762 140.014 257.654 138.744C264.652 135.672 272.492 137.275 278.539 139.014C283.618 140.475 287.564 145.176 289.95 152.611C295.074 168.569 292.039 193.61 283.705 204.137C282.156 206.094 280.016 208.535 277.19 210.081C274.103 211.77 270.552 212.227 267.179 212.549C261.994 213.044 256.763 213.215 251.546 213.215C245.654 213.215 239.779 212.998 234.009 212.783ZM258.231 140.06C255.506 141.255 253.136 143.109 251.176 144.764C247.064 148.238 244.226 151.406 242.244 154.737C240.763 157.227 239.632 160.043 238.539 162.765C236.587 167.625 234.57 172.65 230.471 176.085C227.577 178.511 223.737 179.66 220.024 180.771C215.201 182.215 210.644 183.579 208.431 187.519C204.375 194.74 203.545 201.436 206.151 205.89C208.048 209.129 211.714 210.913 216.478 210.913C222.343 210.913 228.3 211.134 234.062 211.347C244.895 211.748 256.096 212.163 267.041 211.119C270.265 210.81 273.65 210.379 276.5 208.819C279.099 207.399 281.113 205.095 282.578 203.246C290.666 193.028 293.584 168.632 288.581 153.05C287.024 148.199 283.948 142.065 278.14 140.395C274.679 139.4 270.617 138.45 266.51 138.45C263.713 138.45 260.894 138.892 258.231 140.06Z" fill="#EAD8AE"/>
<path d="M210.081 166.847C210.081 166.847 164.685 180.702 150.24 198.684C135.796 216.665 121.057 278.275 121.057 278.275H135.941C135.941 278.275 166.494 233.864 175.98 215.101L189.741 211.949L222.196 173.829L210.081 166.847Z" fill="#082133"/>
<path d="M268.557 167.838C268.557 167.838 270.217 183.945 268.743 193.378C267.269 202.811 251.941 209.002 242.213 209.002C232.484 209.002 206.543 205.759 206.543 205.759C206.543 205.759 218.04 250.565 213.913 276.506L195.005 278.275C195.005 278.275 179.424 223.151 180.898 206.348C182.372 189.545 200.476 183.348 208.018 179.228C227.026 168.845 269.41 165.335 268.557 167.838Z" fill="#082133"/>
<path d="M242.241 205.222C233.678 201.11 223.672 200.081 214.451 202.365C212.648 202.812 205.599 204.118 206.15 205.892C206.399 206.696 209.285 207.055 210.022 207.463C217.472 211.595 253.56 212.47 270.395 208.555C279.56 206.424 279.781 194.867 281.559 185.627C282.187 182.363 282.576 178.936 281.609 175.755C280.642 172.575 278.018 169.698 274.711 169.358C270.917 168.967 265.98 171.627 262.498 173.123C258.423 174.875 254.726 177.786 251.732 181.026C245.718 187.533 242.05 196.312 242.241 205.222Z" fill="white"/>
<path d="M242.084 109.442C243.482 106.899 242.644 103.685 240.197 102.124C237.234 100.234 232.583 98.7844 226.392 101.463C217.901 105.136 202.818 117.596 202.818 117.596C202.818 117.596 185.985 129.431 189.511 133.017C191.842 135.387 193.695 138.136 196.986 137.67C207.321 136.206 229.585 132.172 242.084 109.442Z" fill="#C19632"/>
<path d="M230.231 100.242C230.231 100.242 215.041 110.291 212.703 119.249C210.366 128.208 209.722 167.744 209.722 167.744C209.722 167.744 241.449 190.31 268.557 167.838C268.557 167.838 268.659 169.057 268.27 163.604C267.922 158.735 266.021 130.262 265.618 124.222C265.566 123.436 265.351 122.693 264.975 122.001C262.313 117.105 250.355 97.5819 230.231 100.242Z" fill="#C19632"/>
<path d="M212.79 132.692C212.798 132.563 212.804 132.446 212.809 132.33L213.674 116.713C211.473 120.126 211.269 130.143 211.183 131.485C210.68 138.198 210.333 146.234 210.104 153.034C210.106 153.014 212.455 137.75 212.788 132.718L212.788 132.719L212.79 132.692Z" fill="#082133"/>
<path d="M267.884 158.019L227.127 141.517C227.127 141.517 238.628 159.277 250.541 163.475C258.486 166.275 265.007 167.206 268.511 167.063C268.42 166.537 268.367 164.991 268.268 163.604C268.197 162.605 268.06 160.604 267.884 158.019Z" fill="#082133"/>
<path d="M244.325 123.021C244.325 123.021 248.046 139.76 252.925 145.32L230.174 137.172L263.363 155.305L244.325 123.021Z" fill="#082133"/>
<path d="M239.391 100.553C237.665 100.199 235.859 99.9973 233.97 99.9958C231.568 103.682 228.224 109.607 230.795 110.631C234.574 112.138 240.556 106.628 241.161 105.04C241.615 103.846 240.149 101.598 239.391 100.553Z" fill="#082133"/>
<path d="M226.45 85.4466C226.45 85.4466 226.915 88.348 226.45 89.3923C225.986 90.4365 226.841 96.4014 227.936 97.5595C228.497 98.1521 231.009 97.9901 233.214 95.6688C235.419 93.3475 235.271 88.464 235.271 88.464C235.271 88.464 235.735 83.242 226.45 85.4466Z" fill="#D17975"/>
<path d="M227.133 104.071C227.207 101.271 229.344 86.3088 229.344 86.3088C229.344 86.3088 232.576 87.6143 234.56 89.284C234.623 88.8381 234.796 88.2616 235.151 87.4969C235.151 87.4969 235.978 86.0133 236.715 86.3088C237.452 86.6037 238.189 87.7829 236.715 89.1096L235.794 90.6756C235.924 90.9084 236.013 91.1434 236.051 91.3776C236.051 91.3776 237.968 103.408 238.557 104.514C238.557 104.514 233.652 111.147 230.798 110.631C227.944 110.115 227.059 106.872 227.133 104.071Z" fill="#D17975"/>
<path d="M227.307 101.914C227.43 100.734 227.607 99.2497 227.807 97.6683C227.886 97.599 227.933 97.5603 227.933 97.5603C227.933 97.5603 231.125 99.8335 233.211 95.6696C233.211 95.6696 231.403 102.397 227.307 101.914Z" fill="white"/>
<path d="M229.313 145.381H221.806C221.499 145.381 221.25 145.132 221.25 144.825V127.209C221.25 126.902 221.499 126.653 221.806 126.653H229.313C229.62 126.653 229.869 126.902 229.869 127.209V144.825C229.869 145.132 229.62 145.381 229.313 145.381Z" fill="white"/>
<path d="M254.366 108.561C252.037 106.83 248.739 107.223 246.86 109.434C244.584 112.112 242.516 116.523 244.326 123.021C246.81 131.933 257.102 148.571 257.102 148.571L230.176 137.172L227.129 141.517C227.129 141.517 248.361 167.682 270.568 163.854C273.843 163.289 276.208 160.405 276.195 157.081C276.149 146.643 275.184 124.038 254.366 108.561Z" fill="#C19632"/>
<path d="M225.16 131.734C225.16 131.734 221.333 134.457 222.149 137.407C222.966 140.356 227.128 141.517 227.128 141.517L230.174 137.172C230.174 137.172 227.506 131.507 225.16 131.734Z" fill="#D17975"/>
<path d="M199.796 119.847C183.056 122.48 170.444 113.648 170.444 113.648L167.988 118.17C167.988 118.17 179.442 135.551 196.15 137.712L199.796 119.847Z" fill="#C19632"/>
<path d="M196.985 137.669C200.695 137.143 205.951 136.268 211.73 134.335L211.888 133.382L211.182 131.484C207.899 134.296 197.028 137.459 196.226 137.689C196.475 137.691 196.719 137.707 196.985 137.669Z" fill="#082133"/>
<path d="M170.453 113.637C170.453 113.637 161.102 106.684 160.787 106.865C158.844 107.979 165.086 113.16 165.525 114.054C165.964 114.948 164.409 114.801 163.674 115.384C162.939 115.966 165.509 117.703 167.532 118.168C169.502 118.619 170.453 113.637 170.453 113.637Z" fill="#D17975"/>
<path d="M302.719 216.374C302.599 215.194 302.06 214.403 301.125 214.106C300.192 213.808 299.264 213.836 298.365 214.326C297.598 214.743 296.905 215.294 296.29 216.009C295.879 216.486 295.462 216.971 294.998 217.358C293.792 218.362 292.462 218.745 291.02 218.423C290.129 218.225 289.269 218.332 288.458 218.838C287.744 219.283 287.027 219.727 286.342 220.234C285.306 221.002 284.435 222.01 283.806 223.303C283.074 224.809 282.685 226.479 282.45 228.198C282.243 229.709 282.31 231.228 282.503 232.742C282.566 233.237 282.577 233.75 282.559 234.252C282.546 234.644 282.406 234.997 282.101 235.253C282.096 235.249 282.095 235.243 282.091 235.24C282.121 234.986 282.174 234.747 282.188 234.482C282.269 232.948 282.031 231.535 281.282 230.293C280.376 228.791 279.119 228.497 277.83 229.463C277.262 229.889 276.812 230.469 276.411 231.123C276.148 231.553 275.878 231.986 275.565 232.356C275.126 232.875 274.489 232.98 274.088 232.677C273.572 232.286 273.315 231.6 273.436 230.84C273.602 229.807 273.911 228.84 274.512 228.084C274.984 227.491 275.492 226.933 276.029 226.437C277.055 225.49 278.238 224.915 279.409 224.31C282.23 222.851 282.688 222.344 284.058 218.915C284.614 217.522 284.824 216.082 284.57 214.54C284.345 213.173 284.054 211.842 283.301 210.766C282.41 209.491 281.068 209.645 280.366 211.09C280.193 211.446 280.066 211.84 279.949 212.232C279.692 213.091 279.188 213.663 278.575 214.103C278.092 214.449 277.698 214.285 277.459 213.65C277.376 213.432 277.333 213.182 277.308 212.942C277.21 211.997 277.447 211.136 277.787 210.315C278.349 208.955 279.119 207.812 280.122 206.921C280.541 206.549 280.971 206.197 281.394 205.832C283.306 204.175 284.529 201.877 285.241 199.165C285.767 197.159 285.612 195.158 284.805 193.288C284.233 191.962 283.309 191.336 282.097 191.514C280.889 191.692 279.804 192.251 278.922 193.337C278.17 194.264 277.552 195.306 277.088 196.497C276.777 197.293 276.462 198.101 276.055 198.82C275 200.687 273.569 201.893 271.752 202.33C270.629 202.6 269.653 203.213 268.88 204.269C268.201 205.198 267.517 206.127 266.894 207.115C265.952 208.607 265.291 210.29 265.021 212.17C264.707 214.361 264.856 216.552 265.206 218.712C265.513 220.611 266.146 222.365 266.926 224.042C267.181 224.591 267.38 225.189 267.543 225.791C267.67 226.261 267.634 226.756 267.367 227.231C266.994 227.116 266.722 226.826 266.489 226.505C265.904 225.702 265.345 224.87 264.77 224.056C264.535 223.723 264.308 223.375 264.038 223.09C263.295 222.307 262.574 222.322 261.863 223.149C260.983 224.173 260.423 225.425 260.241 226.922C260.174 227.483 260.163 228.035 260.177 228.583C259.849 227.959 259.5 227.373 259.051 226.971C258.361 226.354 257.785 226.779 257.789 227.893C257.79 228.166 257.822 228.455 257.856 228.739C257.931 229.362 257.831 229.859 257.651 230.293C257.509 230.636 257.293 230.625 257.043 230.268C256.957 230.145 256.881 229.993 256.816 229.842C256.56 229.248 256.475 228.628 256.446 228.01C256.397 226.986 256.491 226.052 256.747 225.228C256.855 224.884 256.971 224.55 257.082 224.209C257.579 222.664 257.621 220.867 257.337 218.923C257.127 217.486 256.609 216.216 255.824 215.189C255.268 214.461 254.708 214.276 254.197 214.684C253.688 215.092 253.32 215.72 253.162 216.642C253.028 217.43 252.981 218.259 253.036 219.15C253.073 219.745 253.11 220.349 253.087 220.918C253.025 222.393 252.646 223.526 251.917 224.25C251.468 224.698 251.161 225.334 251.047 226.211C250.946 226.983 250.843 227.755 250.781 228.55C250.687 229.753 250.764 231.012 251.062 232.306C251.409 233.814 251.968 235.208 252.61 236.536C253.175 237.703 253.854 238.695 254.584 239.603C254.822 239.9 255.047 240.243 255.256 240.597C255.419 240.873 255.513 241.205 255.498 241.58C255.303 241.596 255.114 241.472 254.937 241.318C254.492 240.935 254.052 240.526 253.608 240.133C253.427 239.973 253.245 239.8 253.059 239.679C252.546 239.347 252.222 239.531 252.084 240.243C251.914 241.125 251.94 242.079 252.192 243.1C252.509 244.383 253.038 245.492 253.657 246.53C254.511 247.961 255.447 249.201 256.465 250.29C257.268 251.149 258.042 252.105 258.826 253.023C258.889 253.097 258.939 253.205 258.995 253.298C258.984 253.323 258.973 253.347 258.962 253.372C258.675 253.163 258.384 252.973 258.1 252.74C257.171 251.978 256.237 252.474 256.077 253.863C255.943 255.018 256.144 256.157 256.801 257.19C257.171 257.772 257.566 258.31 257.953 258.864C259.113 260.525 260.373 261.844 261.705 262.922H265.099C264.993 262.771 264.893 262.606 264.784 262.459C263.751 261.056 262.893 259.463 262.221 257.632C261.847 256.612 261.468 255.591 261.262 254.504C261.14 253.868 261.051 253.23 260.954 252.593C260.838 251.828 260.694 251.057 260.318 250.412C259.974 249.822 259.599 249.262 259.21 248.749C258.65 248.012 258.24 247.144 257.995 246.138C257.825 245.442 257.705 244.733 257.583 244.029C257.376 242.838 257.207 241.645 256.979 240.455C256.756 239.288 256.403 238.175 255.854 237.156C255.58 236.647 255.335 236.075 255.145 235.499C254.621 233.905 254.303 232.287 254.281 230.664C254.275 230.207 254.282 229.755 254.266 229.295C254.204 227.472 254.349 225.77 254.591 224.113C254.746 223.052 254.83 221.939 254.948 220.851C254.968 220.66 255.002 220.477 255.04 220.216C255.23 220.605 255.249 220.912 255.257 221.219C255.278 222.144 255.192 223.012 255.061 223.843C254.73 225.936 254.603 228.137 254.64 230.436C254.676 232.775 255.157 235.009 256.25 237.1C256.721 238.002 257.045 238.972 257.295 239.998C257.61 241.288 257.782 242.58 257.987 243.872C258.089 244.526 258.189 245.186 258.339 245.833C258.544 246.718 258.877 247.509 259.377 248.163C259.66 248.533 259.924 248.947 260.194 249.348C260.43 250.001 260.677 250.649 260.919 251.299C261.033 251.606 261.174 251.889 261.297 252.188C261.332 252.401 261.376 252.613 261.411 252.826C261.469 253.178 261.508 253.53 261.564 253.882C261.76 255.113 262.169 256.267 262.587 257.419C263.078 258.772 263.67 260.027 264.396 261.131C264.796 261.739 265.201 262.339 265.616 262.921H267.677C267.699 262.695 267.715 262.465 267.742 262.242C267.745 262.223 267.749 262.203 267.751 262.183C267.777 262.218 267.807 262.248 267.831 262.283C267.994 262.51 268.174 262.709 268.347 262.921H272.194C271.927 262.158 271.65 261.4 271.348 260.659C270.319 258.131 269.736 255.477 269.653 252.645C269.606 251.066 269.553 249.483 269.86 247.934C270.04 247.028 270.28 246.139 270.507 245.247C270.779 244.177 271.001 243.079 270.712 241.986C270.448 240.984 270.107 240.001 269.71 239.069C269.138 237.729 268.929 236.323 269.113 234.851C269.24 233.834 269.469 232.834 269.69 231.838C270.064 230.153 270.511 228.492 270.846 226.795C271.174 225.129 271.226 223.446 270.854 221.748C270.669 220.902 270.577 219.992 270.591 219.115C270.632 216.691 271.071 214.377 272.065 212.261C272.346 211.665 272.648 211.084 272.912 210.479C273.959 208.076 275.314 205.972 276.822 203.994C277.787 202.727 278.653 201.344 279.566 200.016C279.727 199.783 279.906 199.568 280.143 199.257C280.247 199.892 280.088 200.303 279.906 200.705C279.357 201.919 278.643 202.983 277.869 203.967C275.917 206.449 274.279 209.213 272.88 212.213C271.457 215.267 270.926 218.489 271.628 221.948C271.93 223.441 271.916 224.919 271.727 226.421C271.49 228.307 270.988 230.099 270.542 231.913C270.318 232.831 270.081 233.754 269.948 234.695C269.766 235.981 269.88 237.235 270.394 238.425C270.758 239.268 271.023 240.177 271.351 241.045C271.713 242.002 271.749 243.002 271.607 244.012C271.519 244.639 271.355 245.25 271.21 245.863C271.093 246.359 270.942 246.843 270.822 247.337C270.401 249.065 270.428 250.841 270.471 252.619C270.522 254.711 270.823 256.742 271.471 258.67C271.957 260.114 272.492 261.53 273.07 262.92H277.502C277.487 262.556 277.465 262.193 277.441 261.829C277.629 261.583 277.814 261.332 278.006 261.089C278.027 261.7 278.049 262.311 278.093 262.92H284.011C284.606 262.533 285.203 262.149 285.781 261.726C286.168 261.442 286.541 261.093 286.857 260.697C287.67 259.679 288.177 258.48 288.106 256.986C288.019 255.176 287.161 254.365 285.766 254.851C285.258 255.028 284.778 255.337 284.3 255.622C283.763 255.941 283.249 256.321 282.712 256.635C282.137 256.969 281.737 256.801 281.482 256.153C281.782 255.654 282.053 255.115 282.253 254.548C282.591 253.596 282.762 252.63 282.75 251.655C283.499 250.691 284.488 250.221 285.554 250.063C286.509 249.921 287.437 249.67 288.342 249.288C289.749 248.695 290.763 247.55 291.39 245.861C291.799 244.757 291.947 243.629 291.677 242.448C291.351 241.017 290.491 240.355 289.319 240.611C288.801 240.724 288.337 240.993 287.892 241.334C287.599 241.558 287.302 241.782 286.986 241.944C286.543 242.171 286.049 242.023 285.823 241.658C285.53 241.186 285.497 240.588 285.76 240.07C286.118 239.366 286.568 238.761 287.184 238.416C287.667 238.145 288.17 237.913 288.68 237.738C289.653 237.402 290.658 237.397 291.66 237.365C294.076 237.288 294.53 237.076 296.324 235.029C297.053 234.199 297.536 233.21 297.701 231.981C297.846 230.892 297.936 229.807 297.625 228.744C297.258 227.488 296.232 227.126 295.384 227.944C295.175 228.145 294.991 228.392 294.815 228.639C294.43 229.182 293.927 229.427 293.375 229.534C292.938 229.618 292.686 229.358 292.654 228.804C292.643 228.614 292.667 228.414 292.703 228.228C292.847 227.495 293.218 226.944 293.656 226.458C294.382 225.654 295.211 225.082 296.155 224.78C296.549 224.654 296.947 224.547 297.342 224.426C299.132 223.88 300.56 222.618 301.704 220.868C302.546 219.574 302.888 218.042 302.719 216.374ZM266.299 244.882C265.897 244.413 265.476 243.967 265.096 243.47C264.705 242.96 264.232 242.63 263.735 242.441C263.438 241.556 263.056 240.782 262.503 240.218C261.755 239.455 261.119 239.566 260.749 240.509C260.587 240.925 260.511 241.413 260.476 241.936C260.452 242.281 260.427 242.629 260.367 242.946C260.284 243.391 260.017 243.614 259.768 243.513C259.445 243.382 259.175 242.995 259.061 242.47C258.905 241.755 258.829 241.048 258.933 240.409C259.014 239.908 259.121 239.42 259.253 238.966C259.507 238.1 259.916 237.438 260.312 236.76C260.984 235.61 261.226 235.038 261.262 233.912C261.886 235.766 262.669 237.514 263.613 239.171C264.561 240.837 265.39 242.609 266.267 244.337C266.337 244.475 266.36 244.65 266.406 244.809C266.371 244.834 266.336 244.858 266.299 244.882ZM277.379 247.891L277.283 247.907C277.093 247.418 276.884 246.94 276.717 246.438C276.383 245.437 275.688 244.782 274.911 244.606C275.391 243.923 275.976 243.359 276.631 242.899C276.934 244.415 277.14 245.96 277.384 247.494C277.405 247.621 277.382 247.758 277.379 247.891ZM297.408 220.114C296.726 220.815 295.956 221.348 295.16 221.8C293.152 222.941 291.312 224.4 289.595 226.119C287.847 227.869 286.72 230.061 286.449 232.863C286.331 234.073 285.983 235.158 285.501 236.201C284.896 237.509 284.116 238.654 283.374 239.836C282.999 240.433 282.614 241.03 282.301 241.679C281.873 242.564 281.671 243.529 281.779 244.591C281.856 245.342 281.843 246.107 281.888 246.864C281.916 247.354 281.851 247.812 281.732 248.249C281.551 248.016 281.354 247.849 281.147 247.725C281.168 247.595 281.197 247.469 281.203 247.332C281.235 246.499 281.208 245.652 281.127 244.823C281.011 243.631 281.178 242.52 281.649 241.498C281.975 240.791 282.372 240.135 282.763 239.478C283.423 238.367 284.132 237.298 284.767 236.164C285.389 235.051 285.811 233.827 285.924 232.441C285.98 231.75 286.12 231.046 286.331 230.404C286.914 228.629 287.766 227.075 288.983 225.866C289.326 225.526 289.681 225.204 290.015 224.85C291.336 223.448 292.817 222.375 294.381 221.449C295.382 220.856 296.337 220.141 297.315 219.485C297.487 219.37 297.668 219.274 297.914 219.129C297.846 219.634 297.634 219.881 297.408 220.114Z" fill="#EAD8AE"/>
<path d="M257.668 262.247V264.034C257.668 265.957 258.875 267.542 260.429 267.708L264.212 284.499C264.493 285.746 265.432 286.617 266.496 286.617H275.717C276.781 286.617 277.721 285.746 278.002 284.499L281.785 267.709C283.329 267.554 284.546 265.965 284.546 264.033V262.247L257.668 262.247ZM283.875 264.034C283.875 265.698 282.827 267.051 281.514 267.051H281.245L277.347 284.353C277.136 285.291 276.466 285.946 275.718 285.946H266.497C265.749 285.946 265.08 285.291 264.868 284.353L261.121 267.723H274.805V267.051H260.679C259.389 267.051 258.34 265.698 258.34 264.034V262.92H283.875V264.034Z" fill="#EAD8AE"/>
<path d="M224.879 85.6926C225.47 86.6223 226.613 87.0798 227.714 87.1331C228.814 87.1864 229.899 86.8981 230.969 86.6354C231.081 86.6077 231.204 86.5814 231.307 86.6332C231.393 86.6763 231.447 86.7646 231.491 86.85C231.772 87.3944 231.884 88.0146 232.174 88.5539C232.464 89.0939 233.032 89.569 233.634 89.4581C234.034 89.3844 234.346 89.0713 234.597 88.751C235.165 88.0249 235.577 87.1266 235.513 86.2071C235.424 84.9038 234.38 83.8172 233.176 83.31C231.972 82.8028 230.626 82.7714 229.32 82.7977C228.619 82.8116 227.908 82.8408 227.238 83.0495C226.568 83.2582 225.935 83.6683 225.598 84.2835C225.163 85.0767 225.285 86.0465 225.42 86.9412" fill="#141005"/>
<path d="M290.217 85.2677C291.747 78.8355 287.773 72.381 281.341 70.8511C274.909 69.3212 268.454 73.2953 266.924 79.7275C265.395 86.1597 269.369 92.6142 275.801 94.1441C282.233 95.674 288.688 91.6998 290.217 85.2677Z" fill="#EAD8AE"/>
<path d="M59.2658 8.02929C59.2658 9.88429 57.7619 11.3883 55.9068 11.3883C54.0518 11.3883 52.5479 9.88429 52.5479 8.02929C52.5479 6.17428 54.0518 4.67029 55.9068 4.67029C57.7619 4.67029 59.2658 6.17428 59.2658 8.02929Z" fill="#EAD8AE"/>
<path d="M292.001 103.527C294.704 103.527 296.894 101.336 296.894 98.6336C296.894 95.9314 294.704 93.7407 292.001 93.7407C289.299 93.7407 287.108 95.9314 287.108 98.6336C287.108 101.336 289.299 103.527 292.001 103.527Z" fill="#EAD8AE"/>
<path d="M67.4179 15.8102C70.73 15.8102 73.4149 13.1252 73.4149 9.81318C73.4149 6.50112 70.73 3.81616 67.4179 3.81616C64.1059 3.81616 61.4209 6.50112 61.4209 9.81318C61.4209 13.1252 64.1059 15.8102 67.4179 15.8102Z" fill="#EAD8AE"/>
<path d="M105.707 234.745C109.019 234.745 111.704 232.06 111.704 228.748C111.704 225.436 109.019 222.751 105.707 222.751C102.395 222.751 99.71 225.436 99.71 228.748C99.71 232.06 102.395 234.745 105.707 234.745Z" fill="#EAD8AE"/>
<path d="M114.183 242.072C115.839 242.072 117.182 240.729 117.182 239.073C117.182 237.417 115.839 236.075 114.183 236.075C112.527 236.075 111.185 237.417 111.185 239.073C111.185 240.729 112.527 242.072 114.183 242.072Z" fill="#EAD8AE"/>
</svg>
