<svg width="292" height="299" viewBox="0 0 292 299" fill="none" xmlns="http://www.w3.org/2000/svg">
<g clip-path="url(#clip0_5990_43302)">
<path d="M147.791 20.3569C74.4069 18.19 10.8409 71.4371 1.23706 141.304C-9.26322 217.694 48.529 286.427 119.64 297.435C208.09 311.128 293.882 231.913 286.178 145.978C280.375 81.2325 222.387 22.5597 147.791 20.3569Z" fill="#FAF5EB"/>
<mask id="mask0_5990_43302" style="mask-type:luminance" maskUnits="userSpaceOnUse" x="88" y="34" width="169" height="169">
<path d="M232.157 177.904C264.908 145.152 264.908 92.0523 232.157 59.3012C199.406 26.5501 146.306 26.5501 113.555 59.3012C80.8039 92.0523 80.8039 145.152 113.555 177.904C146.306 210.655 199.406 210.655 232.157 177.904Z" fill="white"/>
</mask>
<g mask="url(#mask0_5990_43302)">
<path d="M257.749 118.674C257.749 136.646 252.105 153.317 242.535 167.039C242.497 167.096 242.362 167.15 242.362 167.206V167.209C227.346 189.21 201.616 203.465 172.754 203.465C170.393 203.465 168.132 203.354 165.82 203.035H165.818C165.809 203.035 165.804 203.175 165.794 203.175C164.656 203.081 163.528 203.038 162.404 202.899C162.004 202.852 161.604 202.836 161.207 202.779C160.854 202.732 160.504 202.701 160.154 202.647C159.848 202.602 159.545 202.564 159.244 202.515C159.175 202.503 159.107 202.496 159.039 202.486C158.298 202.364 157.56 202.237 156.824 202.096C156.819 202.096 156.817 202.094 156.812 202.094C117.571 194.598 87.9199 160.1 87.9199 118.674C87.9199 109.915 89.1924 101.464 91.6566 93.5144C92.0422 92.2682 92.5225 91.0364 92.842 89.8161V89.8136C93.8005 87.7797 94.443 85.7834 95.3246 83.8247C95.6797 83.0417 96.0722 82.2635 96.4461 81.4922C98.5128 77.255 100.935 73.2154 103.651 69.4086C103.897 69.0629 104.154 68.7196 104.405 68.3763C105.412 67.0078 106.462 65.6722 107.55 64.3673C109.18 62.4109 110.896 60.5275 112.692 58.7264C117.369 54.0331 122.592 49.8829 128.256 46.3818C130.008 45.2978 131.805 44.275 133.639 43.3203C138.081 41.0019 142.751 39.0668 147.611 37.5572C155.587 35.0765 164.066 33.741 172.858 33.741C193.077 33.741 211.646 40.8044 226.229 52.5989C236.956 61.2754 245.68 72.5078 251.168 85.372C252.395 88.2454 253.225 91.1987 254.503 94.2225V94.2249C254.503 94.239 254.356 94.2484 254.361 94.2625C256.68 101.994 257.749 110.188 257.749 118.674Z" fill="#C19632"/>
<path d="M191.362 147.309C189.54 149.877 183.901 153.173 187.727 159.649C191.52 166.108 187.463 167.319 184.853 166.715C182.232 166.117 174.082 165.783 175.441 169.487C176.795 173.195 179.13 174.585 176.144 176.017C173.16 177.441 171.897 181.164 168.843 186.287C165.81 191.42 158.601 186.981 160.736 192.126C162.866 197.273 164.528 196.774 164.328 200.36C164.281 201.345 164.935 202.356 165.819 203.318C164.681 203.224 163.538 203.109 162.405 202.97C162.005 202.923 161.606 202.871 161.208 202.815C160.855 202.768 160.505 202.718 160.155 202.664C159.849 202.62 159.546 202.573 159.245 202.523C159.176 202.511 159.194 202.5 159.126 202.49C158.397 202.368 158.019 202.236 157.06 202.098V202.095C156.421 201.489 156.822 200.83 156.918 200.12C157.87 193.499 148.735 188.949 147.204 184.31C145.699 179.682 147.185 176.922 146.837 173.087C146.479 169.259 147.731 164.182 145.528 160.956C143.325 157.742 134.443 156.665 132.753 150.177C131.05 143.704 135.009 134.01 136.547 132.359C138.066 130.708 129.193 123.198 124.97 122.958C120.728 122.7 122.425 114.159 115.254 115.46C108.068 116.72 95.1588 112.711 97.8252 108.399C100.026 104.846 103.72 97.0087 91.6602 93.5146C92.0457 92.2684 92.5235 91.0363 92.843 89.816V89.8136C93.8015 87.7796 94.444 85.7834 95.3256 83.8247C95.6807 83.0416 96.0732 82.2634 96.4471 81.4921C98.5163 77.255 100.938 73.2154 103.652 69.4085C103.899 69.0628 104.155 68.7196 104.406 68.3762C105.415 67.0077 106.465 65.6698 107.551 64.3672C109.181 62.4108 110.897 60.5274 112.693 58.7263C117.37 54.033 122.593 49.8828 128.257 46.3817C130.646 48.056 133.374 49.0881 135.731 47.816C141.508 44.5829 137.699 44.0868 135.333 43.9669C134.717 43.9363 134.12 43.6918 133.64 43.3202C138.082 41.0018 142.752 39.0667 147.612 37.5572C147.252 40.8184 142.82 46.0573 146.082 45.4176C149.877 44.6958 151.426 34.4416 154.213 37.8487C157.039 41.2699 151.121 45.7539 156.679 43.1557C162.245 40.5833 162.988 34.8413 169.191 37.6347C175.424 40.4634 174.855 43.8117 176.595 43.4801C178.328 43.1533 183.934 46.9202 180.543 50.0192C177.122 53.1277 173.985 49.1681 168.857 47.9736C163.726 46.7933 163.851 50.9904 161.49 51.9498C159.089 52.8762 147.509 47.28 144.666 52.3377C141.793 57.3555 140.57 60.8567 144.836 60.7273C149.096 60.6074 149.371 59.5047 149.037 62.6554C148.696 65.8085 149.472 68.1694 153.333 65.2043C157.183 62.2439 156.32 59.3565 159.329 60.7673C162.341 62.1827 162.696 60.9013 165.899 58.5758C169.099 56.2503 173.31 56.0082 174.413 61.2258C175.518 66.4458 173.63 67.6169 168.001 67.8802C162.37 68.1529 161.732 66.3776 159.938 71.0851C158.154 75.7948 150.705 81.8426 144.165 84.335C137.638 86.8321 135.08 90.5214 135.23 95.4992C135.386 100.486 132.931 105.746 131.292 101.636C129.646 97.5143 125.033 90.5731 120.325 95.2123C115.608 99.8609 107.4 108.079 116.471 109.581C125.524 111.112 120.8 102.631 125.376 104.326C129.944 106.033 122.481 109.772 125.536 111.122C128.595 112.483 129.876 111.846 129.853 116.015C129.829 120.181 130.866 124.228 134.579 122.46C138.289 120.699 143.047 114.461 148.415 119.293C153.79 124.137 153.418 121.576 156.237 120.165C159.054 118.756 160.848 122.979 162.003 124.903C163.157 126.824 167.686 124.863 171.357 130.586C175.025 136.309 176.464 137.33 180.647 135.27C184.832 133.213 186.535 134.741 187.625 137.631C188.712 140.521 191.289 137.697 192.53 141.515C193.765 145.331 193.173 144.739 191.362 147.309Z" fill="#FAF5EB"/>
<path d="M205.684 77.9701C202.719 71.6074 217.41 72.3222 220.006 72.8112C222.619 73.2462 228.746 68.4565 229.525 66.2297C230.324 63.9866 231.636 65.0517 236.285 64.9882C240.931 64.9388 236.825 63.8878 231.711 62.2018C226.607 60.5206 230.971 60.3513 226.266 56.6362C224.241 55.0091 224.878 53.6264 226.228 52.5989C236.955 61.2754 245.526 72.5078 251.014 85.372C250.858 85.325 250.713 85.2991 250.576 85.2968C247.322 85.278 246.605 78.0828 244.928 76.6814C243.275 75.2824 244.975 80.6341 245.38 82.8326C245.787 85.0335 244.489 83.1829 242.866 85.2026C241.237 87.2248 238.295 87.2625 238.029 84.2292C237.759 81.203 235.626 78.2309 231.298 76.8483C226.969 75.4657 223.223 76.6014 219.705 77.9582C216.207 79.2916 208.671 84.2835 205.684 77.9701Z" fill="#FAF5EB"/>
<path d="M242.569 167.206C242.863 165.022 243.343 162.764 242.43 161.939C240.213 159.882 239.729 154.276 240.498 151.436C241.264 148.588 247.239 148.75 243.185 144.022C239.12 139.279 235.456 133.65 237.163 130.431C238.871 127.217 238.353 126.982 235.153 127C231.948 127.019 230.544 127.16 227.354 124.31C224.161 121.423 219.768 131.125 207.75 123.344C195.735 115.486 202.577 102.241 207.08 102.208C211.611 102.132 216.904 99.8446 213.192 94.319C209.49 88.772 215.275 87.9891 218.101 89.2494C220.932 90.4956 225.952 87.1473 231.069 85.6377C236.197 84.1351 235.971 92.4896 238.819 94.1613C241.683 95.8355 247.049 94.5069 249.837 91.831C251.829 89.9218 252.264 92.1485 254.232 94.2624C256.55 101.994 257.794 110.188 257.794 118.674C257.794 136.718 252.167 153.451 242.569 167.206Z" fill="#FAF5EB"/>
<path d="M221.075 67.3792C221.078 67.374 224.822 65.6838 223.465 62.9605C222.12 60.2366 219.987 51.8885 218.429 54.5191C216.861 57.1616 219.173 62.2927 218.668 64.5065C218.158 66.7272 218.145 67.8894 221.075 67.3792Z" fill="#FAF5EB"/>
<path d="M217.335 64.8312C217.282 63.9536 217.834 60.3894 215.03 60.5012C215.035 60.4955 210.973 62.1906 213.349 65.0702C215.736 67.9411 217.395 65.7065 217.335 64.8312Z" fill="#FAF5EB"/>
</g>
<mask id="mask1_5990_43302" style="mask-type:luminance" maskUnits="userSpaceOnUse" x="88" y="34" width="169" height="169">
<path d="M232.157 177.904C264.908 145.152 264.908 92.0523 232.157 59.3012C199.406 26.5501 146.306 26.5501 113.555 59.3012C80.8039 92.0523 80.8039 145.152 113.555 177.904C146.306 210.655 199.406 210.655 232.157 177.904Z" fill="white"/>
</mask>
<g mask="url(#mask1_5990_43302)">
<path opacity="0.3" d="M257.524 118.525C257.524 136.497 251.993 153.168 242.423 166.89C242.385 166.947 242.363 167.001 242.363 167.057V167.06C227.028 189.061 201.505 203.249 172.642 203.249C170.281 203.249 167.907 203.069 165.596 202.749C165.593 202.749 165.593 202.749 165.593 202.749C165.584 202.749 165.579 202.959 165.57 202.959C164.432 202.865 163.303 202.854 162.179 202.715C161.779 202.668 161.38 202.67 160.982 202.613C160.629 202.566 160.279 202.543 159.929 202.489C159.623 202.445 159.32 202.412 159.019 202.363C158.951 202.351 158.882 202.345 158.814 202.336C158.074 202.214 157.335 202.087 156.599 201.946C156.595 201.946 156.592 201.945 156.588 201.945C120.299 195.014 92.2146 164.97 88.1914 127.731C96.701 152.141 117.743 170.481 143.613 175.593H143.622C144.257 175.912 144.894 175.848 145.534 175.954C145.593 175.961 145.654 175.981 145.713 175.991C145.971 176.033 146.235 176.076 146.498 176.114C146.799 176.161 147.102 176.199 147.408 176.239C147.751 176.288 148.095 176.318 148.44 176.358C149.411 176.478 150.385 176.699 151.368 176.779C151.377 176.779 151.382 176.871 151.389 176.871C151.389 176.871 151.389 176.871 151.391 176.871C153.388 176.871 155.377 177.031 157.416 177.031C169.878 177.031 181.623 173.863 191.898 168.396C202.173 162.929 210.979 155.047 217.563 145.548C217.563 145.498 217.643 145.432 217.674 145.383C225.939 133.535 230.775 119.128 230.775 103.609C230.775 96.2819 229.7 89.1996 227.696 82.524C227.694 82.5122 227.667 82.498 227.667 82.4862V82.4838C227.028 79.8738 225.999 77.3226 224.941 74.842C220.2 63.7319 212.819 54.0325 203.554 46.5412C196.773 41.0555 188.996 36.7572 180.533 33.9567C197.675 35.5344 213.342 42.2099 226.004 52.45C236.731 61.1265 245.408 72.359 250.896 85.2232C252.124 88.0965 252.907 91.0498 254.185 94.0737V94.0761C254.185 94.0901 254.085 94.0995 254.09 94.1136C256.408 101.845 257.524 110.039 257.524 118.525Z" fill="#F4EBD7"/>
</g>
<path d="M135.593 227.023C135.593 227.023 105.457 231.389 105.532 214.564C105.598 199.584 97.6507 190.029 82.0501 193.618C76.0669 194.994 68.0227 198.455 62.2677 194.659C54.8452 189.761 53.8478 176.868 52.4813 168.992C49.4433 151.483 25.1777 127.433 7.01639 144.189C-0.30377 150.943 -1.44885 157.936 3.07351 166.514C5.08657 170.332 7.89666 173.72 8.61555 178.082C9.3846 182.749 7.61536 187.436 8.05595 192.122C9.40708 206.494 23.1572 215.275 36.3129 217.335C44.3696 218.597 46.169 230.627 45.9234 236.654C45.6686 242.903 43.9535 250.752 49.8411 255.005C59.3705 261.888 74.5938 255.116 84.0842 251.866C91.3059 249.394 98.9077 246.34 106.682 247.605C109.294 248.03 124.277 254.153 122.643 258.071C122.643 258.069 135.593 227.023 135.593 227.023Z" fill="#C19632"/>
<mask id="mask2_5990_43302" style="mask-type:luminance" maskUnits="userSpaceOnUse" x="0" y="138" width="136" height="121">
<path d="M122.643 258.071C122.643 258.069 135.593 227.023 135.593 227.023C135.593 227.023 105.457 231.389 105.532 214.564C105.598 199.584 97.6507 190.029 82.0502 193.618C76.0669 194.994 68.0227 198.455 62.2678 194.659C54.8453 189.761 53.8479 176.868 52.4814 168.992C49.4433 151.483 25.1778 127.433 7.01639 144.189C-0.30377 150.943 -1.44885 157.936 3.07351 166.514C5.08657 170.332 7.89666 173.72 8.61545 178.082C9.3846 182.749 7.61526 187.436 8.05585 192.122C9.40698 206.494 23.1571 215.275 36.3128 217.335C44.3695 218.597 46.1689 230.627 45.9232 236.654C45.6684 242.903 43.9533 250.752 49.8408 255.005C59.3703 261.888 74.5935 255.116 84.0839 251.866C91.3057 249.394 98.9074 246.34 106.682 247.605C109.294 248.03 124.277 254.153 122.643 258.071Z" fill="white"/>
</mask>
<g mask="url(#mask2_5990_43302)">
<g opacity="0.8">
<path d="M152.499 250.4C152.446 250.409 152.39 250.41 152.334 250.401C125.221 246.06 100.374 237.798 78.4821 225.846C60.9639 216.281 45.2893 204.345 31.8934 190.37C9.07596 166.565 0.674577 144.781 0.592236 144.564C0.496905 144.312 0.623916 144.03 0.875935 143.935C1.12576 143.839 1.40945 143.966 1.50479 144.218C1.58653 144.434 9.93605 166.066 32.6318 189.73C53.5743 211.567 91.3684 239.651 152.488 249.438C152.754 249.48 152.936 249.731 152.893 249.997C152.859 250.207 152.697 250.364 152.499 250.4Z" fill="#FAF5EB"/>
<path d="M31.0797 189.193C30.8416 189.236 30.6027 189.096 30.5277 188.86C30.4906 188.742 26.8036 176.972 25.8335 164.269C25.2618 156.781 25.7307 150.431 27.2278 145.395C29.1219 139.023 32.671 134.739 37.7762 132.661C38.0279 132.56 38.3108 132.68 38.4121 132.929C38.5135 133.179 38.3936 133.463 38.144 133.565C27.1807 138.026 25.9274 152.684 26.8064 164.195C27.7681 176.786 31.4214 188.449 31.4581 188.565C31.5393 188.822 31.397 189.096 31.1401 189.178C31.12 189.184 31.0999 189.189 31.0797 189.193Z" fill="#FAF5EB"/>
<path d="M39.6832 197.76C39.5781 197.779 39.4659 197.764 39.3645 197.709C39.3092 197.679 33.7332 194.712 25.6009 193.586C18.1177 192.55 6.86789 192.907 -4.22897 200.492C-4.45121 200.644 -4.75509 200.587 -4.90708 200.364C-5.05907 200.142 -5.00201 199.838 -4.77957 199.686C6.5881 191.916 18.109 191.558 25.772 192.625C34.0692 193.78 39.5966 196.726 39.8279 196.85C40.0649 196.978 40.1533 197.274 40.0254 197.511C39.9523 197.647 39.824 197.734 39.6832 197.76Z" fill="#FAF5EB"/>
<path d="M76.4055 224.565C76.2272 224.598 76.038 224.529 75.9239 224.373C75.8852 224.32 72.0306 219.007 69.3332 212.054C65.7347 202.778 65.8139 194.795 69.5619 188.967C69.7078 188.741 70.0093 188.675 70.2361 188.821C70.4627 188.967 70.5283 189.269 70.3824 189.495C61.7162 202.97 76.5607 223.591 76.7117 223.798C76.8706 224.015 76.823 224.32 76.6055 224.479C76.5441 224.524 76.4757 224.553 76.4055 224.565Z" fill="#FAF5EB"/>
<path d="M47.4949 256.907C47.4282 256.92 47.3578 256.918 47.288 256.9C47.0267 256.834 46.8688 256.568 46.935 256.307C49.8944 244.639 58.8882 236.767 72.9441 233.542C83.4993 231.121 93.3136 232.169 93.4118 232.18C93.6795 232.21 93.8724 232.451 93.8427 232.719C93.813 232.987 93.5705 233.18 93.304 233.15C93.2075 233.139 83.5336 232.11 73.1382 234.499C59.2813 237.685 50.7837 245.103 47.8807 256.547C47.8322 256.738 47.6771 256.874 47.4949 256.907Z" fill="#FAF5EB"/>
</g>
</g>
<path d="M133.209 215.671C133.209 215.671 107.395 199.517 118.331 186.73C128.067 175.345 128.181 162.917 113.959 155.568C108.505 152.75 100.131 150.189 98.1944 143.573C95.6988 135.037 103.274 124.556 107.323 117.665C116.326 102.343 113.363 68.3072 88.6752 69.348C78.7243 69.7675 73.3296 74.3619 71.2334 83.83C70.3005 88.0444 70.254 92.4457 67.9823 96.238C65.5514 100.296 61.1711 102.728 58.4775 106.588C50.2168 118.425 55.0289 134.014 63.7331 144.091C69.0635 150.263 62.6586 160.603 58.5743 165.043C54.3399 169.645 47.9566 174.524 49.6985 181.575C52.5181 192.987 68.5103 197.663 77.851 201.32C84.9588 204.103 92.7325 206.688 97.8457 212.68C99.5634 214.693 107.035 229.051 103.255 230.983C103.257 230.982 133.209 215.671 133.209 215.671Z" fill="#C19632"/>
<mask id="mask3_5990_43302" style="mask-type:luminance" maskUnits="userSpaceOnUse" x="49" y="69" width="85" height="162">
<path d="M103.255 230.983C103.257 230.983 133.209 215.671 133.209 215.671C133.209 215.671 107.396 199.517 118.331 186.73C128.067 175.345 128.181 162.917 113.96 155.569C108.505 152.75 100.131 150.19 98.1946 143.573C95.6989 135.037 103.274 124.556 107.324 117.665C116.326 102.343 113.364 68.3074 88.6754 69.3482C78.7244 69.7677 73.3297 74.3621 71.2335 83.8302C70.3005 88.0446 70.2541 92.4457 67.9822 96.2382C65.5514 100.296 61.1711 102.728 58.4774 106.588C50.2167 118.425 55.0289 134.014 63.7331 144.091C69.0635 150.263 62.6586 160.603 58.5742 165.043C54.3398 169.645 47.9565 174.524 49.6986 181.575C52.5181 192.987 68.5103 197.663 77.851 201.32C84.9588 204.103 92.7325 206.689 97.8456 212.68C99.5635 214.693 107.035 229.051 103.255 230.983Z" fill="white"/>
</mask>
<g mask="url(#mask3_5990_43302)">
<g opacity="0.8">
<path d="M130.99 244.435C130.944 244.408 130.901 244.373 130.864 244.329C112.987 223.488 99.3727 201.12 90.3997 177.848C83.2192 159.225 78.9784 139.985 77.7945 120.663C75.778 87.7506 83.4535 65.6996 83.5311 65.4806C83.6214 65.2267 83.9003 65.094 84.1542 65.1842C84.4063 65.2732 84.5409 65.5532 84.4506 65.8072C84.3735 66.0245 76.7574 87.9255 78.7713 120.652C80.6298 150.851 91.3046 196.712 131.604 243.694C131.78 243.899 131.756 244.207 131.552 244.382C131.39 244.52 131.165 244.535 130.99 244.435Z" fill="#FAF5EB"/>
<path d="M77.9353 119.239C77.7256 119.118 77.6334 118.857 77.7294 118.628C77.7772 118.515 82.5743 107.151 90.047 96.8335C94.4519 90.7518 98.9152 86.2107 103.313 83.3368C108.878 79.7 114.356 78.7262 119.594 80.442C119.851 80.5276 119.989 80.8018 119.906 81.0575C119.821 81.3135 119.546 81.4531 119.29 81.3693C108.042 77.6845 97.6089 88.0564 90.8373 97.4059C83.4299 107.634 78.6767 118.893 78.6296 119.005C78.5253 119.254 78.2396 119.371 77.991 119.267C77.9715 119.258 77.9531 119.249 77.9353 119.239Z" fill="#FAF5EB"/>
<path d="M78.9596 131.337C78.8669 131.284 78.7912 131.2 78.7492 131.093C78.7263 131.034 76.391 125.165 70.915 119.048C65.8759 113.42 57.0628 106.419 43.6934 105.031C43.4256 105.003 43.2307 104.763 43.2585 104.495C43.2863 104.227 43.5262 104.032 43.7942 104.06C57.4898 105.482 66.5108 112.657 71.667 118.426C77.2498 124.671 79.562 130.492 79.6578 130.737C79.756 130.988 79.6322 131.271 79.3813 131.369C79.2378 131.425 79.0836 131.409 78.9596 131.337Z" fill="#FAF5EB"/>
<path d="M89.6448 175.529C89.4878 175.439 89.3879 175.264 89.4017 175.071C89.4064 175.006 89.9009 168.46 92.3386 161.412C95.5906 152.009 100.812 145.97 107.44 143.947C107.697 143.869 107.97 144.014 108.049 144.272C108.127 144.529 107.982 144.802 107.724 144.881C92.4012 149.557 90.3933 174.886 90.3749 175.141C90.3555 175.41 90.1218 175.612 89.853 175.593C89.7772 175.587 89.7065 175.565 89.6448 175.529Z" fill="#FAF5EB"/>
<path d="M46.6775 181.51C46.6187 181.476 46.5662 181.43 46.5243 181.371C46.3678 181.151 46.4189 180.847 46.6382 180.69C56.4399 173.702 68.3906 173.512 81.1984 180.14C90.8161 185.117 97.6259 192.262 97.6936 192.333C97.8787 192.529 97.8699 192.838 97.6741 193.023C97.4783 193.208 97.1684 193.199 96.9845 193.003C96.9177 192.933 90.2035 185.893 80.728 180.995C68.0973 174.466 56.8184 174.631 47.2047 181.485C47.0441 181.599 46.838 181.603 46.6775 181.51Z" fill="#FAF5EB"/>
</g>
</g>
<path d="M104.005 234.929L104.272 234.583L125.773 206.758C125.773 206.758 100.102 198.349 103.395 183.975C108.987 159.57 96.766 155.582 79.7726 142.355C70.5596 135.184 75.3859 119.737 74.8707 110.318C74.3962 101.645 71.0669 91.931 68.0947 83.7912C63.6652 71.6608 52.9371 57.7747 38.691 58.5628C19.9206 59.6019 17.0676 82.9965 21.8036 96.9421C26.5064 110.79 14.4204 120.858 15.6397 134.051C17.3629 152.688 45.7286 153.945 37.9869 175.772C28.9243 201.323 56.575 206.681 75.9182 208.065C75.9181 208.065 97.767 212.156 104.005 234.929Z" fill="#C19632"/>
<mask id="mask4_5990_43302" style="mask-type:luminance" maskUnits="userSpaceOnUse" x="15" y="58" width="111" height="177">
<path d="M104.005 234.929L104.272 234.583L125.773 206.758C125.773 206.758 100.102 198.349 103.395 183.975C108.987 159.57 96.766 155.582 79.7726 142.355C70.5596 135.184 75.3859 119.737 74.8707 110.318C74.3962 101.645 71.0669 91.9308 68.0947 83.7911C63.6652 71.6606 52.9371 57.7746 38.691 58.5627C19.9206 59.6018 17.0676 82.9963 21.8036 96.942C26.5064 110.79 14.4204 120.858 15.6397 134.051C17.3629 152.688 45.7286 153.944 37.9869 175.772C28.9243 201.323 56.575 206.681 75.9182 208.065C75.9182 208.065 97.767 212.156 104.005 234.929Z" fill="white"/>
</mask>
<g mask="url(#mask4_5990_43302)">
<g opacity="0.8">
<path d="M116.392 224.097C116.255 224.122 116.109 224.088 115.993 223.993C94.8279 206.5 77.6034 186.778 64.7982 165.374C54.5512 148.246 47.0956 130.009 42.6384 111.17C35.0463 79.0823 38.8545 56.0463 38.8939 55.8174C38.9394 55.5519 39.1915 55.3736 39.4573 55.4192C39.7228 55.4649 39.9011 55.7171 39.8556 55.9826C39.8164 56.2101 36.0413 79.0879 43.5994 110.994C50.5736 140.435 68.9023 183.808 116.615 223.241C116.823 223.412 116.852 223.72 116.68 223.927C116.604 224.02 116.501 224.077 116.392 224.097Z" fill="#FAF5EB"/>
<path d="M42.4956 109.038C42.4529 109.046 42.4087 109.048 42.3635 109.044C42.0952 109.019 41.8975 108.782 41.922 108.514C41.9318 108.406 42.9468 97.6518 46.8673 86.7932C52.098 72.306 60.1053 64.2046 70.0288 63.3638C70.2973 63.3411 70.5334 63.5402 70.5561 63.8087C70.579 64.0773 70.3759 64.3149 70.1112 64.336C58.0943 65.3526 51.3418 77.2809 47.7913 87.1076C43.9097 97.8501 42.9035 108.496 42.8938 108.602C42.8733 108.826 42.7057 109 42.4956 109.038Z" fill="#FAF5EB"/>
<path d="M51.472 137.685C51.2316 137.728 50.9914 137.586 50.9185 137.347C50.9021 137.294 49.7909 133.872 44.7245 129.749C40.0163 125.917 30.8422 120.685 13.8751 117.522C13.6102 117.473 13.4355 117.218 13.4849 116.953C13.5344 116.688 13.7892 116.513 14.0539 116.563C31.303 119.778 40.6382 125.137 45.4321 129.067C50.6922 133.378 51.8073 136.915 51.8521 137.063C51.93 137.321 51.7842 137.594 51.5263 137.671C51.5083 137.677 51.49 137.681 51.472 137.685Z" fill="#FAF5EB"/>
<path d="M33.7257 191.565C33.5264 191.601 33.3173 191.51 33.2127 191.324C33.0811 191.088 33.1648 190.791 33.3997 190.659C49.1391 181.839 60.1417 179.956 66.5996 179.93C73.6789 179.902 76.9742 181.986 77.1109 182.075C77.3369 182.221 77.4015 182.524 77.2547 182.75C77.1085 182.975 76.807 183.04 76.581 182.894C76.5493 182.874 73.3242 180.858 66.4929 180.907C60.1638 180.952 49.3674 182.829 33.8769 191.511C33.8283 191.538 33.7774 191.556 33.7257 191.565Z" fill="#FAF5EB"/>
<path d="M95.7952 205.152C95.7928 205.152 95.7907 205.152 95.7883 205.153C95.5232 205.201 95.265 204.985 95.2205 204.719C95.2013 204.604 93.3042 193.029 95.0393 180.886C96.0624 173.725 98.1268 167.749 101.178 163.14C105.015 157.344 110.418 153.693 117.238 152.297C117.502 152.234 117.759 152.411 117.813 152.675C117.867 152.939 117.697 153.196 117.433 153.25C105.501 155.691 98.2914 165.023 96.0052 180.987C94.2873 192.983 96.1638 204.444 96.183 204.558C96.2269 204.821 96.057 205.104 95.7952 205.152Z" fill="#FAF5EB"/>
</g>
</g>
<path d="M230.132 288.895C230.132 288.895 230.374 290.816 230.212 291.459C230.049 292.103 224.464 292.568 222.568 292.344C220.672 292.12 223.697 290.184 224.905 289.82C226.113 289.457 230.132 288.895 230.132 288.895Z" fill="#082133"/>
<path d="M227.32 285.69L227.909 289.544C227.909 289.544 229.41 290.219 230.132 289.552L230.211 285.518L227.32 285.69Z" fill="#C19632"/>
<path d="M258.808 285.517C258.808 285.517 257.622 286.397 257.938 287.45C258.254 288.503 261.02 292.723 262.99 293.921C264.961 295.119 264.343 292.624 263.77 291.069C263.196 289.515 261.731 286.091 261.159 285.517C260.587 284.944 258.808 285.517 258.808 285.517Z" fill="#082133"/>
<path d="M256.674 281.284C257.247 282.881 257.798 284.194 258.229 285.162C259.182 287.304 259.703 288.108 260.294 288.805C260.808 289.412 262.027 290.707 262.355 290.492C262.687 290.273 261.796 288.698 260.077 284.086C259.828 283.417 259.04 281.284 259.04 281.284H256.674Z" fill="#C19632"/>
<path d="M215.624 214.558C215.215 218.572 214.823 224.801 215.409 232.362C216.173 242.213 218.143 248.447 220.613 258.95C222.123 265.369 224.157 274.816 225.998 286.632C226.425 286.876 227.682 287.519 229.3 287.279C230.205 287.145 230.883 286.785 231.283 286.526C236.113 271.767 234.686 262.621 232.355 256.923C231.362 254.494 230.157 252.578 229.514 248.845C228.662 243.905 229.715 241.144 231.217 229.701C232.288 221.546 232.103 220.286 231.39 219.062C228.542 214.172 219.832 214.268 215.624 214.558Z" fill="#082133"/>
<path d="M232.248 216.274C235.207 231.554 238.111 239.579 240.308 244.118C240.85 245.238 242.658 248.849 244.368 254.027C245.881 258.61 246.512 261.982 246.835 263.466C247.855 268.149 250.376 274.988 257.16 283.958C257.244 284.008 258.401 284.662 259.507 284.079C260.066 283.783 260.345 283.313 260.456 283.093C259.569 274.517 258.551 267.311 257.667 261.749C257.482 260.583 256.665 255.479 255.385 248.737C254.884 246.098 254.15 242.232 253.27 238.26C252.175 233.315 250.495 226.588 247.907 218.526C242.687 217.775 237.468 217.025 232.248 216.274Z" fill="#082133"/>
<path d="M229.726 155.836C228.048 154.285 224.838 152.497 223.228 148.34C222.744 147.089 221.026 142.656 223.559 139.265C225.063 137.252 227.855 135.885 230.316 136.369C232.42 136.782 232.749 138.247 236.323 141.196C237.714 142.343 239.95 144.188 242.439 145.213C246.702 146.97 249.264 145.317 253.545 145.505C258.804 145.737 264.912 148.672 267.856 152.94C273.08 160.515 265.512 168.199 271.234 177.072C273.109 179.979 274.033 179.328 278.474 184.956C282.921 190.591 285.144 193.408 284.748 196.861C284.199 201.653 279.038 206.23 274.178 206.541C269.43 206.846 266.412 203.11 263.994 204.744C262.274 205.907 263.258 208.168 261.431 210.886C259.075 214.391 254.446 215.089 253.698 215.201C246.758 216.248 237.401 208.111 233.427 198.47C226.26 181.084 238.849 164.268 229.726 155.836Z" fill="#141005"/>
<path d="M201.25 160.662C201.203 155.809 212.227 151.931 217.271 150.681C225.117 148.737 231.4 149.958 232.926 150.281C242.711 152.354 248.805 158.226 251.099 160.694C249.221 161.917 244.038 165.648 241.471 172.728C240.672 174.931 238.313 182.461 241.687 189.514C243.631 193.578 247.071 196.629 249.683 198.947C253.601 202.422 255.63 202.957 256.944 206.071C258.374 209.462 256.933 211.115 258.709 213.437C260.617 215.93 262.852 214.771 266.086 217.292C269.398 219.875 268.22 222 271.234 224.854C275.614 229 281.421 227.654 281.692 229.519C281.924 231.124 277.797 233.302 274.291 234.185C267.347 235.934 261.291 232.998 259.49 232.093C254.503 229.588 255.365 227.967 251.563 226.057C245.197 222.86 240.847 226.418 226.348 226.784C218.496 226.983 214.526 227.027 212.351 224.371C210.365 221.945 211.409 219.283 212.601 207.813C213.168 202.353 213.373 196.862 213.791 191.389C214.974 175.909 215.01 174.547 213.96 172.406C210.199 164.739 201.293 165.017 201.25 160.662Z" fill="#F4EBD7"/>
<g opacity="0.3">
<path d="M271.236 224.854C268.222 222 269.4 219.875 266.088 217.293C262.854 214.771 260.619 215.93 258.711 213.437C256.935 211.116 258.376 209.462 256.946 206.071C255.632 202.957 253.603 202.423 249.685 198.947C247.073 196.629 243.633 193.578 241.689 189.514C238.315 182.461 240.674 174.931 241.473 172.728C244.04 165.649 249.223 161.917 251.101 160.694C250.92 160.499 250.707 160.277 250.479 160.044C238.104 161.744 230.889 168.895 229.997 171.012C227.934 175.906 231.199 177.704 231.284 191.82C231.324 198.567 230.596 201.231 232.785 204.047C235.289 207.268 238.174 206.271 241.795 210.482C244.576 213.717 244.131 215.769 246.728 217.132C249.522 218.597 251.3 216.889 254.451 217.561C259.714 218.683 260.839 224.752 264.318 228.072C266.949 230.582 271.814 232.338 281.407 230.454C281.629 230.131 281.736 229.815 281.693 229.52C281.423 227.654 275.616 229.001 271.236 224.854Z" fill="#F4EBD7"/>
</g>
<path d="M233.75 174.819C232.434 177.613 238.479 184.119 245.198 187.209C246.567 187.838 256.397 192.358 260.778 188.012C264.398 184.42 262.062 176.994 261.228 174.342C257.132 161.323 244.553 154.701 239.281 152.312C235.347 162.149 237.664 166.533 238.576 167.901C239.529 169.331 242.188 172.334 245.012 174.98C246.998 176.841 248.235 177.747 248.068 178.037C247.861 178.398 245.533 177.716 236.49 173.314C235.442 173.484 234.199 173.865 233.75 174.819Z" fill="#FAF5EB"/>
<path d="M195.911 158.771L200.349 180.869C200.491 181.577 201.04 182.133 201.746 182.284L234.831 189.385C236.017 189.639 237.113 188.681 237.019 187.472L235.273 164.998C235.213 164.218 234.66 163.566 233.9 163.378C228.652 162.083 208.451 157.232 197.797 156.602C196.607 156.531 195.677 157.602 195.911 158.771Z" fill="#082133"/>
<path d="M229.07 143.611C229.07 143.611 229.534 147.621 231.376 148.764C233.217 149.906 236.194 151.4 236.522 151.805C236.85 152.21 225.115 153.471 219.299 150.537C221.215 150.137 221.736 149.99 221.736 149.99C222.257 149.843 223.227 149.569 224.2 149.015C224.862 148.638 225.929 147.902 226.908 146.511L226.886 143.748L229.07 143.611Z" fill="#D17975"/>
<path d="M229.064 144.256C229.064 144.256 228.549 146.229 226.546 146.279C224.752 146.323 224.095 141.903 225.158 140.951C225.512 140.634 226.301 140.402 226.936 140.52C227.382 140.603 228.807 141.415 228.782 142.963C229.133 142.692 229.523 142.659 229.688 142.821C229.896 143.027 229.694 143.498 229.648 143.605C229.489 143.975 229.201 144.174 229.064 144.256Z" fill="#D17975"/>
<path opacity="0.4" d="M225.704 177.876C222.151 176.874 219.204 179.362 216.373 177.394C213.473 175.377 215.366 171.932 212.351 168.545C209.128 164.923 205.038 166.697 202.055 163.397C200.947 162.171 199.951 160.175 199.935 156.77C199.188 156.698 198.472 156.641 197.795 156.601C196.605 156.53 195.675 157.602 195.909 158.77L200.347 180.868C200.489 181.576 201.038 182.132 201.744 182.284L233.54 189.107C231.295 181.231 228.299 178.608 225.704 177.876Z" fill="#082133"/>
<path d="M198.237 170.387C198.237 170.387 196.127 168.437 195.897 166.171C195.668 163.904 197.26 162.091 198.803 161.629C200.346 161.167 201.17 161.848 200.134 164.08C199.098 166.311 197.455 167.76 198.237 170.387Z" fill="#D17975"/>
<path d="M194.842 53.7101C197.368 51.0038 200.904 49.4673 204.606 49.4673H206.754C208.076 49.4673 208.941 50.8516 208.361 52.0392L197.963 73.3456H176.516L194.842 53.7101Z" fill="white"/>
<path d="M153.595 78.0538C156.293 72.6661 161.802 69.2635 167.828 69.2635H208.032C210.713 69.2635 213.175 67.7872 214.439 65.423L218.751 57.352C219.3 56.3239 220.371 55.682 221.537 55.682H225.791C226.171 55.682 226.419 56.0807 226.251 56.4214L216.287 76.6304C214.887 79.4693 211.997 81.2669 208.832 81.2669H155.58C153.929 81.267 152.856 79.5295 153.595 78.0538Z" fill="white"/>
<path d="M181.04 74.686H196.736C197.487 74.686 198.173 75.1143 198.502 75.7896L207.807 94.8549C208.643 96.5678 207.396 98.5643 205.49 98.5643H204.606C200.904 98.5643 197.369 97.0278 194.843 94.3215L179.603 77.993C178.43 76.7364 179.321 74.686 181.04 74.686Z" fill="white"/>
<path d="M164.492 75.9021H154.896C157.856 71.7767 162.65 69.2629 167.828 69.2629H170.461L167.798 73.9736C167.124 75.1652 165.861 75.9021 164.492 75.9021Z" fill="white"/>
<path d="M187.097 227.002C187.097 227.195 186.94 227.352 186.747 227.352C186.553 227.352 186.396 227.195 186.396 227.002V224.9C186.396 224.707 186.553 224.55 186.747 224.55C186.94 224.55 187.097 224.707 187.097 224.9V227.002Z" fill="#082133"/>
<path d="M198.656 227.002C198.656 227.195 198.499 227.352 198.305 227.352C198.112 227.352 197.955 227.195 197.955 227.002V224.9C197.955 224.707 198.112 224.55 198.305 224.55C198.499 224.55 198.656 224.707 198.656 224.9V227.002Z" fill="#C19632"/>
<path d="M200.058 224.435C200.058 224.886 199.692 225.251 199.242 225.251H185.46C185.01 225.251 184.645 224.886 184.645 224.435V224.315C184.645 223.865 185.01 223.499 185.46 223.499H199.242C199.692 223.499 200.058 223.865 200.058 224.315V224.435Z" fill="#082133"/>
<path d="M181.141 230.99C181.141 231.496 180.73 231.907 180.224 231.907H179.956C179.449 231.907 179.039 231.496 179.039 230.99V204.099C179.039 203.593 179.449 203.182 179.956 203.182H180.224C180.73 203.182 181.141 203.593 181.141 204.099V230.99Z" fill="#C19632"/>
<path d="M206.012 230.99C206.012 231.496 205.602 231.907 205.095 231.907H204.827C204.321 231.907 203.91 231.496 203.91 230.99V204.099C203.91 203.593 204.321 203.182 204.827 203.182H205.095C205.602 203.182 206.012 203.593 206.012 204.099V230.99Z" fill="#C19632"/>
<path d="M207.502 202.657C207.502 203.669 206.492 204.583 205.246 204.583H179.862C178.616 204.583 177.605 203.669 177.605 202.657C177.605 201.644 178.616 200.73 179.862 200.73H205.246C206.492 200.73 207.502 201.644 207.502 202.657Z" fill="#082133"/>
<path d="M207.82 284.653C207.82 285.558 207.086 286.292 206.181 286.292H206.12C205.214 286.292 204.48 285.558 204.48 284.653V282.087C204.48 281.182 205.214 280.448 206.12 280.448H206.181C207.086 280.448 207.82 281.182 207.82 282.087V284.653Z" fill="#082133"/>
<path d="M207.414 280.309C207.414 281.049 206.814 281.649 206.074 281.649H205.951C205.211 281.649 204.611 281.049 204.611 280.309V279.486C204.611 278.746 205.211 278.146 205.951 278.146H206.074C206.814 278.146 207.414 278.746 207.414 279.486V280.309Z" fill="#C19632"/>
<path d="M180.738 284.782C180.738 285.717 179.98 286.474 179.046 286.474C178.111 286.474 177.354 285.717 177.354 284.782V282.244C177.354 281.309 178.111 280.551 179.046 280.551C179.98 280.551 180.738 281.309 180.738 282.244V284.782Z" fill="#082133"/>
<path d="M180.091 280.309C180.091 281.049 179.492 281.648 178.752 281.648H178.629C177.889 281.648 177.289 281.049 177.289 280.309V279.485C177.289 278.745 177.889 278.146 178.629 278.146H178.752C179.492 278.146 180.091 278.745 180.091 279.485V280.309Z" fill="#C19632"/>
<path d="M213.369 276.864C213.369 278.733 211.854 280.248 209.985 280.248H175.068C173.199 280.248 171.684 278.733 171.684 276.864V230.037C171.684 228.168 173.199 226.652 175.068 226.652H209.985C211.854 226.652 213.369 228.168 213.369 230.037V276.864Z" fill="#C19632"/>
<path opacity="0.6" d="M181.491 235.849V271.104C181.491 272.289 180.615 273.293 179.549 273.646C179.284 273.736 178.944 273.784 178.648 273.784C178.6 273.784 178.527 273.784 178.479 273.781C177.797 273.744 177.152 273.454 176.698 273C176.213 272.515 175.887 271.843 175.887 271.104V235.849C175.887 234.416 177.023 233.246 178.439 233.172C178.487 233.17 178.538 233.17 178.586 233.17C178.882 233.17 179.171 233.218 179.436 233.308C179.836 233.438 180.306 233.663 180.596 233.954C181.081 234.439 181.491 235.11 181.491 235.849Z" fill="#082133"/>
<path opacity="0.6" d="M181.491 235.849V271.104C181.491 272.289 180.614 273.293 179.548 273.646C179.283 273.736 178.886 273.784 178.59 273.784C178.542 273.784 178.338 273.784 178.338 273.781V233.172C178.338 233.17 178.488 233.17 178.536 233.17C178.832 233.17 179.145 233.218 179.41 233.308C179.811 233.438 180.292 233.663 180.583 233.954C181.068 234.439 181.491 235.11 181.491 235.849Z" fill="#082133"/>
<path opacity="0.6" d="M190.949 235.849V271.104C190.949 272.289 189.997 273.293 188.931 273.646C188.666 273.736 188.289 273.784 187.993 273.784C187.945 273.784 187.853 273.784 187.805 273.781C187.123 273.744 186.369 273.454 185.915 273C185.43 272.515 184.994 271.843 184.994 271.104V235.849C184.994 234.416 186.23 233.246 187.646 233.172C187.694 233.17 187.796 233.17 187.844 233.17C188.14 233.17 188.453 233.218 188.718 233.308C189.119 233.438 189.676 233.663 189.966 233.954C190.451 234.439 190.949 235.11 190.949 235.849Z" fill="#082133"/>
<path opacity="0.6" d="M190.95 235.849V271.104C190.95 272.289 189.998 273.293 188.932 273.646C188.667 273.736 188.133 273.784 187.837 273.784C187.789 273.784 187.447 273.784 187.447 273.781V233.172C187.447 233.17 187.697 233.17 187.745 233.17C188.041 233.17 188.404 233.218 188.669 233.308C189.07 233.438 189.652 233.663 189.942 233.954C190.427 234.439 190.95 235.11 190.95 235.849Z" fill="#082133"/>
<path opacity="0.6" d="M200.406 235.849V271.104C200.406 272.289 199.379 273.293 198.313 273.646C198.048 273.736 197.633 273.784 197.337 273.784C197.289 273.784 197.178 273.784 197.13 273.781C196.448 273.744 195.76 273.454 195.306 273C194.821 272.515 194.451 271.843 194.451 271.104V235.849C194.451 234.416 195.612 233.246 197.028 233.172C197.075 233.17 197.14 233.17 197.187 233.17C197.484 233.17 197.778 233.218 198.043 233.308C198.444 233.438 199.067 233.663 199.357 233.954C199.842 234.439 200.406 235.11 200.406 235.849Z" fill="#082133"/>
<path opacity="0.6" d="M200.408 235.849V271.104C200.408 272.289 199.381 273.293 198.315 273.646C198.049 273.736 197.378 273.784 197.082 273.784C197.034 273.784 196.905 273.784 196.555 273.781V233.172C196.905 233.17 196.904 233.17 196.952 233.17C197.248 233.17 197.661 233.218 197.926 233.308C198.327 233.438 199.009 233.663 199.3 233.954C199.785 234.439 200.408 235.11 200.408 235.849Z" fill="#082133"/>
<path opacity="0.6" d="M209.165 235.849V271.104C209.165 272.289 208.412 273.293 207.346 273.646C207.081 273.736 206.803 273.784 206.507 273.784C206.459 273.784 206.418 273.784 206.37 273.781C205.687 273.744 205.109 273.454 204.655 273C204.17 272.515 203.91 271.843 203.91 271.104V235.849C203.91 234.416 204.995 233.246 206.411 233.172C206.459 233.17 206.486 233.17 206.533 233.17C206.83 233.17 207.105 233.218 207.37 233.308C207.771 233.438 208.11 233.663 208.4 233.954C208.885 234.439 209.165 235.11 209.165 235.849Z" fill="#082133"/>
<path opacity="0.6" d="M209.166 235.849V271.104C209.166 272.289 208.413 273.293 207.347 273.646C207.082 273.736 206.799 273.784 206.503 273.784C206.455 273.784 206.363 273.784 206.363 273.781V233.172C206.363 233.17 206.462 233.17 206.51 233.17C206.806 233.17 207.094 233.218 207.359 233.308C207.76 233.438 208.104 233.663 208.395 233.954C208.88 234.439 209.166 235.11 209.166 235.849Z" fill="#082133"/>
<path d="M207.294 148.766C207.294 150.636 205.779 152.152 203.909 152.152C202.039 152.152 200.523 150.636 200.523 148.766C200.523 146.896 202.039 145.381 203.909 145.381C205.779 145.381 207.294 146.896 207.294 148.766Z" fill="white"/>
<path d="M203.91 120.39C196.837 120.39 190.369 122.979 185.4 127.26C184.38 128.139 184.307 129.692 185.259 130.644L185.354 130.739C186.201 131.586 187.561 131.648 188.468 130.865C192.611 127.286 198.006 125.119 203.91 125.119C209.815 125.119 215.21 127.286 219.353 130.865C220.259 131.648 221.62 131.586 222.466 130.739L222.562 130.644C223.514 129.692 223.441 128.139 222.421 127.26C217.452 122.979 210.984 120.39 203.91 120.39Z" fill="white"/>
<path d="M203.912 128.272C199.025 128.272 194.541 129.985 191.02 132.84C189.966 133.695 189.899 135.282 190.858 136.241L190.875 136.258C191.715 137.098 193.046 137.144 193.972 136.399C196.692 134.208 200.148 132.896 203.912 132.896C207.676 132.896 211.131 134.208 213.851 136.399C214.777 137.144 216.108 137.098 216.948 136.258L216.965 136.241C217.924 135.282 217.857 133.694 216.804 132.84C213.283 129.985 208.798 128.272 203.912 128.272Z" fill="white"/>
<path d="M196.497 141.88C197.329 142.712 198.62 142.806 199.605 142.162C200.843 141.354 202.322 140.883 203.911 140.883C205.5 140.883 206.979 141.354 208.217 142.162C209.202 142.806 210.493 142.712 211.326 141.88L211.336 141.869C212.357 140.849 212.196 139.152 211.004 138.339C208.984 136.961 206.542 136.154 203.911 136.154C201.28 136.154 198.839 136.961 196.818 138.339C195.626 139.153 195.466 140.849 196.486 141.869L196.497 141.88Z" fill="white"/>
<path d="M137.349 47.2175C137.349 55.4722 126.555 75.2924 122.079 82.2022C121.318 83.3769 118.189 83.1584 117.428 81.9838C112.952 75.0741 100.746 55.4722 100.746 47.2176C100.746 37.11 108.94 28.916 119.048 28.916C129.155 28.9158 137.349 37.1098 137.349 47.2175Z" fill="#DFC486"/>
<path d="M139.336 47.2176C139.336 55.4723 127.129 75.0741 122.654 81.9838C121.893 83.1585 120.175 83.1585 119.414 81.9838C114.939 75.0741 102.732 55.4722 102.732 47.2176C102.732 37.11 110.926 28.916 121.034 28.916C131.142 28.9159 139.336 37.1098 139.336 47.2176Z" fill="#082133"/>
<path opacity="0.7" d="M128.16 52.6578C132.097 48.7213 132.097 42.339 128.16 38.4025C124.224 34.466 117.841 34.466 113.905 38.4025C109.968 42.339 109.968 48.7213 113.905 52.6578C117.841 56.5943 124.224 56.5943 128.16 52.6578Z" fill="#FAF5EB"/>
<path opacity="0.7" d="M121.035 55.0092C126.27 55.0092 130.514 50.7649 130.514 45.5294C130.514 40.2938 126.27 36.0496 121.035 36.0496C115.799 36.0496 111.555 40.2938 111.555 45.5294C111.555 50.7649 115.799 55.0092 121.035 55.0092Z" fill="#FAF5EB"/>
<path d="M164.76 279.389C164.76 283.082 162.14 286.239 158.909 286.428L34.2724 293.703C30.5709 293.919 27.5488 290.864 27.5488 286.892V108.1C27.5488 104.128 30.5709 101.019 34.2724 101.169L158.909 106.22C162.14 106.351 164.76 109.462 164.76 113.155V279.389Z" fill="#C19632"/>
<path d="M168.418 279.225C168.418 282.918 165.798 286.075 162.567 286.264L37.9305 293.539C34.229 293.755 31.207 290.699 31.207 286.728V107.936C31.207 103.964 34.229 100.855 37.9305 101.005L162.567 106.056C165.798 106.187 168.418 109.298 168.418 112.991V279.225Z" fill="#DFC486"/>
<path d="M34.3438 108.216V286.72C34.3438 288.843 35.9518 290.473 37.9317 290.361L136.506 284.777L162.568 283.3C164.3 283.202 165.701 281.518 165.701 279.538V113.055C165.701 111.075 164.3 109.415 162.568 109.348L135.565 108.3L37.9318 104.511C35.9518 104.434 34.3438 106.093 34.3438 108.216Z" fill="#C19632"/>
<path d="M163.972 271.839C163.972 272.575 163.381 273.204 162.655 273.242L37.8292 279.624C36.9997 279.667 36.3242 279.06 36.3242 278.272V108.219C36.3242 107.431 36.9998 106.815 37.8292 106.846L162.655 111.54C163.381 111.568 163.972 112.189 163.972 112.926V271.839Z" fill="#FAF5EB"/>
<path d="M114.898 282.906L89.5509 284.3C88.1957 284.374 87.0957 283.435 87.0957 282.201V282.108C87.0957 280.875 88.1957 279.817 89.5509 279.745L114.898 278.412C116.215 278.343 117.281 279.271 117.281 280.485V280.576C117.281 281.79 116.215 282.833 114.898 282.906Z" fill="#082133"/>
<path d="M103.606 107.059C103.606 107.716 103.026 108.225 102.309 108.198C101.592 108.171 101.01 107.616 101.01 106.958C101.01 106.301 101.592 105.791 102.309 105.82C103.026 105.848 103.606 106.403 103.606 107.059Z" fill="#FAF5EB"/>
<g opacity="0.3">
<path d="M135.429 267.37C134.921 256.475 147.034 250.085 145.87 234.717C145.765 233.33 144.683 221.437 135.111 213.375C126.515 206.136 119.29 208.86 103.381 203.086C92.231 199.039 79.696 194.489 74.6263 185.361C64.5583 167.234 93.328 149.128 87.4395 125.661C85.7522 118.937 80.9881 110.694 68.4053 102.086L37.9305 100.851C34.229 100.701 31.207 103.81 31.207 107.782V286.573C31.207 290.545 34.229 293.601 37.9305 293.384L151.492 286.756C139.396 279.764 135.694 273.046 135.429 267.37Z" fill="#FAF5EB"/>
</g>
<path d="M125.753 236.682C130.109 236.536 133.699 239.684 133.699 243.571V257.058C133.699 260.965 130.08 264.395 125.711 264.612L77.4912 266.994C72.8579 267.224 69.1935 264.044 69.1934 260.008V246.024L69.2041 245.645C69.4303 241.752 73.1202 238.432 77.6221 238.282L125.753 236.682Z" fill="#141005" stroke="#C19632"/>
<path d="M59.8057 117.691L141.354 120.339C143.496 120.408 145.261 122.263 145.261 124.5V126.005C145.261 128.247 143.602 129.959 141.487 129.903L59.8496 127.747C57.4535 127.683 55.5332 125.718 55.5332 123.371V121.789C55.5332 119.451 57.4228 117.614 59.8057 117.691Z" fill="#141005" stroke="#C19632"/>
<g opacity="0.4">
<path d="M129.889 142.853L68.4561 169.476L70.1835 173.342C70.4102 173.849 70.1988 174.433 69.6864 174.656C69.1736 174.88 68.5941 174.641 68.367 174.134L66.6362 170.265L48.4546 178.144C47.1524 178.709 46.7233 180.358 47.3001 181.63L68.3888 228.147C68.9522 229.389 70.2808 229.757 71.5506 229.164L89.2845 220.888L87.7607 217.482C87.5383 216.985 87.7456 216.402 88.248 216.169C88.7501 215.936 89.317 216.16 89.539 216.656L91.0598 220.06L151.013 192.081C152.174 191.539 152.768 190.319 152.255 189.122L133.06 144.326C132.535 143.101 131.077 142.338 129.889 142.853ZM87.5279 212.156C87.7503 212.653 87.5429 213.236 87.0402 213.468C86.5371 213.701 85.9684 213.476 85.7456 212.978L83.4564 207.862C83.233 207.362 83.4413 206.779 83.9461 206.548C84.4505 206.318 85.0202 206.544 85.2432 207.043L87.5279 212.156ZM83.2226 202.521C83.446 203.021 83.2377 203.604 82.7326 203.834C82.2271 204.064 81.6557 203.837 81.4319 203.336L79.1318 198.195C78.9074 197.693 79.1166 197.11 79.6239 196.881C80.1307 196.653 80.7031 196.883 80.9271 197.384L83.2226 202.521ZM78.8969 192.841C79.1213 193.343 78.9121 193.926 78.4045 194.154C77.8967 194.383 77.3225 194.151 77.0977 193.648L74.7867 188.483C74.5612 187.979 74.7714 187.395 75.2811 187.169C75.7904 186.942 76.3655 187.176 76.5905 187.68L78.8969 192.841ZM74.5506 183.115C74.7761 183.62 74.5659 184.203 74.0559 184.429C73.5456 184.655 72.9687 184.419 72.7427 183.914L70.4207 178.724C70.194 178.218 70.4054 177.634 70.9173 177.409C71.429 177.185 72.0069 177.423 72.2331 177.929L74.5506 183.115Z" fill="#082133"/>
<path d="M115.29 156.491C115.739 157.526 115.28 158.725 114.265 159.171L91.1466 169.313C90.1032 169.771 88.8815 169.294 88.4189 168.246L88.3457 168.081C87.8827 167.033 88.3555 165.813 89.4009 165.357L112.563 155.256C113.581 154.812 114.769 155.293 115.219 156.328L115.29 156.491Z" fill="#082133"/>
<path d="M130.662 149.678C131.121 150.747 130.652 151.981 129.614 152.437L122.017 155.77C120.969 156.23 119.741 155.733 119.276 154.658L119.27 154.645C118.805 153.57 119.28 152.327 120.331 151.869L127.942 148.55C128.982 148.096 130.197 148.596 130.656 149.665L130.662 149.678Z" fill="#082133"/>
<path d="M139.821 178.254C140.095 178.89 139.815 179.634 139.197 179.917L103.766 196.097C103.122 196.391 102.368 196.105 102.082 195.459C101.797 194.812 102.088 194.05 102.733 193.756L138.205 177.613C138.824 177.331 139.547 177.619 139.821 178.254Z" fill="#082133"/>
<path d="M141.635 182.472C141.908 183.106 141.629 183.85 141.012 184.134L118.362 194.542C117.728 194.833 116.986 194.55 116.705 193.908C116.425 193.266 116.711 192.51 117.346 192.22L140.022 181.835C140.64 181.552 141.362 181.837 141.635 182.472Z" fill="#082133"/>
<path d="M143.528 186.871C143.8 187.504 143.522 188.247 142.906 188.532L120.305 198.986C119.673 199.278 118.933 198.997 118.653 198.357C118.372 197.716 118.659 196.96 119.292 196.668L141.918 186.238C142.535 185.954 143.255 186.237 143.528 186.871Z" fill="#082133"/>
<path d="M72.2855 223.818C72.433 224.144 72.2824 224.534 71.949 224.689C71.6156 224.844 71.2254 224.704 71.0778 224.378L67.2366 215.885C67.0883 215.557 67.2397 215.167 67.5749 215.013C67.9098 214.86 68.3014 215.001 68.4495 215.329L72.2855 223.818Z" fill="#082133"/>
<path d="M74.8564 222.514C75.0067 222.848 74.772 223.283 74.326 223.49C73.8797 223.697 73.4006 223.593 73.25 223.26L69.4246 214.789C69.2734 214.454 69.5094 214.018 69.9578 213.813C70.406 213.608 70.8865 213.715 71.0375 214.049L74.8564 222.514Z" fill="#082133"/>
<path d="M77.3006 221.491C77.4473 221.817 77.2975 222.205 76.9659 222.359C76.6343 222.513 76.2462 222.374 76.0993 222.048L72.2793 213.574C72.1318 213.246 72.2824 212.857 72.6156 212.705C72.9488 212.552 73.3382 212.694 73.4855 213.021L77.3006 221.491Z" fill="#082133"/>
<path d="M83.0849 218.807C83.2307 219.132 83.0818 219.519 82.7523 219.672C82.4227 219.825 82.0372 219.686 81.8912 219.361L78.0953 210.908C77.9487 210.581 78.0984 210.194 78.4296 210.042C78.7607 209.89 79.1476 210.032 79.294 210.358L83.0849 218.807Z" fill="#C19632"/>
<path d="M79.4993 220.471C79.6456 220.796 79.4962 221.184 79.1655 221.338C78.8346 221.491 78.4475 221.352 78.301 221.027L74.4901 212.56C74.3429 212.233 74.4932 211.845 74.8257 211.692C75.158 211.54 75.5464 211.682 75.6934 212.009L79.4993 220.471Z" fill="#C19632"/>
<path d="M81.0279 220.117C81.101 220.28 81.0263 220.474 80.8614 220.551C80.6963 220.627 80.5031 220.558 80.4301 220.395L76.3622 211.346C76.2887 211.182 76.3638 210.988 76.5297 210.912C76.6955 210.836 76.8895 210.907 76.9629 211.071L81.0279 220.117Z" fill="#082133"/>
</g>
<path d="M131.199 141.436C132.072 141.059 133.266 141.615 133.709 142.649L152.88 187.437C153.269 188.346 152.844 189.297 151.888 189.743L92.4707 217.426L91.1592 214.486C90.8267 213.742 89.9639 213.397 89.2031 213.749C88.4471 214.099 88.139 214.977 88.4697 215.718L89.791 218.673L72.5264 226.718C71.988 226.969 71.4672 227.003 71.042 226.871C70.6232 226.741 70.2598 226.44 70.0352 225.944L48.9736 179.435C48.485 178.355 48.8848 177.044 49.8701 176.618L67.5742 168.959L69.1016 172.377C69.4354 173.124 70.301 173.492 71.0752 173.154C71.8527 172.815 72.1635 171.929 71.8291 171.18L70.3096 167.776L131.199 141.436ZM86.8691 204.875C86.5365 204.13 85.6731 203.779 84.9092 204.128C84.1482 204.475 83.8401 205.356 84.1719 206.099L86.458 211.215C86.7911 211.96 87.654 212.307 88.416 211.956C89.1733 211.607 89.4809 210.728 89.1504 209.987L86.8691 204.875ZM82.5586 195.218C82.2258 194.472 81.3617 194.116 80.5947 194.462C79.8287 194.807 79.5196 195.69 79.8525 196.435L82.1494 201.574C82.4827 202.32 83.347 202.672 84.1123 202.324C84.8744 201.977 85.1821 201.097 84.8506 200.354L82.5586 195.218ZM78.2275 185.515C77.8946 184.769 77.0298 184.408 76.2598 184.75C75.489 185.092 75.1789 185.977 75.5127 186.724L77.8213 191.888C78.1547 192.634 79.0189 192.992 79.7871 192.647C80.5545 192.303 80.8635 191.421 80.5312 190.676L78.2275 185.515ZM73.876 175.766C73.5428 175.019 72.6775 174.653 71.9043 174.991C71.1283 175.331 70.8175 176.217 71.1523 176.967L73.4717 182.156C73.8055 182.902 74.6705 183.265 75.4414 182.925C76.2139 182.583 76.5237 181.698 76.1904 180.951L73.876 175.766Z" fill="#FAF5EB" stroke="#EAD8AE"/>
<path d="M116.419 154.591C116.868 155.625 116.41 156.823 115.395 157.267L92.3068 167.378C91.2648 167.835 90.0447 167.356 89.5826 166.309L89.5095 166.144C89.0472 165.096 89.5193 163.878 90.5634 163.423L113.696 153.353C114.712 152.911 115.9 153.392 116.348 154.427L116.419 154.591Z" fill="#082133"/>
<path d="M131.772 147.798C132.231 148.867 131.763 150.1 130.726 150.554L123.139 153.877C122.092 154.335 120.865 153.837 120.401 152.763L120.395 152.75C119.931 151.675 120.405 150.433 121.454 149.977L129.055 146.668C130.094 146.215 131.308 146.716 131.767 147.785L131.772 147.798Z" fill="#082133"/>
<path d="M140.92 176.367C141.193 177.003 140.914 177.746 140.296 178.028L104.91 194.159C104.267 194.453 103.514 194.167 103.229 193.52C102.943 192.874 103.235 192.112 103.879 191.819L139.305 175.724C139.924 175.443 140.647 175.731 140.92 176.367Z" fill="#082133"/>
<path d="M142.734 180.583C143.007 181.217 142.729 181.96 142.112 182.243L119.49 192.62C118.857 192.911 118.117 192.626 117.836 191.985C117.556 191.343 117.842 190.588 118.476 190.298L141.123 179.945C141.74 179.662 142.462 179.948 142.734 180.583Z" fill="#082133"/>
<path d="M144.624 184.982C144.896 185.614 144.618 186.358 144.003 186.642L121.43 197.064C120.798 197.356 120.059 197.074 119.779 196.434C119.499 195.793 119.785 195.038 120.418 194.747L143.016 184.348C143.632 184.065 144.351 184.348 144.624 184.982Z" fill="#082133"/>
<path d="M73.4723 221.828C73.6196 222.154 73.4692 222.544 73.1362 222.698C72.8032 222.853 72.4136 222.713 72.2661 222.387L68.4299 213.895C68.2818 213.567 68.433 213.177 68.7677 213.024C69.1022 212.871 69.4932 213.013 69.6412 213.341L73.4723 221.828Z" fill="#C19632"/>
<path d="M76.0388 220.528C76.1889 220.862 75.9545 221.297 75.5091 221.503C75.0634 221.71 74.5849 221.605 74.4345 221.271L70.614 212.802C70.463 212.467 70.6987 212.032 71.1465 211.827C71.5941 211.622 72.074 211.73 72.2248 212.065L76.0388 220.528Z" fill="#C19632"/>
<path d="M78.4797 219.508C78.6262 219.833 78.4766 220.221 78.1454 220.375C77.8141 220.529 77.4266 220.389 77.2799 220.063L73.4647 211.59C73.3175 211.263 73.4679 210.874 73.8007 210.722C74.1334 210.57 74.5223 210.712 74.6694 211.039L78.4797 219.508Z" fill="#C19632"/>
<path d="M84.2561 216.832C84.4017 217.157 84.253 217.544 83.924 217.697C83.5948 217.849 83.2098 217.71 83.064 217.385L79.273 208.933C79.1266 208.606 79.2761 208.219 79.6069 208.068C79.9374 207.917 80.3239 208.059 80.4701 208.385L84.2561 216.832Z" fill="#C19632"/>
<path d="M80.6764 218.491C80.8225 218.816 80.6733 219.204 80.343 219.357C80.0125 219.51 79.626 219.371 79.4796 219.045L75.6736 210.58C75.5266 210.253 75.6767 209.865 76.0088 209.713C76.3406 209.562 76.7287 209.704 76.8755 210.03L80.6764 218.491Z" fill="#C19632"/>
<path d="M82.2016 218.14C82.2745 218.302 82.2 218.496 82.0352 218.572C81.8703 218.649 81.6775 218.579 81.6044 218.416L77.5418 209.369C77.4685 209.205 77.5434 209.011 77.7091 208.936C77.8748 208.86 78.0684 208.931 78.1417 209.094L82.2016 218.14Z" fill="#C19632"/>
</g>
<defs>
<clipPath id="clip0_5990_43302">
<rect width="291.458" height="298.985" fill="white"/>
</clipPath>
</defs>
</svg>
