Doneness<svg width="16" height="16" viewBox="0 0 16 16" fill="none" xmlns="http://www.w3.org/2000/svg">
<g clip-path="url(#clip0_3328_6781)">
<path d="M8.62687 5.9931C9.18369 6.81318 9.6926 7.66478 10.151 8.54364C10.1717 8.58536 10.2037 8.62047 10.2433 8.64501C10.2828 8.66956 10.3285 8.68256 10.375 8.68256C10.4216 8.68256 10.4673 8.66956 10.5068 8.64501C10.5464 8.62047 10.5783 8.58536 10.599 8.54364C11.0575 7.66478 11.5664 6.81318 12.1232 5.9931L12.2171 5.84882C12.6465 5.18811 13.0296 4.52954 12.9986 3.73908C12.9871 3.44155 12.9276 3.14783 12.8224 2.86926C12.6289 2.37794 12.292 1.95623 11.8555 1.65903C11.419 1.36182 10.9032 1.20288 10.3751 1.20288C9.84705 1.20288 9.33121 1.36182 8.89472 1.65903C8.45823 1.95623 8.12131 2.37794 7.92779 2.86926C7.82253 3.1478 7.76301 3.44153 7.75152 3.73908C7.72052 4.52954 8.10357 5.18811 8.53302 5.84894L8.62687 5.9931ZM8.25102 3.75855C8.26052 3.51464 8.30937 3.27386 8.39567 3.04553C8.55335 2.64934 8.82629 2.30958 9.17919 2.07021C9.53208 1.83084 9.94869 1.70288 10.3751 1.70288C10.8015 1.70288 11.2181 1.83084 11.571 2.07021C11.9239 2.30958 12.1969 2.64934 12.3545 3.04553C12.4407 3.27389 12.4895 3.51465 12.4991 3.75855C12.5242 4.40241 12.1817 4.98584 11.7979 5.57623L11.7041 5.72027C11.2486 6.41998 10.7799 7.13971 10.375 7.88947C9.97013 7.13972 9.50151 6.41998 9.04594 5.72027L8.95219 5.57635C8.5684 4.98584 8.22587 4.40247 8.25102 3.75855Z" fill="#666666"/>
<path d="M10.375 5.5C10.6964 5.5 11.0106 5.4047 11.2778 5.22614C11.545 5.04758 11.7533 4.79379 11.8763 4.49686C11.9993 4.19993 12.0315 3.8732 11.9688 3.55798C11.9061 3.24276 11.7513 2.95321 11.524 2.72595C11.2968 2.49869 11.0072 2.34393 10.692 2.28122C10.3768 2.21852 10.0501 2.2507 9.75314 2.3737C9.45621 2.49669 9.20242 2.70497 9.02386 2.9722C8.8453 3.23943 8.75 3.55361 8.75 3.875C8.75049 4.30583 8.92185 4.71887 9.22649 5.02351C9.53113 5.32815 9.94417 5.49951 10.375 5.5ZM10.375 2.75C10.5975 2.75 10.815 2.81598 11 2.9396C11.185 3.06321 11.3292 3.23891 11.4144 3.44448C11.4995 3.65005 11.5218 3.87625 11.4784 4.09448C11.435 4.31271 11.3278 4.51316 11.1705 4.6705C11.0132 4.82783 10.8127 4.93498 10.5945 4.97838C10.3762 5.02179 10.15 4.99951 9.94448 4.91437C9.73891 4.82922 9.56321 4.68502 9.4396 4.50002C9.31598 4.31501 9.25 4.0975 9.25 3.875C9.25034 3.57674 9.36897 3.29078 9.57988 3.07988C9.79078 2.86897 10.0767 2.75034 10.375 2.75Z" fill="#666666"/>
<path d="M7.30744 4.38311L5.76019 3.31592C5.70678 3.47775 5.63992 3.63483 5.5603 3.78551L7.56829 5.17049C7.45124 4.91898 7.36371 4.65476 7.30744 4.38311Z" fill="#666666"/>
<path d="M15.4267 9.88707C15.3968 9.85602 15.3594 9.83321 15.3181 9.82085C15.2768 9.80849 15.233 9.807 15.1909 9.81652L13.8906 10.1129L12.9328 8.7567C12.914 8.72998 12.89 8.70721 12.8624 8.68968L12.1158 8.21678L11.7446 7.51755C11.6425 7.68488 11.5431 7.8531 11.4465 8.02221L11.7053 8.50975C11.7256 8.54812 11.7556 8.58052 11.7923 8.60375L12.553 9.08557L13.5787 10.5381C13.6074 10.5784 13.6473 10.6094 13.6935 10.6272C13.7398 10.6449 13.7902 10.6485 13.8385 10.6377L15.1642 10.3354L15.4626 10.6462L14.8969 12.2372L10.8357 13.3774C10.7739 13.3948 10.7212 13.4352 10.6885 13.4903L10.2091 14.2966L9.26353 13.6669C9.23438 13.6474 9.20147 13.6343 9.16694 13.6285C9.1324 13.6226 9.09701 13.6241 9.06309 13.6328L7.5211 14.0272C7.46253 14.0421 7.41137 14.0777 7.37717 14.1276L6.9481 14.75H6.48643L4.14842 11.3765L4.11912 10.4022C4.11775 10.3573 4.10434 10.3137 4.0803 10.2757L2.00315 7.00389C1.9849 6.97513 1.96097 6.95041 1.93282 6.93123C1.90467 6.91206 1.8729 6.89884 1.83946 6.89238L0.904642 6.71202L0.567727 5.85033L2.24002 5.05828C2.15032 4.91591 2.05907 4.77441 1.9676 4.63403L0.142923 5.49828C0.0857287 5.52539 0.0409459 5.57319 0.0176108 5.63202C-0.00572426 5.69086 -0.00587445 5.75635 0.0171906 5.81529L0.489237 7.02245C0.504603 7.06174 0.529664 7.09651 0.562086 7.12351C0.594507 7.15051 0.633234 7.16886 0.674661 7.17686L1.63877 7.3629L3.62144 10.4858L3.65086 11.4654C3.6523 11.5138 3.66774 11.5607 3.69529 11.6005L6.15012 15.1424C6.17312 15.1756 6.20383 15.2028 6.23961 15.2215C6.27539 15.2402 6.31518 15.25 6.35557 15.25H7.07944C7.11995 15.25 7.15985 15.2402 7.1957 15.2213C7.23156 15.2025 7.26229 15.1752 7.28525 15.1418L7.73569 14.4884L9.07908 14.1448L10.151 14.8586C10.1792 14.8774 10.2109 14.8903 10.2443 14.8964C10.2776 14.9025 10.3119 14.9018 10.3449 14.8943C10.378 14.8868 10.4091 14.8726 10.4366 14.8527C10.464 14.8327 10.487 14.8074 10.5044 14.7783L11.0671 13.8318L15.1567 12.6836C15.1952 12.6728 15.2306 12.6529 15.2598 12.6255C15.289 12.5982 15.3113 12.5643 15.3247 12.5266L15.9856 10.6682C16.0011 10.6245 16.0041 10.5773 15.9944 10.5319C15.9846 10.4865 15.9624 10.4447 15.9303 10.4112L15.4267 9.88707Z" fill="#666666"/>
<path d="M3.49996 0.749929C3.12227 0.744756 2.7521 0.855659 2.43948 1.06765C2.12686 1.27964 1.88686 1.5825 1.75191 1.93529C1.67688 2.13288 1.63446 2.34135 1.6263 2.55254C1.60396 3.11419 1.87264 3.57458 2.17391 4.0357L2.23922 4.13549C2.61791 4.69032 2.96415 5.26663 3.2762 5.8615C3.29695 5.90309 3.32888 5.93807 3.3684 5.96253C3.40793 5.98698 3.45348 5.99993 3.49996 5.99993C3.54643 5.99993 3.59199 5.98698 3.63152 5.96253C3.67104 5.93807 3.70297 5.90309 3.72371 5.8615C4.03576 5.26663 4.382 4.69032 4.7607 4.13549L4.82601 4.03563C5.12728 3.57463 5.39583 3.11425 5.37362 2.55266C5.36547 2.34143 5.32305 2.13292 5.24801 1.93529C5.11306 1.5825 4.87306 1.27964 4.56043 1.06765C4.24781 0.855657 3.87764 0.744755 3.49996 0.749929ZM4.8741 2.57232C4.89046 2.98717 4.67244 3.35656 4.40755 3.76201L4.34237 3.86168C4.05562 4.29967 3.76143 4.74914 3.49996 5.21636C3.23848 4.74914 2.94429 4.29967 2.65755 3.86168L2.59237 3.76208C2.32747 3.35656 2.10946 2.98717 2.12581 2.5722C2.13203 2.4149 2.16365 2.25963 2.21944 2.11242C2.31743 1.85385 2.49321 1.63204 2.72255 1.47756C2.9519 1.32309 3.22351 1.24355 3.49996 1.24993C3.7764 1.24355 4.04801 1.32309 4.27736 1.47756C4.5067 1.63203 4.68249 1.85384 4.78047 2.11242C4.83627 2.25963 4.86789 2.41501 4.8741 2.57232Z" fill="#666666"/>
<path d="M3.5 1.75C3.32694 1.75 3.15777 1.80132 3.01388 1.89746C2.86998 1.99361 2.75783 2.13027 2.69161 2.29015C2.62538 2.45004 2.60805 2.62597 2.64181 2.7957C2.67558 2.96544 2.75891 3.12135 2.88128 3.24372C3.00365 3.36609 3.15956 3.44943 3.3293 3.48319C3.49903 3.51695 3.67496 3.49962 3.83485 3.43339C3.99473 3.36717 4.13139 3.25502 4.22754 3.11112C4.32368 2.96723 4.375 2.79806 4.375 2.625C4.37473 2.39302 4.28246 2.17062 4.11842 2.00658C3.95438 1.84254 3.73198 1.75027 3.5 1.75ZM3.5 3C3.42583 3 3.35333 2.97801 3.29166 2.9368C3.22999 2.8956 3.18193 2.83703 3.15355 2.76851C3.12516 2.69998 3.11774 2.62458 3.13221 2.55184C3.14668 2.4791 3.18239 2.41228 3.23484 2.35983C3.28728 2.30739 3.3541 2.27167 3.42684 2.25721C3.49958 2.24274 3.57498 2.25016 3.64351 2.27855C3.71203 2.30693 3.7706 2.35499 3.8118 2.41666C3.85301 2.47833 3.875 2.55083 3.875 2.625C3.87489 2.72442 3.83535 2.81974 3.76505 2.89005C3.69474 2.96035 3.59942 2.99989 3.5 3Z" fill="#666666"/>
<path d="M4.87691 9.0603C4.80188 9.25791 4.75945 9.4664 4.7513 9.67761C4.72896 10.2393 4.99764 10.6996 5.29891 11.1608L5.36385 11.26C5.74264 11.815 6.089 12.3915 6.4012 12.9866C6.42195 13.0282 6.45388 13.0631 6.4934 13.0876C6.53293 13.112 6.57848 13.125 6.62496 13.125C6.67143 13.125 6.71699 13.112 6.75652 13.0876C6.79604 13.0631 6.82797 13.0282 6.84871 12.9866C7.16091 12.3915 7.50728 11.815 7.88607 11.26L7.95101 11.1606C8.25228 10.6997 8.52083 10.2394 8.49862 9.67774C8.49049 9.46652 8.44806 9.25803 8.373 9.06043C8.23369 8.71062 7.99264 8.41066 7.68101 8.19932C7.36939 7.98799 7.00153 7.87501 6.625 7.875C6.24847 7.87499 5.8806 7.98794 5.56896 8.19925C5.25732 8.41056 5.01625 8.71051 4.87691 9.0603ZM5.34444 9.23743C5.44782 8.98256 5.62491 8.76433 5.85304 8.61069C6.08117 8.45706 6.34996 8.37499 6.625 8.375C6.90004 8.37502 7.16882 8.45711 7.39693 8.61077C7.62505 8.76443 7.80212 8.98267 7.90547 9.23755C7.96127 9.38474 7.99289 9.53998 7.9991 9.69727C8.01546 10.1121 7.79744 10.4817 7.53255 10.8871L7.46773 10.9862C7.18086 11.4245 6.88655 11.874 6.62495 12.3414C6.36336 11.874 6.06905 11.4245 5.78218 10.9862L5.71736 10.8872C5.45247 10.4817 5.23445 10.1122 5.25081 9.69728C5.25703 9.53995 5.28865 9.38466 5.34444 9.23743Z" fill="#666666"/>
<path d="M6.625 10.625C6.79806 10.625 6.96723 10.5737 7.11112 10.4775C7.25502 10.3814 7.36717 10.2447 7.43339 10.0848C7.49962 9.92496 7.51695 9.74903 7.48319 9.5793C7.44943 9.40956 7.36609 9.25365 7.24372 9.13128C7.12135 9.00891 6.96544 8.92558 6.7957 8.89181C6.62597 8.85805 6.45004 8.87538 6.29015 8.94161C6.13027 9.00783 5.99361 9.11998 5.89746 9.26388C5.80132 9.40777 5.75 9.57694 5.75 9.75C5.75028 9.98198 5.84256 10.2044 6.00659 10.3684C6.17063 10.5324 6.39302 10.6247 6.625 10.625ZM6.625 9.375C6.69917 9.375 6.77167 9.39699 6.83334 9.4382C6.89501 9.4794 6.94307 9.53797 6.97146 9.60649C6.99984 9.67502 7.00726 9.75042 6.99279 9.82316C6.97833 9.8959 6.94261 9.96272 6.89017 10.0152C6.83772 10.0676 6.7709 10.1033 6.69816 10.1178C6.62542 10.1323 6.55002 10.1248 6.48149 10.0965C6.41297 10.0681 6.3544 10.02 6.3132 9.95834C6.27199 9.89667 6.25 9.82417 6.25 9.75C6.25011 9.65058 6.28965 9.55526 6.35995 9.48495C6.43026 9.41465 6.52558 9.37511 6.625 9.375Z" fill="#666666"/>
</g>
<defs>
<clipPath id="clip0_3328_6781">
<rect width="16" height="16" fill="white"/>
</clipPath>
</defs>
</svg>
