<svg width="16" height="16" viewBox="0 0 16 16" fill="none" xmlns="http://www.w3.org/2000/svg">
<path d="M12.2031 8C12.2031 8.36734 12.0601 8.71269 11.8005 8.97241L6.14431 14.6286C5.60809 15.1646 4.73562 15.1646 4.19947 14.6287C3.93987 14.3689 3.79688 14.0236 3.79688 13.6563C3.79688 13.2889 3.93987 12.9436 4.19947 12.6838L8.75072 8.13259L8.88328 8L8.75069 7.86741L4.1995 3.31619C3.93987 3.05644 3.79688 2.71109 3.79688 2.34375C3.79688 1.97641 3.93987 1.63106 4.19944 1.37137C4.73566 0.835437 5.60813 0.835437 6.14431 1.37134L11.8005 7.02756C12.0601 7.28731 12.2031 7.63266 12.2031 8ZM12.3906 8C12.3906 7.60009 12.2381 7.20016 11.9331 6.895L6.27687 1.23875C5.66656 0.62875 4.67719 0.62875 4.06688 1.23875C3.76188 1.54391 3.60938 1.94381 3.60938 2.34375C3.60938 2.74369 3.76188 3.14359 4.06688 3.44875L8.61812 8L4.06688 12.5513C3.76188 12.8564 3.60938 13.2563 3.60938 13.6563C3.60938 14.0562 3.76188 14.4561 4.06688 14.7612C4.67719 15.3712 5.66656 15.3712 6.27687 14.7612L11.9331 9.105C12.2381 8.79984 12.3906 8.39991 12.3906 8Z" fill="#141005" stroke="#141005" stroke-width="0.5"/>
</svg>
