<svg width="16" height="16" viewBox="0 0 16 16" fill="none" xmlns="http://www.w3.org/2000/svg">
<path d="M5.68969 3.31364C5.55115 3.31059 5.41511 3.35075 5.30047 3.4286C5.18583 3.50644 5.0983 3.61812 5.05004 3.74802C5.00177 3.87791 4.99518 4.01959 5.03118 4.1534C5.06717 4.28722 5.14397 4.40644 5.25088 4.49459L9.33031 7.98937L5.25088 11.4829C5.17692 11.5373 5.11499 11.6063 5.06895 11.6857C5.02291 11.7651 4.99376 11.8532 4.98332 11.9444C4.97289 12.0356 4.9814 12.1279 5.00832 12.2157C5.03523 12.3034 5.07998 12.3847 5.13975 12.4543C5.19952 12.524 5.27303 12.5805 5.35567 12.6204C5.43832 12.6604 5.52831 12.6828 5.62003 12.6863C5.71175 12.6899 5.80321 12.6745 5.88868 12.641C5.97416 12.6076 6.05181 12.5569 6.11677 12.492L10.7873 8.49588C10.8607 8.43329 10.9196 8.3556 10.96 8.26804C11.0004 8.18048 11.0213 8.08518 11.0213 7.98876C11.0213 7.89233 11.0004 7.79703 10.96 7.70948C10.9196 7.62192 10.8607 7.54415 10.7873 7.48156L6.11677 3.48158C5.99878 3.37678 5.84745 3.31735 5.68969 3.31364Z" fill="#082133"/>
</svg>
