<svg width="25" height="25" viewBox="0 0 25 25" fill="none" xmlns="http://www.w3.org/2000/svg">
<rect x="24.1947" y="24.1948" width="24.1947" height="24.1947" rx="12.0974" transform="rotate(-180 24.1947 24.1948)" fill="#082133"/>
<path d="M12.0977 8.065C12.2303 8.06424 12.3619 8.08967 12.4847 8.13983C12.6075 8.19 12.7192 8.26392 12.8134 8.35736L18.8621 14.406C19.0519 14.5959 19.1586 14.8533 19.1586 15.1218C19.1586 15.3903 19.0519 15.6477 18.8621 15.8376C18.6723 16.0274 18.4148 16.134 18.1463 16.134C17.8779 16.134 17.6204 16.0274 17.4306 15.8376L12.0977 10.4946L6.76475 15.8275C6.57189 15.9926 6.32382 16.0789 6.0701 16.0691C5.81639 16.0593 5.57571 15.9542 5.39617 15.7746C5.21663 15.5951 5.11145 15.3544 5.10165 15.1007C5.09185 14.847 5.17815 14.5989 5.34331 14.406L11.392 8.35736C11.5798 8.17111 11.8332 8.06612 12.0977 8.065Z" fill="#FAF5EB"/>
</svg>
