<svg width="20" height="20" viewBox="0 0 20 20" fill="none" xmlns="http://www.w3.org/2000/svg">
<g clip-path="url(#clip0_6013_40858)">
<path d="M11.436 16.495H10.8389V14.4767C10.8389 14.3938 10.806 14.3143 10.7474 14.2557C10.6888 14.1971 10.6093 14.1642 10.5264 14.1642C10.4435 14.1642 10.3641 14.1971 10.3054 14.2557C10.2468 14.3143 10.2139 14.3938 10.2139 14.4767V16.495H9.78642V14.495C9.78642 14.4121 9.7535 14.3326 9.69489 14.274C9.63629 14.2154 9.5568 14.1825 9.47392 14.1825C9.39104 14.1825 9.31155 14.2154 9.25295 14.274C9.19434 14.3326 9.16142 14.4121 9.16142 14.495V16.495H8.56434C8.25082 16.4953 7.95024 16.62 7.72855 16.8417C7.50686 17.0634 7.38217 17.364 7.38184 17.6775V17.8362C7.38184 17.9191 7.41476 17.9986 7.47337 18.0572C7.53197 18.1158 7.61146 18.1487 7.69434 18.1487H12.306C12.3889 18.1487 12.4684 18.1158 12.527 18.0572C12.5856 17.9986 12.6185 17.9191 12.6185 17.8362V17.6775C12.6182 17.364 12.4935 17.0634 12.2718 16.8417C12.0501 16.62 11.7495 16.4953 11.436 16.495ZM8.0285 17.5237C8.062 17.4075 8.13237 17.3052 8.22901 17.2324C8.32565 17.1596 8.44333 17.1201 8.56434 17.12H11.436C11.557 17.1201 11.6747 17.1596 11.7713 17.2324C11.868 17.3052 11.9383 17.4075 11.9718 17.5237H8.0285Z" fill="#141005"/>
<path d="M8.16367 4.81582C8.62826 4.81582 8.90576 4.27415 8.90576 3.75207C8.86879 3.27998 8.6981 2.82818 8.41367 2.44957C8.3852 2.41159 8.34846 2.3806 8.30622 2.35894C8.26399 2.33728 8.21738 2.32553 8.16992 2.32457C8.12216 2.32284 8.07466 2.33235 8.03124 2.35232C7.98782 2.37229 7.94969 2.40218 7.91992 2.43957C7.62297 2.81581 7.44847 3.27403 7.41992 3.75249C7.42117 4.34874 7.74742 4.81582 8.16367 4.81582ZM8.15867 3.25832C8.23143 3.41328 8.27291 3.58106 8.28076 3.75207C8.28601 3.89976 8.24509 4.04541 8.16367 4.16874C8.08198 4.04551 8.0409 3.89982 8.04617 3.75207C8.0506 3.58166 8.08884 3.41383 8.15867 3.25832Z" fill="#141005"/>
<path d="M11.8368 4.81582C12.2535 4.81582 12.5789 4.34874 12.5789 3.75207C12.5419 3.27998 12.3712 2.82818 12.0868 2.44957C12.0584 2.41154 12.0217 2.38049 11.9795 2.35876C11.9373 2.33704 11.8908 2.32523 11.8433 2.32423C11.7959 2.32322 11.7488 2.33305 11.7057 2.35297C11.6627 2.37288 11.6247 2.40236 11.5947 2.43916C11.2978 2.8154 11.1233 3.27362 11.0947 3.75207C11.0943 4.34874 11.4206 4.81582 11.8368 4.81582ZM11.8335 3.25832C11.9062 3.41328 11.9477 3.58107 11.9556 3.75207C11.9608 3.89975 11.9198 4.04539 11.8385 4.16874C11.7568 4.04552 11.7157 3.89982 11.721 3.75207C11.7254 3.58167 11.7636 3.41383 11.8335 3.25832Z" fill="#141005"/>
<path d="M9.98357 4.34292C10.4482 4.34292 10.7261 3.80126 10.7261 3.27876C10.689 2.80661 10.5182 2.3548 10.2336 1.97626C10.2051 1.93838 10.1684 1.90745 10.1263 1.8858C10.0841 1.86415 10.0376 1.85234 9.99023 1.85126C9.94292 1.85235 9.89633 1.86311 9.85333 1.88289C9.81034 1.90267 9.77185 1.93104 9.74023 1.96626C9.44334 2.34237 9.26884 2.80044 9.24023 3.27876C9.24107 3.80167 9.51898 4.34292 9.98357 4.34292ZM9.9794 2.78459C10.0521 2.9397 10.0934 3.10763 10.1011 3.27876C10.1063 3.42651 10.0653 3.5722 9.98357 3.69542C9.90188 3.5722 9.86079 3.42651 9.86607 3.27876C9.87049 3.10812 9.90902 2.9401 9.9794 2.78459Z" fill="#141005"/>
<path d="M14.5067 10.015H14.1854V9.49374C14.4322 9.42793 14.6502 9.28203 14.8051 9.07894C14.96 8.87585 15.0431 8.62707 15.0413 8.37166L15.0388 7.03041C15.0384 6.94771 15.0054 6.8685 14.9468 6.8101C14.8883 6.7517 14.809 6.71885 14.7263 6.71874L13.0159 6.72249C12.9748 6.72255 12.9341 6.7307 12.8962 6.74648C12.8583 6.76226 12.8238 6.78536 12.7949 6.81446C12.7659 6.84356 12.7429 6.87809 12.7273 6.91608C12.7117 6.95406 12.7037 6.99475 12.7038 7.03583V8.37499C12.7028 8.62995 12.7863 8.87804 12.9413 9.08047C13.0963 9.28289 13.314 9.42823 13.5604 9.49374V10.0137H10.2959V7.33333C10.7939 7.31095 11.2642 7.09768 11.6092 6.73778C11.9543 6.37788 12.1475 5.89897 12.1488 5.40041V5.31249C12.1488 5.22961 12.1159 5.15013 12.0572 5.09152C11.9986 5.03292 11.9192 4.99999 11.8363 4.99999C11.7534 4.99999 11.6739 5.03292 11.6153 5.09152C11.5567 5.15013 11.5238 5.22961 11.5238 5.31249V5.40041C11.5227 5.73337 11.3954 6.05353 11.1675 6.29627C10.9396 6.53902 10.6281 6.68628 10.2959 6.70833V4.84583C10.2959 4.80479 10.2878 4.76415 10.2721 4.72624C10.2564 4.68832 10.2333 4.65387 10.2043 4.62485C10.1753 4.59584 10.1409 4.57282 10.1029 4.55711C10.065 4.54141 10.0244 4.53333 9.98336 4.53333C9.94232 4.53333 9.90169 4.54141 9.86377 4.55711C9.82586 4.57282 9.79141 4.59584 9.76239 4.62485C9.73337 4.65387 9.71035 4.68832 9.69465 4.72624C9.67894 4.76415 9.67086 4.80479 9.67086 4.84583V6.70833C9.33863 6.68628 9.02713 6.53902 8.79923 6.29627C8.57133 6.05353 8.44401 5.73337 8.44294 5.40041V5.31249C8.44294 5.22961 8.41002 5.15013 8.35141 5.09152C8.29281 5.03292 8.21332 4.99999 8.13044 4.99999C8.04756 4.99999 7.96808 5.03292 7.90947 5.09152C7.85087 5.15013 7.81794 5.22961 7.81794 5.31249V5.40041C7.81926 5.89897 8.01247 6.37788 8.35747 6.73778C8.70248 7.09768 9.1728 7.31095 9.67086 7.33333V10.0137H6.44461V9.49374C6.69102 9.42754 6.90851 9.28147 7.063 9.07842C7.2175 8.87537 7.30027 8.6268 7.29836 8.37166L7.29544 7.03041C7.29539 6.98942 7.28726 6.94885 7.27153 6.91101C7.25579 6.87317 7.23276 6.8388 7.20374 6.80985C7.17472 6.78091 7.14029 6.75797 7.1024 6.74234C7.06452 6.72671 7.02393 6.71869 6.98294 6.71874L5.27211 6.72249C5.23107 6.7226 5.19046 6.73079 5.15258 6.7466C5.11471 6.7624 5.08032 6.78551 5.05138 6.81461C5.02244 6.84371 4.99951 6.87822 4.98391 6.91617C4.96831 6.95413 4.96033 6.99479 4.96044 7.03583L4.96294 8.37666C4.9622 8.63156 5.04589 8.87954 5.20094 9.08185C5.356 9.28417 5.57369 9.42945 5.82003 9.49499V10.015H5.49294C5.28099 10.0151 5.07774 10.0993 4.92782 10.2492C4.77791 10.399 4.69358 10.6022 4.69336 10.8142V12.8442C4.69384 13.0732 4.76297 13.2968 4.89182 13.4861C5.02068 13.6754 5.20334 13.8217 5.41621 13.9061C5.62908 13.9905 5.86237 14.0092 6.08595 13.9597C6.30954 13.9102 6.51313 13.7947 6.67044 13.6283C6.77752 13.7419 6.90667 13.8323 7.04997 13.8942C7.19328 13.956 7.3477 13.9879 7.50378 13.9879C7.65985 13.9879 7.81428 13.956 7.95758 13.8942C8.10088 13.8323 8.23003 13.7419 8.33711 13.6283C8.44415 13.7419 8.5733 13.8324 8.7166 13.8943C8.85991 13.9562 9.01435 13.9881 9.17044 13.9881C9.32653 13.9881 9.48098 13.9562 9.62428 13.8943C9.76759 13.8324 9.89673 13.7419 10.0038 13.6283C10.1108 13.7419 10.24 13.8324 10.3833 13.8943C10.5266 13.9562 10.681 13.9881 10.8371 13.9881C10.9932 13.9881 11.1476 13.9562 11.2909 13.8943C11.4343 13.8324 11.5634 13.7419 11.6704 13.6283C11.7775 13.7419 11.9067 13.8323 12.05 13.8942C12.1933 13.956 12.3477 13.9879 12.5038 13.9879C12.6598 13.9879 12.8143 13.956 12.9576 13.8942C13.1009 13.8323 13.23 13.7419 13.3371 13.6283C13.4944 13.7947 13.698 13.9102 13.9216 13.9597C14.1452 14.0092 14.3785 13.9905 14.5913 13.9061C14.8042 13.8217 14.9869 13.6754 15.1157 13.4861C15.2446 13.2968 15.3137 13.0732 15.3142 12.8442V10.8142C15.3141 10.7085 15.2931 10.604 15.2523 10.5065C15.2116 10.4091 15.152 10.3206 15.0769 10.2463C15.0019 10.172 14.9128 10.1134 14.815 10.0736C14.7171 10.0339 14.6123 10.014 14.5067 10.015ZM13.3288 8.37499V7.34666L14.4142 7.34458V8.37333C14.4142 8.51698 14.3571 8.65476 14.2555 8.75634C14.154 8.85792 14.0162 8.91499 13.8725 8.91499C13.7294 8.91224 13.5924 8.85589 13.4888 8.75708C13.4382 8.70712 13.398 8.64763 13.3705 8.58205C13.3431 8.51647 13.3289 8.44609 13.3288 8.37499ZM5.58753 8.37499V7.34666L6.67336 7.34458V8.37333C6.67336 8.44446 6.65935 8.51489 6.63213 8.58061C6.60491 8.64633 6.56501 8.70604 6.51471 8.75634C6.46441 8.80664 6.4047 8.84654 6.33898 8.87376C6.27326 8.90098 6.20283 8.91499 6.13169 8.91499C6.06056 8.91499 5.99012 8.90098 5.92441 8.87376C5.85869 8.84654 5.79897 8.80664 5.74868 8.75634C5.69838 8.70604 5.65848 8.64633 5.63126 8.58061C5.60404 8.51489 5.59003 8.44446 5.59003 8.37333L5.58753 8.37499ZM14.1613 13.3621C14.0237 13.3622 13.8918 13.3077 13.7943 13.2106C13.6969 13.1135 13.642 12.9817 13.6417 12.8442C13.6417 12.7613 13.6088 12.6818 13.5502 12.6232C13.4916 12.5646 13.4121 12.5317 13.3292 12.5317C13.2463 12.5317 13.1668 12.5646 13.1082 12.6232C13.0496 12.6818 13.0167 12.7613 13.0167 12.8442C13.0167 12.9823 12.9618 13.1148 12.8641 13.2124C12.7665 13.3101 12.634 13.365 12.4959 13.365C12.3577 13.365 12.2253 13.3101 12.1276 13.2124C12.0299 13.1148 11.975 12.9823 11.975 12.8442C11.975 12.7613 11.9421 12.6818 11.8835 12.6232C11.8249 12.5646 11.7454 12.5317 11.6625 12.5317C11.5796 12.5317 11.5002 12.5646 11.4416 12.6232C11.383 12.6818 11.35 12.7613 11.35 12.8442C11.35 12.9823 11.2952 13.1148 11.1975 13.2124C11.0998 13.3101 10.9673 13.365 10.8292 13.365C10.6911 13.365 10.5586 13.3101 10.4609 13.2124C10.3632 13.1148 10.3084 12.9823 10.3084 12.8442C10.3084 12.7613 10.2754 12.6818 10.2168 12.6232C10.1582 12.5646 10.0787 12.5317 9.99586 12.5317C9.91298 12.5317 9.83349 12.5646 9.77489 12.6232C9.71628 12.6818 9.68336 12.7613 9.68336 12.8442C9.68336 12.9823 9.62849 13.1148 9.53081 13.2124C9.43314 13.3101 9.30066 13.365 9.16253 13.365C9.02439 13.365 8.89192 13.3101 8.79424 13.2124C8.69657 13.1148 8.64169 12.9823 8.64169 12.8442C8.64169 12.7613 8.60877 12.6818 8.55016 12.6232C8.49156 12.5646 8.41207 12.5317 8.32919 12.5317C8.24631 12.5317 8.16683 12.5646 8.10822 12.6232C8.04962 12.6818 8.01669 12.7613 8.01669 12.8442C8.01669 12.9823 7.96182 13.1148 7.86414 13.2124C7.76647 13.3101 7.63399 13.365 7.49586 13.365C7.35773 13.365 7.22525 13.3101 7.12757 13.2124C7.0299 13.1148 6.97503 12.9823 6.97503 12.8442C6.97503 12.7613 6.9421 12.6818 6.8835 12.6232C6.82489 12.5646 6.74541 12.5317 6.66253 12.5317C6.57965 12.5317 6.50016 12.5646 6.44155 12.6232C6.38295 12.6818 6.35003 12.7613 6.35003 12.8442C6.35003 12.9823 6.29515 13.1148 6.19748 13.2124C6.0998 13.3101 5.96733 13.365 5.82919 13.365C5.69106 13.365 5.55858 13.3101 5.46091 13.2124C5.36323 13.1148 5.30836 12.9823 5.30836 12.8442V10.8142C5.30847 10.7679 5.32691 10.7236 5.35964 10.691C5.39237 10.6583 5.43671 10.64 5.48294 10.64H6.10794C6.11378 10.64 6.11836 10.6433 6.12419 10.6433C6.13003 10.6433 6.13461 10.6404 6.14003 10.64H13.8484C13.8538 10.64 13.8588 10.6433 13.8642 10.6433C13.8696 10.6433 13.875 10.6404 13.8804 10.64H14.4979C14.5442 10.64 14.5885 10.6583 14.6212 10.691C14.654 10.7236 14.6724 10.7679 14.6725 10.8142V11.3354H5.88086C5.79798 11.3354 5.71849 11.3683 5.65989 11.4269C5.60128 11.4855 5.56836 11.565 5.56836 11.6479C5.56836 11.7308 5.60128 11.8103 5.65989 11.8689C5.71849 11.9275 5.79798 11.9604 5.88086 11.9604H14.6725V12.8442C14.6721 12.9802 14.6183 13.1107 14.5227 13.2076C14.4271 13.3044 14.2973 13.3599 14.1613 13.3621Z" fill="#141005"/>
<path d="M4.1625 12.7008H0.625V8.87082C0.625 8.78794 0.592076 8.70845 0.533471 8.64985C0.474866 8.59124 0.39538 8.55832 0.3125 8.55832C0.22962 8.55832 0.150134 8.59124 0.0915291 8.64985C0.032924 8.70845 0 8.78794 0 8.87082L0 17.6508C0 17.7337 0.032924 17.8132 0.0915291 17.8718C0.150134 17.9304 0.22962 17.9633 0.3125 17.9633C0.39538 17.9633 0.474866 17.9304 0.533471 17.8718C0.592076 17.8132 0.625 17.7337 0.625 17.6508V16.9167H3.85V17.8333C3.85 17.9162 3.88292 17.9957 3.94153 18.0543C4.00013 18.1129 4.07962 18.1458 4.1625 18.1458C4.24538 18.1458 4.32487 18.1129 4.38347 18.0543C4.44208 17.9957 4.475 17.9162 4.475 17.8333V13.0133C4.475 12.9304 4.44208 12.851 4.38347 12.7923C4.32487 12.7337 4.24538 12.7008 4.1625 12.7008ZM0.625 16.2917V14.5662H1.04875C1.13163 14.5662 1.21112 14.5333 1.26972 14.4747C1.32833 14.4161 1.36125 14.3366 1.36125 14.2537C1.36125 14.1709 1.32833 14.0914 1.26972 14.0328C1.21112 13.9742 1.13163 13.9412 1.04875 13.9412H0.625V13.3258H3.85V13.9412H1.90542C1.82254 13.9412 1.74305 13.9742 1.68445 14.0328C1.62584 14.0914 1.59292 14.1709 1.59292 14.2537C1.59292 14.3366 1.62584 14.4161 1.68445 14.4747C1.74305 14.5333 1.82254 14.5662 1.90542 14.5662H3.85V16.2917H0.625Z" fill="#141005"/>
<path d="M19.6879 8.55832C19.605 8.55832 19.5255 8.59124 19.4669 8.64985C19.4083 8.70845 19.3754 8.78794 19.3754 8.87082V12.7008H15.8379C15.755 12.7008 15.6755 12.7337 15.6169 12.7923C15.5583 12.851 15.5254 12.9304 15.5254 13.0133V17.8362C15.5254 17.9191 15.5583 17.9986 15.6169 18.0572C15.6755 18.1158 15.755 18.1487 15.8379 18.1487C15.9208 18.1487 16.0003 18.1158 16.0589 18.0572C16.1175 17.9986 16.1504 17.9191 16.1504 17.8362V16.9167H19.3754V17.6487C19.3754 17.7316 19.4083 17.8111 19.4669 17.8697C19.5255 17.9283 19.605 17.9612 19.6879 17.9612C19.7708 17.9612 19.8503 17.9283 19.9089 17.8697C19.9675 17.8111 20.0004 17.7316 20.0004 17.6487V8.87082C20.0004 8.78794 19.9675 8.70845 19.9089 8.64985C19.8503 8.59124 19.7708 8.55832 19.6879 8.55832ZM16.1504 16.2917V14.5662H18.095C18.1779 14.5662 18.2573 14.5333 18.3159 14.4747C18.3746 14.4161 18.4075 14.3366 18.4075 14.2537C18.4075 14.1709 18.3746 14.0914 18.3159 14.0328C18.2573 13.9742 18.1779 13.9412 18.095 13.9412H16.1504V13.3258H19.3754V13.9412H18.9516C18.8688 13.9412 18.7893 13.9742 18.7307 14.0328C18.6721 14.0914 18.6391 14.1709 18.6391 14.2537C18.6391 14.3366 18.6721 14.4161 18.7307 14.4747C18.7893 14.5333 18.8688 14.5662 18.9516 14.5662H19.3754V16.2917H16.1504Z" fill="#141005"/>
</g>
<defs>
<clipPath id="clip0_6013_40858">
<rect width="20" height="20" fill="white"/>
</clipPath>
</defs>
</svg>
