<svg width="14" height="14" viewBox="0 0 14 14" fill="none" xmlns="http://www.w3.org/2000/svg">
<path d="M5.20912 9.48645L3.50891 10.3753C3.09724 10.5906 2.79724 10.9718 2.68641 11.4181L2.11787 13.53C2.09054 13.6317 2.16733 13.7316 2.27245 13.7316C2.34308 13.7316 2.40766 13.6846 2.42703 13.6131L2.9962 11.4982C3.08578 11.1377 3.32662 10.8318 3.65724 10.6588L5.35745 9.76999C5.43578 9.72906 5.46599 9.63239 5.42516 9.55406C5.38412 9.47583 5.28787 9.44562 5.20912 9.48645Z" fill="#141005"/>
<path d="M12.3397 13.7249C12.4245 13.6996 12.4724 13.6104 12.4472 13.5257L11.8162 11.4213C11.7049 10.9719 11.4049 10.5906 10.993 10.3754L9.29282 9.48654C9.21407 9.4455 9.11782 9.47592 9.07678 9.55415C9.03595 9.63248 9.06616 9.72915 9.14449 9.77009L10.8447 10.6589C11.1755 10.8319 11.4164 11.1377 11.5076 11.5057L12.1405 13.6176C12.1662 13.7031 12.2562 13.75 12.3397 13.7249Z" fill="#141005"/>
<path d="M5.58825 10.1382C5.58825 10.3766 5.90867 10.4611 6.18784 10.5081C6.7447 10.6021 8.89159 10.7036 8.89159 10.1382C8.89048 9.23156 8.89406 8.98974 8.88867 8.96135C8.872 8.87458 8.78638 8.81823 8.7018 8.83427C8.66448 8.84142 7.82082 9.00978 7.11648 9.69234C6.46001 9.18975 5.78995 8.87827 5.81409 8.88926C5.70764 8.8408 5.59116 8.92313 5.58896 9.03082C5.58837 9.05937 5.58734 10.1601 5.58825 10.1382ZM5.90825 10.102V9.2978C6.22992 9.4722 6.82822 9.82523 7.29716 10.2634C6.6887 10.267 6.06527 10.2135 5.90825 10.102ZM8.57159 9.20009V10.102C8.46208 10.1798 8.12452 10.2291 7.72454 10.2508C7.7179 10.238 7.71195 10.2248 7.70159 10.2137C7.59743 10.1026 7.48362 9.99659 7.36596 9.89547C7.80519 9.48189 8.30555 9.28324 8.57159 9.20009Z" fill="#141005"/>
<path d="M5.15771 11.8295V13.6435C5.15771 13.7318 5.22938 13.8035 5.31771 13.8035C5.40605 13.8035 5.47771 13.7318 5.47771 13.6435C5.48911 11.7611 5.45089 11.8128 5.50751 11.7714L6.49605 11.0533C6.56772 11.0013 6.58355 10.9013 6.53147 10.8297C6.47959 10.7582 6.37959 10.7422 6.30813 10.7943L5.31959 11.5124C5.21813 11.5861 5.15771 11.7046 5.15771 11.8295Z" fill="#141005"/>
<path d="M6.47268 12.2997C6.65997 12.2997 6.81226 12.1479 6.81226 11.9612C6.81226 11.7744 6.65997 11.6226 6.47268 11.6226C6.28559 11.6226 6.1333 11.7744 6.1333 11.9612C6.1333 12.1479 6.28559 12.2997 6.47268 12.2997Z" fill="#141005"/>
<path d="M8.19021 12.2997C8.37729 12.2997 8.52958 12.1479 8.52958 11.9612C8.52958 11.7744 8.37729 11.6226 8.19021 11.6226C8.00312 11.6226 7.85083 11.7744 7.85083 11.9612C7.85083 12.1479 8.00312 12.2997 8.19021 12.2997Z" fill="#141005"/>
<path d="M6.47268 13.7318C6.65997 13.7318 6.81226 13.5799 6.81226 13.3932C6.81226 13.2066 6.65997 13.0547 6.47268 13.0547C6.28559 13.0547 6.1333 13.2066 6.1333 13.3932C6.1333 13.5799 6.28559 13.7318 6.47268 13.7318Z" fill="#141005"/>
<path d="M8.19024 13.7318C8.3777 13.7318 8.52966 13.5802 8.52966 13.3932C8.52966 13.2063 8.3777 13.0547 8.19024 13.0547C8.00279 13.0547 7.85083 13.2063 7.85083 13.3932C7.85083 13.5802 8.00279 13.7318 8.19024 13.7318Z" fill="#141005"/>
<path d="M8.06348 3.44922H6.22494C6.13661 3.44922 6.06494 3.52089 6.06494 3.60922C6.06494 3.69755 6.13661 3.76922 6.22494 3.76922H8.06348C8.15182 3.76922 8.22348 3.69755 8.22348 3.60922C8.22348 3.52089 8.15182 3.44922 8.06348 3.44922Z" fill="#141005"/>
<path d="M12.4558 4.68926L12.1949 5.05608C12.1514 5.03902 12.109 5.02488 12.0683 5.01395C11.7574 4.9304 11.616 5.05332 11.5587 5.13353L9.34263 8.25103C9.29138 8.32301 9.30826 8.4229 9.38034 8.47415C9.45242 8.5253 9.55221 8.50811 9.60346 8.43645L11.8195 5.31895C11.8276 5.3079 11.8789 5.29468 11.9853 5.32301C12.2474 5.39332 12.6098 5.65088 12.7622 5.8752C12.8247 5.96697 12.8287 6.01957 12.8208 6.03061L10.6212 9.12488C10.5699 9.19686 10.5868 9.29676 10.6589 9.34801C10.7305 9.39896 10.8305 9.38263 10.882 9.3103L13.0816 6.21603C13.215 6.02837 13.1218 5.79768 12.9449 5.59044L13.2062 5.2228C13.4714 5.24415 13.7091 5.14134 13.851 4.94197C14.0841 4.61405 13.9726 4.13332 13.6028 3.8704C13.233 3.60738 12.7422 3.6604 12.5091 3.98811C12.3674 4.18759 12.3493 4.44853 12.4558 4.68926ZM12.7728 4.7954C12.8095 4.74374 12.8124 4.6752 12.7799 4.62072C12.6876 4.46613 12.6839 4.29478 12.7699 4.17353C12.901 3.98947 13.1912 3.97061 13.4174 4.13124C13.6435 4.29197 13.721 4.57249 13.5901 4.75655C13.5039 4.8778 13.3405 4.93009 13.1645 4.89415C13.1016 4.88103 13.0387 4.90655 13.0018 4.95811L12.712 5.36581C12.6274 5.29707 12.5655 5.2545 12.4829 5.20333L12.7728 4.7954Z" fill="#141005"/>
<path d="M0.0875684 5.95397L1.44236 7.32783C1.78861 7.67902 2.26049 7.71674 2.70989 7.52802L4.2559 9.40814C4.28757 9.44658 4.3334 9.46647 4.37944 9.46647C4.41528 9.46647 4.45132 9.4546 4.48111 9.43001C4.54924 9.37397 4.55924 9.27314 4.50299 9.20481L2.99634 7.37257C3.0943 7.30631 3.15526 7.25594 3.23791 7.17392L4.74444 9.00626C4.77611 9.04481 4.82194 9.0647 4.86799 9.0647C4.90382 9.0647 4.93986 9.05283 4.96965 9.02824C5.03778 8.9722 5.04778 8.87137 4.99153 8.80314L3.44581 6.92314C3.69685 6.54991 3.78813 6.07206 3.49424 5.64064L2.40798 4.04606C2.3041 3.89312 2.07144 3.85828 1.89444 4.00366L0.145277 5.44189C-0.0199007 5.57788 -0.0512317 5.8128 0.0875684 5.95397ZM0.34861 5.68897L2.09757 4.25085C2.12215 4.23085 2.14465 4.23001 2.1434 4.22616L3.22965 5.82085C3.51819 6.24418 3.28153 6.73439 2.91923 7.03241C2.55694 7.33033 2.03007 7.46804 1.67028 7.10304L0.320068 5.7371C0.319027 5.73126 0.324235 5.70908 0.34861 5.68897Z" fill="#141005"/>
<path d="M2.15504 6.81227C2.22317 6.75623 2.23317 6.65539 2.17692 6.58706L1.369 5.60467C1.31254 5.53633 1.21192 5.52685 1.14379 5.58279C1.07567 5.63883 1.06567 5.73967 1.12192 5.808L1.92983 6.79039C1.98609 6.85868 2.08677 6.86836 2.15504 6.81227Z" fill="#141005"/>
<path d="M2.56265 6.25133C2.6189 6.31962 2.71959 6.3293 2.78785 6.27321C2.85598 6.21717 2.86598 6.11633 2.80973 6.048L2.00181 5.0656C1.94535 4.99727 1.84452 4.98779 1.7766 5.04373C1.70848 5.09977 1.69848 5.2006 1.75473 5.26894L2.56265 6.25133Z" fill="#141005"/>
<path d="M10.1773 2.36188C10.1773 1.62698 9.61817 1.02917 8.93088 1.02917C8.81921 1.02917 8.70942 1.045 8.60275 1.07646C8.36983 0.434583 7.78838 0 7.13525 0C6.45754 0 5.85442 0.474583 5.64192 1.15135C4.86863 0.952044 4.11108 1.58573 4.11108 2.4475C4.11108 3.01279 4.44249 3.49572 4.90801 3.6891C4.85745 3.80859 4.8876 3.8464 4.87858 4.53C4.87858 4.69201 4.98258 4.82893 5.12675 4.88096C5.10693 5.11344 5.14033 5.35005 5.22317 5.56823C4.99635 5.66453 4.95214 5.95349 4.97671 6.19844C5.00826 6.51579 5.22074 6.79254 5.48504 6.96323C5.55764 7.95037 6.33346 8.65292 7.12858 8.65292C7.2515 8.65292 7.38025 8.63385 7.50963 8.58615C7.96442 8.41844 8.264 8.20833 8.45192 7.92542L8.4765 7.88708C8.6613 7.58372 8.78102 7.47451 8.85275 6.89594C9.10317 6.77271 9.2565 6.49448 9.27879 6.11458L9.28108 6.07979C9.29908 5.82217 9.28367 5.67453 9.04733 5.5925C9.03942 5.58979 9.029 5.58625 9.02067 5.58302C9.03124 5.51148 9.18038 5.33809 9.16942 4.9799C9.16838 4.94605 9.15388 4.91568 9.13452 4.88939C9.29272 4.84564 9.40983 4.70194 9.40983 4.53C9.39722 3.84113 9.43772 3.80822 9.37078 3.67135C9.83365 3.45363 10.1773 2.93477 10.1773 2.36188ZM8.95921 6.09573C8.94942 6.26458 8.89733 6.55833 8.65858 6.62948C8.5965 6.64802 8.55171 6.70229 8.54525 6.76688C8.48601 7.35749 8.37058 7.44606 8.20358 7.72C8.18169 7.74222 8.0641 8.0406 7.39879 8.28594C6.93629 8.45667 6.4415 8.10271 6.429 8.09427C6.40442 8.07812 5.82608 7.69 5.80025 6.86438C5.79838 6.8074 5.7665 6.75573 5.71629 6.72865C5.51111 6.61741 5.3188 6.40496 5.29504 6.16667C5.28088 6.0249 5.30983 5.89479 5.33504 5.87104C5.34942 5.8576 5.37942 5.85479 5.39629 5.86458C5.53827 5.94565 5.69697 5.7855 5.61358 5.64417C5.48215 5.42279 5.42308 5.16029 5.44581 4.90438H8.87448C8.85924 4.92979 8.84844 4.95809 8.84942 4.9899C8.85991 5.32519 8.68314 5.39816 8.7015 5.61719C8.71796 5.81729 8.87546 5.87177 8.94275 5.895C8.949 5.89719 8.95692 5.8999 8.96379 5.9025C8.96861 5.93592 8.96784 5.97281 8.95921 6.09573ZM8.89921 3.46021C8.81088 3.46021 8.73921 3.53188 8.73921 3.62021C8.73921 3.70854 8.81088 3.78021 8.89921 3.78021C8.9345 3.78021 8.96938 3.77736 9.00414 3.77388C9.01461 3.77604 9.02435 3.78021 9.03546 3.78021C9.06546 3.78021 9.08983 3.80458 9.08983 3.83458V4.53C9.08983 4.56 9.06546 4.58437 9.03546 4.58437H5.25275C5.22296 4.58437 5.19858 4.56 5.19858 4.53V3.83458C5.19858 3.80458 5.22296 3.78021 5.25275 3.78021C5.2606 3.78021 5.26735 3.77682 5.2749 3.77573C5.30235 3.77767 5.32965 3.78021 5.35754 3.78021C5.44588 3.78021 5.51754 3.70854 5.51754 3.62021C5.51754 3.53188 5.44588 3.46021 5.35754 3.46021C4.84671 3.46021 4.43108 3.00594 4.43108 2.4475C4.43108 1.75178 5.07062 1.24199 5.69108 1.50531C5.7853 1.54509 5.89028 1.4881 5.91025 1.39C6.03692 0.77 6.55192 0.32 7.13525 0.32C7.69796 0.32 8.19525 0.733438 8.34463 1.32531C8.36899 1.4219 8.47635 1.47422 8.56754 1.43104C8.68379 1.37677 8.80608 1.34917 8.93088 1.34917C9.44171 1.34917 9.85733 1.80344 9.85733 2.36188C9.85733 2.93667 9.40067 3.46021 8.89921 3.46021Z" fill="#141005"/>
</svg>
