<svg width="16" height="16" viewBox="0 0 16 16" fill="none" xmlns="http://www.w3.org/2000/svg">
<g clip-path="url(#clip0_1741_8203)">
<path d="M5.93603 9.59082C5.68884 9.59551 5.6904 9.96176 5.93603 9.96582C6.18321 9.96082 6.18165 9.59457 5.93603 9.59082Z" fill="#141005"/>
<path d="M5.9359 10.2861C5.68934 10.2902 5.68934 10.6568 5.9359 10.6611C6.18246 10.6568 6.18215 10.2902 5.9359 10.2861Z" fill="#141005"/>
<path d="M5.87353 9.27051C6.12009 9.26645 6.12009 8.89988 5.87353 8.89551C5.62696 8.89988 5.62728 9.26645 5.87353 9.27051Z" fill="#141005"/>
<path d="M5.87353 10.981C5.62696 10.9853 5.62728 11.3519 5.87353 11.356C6.12009 11.3519 6.12009 10.9853 5.87353 10.981Z" fill="#141005"/>
<path d="M5.92147 3.33101C5.6946 2.88101 5.3571 2.4857 4.96303 2.20789C4.8796 1.71382 4.78428 1.20101 4.41928 0.781948C4.10303 0.384761 3.17553 0.240386 2.40647 0.501011C1.75897 0.707886 1.17272 1.23257 0.798347 1.9407C0.477409 2.53382 0.0858466 3.95101 0.246472 4.45476C0.385222 4.75382 0.849284 5.06789 1.20428 5.05914C1.47272 5.05039 1.69303 4.88507 1.85491 4.74226C1.99272 4.62164 2.15178 4.52351 2.29053 4.39664C2.49522 4.61726 2.69647 4.84289 2.89241 5.07101C2.45678 5.25414 2.35991 5.67539 2.22053 6.03945C2.09678 6.41789 1.87928 7.02757 1.4146 6.71914C1.23303 6.56664 0.992409 6.83476 1.16491 6.99882C1.73835 7.48976 2.64397 7.4607 3.21991 7.02601C3.46647 6.82726 3.68928 6.44601 3.7496 6.12945C3.96053 6.38476 4.03835 6.53351 3.92897 6.85039C3.89085 6.99226 3.8521 7.1382 3.8146 7.27664C3.4896 7.37632 2.69991 7.62226 2.5721 7.69632C2.44616 7.76914 2.38085 7.95601 2.0346 9.23289C1.90147 9.72382 1.76366 10.2313 1.65147 10.5682C1.47585 11.1448 1.0396 11.9098 1.54022 12.2329C1.61178 12.2866 1.79085 12.3907 2.52428 12.7148L2.02928 13.9244C1.97491 14.0579 2.0246 14.2082 2.14803 14.2819L2.50491 14.4954C2.44928 14.6213 2.33616 14.8032 2.49366 14.9054C2.95022 15.2113 3.50303 15.4466 4.18303 15.6248C4.26366 15.6463 4.35178 15.6104 4.39366 15.5357C4.70866 14.9798 4.96085 14.4019 5.14428 13.8157C5.29053 13.8588 5.39397 13.7088 5.48803 13.6216L5.97053 13.9163C5.95053 14.4026 6.51022 14.9566 7.04928 14.6426C7.53147 14.3629 7.70553 13.8829 7.82991 13.1991C7.89647 12.8535 7.64928 12.5448 7.31335 12.4851C7.42585 12.0776 7.49835 11.6273 7.53272 11.1213C8.05085 11.496 8.67053 11.8673 9.41678 12.2494C9.48553 12.2848 9.56991 12.2741 9.62772 12.2219C9.65116 12.201 10.2071 11.6948 10.7593 10.7413C11.2927 9.82132 11.8468 9.03539 11.8524 9.02757C11.9852 8.81914 11.7296 8.72414 11.589 8.63382C11.798 8.34976 12.0202 8.06882 12.2518 7.79664C12.7462 7.30851 13.5787 7.69382 14.1418 6.64601H15.613C15.8593 6.64195 15.8596 6.27507 15.613 6.27101H15.5008C15.4805 5.97976 15.4155 5.68226 15.1937 5.47257C14.7321 5.0107 13.8546 4.6757 12.8258 4.56382C12.6552 3.78945 11.4593 3.78976 11.2893 4.56382C10.2605 4.67539 9.38303 5.01039 8.92147 5.47226C8.6996 5.68101 8.63397 5.97976 8.61428 6.2707C8.4696 6.26007 8.32366 6.28226 8.31428 6.4582C8.31428 6.56164 8.39835 6.6457 8.50178 6.6457H10.633C10.8233 7.02382 10.7202 7.43226 10.5462 7.73726C10.4696 7.60351 10.2852 7.55195 10.1924 7.6982L8.92428 9.7532C8.56241 9.40632 8.14585 8.97039 7.9346 8.6182C7.71022 8.26007 7.3721 7.58726 7.17553 7.5057C7.0396 7.42539 6.47991 7.33414 6.06335 7.27507C6.08272 7.11507 6.11053 6.96914 6.12366 6.80164C6.39803 6.79695 6.8746 6.7932 7.04897 6.49851C7.08897 6.40507 7.06428 6.31789 7.05241 6.27664C6.9846 6.0357 6.90553 5.79414 6.81678 5.55664C7.70022 4.78101 6.37397 5.1057 6.14991 3.95507C6.09803 3.73976 6.02272 3.53132 5.92085 3.32976L5.92147 3.33101ZM12.058 4.35257C12.2093 4.35257 12.3415 4.42507 12.4121 4.53257C12.1771 4.52132 11.9387 4.52132 11.7037 4.53257C11.7743 4.42539 11.9065 4.35257 12.0577 4.35257H12.058ZM9.01335 6.09257C9.22085 5.13539 11.4146 4.79726 12.6377 4.92289C13.8271 5.02414 14.6008 5.41039 14.9283 5.7382C15.078 5.87445 15.1077 6.08226 15.123 6.27164H8.9921L9.01335 6.09257ZM2.28366 3.93601C2.22928 3.9382 2.17866 3.96414 2.14491 4.00664C2.06053 4.11289 1.94803 4.19664 1.82897 4.28539C1.63147 4.41445 1.4346 4.67132 1.1921 4.68414C0.988347 4.68195 0.700534 4.48664 0.592722 4.3107C0.563659 4.24007 0.573659 4.14351 0.588659 4.03351C0.665534 3.47101 0.796784 2.74445 1.1296 2.11601C1.45866 1.49414 1.96585 1.03539 2.52053 0.858198C3.14585 0.646011 3.92366 0.748823 4.14866 1.04132C4.4321 1.37445 4.51303 1.81539 4.58491 2.2082C3.63116 2.70757 3.01335 3.23914 2.64647 3.87414C2.57241 3.99445 2.66897 4.15882 2.80866 4.15539C2.87335 4.15539 2.93647 4.12164 2.97116 4.06164C3.30272 3.48789 3.87647 3.00039 4.77272 2.5332C5.05366 2.73789 5.30741 3.01945 5.49522 3.33382C4.58491 3.6807 3.8196 4.19726 3.21522 4.87226C2.96085 4.57445 2.69741 4.28007 2.42803 3.99445C2.39085 3.95476 2.33866 3.93351 2.28366 3.9357V3.93601ZM3.2096 6.46789C2.99647 6.84789 2.54772 6.99132 2.13835 6.98414C2.59741 6.63257 2.59803 5.36414 3.17147 5.40226C3.24522 5.49101 3.31741 5.57976 3.38772 5.66726C3.43616 5.93257 3.37491 6.20851 3.20991 6.46789H3.2096ZM3.70866 5.4682C3.62835 5.36789 3.5446 5.26539 3.45928 5.16226C4.03678 4.50382 4.77741 4.0032 5.66491 3.67101C5.77428 3.91664 5.79553 4.16851 5.90553 4.41757C6.0646 4.76976 6.36928 5.00726 6.65491 5.1957C6.55835 5.31164 6.34585 5.37976 6.41772 5.5632C6.51803 5.81882 6.60678 6.08101 6.68178 6.34289C6.4921 6.43382 6.24647 6.43007 6.02772 6.42695C5.88116 6.41257 5.74866 6.53851 5.75553 6.68632C5.74616 6.92539 5.69553 7.13007 5.67835 7.3707C5.65272 7.64601 5.33178 7.82132 4.97866 7.80789C4.49366 7.80789 4.25397 7.57945 4.15678 7.44851C4.49272 6.29695 4.42147 6.38539 3.70866 5.46851V5.4682ZM2.86772 12.8648C2.94366 12.8976 3.02303 12.9319 3.10616 12.9673C2.9796 13.3357 2.83053 13.7244 2.65335 14.1469L2.40397 13.9979L2.86772 12.8648ZM4.13803 15.2238C3.62647 15.0798 3.19741 14.9001 2.83428 14.6782C3.30928 13.5832 3.7071 12.5216 3.90678 11.4379C4.29178 11.5307 4.69522 11.676 5.13085 11.8785C5.04866 13.0588 4.71053 14.1744 4.13803 15.2238ZM5.65303 12.3935C5.56178 12.7929 5.45241 13.0638 5.2946 13.2707C5.37616 12.9301 5.43678 12.5838 5.47491 12.236C5.54241 12.2523 5.61022 12.2676 5.67741 12.2826C5.66928 12.3207 5.66116 12.3579 5.65303 12.3938V12.3935ZM7.46085 13.1319C7.35272 13.7257 7.21991 14.1101 6.86085 14.3182C6.75178 14.3813 6.6121 14.3663 6.52116 14.2813C6.21335 14.0126 6.45928 13.7916 6.25897 13.6532L5.7121 13.3191C5.82022 13.1341 5.90647 12.9138 5.97928 12.636C6.34866 12.6613 6.70272 12.7157 7.03366 12.7982C7.2121 12.846 7.5046 12.8785 7.46053 13.1316L7.46085 13.1319ZM10.4349 10.5535C10.0421 11.2316 9.64241 11.6751 9.46772 11.8541C8.6946 11.4516 8.06647 11.0629 7.55303 10.6694C7.56335 10.2376 7.54928 9.81257 7.51928 9.36945C7.5121 9.26601 7.42272 9.1882 7.31928 9.19507C7.21585 9.20226 7.13803 9.29164 7.14491 9.39507C7.16053 9.62351 7.17116 9.84695 7.17678 10.0598C7.20272 10.8323 7.13772 11.7451 6.94928 12.3938C6.66647 12.3326 6.3696 12.2901 6.06303 12.2666C6.1046 12.1432 6.0846 11.9826 5.93428 11.9535C5.79366 11.9251 5.65053 11.8929 5.50772 11.8582C5.52241 11.7588 5.51147 11.6404 5.40678 11.5944C4.82553 11.3144 4.2971 11.1294 3.79085 11.0285C3.67335 11.0026 3.56616 11.1016 3.56335 11.2179C3.51772 11.1991 3.47178 11.1801 3.42678 11.161C3.63553 10.6419 3.80522 10.0663 3.94428 9.40757C3.96553 9.30632 3.90085 9.20664 3.7996 9.18539C3.69835 9.16382 3.59897 9.22882 3.57741 9.33007C3.42803 10.0382 3.24241 10.6454 3.01053 11.1857C2.91178 11.4566 3.32241 11.4973 3.49366 11.5944C3.4271 11.9119 3.33647 12.2523 3.22397 12.6098C3.08647 12.5507 2.95835 12.4954 2.84178 12.4444C2.01803 12.0841 1.81366 11.9694 1.76522 11.9329C1.52428 11.8513 1.88366 11.0869 2.0071 10.6866C2.21678 10.086 2.58397 8.51914 2.7896 8.00757C2.92647 7.95101 3.39241 7.79945 3.84678 7.65914C4.16866 8.14539 4.99147 8.31445 5.53085 8.07945C5.73085 8.39695 6.00303 8.68414 6.35835 8.95257C6.55303 9.38132 6.39928 11.3119 6.20022 11.6573C6.14741 11.7769 6.24335 11.9191 6.37335 11.9166C6.75491 11.9204 6.80897 10.296 6.82303 9.91851C6.83147 9.26382 6.7696 8.85382 6.63866 8.69976C6.30428 8.43976 6.02053 8.16789 5.83897 7.86507C5.9096 7.78914 5.95647 7.71132 5.98678 7.64414C6.48241 7.71445 6.90647 7.79289 6.98741 7.83101C7.06147 7.87695 7.17022 8.06164 7.36616 8.39476C7.71491 9.1332 8.68772 10.0948 9.28616 10.5869C9.32116 10.6166 9.36428 10.631 9.40678 10.631C9.57428 10.6369 9.66272 10.406 9.52772 10.3001C9.52616 10.2988 9.39397 10.1869 9.2046 10.0151L10.3777 8.11414C10.6762 8.44257 11.0405 8.73695 11.4315 8.97789C11.2383 9.2607 10.8312 9.8707 10.4352 10.5535H10.4349ZM13.2227 7.02289C13.0383 7.09882 12.8202 7.13164 12.6199 7.18664C12.4305 7.23789 12.1565 7.33195 11.9668 7.55414C11.7265 7.83632 11.4958 8.12789 11.2796 8.42257C11.113 8.29914 10.958 8.16726 10.8162 8.02851C11.0093 7.68039 11.2358 7.21789 11.0358 6.64695H13.7027C13.5793 6.81195 13.4112 6.94539 13.2227 7.02289Z" fill="#141005"/>
<path d="M5.10692 5.05605C5.43255 5.05605 5.62536 5.00262 5.77661 4.70949C5.82411 4.61762 5.78817 4.50449 5.69599 4.45699C5.60411 4.40949 5.49099 4.44543 5.44349 4.53762C5.38661 4.64793 5.36942 4.68105 5.10692 4.68105C4.86067 4.68512 4.86036 5.05199 5.10692 5.05605Z" fill="#141005"/>
<path d="M1.25276 3.34098C0.545256 3.32973 0.735569 3.91254 1.05713 3.75473C1.09901 3.72786 1.16119 3.71504 1.24963 3.71598C1.65026 3.71754 1.61369 3.93286 1.81182 3.94786C1.96338 3.95254 2.05838 3.75879 1.95744 3.64223C1.80401 3.45286 1.54713 3.34317 1.25276 3.34098Z" fill="#141005"/>
<path d="M1.59634 1.95318C1.40103 1.80568 1.17447 2.10162 1.36915 2.25162C1.70665 2.5188 2.06572 2.97287 2.08103 3.41505C2.05072 3.5313 2.14384 3.6488 2.26322 3.64724C2.54228 3.6338 2.46165 3.22443 2.40353 3.07505C2.25384 2.63412 1.96728 2.23568 1.59634 1.95349V1.95318Z" fill="#141005"/>
<path d="M2.38781 1.81535C2.53937 2.08223 2.72187 2.36004 2.8025 2.65223C2.80875 2.69879 2.80062 2.74285 2.78187 2.76473C2.67593 2.88004 2.77031 3.07941 2.92406 3.0741C2.97687 3.0741 3.02937 3.05191 3.06656 3.00848C3.23937 2.82254 3.18437 2.49379 3.06844 2.28785C2.87625 1.9016 2.68906 1.52066 2.3925 1.19098C2.22281 1.01473 1.9525 1.2716 2.12125 1.45004C2.22531 1.55879 2.31062 1.68973 2.3875 1.81504L2.38781 1.81535Z" fill="#141005"/>
<path d="M3.30363 1.43492C3.39894 1.52398 3.65425 2.00898 3.55394 2.11492C3.46019 2.15867 3.41957 2.27054 3.46363 2.36429C3.62925 2.63711 3.94925 2.33429 3.95207 2.09336C3.96394 1.96898 3.93144 1.85554 3.89832 1.76054C3.49363 0.596169 2.98519 1.24336 3.30363 1.43492Z" fill="#141005"/>
</g>
<defs>
<clipPath id="clip0_1741_8203">
<rect width="16" height="16" fill="white"/>
</clipPath>
</defs>
</svg>
