<svg width="16" height="16" viewBox="0 0 16 16" fill="none" xmlns="http://www.w3.org/2000/svg">
<g clip-path="url(#clip0_1206_6013)">
<path d="M15.705 9.80626C15.4838 9.55514 15.0351 9.43192 14.5312 9.72283C13.892 10.0919 12.2991 10.8683 11.1126 11.3171C11.1651 11.0935 11.1302 10.8575 11.0068 10.65C10.8348 10.3605 10.5334 10.1944 10.197 10.2057C8.7302 10.205 7.7402 9.79433 6.94452 9.46423C6.18617 9.14967 5.53114 8.87802 4.75814 9.06508C3.97514 9.25458 3.14073 9.90539 2.06264 11.1695C1.96223 11.1197 1.8508 11.0932 1.73511 11.0932C1.53802 11.0932 1.35308 11.1695 1.21445 11.3082L0.189078 12.3336C0.103641 12.419 0.103641 12.5575 0.189078 12.6429L3.35883 15.8127C3.39983 15.8537 3.45548 15.8767 3.51348 15.8767C3.57148 15.8767 3.62714 15.8537 3.66814 15.8127L4.69352 14.7873C4.8322 14.6486 4.90858 14.4637 4.90858 14.2666C4.90858 14.1711 4.89048 14.0785 4.8562 13.9926C5.51514 13.7138 6.24892 13.6896 7.18764 13.7457C7.39736 13.7582 7.61739 13.776 7.85036 13.7947C8.4027 13.8392 8.9738 13.8852 9.52552 13.873C10.6832 13.8475 11.3803 13.5221 12.3117 13.0287C13.2617 12.5255 15.2874 11.3242 15.6652 10.8277C15.9296 10.48 15.9453 10.0791 15.705 9.80623L15.705 9.80626ZM4.38417 14.4779L3.51345 15.3486L0.653078 12.4883L1.52377 11.6175C1.57983 11.5615 1.65486 11.5306 1.73511 11.5306C1.81536 11.5306 1.89036 11.5615 1.94642 11.6175L4.3842 14.0553C4.44023 14.1113 4.47108 14.1864 4.47108 14.2666C4.47108 14.3469 4.44023 14.4219 4.3842 14.4779H4.38417ZM15.317 10.5628C15.0495 10.9144 13.3422 11.9878 12.107 12.6422C11.2309 13.1063 10.5772 13.4122 9.51586 13.4357C8.9868 13.4475 8.42686 13.4023 7.88548 13.3587C7.6502 13.3397 7.42795 13.3218 7.21377 13.309C6.38539 13.2595 5.43795 13.242 4.58311 13.6356L2.39798 11.4505C4.53855 8.9402 5.33902 9.27189 6.77689 9.86836C7.60911 10.2136 8.64486 10.6432 10.2009 10.6432C10.2036 10.6432 10.2064 10.6432 10.2091 10.6431C10.3841 10.6363 10.5411 10.7226 10.6307 10.8735C10.7204 11.0243 10.7207 11.2039 10.6315 11.3539C10.4709 11.6242 9.89295 11.7647 9.0868 11.7294C8.33295 11.6965 7.57373 11.5162 7.27523 11.3608C7.16811 11.3051 7.03598 11.3467 6.98023 11.4539C6.92445 11.561 6.96611 11.6931 7.0733 11.7489C7.47498 11.958 8.31377 12.1336 9.06773 12.1665C9.15205 12.1702 9.23923 12.1723 9.32802 12.1723C9.72983 12.1723 10.1633 12.1282 10.5041 11.9841C11.6991 11.6472 13.9284 10.576 14.75 10.1017C15.038 9.93548 15.2767 9.98195 15.3767 10.0955C15.4761 10.2083 15.4538 10.383 15.317 10.5629V10.5628ZM5.16736 3.39055L5.73864 3.75323C5.63345 4.15492 5.58023 4.56983 5.58023 4.98911C5.58023 7.6723 7.76317 9.8552 10.4463 9.8552C13.1295 9.8552 15.3124 7.67227 15.3124 4.98911C15.3124 2.30595 13.1295 0.123047 10.4463 0.123047C8.95817 0.123047 7.57642 0.788016 6.64673 1.94927L5.22092 2.60305C5.06892 2.67273 4.97136 2.81398 4.95998 2.98092C4.94867 3.1478 5.0262 3.30095 5.16736 3.39055ZM5.39645 3.01058C5.39692 3.00402 5.39727 3.00345 5.40327 3.00073L7.72139 1.93777C7.72533 1.93598 7.72714 1.93589 7.72705 1.93589C7.72705 1.93589 7.72886 1.9362 7.73252 1.93855C7.73608 1.9408 7.73714 1.94227 7.73714 1.94227C7.73714 1.94233 7.73786 1.94402 7.73789 1.94827L7.76205 4.49845C7.76214 4.50492 7.7618 4.50552 7.75611 4.50867C7.75042 4.51183 7.74958 4.5118 7.74417 4.5083L7.11545 4.10914C7.05461 4.07052 6.97864 4.06433 6.91233 4.09261C6.84605 4.12092 6.79795 4.18005 6.78373 4.25073C6.73523 4.49227 6.71064 4.7407 6.71064 4.98911C6.71064 7.04898 8.38645 8.7248 10.4463 8.7248C12.5062 8.7248 14.182 7.04898 14.182 4.98911C14.182 2.92923 12.5062 1.25342 10.4463 1.25342C9.61492 1.25342 8.8247 1.52339 8.17614 2.0218L8.17539 1.94405C8.17386 1.78895 8.09792 1.65233 7.96698 1.5692C7.89017 1.52042 7.80523 1.49714 7.71886 1.4983C8.48889 0.894047 9.44095 0.560516 10.4464 0.560516C12.8883 0.560516 14.875 2.54717 14.875 4.98911C14.875 7.43105 12.8883 9.4177 10.4464 9.4177C8.00442 9.4177 6.01777 7.43105 6.01777 4.98911C6.01777 4.55633 6.07998 4.1288 6.20273 3.71836C6.2308 3.62455 6.19308 3.52348 6.11042 3.47098L5.40186 3.02114C5.39636 3.01764 5.39605 3.01705 5.39648 3.01055L5.39645 3.01058ZM8.18152 2.59167C8.79617 2.01005 9.59683 1.69092 10.4463 1.69092C12.265 1.69092 13.7445 3.17048 13.7445 4.98911C13.7445 6.80773 12.265 8.2873 10.4463 8.2873C8.6277 8.2873 7.14814 6.80773 7.14814 4.98911C7.14814 4.87864 7.15364 4.76817 7.16455 4.65852L7.50967 4.87764C7.65089 4.96733 7.82248 4.97236 7.96867 4.89105C8.11489 4.80977 8.2012 4.66139 8.19958 4.49423L8.18155 2.5917L8.18152 2.59167ZM9.35398 6.50836C9.46289 6.69698 9.64186 6.81655 9.85783 6.84498C9.88961 6.84917 9.92105 6.85123 9.95217 6.85123C10.1326 6.85123 10.3002 6.78158 10.4316 6.6502L12.8315 4.25036C13.0882 3.99367 13.0882 3.57598 12.8315 3.3193C12.5747 3.06258 12.157 3.06264 11.9004 3.3193L10.0827 5.13702L9.66202 4.40839C9.57439 4.25667 9.43236 4.14795 9.26205 4.10233C9.09167 4.0567 8.91433 4.0798 8.76267 4.16742C8.6108 4.25511 8.50202 4.39714 8.45642 4.5673C8.4108 4.73752 8.43398 4.91489 8.52167 5.06673L9.35398 6.50836ZM8.87898 4.68055C8.89433 4.62323 8.9307 4.57555 8.98139 4.5463C9.01483 4.52698 9.0522 4.51711 9.09023 4.51711C9.1097 4.51711 9.12936 4.5197 9.1488 4.52489C9.20623 4.5403 9.25389 4.57658 9.28308 4.62711L9.84627 5.60261C9.8803 5.66152 9.93973 5.70123 10.0071 5.71011C10.0748 5.71902 10.1423 5.69602 10.1904 5.64792L12.2096 3.62864C12.2958 3.54248 12.4359 3.54255 12.522 3.62864C12.6081 3.71477 12.6081 3.85489 12.522 3.94102L10.1222 6.34086C10.0641 6.39895 9.99627 6.42202 9.91486 6.41123C9.83342 6.40052 9.77383 6.3607 9.7328 6.28958L8.90045 4.84795C8.8712 4.7973 8.86355 4.73783 8.87892 4.68052L8.87898 4.68055Z" fill="#141005"/>
</g>
<defs>
<clipPath id="clip0_1206_6013">
<rect width="16" height="16" fill="white"/>
</clipPath>
</defs>
</svg>
