<svg width="26" height="26" viewBox="0 0 26 26" fill="none" xmlns="http://www.w3.org/2000/svg">
<rect width="26" height="26" rx="13" fill="#082133"/>
<path d="M9.4268 17.9844C8.5061 17.9844 7.75977 18.7307 7.75977 19.6514C7.75977 20.5721 8.50614 21.3184 9.4268 21.3184C10.3475 21.3184 11.0938 20.5721 11.0938 19.6514C11.0939 18.7307 10.3475 17.9844 9.4268 17.9844ZM9.4268 20.5776C8.91531 20.5776 8.50068 20.1629 8.50068 19.6514C8.50068 19.14 8.91531 18.7253 9.4268 18.7253C9.93829 18.7253 10.3529 19.14 10.3529 19.6514C10.353 20.1629 9.93829 20.5776 9.4268 20.5776Z" fill="white"/>
<path d="M16.4659 17.9844C15.5452 17.9844 14.7988 18.7307 14.7988 19.6514C14.7988 20.5721 15.5452 21.3184 16.4659 21.3184C17.3865 21.3184 18.1329 20.5721 18.1329 19.6514C18.1329 18.7307 17.3866 17.9844 16.4659 17.9844ZM16.4659 20.5776C15.9544 20.5776 15.5397 20.1629 15.5397 19.6514C15.5397 19.14 15.9544 18.7253 16.4659 18.7253C16.9774 18.7253 17.392 19.14 17.392 19.6514C17.392 20.1629 16.9774 20.5776 16.4659 20.5776Z" fill="white"/>
<path d="M20.2265 8.25942C20.1494 8.17515 20.0438 8.1224 19.9302 8.11123L7.87184 7.94452L7.53843 6.92576C7.30355 6.24473 6.66581 5.78497 5.94546 5.77734H4.70444C4.49984 5.77734 4.33398 5.9432 4.33398 6.1478C4.33398 6.3524 4.49984 6.51826 4.70444 6.51826H5.94546C6.34825 6.52715 6.70293 6.78579 6.83457 7.16656L9.18696 14.2608L9.00175 14.6868C8.79516 15.2195 8.85721 15.8191 9.16846 16.2983C9.47673 16.7689 9.99534 17.0593 10.5577 17.0762H17.763C17.9676 17.0762 18.1335 16.9104 18.1335 16.7058C18.1335 16.5012 17.9676 16.3353 17.763 16.3353H10.5576C10.2401 16.3274 9.94776 16.1603 9.77968 15.8908C9.61347 15.6245 9.57933 15.2965 9.68707 15.0017L9.83527 14.6683L17.6334 13.8532C18.4899 13.7589 19.1945 13.1359 19.393 12.2973L20.2821 8.57425C20.3222 8.46704 20.3009 8.34646 20.2265 8.25942ZM18.6706 12.1307C18.5504 12.6705 18.0921 13.0687 17.5407 13.1124L9.83527 13.9088L8.11264 8.68544L19.4671 8.85214L18.6706 12.1307Z" fill="white"/>
</svg>
