<svg width="24" height="24" viewBox="0 0 24 24" fill="none" xmlns="http://www.w3.org/2000/svg">
<g clip-path="url(#clip0_1223_5393)">
<path d="M22.5 5.0625L21.9274 5.06512C21.8415 4.78463 21.7283 4.51125 21.5955 4.26038L22.0001 3.85575C22.2926 3.56362 22.2926 3.08737 22.0001 2.79525L21.2048 1.99988C20.9126 1.70775 20.4364 1.70775 20.1442 1.99988L19.7468 2.41087C19.4888 2.27213 19.2154 2.1585 18.9375 2.064V1.5C18.9375 1.08637 18.6011 0.75 18.1875 0.75H17.0625C16.6489 0.75 16.3125 1.08637 16.3125 1.5L16.3151 2.07262C16.0346 2.1585 15.7613 2.27175 15.5104 2.4045L15.1058 1.99988C14.8136 1.70775 14.3374 1.70775 14.0452 1.99988L13.2499 2.79525C12.9574 3.08737 12.9574 3.56362 13.2499 3.85575L13.6609 4.25325C13.5221 4.51125 13.4085 4.78463 13.314 5.0625H12.75C12.3364 5.0625 12 5.39887 12 5.8125V6.9375C12 7.35113 12.3364 7.6875 12.75 7.6875L13.3226 7.68488C13.4085 7.96537 13.5217 8.23875 13.6545 8.48962L13.2499 8.89425C12.9574 9.18638 12.9574 9.66262 13.2499 9.95475L14.0452 10.7501C14.3374 11.0422 14.8136 11.0422 15.1058 10.7501L15.5032 10.3391C15.7612 10.4779 16.0346 10.5915 16.3125 10.686V11.25C16.3125 11.6636 16.6489 12 17.0625 12H18.1875C18.6011 12 18.9375 11.6636 18.9375 11.25L18.9349 10.6774C19.2154 10.5915 19.4887 10.4782 19.7396 10.3455L20.1442 10.7501C20.4364 11.0422 20.9126 11.0422 21.2048 10.7501L22.0001 9.95475C22.2926 9.66262 22.2926 9.18638 22.0001 8.89425L21.5891 8.49675C21.7279 8.23875 21.8415 7.96537 21.936 7.6875H22.5C22.9136 7.6875 23.25 7.35113 23.25 6.9375V5.8125C23.25 5.39887 22.9136 5.0625 22.5 5.0625ZM22.5 6.9375H21.936C21.6026 6.9375 21.3037 7.155 21.2092 7.46662C21.1384 7.6995 21.0439 7.92712 20.928 8.142C20.7761 8.42588 20.8324 8.78662 21.0649 9.01987L21.4695 9.4245L20.6741 10.2199L20.2691 9.81487C20.0359 9.582 19.6755 9.5265 19.3912 9.67875C19.1767 9.79425 18.9491 9.88875 18.7166 9.95963C18.4046 10.0541 18.1871 10.353 18.1871 10.6864V11.25H17.0621V10.686C17.0621 10.3526 16.8446 10.0538 16.533 9.95925C16.3001 9.88838 16.0725 9.79387 15.8576 9.678C15.7511 9.621 15.6334 9.59325 15.516 9.59325C15.3206 9.59325 15.1256 9.66938 14.9797 9.81487L14.5751 10.2195L13.7797 9.42413L14.1848 9.01912C14.4169 8.78625 14.4735 8.4255 14.3209 8.14125C14.2054 7.92675 14.1109 7.69912 14.04 7.46662C13.9455 7.15462 13.6466 6.93713 13.3132 6.93713H12.75V5.81212H13.314C13.6474 5.81212 13.9463 5.59462 14.0408 5.283C14.1116 5.05013 14.2061 4.8225 14.322 4.60763C14.4739 4.32375 14.4176 3.963 14.1851 3.72975L13.7805 3.32512L14.5759 2.52975L14.9809 2.93475C15.2141 3.16725 15.5749 3.22275 15.8588 3.07088C16.0733 2.95537 16.3009 2.86088 16.5334 2.79C16.845 2.69588 17.0625 2.39738 17.0625 2.064V1.5H18.1875V2.064C18.1875 2.39738 18.405 2.69625 18.7166 2.79075C18.9495 2.86162 19.1771 2.95613 19.392 3.072C19.6759 3.22388 20.0366 3.168 20.2699 2.93513L20.6745 2.5305L21.4699 3.32588L21.0649 3.73088C20.8328 3.96375 20.7761 4.3245 20.9288 4.60875C21.0443 4.82325 21.1387 5.05087 21.2096 5.28337C21.3041 5.59538 21.603 5.81288 21.9364 5.81288H22.5V6.9375Z" fill="#A27E2A"/>
<path d="M17.625 3.375C15.9709 3.375 14.625 4.72088 14.625 6.375C14.625 8.02912 15.9709 9.375 17.625 9.375C19.2791 9.375 20.625 8.02912 20.625 6.375C20.625 4.72088 19.2791 3.375 17.625 3.375ZM17.625 8.625C16.3841 8.625 15.375 7.61588 15.375 6.375C15.375 5.13412 16.3841 4.125 17.625 4.125C18.8659 4.125 19.875 5.13412 19.875 6.375C19.875 7.61588 18.8659 8.625 17.625 8.625Z" fill="#A27E2A"/>
<path d="M15.4825 12H14.518C14.1344 12 13.822 12.3124 13.822 12.6964V13.1486C13.6079 13.2165 13.3986 13.3031 13.1995 13.407L12.8792 13.0867C12.748 12.9547 12.5732 12.8824 12.3872 12.8824H12.3865C12.2005 12.8824 12.0254 12.9547 11.8941 13.0864L11.2124 13.7681C11.0804 13.9001 11.008 14.0749 11.0084 14.2609C11.0084 14.4469 11.0807 14.622 11.2124 14.7529L11.5326 15.0731C11.4291 15.2722 11.3421 15.4819 11.2746 15.6956H10.8224C10.4384 15.6956 10.126 16.008 10.126 16.3916V17.3561C10.126 17.7397 10.4384 18.0521 10.8224 18.0521H11.2746C11.3425 18.2662 11.4291 18.4755 11.533 18.6746L11.2127 18.9949C11.0807 19.1261 11.0084 19.3009 11.0084 19.4869C11.008 19.6729 11.0804 19.848 11.2124 19.9796L11.8941 20.6614C12.0257 20.793 12.2005 20.8654 12.3865 20.8654C12.5725 20.8654 12.748 20.793 12.8789 20.6614L13.1991 20.3411C13.3982 20.4446 13.6079 20.5316 13.8216 20.5991V21.0514C13.8216 21.4354 14.134 21.7477 14.5176 21.7477H15.4821C15.8657 21.7477 16.1781 21.4354 16.1781 21.0514V20.5991C16.3922 20.5312 16.6015 20.4446 16.8006 20.3407L17.1209 20.661C17.2521 20.793 17.4269 20.8654 17.6129 20.8654C17.7989 20.8654 17.9744 20.793 18.1056 20.6614L18.7874 19.9796C18.9194 19.8476 18.9917 19.6729 18.9914 19.4869C18.9914 19.3009 18.919 19.1257 18.7874 18.9949L18.4671 18.6746C18.5706 18.4755 18.6576 18.2659 18.7251 18.0521H19.1774C19.5614 18.0521 19.8737 17.7397 19.8737 17.3561V16.3916C19.8737 16.008 19.5614 15.6956 19.1774 15.6956H18.7251C18.6572 15.4815 18.5706 15.2722 18.4667 15.0731L18.787 14.7529C18.919 14.6216 18.9914 14.4469 18.9914 14.2609C18.9917 14.0749 18.9194 13.8997 18.7874 13.7681L18.1056 13.0864C17.974 12.9547 17.7992 12.8824 17.6132 12.8824C17.4272 12.8824 17.2517 12.9547 17.1209 13.0864L16.8006 13.4066C16.6015 13.3031 16.3919 13.2161 16.1781 13.1486V12.6964C16.1789 12.3124 15.8665 12 15.4825 12ZM16.489 14.0903C16.7534 14.232 17.089 14.1799 17.3054 13.9639L17.6144 13.6553L18.22 14.2609L17.9114 14.5699C17.695 14.7863 17.6429 15.1219 17.785 15.3859C17.8821 15.5666 17.9616 15.7582 18.0216 15.9559C18.1101 16.245 18.3876 16.4468 18.6959 16.4468H19.1252V17.3036H18.6955C18.3872 17.3036 18.1097 17.5054 18.0209 17.7952C17.9612 17.9917 17.8817 18.1834 17.7846 18.3641C17.6425 18.6285 17.6946 18.9641 17.911 19.1805L18.2196 19.4895L17.614 20.0951L17.305 19.7865C17.089 19.5705 16.7537 19.5184 16.489 19.6601C16.3082 19.7572 16.1166 19.8367 15.919 19.8967C15.6299 19.9852 15.4281 20.2627 15.4281 20.571V21H14.5712V20.5702C14.5712 20.262 14.3695 19.9845 14.0796 19.8956C13.8831 19.836 13.6915 19.7565 13.5107 19.6594C13.246 19.5172 12.91 19.5697 12.6944 19.7857L12.3854 20.0944L11.7797 19.4887L12.0884 19.1797C12.3047 18.9634 12.3569 18.6277 12.2147 18.3637C12.1176 18.183 12.0381 17.9914 11.9781 17.7937C11.8896 17.5046 11.6121 17.3029 11.3039 17.3029H10.8752V16.446H11.305C11.6132 16.446 11.8907 16.2442 11.9796 15.9544C12.0392 15.7579 12.1187 15.5662 12.2159 15.3855C12.358 15.1211 12.3059 14.7855 12.0895 14.5691L11.7809 14.2601L12.3865 13.6545L12.6955 13.9631C12.9115 14.1795 13.2471 14.2316 13.5115 14.0895C13.6922 13.9924 13.8839 13.9129 14.0815 13.8529C14.3706 13.7644 14.5724 13.4869 14.5724 13.1786V12.75H15.4292V13.1797C15.4292 13.488 15.631 13.7655 15.9209 13.8544C16.117 13.914 16.3082 13.9931 16.489 14.0903Z" fill="#A27E2A"/>
<path d="M12.375 16.875C12.375 18.3221 13.5529 19.5 15 19.5C16.4471 19.5 17.625 18.3221 17.625 16.875C17.625 15.4279 16.4471 14.25 15 14.25C13.5529 14.25 12.375 15.4279 12.375 16.875ZM16.875 16.875C16.875 17.9089 16.0339 18.75 15 18.75C13.9661 18.75 13.125 17.9089 13.125 16.875C13.125 15.8411 13.9661 15 15 15C16.0339 15 16.875 15.8411 16.875 16.875Z" fill="#A27E2A"/>
<path d="M5.57378 9.00014C4.00478 9.02602 2.68291 10.3224 2.62703 11.8895C2.58916 12.9298 3.08303 13.8999 3.94741 14.4838C4.05841 14.5588 4.12478 14.6773 4.12478 14.8003V15.7498C4.12478 15.9571 4.29241 16.1248 4.49978 16.1248H6.74978C6.95716 16.1248 7.12478 15.9571 7.12478 15.7498V14.7995C7.12478 14.6765 7.18928 14.5595 7.29803 14.4871C8.12866 13.928 8.62478 12.998 8.62478 11.9998C8.62478 11.1894 8.30641 10.4296 7.72853 9.86114C7.15066 9.29264 6.38266 8.98364 5.57378 9.00014ZM6.87953 13.8646C6.56341 14.0765 6.37478 14.4264 6.37478 14.7995V15.3748H4.87478V14.8003C4.87478 14.4279 4.68503 14.0773 4.36703 13.8628C3.71866 13.4244 3.34816 12.6969 3.37591 11.9169C3.41791 10.7416 4.40941 9.76964 5.58616 9.75052C6.19891 9.73289 6.76891 9.96989 7.20241 10.3963C7.63591 10.8219 7.87478 11.3919 7.87478 11.9998C7.87478 12.7479 7.50278 13.445 6.87953 13.8646Z" fill="#A27E2A"/>
<path d="M4.125 12V12.375H4.875V12C4.875 11.5864 5.21137 11.25 5.625 11.25V10.5C4.79775 10.5 4.125 11.1727 4.125 12Z" fill="#A27E2A"/>
<path d="M5.25 7.125H6V8.25H5.25V7.125Z" fill="#A27E2A"/>
<path d="M9.375 11.625H10.5V12.375H9.375V11.625Z" fill="#A27E2A"/>
<path d="M0.75 11.625H1.875V12.375H0.75V11.625Z" fill="#A27E2A"/>
<path d="M1.91113 8.81738L2.44146 8.28705L3.23696 9.08255L2.70663 9.61288L1.91113 8.81738Z" fill="#A27E2A"/>
<path d="M8.00977 9.08301L8.80526 8.28751L9.33559 8.81784L8.5401 9.61334L8.00977 9.08301Z" fill="#A27E2A"/>
<path d="M9.375 23.25V19.5C9.375 18.4661 8.53387 17.625 7.5 17.625H3.75C2.71613 17.625 1.875 18.4661 1.875 19.5V23.25H2.625V19.5C2.625 18.8798 3.12975 18.375 3.75 18.375H7.5C8.12025 18.375 8.625 18.8798 8.625 19.5V23.25H9.375Z" fill="#A27E2A"/>
<path d="M3.375 19.5H4.125V23.25H3.375V19.5Z" fill="#A27E2A"/>
<path d="M7.125 19.5H7.875V23.25H7.125V19.5Z" fill="#A27E2A"/>
<path d="M4.875 16.5H6.375V17.25H4.875V16.5Z" fill="#A27E2A"/>
</g>
<defs>
<clipPath id="clip0_1223_5393">
<rect width="24" height="24" fill="white"/>
</clipPath>
</defs>
</svg>
