<svg width="47" height="44" viewBox="0 0 47 44" fill="none" xmlns="http://www.w3.org/2000/svg">
<g filter="url(#filter0_d_7565_32343)">
<path d="M23.1397 22.0559C23.3789 22.1021 23.5841 22.2339 23.6974 22.4387L24.619 24.1024C24.9579 24.7139 25.4794 25.2089 26.125 25.5477C25.1164 26.0893 23.9178 25.9196 23.3569 25.1506C23.2143 24.955 23.0828 24.7511 22.9633 24.5395L22.1603 23.1171C22.0149 22.8595 22.0501 22.5466 22.2213 22.2848C22.2717 22.2463 22.3256 22.2113 22.3839 22.1805C22.6318 22.0479 22.9028 22.01 23.1397 22.0559Z" fill="url(#paint0_linear_7565_32343)"/>
<path d="M19.1585 22.8074L20.8801 24.6719C21.1363 24.9493 21.4047 25.2129 21.684 25.4623C22.7824 26.4427 24.4473 26.425 25.5312 25.4288C24.5198 25.0835 23.6005 24.4875 22.8687 23.6844L20.8785 21.4998C20.6335 21.2307 20.301 21.0866 19.963 21.0723C19.6282 21.0581 19.2871 21.1715 19.0205 21.4158C19.0199 21.4163 19.0193 21.4169 19.0186 21.4175C18.8966 21.5287 18.8242 21.6866 18.815 21.8514C18.7961 22.1907 18.9089 22.5371 19.1585 22.8074Z" fill="url(#paint1_linear_7565_32343)"/>
<path d="M16.0783 23.81L18.755 25.6538C19.1534 25.9281 19.563 26.1817 19.9824 26.4144C21.631 27.3294 23.706 26.8377 24.7793 25.2876C23.4183 25.1415 22.1018 24.656 20.961 23.8593L17.8585 21.6914C17.4766 21.4244 17.0205 21.3381 16.5943 21.4156C16.1719 21.4923 15.7779 21.7302 15.5137 22.1105C15.5131 22.1114 15.5124 22.1122 15.5118 22.1131C15.3843 22.2956 15.3444 22.526 15.3855 22.7449C15.4636 23.1616 15.6999 23.5493 16.0783 23.81Z" fill="url(#paint2_linear_7565_32343)"/>
<path d="M24.6848 27.4686C22.5098 27.4686 20.7466 26.6915 20.7466 25.7329C20.7466 24.7742 22.5098 23.9971 24.6848 23.9971C26.8598 23.9971 28.623 24.7742 28.623 25.7329C28.623 26.6915 26.8598 27.4686 24.6848 27.4686Z" fill="url(#paint3_linear_7565_32343)"/>
<path d="M19.7942 3.15732C19.8043 4.24672 20.9133 4.99315 21.9255 4.59045C22.4033 4.40035 22.9369 4.29405 23.5001 4.29405C24.0632 4.29405 24.5968 4.40035 25.0746 4.59045C26.0868 4.99322 27.1959 4.24672 27.2059 3.15732C27.206 3.14906 27.2061 3.14072 27.2061 3.13239C27.2061 1.40239 25.5468 0 23.5001 0C21.4533 0 19.7941 1.40239 19.7941 3.13239C19.7941 3.14072 19.7941 3.14898 19.7942 3.15732Z" fill="#082133"/>
<path d="M6.06045 18.0677C6.06045 18.3003 6.0671 19.1651 6.08026 19.395C6.1617 20.8162 7.58046 21.9339 9.30265 21.9339H37.6973C39.4194 21.9339 40.8382 20.8162 40.9196 19.395C40.9328 19.1651 40.9395 18.3003 40.9395 18.0677C40.9395 10.1104 33.1307 3.66003 23.5 3.66003C13.8682 3.66003 6.06045 10.1104 6.06045 18.0677Z" fill="url(#paint4_linear_7565_32343)"/>
<path d="M9.3027 21.9339C7.5805 21.9339 6.16175 20.8162 6.08031 19.395C6.06715 19.1651 6.0605 18.3003 6.0605 18.0678C6.0605 10.1105 13.8682 3.6601 23.5 3.6601V21.934H9.3027V21.9339Z" fill="url(#paint5_linear_7565_32343)"/>
<path d="M40.9395 18.0677C40.9395 18.3003 40.9328 19.1651 40.9196 19.395C40.8382 20.8162 39.4194 21.9339 37.6973 21.9339H9.30265C7.58046 21.9339 6.1617 20.8162 6.08026 19.395C6.0671 19.1651 6.06045 18.3003 6.06045 18.0677C6.06045 15.5174 6.86354 13.1224 8.2706 11.0445H38.7291C40.1363 13.1224 40.9395 15.5174 40.9395 18.0677Z" fill="url(#paint6_linear_7565_32343)"/>
<path d="M5.29939 23.3919H41.7006C42.4183 23.3919 43 22.8101 43 22.0925V21.2591C43 20.5415 42.4183 19.9597 41.7006 19.9597H5.29931C4.58171 19.9597 3.99992 20.5414 3.99992 21.2591V22.0925C4 22.8101 4.58171 23.3919 5.29939 23.3919Z" fill="#513F15"/>
<path d="M17.8218 23.3919L22.6195 18.5943L27.417 23.3919H17.8218Z" fill="url(#paint7_linear_7565_32343)"/>
<path d="M13.4613 23.3916C15.8151 26.7555 19.4092 29.0603 23.4583 29.7998L26.0576 30.254L27.7017 30.5263C28.2569 30.6173 28.7669 30.8582 29.1837 31.2122L30.6611 32.3967C31.0366 32.6973 31.5849 32.6361 31.8854 32.2614L35.6401 27.573C35.8451 27.3168 35.8886 26.9673 35.7533 26.6691L34.8402 24.6594C34.6246 24.1823 34.3225 23.751 33.9509 23.3916C33.6855 23.1346 33.3842 22.9152 33.0531 22.7423C33.0164 22.7224 32.9789 22.7041 32.9407 22.6857C32.9346 22.6834 32.9292 22.6796 32.9223 22.6773C32.267 22.36 30.1434 21.7918 29.3083 21.5739C29.0636 21.5104 28.8235 21.4278 28.5949 21.3207C27.8126 20.9552 27.08 20.4979 26.4116 19.9596C25.9261 19.5711 25.4749 19.1383 25.0635 18.6687C24.5695 18.1059 23.7765 17.9469 23.1181 18.2459C23.0232 18.2887 22.9315 18.3414 22.8435 18.4034C22.3258 18.7689 22.0796 19.3746 22.1469 19.9596C22.1798 20.2433 22.2861 20.5224 22.4703 20.7663C23.1647 21.6893 23.9187 22.5664 24.7278 23.3916C25.0642 23.7357 25.4106 24.0706 25.7655 24.3964L25.8129 24.4927C25.9849 24.8407 25.8106 25.1703 25.4259 25.2223C23.2182 25.5243 22.6103 25.4104 21.1336 25.0127C19.9805 24.7015 18.9099 24.1502 18.0091 23.3916H13.4613Z" fill="url(#paint8_linear_7565_32343)"/>
<path d="M21.1337 25.0128C22.2613 25.3164 22.8831 25.4544 24.0967 25.3683V29.9114L23.4585 29.7999C19.4093 29.0604 15.8152 26.7556 13.4615 23.3917H18.0092C18.91 24.1502 19.9806 24.7015 21.1337 25.0128Z" fill="url(#paint9_linear_7565_32343)"/>
<path d="M29.6942 21.6758C30.6717 21.9357 32.3521 22.4016 32.9228 22.6772C32.929 22.6799 32.9349 22.6831 32.9411 22.6858C32.979 22.704 33.0166 22.7227 33.0534 22.7422C33.8487 23.157 34.4702 23.842 34.8406 24.6591L35.7532 26.6687C35.8887 26.9673 35.845 27.3169 35.64 27.5728L31.8853 32.261C31.5848 32.6362 31.0368 32.6969 30.6616 32.3963L29.1835 31.2124C28.7671 30.8584 28.2571 30.6173 27.702 30.5258L26.0578 30.2543L23.4584 29.7998C23.3801 29.7855 23.3022 29.7695 23.2242 29.754L29.6942 21.6758Z" fill="url(#paint10_linear_7565_32343)"/>
<path d="M28.6704 32.2413L30.8919 34.4627C31.3264 34.8972 32.0309 34.8972 32.4654 34.4627L38.4817 28.4463C38.9162 28.0118 38.9162 27.3073 38.4817 26.8728L36.2603 24.6513C35.8258 24.2168 35.1212 24.2168 34.6867 24.6513L28.6703 30.6677C28.2359 31.1023 28.2359 31.8067 28.6704 32.2413Z" fill="url(#paint11_linear_7565_32343)"/>
<path d="M34.9648 31.9636L32.4657 34.4627C32.0312 34.8972 31.3267 34.8972 30.8922 34.4627L28.6707 32.2413C28.2362 31.8067 28.2362 31.1022 28.6707 30.6677L31.1698 28.1686L34.9648 31.9636Z" fill="url(#paint12_linear_7565_32343)"/>
<path d="M29.5006 33.9351L33.8027 38.2373C34.2911 38.7257 34.9535 39.0001 35.6442 39.0001H41.8292C42.4758 39 43 38.4758 43 37.8291V31.606C43 30.9154 42.7257 30.253 42.2374 29.7646L37.9549 25.4815C37.4708 24.9974 36.6859 24.9974 36.2018 25.4815L29.5004 32.1829C29.0167 32.6667 29.0167 33.4512 29.5006 33.9351Z" fill="#082133"/>
<path d="M29.5005 33.9351L33.8027 38.2373C34.2911 38.7257 34.9535 39.0001 35.6442 39.0001H41.8848L32.284 29.3994L29.5004 32.183C29.0166 32.6667 29.0166 33.4512 29.5005 33.9351Z" fill="url(#paint13_linear_7565_32343)"/>
</g>
<defs>
<filter id="filter0_d_7565_32343" x="0" y="0" width="47" height="47.0001" filterUnits="userSpaceOnUse" color-interpolation-filters="sRGB">
<feFlood flood-opacity="0" result="BackgroundImageFix"/>
<feColorMatrix in="SourceAlpha" type="matrix" values="0 0 0 0 0 0 0 0 0 0 0 0 0 0 0 0 0 0 127 0" result="hardAlpha"/>
<feOffset dy="4"/>
<feGaussianBlur stdDeviation="2"/>
<feComposite in2="hardAlpha" operator="out"/>
<feColorMatrix type="matrix" values="0 0 0 0 0.647059 0 0 0 0 0.423529 0 0 0 0 0.0431373 0 0 0 0.26 0"/>
<feBlend mode="normal" in2="BackgroundImageFix" result="effect1_dropShadow_7565_32343"/>
<feBlend mode="normal" in="SourceGraphic" in2="effect1_dropShadow_7565_32343" result="shape"/>
</filter>
<linearGradient id="paint0_linear_7565_32343" x1="24.6615" y1="22.9503" x2="24.0051" y2="23.9661" gradientUnits="userSpaceOnUse">
<stop stop-color="#FFDFCF"/>
<stop offset="1" stop-color="#FFA78F"/>
</linearGradient>
<linearGradient id="paint1_linear_7565_32343" x1="22.6038" y1="22.7519" x2="21.8911" y2="24.1154" gradientUnits="userSpaceOnUse">
<stop stop-color="#FFDFCF"/>
<stop offset="1" stop-color="#FFA78F"/>
</linearGradient>
<linearGradient id="paint2_linear_7565_32343" x1="20.3614" y1="23.0498" x2="19.7904" y2="24.6545" gradientUnits="userSpaceOnUse">
<stop stop-color="#FFDFCF"/>
<stop offset="1" stop-color="#FFA78F"/>
</linearGradient>
<linearGradient id="paint3_linear_7565_32343" x1="25.2524" y1="23.9269" x2="24.4112" y2="26.6033" gradientUnits="userSpaceOnUse">
<stop stop-color="#FFDFCF"/>
<stop offset="1" stop-color="#FFA78F"/>
</linearGradient>
<linearGradient id="paint4_linear_7565_32343" x1="41.7483" y1="11.9079" x2="12.5139" y2="28.3644" gradientUnits="userSpaceOnUse">
<stop stop-color="#A56C0B"/>
<stop offset="0.172" stop-color="#E0C35C"/>
<stop offset="0.253" stop-color="#F8E67D"/>
<stop offset="0.459" stop-color="#D7B750"/>
<stop offset="0.566" stop-color="#C9A33D"/>
<stop offset="0.661" stop-color="#CEAB44"/>
<stop offset="0.807" stop-color="#DDC059"/>
<stop offset="0.985" stop-color="#F6E37A"/>
<stop offset="1" stop-color="#F8E67D"/>
</linearGradient>
<linearGradient id="paint5_linear_7565_32343" x1="16.015" y1="12.761" x2="2.16799" y2="10.6839" gradientUnits="userSpaceOnUse">
<stop stop-color="#433F43" stop-opacity="0"/>
<stop offset="0.3007" stop-color="#3C393C" stop-opacity="0.301"/>
<stop offset="0.7373" stop-color="#292729" stop-opacity="0.737"/>
<stop offset="1" stop-color="#1A1A1A"/>
</linearGradient>
<linearGradient id="paint6_linear_7565_32343" x1="23.5" y1="15.0268" x2="23.5" y2="22.8816" gradientUnits="userSpaceOnUse">
<stop stop-color="#433F43" stop-opacity="0"/>
<stop offset="0.3007" stop-color="#3C393C" stop-opacity="0.301"/>
<stop offset="0.7373" stop-color="#292729" stop-opacity="0.737"/>
<stop offset="1" stop-color="#1A1A1A"/>
</linearGradient>
<linearGradient id="paint7_linear_7565_32343" x1="21.4978" y1="23.4851" x2="24.9007" y2="21.0762" gradientUnits="userSpaceOnUse">
<stop stop-color="#433F43" stop-opacity="0"/>
<stop offset="0.3007" stop-color="#3C393C" stop-opacity="0.301"/>
<stop offset="0.7373" stop-color="#292729" stop-opacity="0.737"/>
<stop offset="1" stop-color="#1A1A1A"/>
</linearGradient>
<linearGradient id="paint8_linear_7565_32343" x1="26.1485" y1="20.6567" x2="22.7769" y2="31.0308" gradientUnits="userSpaceOnUse">
<stop stop-color="#FFDFCF"/>
<stop offset="1" stop-color="#FFA78F"/>
</linearGradient>
<linearGradient id="paint9_linear_7565_32343" x1="19.2647" y1="26.2446" x2="18.3088" y2="22.574" gradientUnits="userSpaceOnUse">
<stop stop-color="#F89580" stop-opacity="0"/>
<stop offset="0.2599" stop-color="#F2917C" stop-opacity="0.261"/>
<stop offset="0.5954" stop-color="#E2856F" stop-opacity="0.597"/>
<stop offset="0.9709" stop-color="#C8725B" stop-opacity="0.974"/>
<stop offset="0.9972" stop-color="#C5715A"/>
</linearGradient>
<linearGradient id="paint10_linear_7565_32343" x1="28.9328" y1="26.9666" x2="31.0651" y2="29.5023" gradientUnits="userSpaceOnUse">
<stop stop-color="#F89580" stop-opacity="0"/>
<stop offset="0.2599" stop-color="#F2917C" stop-opacity="0.261"/>
<stop offset="0.5954" stop-color="#E2856F" stop-opacity="0.597"/>
<stop offset="0.9709" stop-color="#C8725B" stop-opacity="0.974"/>
<stop offset="0.9972" stop-color="#C5715A"/>
</linearGradient>
<linearGradient id="paint11_linear_7565_32343" x1="33.1066" y1="29.213" x2="30.978" y2="27.7322" gradientUnits="userSpaceOnUse">
<stop stop-color="#FFFDF1"/>
<stop offset="1" stop-color="#FFF5C6"/>
</linearGradient>
<linearGradient id="paint12_linear_7565_32343" x1="31.6054" y1="31.5298" x2="28.4309" y2="34.7043" gradientUnits="userSpaceOnUse">
<stop stop-color="#FEA613" stop-opacity="0"/>
<stop offset="0.1832" stop-color="#FC9B19" stop-opacity="0.183"/>
<stop offset="0.5086" stop-color="#F57D28" stop-opacity="0.509"/>
<stop offset="0.9356" stop-color="#EB4C40" stop-opacity="0.936"/>
<stop offset="1" stop-color="#E94444"/>
</linearGradient>
<linearGradient id="paint13_linear_7565_32343" x1="35.6397" y1="35.6443" x2="33.7946" y2="37.4894" gradientUnits="userSpaceOnUse">
<stop stop-color="#433F43" stop-opacity="0"/>
<stop offset="1" stop-color="#1A1A1A"/>
</linearGradient>
</defs>
</svg>
