<svg width="12" height="12" viewBox="0 0 12 12" fill="none" xmlns="http://www.w3.org/2000/svg">
<g clip-path="url(#clip0_1110_3419)">
<path d="M8.13087 8.03986L6.48398 8.99908C6.43495 9.02763 6.38538 9.05095 6.33473 9.06916C6.3476 9.03867 6.35859 9.00656 6.36764 8.97288C6.45766 8.63684 6.25863 8.28619 5.91452 8.17462C5.90644 8.17202 5.89819 8.16996 5.88984 8.16844C5.42002 8.08373 4.95469 7.91548 4.58081 7.78029C4.4501 7.73304 4.32663 7.68839 4.22126 7.65422C3.78373 7.51228 3.39216 7.68574 3.06682 7.87411L1.8787 8.562L1.78432 8.39524C1.72774 8.29523 1.63537 8.22319 1.52421 8.19239C1.41305 8.16164 1.2968 8.17582 1.19681 8.23237L0.734719 8.49389C0.527859 8.61098 0.454805 8.87451 0.571875 9.08142L1.93036 11.4817C1.98694 11.5817 2.07933 11.6538 2.19047 11.6846C2.22891 11.6952 2.26793 11.7005 2.3067 11.7005C2.38005 11.7005 2.45245 11.6816 2.51784 11.6446L2.97994 11.3831C3.18682 11.266 3.25985 11.0025 3.14278 10.7956L3.02346 10.5848L3.25104 10.4534L5.34333 11.014C5.46345 11.0462 5.58298 11.0622 5.70056 11.0622C5.93848 11.0622 6.16835 10.9967 6.37854 10.8673L9.36724 9.027C9.65838 8.84775 9.75157 8.39735 9.56273 8.08205C9.47152 7.92968 9.09855 7.4763 8.13087 8.03986ZM2.79415 11.0548L2.33205 11.3163C2.31544 11.3257 2.29934 11.3233 2.29123 11.321C2.28309 11.3188 2.26805 11.3125 2.25867 11.2959L0.900187 8.89561C0.885797 8.8702 0.895125 8.83659 0.920508 8.8222L1.3826 8.56071C1.39179 8.55553 1.40081 8.55394 1.40845 8.55394C1.41459 8.55394 1.41982 8.55494 1.42343 8.55595C1.43156 8.5582 1.44661 8.56448 1.45598 8.58103L2.81447 10.9814C2.82886 11.0068 2.81953 11.0404 2.79415 11.0548ZM9.16945 8.70572L6.18077 10.546C5.95411 10.6856 5.70523 10.7204 5.44102 10.6496L3.27323 10.0687C3.22488 10.0558 3.17341 10.0626 3.1301 10.0876L2.83767 10.2564L2.06449 8.89031L3.25582 8.20057C3.52198 8.04649 3.80906 7.91712 4.10484 8.01305C4.20427 8.0453 4.31932 8.0869 4.45254 8.13506C4.83616 8.27376 5.31272 8.44608 5.80884 8.53713C5.95777 8.59071 6.04104 8.73422 6.00323 8.87526C5.96304 9.02522 5.85087 9.09058 5.6697 9.07012C5.4297 9.02062 5.20078 8.95533 4.95863 8.88616C4.84275 8.85307 4.72296 8.81885 4.59963 8.78583C4.49909 8.75887 4.39559 8.81857 4.36861 8.91921C4.34166 9.01983 4.40138 9.12326 4.50199 9.15023C4.62232 9.18246 4.74061 9.21626 4.85501 9.24893C5.10715 9.32095 5.34532 9.38897 5.60252 9.44156C5.60377 9.44182 5.60873 9.44273 5.61005 9.44294L5.81494 9.47625C6.13127 9.52685 6.41224 9.47744 6.67383 9.3251L8.32071 8.36587C8.76537 8.10691 9.11726 8.07246 9.23911 8.2759C9.32142 8.41329 9.28561 8.63423 9.16945 8.70572ZM1.49576 8.9873C1.50893 9.07746 1.44654 9.16123 1.35637 9.1744C1.26621 9.18759 1.18245 9.12518 1.16927 9.03502C1.1561 8.94485 1.21849 8.86108 1.30866 8.84791C1.3988 8.83476 1.48259 8.89715 1.49576 8.9873ZM4.02705 2.52058C4.08635 2.6362 4.119 2.6999 4.12678 2.74401C4.13456 2.78812 4.12563 2.85916 4.10948 2.98807C4.1051 3.02292 4.10023 3.06176 4.09502 3.1054C4.06371 3.36755 4.20572 3.6135 4.44839 3.71744C4.47605 3.72928 4.50155 3.74008 4.52534 3.75014L4.03706 4.79885C4.00741 4.86255 4.01562 4.93746 4.05837 4.99324C4.10112 5.04902 4.17129 5.07637 4.24052 5.0643L4.7667 4.97236L5.03506 5.43417C5.06892 5.49246 5.13115 5.52801 5.19811 5.52801C5.20097 5.52801 5.20383 5.52794 5.20669 5.52783C5.27688 5.52462 5.33948 5.48269 5.36913 5.41901L5.87048 4.34219C5.92983 4.32492 5.97009 4.31557 5.99967 4.31557C6.04446 4.31557 6.11287 4.33669 6.23702 4.37501C6.24401 4.37716 6.25125 4.37939 6.25856 4.38164L6.61505 5.20933C6.64284 5.27386 6.7042 5.31759 6.77428 5.3228C6.77897 5.32317 6.78366 5.32333 6.78832 5.32333C6.85322 5.32333 6.91399 5.28987 6.94856 5.23415L7.23019 4.78031L7.75345 4.88747C7.82229 4.90167 7.89326 4.87624 7.9376 4.82175C7.98195 4.76726 7.99233 4.69261 7.96453 4.62808L7.56867 3.70898C7.80035 3.6008 7.93488 3.36096 7.90432 3.10537C7.89912 3.06173 7.89424 3.02292 7.88986 2.98807C7.87369 2.85914 7.86478 2.78812 7.87256 2.74401C7.88034 2.6999 7.91302 2.6362 7.97229 2.52058C7.98832 2.48932 8.00618 2.45449 8.02601 2.41528C8.14512 2.17966 8.0958 1.89996 7.90329 1.71928C7.87125 1.68921 7.84256 1.66258 7.8168 1.6387C7.72155 1.55032 7.66908 1.50164 7.64667 1.46285C7.62427 1.42406 7.60835 1.35426 7.57945 1.22758C7.57165 1.19334 7.56293 1.15519 7.5529 1.11239C7.49266 0.85535 7.27509 0.672795 7.01149 0.658123C6.96764 0.655686 6.92855 0.65374 6.89346 0.652006C6.76369 0.645537 6.6922 0.641975 6.65009 0.626646C6.60797 0.611318 6.55095 0.5681 6.44738 0.489654C6.41937 0.468443 6.38817 0.444795 6.35299 0.418475C6.14163 0.260271 5.85762 0.260225 5.64626 0.418475C5.61108 0.444818 5.57988 0.468443 5.5519 0.489654C5.44833 0.568123 5.39126 0.611342 5.34916 0.62667C5.30707 0.641998 5.23556 0.645561 5.10579 0.652029C5.0707 0.653764 5.03163 0.655709 4.98776 0.658147C4.72413 0.672818 4.50656 0.855373 4.44635 1.11244C4.43632 1.15523 4.42763 1.19339 4.4198 1.22765C4.3909 1.35431 4.37496 1.42411 4.35258 1.4629C4.33017 1.50169 4.27772 1.55037 4.18245 1.63875C4.15669 1.66263 4.128 1.68923 4.09596 1.71933C3.90345 1.90001 3.85413 2.17971 3.97324 2.41533C3.99319 2.45449 4.01105 2.48932 4.02705 2.52058ZM5.17971 4.93221L5.02688 4.66917C4.9872 4.60087 4.90922 4.56469 4.83131 4.57812L4.53164 4.63048L4.84615 3.95496C4.8668 3.98503 4.89084 4.0222 4.92089 4.06872C4.93995 4.09826 4.96118 4.13109 4.98523 4.16789C5.0846 4.31986 5.24189 4.41321 5.41266 4.43187L5.17971 4.93221ZM7.17715 4.38438C7.09976 4.36847 7.02068 4.40257 6.97903 4.46972L6.81863 4.72819L6.68283 4.41288C6.81546 4.37515 6.93382 4.29082 7.01421 4.16791C7.03826 4.13114 7.05947 4.09828 7.07852 4.06877C7.14902 3.9596 7.18786 3.89946 7.22217 3.87068C7.22339 3.86965 7.22498 3.86862 7.22627 3.86761L7.47516 4.44544L7.17715 4.38438ZM4.35424 1.99434C4.3857 1.96483 4.41384 1.9387 4.43913 1.91526C4.69158 1.68108 4.71113 1.64723 4.7877 1.31154C4.79538 1.2779 4.80391 1.24045 4.81376 1.19843C4.83579 1.10437 4.91236 1.04015 5.0088 1.03479C5.05186 1.0324 5.0902 1.03047 5.12463 1.02876C5.46855 1.01163 5.50528 0.998248 5.77976 0.790334C5.80725 0.769498 5.83786 0.746318 5.87238 0.720467C5.94973 0.662576 6.04964 0.662553 6.12698 0.720467C6.16153 0.746318 6.19214 0.769498 6.21963 0.790334C6.49409 0.998248 6.53084 1.01163 6.87476 1.02876C6.90921 1.03047 6.94753 1.0324 6.99061 1.03479C7.08706 1.04015 7.16363 1.1044 7.18566 1.19845C7.19548 1.24045 7.20403 1.27788 7.21172 1.31151C7.28831 1.64723 7.30786 1.68108 7.5603 1.91526C7.58559 1.9387 7.61374 1.96483 7.6452 1.99434C7.71563 2.06046 7.73297 2.15887 7.6894 2.2451C7.66995 2.28358 7.65241 2.31776 7.63669 2.34846C7.47956 2.65488 7.47279 2.69337 7.51563 3.03504C7.51992 3.06926 7.5247 3.10737 7.52981 3.15019C7.54127 3.24612 7.4913 3.33267 7.4025 3.37069C7.36284 3.38765 7.32745 3.40258 7.29565 3.41599C6.97833 3.5497 6.9484 3.57483 6.76158 3.86414C6.74288 3.89311 6.72206 3.92536 6.69846 3.96143C6.64559 4.04226 6.55167 4.07648 6.45921 4.04852C6.41794 4.03605 6.38126 4.02473 6.3483 4.01456C6.18377 3.9638 6.09173 3.93841 5.9997 3.93841C5.90766 3.93841 5.81562 3.9638 5.65111 4.01456C5.61816 4.02473 5.58148 4.03605 5.5402 4.04852C5.44774 4.07644 5.35378 4.04231 5.30093 3.96143C5.27733 3.92536 5.25649 3.89308 5.23779 3.86412C5.05099 3.57483 5.02104 3.5497 4.70372 3.41599C4.67194 3.40261 4.63655 3.38768 4.59689 3.37071C4.50809 3.33269 4.45814 3.24614 4.46958 3.15021C4.47471 3.10739 4.47947 3.06928 4.48376 3.03506C4.5266 2.69339 4.51983 2.6549 4.3627 2.34848C4.34698 2.3178 4.32945 2.28363 4.30999 2.24512C4.26647 2.15887 4.28381 2.06046 4.35424 1.99434ZM5.99972 3.67865C6.72267 3.67865 7.31084 3.09049 7.31084 2.36751C7.31084 1.64456 6.72267 1.0564 5.99972 1.0564C5.27677 1.0564 4.6886 1.64456 4.6886 2.36751C4.6886 3.09049 5.27677 3.67865 5.99972 3.67865ZM5.99972 1.43365C6.51466 1.43365 6.93359 1.85259 6.93359 2.36751C6.93359 2.88246 6.51464 3.30138 5.99972 3.30138C5.4848 3.30138 5.06585 2.88244 5.06585 2.36751C5.06585 1.85259 5.48477 1.43365 5.99972 1.43365ZM5.64645 2.84015L5.33862 2.53233C5.26495 2.45866 5.26495 2.33922 5.33862 2.26558C5.41228 2.19194 5.53172 2.19192 5.60536 2.26558L5.78611 2.44633L6.40069 1.88862C6.47782 1.81858 6.59712 1.82437 6.66713 1.90155C6.73713 1.97869 6.73134 2.09798 6.65419 2.16799L5.90655 2.84646C5.87053 2.87915 5.82513 2.8954 5.77983 2.8954C5.73145 2.8954 5.68317 2.87688 5.64645 2.84015ZM10.1593 2.16919C9.22866 2.16919 8.47153 2.92631 8.47153 3.85697C8.47153 4.7876 9.22866 5.54475 10.1593 5.54475C11.0899 5.54475 11.8471 4.7876 11.8471 3.85697C11.8471 2.92631 11.0899 2.16919 10.1593 2.16919ZM10.1593 5.1675C9.43669 5.1675 8.84878 4.57959 8.84878 3.85697C8.84878 3.13434 9.43669 2.54644 10.1593 2.54644C10.8819 2.54644 11.4698 3.13434 11.4698 3.85697C11.4698 4.57959 10.8819 5.1675 10.1593 5.1675ZM10.8249 4.18516C10.8421 4.32731 10.8036 4.45751 10.7135 4.56173C10.6285 4.65998 10.498 4.73065 10.348 4.76287V4.80562C10.348 4.90978 10.2635 4.99425 10.1593 4.99425C10.0552 4.99425 9.97071 4.90978 9.97071 4.80562V4.75962C9.73317 4.70121 9.55235 4.53445 9.49538 4.30584C9.47018 4.20476 9.53168 4.10238 9.63277 4.07719C9.73378 4.05204 9.8362 4.11351 9.8614 4.21458C9.89759 4.3598 10.0521 4.4084 10.1744 4.40501C10.2801 4.4025 10.3844 4.36544 10.4281 4.31494C10.4422 4.29865 10.4558 4.27591 10.4503 4.23063C10.4451 4.18779 10.4329 4.08743 10.1301 4.03769C9.6348 3.95637 9.54776 3.67434 9.53995 3.51347C9.52727 3.25251 9.69909 3.03293 9.97069 2.95776V2.90829C9.97069 2.80411 10.0551 2.71966 10.1593 2.71966C10.2635 2.71966 10.3479 2.80411 10.3479 2.90829V2.95605C10.523 3.00265 10.6868 3.11946 10.7746 3.32852C10.8149 3.42457 10.7697 3.53512 10.6737 3.57546C10.5776 3.6158 10.4671 3.57063 10.4268 3.47458C10.3559 3.30576 10.1801 3.29627 10.0874 3.31732C10.0458 3.32674 9.91059 3.36745 9.91678 3.49519C9.91845 3.52971 9.9229 3.62137 10.1912 3.66544C10.5775 3.72886 10.7907 3.90372 10.8249 4.18516ZM1.84013 5.54475C2.77078 5.54475 3.52791 4.7876 3.52791 3.85697C3.52791 2.92633 2.77078 2.16919 1.84013 2.16919C0.909492 2.16919 0.152344 2.92631 0.152344 3.85697C0.152344 4.7876 0.909492 5.54475 1.84013 5.54475ZM1.84013 2.54644C2.56275 2.54644 3.15068 3.13434 3.15068 3.85697C3.15068 4.57959 2.56277 5.1675 1.84013 5.1675C1.11748 5.1675 0.529594 4.57959 0.529594 3.85697C0.529594 3.13434 1.1175 2.54644 1.84013 2.54644ZM1.09636 4.50752C1.071 4.60076 1.10515 4.69772 1.18331 4.75455C1.26148 4.81137 1.36425 4.81397 1.44525 4.76097L1.84015 4.50244L2.23516 4.76102C2.27395 4.7864 2.31773 4.79901 2.36147 4.79899C2.40895 4.79899 2.45632 4.78411 2.49703 4.75453C2.5752 4.69769 2.6093 4.60071 2.58394 4.50752L2.46012 4.05206L2.82804 3.75635C2.90337 3.69579 2.93276 3.59723 2.90287 3.50531C2.87299 3.41339 2.79131 3.35093 2.69477 3.34624L2.22333 3.32327L2.0558 2.88199C2.02153 2.79173 1.9369 2.7334 1.8402 2.7334C1.74349 2.7334 1.65886 2.79173 1.62459 2.88199L1.45706 3.32327L0.985617 3.34624C0.889055 3.35093 0.807375 3.41339 0.777492 3.50533C0.747609 3.59728 0.777 3.69581 0.852352 3.75635L1.22025 4.05206L1.09636 4.50752ZM1.5712 3.69537C1.66277 3.69091 1.743 3.63265 1.77562 3.54687L1.84015 3.37692L1.90472 3.54696C1.9373 3.63267 2.01752 3.69091 2.10907 3.69537L2.29066 3.70422L2.14903 3.81806C2.07748 3.87551 2.0468 3.96984 2.07089 4.05837L2.11859 4.23382L1.96648 4.13426C1.92811 4.10913 1.88414 4.09657 1.84015 4.09657C1.79618 4.09657 1.75221 4.10911 1.71382 4.13423L1.56171 4.23382L1.60943 4.05832C1.63348 3.9698 1.6028 3.87548 1.53136 3.81811L1.38966 3.7042L1.5712 3.69537ZM4.01981 6.87743C4.09348 6.95112 4.09348 7.07053 4.01981 7.14419C3.98297 7.18101 3.93471 7.19944 3.88643 7.19944C3.83815 7.19944 3.78989 7.18101 3.75305 7.14419L2.85759 6.24874C2.78393 6.17505 2.78393 6.05564 2.85759 5.98198C2.93126 5.90833 3.0507 5.90833 3.12434 5.98198L4.01981 6.87743ZM5.99972 5.7413C6.1039 5.7413 6.18834 5.82576 6.18834 5.92992V7.19627C6.18834 7.30045 6.1039 7.3849 5.99972 7.3849C5.89554 7.3849 5.81109 7.30043 5.81109 7.19627V5.92992C5.81109 5.82574 5.89554 5.7413 5.99972 5.7413ZM7.97967 6.87743L8.87512 5.98198C8.94879 5.90833 9.06823 5.90833 9.14187 5.98198C9.21553 6.05566 9.21553 6.17508 9.14187 6.24874L8.24641 7.14419C8.20959 7.18101 8.16131 7.19944 8.11303 7.19944C8.06475 7.19944 8.01649 7.18101 7.97965 7.14419C7.90601 7.07053 7.90601 6.95112 7.97967 6.87743Z" fill="#795E20"/>
</g>
<defs>
<clipPath id="clip0_1110_3419">
<rect width="12" height="12" fill="white"/>
</clipPath>
</defs>
</svg>
