<svg width="16" height="16" viewBox="0 0 16 16" fill="none" xmlns="http://www.w3.org/2000/svg">
<g clip-path="url(#clip0_2012_9124)">
<path d="M14.5938 0.9375H14.125V0.46875C14.125 0.209875 13.9151 0 13.6562 0C13.3974 0 13.1875 0.209875 13.1875 0.46875V0.9375H11.2812V0.46875C11.2812 0.209875 11.0714 0 10.8125 0C10.5536 0 10.3438 0.209875 10.3438 0.46875V0.9375H8.46875V0.46875C8.46875 0.209875 8.25887 0 8 0C7.74113 0 7.53125 0.209875 7.53125 0.46875V0.9375H5.65625V0.46875C5.65625 0.209875 5.44637 0 5.1875 0C4.92863 0 4.71875 0.209875 4.71875 0.46875V0.9375H2.8125V0.46875C2.8125 0.209875 2.60262 0 2.34375 0C2.08488 0 1.875 0.209875 1.875 0.46875V0.9375H1.40625C0.630844 0.9375 0 1.56834 0 2.34375C0 2.918 0 13.9488 0 14.5938C0 15.3692 0.630844 16 1.40625 16H14.5938C15.3692 16 16 15.3692 16 14.5938C16 13.9486 16 2.91772 16 2.34375C16 1.56834 15.3692 0.9375 14.5938 0.9375ZM15.0625 14.5938C15.0625 14.8522 14.8522 15.0625 14.5938 15.0625H1.40625C1.14778 15.0625 0.9375 14.8522 0.9375 14.5938V4.6875H15.0625V14.5938ZM15.0625 3.75H0.9375V2.34375C0.9375 2.08528 1.14778 1.875 1.40625 1.875H1.875V2.34375C1.875 2.60262 2.08488 2.8125 2.34375 2.8125C2.60262 2.8125 2.8125 2.60262 2.8125 2.34375V1.875H4.71875V2.34375C4.71875 2.60262 4.92863 2.8125 5.1875 2.8125C5.44637 2.8125 5.65625 2.60262 5.65625 2.34375V1.875H7.53125V2.34375C7.53125 2.60262 7.74113 2.8125 8 2.8125C8.25887 2.8125 8.46875 2.60262 8.46875 2.34375V1.875H10.3438V2.34375C10.3438 2.60262 10.5536 2.8125 10.8125 2.8125C11.0714 2.8125 11.2812 2.60262 11.2812 2.34375V1.875H13.1875V2.34375C13.1875 2.60262 13.3974 2.8125 13.6562 2.8125C13.9151 2.8125 14.125 2.60262 14.125 2.34375V1.875H14.5938C14.8522 1.875 15.0625 2.08528 15.0625 2.34375V3.75Z" fill="#666666"/>
<path d="M11.75 13.1875H11.2812V11.7812C11.2812 11.0058 10.6504 10.375 9.875 10.375H8.46875V9.32563C9.01434 9.13213 9.40625 8.61109 9.40625 8C9.40625 7.76181 9.33825 7.51906 9.26838 7.39697L8.40681 5.89209C8.32328 5.74622 8.16806 5.65625 8 5.65625C7.83194 5.65625 7.67672 5.74622 7.59319 5.89209L6.73163 7.39697C6.66291 7.51706 6.59375 7.75859 6.59375 8C6.59375 8.61109 6.98566 9.13213 7.53125 9.32563V10.375H6.125C5.34959 10.375 4.71875 11.0058 4.71875 11.7812V13.1875H4.25C3.99112 13.1875 3.78125 13.3974 3.78125 13.6562C3.78125 13.9151 3.99112 14.125 4.25 14.125C4.49988 14.125 11.3601 14.125 11.75 14.125C12.0089 14.125 12.2188 13.9151 12.2188 13.6562C12.2188 13.3974 12.0089 13.1875 11.75 13.1875ZM7.56075 7.83559L8 7.06841L8.43925 7.83559C8.45884 7.88784 8.46875 7.94303 8.46875 8C8.46875 8.25847 8.25847 8.46875 8 8.46875C7.74153 8.46875 7.53125 8.25847 7.53125 8C7.53125 7.94306 7.54116 7.88787 7.56075 7.83559ZM10.3438 13.1875H5.65625V11.7812C5.65625 11.5228 5.86653 11.3125 6.125 11.3125H9.875C10.1335 11.3125 10.3438 11.5228 10.3438 11.7812V13.1875Z" fill="#666666"/>
</g>
<defs>
<clipPath id="clip0_2012_9124">
<rect width="16" height="16" fill="white"/>
</clipPath>
</defs>
</svg>
