<svg width="40" height="40" viewBox="0 0 40 40" fill="none" xmlns="http://www.w3.org/2000/svg">
<path d="M33.8489 22.603C34.0484 22.2838 34.1363 21.9074 34.0987 21.5328C34.0611 21.1583 33.9002 20.8068 33.6413 20.5335C33.3823 20.2603 33.04 20.0808 32.668 20.0231C32.296 19.9655 31.9154 20.033 31.5859 20.2151L18.9708 3.54273C18.7259 3.23842 18.4199 2.98884 18.0726 2.81011C17.7252 2.63138 17.3443 2.52747 16.9543 2.50508C16.5643 2.48269 16.174 2.54233 15.8085 2.68015C15.443 2.81796 15.1105 3.03089 14.8324 3.30518L4.51768 13.6136C4.24242 13.8938 4.02915 14.2287 3.89171 14.5966C3.75427 14.9646 3.69574 15.3573 3.71991 15.7493C3.74408 16.1413 3.85042 16.5239 4.03201 16.8721C4.21361 17.2204 4.46641 17.5266 4.774 17.7708L19.9335 29.2357C20.0663 29.3317 20.2316 29.3717 20.3936 29.3471C20.5557 29.3225 20.7016 29.2352 20.7999 29.1041C20.8982 28.973 20.9412 28.8085 20.9194 28.646C20.8977 28.4836 20.813 28.3361 20.6836 28.2355L5.53665 16.7768C5.36896 16.6424 5.23138 16.4743 5.13283 16.2833C5.03428 16.0924 4.97696 15.8828 4.96458 15.6683C4.9522 15.4537 4.98504 15.239 5.06097 15.038C5.13691 14.8369 5.25424 14.6541 5.40536 14.5013L15.7201 4.1866C15.8718 4.03683 16.0532 3.92035 16.2525 3.84461C16.4519 3.76886 16.6648 3.73551 16.8778 3.74669C17.0907 3.75786 17.299 3.81332 17.4893 3.90951C17.6796 4.0057 17.8478 4.14052 17.9831 4.30535L30.6483 21.0465L21.6963 29.9984C21.4051 30.2961 21.2332 30.6902 21.2131 31.1061C21.1931 31.5221 21.3262 31.9309 21.5874 32.2552C21.8486 32.5796 22.2196 32.7969 22.6302 32.866C23.0409 32.9351 23.4626 32.8512 23.8155 32.6302C24.6457 33.4382 25.7597 33.8883 26.9182 33.8836C28.0767 33.8789 29.187 33.4199 30.0106 32.6052L33.8177 28.7919C34.6345 27.9711 35.0957 26.8618 35.1015 25.7039C35.1074 24.5459 34.6574 23.4321 33.8489 22.603ZM23.2217 31.5237C23.1356 31.6056 23.0209 31.6505 22.9021 31.649C22.7833 31.6475 22.6698 31.5996 22.5858 31.5156C22.5019 31.4316 22.454 31.3181 22.4525 31.1993C22.451 31.0806 22.496 30.9659 22.5778 30.8798L32.0923 21.3653C32.1774 21.2826 32.2916 21.2366 32.4102 21.2372C32.5289 21.2378 32.6426 21.2849 32.7269 21.3684C32.8112 21.4519 32.8594 21.5651 32.8612 21.6837C32.8629 21.8024 32.818 21.917 32.7362 22.0029L32.5674 22.178C32.5671 22.181 23.2311 31.5123 23.2217 31.5237ZM32.1111 28.7294L31.4672 29.3733C31.4117 29.3059 31.3427 29.2509 31.2646 29.2118C31.1866 29.1726 31.1012 29.1503 31.0141 29.1461C30.9269 29.1419 30.8398 29.156 30.7583 29.1874C30.6769 29.2189 30.603 29.267 30.5412 29.3288C30.4795 29.3905 30.4314 29.4644 30.3999 29.5459C30.3685 29.6273 30.3544 29.7144 30.3586 29.8016C30.3627 29.8888 30.3851 29.9741 30.4243 30.0522C30.4634 30.1302 30.5184 30.1992 30.5857 30.2547L29.9481 30.8986L29.8919 30.8486C29.8316 30.7907 29.7604 30.7456 29.6824 30.7157C29.6043 30.6859 29.5211 30.6721 29.4377 30.675C29.3542 30.6779 29.2722 30.6975 29.1964 30.7327C29.1207 30.7679 29.0527 30.818 28.9967 30.8799C28.9406 30.9418 28.8976 31.0143 28.87 31.0932C28.8425 31.172 28.8311 31.2556 28.8365 31.339C28.8418 31.4223 28.8638 31.5037 28.9012 31.5784C28.9386 31.6531 28.9906 31.7195 29.0542 31.7737C28.4715 32.3276 27.6983 32.6364 26.8943 32.6364C26.0904 32.6364 25.3172 32.3276 24.7345 31.7737L32.9863 23.522C34.1178 24.6535 34.1553 26.8602 32.9425 27.7979C32.882 27.7396 32.8103 27.694 32.7318 27.6641C32.6533 27.6341 32.5695 27.6203 32.4855 27.6234C32.4015 27.6266 32.319 27.6466 32.243 27.6824C32.1669 27.7182 32.0989 27.769 32.0429 27.8317C31.9869 27.8944 31.9442 27.9677 31.9172 28.0474C31.8903 28.127 31.8797 28.2112 31.886 28.295C31.8924 28.3788 31.9156 28.4605 31.9543 28.5351C31.9929 28.6098 32.0463 28.6758 32.1111 28.7294Z" fill="#141005"/>
<path d="M16.1328 5.54449L6.75582 14.916C6.64248 15.034 6.57992 15.1918 6.58158 15.3554C6.58323 15.519 6.64897 15.6755 6.76468 15.7912C6.88039 15.9069 7.03685 15.9726 7.20047 15.9742C7.36409 15.9759 7.52184 15.9133 7.63984 15.7999L17.0168 6.42848C17.1302 6.31047 17.1928 6.15271 17.1912 5.98907C17.1895 5.82543 17.1238 5.66895 17.0081 5.55323C16.8923 5.43751 16.7359 5.37178 16.5722 5.37015C16.4086 5.36851 16.2508 5.43111 16.1328 5.54449Z" fill="#141005"/>
<path d="M33.3527 33.9307C33.1885 33.933 33.0318 34 32.9165 34.1169C32.8012 34.2339 32.7366 34.3916 32.7366 34.5558C32.7366 34.7201 32.8012 34.8777 32.9165 34.9947C33.0318 35.1117 33.1885 35.1786 33.3527 35.1809C33.517 35.1785 33.6737 35.1116 33.7889 34.9947C33.9042 34.8777 33.9689 34.72 33.9689 34.5558C33.9689 34.3915 33.9042 34.2339 33.7889 34.1169C33.6736 33.9999 33.5169 33.933 33.3527 33.9307Z" fill="#141005"/>
<path d="M33.3527 31.6113C33.1885 31.6138 33.0319 31.6807 32.9167 31.7977C32.8014 31.9147 32.7368 32.0723 32.7368 32.2365C32.7368 32.4007 32.8014 32.5583 32.9167 32.6753C33.0319 32.7922 33.1886 32.8592 33.3528 32.8616C33.517 32.8592 33.6736 32.7922 33.7888 32.6752C33.9041 32.5583 33.9687 32.4006 33.9687 32.2364C33.9687 32.0722 33.9041 31.9146 33.7888 31.7977C33.6736 31.6807 33.5169 31.6138 33.3527 31.6113Z" fill="#141005"/>
<path d="M33.3527 36.2495C33.1885 36.2519 33.0318 36.3188 32.9165 36.4358C32.8012 36.5528 32.7366 36.7104 32.7366 36.8747C32.7366 37.0389 32.8012 37.1966 32.9165 37.3135C33.0318 37.4305 33.1885 37.4974 33.3527 37.4998C33.517 37.4974 33.6737 37.4305 33.7889 37.3135C33.9042 37.1965 33.9689 37.0389 33.9689 36.8746C33.9689 36.7104 33.9042 36.5527 33.7889 36.4358C33.6736 36.3188 33.5169 36.2519 33.3527 36.2495Z" fill="#141005"/>
<path d="M35.672 36.2495C35.5078 36.2519 35.3511 36.3188 35.2358 36.4358C35.1205 36.5528 35.0559 36.7104 35.0559 36.8747C35.0559 37.0389 35.1206 37.1966 35.2358 37.3135C35.3511 37.4305 35.5078 37.4974 35.6721 37.4998C35.8363 37.4974 35.993 37.4305 36.1083 37.3135C36.2236 37.1965 36.2882 37.0389 36.2882 36.8746C36.2882 36.7104 36.2235 36.5527 36.1083 36.4358C35.993 36.3188 35.8363 36.2519 35.672 36.2495Z" fill="#141005"/>
<path d="M35.6721 35.1809C35.8358 35.1778 35.9917 35.1105 36.1064 34.9936C36.2211 34.8767 36.2853 34.7195 36.2853 34.5558C36.2853 34.392 36.221 34.2348 36.1064 34.1179C35.9917 34.0011 35.8358 33.9338 35.672 33.9307C35.5083 33.9338 35.3524 34.0011 35.2377 34.118C35.1231 34.2349 35.0588 34.3921 35.0588 34.5558C35.0588 34.7196 35.1231 34.8768 35.2378 34.9937C35.3524 35.1105 35.5084 35.1778 35.6721 35.1809Z" fill="#141005"/>
<path d="M31.0329 33.9307C30.8686 33.933 30.712 34 30.5967 34.1169C30.4814 34.2339 30.4167 34.3916 30.4167 34.5558C30.4168 34.7201 30.4814 34.8777 30.5967 34.9947C30.712 35.1117 30.8687 35.1786 31.0329 35.1809C31.1971 35.1785 31.3538 35.1116 31.4691 34.9947C31.5844 34.8777 31.649 34.72 31.649 34.5558C31.649 34.3915 31.5844 34.2339 31.4691 34.1169C31.3538 33.9999 31.1971 33.933 31.0329 33.9307Z" fill="#141005"/>
</svg>
