<svg width="32" height="32" viewBox="0 0 32 32" fill="none" xmlns="http://www.w3.org/2000/svg">
<path d="M16.0001 25.0688H5.2101C3.9361 25.0688 2.9001 24.0328 2.9001 22.7588V8.0198C2.9001 6.7458 3.9361 5.7098 5.2101 5.7098H7.3821V6.2538C7.3821 6.7508 7.7851 7.1538 8.2821 7.1538C8.7791 7.1538 9.1821 6.7508 9.1821 6.2538V5.7098H19.9461V6.2538C19.9461 6.7508 20.3491 7.1538 20.8461 7.1538C21.3431 7.1538 21.7461 6.7508 21.7461 6.2538V5.7098H23.9101C25.1831 5.7098 26.2201 6.7458 26.2201 8.0198V14.4498C26.2201 14.9468 26.6231 15.3498 27.1201 15.3498C27.6171 15.3498 28.0201 14.9468 28.0201 14.4498V8.0198C28.0201 5.7538 26.1761 3.9098 23.9101 3.9098H21.7461V3.4498C21.7461 2.9528 21.3431 2.5498 20.8461 2.5498C20.3491 2.5498 19.9461 2.9528 19.9461 3.4498V3.9098H9.1821V3.4498C9.1821 2.9528 8.7791 2.5498 8.2821 2.5498C7.7851 2.5498 7.3821 2.9528 7.3821 3.4498V3.9098H5.2101C2.9441 3.9098 1.1001 5.7538 1.1001 8.0198V22.7598C1.1001 25.0268 2.9441 26.8698 5.2101 26.8698H16.0001C16.4971 26.8698 16.9001 26.4668 16.9001 25.9698C16.9001 25.4728 16.4971 25.0688 16.0001 25.0688Z" fill="#0D0D0D"/>
<path d="M8.09418 12.2437C7.52018 12.2437 7.05518 12.7087 7.05518 13.2827C7.05518 13.8567 7.52018 14.3217 8.09418 14.3217C8.66818 14.3217 9.13318 13.8567 9.13318 13.2827C9.13318 12.7087 8.66818 12.2437 8.09418 12.2437Z" fill="#0D0D0D"/>
<path d="M14.5629 12.2437C13.9889 12.2437 13.5239 12.7087 13.5239 13.2827C13.5239 13.8567 13.9889 14.3217 14.5629 14.3217C15.1369 14.3217 15.6019 13.8567 15.6019 13.2827C15.6019 12.7087 15.1359 12.2437 14.5629 12.2437Z" fill="#0D0D0D"/>
<path d="M19.9922 13.2827C19.9922 13.8567 20.4572 14.3217 21.0312 14.3217C21.6052 14.3217 22.0702 13.8567 22.0702 13.2827C22.0702 12.7087 21.6052 12.2437 21.0312 12.2437C20.4572 12.2437 19.9922 12.7087 19.9922 13.2827Z" fill="#0D0D0D"/>
<path d="M8.09418 17.9048C7.52018 17.9048 7.05518 18.3698 7.05518 18.9438C7.05518 19.5178 7.52018 19.9828 8.09418 19.9828C8.66818 19.9828 9.13318 19.5178 9.13318 18.9438C9.13318 18.3698 8.66818 17.9048 8.09418 17.9048Z" fill="#0D0D0D"/>
<path d="M14.5629 17.9048C13.9889 17.9048 13.5239 18.3698 13.5239 18.9438C13.5239 19.5178 13.9889 19.9828 14.5629 19.9828C15.1369 19.9828 15.6019 19.5178 15.6019 18.9438C15.6019 18.3698 15.1359 17.9048 14.5629 17.9048Z" fill="#0D0D0D"/>
<path d="M24.5073 16.665C20.9823 16.665 18.1133 19.533 18.1133 23.058C18.1133 26.582 20.9813 29.451 24.5073 29.451C28.0333 29.451 30.9013 26.583 30.9013 23.058C30.9003 19.532 28.0323 16.665 24.5073 16.665ZM24.5073 27.649C21.9753 27.649 19.9143 25.589 19.9143 23.057C19.9143 20.525 21.9753 18.464 24.5073 18.464C27.0393 18.464 29.1003 20.525 29.1003 23.057C29.1003 25.589 27.0393 27.649 24.5073 27.649Z" fill="#0D0D0D"/>
<path d="M25.811 21.4206L23.839 23.0096L23.348 22.3826C23.04 21.9916 22.477 21.9236 22.084 22.2306C21.693 22.5376 21.625 23.1026 21.932 23.4946L22.986 24.8386C23.134 25.0276 23.352 25.1506 23.591 25.1776C23.625 25.1816 23.659 25.1836 23.694 25.1836C23.898 25.1836 24.098 25.1136 24.258 24.9846L26.94 22.8246C27.328 22.5116 27.388 21.9456 27.077 21.5586C26.765 21.1716 26.198 21.1076 25.811 21.4206Z" fill="#0D0D0D"/>
</svg>
