<svg width="24" height="24" viewBox="0 0 24 24" fill="none" xmlns="http://www.w3.org/2000/svg">
<path d="M12.0002 18.8017H3.9077C2.9522 18.8017 2.1752 18.0247 2.1752 17.0692V6.01498C2.1752 5.05948 2.9522 4.28248 3.9077 4.28248H5.5367V4.69048C5.5367 5.06323 5.83894 5.36548 6.2117 5.36548C6.58444 5.36548 6.88669 5.06323 6.88669 4.69048V4.28248H14.9597V4.69048C14.9597 5.06323 15.2619 5.36548 15.6347 5.36548C16.0074 5.36548 16.3097 5.06323 16.3097 4.69048V4.28248H17.9327C18.8874 4.28248 19.6652 5.05948 19.6652 6.01498V10.8375C19.6652 11.2102 19.9674 11.5125 20.3402 11.5125C20.7129 11.5125 21.0152 11.2102 21.0152 10.8375V6.01498C21.0152 4.31548 19.6322 2.93248 17.9327 2.93248H16.3097V2.58748C16.3097 2.21473 16.0074 1.91248 15.6347 1.91248C15.2619 1.91248 14.9597 2.21473 14.9597 2.58748V2.93248H6.88669V2.58748C6.88669 2.21473 6.58444 1.91248 6.2117 1.91248C5.83894 1.91248 5.5367 2.21473 5.5367 2.58748V2.93248H3.9077C2.2082 2.93248 0.825195 4.31548 0.825195 6.01498V17.07C0.825195 18.7702 2.2082 20.1525 3.9077 20.1525H12.0002C12.3729 20.1525 12.6752 19.8502 12.6752 19.4775C12.6752 19.1047 12.3729 18.8017 12.0002 18.8017Z" fill="#082133"/>
<path d="M6.07027 9.18298C5.63977 9.18298 5.29102 9.53173 5.29102 9.96223C5.29102 10.3927 5.63977 10.7415 6.07027 10.7415C6.50077 10.7415 6.84952 10.3927 6.84952 9.96223C6.84952 9.53173 6.50077 9.18298 6.07027 9.18298Z" fill="#082133"/>
<path d="M10.9228 9.18298C10.4923 9.18298 10.1436 9.53173 10.1436 9.96223C10.1436 10.3927 10.4923 10.7415 10.9228 10.7415C11.3533 10.7415 11.7021 10.3927 11.7021 9.96223C11.7021 9.53173 11.3526 9.18298 10.9228 9.18298Z" fill="#082133"/>
<path d="M14.9941 9.96223C14.9941 10.3927 15.3429 10.7415 15.7734 10.7415C16.2039 10.7415 16.5526 10.3927 16.5526 9.96223C16.5526 9.53173 16.2039 9.18298 15.7734 9.18298C15.3429 9.18298 14.9941 9.53173 14.9941 9.96223Z" fill="#082133"/>
<path d="M6.07027 13.4287C5.63977 13.4287 5.29102 13.7775 5.29102 14.208C5.29102 14.6385 5.63977 14.9872 6.07027 14.9872C6.50077 14.9872 6.84952 14.6385 6.84952 14.208C6.84952 13.7775 6.50077 13.4287 6.07027 13.4287Z" fill="#082133"/>
<path d="M10.9228 13.4287C10.4923 13.4287 10.1436 13.7775 10.1436 14.208C10.1436 14.6385 10.4923 14.9872 10.9228 14.9872C11.3533 14.9872 11.7021 14.6385 11.7021 14.208C11.7021 13.7775 11.3526 13.4287 10.9228 13.4287Z" fill="#082133"/>
<path d="M18.3805 12.4987C15.7367 12.4987 13.585 14.6497 13.585 17.2935C13.585 19.9365 15.736 22.0882 18.3805 22.0882C21.025 22.0882 23.176 19.9372 23.176 17.2935C23.1752 14.649 21.0242 12.4987 18.3805 12.4987ZM18.3805 20.7367C16.4815 20.7367 14.9357 19.1917 14.9357 17.2927C14.9357 15.3937 16.4815 13.848 18.3805 13.848C20.2795 13.848 21.8252 15.3937 21.8252 17.2927C21.8252 19.1917 20.2795 20.7367 18.3805 20.7367Z" fill="#082133"/>
<path d="M19.3581 16.0657L17.8791 17.2575L17.5109 16.7872C17.2799 16.494 16.8576 16.443 16.5629 16.6732C16.2696 16.9035 16.2186 17.3272 16.4489 17.6212L17.2394 18.6292C17.3504 18.771 17.5139 18.8632 17.6931 18.8835C17.7186 18.8865 17.7441 18.888 17.7704 18.888C17.9234 18.888 18.0734 18.8355 18.1934 18.7387L20.2049 17.1187C20.4959 16.884 20.5409 16.4595 20.3076 16.1692C20.0736 15.879 19.6484 15.831 19.3581 16.0657Z" fill="#082133"/>
</svg>
