<svg width="28" height="28" viewBox="0 0 28 28" fill="none" xmlns="http://www.w3.org/2000/svg">
<g clip-path="url(#clip0_5988_40106)">
<path d="M7.95769 18.1973L3.31789 15.5185C2.85513 15.2507 2.69648 14.6569 2.96396 14.1945L9.88083 2.21485C10.0213 1.96777 10.2365 1.80809 10.502 1.75498L16.1115 0.621913C16.6115 0.520632 17.0924 0.798062 17.2559 1.28161L19.0791 6.70633C19.1642 6.9614 19.134 7.2263 18.9922 7.47322L13.546 16.9083L12.9781 16.5805L18.4239 7.14602C18.4866 7.03687 18.4729 6.96156 18.4573 6.91448L16.6345 1.49112C16.5775 1.32268 16.4161 1.22927 16.2415 1.2646L10.6311 2.39784C10.5823 2.40762 10.5111 2.43294 10.4497 2.54079L3.53167 14.5226C3.44504 14.6722 3.49639 14.8642 3.64602 14.9507L8.28554 17.6293L7.95764 18.1972L7.95769 18.1973Z" fill="#A27E2A"/>
<path d="M7.41563 13.6107C7.33885 13.6107 7.26179 13.5839 7.19956 13.5294C7.06344 13.4099 7.04988 13.2028 7.16926 13.0667L10.9208 8.78971C11.0402 8.65349 11.2474 8.64003 11.3834 8.75942C11.5195 8.87885 11.5331 9.08601 11.4137 9.22207L7.66221 13.4991C7.59741 13.573 7.50674 13.6107 7.41563 13.6107Z" fill="#A27E2A"/>
<path d="M9.67344 14.9144C9.59672 14.9144 9.51966 14.8877 9.45743 14.8331C9.32126 14.7137 9.30769 14.5066 9.42702 14.3704L13.1785 10.0919C13.298 9.95574 13.5051 9.94218 13.6412 10.0616C13.7774 10.1809 13.7909 10.3881 13.6716 10.5242L9.92008 14.8027C9.85522 14.8767 9.76455 14.9144 9.67344 14.9144Z" fill="#A27E2A"/>
<path d="M13.4661 12.3846C13.4104 12.3846 13.3541 12.3704 13.3025 12.3406L8.50771 9.57195C8.35092 9.48139 8.29716 9.2809 8.38778 9.12406C8.47829 8.96727 8.67877 8.91351 8.83562 9.00407L13.6304 11.7727C13.7872 11.8633 13.8409 12.0638 13.7503 12.2206C13.6896 12.3258 13.5794 12.3846 13.4661 12.3846Z" fill="#A27E2A"/>
<path d="M12.1692 14.6308C12.1136 14.6308 12.0572 14.6167 12.0056 14.5869L7.21089 11.8198C7.0541 11.7293 7.00029 11.5288 7.09085 11.372C7.18136 11.2152 7.38179 11.1614 7.53869 11.2519L12.3334 14.0189C12.4902 14.1094 12.544 14.3099 12.4535 14.4668C12.3928 14.572 12.2825 14.6308 12.1692 14.6308Z" fill="#A27E2A"/>
<path d="M14.2173 7.29526C13.8571 7.29526 13.5018 7.20071 13.1815 7.01564C12.1914 6.44257 11.8504 5.17021 12.4212 4.17928C12.6991 3.69819 13.1472 3.35437 13.6831 3.21082C14.219 3.06715 14.779 3.14103 15.2597 3.41879L15.2599 3.4189C16.2504 3.9923 16.5906 5.26477 16.0182 6.25554C15.7416 6.73581 15.2942 7.07968 14.7586 7.22346C14.5796 7.27147 14.3978 7.29526 14.2173 7.29526H14.2173ZM14.2227 3.79521C14.0992 3.79521 13.9751 3.81139 13.8527 3.84421C13.486 3.94248 13.1793 4.17785 12.9891 4.50691C12.5987 5.18481 12.8321 6.05577 13.5098 6.44804C13.8386 6.63803 14.2219 6.6885 14.5886 6.59017C14.9549 6.49185 15.2609 6.25669 15.4502 5.92796C15.8421 5.24973 15.6093 4.3791 14.9317 3.98661C14.7125 3.85996 14.4692 3.79526 14.2227 3.79526L14.2227 3.79521Z" fill="#A27E2A"/>
<path d="M11.5456 26.4479C10.7493 26.4479 10.1016 25.8001 10.1016 25.0039V22.4383C10.1016 22.2573 10.2483 22.1105 10.4294 22.1105C10.6105 22.1105 10.7573 22.2573 10.7573 22.4383V25.0039C10.7573 25.4386 11.1109 25.7922 11.5456 25.7922C11.9802 25.7922 12.3339 25.4386 12.3339 25.0039V22.4787C12.3339 22.2976 12.4806 22.1508 12.6617 22.1508C12.8428 22.1508 12.9896 22.2976 12.9896 22.4787V25.0039C12.9896 25.8002 12.3418 26.4479 11.5456 26.4479Z" fill="#A27E2A"/>
<path d="M9.60942 21.6904H8.43282C7.72894 21.6904 7.15625 21.1177 7.15625 20.4138V18.8078C7.15625 18.1039 7.72894 17.5312 8.43282 17.5312H9.60942C9.79055 17.5312 9.93727 17.678 9.93727 17.8591C9.93727 18.0401 9.79049 18.1869 9.60942 18.1869H8.43282C8.09048 18.1869 7.81195 18.4654 7.81195 18.8078V20.4138C7.81195 20.7561 8.09048 21.0347 8.43282 21.0347H9.60942C9.79055 21.0347 9.93727 21.1814 9.93727 21.3625C9.93727 21.5436 9.79049 21.6904 9.60942 21.6904Z" fill="#A27E2A"/>
<path d="M22.1716 22.8623C21.9905 22.8623 21.8438 22.7156 21.8438 22.5345C21.8438 22.3534 21.9905 22.2066 22.1716 22.2066C23.6029 22.2066 24.7675 21.0422 24.7675 19.6108C24.7675 18.1795 23.6029 17.0166 22.1716 17.0166C21.9905 17.0166 21.8438 16.8698 21.8438 16.6887C21.8438 16.5077 21.9905 16.3609 22.1716 16.3609C23.9645 16.3609 25.4232 17.8188 25.4232 19.6108C25.4232 21.4029 23.9645 22.8624 22.1716 22.8624V22.8623Z" fill="#A27E2A"/>
<path d="M19.3957 25.6279C19.3472 25.6279 19.298 25.6172 19.2516 25.5944L13.5019 22.773C13.3393 22.6933 13.2722 22.4968 13.352 22.3343C13.4317 22.1717 13.6281 22.1045 13.7907 22.1844L19.5404 25.0057C19.7029 25.0854 19.77 25.2819 19.6903 25.4445C19.6333 25.5606 19.5168 25.6279 19.3957 25.6279H19.3957ZM13.6466 17.0724C13.5254 17.0724 13.4089 17.005 13.352 16.8889C13.2722 16.7263 13.3393 16.5299 13.5019 16.4502L19.2298 13.6397C19.3925 13.5598 19.5889 13.6271 19.6685 13.7896C19.7483 13.9522 19.6812 14.1486 19.5186 14.2283L13.7907 17.0388C13.7442 17.0616 13.695 17.0724 13.6466 17.0724Z" fill="#A27E2A"/>
<path d="M20.8124 27.5067C19.8819 27.5067 19.125 26.7498 19.125 25.8193V13.4038C19.125 12.4734 19.882 11.7164 20.8124 11.7164C21.7428 11.7164 22.4997 12.4734 22.4997 13.4038V25.8194C22.4997 26.7498 21.7428 27.5067 20.8124 27.5067ZM20.8124 12.3721C20.2435 12.3721 19.7807 12.8349 19.7807 13.4038V25.8193C19.7807 26.3882 20.2435 26.851 20.8124 26.851C21.3812 26.851 21.844 26.3882 21.844 25.8193V13.4038C21.844 12.835 21.3812 12.3721 20.8124 12.3721V12.3721Z" fill="#A27E2A"/>
<path d="M13.9756 22.8065H10.7272C9.93098 22.8065 9.2832 22.1587 9.2832 21.3625V17.859C9.2832 17.0637 9.93103 16.4166 10.7272 16.4166H13.9756V22.8065ZM10.7272 17.0723C10.2926 17.0723 9.93891 17.4253 9.93891 17.859V21.3625C9.93891 21.7971 10.2926 22.1508 10.7272 22.1508H13.3199V17.0724H10.7272V17.0723Z" fill="#A27E2A"/>
</g>
<defs>
<clipPath id="clip0_5988_40106">
<rect width="28" height="28" fill="white"/>
</clipPath>
</defs>
</svg>
