<svg width="32" height="32" viewBox="0 0 32 32" fill="none" xmlns="http://www.w3.org/2000/svg">
<path d="M24.5072 17.564C21.4732 17.564 19.0142 20.023 19.0142 23.057C19.0142 26.091 21.4732 28.55 24.5072 28.55C27.5412 28.55 30.0002 26.091 30.0002 23.057C30.0002 20.023 27.5412 17.564 24.5072 17.564ZM26.9392 22.823L24.2572 24.983C24.0972 25.112 23.8972 25.182 23.6932 25.182C23.6592 25.182 23.6252 25.18 23.5902 25.176C23.3512 25.149 23.1332 25.027 22.9852 24.837L21.9312 23.493C21.6242 23.101 21.6932 22.536 22.0832 22.229C22.4762 21.922 23.0392 21.991 23.3472 22.381L23.8382 23.008L25.8102 21.419C26.1982 21.106 26.7642 21.17 27.0762 21.556C27.3882 21.944 27.3272 22.511 26.9392 22.823Z" fill="black"/>
<path d="M17.5141 23.0578C17.5141 19.2018 20.6511 16.0648 24.5071 16.0648C25.7881 16.0648 26.9861 16.4168 28.0201 17.0208V8.0198C28.0201 5.7498 26.1801 3.9098 23.9101 3.9098H21.7501V3.4498C21.7501 2.9498 21.3401 2.5498 20.8501 2.5498C20.3501 2.5498 19.9501 2.9498 19.9501 3.4498V3.9098H9.1801V3.4498C9.1801 2.9498 8.7801 2.5498 8.2801 2.5498C7.7801 2.5498 7.3801 2.9498 7.3801 3.4498V3.9098H5.2101C2.9401 3.9098 1.1001 5.7498 1.1001 8.0198V22.7598C1.1001 25.0298 2.9401 26.8698 5.2101 26.8698H18.6521C17.9351 25.7718 17.5141 24.4638 17.5141 23.0578ZM21.0311 12.2438C21.6051 12.2438 22.0701 12.7088 22.0701 13.2828C22.0701 13.8568 21.6051 14.3218 21.0311 14.3218C20.4571 14.3218 19.9921 13.8568 19.9921 13.2828C19.9921 12.7088 20.4571 12.2438 21.0311 12.2438ZM8.0941 19.9828C7.5201 19.9828 7.0551 19.5178 7.0551 18.9438C7.0551 18.3698 7.5201 17.9048 8.0941 17.9048C8.6681 17.9048 9.1331 18.3698 9.1331 18.9438C9.1331 19.5178 8.6681 19.9828 8.0941 19.9828ZM8.0941 14.3218C7.5201 14.3218 7.0551 13.8568 7.0551 13.2828C7.0551 12.7088 7.5201 12.2438 8.0941 12.2438C8.6681 12.2438 9.1331 12.7088 9.1331 13.2828C9.1331 13.8568 8.6681 14.3218 8.0941 14.3218ZM14.5631 19.9828C13.9891 19.9828 13.5241 19.5178 13.5241 18.9438C13.5241 18.3698 13.9891 17.9048 14.5631 17.9048C15.1371 17.9048 15.6021 18.3698 15.6021 18.9438C15.6021 19.5178 15.1361 19.9828 14.5631 19.9828ZM14.5631 14.3218C13.9891 14.3218 13.5241 13.8568 13.5241 13.2828C13.5241 12.7088 13.9891 12.2438 14.5631 12.2438C15.1371 12.2438 15.6021 12.7088 15.6021 13.2828C15.6021 13.8568 15.1361 14.3218 14.5631 14.3218Z" fill="black"/>
</svg>
