<svg width="24" height="24" viewBox="0 0 24 24" fill="none" xmlns="http://www.w3.org/2000/svg">
<path d="M21.8297 6.81373C21.6115 6.63013 21.3548 6.49785 21.0786 6.42665C20.8025 6.35545 20.5139 6.34715 20.2341 6.40235C16.4726 6.91348 14.6788 8.26629 13.5484 9.4211H10.4516C9.32137 8.26554 7.52663 6.91273 3.76631 6.40235C3.48646 6.34705 3.19776 6.3553 2.92152 6.4265C2.64528 6.49771 2.38856 6.63004 2.17031 6.81373C1.30912 7.56523 0.890625 9.26248 0.890625 12C0.890625 14.7375 1.30912 16.4347 2.17031 17.1862C2.50363 17.4788 2.93443 17.6358 3.37781 17.6265C3.50775 17.6257 3.63749 17.616 3.76613 17.5976C7.52738 17.0865 9.32137 15.7337 10.4516 14.5789H13.5484C14.6788 15.7344 16.4734 17.0872 20.2337 17.5976C20.3624 17.616 20.4922 17.6257 20.6222 17.6265C21.0656 17.6358 21.4963 17.4787 21.8297 17.1862C22.6909 16.4347 23.1094 14.7375 23.1094 12C23.1094 9.26248 22.6909 7.56523 21.8297 6.81373ZM10.2975 12C10.2893 11.3507 10.3735 10.7036 10.5476 10.0781H13.4539C13.6282 10.7035 13.712 11.3508 13.7025 12C13.7108 12.6492 13.6265 13.2964 13.4522 13.9219H10.5469C10.3723 13.2964 10.2883 12.6492 10.2975 12ZM3.67744 16.9475C3.49047 16.9893 3.29645 16.9879 3.11008 16.9436C2.92371 16.8993 2.74988 16.8131 2.60175 16.6916C2.12063 16.2718 1.54688 15.1168 1.54688 12C1.54688 8.88316 2.12063 7.72816 2.60175 7.30835C2.74986 7.18678 2.92373 7.10056 3.11016 7.05624C3.29658 7.01193 3.49065 7.01068 3.67763 7.0526C7.19044 7.52998 8.87663 8.76485 9.936 9.83379C9.87126 10.0436 9.81873 10.2571 9.77869 10.473C8.78258 10.1187 7.75256 9.86816 6.705 9.72541C6.61935 9.71337 6.53241 9.73562 6.46309 9.78734C6.39376 9.83906 6.34766 9.91606 6.33481 10.0016C6.32196 10.0871 6.3434 10.1743 6.39447 10.2441C6.44553 10.3139 6.52209 10.3607 6.6075 10.3744C7.65787 10.516 8.68945 10.7728 9.68363 11.1401C9.65794 11.3977 9.64125 11.6839 9.64125 12C9.64125 12.3161 9.65794 12.6022 9.68363 12.8599C8.68945 13.2272 7.65787 13.484 6.6075 13.6256C6.52581 13.6381 6.45182 13.6809 6.40032 13.7455C6.34883 13.8101 6.32362 13.8918 6.32973 13.9742C6.33584 14.0567 6.37282 14.1337 6.43328 14.1901C6.49375 14.2464 6.57324 14.2778 6.65588 14.2781C6.67232 14.2782 6.68874 14.277 6.705 14.2745C7.75256 14.1318 8.78258 13.8813 9.77869 13.527C9.81873 13.7429 9.87126 13.9563 9.936 14.1662C8.87663 15.2351 7.19044 16.47 3.67744 16.9475ZM21.3981 16.6916C21.25 16.8132 21.0761 16.8994 20.8898 16.9437C20.7034 16.988 20.5093 16.9893 20.3224 16.9474C16.8094 16.47 15.1232 15.2349 14.064 14.166C14.1288 13.9563 14.1813 13.743 14.2213 13.5272C15.2174 13.8814 16.2474 14.1318 17.295 14.2745C17.3113 14.277 17.3277 14.2782 17.3441 14.2781C17.4268 14.2778 17.5063 14.2464 17.5667 14.1901C17.6272 14.1337 17.6642 14.0567 17.6703 13.9742C17.6764 13.8918 17.6512 13.8101 17.5997 13.7455C17.5482 13.6809 17.4742 13.6381 17.3925 13.6256C16.3422 13.484 15.3106 13.2273 14.3164 12.86C14.3421 12.6022 14.3588 12.3163 14.3588 12C14.3588 11.6837 14.3421 11.3977 14.3164 11.1399C15.3106 10.7727 16.3422 10.516 17.3925 10.3744C17.4779 10.3607 17.5545 10.3139 17.6055 10.2441C17.6566 10.1743 17.678 10.0871 17.6652 10.0016C17.6523 9.91606 17.6062 9.83906 17.5369 9.78734C17.4676 9.73562 17.3806 9.71337 17.295 9.72541C16.2474 9.8681 15.2174 10.1186 14.2213 10.4728C14.1813 10.257 14.1288 10.0437 14.064 9.83398C15.1232 8.76523 16.8094 7.52998 20.3228 7.05241C20.5097 7.01069 20.7036 7.01206 20.8899 7.0564C21.0762 7.10074 21.25 7.1869 21.3981 7.30835C21.8794 7.72816 22.4531 8.88335 22.4531 12C22.4531 15.1166 21.8794 16.2718 21.3981 16.6916Z" fill="#A27E2A"/>
<path d="M21.5426 14.147C21.4568 14.1328 21.3689 14.1531 21.298 14.2036C21.2272 14.2541 21.1793 14.3307 21.1648 14.4165C21.1195 14.7048 21.0513 14.9891 20.9608 15.2666C20.9328 15.349 20.9387 15.4391 20.9771 15.5172C21.0156 15.5953 21.0835 15.6549 21.1659 15.6829C21.2483 15.711 21.3384 15.7051 21.4165 15.6666C21.4946 15.6282 21.5542 15.5603 21.5822 15.4779C21.684 15.1668 21.7608 14.8481 21.8119 14.5248C21.819 14.4824 21.8177 14.4389 21.8081 14.3969C21.7984 14.3549 21.7806 14.3152 21.7556 14.2801C21.7306 14.2451 21.6989 14.2152 21.6623 14.1924C21.6258 14.1696 21.5851 14.1541 21.5426 14.147Z" fill="#A27E2A"/>
</svg>
