<svg width="18" height="18" viewBox="0 0 18 18" fill="none" xmlns="http://www.w3.org/2000/svg">
<path d="M16.3392 9.61918C15.8112 9.61918 15.3792 10.0512 15.3792 10.5792V11.8752C15.3792 13.8048 13.8048 15.3792 11.8752 15.3792H5.42401C3.49441 15.3792 1.92 13.8048 1.92 11.8752V5.42402C1.92 3.49442 3.49441 1.92 5.42401 1.92H6.71041C7.23841 1.92 7.67041 1.488 7.67041 0.96C7.67041 0.432 7.23841 0 6.71041 0H5.42401C2.42881 0 0 2.43842 0 5.42402V11.8752C0 14.8704 2.43841 17.2992 5.42401 17.2992H11.8752C14.8704 17.2992 17.2992 14.8608 17.2992 11.8752V10.5792C17.2992 10.0512 16.8672 9.61918 16.3392 9.61918Z" fill="#A27E2A"/>
</svg>
