<svg width="18" height="18" viewBox="0 0 18 18" fill="none" xmlns="http://www.w3.org/2000/svg">
<path d="M16.3392 9.61918C15.8112 9.61918 15.3792 10.0512 15.3792 10.5792V11.8752C15.3792 13.8048 13.8048 15.3792 11.8752 15.3792H5.42401C3.49441 15.3792 1.92 13.8048 1.92 11.8752V5.42402C1.92 3.49442 3.49441 1.92 5.42401 1.92H6.71041C7.23841 1.92 7.67041 1.488 7.67041 0.96C7.67041 0.432 7.23841 0 6.71041 0H5.42401C2.42881 0 0 2.43842 0 5.42402V11.8752C0 14.8704 2.43841 17.2992 5.42401 17.2992H11.8752C14.8704 17.2992 17.2992 14.8608 17.2992 11.8752V10.5792C17.2992 10.0512 16.8672 9.61918 16.3392 9.61918Z" fill="#795E20"/>
<path d="M4.10892 7.02715C3.73453 7.40155 3.73453 8.00635 4.10892 8.38075L7.23853 11.5104C7.58413 11.856 8.05452 12.0479 8.54412 12.0479H8.65932C9.18732 12.0191 9.67693 11.76 10.0033 11.3376L16.0993 3.49439C16.4257 3.07199 16.3489 2.47676 15.9361 2.15036C15.5137 1.82396 14.9185 1.90081 14.5921 2.31361L8.54412 10.0992L5.47213 7.02715C5.09773 6.65272 4.49293 6.65272 4.11853 7.02715H4.10892Z" fill="#795E20"/>
</svg>
