<svg width="68" height="68" viewBox="0 0 68 68" fill="none" xmlns="http://www.w3.org/2000/svg">
<path d="M21.7376 61.9253C21.7376 61.9253 26.9963 65.3027 27.0643 65.756C27.1323 66.2093 27.4043 67.4107 23.347 66.572C20.7403 66.028 19.5163 65.6653 18.7003 65.3707C18.5643 65.3253 18.451 65.144 18.3603 64.9173C18.1336 64.328 18.2243 63.648 18.5416 63.104L19.1763 62.0387L21.7376 61.9253Z" fill="#141005"/>
<path d="M42.8844 62.016C42.8844 62.016 49.3444 63.3307 49.5711 63.7387C49.8204 64.1693 50.5231 65.2347 46.2164 65.96C43.4511 66.4133 42.1591 66.0507 41.2298 66.0733C40.7991 66.0733 40.4364 65.756 40.4138 65.348L40.2324 63.0813L42.8844 62.016Z" fill="#141005"/>
<path d="M33.3877 13.6227C33.3877 13.6227 34.6117 14.3933 34.9064 16.2067L33.6597 16.4107L32.0957 15.0053L33.3877 13.6227Z" fill="#E9F4FC"/>
<path d="M27.0196 31.8013C27.0196 31.8013 24.1636 34.5667 25.2743 38.1253L25.5236 39.916C25.5236 39.916 24.6396 45.56 24.5716 50.116C24.5716 50.116 21.285 52.428 19.1543 61.9933C19.1543 61.9933 21.5343 63.1493 23.8236 62.7867C23.8236 62.7867 30.3743 52.7 30.6916 51.0227C31.009 49.3453 32.6863 42.0013 32.6863 42.0013L30.9183 31.5747L27.0196 31.8013Z" fill="#FAF5EB"/>
<path d="M27.948 32.1187C27.948 32.1187 25.5 32.8667 25.5 35.5867C25.5 38.216 28.8547 42.2507 28.8547 42.2507L34.68 50.7733C34.68 50.7733 34.68 54.7627 40.1653 63.308C40.0067 63.308 44.1773 62.152 44.2907 62.0613C44.2907 62.0613 41.48 50.7507 40.8 49.096C40.12 47.4413 38.1253 40.324 35.7227 36.516C35.7227 34.748 34.816 30.8493 34.816 30.8493L27.948 32.1187Z" fill="#FAF5EB"/>
<path d="M39.7578 34.2493C39.7578 34.2493 40.6645 36.924 41.0045 37.4227C41.7071 38.4427 42.9311 39.0547 43.5205 37.4227C44.1098 35.7907 42.5458 32.436 42.5458 32.436L39.7578 34.2493Z" fill="#E5B092"/>
<path d="M34.6341 17.68L39.3715 27.88C39.3715 27.88 42.7715 32.572 42.9301 33.0707C43.0661 33.5013 40.7541 34.748 40.1195 35.0653C40.0288 35.1107 39.8928 35.1333 39.8021 35.0653C39.0995 34.748 36.2888 33.3427 35.3821 31.0307C34.3395 28.356 34.6341 17.68 34.6341 17.68Z" fill="#E9F4FC"/>
<path d="M32.6857 15.3C32.6857 15.3 34.771 17.1813 35.3603 20.1733C35.9497 23.1653 35.9497 30.0107 36.403 34.816C36.403 34.816 34.2723 38.4427 28.1523 36.2213L31.6203 16.2293L32.6857 15.3Z" fill="#EFF3C1"/>
<path d="M32.3438 17.9067L34.9051 17.1133V17.9067L32.3438 18.6773V17.9067Z" fill="#E9F4FC"/>
<path d="M32.8887 19.5387L35.4727 18.7453V19.5387L32.8887 20.3093V19.5387Z" fill="#E9F4FC"/>
<path d="M33.0254 21.1707L35.6094 20.3773V21.1707L33.0254 21.9414V21.1707Z" fill="#E9F4FC"/>
<path d="M33.5684 22.78L36.1524 22.0093V22.78L33.5684 23.5507V22.78Z" fill="#E9F4FC"/>
<path d="M33.5 24.6613L36.084 23.868V24.6613L33.5 25.4093V24.6613Z" fill="#E9F4FC"/>
<path d="M31.3926 27.1773L36.6286 25.5V26.2707L31.3926 27.948V27.1773Z" fill="#E9F4FC"/>
<path d="M31.5293 28.7867L36.7653 27.132V27.9027L31.5293 29.5574V28.7867Z" fill="#E9F4FC"/>
<path d="M32.0723 30.4187L37.3083 28.7413V29.5347L32.0723 31.1893V30.4187Z" fill="#E9F4FC"/>
<path d="M31.4375 32.4814L36.6962 30.804V31.5973L31.4375 33.252V32.4814Z" fill="#E9F4FC"/>
<path d="M31.5742 34.1133L36.8102 32.436V33.2293L31.5742 34.884V34.1133Z" fill="#E9F4FC"/>
<path d="M32.1406 35.7454L37.3766 34.068V34.8614L32.1406 36.516V35.7454Z" fill="#E9F4FC"/>
<path d="M19.2662 36.5613C19.2662 36.5613 17.4302 38.7147 18.8582 40.3693C20.2862 42.024 22.3942 39.78 22.4396 37.4L19.2662 36.5613Z" fill="#E5B092"/>
<path d="M33.6608 12.988L31.7115 17.6347L29.6035 13.6227L33.6608 12.988Z" fill="#E5B092"/>
<path d="M27.2687 11.2427C27.2687 11.2427 21.3754 12.24 21.1714 17.1133C20.9447 21.9867 24.2314 18.972 24.2314 18.972L28.6287 14.416L28.878 12.988L27.2687 11.2427Z" fill="#E9F4FC"/>
<path d="M37.99 6.91333C38.6247 10.1773 36.9927 13.6907 33.7287 14.3253C30.4647 14.96 27.2913 12.8067 26.6793 9.54266C26.0447 6.27866 28.198 3.10533 31.462 2.49333C34.726 1.836 37.3553 3.62666 37.99 6.91333Z" fill="#E5B092"/>
<path d="M26.7232 3.78533C23.1419 9.13466 30.1912 13.9173 28.8765 13.0107L30.8712 11.3107C30.8712 11.3107 28.7179 9.90533 30.3725 8.72666C32.0272 7.548 31.8232 9.384 31.8232 9.384L33.4779 6.43733L36.3339 6.79999C36.3565 6.77733 37.9659 6.936 37.9885 6.89066C39.4845 4.96399 37.8072 1.74533 35.4725 2.42533C35.4725 2.40266 30.0552 -1.22401 26.7232 3.78533Z" fill="#553C32"/>
<path d="M27.5169 13.2827C27.5169 13.2827 33.5463 17.9747 33.6596 19.6293C33.7503 21.2387 33.4556 29.784 31.8916 36.5613C31.7783 37.0147 31.3703 37.3093 30.9169 37.2867C28.9676 37.1733 24.0489 36.788 22.9609 35.496C22.9609 35.4733 24.8649 15.8667 27.5169 13.2827Z" fill="#E9F4FC"/>
<path d="M26.7916 14.416C26.7916 14.416 23.8903 16.388 22.9609 17.1133C22.9609 17.1133 25.5903 18.9947 25.8849 21.148L26.7916 14.416Z" fill="#E9F4FC"/>
<path d="M22.4399 19.9013C22.4399 19.9013 28.0386 19.8107 27.7212 21.1707L33.4786 22.0093L33.6599 19.6293C33.6599 19.6293 29.0132 13.3053 27.5172 13.2827C26.0439 13.26 22.2586 15.708 22.4399 19.9013Z" fill="#1C72B0"/>
<path d="M21.2832 16.2293C21.2832 16.2293 22.3712 11.764 23.0965 11.2653C23.8219 10.7667 26.8139 11.356 26.8139 11.356L21.2832 16.2293Z" fill="#E9F4FC"/>
<path d="M32.6855 15.3C32.6855 15.3 35.2242 16.0253 36.4029 15.6627C36.4029 15.6627 37.3775 17.9747 37.8989 19.6067C39.5082 24.684 38.4882 32.3227 38.5789 35.2467C38.5789 35.2467 37.8762 36.108 36.3349 36.4253C35.9949 36.4933 35.6775 36.1987 35.7002 35.8587C35.9042 32.572 36.6069 18.0427 32.6855 15.3Z" fill="#E9F4FC"/>
<path d="M22.6435 33.7507C22.6435 33.7507 28.4462 35.1333 30.3048 35.1787C32.1635 35.224 32.1635 35.224 32.1635 35.224C32.1635 35.224 32.4808 36.1533 31.8462 37.1053C31.7102 37.2867 31.5062 37.4 31.2795 37.4C29.8062 37.3547 23.9808 37.128 22.4168 35.8587C20.6262 34.3627 22.6435 33.7507 22.6435 33.7507Z" fill="#E9F4FC"/>
<path d="M22.6208 19.2893C22.6208 19.2893 24.5928 14.4613 27.7434 16.9093C30.8941 19.3573 25.9074 28.4693 25.9074 28.4693C25.9074 28.4693 25.1821 32.5493 22.8928 36.9013C22.7114 37.2413 22.3714 37.4453 21.9861 37.4227C21.3288 37.3773 20.2408 37.2187 19.2661 36.584C18.9488 36.38 18.8128 35.9947 18.8581 35.632C19.1074 34.0453 19.8328 29.5573 20.5581 26.8373C21.4194 23.4827 22.6208 19.2893 22.6208 19.2893Z" fill="#E9F4FC"/>
<path d="M35.745 34.5893C35.745 34.5893 37.6943 34.4533 38.5556 33.728C38.5556 33.728 39.0543 34.816 38.5556 35.2693C38.057 35.7227 35.9716 37.468 35.6543 35.8813L35.745 34.5893Z" fill="#1C72B0"/>
<path d="M32.685 19.0173C32.685 19.0173 33.3877 22.1453 32.4357 25.908C32.4357 25.908 32.9344 27.0867 31.8917 30.94C31.8917 30.94 31.8464 33.7733 30.9397 35.2013C30.9397 35.2013 30.9397 36.448 30.373 37.4227C30.373 37.4227 31.3477 37.7853 31.869 37.128C32.413 36.4707 32.345 35.1787 32.345 35.1787C32.345 35.1787 32.9797 33.388 32.9797 30.9627C32.9797 30.9627 33.8184 28.288 33.4104 26.1573C33.4104 26.1573 34.113 22.508 33.6597 19.652L32.685 19.0173Z" fill="#1C72B0"/>
<path d="M22.9615 16.66C24.4121 14.0533 27.0641 13.5093 28.0161 15.3907C28.7868 16.9093 31.5975 19.72 33.6601 19.6067C33.6601 19.6067 31.1441 12.9653 26.7921 11.3333C26.7921 11.356 21.3068 15.4813 22.9615 16.66Z" fill="#E9F4FC"/>
</svg>
