<svg width="16" height="16" viewBox="0 0 16 16" fill="none" xmlns="http://www.w3.org/2000/svg">
<path d="M14.6667 1.6H13.3333V1.06667C13.3333 0.783769 13.221 0.512458 13.0209 0.312419C12.8209 0.112381 12.5496 0 12.2667 0C11.9838 0 11.7125 0.112381 11.5124 0.312419C11.3124 0.512458 11.2 0.783769 11.2 1.06667V1.6H9.06666V1.06667C9.06666 0.783769 8.95428 0.512458 8.75425 0.312419C8.55421 0.112381 8.2829 0 8 0C7.7171 0 7.44579 0.112381 7.24575 0.312419C7.04571 0.512458 6.93333 0.783769 6.93333 1.06667V1.6H4.8V1.06667C4.8 0.783769 4.68762 0.512458 4.48758 0.312419C4.28754 0.112381 4.01623 0 3.73333 0C3.45044 0 3.17912 0.112381 2.97909 0.312419C2.77905 0.512458 2.66667 0.783769 2.66667 1.06667V1.6H1.33333C0.979711 1.6 0.640573 1.74048 0.390524 1.99052C0.140476 2.24057 0 2.57971 0 2.93333V13.6C0 13.9536 0.140476 14.2928 0.390524 14.5428C0.640573 14.7929 0.979711 14.9333 1.33333 14.9333H8.8C8.87072 14.9333 8.93855 14.9052 8.98856 14.8552C9.03857 14.8052 9.06666 14.7374 9.06666 14.6667C9.06666 14.5959 9.03857 14.5281 8.98856 14.4781C8.93855 14.4281 8.87072 14.4 8.8 14.4H1.33333C1.12135 14.3994 0.918239 14.3149 0.768347 14.165C0.618455 14.0151 0.533966 13.812 0.533333 13.6V5.33333H15.4667V9.86667C15.4667 9.93739 15.4948 10.0052 15.5448 10.0552C15.5948 10.1052 15.6626 10.1333 15.7333 10.1333C15.8041 10.1333 15.8719 10.1052 15.9219 10.0552C15.9719 10.0052 16 9.93739 16 9.86667V2.93333C16 2.57971 15.8595 2.24057 15.6095 1.99052C15.3594 1.74048 15.0203 1.6 14.6667 1.6ZM11.7333 1.06667C11.7333 0.925218 11.7895 0.789562 11.8895 0.689543C11.9896 0.589524 12.1252 0.533333 12.2667 0.533333C12.4081 0.533333 12.5438 0.589524 12.6438 0.689543C12.7438 0.789562 12.8 0.925218 12.8 1.06667V2.66667C12.8 2.80812 12.7438 2.94377 12.6438 3.04379C12.5438 3.14381 12.4081 3.2 12.2667 3.2C12.1252 3.2 11.9896 3.14381 11.8895 3.04379C11.7895 2.94377 11.7333 2.80812 11.7333 2.66667V1.06667ZM7.46667 1.06667C7.46667 0.925218 7.52286 0.789562 7.62288 0.689543C7.72289 0.589524 7.85855 0.533333 8 0.533333C8.14145 0.533333 8.2771 0.589524 8.37712 0.689543C8.47714 0.789562 8.53333 0.925218 8.53333 1.06667V2.66667C8.53333 2.80812 8.47714 2.94377 8.37712 3.04379C8.2771 3.14381 8.14145 3.2 8 3.2C7.85855 3.2 7.72289 3.14381 7.62288 3.04379C7.52286 2.94377 7.46667 2.80812 7.46667 2.66667V1.06667ZM3.2 1.06667C3.2 0.925218 3.25619 0.789562 3.35621 0.689543C3.45623 0.589524 3.59188 0.533333 3.73333 0.533333C3.87478 0.533333 4.01044 0.589524 4.11046 0.689543C4.21048 0.789562 4.26667 0.925218 4.26667 1.06667V2.66667C4.26667 2.80812 4.21048 2.94377 4.11046 3.04379C4.01044 3.14381 3.87478 3.2 3.73333 3.2C3.59188 3.2 3.45623 3.14381 3.35621 3.04379C3.25619 2.94377 3.2 2.80812 3.2 2.66667V1.06667ZM15.4667 4.8H0.533333V2.93333C0.533966 2.72135 0.618455 2.51824 0.768347 2.36835C0.918239 2.21845 1.12135 2.13397 1.33333 2.13333H2.66667V2.66667C2.66667 2.94956 2.77905 3.22088 2.97909 3.42091C3.17912 3.62095 3.45044 3.73333 3.73333 3.73333C4.01623 3.73333 4.28754 3.62095 4.48758 3.42091C4.68762 3.22088 4.8 2.94956 4.8 2.66667V2.13333H6.93333V2.66667C6.93333 2.94956 7.04571 3.22088 7.24575 3.42091C7.44579 3.62095 7.7171 3.73333 8 3.73333C8.2829 3.73333 8.55421 3.62095 8.75425 3.42091C8.95428 3.22088 9.06666 2.94956 9.06666 2.66667V2.13333H11.2V2.66667C11.2 2.94956 11.3124 3.22088 11.5124 3.42091C11.7125 3.62095 11.9838 3.73333 12.2667 3.73333C12.5496 3.73333 12.8209 3.62095 13.0209 3.42091C13.221 3.22088 13.3333 2.94956 13.3333 2.66667V2.13333H14.6667C14.8786 2.13397 15.0818 2.21845 15.2317 2.36835C15.3815 2.51824 15.466 2.72135 15.4667 2.93333V4.8Z" fill="#795E20"/>
<path d="M7.46659 7.20008C7.46659 7.05863 7.41039 6.92298 7.31038 6.82296C7.21036 6.72294 7.0747 6.66675 6.93325 6.66675H5.86659C5.72514 6.66675 5.58948 6.72294 5.48946 6.82296C5.38944 6.92298 5.33325 7.05863 5.33325 7.20008V8.00008C5.33325 8.14153 5.38944 8.27719 5.48946 8.37721C5.58948 8.47722 5.72514 8.53341 5.86659 8.53341H6.93325C7.0747 8.53341 7.21036 8.47722 7.31038 8.37721C7.41039 8.27719 7.46659 8.14153 7.46659 8.00008V7.20008ZM5.86659 8.00008V7.20008H6.93325V8.00008H5.86659Z" fill="#795E20"/>
<path d="M4.26663 7.20008C4.26663 7.05863 4.21044 6.92298 4.11042 6.82296C4.0104 6.72294 3.87475 6.66675 3.7333 6.66675H2.66663C2.52519 6.66675 2.38953 6.72294 2.28951 6.82296C2.18949 6.92298 2.1333 7.05863 2.1333 7.20008V8.00008C2.1333 8.14153 2.18949 8.27719 2.28951 8.37721C2.38953 8.47722 2.52519 8.53341 2.66663 8.53341H3.7333C3.87475 8.53341 4.0104 8.47722 4.11042 8.37721C4.21044 8.27719 4.26663 8.14153 4.26663 8.00008V7.20008ZM2.66663 8.00008V7.20008H3.7333V8.00008H2.66663Z" fill="#795E20"/>
<path d="M13.3334 8.53341C13.4748 8.53341 13.6105 8.47722 13.7105 8.37721C13.8105 8.27719 13.8667 8.14153 13.8667 8.00008V7.20008C13.8667 7.05863 13.8105 6.92298 13.7105 6.82296C13.6105 6.72294 13.4748 6.66675 13.3334 6.66675H12.2667C12.1253 6.66675 11.9896 6.72294 11.8896 6.82296C11.7896 6.92298 11.7334 7.05863 11.7334 7.20008V8.00008C11.7334 8.14153 11.7896 8.27719 11.8896 8.37721C11.9896 8.47722 12.1253 8.53341 12.2667 8.53341H13.3334ZM12.2667 7.20008H13.3334V8.00008H12.2667V7.20008Z" fill="#795E20"/>
<path d="M7.46659 9.59998C7.46659 9.45853 7.41039 9.32288 7.31038 9.22286C7.21036 9.12284 7.0747 9.06665 6.93325 9.06665H5.86659C5.72514 9.06665 5.58948 9.12284 5.48946 9.22286C5.38944 9.32288 5.33325 9.45853 5.33325 9.59998V10.4C5.33325 10.5414 5.38944 10.6771 5.48946 10.7771C5.58948 10.8771 5.72514 10.9333 5.86659 10.9333H6.93325C7.0747 10.9333 7.21036 10.8771 7.31038 10.7771C7.41039 10.6771 7.46659 10.5414 7.46659 10.4V9.59998ZM5.86659 10.4V9.59998H6.93325V10.4H5.86659Z" fill="#795E20"/>
<path d="M4.26663 9.59998C4.26663 9.45853 4.21044 9.32288 4.11042 9.22286C4.0104 9.12284 3.87475 9.06665 3.7333 9.06665H2.66663C2.52519 9.06665 2.38953 9.12284 2.28951 9.22286C2.18949 9.32288 2.1333 9.45853 2.1333 9.59998V10.4C2.1333 10.5414 2.18949 10.6771 2.28951 10.7771C2.38953 10.8771 2.52519 10.9333 2.66663 10.9333H3.7333C3.87475 10.9333 4.0104 10.8771 4.11042 10.7771C4.21044 10.6771 4.26663 10.5414 4.26663 10.4V9.59998ZM2.66663 10.4V9.59998H3.7333V10.4H2.66663Z" fill="#795E20"/>
<path d="M6.93325 11.4666H5.86659C5.72514 11.4666 5.58948 11.5227 5.48946 11.6228C5.38944 11.7228 5.33325 11.8584 5.33325 11.9999V12.7999C5.33325 12.9413 5.38944 13.077 5.48946 13.177C5.58948 13.277 5.72514 13.3332 5.86659 13.3332H6.93325C7.0747 13.3332 7.21036 13.277 7.31038 13.177C7.41039 13.077 7.46659 12.9413 7.46659 12.7999V11.9999C7.46659 11.8584 7.41039 11.7228 7.31038 11.6228C7.21036 11.5227 7.0747 11.4666 6.93325 11.4666ZM5.86659 12.7999V11.9999H6.93325V12.7999H5.86659Z" fill="#795E20"/>
<path d="M9.06678 8.53341H10.1334C10.2749 8.53341 10.4106 8.47722 10.5106 8.37721C10.6106 8.27719 10.6668 8.14153 10.6668 8.00008V7.20008C10.6668 7.05863 10.6106 6.92298 10.5106 6.82296C10.4106 6.72294 10.2749 6.66675 10.1334 6.66675H9.06678C8.92533 6.66675 8.78968 6.72294 8.68966 6.82296C8.58964 6.92298 8.53345 7.05863 8.53345 7.20008V8.00008C8.53345 8.14153 8.58964 8.27719 8.68966 8.37721C8.78968 8.47722 8.92533 8.53341 9.06678 8.53341ZM9.06678 7.20008H10.1334V8.00008H9.06678V7.20008Z" fill="#795E20"/>
<path d="M8.53345 10.4C8.53345 10.5414 8.58964 10.6771 8.68966 10.7771C8.78968 10.8771 8.92533 10.9333 9.06678 10.9333C9.1375 10.9333 9.20533 10.9052 9.25534 10.8552C9.30535 10.8052 9.33345 10.7374 9.33345 10.6667C9.33345 10.5959 9.30535 10.5281 9.25534 10.4781C9.20533 10.4281 9.1375 10.4 9.06678 10.4V9.59998H10.1334C10.2042 9.59998 10.272 9.57189 10.322 9.52188C10.372 9.47187 10.4001 9.40404 10.4001 9.33332C10.4001 9.26259 10.372 9.19476 10.322 9.14476C10.272 9.09475 10.2042 9.06665 10.1334 9.06665H9.06678C8.92533 9.06665 8.78968 9.12284 8.68966 9.22286C8.58964 9.32288 8.53345 9.45853 8.53345 9.59998V10.4Z" fill="#795E20"/>
<path d="M3.7333 11.4666H2.66663C2.52519 11.4666 2.38953 11.5227 2.28951 11.6228C2.18949 11.7228 2.1333 11.8584 2.1333 11.9999V12.7999C2.1333 12.9413 2.18949 13.077 2.28951 13.177C2.38953 13.277 2.52519 13.3332 2.66663 13.3332H3.7333C3.87475 13.3332 4.0104 13.277 4.11042 13.177C4.21044 13.077 4.26663 12.9413 4.26663 12.7999V11.9999C4.26663 11.8584 4.21044 11.7228 4.11042 11.6228C4.0104 11.5227 3.87475 11.4666 3.7333 11.4666ZM2.66663 12.7999V11.9999H3.7333V12.7999H2.66663Z" fill="#795E20"/>
<path d="M12.5333 9.06665C11.8477 9.06665 11.1774 9.26997 10.6073 9.65089C10.0373 10.0318 9.59292 10.5732 9.33054 11.2067C9.06815 11.8401 8.9995 12.5372 9.13326 13.2096C9.26702 13.8821 9.59719 14.4998 10.082 14.9846C10.5668 15.4694 11.1845 15.7996 11.857 15.9334C12.5295 16.0671 13.2265 15.9985 13.86 15.7361C14.4934 15.4737 15.0348 15.0294 15.4157 14.4593C15.7967 13.8892 16 13.219 16 12.5333C15.9989 11.6142 15.6333 10.7331 14.9835 10.0832C14.3336 9.43329 13.4524 9.06771 12.5333 9.06665ZM12.5333 15.4667C11.9532 15.4667 11.386 15.2946 10.9036 14.9723C10.4213 14.65 10.0453 14.1919 9.82327 13.6559C9.60126 13.1199 9.54316 12.5301 9.65635 11.9611C9.76953 11.392 10.0489 10.8694 10.4591 10.4591C10.8694 10.0489 11.392 9.76953 11.9611 9.65635C12.5301 9.54316 13.1199 9.60125 13.6559 9.82327C14.1919 10.0453 14.65 10.4213 14.9723 10.9036C15.2946 11.386 15.4667 11.9532 15.4667 12.5333C15.4657 13.311 15.1564 14.0566 14.6065 14.6065C14.0566 15.1564 13.311 15.4657 12.5333 15.4667Z" fill="#795E20"/>
<path d="M14.0742 11.4152L12.0001 13.4893L11.0574 12.5464C11.0071 12.4978 10.9397 12.4709 10.8698 12.4715C10.7999 12.4721 10.733 12.5002 10.6836 12.5496C10.6341 12.5991 10.6061 12.666 10.6055 12.7359C10.6049 12.8058 10.6317 12.8732 10.6803 12.9235L11.8115 14.0549C11.8615 14.1049 11.9293 14.133 12.0001 14.133C12.0708 14.133 12.1386 14.1049 12.1886 14.0549L14.4513 11.7923C14.4998 11.742 14.5267 11.6746 14.5261 11.6047C14.5255 11.5348 14.4975 11.4679 14.448 11.4184C14.3986 11.369 14.3317 11.3409 14.2618 11.3403C14.1918 11.3397 14.1245 11.3666 14.0742 11.4152Z" fill="#795E20"/>
</svg>
