<svg width="24" height="24" viewBox="0 0 24 24" fill="none" xmlns="http://www.w3.org/2000/svg">
<path d="M11.9801 22.3262C10.6217 22.3287 9.27633 22.0627 8.02111 21.5437C6.76589 21.0246 5.62565 20.2625 4.66587 19.3013C0.632211 15.2677 0.632211 8.70492 4.66587 4.67128C5.6242 3.70755 6.7642 2.94347 8.01984 2.42327C9.27544 1.90306 10.6218 1.63706 11.9809 1.64066C14.7442 1.64066 17.342 2.71652 19.2951 4.67128C21.249 6.62522 22.3257 9.22298 22.3257 11.9863C22.3257 14.7496 21.2498 17.3474 19.2951 19.3013C18.3352 20.2625 17.1947 21.0246 15.9394 21.5437C14.6841 22.0627 13.3385 22.3287 11.9801 22.3262ZM11.9809 3.29583C10.8392 3.29259 9.70819 3.51592 8.65341 3.9529C7.59862 4.38987 6.64101 5.0318 5.83608 5.84147C4.19497 7.48261 3.29124 9.66492 3.29124 11.9863C3.29124 14.3077 4.19497 16.4892 5.83608 18.1312C9.2242 21.5193 14.7376 21.5201 18.1249 18.1312C19.766 16.4901 20.6706 14.3077 20.6706 11.9863C20.6706 9.66492 19.7668 7.4834 18.1249 5.84147C17.3199 5.03203 16.3625 4.39027 15.3079 3.95331C14.2532 3.51635 13.1225 3.29288 11.9809 3.29583Z" fill="#082133"/>
<path d="M8.46921 16.3241C8.30538 16.3244 8.14512 16.2761 8.00881 16.1853C7.87249 16.0944 7.76623 15.965 7.70356 15.8137C7.64084 15.6623 7.62457 15.4957 7.65668 15.3351C7.68884 15.1744 7.76801 15.027 7.88412 14.9114L14.9062 7.88932C14.983 7.81249 15.0742 7.75155 15.1746 7.70993C15.275 7.66835 15.3826 7.64697 15.4913 7.64697C15.5999 7.64697 15.7076 7.66835 15.8079 7.70993C15.9083 7.75155 15.9995 7.81249 16.0764 7.88932C16.1532 7.96614 16.2142 8.05736 16.2558 8.15777C16.2973 8.25818 16.3188 8.36575 16.3188 8.47441C16.3188 8.58307 16.2973 8.69069 16.2558 8.7911C16.2142 8.89146 16.1532 8.98268 16.0764 9.0595L9.05431 16.0816C8.97766 16.1587 8.88649 16.2198 8.78604 16.2615C8.68563 16.3031 8.57792 16.3244 8.46921 16.3241Z" fill="#082133"/>
<path d="M15.4921 16.324C15.3834 16.3242 15.2758 16.3028 15.1754 16.2612C15.0749 16.2196 14.9838 16.1585 14.907 16.0816L7.88492 9.0595C7.80809 8.98268 7.74716 8.89146 7.70558 8.7911C7.664 8.69069 7.64258 8.58307 7.64258 8.47441C7.64258 8.36575 7.664 8.25818 7.70558 8.15777C7.74716 8.05736 7.80809 7.96614 7.88492 7.88932C7.9618 7.81249 8.05302 7.75155 8.15338 7.70993C8.25378 7.66835 8.36141 7.64697 8.47006 7.64697C8.57872 7.64697 8.6863 7.66835 8.7867 7.70993C8.88711 7.75155 8.97833 7.81249 9.05516 7.88932L16.0772 14.9114C16.1933 15.027 16.2725 15.1744 16.3046 15.3351C16.3368 15.4957 16.3205 15.6623 16.2578 15.8137C16.1951 15.965 16.0888 16.0944 15.9525 16.1853C15.8162 16.2761 15.656 16.3244 15.4921 16.324Z" fill="#082133"/>
</svg>
