<svg width="16" height="16" viewBox="0 0 16 16" fill="none" xmlns="http://www.w3.org/2000/svg">
<g clip-path="url(#clip0_1536_1101)">
<path d="M11.3231 10.1841H11.3825C11.6494 10.1841 11.8666 9.96688 11.8666 9.7V9.20531C11.8666 8.93844 11.6494 8.72125 11.3825 8.72125H10.5325C10.3119 8.72125 10.1078 8.81625 9.96375 8.96969L9.67656 8.3725C9.41719 7.83344 8.90531 7.51156 8.30719 7.51156H4.23312C3.635 7.51156 3.12312 7.83344 2.86375 8.3725L2.57656 8.96969C2.43219 8.81625 2.22844 8.72125 2.00781 8.72125H1.15781C0.890937 8.72125 0.67375 8.93844 0.67375 9.20531V9.7C0.67375 9.96688 0.890937 10.1841 1.15781 10.1841H1.22344C0.760625 10.5172 0.46875 11.0397 0.46875 11.6306V14.1237C0.46875 14.2272 0.552812 14.3112 0.65625 14.3112H0.799687V14.7338C0.799687 15.1734 1.1575 15.5312 1.59719 15.5312H1.95031C2.39 15.5312 2.74781 15.1734 2.74781 14.7338V14.3112H9.79312V14.7338C9.79312 15.1734 10.1509 15.5312 10.5906 15.5312H10.9437C11.3834 15.5312 11.7412 15.1734 11.7412 14.7338V14.3112H11.8844C11.9878 14.3112 12.0719 14.2272 12.0719 14.1237V11.6306C12.0712 11.0384 11.7822 10.5166 11.3231 10.1841ZM10.5325 9.09594H11.3825C11.4428 9.09594 11.4916 9.145 11.4916 9.205V9.69969C11.4916 9.76 11.4425 9.80875 11.3825 9.80875H10.3675L10.1522 9.36094C10.2103 9.20469 10.3619 9.09594 10.5325 9.09594ZM3.20156 8.53469C3.39687 8.12875 3.7825 7.88625 4.23312 7.88625H8.30687C8.7575 7.88625 9.14312 8.12875 9.33844 8.53469L9.9425 9.79031C7.39156 9.63938 4.92437 9.63844 2.59875 9.78844L3.20156 8.53469ZM1.04844 9.7V9.20531C1.04844 9.145 1.0975 9.09625 1.1575 9.09625H2.0075C2.17812 9.09625 2.32938 9.205 2.38781 9.36156L2.1725 9.80937H1.1575C1.0975 9.80906 1.04844 9.76 1.04844 9.7ZM2.3725 14.7338C2.3725 14.9666 2.18312 15.1562 1.95 15.1562H1.59687C1.36406 15.1562 1.17437 14.9669 1.17437 14.7338V14.3112H2.37219V14.7338H2.3725ZM11.3656 14.7338C11.3656 14.9666 11.1762 15.1562 10.9431 15.1562H10.59C10.3572 15.1562 10.1675 14.9669 10.1675 14.7338V14.3112H11.3653V14.7338H11.3656ZM11.6962 13.9366H0.84375V11.6309C0.84375 10.8647 1.47125 10.2428 2.30375 10.1838C4.8025 10.0069 7.47219 10.0069 10.2378 10.1838C11.0694 10.2369 11.6966 10.8591 11.6966 11.6309V13.9366H11.6962ZM11.2437 11.2425C11.1444 11.155 11.0175 11.1166 10.8859 11.1331L9.58687 11.3003C9.1625 11.355 8.84219 11.7188 8.84219 12.1469V12.3353C8.84219 12.5856 9.04594 12.7891 9.29625 12.7891H10.8109C11.1347 12.7891 11.3981 12.5256 11.3981 12.2019V11.5831C11.3978 11.4509 11.3431 11.33 11.2437 11.2425ZM11.0228 12.2019C11.0228 12.3187 10.9278 12.4141 10.8106 12.4141H9.29594C9.2525 12.4141 9.21687 12.3788 9.21687 12.3353V12.1469C9.21687 11.9031 9.3925 11.7034 9.63437 11.6722L10.9334 11.505C10.9381 11.5044 10.9422 11.5041 10.9466 11.5041C10.9653 11.5041 10.9803 11.5103 10.9956 11.5241C11.0147 11.5409 11.0225 11.5581 11.0225 11.5834V12.2019H11.0228ZM2.95344 11.3003L1.65437 11.1331C1.52312 11.1163 1.39594 11.155 1.29656 11.2425C1.19719 11.33 1.1425 11.4509 1.1425 11.5834V12.2022C1.1425 12.5259 1.40594 12.7894 1.72969 12.7894H3.24437C3.49469 12.7894 3.69812 12.5856 3.69812 12.3356V12.1472C3.69812 11.7188 3.37781 11.355 2.95344 11.3003ZM3.32312 12.3353C3.32312 12.3788 3.28781 12.4141 3.24437 12.4141H1.72937C1.6125 12.4141 1.51719 12.3191 1.51719 12.2019V11.5831C1.51719 11.5578 1.525 11.5406 1.54406 11.5238C1.55969 11.51 1.57469 11.5037 1.59312 11.5037C1.59719 11.5037 1.60156 11.5041 1.60625 11.5047L2.90531 11.6719C3.14719 11.7031 3.32281 11.9025 3.32281 12.1466V12.3353H3.32312ZM7.66219 11.535C7.66219 11.6384 7.57812 11.7225 7.47469 11.7225H5.06562C4.96219 11.7225 4.87812 11.6384 4.87812 11.535C4.87812 11.4316 4.96219 11.3475 5.06562 11.3475H7.47469C7.57812 11.3475 7.66219 11.4316 7.66219 11.535ZM7.66219 12.3834C7.66219 12.4869 7.57812 12.5709 7.47469 12.5709H5.06562C4.96219 12.5709 4.87812 12.4869 4.87812 12.3834C4.87812 12.28 4.96219 12.1959 5.06562 12.1959H7.47469C7.57812 12.1959 7.66219 12.2797 7.66219 12.3834ZM14.9003 3.92375H14.4569C14.3534 3.92375 14.2694 4.00781 14.2694 4.11125V4.54313H13.8606V4.26188C13.8606 4.15844 13.7766 4.07438 13.6731 4.07438H12.2719V3.60625C12.8422 3.3725 13.2294 2.80688 13.2294 2.18469V0.65625C13.2294 0.552813 13.1453 0.46875 13.0419 0.46875H10.3469C10.2434 0.46875 10.1594 0.552813 10.1594 0.65625V2.18469C10.1594 2.80688 10.5469 3.37281 11.1169 3.60625V4.07438H9.16656C9.11687 4.07438 9.06906 4.09406 9.03406 4.12937L8.14437 5.01906C8.07125 5.09219 8.07125 5.21094 8.14437 5.28406L9.03406 6.17375C9.06906 6.20906 9.11687 6.22875 9.16656 6.22875H11.1656V6.67063C11.1656 7.03094 11.4587 7.32406 11.8191 7.32406H12.2503L12.7109 9.04313C12.7328 9.125 12.8072 9.18219 12.8922 9.18219H14.465C14.5234 9.18219 14.5781 9.155 14.6137 9.10875C14.6494 9.0625 14.6612 9.0025 14.6462 8.94594L13.8612 6.01625V5.76H14.27V6.19187C14.27 6.29531 14.3541 6.37937 14.4575 6.37937H14.9009C15.2487 6.37937 15.5319 6.09625 15.5319 5.74844V4.55375C15.5312 4.20656 15.2481 3.92375 14.9003 3.92375ZM9.90281 5.85406V4.44938H13.4859V5.85406H9.90281ZM12.8544 0.84375V1.26344H10.5344V0.84375H12.8544ZM11.3591 3.295C10.8734 3.14719 10.5344 2.69063 10.5344 2.18469V1.63844H12.8544V2.18438C12.8544 2.69031 12.5153 3.14687 12.0297 3.29469C11.9506 3.31875 11.8969 3.39156 11.8969 3.47406V4.07438H11.4922V3.47406C11.4922 3.39188 11.4381 3.31906 11.3591 3.295ZM8.54187 5.15188L9.24406 4.44969H9.52781V5.85437H9.24406L8.54187 5.15188ZM11.8191 6.94969C11.6656 6.94969 11.5406 6.82469 11.5406 6.67125V6.22937H11.9569L12.15 6.95H11.8191V6.94969ZM13.0359 8.80781L12.345 6.22937H13.5294L13.635 6.62313H13.0931C12.9897 6.62313 12.9056 6.70719 12.9056 6.81063C12.9056 6.91406 12.9897 6.99813 13.0931 6.99813H13.7356L13.8412 7.39187H13.2991C13.1956 7.39187 13.1116 7.47594 13.1116 7.57937C13.1116 7.68281 13.1956 7.76687 13.2991 7.76687H13.9416L14.2206 8.80781H13.0359ZM13.8609 5.38562V4.91813H14.2697V5.38562H13.8609ZM15.1562 5.74937C15.1562 5.89031 15.0416 6.00531 14.9003 6.00531H14.6444V4.29906H14.9003C15.0412 4.29906 15.1562 4.41375 15.1562 4.555V5.74937ZM5.64062 5.15188C5.64062 5.04844 5.72469 4.96438 5.82812 4.96438H7.22312C7.32656 4.96438 7.41062 5.04844 7.41062 5.15188C7.41062 5.25531 7.32656 5.33938 7.22312 5.33938H5.82812C5.72469 5.33938 5.64062 5.25531 5.64062 5.15188ZM6.41281 3.55281C6.33969 3.47969 6.33969 3.36094 6.41281 3.28781C6.48594 3.21469 6.60469 3.21469 6.67812 3.28781L7.66437 4.27406C7.7375 4.34719 7.7375 4.46594 7.66437 4.53906C7.62781 4.57562 7.57969 4.59406 7.53187 4.59406C7.48406 4.59406 7.43594 4.57562 7.39937 4.53906L6.41281 3.55281ZM7.66437 5.76438C7.7375 5.8375 7.7375 5.95625 7.66437 6.02938L6.67812 7.01562C6.64156 7.05219 6.59344 7.07062 6.54562 7.07062C6.49781 7.07062 6.44969 7.05219 6.41312 7.01562C6.34 6.9425 6.34 6.82375 6.41312 6.75063L7.39937 5.76438C7.47219 5.69125 7.59094 5.69125 7.66437 5.76438Z" fill="#666666"/>
</g>
<defs>
<clipPath id="clip0_1536_1101">
<rect width="16" height="16" fill="white"/>
</clipPath>
</defs>
</svg>
