<svg width="16" height="16" viewBox="0 0 16 16" fill="none" xmlns="http://www.w3.org/2000/svg">
<path d="M1.59961 1.06666V3.73331C1.59961 4.32241 2.07717 4.79997 2.66627 4.79997H13.3329C13.922 4.79997 14.3996 4.32241 14.3996 3.73331V1.06666C14.3996 0.477562 13.922 0 13.333 0H2.66627C2.07717 0 1.59961 0.477562 1.59961 1.06666ZM13.8663 1.06666V3.73331C13.8663 4.02787 13.6275 4.26666 13.3329 4.26666H2.66627C2.3717 4.26666 2.13292 4.02787 2.13292 3.73331V1.06666C2.13292 0.772094 2.3717 0.533312 2.66627 0.533312H13.3329C13.6275 0.533344 13.8663 0.772125 13.8663 1.06666Z" fill="#666666"/>
<path fill-rule="evenodd" clip-rule="evenodd" d="M3.05382 2.35591L3.58235 2.70256L3.27754 3.01322C3.2031 3.07931 3.17169 3.18138 3.19607 3.27788C3.22044 3.37438 3.29651 3.44928 3.39338 3.47216C3.49026 3.495 3.59179 3.462 3.65672 3.38656L4.00047 3.03991L4.34419 3.38656C4.40913 3.462 4.51066 3.495 4.60754 3.47216C4.70441 3.44931 4.78051 3.37441 4.80485 3.27788C4.82922 3.18138 4.79779 3.07931 4.72338 3.01322L4.41857 2.70388L4.9471 2.35722C5.06732 2.27516 5.09951 2.11185 5.01944 1.99031C4.93938 1.86875 4.77663 1.83388 4.65379 1.91191L4.26713 2.16525V1.59991C4.26713 1.45263 4.14772 1.33325 4.00047 1.33325C3.85319 1.33325 3.73382 1.45266 3.73382 1.59991V2.16525L3.34716 1.9106C3.22429 1.83256 3.06157 1.86747 2.98151 1.989C2.90144 2.11053 2.9336 2.27385 3.05382 2.35591Z" fill="#666666"/>
<path fill-rule="evenodd" clip-rule="evenodd" d="M5.72037 2.35591L6.2489 2.70256L5.94409 3.01322C5.86965 3.07931 5.83825 3.18138 5.86262 3.27788C5.887 3.37438 5.96306 3.44928 6.05993 3.47216C6.15681 3.495 6.25834 3.462 6.32328 3.38656L6.667 3.03991L7.01072 3.38656C7.07565 3.462 7.17718 3.495 7.27406 3.47216C7.37093 3.44931 7.44703 3.37441 7.47137 3.27788C7.49575 3.18138 7.46431 3.07931 7.3899 3.01322L7.08509 2.70388L7.61362 2.35722C7.69493 2.30556 7.74206 2.2141 7.73693 2.11791C7.73181 2.02172 7.67518 1.93578 7.58884 1.8931C7.5025 1.85041 7.39984 1.8576 7.32028 1.91191L6.93362 2.16525V1.59991C6.93362 1.45263 6.81422 1.33325 6.66697 1.33325C6.51972 1.33325 6.40037 1.45263 6.40037 1.59991V2.16525L6.01372 1.9106C5.93415 1.85628 5.8315 1.8491 5.74515 1.89178C5.65881 1.93447 5.60218 2.02041 5.59706 2.1166C5.59193 2.21278 5.63906 2.30425 5.72037 2.35591Z" fill="#666666"/>
<path fill-rule="evenodd" clip-rule="evenodd" d="M8.38636 2.35591L8.91489 2.70256L8.61007 3.01322C8.53564 3.07931 8.50423 3.18138 8.52861 3.27788C8.55298 3.37438 8.62904 3.44928 8.72592 3.47216C8.82279 3.495 8.92432 3.462 8.98926 3.38656L9.33298 3.03991L9.6767 3.38656C9.74164 3.462 9.84317 3.495 9.94004 3.47216C10.0369 3.44931 10.113 3.37441 10.1374 3.27788C10.1617 3.18138 10.1303 3.07931 10.0559 3.01322L9.75107 2.70388L10.2796 2.35722C10.3998 2.27516 10.432 2.11185 10.3519 1.99031C10.2719 1.86875 10.1091 1.83388 9.98629 1.91191L9.5997 2.16525V1.59991C9.5997 1.45263 9.48032 1.33325 9.33304 1.33325C9.18576 1.33325 9.06639 1.45266 9.06639 1.59991V2.16525L8.67973 1.9106C8.60017 1.85628 8.49751 1.8491 8.41117 1.89178C8.32482 1.93447 8.2682 2.02041 8.26307 2.1166C8.25795 2.21278 8.30504 2.30425 8.38636 2.35591Z" fill="#666666"/>
<path fill-rule="evenodd" clip-rule="evenodd" d="M11.0534 2.35591L11.5819 2.70256L11.2771 3.01322C11.2026 3.07931 11.1712 3.18138 11.1956 3.27788C11.22 3.37438 11.296 3.44928 11.3929 3.47216C11.4898 3.495 11.5913 3.462 11.6563 3.38656L12 3.03991L12.3438 3.38656C12.4087 3.462 12.5102 3.495 12.6071 3.47216C12.704 3.44931 12.7801 3.37441 12.8044 3.27788C12.8288 3.18138 12.7974 3.07931 12.723 3.01322L12.4181 2.70388L12.9467 2.35722C13.0669 2.27516 13.0991 2.11185 13.019 1.99031C12.939 1.86878 12.7762 1.83388 12.6534 1.91191L12.2667 2.16525V1.59991C12.2667 1.45263 12.1473 1.33325 12 1.33325C11.8528 1.33325 11.7334 1.45266 11.7334 1.59991V2.16525L11.3467 1.9106C11.2672 1.85628 11.1645 1.8491 11.0782 1.89178C10.9918 1.93447 10.9352 2.02041 10.9301 2.1166C10.9249 2.21278 10.972 2.30425 11.0534 2.35591Z" fill="#666666"/>
<path d="M14.6666 5.33325H1.33334C0.597311 5.33413 0.000874998 5.93056 0 6.66656V14.6665C0.000874998 15.4026 0.597311 15.999 1.33334 15.9999H14.6667C15.4027 15.999 15.9991 15.4026 16 14.6665V6.66656C15.9991 5.93056 15.4027 5.33413 14.6666 5.33325ZM1.33334 5.86656H14.6667C15.1085 5.86656 15.4667 6.22475 15.4667 6.66656V11.7332H0.533343V6.66656C0.533343 6.22475 0.891498 5.86656 1.33334 5.86656ZM15.4666 13.8665H0.533343V12.2666H15.4667L15.4666 13.8665ZM14.6666 15.4666H1.33334C0.891529 15.4666 0.533343 15.1084 0.533343 14.6666V14.3999H15.4667V14.6665C15.4666 15.1084 15.1085 15.4666 14.6666 15.4666Z" fill="#666666"/>
<path d="M2.66627 9.60004H4.26627C4.85536 9.60004 5.33292 9.12247 5.33292 8.53338V8.00001C5.33292 7.41091 4.85536 6.93335 4.26627 6.93335H2.66627C2.07717 6.93335 1.59961 7.41091 1.59961 8.00001V8.53335C1.59961 9.12244 2.07717 9.60004 2.66627 9.60004ZM2.13295 8.00001C2.13295 7.70544 2.37173 7.46666 2.6663 7.46666H4.2663C4.56086 7.46666 4.79964 7.70544 4.79964 8.00001V8.53335C4.79964 8.82791 4.56086 9.06669 4.2663 9.06669H2.6663C2.37173 9.06669 2.13295 8.82791 2.13295 8.53335V8.00001Z" fill="#666666"/>
<path fill-rule="evenodd" clip-rule="evenodd" d="M3.19952 10.3999H2.13287C1.98559 10.3999 1.86621 10.5193 1.86621 10.6666C1.86621 10.8138 1.98562 10.9332 2.13287 10.9332H3.19952C3.3468 10.9332 3.46618 10.8138 3.46618 10.6666C3.46618 10.5193 3.3468 10.3999 3.19952 10.3999Z" fill="#666666"/>
<path fill-rule="evenodd" clip-rule="evenodd" d="M4.5332 10.6666C4.5332 10.8138 4.65258 10.9332 4.79986 10.9332H5.86652C6.0138 10.9332 6.13317 10.8138 6.13317 10.6666C6.13317 10.5193 6.01377 10.3999 5.86652 10.3999H4.79986C4.65258 10.3999 4.5332 10.5193 4.5332 10.6666Z" fill="#666666"/>
<path fill-rule="evenodd" clip-rule="evenodd" d="M7.46588 10.9332H8.53253C8.67981 10.9332 8.79919 10.8138 8.79919 10.6666C8.79919 10.5193 8.67981 10.3999 8.53253 10.3999H7.46588C7.31859 10.3999 7.19922 10.5193 7.19922 10.6666C7.19922 10.8138 7.31863 10.9332 7.46588 10.9332Z" fill="#666666"/>
<path fill-rule="evenodd" clip-rule="evenodd" d="M11.1995 10.3999H10.1329C9.98559 10.3999 9.86621 10.5193 9.86621 10.6666C9.86621 10.8138 9.98562 10.9332 10.1329 10.9332H11.1995C11.3468 10.9332 11.4662 10.8138 11.4662 10.6666C11.4662 10.5193 11.3468 10.3999 11.1995 10.3999Z" fill="#666666"/>
<path fill-rule="evenodd" clip-rule="evenodd" d="M13.8665 10.3999H12.7999C12.6526 10.3999 12.5332 10.5193 12.5332 10.6666C12.5332 10.8138 12.6526 10.9332 12.7999 10.9332H13.8665C14.0138 10.9332 14.1332 10.8138 14.1332 10.6666C14.1332 10.5193 14.0138 10.3999 13.8665 10.3999Z" fill="#666666"/>
<path fill-rule="evenodd" clip-rule="evenodd" d="M10.1329 7.99987H13.8662C14.0135 7.99987 14.1329 7.88049 14.1329 7.73321C14.1329 7.58593 14.0135 7.46655 13.8662 7.46655H10.1329C9.98559 7.46655 9.86621 7.58596 9.86621 7.73321C9.86618 7.88049 9.98559 7.99987 10.1329 7.99987Z" fill="#666666"/>
<path fill-rule="evenodd" clip-rule="evenodd" d="M7.46588 9.06652H13.8659C14.0132 9.06652 14.1325 8.94711 14.1325 8.79986C14.1325 8.65261 14.0131 8.5332 13.8659 8.5332H7.46588C7.31859 8.5332 7.19922 8.65258 7.19922 8.79986C7.19922 8.94714 7.31863 9.06652 7.46588 9.06652Z" fill="#666666"/>
</svg>
