<svg width="16" height="16" viewBox="0 0 16 16" fill="none" xmlns="http://www.w3.org/2000/svg">
<path d="M15.25 2.875H0.75C0.551154 2.87522 0.360515 2.9543 0.21991 3.09491C0.0793044 3.23551 0.000217049 3.42615 0 3.625L0 12.375C0.000217049 12.5738 0.0793044 12.7645 0.21991 12.9051C0.360515 13.0457 0.551154 13.1248 0.75 13.125H15.25C15.4488 13.1248 15.6395 13.0457 15.7801 12.9051C15.9207 12.7645 15.9998 12.5738 16 12.375V3.625C15.9998 3.42615 15.9207 3.23551 15.7801 3.09491C15.6395 2.9543 15.4488 2.87522 15.25 2.875ZM0.75 3.375H15.25C15.3163 3.37509 15.3798 3.40145 15.4267 3.44832C15.4735 3.49518 15.4999 3.55872 15.5 3.625V4.375H0.5V3.625C0.500076 3.55872 0.526439 3.49517 0.573307 3.44831C0.620175 3.40144 0.683719 3.37508 0.75 3.375ZM15.25 12.625H0.75C0.683719 12.6249 0.620175 12.5986 0.573307 12.5517C0.526439 12.5048 0.500076 12.4413 0.5 12.375V4.875H15.5V12.375C15.4999 12.4413 15.4735 12.5048 15.4267 12.5517C15.3798 12.5985 15.3163 12.6249 15.25 12.625Z" fill="#666666"/>
<path d="M14.75 5.625H7.75C7.6837 5.625 7.62011 5.65134 7.57322 5.69822C7.52634 5.74511 7.5 5.8087 7.5 5.875C7.5 5.9413 7.52634 6.00489 7.57322 6.05178C7.62011 6.09866 7.6837 6.125 7.75 6.125H14.75C14.8163 6.125 14.8799 6.09866 14.9268 6.05178C14.9737 6.00489 15 5.9413 15 5.875C15 5.8087 14.9737 5.74511 14.9268 5.69822C14.8799 5.65134 14.8163 5.625 14.75 5.625Z" fill="#666666"/>
<path d="M14.75 6.875H7.75C7.6837 6.875 7.62011 6.90134 7.57322 6.94822C7.52634 6.99511 7.5 7.0587 7.5 7.125C7.5 7.1913 7.52634 7.25489 7.57322 7.30178C7.62011 7.34866 7.6837 7.375 7.75 7.375H14.75C14.8163 7.375 14.8799 7.34866 14.9268 7.30178C14.9737 7.25489 15 7.1913 15 7.125C15 7.0587 14.9737 6.99511 14.9268 6.94822C14.8799 6.90134 14.8163 6.875 14.75 6.875Z" fill="#666666"/>
<path d="M14.75 8.125H7.75C7.6837 8.125 7.62011 8.15134 7.57322 8.19822C7.52634 8.24511 7.5 8.3087 7.5 8.375C7.5 8.4413 7.52634 8.50489 7.57322 8.55178C7.62011 8.59866 7.6837 8.625 7.75 8.625H14.75C14.8163 8.625 14.8799 8.59866 14.9268 8.55178C14.9737 8.50489 15 8.4413 15 8.375C15 8.3087 14.9737 8.24511 14.9268 8.19822C14.8799 8.15134 14.8163 8.125 14.75 8.125Z" fill="#666666"/>
<path d="M14.75 9.375H7.75C7.6837 9.375 7.62011 9.40134 7.57322 9.44822C7.52634 9.49511 7.5 9.5587 7.5 9.625C7.5 9.6913 7.52634 9.75489 7.57322 9.80178C7.62011 9.84866 7.6837 9.875 7.75 9.875H14.75C14.8163 9.875 14.8799 9.84866 14.9268 9.80178C14.9737 9.75489 15 9.6913 15 9.625C15 9.5587 14.9737 9.49511 14.9268 9.44822C14.8799 9.40134 14.8163 9.375 14.75 9.375Z" fill="#666666"/>
<path d="M14.75 11.375H12C11.9337 11.375 11.8701 11.4013 11.8232 11.4482C11.7763 11.4951 11.75 11.5587 11.75 11.625C11.75 11.6913 11.7763 11.7549 11.8232 11.8018C11.8701 11.8487 11.9337 11.875 12 11.875H14.75C14.8163 11.875 14.8799 11.8487 14.9268 11.8018C14.9737 11.7549 15 11.6913 15 11.625C15 11.5587 14.9737 11.4951 14.9268 11.4482C14.8799 11.4013 14.8163 11.375 14.75 11.375Z" fill="#666666"/>
<path d="M2.7564 8.79395C2.30939 9.06327 2 9.62788 2 10.2813V10.625C2 10.6913 2.02634 10.7549 2.07322 10.8018C2.12011 10.8487 2.1837 10.875 2.25 10.875C2.3163 10.875 2.37989 10.8487 2.42678 10.8018C2.47366 10.7549 2.5 10.6913 2.5 10.625V10.2813C2.5 9.72245 2.79082 9.25508 3.17595 9.14815C3.01714 9.05457 2.87529 8.93481 2.7564 8.79395Z" fill="#666666"/>
<path d="M5.24377 8.79395C5.12488 8.93481 4.98303 9.05457 4.82422 9.14815C5.20935 9.25508 5.50017 9.72245 5.50017 10.2813V10.625C5.50017 10.6913 5.52651 10.7549 5.57339 10.8018C5.62027 10.8487 5.68386 10.875 5.75017 10.875C5.81647 10.875 5.88006 10.8487 5.92694 10.8018C5.97383 10.7549 6.00017 10.6913 6.00017 10.625V10.2813C6.00017 9.62788 5.69078 9.06327 5.24377 8.79395Z" fill="#666666"/>
<path d="M4 6.625C3.7775 6.625 3.55999 6.69098 3.37498 6.8146C3.18998 6.93821 3.04578 7.11391 2.96064 7.31948C2.87549 7.52505 2.85321 7.75125 2.89662 7.96948C2.94003 8.18771 3.04717 8.38816 3.20451 8.5455C3.36184 8.70283 3.5623 8.80997 3.78052 8.85338C3.99875 8.89679 4.22495 8.87451 4.43052 8.78936C4.63609 8.70422 4.81179 8.56002 4.9354 8.37502C5.05902 8.19001 5.125 7.9725 5.125 7.75C5.12466 7.45173 5.00603 7.16578 4.79512 6.95488C4.58422 6.74397 4.29827 6.62534 4 6.625ZM4 8.375C3.87639 8.375 3.75555 8.33834 3.65277 8.26967C3.54999 8.20099 3.46988 8.10338 3.42258 7.98918C3.37527 7.87497 3.36289 7.74931 3.38701 7.62807C3.41113 7.50683 3.47065 7.39547 3.55806 7.30806C3.64547 7.22065 3.75683 7.16112 3.87807 7.13701C3.99931 7.11289 4.12497 7.12527 4.23918 7.17258C4.35338 7.21988 4.45099 7.29999 4.51967 7.40277C4.58835 7.50555 4.625 7.62639 4.625 7.75C4.62481 7.9157 4.5589 8.07456 4.44173 8.19173C4.32456 8.30889 4.1657 8.37481 4 8.375Z" fill="#666666"/>
<path d="M6.25 5.375H1.75C1.55115 5.37522 1.36051 5.4543 1.21991 5.59491C1.0793 5.73551 1.00022 5.92615 1 6.125V11.375C1.00022 11.5738 1.0793 11.7645 1.21991 11.9051C1.36051 12.0457 1.55115 12.1248 1.75 12.125H6.25C6.44885 12.1248 6.63949 12.0457 6.78009 11.9051C6.9207 11.7645 6.99978 11.5738 7 11.375V6.125C6.99978 5.92615 6.9207 5.73551 6.78009 5.59491C6.63949 5.4543 6.44885 5.37522 6.25 5.375ZM6.5 11.375C6.49992 11.4413 6.47356 11.5048 6.42669 11.5517C6.37983 11.5986 6.31628 11.6249 6.25 11.625H1.75C1.68372 11.6249 1.62017 11.5986 1.57331 11.5517C1.52644 11.5048 1.50008 11.4413 1.5 11.375V6.125C1.50008 6.05872 1.52644 5.99517 1.57331 5.94831C1.62017 5.90144 1.68372 5.87508 1.75 5.875H6.25C6.31628 5.87508 6.37983 5.90144 6.42669 5.94831C6.47356 5.99517 6.49992 6.05872 6.5 6.125V11.375Z" fill="#666666"/>
</svg>
