<svg width="14" height="14" viewBox="0 0 14 14" fill="none" xmlns="http://www.w3.org/2000/svg">
<g clip-path="url(#clip0_1715_8857)">
<path d="M9.90773 8.91105H9.95969C10.1932 8.91105 10.3832 8.72102 10.3832 8.4875V8.05465C10.3832 7.82113 10.1932 7.63109 9.95969 7.63109H9.21594C9.02289 7.63109 8.84434 7.71422 8.71828 7.84848L8.46699 7.32594C8.24004 6.85426 7.79215 6.57262 7.26879 6.57262H3.70398C3.18063 6.57262 2.73273 6.85426 2.50578 7.32594L2.25449 7.84848C2.12816 7.71422 1.94988 7.63109 1.75684 7.63109H1.01309C0.77957 7.63109 0.589531 7.82113 0.589531 8.05465V8.4875C0.589531 8.72102 0.77957 8.91105 1.01309 8.91105H1.07051C0.665547 9.20254 0.410156 9.65973 0.410156 10.1768V12.3583C0.410156 12.4488 0.483711 12.5223 0.574219 12.5223H0.699727V12.892C0.699727 13.2768 1.01281 13.5898 1.39754 13.5898H1.70652C2.09125 13.5898 2.40434 13.2768 2.40434 12.892V12.5223H8.56898V12.892C8.56898 13.2768 8.88207 13.5898 9.2668 13.5898H9.57578C9.96051 13.5898 10.2736 13.2768 10.2736 12.892V12.5223H10.3988C10.4893 12.5223 10.5629 12.4488 10.5629 12.3583V10.1768C10.5623 9.65863 10.3094 9.20199 9.90773 8.91105ZM9.21594 7.95895H9.95969C10.0125 7.95895 10.0551 8.00187 10.0551 8.05437V8.48723C10.0551 8.54 10.0122 8.58266 9.95969 8.58266H9.07156L8.88316 8.19082C8.93402 8.0541 9.06664 7.95895 9.21594 7.95895ZM2.80137 7.46785C2.97227 7.11266 3.30969 6.90047 3.70398 6.90047H7.26852C7.66281 6.90047 8.00023 7.11266 8.17113 7.46785L8.69969 8.56652C6.46762 8.43445 4.30883 8.43363 2.27391 8.56488L2.80137 7.46785ZM0.917383 8.4875V8.05465C0.917383 8.00188 0.960313 7.95922 1.01281 7.95922H1.75656C1.90586 7.95922 2.0382 8.05438 2.08934 8.19137L1.90094 8.5832H1.01281C0.960313 8.58293 0.917383 8.54 0.917383 8.4875ZM2.07594 12.892C2.07594 13.0957 1.91023 13.2617 1.70625 13.2617H1.39727C1.19355 13.2617 1.02758 13.096 1.02758 12.892V12.5223H2.07566V12.892H2.07594ZM9.94492 12.892C9.94492 13.0957 9.77922 13.2617 9.57523 13.2617H9.26625C9.06254 13.2617 8.89656 13.096 8.89656 12.892V12.5223H9.94465V12.892H9.94492ZM10.2342 12.1945H0.738281V10.1771C0.738281 9.5066 1.28734 8.96246 2.01578 8.91078C4.20219 8.75602 6.53816 8.75602 8.95809 8.91078C9.6857 8.95727 10.2345 9.50168 10.2345 10.1771V12.1945H10.2342ZM9.83828 9.83719C9.75133 9.76062 9.64031 9.72699 9.5252 9.74148L8.38852 9.88777C8.01719 9.93563 7.73691 10.2539 7.73691 10.6285V10.7934C7.73691 11.0124 7.9152 11.1904 8.13422 11.1904H9.45957C9.74285 11.1904 9.97336 10.9599 9.97336 10.6766V10.1352C9.97309 10.0196 9.92523 9.91375 9.83828 9.83719ZM9.64496 10.6766C9.64496 10.7789 9.56184 10.8623 9.4593 10.8623H8.13395C8.09594 10.8623 8.06477 10.8314 8.06477 10.7934V10.6285C8.06477 10.4152 8.21844 10.2405 8.43008 10.2132L9.56676 10.0669C9.57086 10.0663 9.57441 10.0661 9.57824 10.0661C9.59465 10.0661 9.60777 10.0715 9.62117 10.0836C9.63785 10.0983 9.64469 10.1134 9.64469 10.1355V10.6766H9.64496ZM2.58426 9.88777L1.44758 9.74148C1.33273 9.72672 1.22145 9.76062 1.13449 9.83719C1.04754 9.91375 0.999688 10.0196 0.999688 10.1355V10.6769C0.999688 10.9602 1.2302 11.1907 1.51348 11.1907H2.83883C3.05785 11.1907 3.23586 11.0124 3.23586 10.7937V10.6288C3.23586 10.2539 2.95559 9.93563 2.58426 9.88777ZM2.90773 10.7934C2.90773 10.8314 2.87684 10.8623 2.83883 10.8623H1.5132C1.41094 10.8623 1.32754 10.7792 1.32754 10.6766V10.1352C1.32754 10.1131 1.33438 10.098 1.35105 10.0833C1.36473 10.0712 1.37785 10.0658 1.39398 10.0658C1.39754 10.0658 1.40137 10.0661 1.40547 10.0666L2.54215 10.2129C2.75379 10.2402 2.90746 10.4147 2.90746 10.6282V10.7934H2.90773ZM6.70441 10.0931C6.70441 10.1836 6.63086 10.2572 6.54035 10.2572H4.43242C4.34191 10.2572 4.26836 10.1836 4.26836 10.0931C4.26836 10.0026 4.34191 9.92906 4.43242 9.92906H6.54035C6.63086 9.92906 6.70441 10.0026 6.70441 10.0931ZM6.70441 10.8355C6.70441 10.926 6.63086 10.9996 6.54035 10.9996H4.43242C4.34191 10.9996 4.26836 10.926 4.26836 10.8355C4.26836 10.745 4.34191 10.6714 4.43242 10.6714H6.54035C6.63086 10.6714 6.70441 10.7447 6.70441 10.8355ZM13.0378 3.43328H12.6498C12.5593 3.43328 12.4857 3.50684 12.4857 3.59734V3.97523H12.128V3.72914C12.128 3.63863 12.0545 3.56508 11.964 3.56508H10.7379V3.15547C11.2369 2.95094 11.5757 2.45602 11.5757 1.9116V0.574219C11.5757 0.483711 11.5021 0.410156 11.4116 0.410156H9.05352C8.96301 0.410156 8.88945 0.483711 8.88945 0.574219V1.9116C8.88945 2.45602 9.22852 2.95121 9.72727 3.15547V3.56508H8.02074C7.97727 3.56508 7.93543 3.5823 7.9048 3.6132L7.12633 4.39168C7.06234 4.45566 7.06234 4.55957 7.12633 4.62355L7.9048 5.40203C7.93543 5.43293 7.97727 5.45016 8.02074 5.45016H9.76992V5.8368C9.76992 6.15207 10.0264 6.40855 10.3417 6.40855H10.719L11.1221 7.91273C11.1412 7.98438 11.2063 8.03441 11.2807 8.03441H12.6569C12.708 8.03441 12.7559 8.01063 12.787 7.97016C12.8182 7.92969 12.8286 7.87719 12.8155 7.82769L12.1286 5.26422V5.04H12.4862V5.41789C12.4862 5.5084 12.5598 5.58195 12.6503 5.58195H13.0383C13.3427 5.58195 13.5904 5.33422 13.5904 5.02988V3.98453C13.5898 3.68074 13.3421 3.43328 13.0378 3.43328ZM8.66496 5.1223V3.8932H11.8002V5.1223H8.66496ZM11.2476 0.738281V1.10551H9.21758V0.738281H11.2476ZM9.93918 2.88313C9.51426 2.75379 9.21758 2.3543 9.21758 1.9116V1.43363H11.2476V1.91133C11.2476 2.35402 10.9509 2.75352 10.526 2.88285C10.4568 2.90391 10.4098 2.96762 10.4098 3.0398V3.56508H10.0557V3.0398C10.0557 2.96789 10.0084 2.90418 9.93918 2.88313ZM7.47414 4.50789L8.08855 3.89348H8.33684V5.12258H8.08855L7.47414 4.50789ZM10.3417 6.08098C10.2074 6.08098 10.098 5.9716 10.098 5.83734V5.4507H10.4623L10.6312 6.08125H10.3417V6.08098ZM11.4064 7.70684L10.8019 5.4507H11.8382L11.9306 5.79523H11.4565C11.366 5.79523 11.2924 5.86879 11.2924 5.9593C11.2924 6.0498 11.366 6.12336 11.4565 6.12336H12.0187L12.1111 6.46789H11.6367C11.5462 6.46789 11.4726 6.54145 11.4726 6.63195C11.4726 6.72246 11.5462 6.79602 11.6367 6.79602H12.1989L12.443 7.70684H11.4064ZM12.1283 4.71242V4.30336H12.486V4.71242H12.1283ZM13.2617 5.0307C13.2617 5.15402 13.1614 5.25465 13.0378 5.25465H12.8138V3.76168H13.0378C13.1611 3.76168 13.2617 3.86203 13.2617 3.98562V5.0307ZM4.93555 4.50789C4.93555 4.41738 5.0091 4.34383 5.09961 4.34383H6.32023C6.41074 4.34383 6.4843 4.41738 6.4843 4.50789C6.4843 4.5984 6.41074 4.67195 6.32023 4.67195H5.09961C5.0091 4.67195 4.93555 4.5984 4.93555 4.50789ZM5.61121 3.10871C5.54723 3.04473 5.54723 2.94082 5.61121 2.87684C5.6752 2.81285 5.7791 2.81285 5.84336 2.87684L6.70633 3.7398C6.77031 3.80379 6.77031 3.9077 6.70633 3.97168C6.67434 4.00367 6.63223 4.0198 6.59039 4.0198C6.54855 4.0198 6.50645 4.00367 6.47445 3.97168L5.61121 3.10871ZM6.70633 5.04383C6.77031 5.10781 6.77031 5.21172 6.70633 5.2757L5.84336 6.13867C5.81137 6.17066 5.76926 6.1868 5.72742 6.1868C5.68559 6.1868 5.64348 6.17066 5.61148 6.13867C5.5475 6.07469 5.5475 5.97078 5.61148 5.9068L6.47445 5.04383C6.53816 4.97984 6.64207 4.97984 6.70633 5.04383Z" fill="#141005"/>
</g>
<defs>
<clipPath id="clip0_1715_8857">
<rect width="14" height="14" fill="white"/>
</clipPath>
</defs>
</svg>
