<svg width="16" height="16" viewBox="0 0 16 16" fill="none" xmlns="http://www.w3.org/2000/svg">
<path d="M11.7707 12.288H1.84494C1.09809 12.288 0.4905 11.6804 0.4905 10.9336V5.06662C0.4905 4.31977 1.09809 3.71218 1.84494 3.71218H3.35822C3.49366 3.71218 3.60347 3.6024 3.60347 3.46693C3.60347 3.33146 3.49366 3.22168 3.35822 3.22168H1.84494C0.827625 3.22168 0 4.0493 0 5.06662V10.9336C0 11.9509 0.827625 12.7785 1.84494 12.7785H11.7707C11.9061 12.7785 12.0159 12.6687 12.0159 12.5332C12.0159 12.3978 11.9061 12.288 11.7707 12.288Z" fill="#666666"/>
<path d="M14.1548 3.22168H4.339C4.20356 3.22168 4.09375 3.33146 4.09375 3.46693C4.09375 3.6024 4.20356 3.71218 4.339 3.71218H14.1548C14.9017 3.71218 15.5093 4.31977 15.5093 5.06662V10.9336C15.5093 11.6804 14.9017 12.288 14.1548 12.288H12.7514C12.616 12.288 12.5062 12.3978 12.5062 12.5332C12.5062 12.6687 12.616 12.7785 12.7514 12.7785H14.1548C15.1722 12.7785 15.9998 11.9509 15.9998 10.9336V5.06662C15.9998 4.0493 15.1722 3.22168 14.1548 3.22168Z" fill="#666666"/>
<path d="M14.1551 4.36621H1.84497C1.45875 4.36621 1.14453 4.68046 1.14453 5.06665V10.9336C1.14453 11.3198 1.45875 11.634 1.84497 11.634H14.1551C14.5413 11.634 14.8555 11.3198 14.8555 10.9336V5.06665C14.8555 4.68043 14.5413 4.36621 14.1551 4.36621ZM14.365 10.9336C14.365 11.0493 14.2708 11.1435 14.1551 11.1435H1.84497C1.72922 11.1435 1.63503 11.0493 1.63503 10.9336V9.99902H14.365V10.9336ZM14.365 9.50852H1.63503V6.49171H14.365V9.50852ZM14.365 6.00121H1.63503V5.06665C1.63503 4.9509 1.72922 4.85671 1.84497 4.85671H14.1551C14.2708 4.85671 14.365 4.9509 14.365 5.06665V6.00121Z" fill="#666666"/>
<path d="M3.13483 6.79102H2.55571L2.15283 9.30892H2.51614L2.58449 8.85211H3.07008L3.13843 9.30892H3.53771L3.13483 6.79102ZM2.63483 8.51036L2.82549 7.23702L3.01614 8.51036H2.63483Z" fill="#666666"/>
<path d="M4.78594 7.96727C4.96219 7.88455 5.04132 7.71908 5.04132 7.46008V7.37014C5.04132 6.98167 4.86507 6.79102 4.455 6.79102H3.85791V9.30892H4.48019C4.87585 9.30895 5.08088 9.10033 5.08088 8.71186V8.5068C5.08091 8.24064 4.99819 8.04998 4.78594 7.96727ZM4.2536 7.15077H4.44425C4.58454 7.15077 4.64569 7.22989 4.64569 7.40977V7.55002C4.64569 7.75145 4.55575 7.81623 4.40829 7.81623H4.2536V7.15077ZM4.68525 8.70111C4.68525 8.88814 4.61332 8.9493 4.48022 8.9493H4.2536V8.17592H4.42985C4.60969 8.17592 4.68522 8.24786 4.68522 8.48167V8.70111H4.68525Z" fill="#666666"/>
<path d="M6.60266 7.63986V7.39527C6.60266 6.99239 6.40123 6.76221 6.01276 6.76221C5.62429 6.76221 5.42285 6.99243 5.42285 7.39527V8.70458C5.42285 9.10746 5.62426 9.33764 6.01276 9.33764C6.40123 9.33764 6.60266 9.10743 6.60266 8.70458V8.37008H6.22857V8.72977C6.22857 8.90961 6.14945 8.97433 6.02354 8.97433C5.89763 8.97433 5.81851 8.90961 5.81851 8.72977V7.37008C5.81851 7.19024 5.89763 7.12189 6.02354 7.12189C6.14945 7.12189 6.22857 7.19024 6.22857 7.37008V7.63986H6.60266Z" fill="#666666"/>
<path d="M8.37566 7.87012H7.65625V8.2298H8.37566V7.87012Z" fill="#666666"/>
<path d="M10.1565 6.79102C10.0953 6.96008 10.027 7.10755 9.72119 7.10755V7.38811H10.027V9.30892H10.4226V6.79102H10.1565Z" fill="#666666"/>
<path d="M11.4332 8.94918C11.4296 8.93118 11.4296 8.91321 11.4296 8.89521C11.4296 8.48155 12.2174 8.18658 12.2174 7.39527C12.2174 6.99239 12.016 6.76221 11.6275 6.76221C11.239 6.76221 11.0376 6.99243 11.0376 7.39527V7.63986H11.4117V7.37008C11.4117 7.19024 11.4908 7.12189 11.6167 7.12189C11.7426 7.12189 11.8218 7.18305 11.8218 7.40964C11.8218 8.13624 11.0376 8.25855 11.0376 8.99952V9.30886H12.1814V8.94918H12.1814H11.4332Z" fill="#666666"/>
<path d="M13.757 7.46002V7.39527C13.757 6.99239 13.5555 6.76221 13.1671 6.76221C12.7786 6.76221 12.5771 6.99243 12.5771 7.39527V7.53196H12.9512V7.37008C12.9512 7.19024 13.0304 7.12189 13.1563 7.12189C13.2822 7.12189 13.3613 7.18305 13.3613 7.40964V7.54989C13.3613 7.75133 13.2714 7.81611 13.1239 7.81611H12.9693V8.1758H13.1023C13.2822 8.1758 13.3613 8.26218 13.3613 8.49593V8.69377C13.3613 8.91677 13.2822 8.97793 13.1563 8.97793C13.0304 8.97793 12.9512 8.90958 12.9512 8.72974V8.49593H12.5772V8.70455C12.5772 9.10743 12.7786 9.33761 13.1671 9.33761C13.5556 9.33761 13.757 9.10739 13.757 8.70455V8.50671C13.757 8.25133 13.6779 8.06427 13.48 7.97796C13.6706 7.89886 13.757 7.7298 13.757 7.46002Z" fill="#666666"/>
<path d="M4.02943 5.70193C4.17782 5.70193 4.29812 5.58163 4.29812 5.43324C4.29812 5.28485 4.17782 5.16455 4.02943 5.16455C3.88104 5.16455 3.76074 5.28485 3.76074 5.43324C3.76074 5.58163 3.88104 5.70193 4.02943 5.70193Z" fill="#666666"/>
<path d="M4.02943 10.8411C4.17782 10.8411 4.29812 10.7208 4.29812 10.5724C4.29812 10.424 4.17782 10.3037 4.02943 10.3037C3.88104 10.3037 3.76074 10.424 3.76074 10.5724C3.76074 10.7208 3.88104 10.8411 4.02943 10.8411Z" fill="#666666"/>
<path d="M11.9708 5.70193C12.1192 5.70193 12.2395 5.58163 12.2395 5.43324C12.2395 5.28485 12.1192 5.16455 11.9708 5.16455C11.8224 5.16455 11.7021 5.28485 11.7021 5.43324C11.7021 5.58163 11.8224 5.70193 11.9708 5.70193Z" fill="#666666"/>
<path d="M11.9708 10.8411C12.1192 10.8411 12.2395 10.7208 12.2395 10.5724C12.2395 10.424 12.1192 10.3037 11.9708 10.3037C11.8224 10.3037 11.7021 10.424 11.7021 10.5724C11.7021 10.7208 11.8224 10.8411 11.9708 10.8411Z" fill="#666666"/>
</svg>
