<svg width="16" height="16" viewBox="0 0 16 16" fill="none" xmlns="http://www.w3.org/2000/svg">
<path d="M13.2696 6.086H12.4696V4.39256C12.4696 3.93562 12.0992 3.56519 11.6423 3.56519H2.94498C2.24888 3.56519 1.68457 4.1295 1.68457 4.82559C1.68457 4.84734 1.68457 4.84734 1.68457 4.82559V14.7395C1.68457 15.4356 2.24888 15.9999 2.94498 15.9999H13.2696C13.7266 15.9999 14.097 15.6295 14.097 15.1725V6.91337C14.097 6.45644 13.7266 6.086 13.2696 6.086Z" fill="url(#paint0_linear_1550_7941)"/>
<path d="M2.74627 6.82368H2.20798C2.13089 6.82368 2.06836 6.76118 2.06836 6.68406C2.06836 6.60696 2.13086 6.54443 2.20798 6.54443H2.74623C2.82333 6.54443 2.88586 6.60693 2.88586 6.68406C2.88586 6.76118 2.82336 6.82368 2.74627 6.82368Z" fill="url(#paint1_linear_1550_7941)"/>
<path d="M3.94936 6.82368H3.41111C3.33402 6.82368 3.27148 6.76118 3.27148 6.68406C3.27148 6.60696 3.33398 6.54443 3.41111 6.54443H3.94936C4.02645 6.54443 4.08898 6.60693 4.08898 6.68406C4.08895 6.76118 4.02645 6.82368 3.94936 6.82368Z" fill="url(#paint2_linear_1550_7941)"/>
<path d="M5.15252 6.82368H4.61423C4.53714 6.82368 4.47461 6.76118 4.47461 6.68406C4.47461 6.60696 4.53711 6.54443 4.61423 6.54443H5.15248C5.22958 6.54443 5.29211 6.60693 5.29211 6.68406C5.29211 6.76118 5.22961 6.82368 5.15252 6.82368Z" fill="url(#paint3_linear_1550_7941)"/>
<path d="M6.35561 6.82368H5.81736C5.74027 6.82368 5.67773 6.76118 5.67773 6.68406C5.67773 6.60696 5.74023 6.54443 5.81736 6.54443H6.35561C6.4327 6.54443 6.49523 6.60693 6.49523 6.68406C6.4952 6.76118 6.4327 6.82368 6.35561 6.82368Z" fill="url(#paint4_linear_1550_7941)"/>
<path d="M7.55776 6.82368H7.01951C6.94241 6.82368 6.87988 6.76118 6.87988 6.68406C6.87988 6.60696 6.94238 6.54443 7.01951 6.54443H7.55776C7.63485 6.54443 7.69738 6.60693 7.69738 6.68406C7.69738 6.76118 7.63485 6.82368 7.55776 6.82368Z" fill="url(#paint5_linear_1550_7941)"/>
<path d="M8.76088 6.82368H8.22263C8.14554 6.82368 8.08301 6.76118 8.08301 6.68406C8.08301 6.60696 8.14551 6.54443 8.22263 6.54443H8.76088C8.83798 6.54443 8.90048 6.60693 8.90048 6.68406C8.90051 6.76118 8.83801 6.82368 8.76088 6.82368Z" fill="url(#paint6_linear_1550_7941)"/>
<path d="M9.96401 6.82368H9.42576C9.34866 6.82368 9.28613 6.76118 9.28613 6.68406C9.28613 6.60696 9.34863 6.54443 9.42576 6.54443H9.96401C10.0411 6.54443 10.1036 6.60693 10.1036 6.68406C10.1036 6.76118 10.0411 6.82368 9.96401 6.82368Z" fill="url(#paint7_linear_1550_7941)"/>
<path d="M11.1671 6.82368H10.6289C10.5518 6.82368 10.4893 6.76118 10.4893 6.68406C10.4893 6.60696 10.5518 6.54443 10.6289 6.54443H11.1671C11.2442 6.54443 11.3067 6.60693 11.3067 6.68406C11.3067 6.76118 11.2442 6.82368 11.1671 6.82368Z" fill="url(#paint8_linear_1550_7941)"/>
<path d="M12.3702 6.82368H11.832C11.7549 6.82368 11.6924 6.76118 11.6924 6.68406C11.6924 6.60696 11.7549 6.54443 11.832 6.54443H12.3702C12.4473 6.54443 12.5099 6.60693 12.5099 6.68406C12.5098 6.76118 12.4473 6.82368 12.3702 6.82368Z" fill="url(#paint9_linear_1550_7941)"/>
<path d="M13.5734 6.82368H13.0351C12.958 6.82368 12.8955 6.76118 12.8955 6.68406C12.8955 6.60696 12.958 6.54443 13.0351 6.54443H13.5734C13.6504 6.54443 13.7129 6.60693 13.7129 6.68406C13.7129 6.76118 13.6504 6.82368 13.5734 6.82368Z" fill="url(#paint10_linear_1550_7941)"/>
<path d="M2.74627 15.3879H2.20798C2.13089 15.3879 2.06836 15.3254 2.06836 15.2482C2.06836 15.1711 2.13086 15.1086 2.20798 15.1086H2.74623C2.82333 15.1086 2.88586 15.1711 2.88586 15.2482C2.88586 15.3254 2.82336 15.3879 2.74627 15.3879Z" fill="url(#paint11_linear_1550_7941)"/>
<path d="M3.94936 15.3879H3.41111C3.33402 15.3879 3.27148 15.3254 3.27148 15.2482C3.27148 15.1711 3.33398 15.1086 3.41111 15.1086H3.94936C4.02645 15.1086 4.08898 15.1711 4.08898 15.2482C4.08895 15.3254 4.02645 15.3879 3.94936 15.3879Z" fill="url(#paint12_linear_1550_7941)"/>
<path d="M5.15252 15.3879H4.61423C4.53714 15.3879 4.47461 15.3254 4.47461 15.2482C4.47461 15.1711 4.53711 15.1086 4.61423 15.1086H5.15248C5.22958 15.1086 5.29211 15.1711 5.29211 15.2482C5.29211 15.3254 5.22961 15.3879 5.15252 15.3879Z" fill="url(#paint13_linear_1550_7941)"/>
<path d="M6.35561 15.3879H5.81736C5.74027 15.3879 5.67773 15.3254 5.67773 15.2482C5.67773 15.1711 5.74023 15.1086 5.81736 15.1086H6.35561C6.4327 15.1086 6.49523 15.1711 6.49523 15.2482C6.4952 15.3254 6.4327 15.3879 6.35561 15.3879Z" fill="url(#paint14_linear_1550_7941)"/>
<path d="M7.55776 15.3879H7.01951C6.94241 15.3879 6.87988 15.3254 6.87988 15.2482C6.87988 15.1711 6.94238 15.1086 7.01951 15.1086H7.55776C7.63485 15.1086 7.69738 15.1711 7.69738 15.2482C7.69738 15.3254 7.63485 15.3879 7.55776 15.3879Z" fill="url(#paint15_linear_1550_7941)"/>
<path d="M8.76088 15.3879H8.22263C8.14554 15.3879 8.08301 15.3254 8.08301 15.2482C8.08301 15.1711 8.14551 15.1086 8.22263 15.1086H8.76088C8.83798 15.1086 8.90048 15.1711 8.90048 15.2482C8.90051 15.3254 8.83801 15.3879 8.76088 15.3879Z" fill="url(#paint16_linear_1550_7941)"/>
<path d="M9.96401 15.3879H9.42576C9.34866 15.3879 9.28613 15.3254 9.28613 15.2482C9.28613 15.1711 9.34863 15.1086 9.42576 15.1086H9.96401C10.0411 15.1086 10.1036 15.1711 10.1036 15.2482C10.1036 15.3254 10.0411 15.3879 9.96401 15.3879Z" fill="url(#paint17_linear_1550_7941)"/>
<path d="M11.1671 15.3879H10.6289C10.5518 15.3879 10.4893 15.3254 10.4893 15.2482C10.4893 15.1711 10.5518 15.1086 10.6289 15.1086H11.1671C11.2442 15.1086 11.3067 15.1711 11.3067 15.2482C11.3067 15.3254 11.2442 15.3879 11.1671 15.3879Z" fill="url(#paint18_linear_1550_7941)"/>
<path d="M12.3702 15.3879H11.832C11.7549 15.3879 11.6924 15.3254 11.6924 15.2482C11.6924 15.1711 11.7549 15.1086 11.832 15.1086H12.3702C12.4473 15.1086 12.5099 15.1711 12.5099 15.2482C12.5098 15.3254 12.4473 15.3879 12.3702 15.3879Z" fill="url(#paint19_linear_1550_7941)"/>
<path d="M13.5734 15.3879H13.0351C12.958 15.3879 12.8955 15.3254 12.8955 15.2482C12.8955 15.1711 12.958 15.1086 13.0351 15.1086H13.5734C13.6504 15.1086 13.7129 15.1711 13.7129 15.2482C13.7129 15.3254 13.6504 15.3879 13.5734 15.3879Z" fill="url(#paint20_linear_1550_7941)"/>
<path d="M13.2698 6.086H12.4698V4.39256C12.4698 3.93562 12.0993 3.56519 11.6424 3.56519H6.23047V15.9999H13.2698C13.7267 15.9999 14.0972 15.6295 14.0972 15.1725V6.91337C14.0972 6.45644 13.7268 6.086 13.2698 6.086Z" fill="url(#paint21_linear_1550_7941)"/>
<path d="M12.4696 6.086H2.94498C2.24888 6.086 1.68457 5.52169 1.68457 4.82559C1.68457 4.1295 2.24888 3.56519 2.94498 3.56519H11.6422C12.0992 3.56519 12.4696 3.93562 12.4696 4.39256V6.086H12.4696Z" fill="url(#paint22_linear_1550_7941)"/>
<path d="M12.4691 4.39259V6.08578H9.37891V3.56519H11.6417C12.0988 3.56519 12.4691 3.93553 12.4691 4.39259Z" fill="url(#paint23_linear_1550_7941)"/>
<path d="M12.4691 4.39259V6.08578H9.37891V3.56519H11.6417C12.0988 3.56519 12.4691 3.93553 12.4691 4.39259Z" fill="url(#paint24_linear_1550_7941)"/>
<path d="M1.68457 11.6833V14.7395C1.68457 15.4356 2.24888 15.9999 2.94498 15.9999H13.2696C13.7266 15.9999 14.097 15.6294 14.097 15.1725V11.6833H1.68457Z" fill="url(#paint25_linear_1550_7941)"/>
<path d="M2.5459 5.17458C2.5459 5.67764 2.95371 6.08548 3.45677 6.08552L12.4696 6.08611V4.39267C12.4696 4.34867 12.4651 4.3058 12.4585 4.26367H3.45684C2.95374 4.26364 2.5459 4.67148 2.5459 5.17458Z" fill="url(#paint26_linear_1550_7941)"/>
<path d="M10.1807 11.8594L13.9558 15.6345C14.0446 15.5026 14.0965 15.3437 14.0965 15.1727V11.8594H10.1807Z" fill="url(#paint27_linear_1550_7941)"/>
<path d="M13.9804 12.2631H11.2099C10.3734 12.2631 9.69531 11.585 9.69531 10.7485C9.69531 9.91201 10.3734 9.23389 11.2099 9.23389H13.9804C14.1657 9.23389 14.3159 9.38411 14.3159 9.56942V11.9277C14.3159 12.1129 14.1657 12.2631 13.9804 12.2631Z" fill="url(#paint28_linear_1550_7941)"/>
<path d="M9.77319 10.2691C9.72294 10.4198 9.69531 10.5808 9.69531 10.7484C9.69531 11.5849 10.3734 12.263 11.2099 12.263H13.9804C14.1657 12.263 14.3159 12.1128 14.3159 11.9275V10.269H9.77319V10.2691Z" fill="url(#paint29_linear_1550_7941)"/>
<path d="M13.9801 9.23364H11.7656V12.2629H13.9801C14.1654 12.2629 14.3156 12.1127 14.3156 11.9274V9.56914C14.3156 9.38386 14.1654 9.23364 13.9801 9.23364Z" fill="url(#paint30_linear_1550_7941)"/>
<path d="M11.4602 12.2629H13.7131L11.6353 10.1851L10.5088 11.3115L11.4602 12.2629Z" fill="url(#paint31_linear_1550_7941)"/>
<path d="M11.0719 11.5447C11.5118 11.5447 11.8685 11.1881 11.8685 10.7482C11.8685 10.3083 11.5118 9.95166 11.0719 9.95166C10.632 9.95166 10.2754 10.3083 10.2754 10.7482C10.2754 11.1881 10.632 11.5447 11.0719 11.5447Z" fill="url(#paint32_linear_1550_7941)"/>
<path d="M10.2754 10.7481C10.2754 11.188 10.632 11.5447 11.0719 11.5447C11.5118 11.5447 11.8685 11.188 11.8685 10.7481C11.8685 10.6528 11.8517 10.5615 11.821 10.4768H10.3228C10.2922 10.5615 10.2754 10.6528 10.2754 10.7481Z" fill="url(#paint33_linear_1550_7941)"/>
<path d="M10.5089 11.3114C10.82 11.6224 11.3243 11.6224 11.6354 11.3114C11.9464 11.0003 11.9464 10.496 11.6354 10.1849C11.568 10.1175 11.4916 10.0648 11.41 10.0266L10.3506 11.086C10.3888 11.1675 10.4415 11.244 10.5089 11.3114Z" fill="url(#paint34_linear_1550_7941)"/>
<path d="M11.3816 6.08609H5.49902V0.5735C5.49902 0.25675 5.75577 0 6.07252 0H10.8081C11.1249 0 11.3816 0.25675 11.3816 0.5735V6.08609Z" fill="url(#paint35_linear_1550_7941)"/>
<path d="M6.47906 1.41394C6.73717 1.41394 6.94641 1.2047 6.94641 0.946592C6.94641 0.688485 6.73717 0.479248 6.47906 0.479248C6.22096 0.479248 6.01172 0.688485 6.01172 0.946592C6.01172 1.2047 6.22096 1.41394 6.47906 1.41394Z" fill="url(#paint36_linear_1550_7941)"/>
<path d="M10.4693 1.41394C10.7274 1.41394 10.9366 1.2047 10.9366 0.946592C10.9366 0.688485 10.7274 0.479248 10.4693 0.479248C10.2112 0.479248 10.002 0.688485 10.002 0.946592C10.002 1.2047 10.2112 1.41394 10.4693 1.41394Z" fill="url(#paint37_linear_1550_7941)"/>
<path d="M10.5515 2.02822V6.08588H6.33008V2.02819C6.33008 1.89379 6.42761 1.78238 6.55948 1.75632C6.72577 1.72344 6.88439 1.64254 7.01308 1.51357C7.14155 1.3851 7.22242 1.22691 7.25552 1.06101C7.28092 0.933662 7.39498 0.843506 7.52483 0.843506H9.35649C9.48642 0.843506 9.60049 0.933787 9.62586 1.06122C9.65886 1.22707 9.7397 1.38516 9.86811 1.5136C9.99708 1.64257 10.1558 1.72347 10.3221 1.75635C10.454 1.78238 10.5515 1.89379 10.5515 2.02822Z" fill="url(#paint38_linear_1550_7941)"/>
<path d="M10.8086 0H8.3418V6.08609H11.3821V0.5735C11.3821 0.25675 11.1253 0 10.8086 0Z" fill="url(#paint39_linear_1550_7941)"/>
<path d="M5.49902 1.94312H11.3816V6.08599H5.49902V1.94312Z" fill="url(#paint40_linear_1550_7941)"/>
<path d="M9.12891 6.08617H11.3813V4.07104L9.12891 1.8186V6.08617Z" fill="url(#paint41_linear_1550_7941)"/>
<path d="M9.27032 6.08613H3.3877V2.19557C3.3877 1.87885 3.64445 1.62207 3.9612 1.62207H8.69685C9.01357 1.62207 9.27035 1.87882 9.27035 2.19557L9.27032 6.08613Z" fill="url(#paint42_linear_1550_7941)"/>
<path d="M4.36773 3.03601C4.62584 3.03601 4.83508 2.82677 4.83508 2.56866C4.83508 2.31056 4.62584 2.10132 4.36773 2.10132C4.10963 2.10132 3.90039 2.31056 3.90039 2.56866C3.90039 2.82677 4.10963 3.03601 4.36773 3.03601Z" fill="url(#paint43_linear_1550_7941)"/>
<path d="M8.35797 3.03601C8.61608 3.03601 8.82531 2.82677 8.82531 2.56866C8.82531 2.31056 8.61608 2.10132 8.35797 2.10132C8.09986 2.10132 7.89062 2.31056 7.89062 2.56866C7.89062 2.82677 8.09986 3.03601 8.35797 3.03601Z" fill="url(#paint44_linear_1550_7941)"/>
<path d="M8.44019 3.65026V6.08586H4.21875V3.65026C4.21875 3.51586 4.31628 3.40445 4.44816 3.37839C4.61444 3.34551 4.77306 3.26461 4.90175 3.13564C5.03022 3.00717 5.11109 2.84898 5.14419 2.68308C5.16959 2.55573 5.28366 2.46558 5.4135 2.46558H7.24516C7.37509 2.46558 7.48916 2.55586 7.5145 2.68329C7.5475 2.84914 7.62834 3.00723 7.75675 3.13567C7.88572 3.26464 8.04444 3.34554 8.21075 3.37842C8.34266 3.40445 8.44019 3.51586 8.44019 3.65026Z" fill="url(#paint45_linear_1550_7941)"/>
<path d="M8.69725 1.62207H6.23047V6.0861H9.27075V2.19554C9.27075 1.87882 9.01397 1.62207 8.69725 1.62207Z" fill="url(#paint46_linear_1550_7941)"/>
<path d="M3.3877 3.56519H9.27032V6.08603H3.3877V3.56519Z" fill="url(#paint47_linear_1550_7941)"/>
<defs>
<linearGradient id="paint0_linear_1550_7941" x1="1.78707" y1="9.78253" x2="12.7186" y2="9.78253" gradientUnits="userSpaceOnUse">
<stop stop-color="#F89580"/>
<stop offset="1" stop-color="#C4573A"/>
</linearGradient>
<linearGradient id="paint1_linear_1550_7941" x1="2.47711" y1="6.79578" x2="2.47711" y2="6.51656" gradientUnits="userSpaceOnUse">
<stop stop-color="#F89580"/>
<stop offset="1" stop-color="#C4573A"/>
</linearGradient>
<linearGradient id="paint2_linear_1550_7941" x1="3.68023" y1="6.79578" x2="3.68023" y2="6.51656" gradientUnits="userSpaceOnUse">
<stop stop-color="#F89580"/>
<stop offset="1" stop-color="#C4573A"/>
</linearGradient>
<linearGradient id="paint3_linear_1550_7941" x1="4.88339" y1="6.79578" x2="4.88339" y2="6.51656" gradientUnits="userSpaceOnUse">
<stop stop-color="#F89580"/>
<stop offset="1" stop-color="#C4573A"/>
</linearGradient>
<linearGradient id="paint4_linear_1550_7941" x1="6.08648" y1="6.79578" x2="6.08648" y2="6.51656" gradientUnits="userSpaceOnUse">
<stop stop-color="#F89580"/>
<stop offset="1" stop-color="#C4573A"/>
</linearGradient>
<linearGradient id="paint5_linear_1550_7941" x1="7.28863" y1="6.79578" x2="7.28863" y2="6.51656" gradientUnits="userSpaceOnUse">
<stop stop-color="#F89580"/>
<stop offset="1" stop-color="#C4573A"/>
</linearGradient>
<linearGradient id="paint6_linear_1550_7941" x1="8.49176" y1="6.79578" x2="8.49176" y2="6.51656" gradientUnits="userSpaceOnUse">
<stop stop-color="#F89580"/>
<stop offset="1" stop-color="#C4573A"/>
</linearGradient>
<linearGradient id="paint7_linear_1550_7941" x1="9.69488" y1="6.79578" x2="9.69488" y2="6.51656" gradientUnits="userSpaceOnUse">
<stop stop-color="#F89580"/>
<stop offset="1" stop-color="#C4573A"/>
</linearGradient>
<linearGradient id="paint8_linear_1550_7941" x1="10.898" y1="6.79578" x2="10.898" y2="6.51656" gradientUnits="userSpaceOnUse">
<stop stop-color="#F89580"/>
<stop offset="1" stop-color="#C4573A"/>
</linearGradient>
<linearGradient id="paint9_linear_1550_7941" x1="12.1011" y1="6.79578" x2="12.1011" y2="6.51656" gradientUnits="userSpaceOnUse">
<stop stop-color="#F89580"/>
<stop offset="1" stop-color="#C4573A"/>
</linearGradient>
<linearGradient id="paint10_linear_1550_7941" x1="13.3042" y1="6.79578" x2="13.3042" y2="6.51656" gradientUnits="userSpaceOnUse">
<stop stop-color="#F89580"/>
<stop offset="1" stop-color="#C4573A"/>
</linearGradient>
<linearGradient id="paint11_linear_1550_7941" x1="2.47711" y1="15.36" x2="2.47711" y2="15.0807" gradientUnits="userSpaceOnUse">
<stop stop-color="#F89580"/>
<stop offset="1" stop-color="#C4573A"/>
</linearGradient>
<linearGradient id="paint12_linear_1550_7941" x1="3.68023" y1="15.36" x2="3.68023" y2="15.0807" gradientUnits="userSpaceOnUse">
<stop stop-color="#F89580"/>
<stop offset="1" stop-color="#C4573A"/>
</linearGradient>
<linearGradient id="paint13_linear_1550_7941" x1="4.88339" y1="15.36" x2="4.88339" y2="15.0807" gradientUnits="userSpaceOnUse">
<stop stop-color="#F89580"/>
<stop offset="1" stop-color="#C4573A"/>
</linearGradient>
<linearGradient id="paint14_linear_1550_7941" x1="6.08648" y1="15.36" x2="6.08648" y2="15.0807" gradientUnits="userSpaceOnUse">
<stop stop-color="#F89580"/>
<stop offset="1" stop-color="#C4573A"/>
</linearGradient>
<linearGradient id="paint15_linear_1550_7941" x1="7.28863" y1="15.36" x2="7.28863" y2="15.0807" gradientUnits="userSpaceOnUse">
<stop stop-color="#F89580"/>
<stop offset="1" stop-color="#C4573A"/>
</linearGradient>
<linearGradient id="paint16_linear_1550_7941" x1="8.49176" y1="15.36" x2="8.49176" y2="15.0807" gradientUnits="userSpaceOnUse">
<stop stop-color="#F89580"/>
<stop offset="1" stop-color="#C4573A"/>
</linearGradient>
<linearGradient id="paint17_linear_1550_7941" x1="9.69488" y1="15.36" x2="9.69488" y2="15.0807" gradientUnits="userSpaceOnUse">
<stop stop-color="#F89580"/>
<stop offset="1" stop-color="#C4573A"/>
</linearGradient>
<linearGradient id="paint18_linear_1550_7941" x1="10.898" y1="15.36" x2="10.898" y2="15.0807" gradientUnits="userSpaceOnUse">
<stop stop-color="#F89580"/>
<stop offset="1" stop-color="#C4573A"/>
</linearGradient>
<linearGradient id="paint19_linear_1550_7941" x1="12.1011" y1="15.36" x2="12.1011" y2="15.0807" gradientUnits="userSpaceOnUse">
<stop stop-color="#F89580"/>
<stop offset="1" stop-color="#C4573A"/>
</linearGradient>
<linearGradient id="paint20_linear_1550_7941" x1="13.3042" y1="15.36" x2="13.3042" y2="15.0807" gradientUnits="userSpaceOnUse">
<stop stop-color="#F89580"/>
<stop offset="1" stop-color="#C4573A"/>
</linearGradient>
<linearGradient id="paint21_linear_1550_7941" x1="11.8241" y1="9.78253" x2="14.0008" y2="9.78253" gradientUnits="userSpaceOnUse">
<stop stop-color="#C4573A" stop-opacity="0"/>
<stop offset="0.235" stop-color="#BE5539" stop-opacity="0.235"/>
<stop offset="0.539" stop-color="#AE4E35" stop-opacity="0.539"/>
<stop offset="0.8794" stop-color="#934330" stop-opacity="0.879"/>
<stop offset="1" stop-color="#883F2E"/>
</linearGradient>
<linearGradient id="paint22_linear_1550_7941" x1="5.71666" y1="1.54159" x2="8.26185" y2="7.36528" gradientUnits="userSpaceOnUse">
<stop stop-color="#C4573A" stop-opacity="0"/>
<stop offset="0.235" stop-color="#BE5539" stop-opacity="0.235"/>
<stop offset="0.539" stop-color="#AE4E35" stop-opacity="0.539"/>
<stop offset="0.8794" stop-color="#934330" stop-opacity="0.879"/>
<stop offset="1" stop-color="#883F2E"/>
</linearGradient>
<linearGradient id="paint23_linear_1550_7941" x1="10.5293" y1="4.82547" x2="12.2036" y2="4.82547" gradientUnits="userSpaceOnUse">
<stop stop-color="#C4573A" stop-opacity="0"/>
<stop offset="0.235" stop-color="#BE5539" stop-opacity="0.235"/>
<stop offset="0.539" stop-color="#AE4E35" stop-opacity="0.539"/>
<stop offset="0.8794" stop-color="#934330" stop-opacity="0.879"/>
<stop offset="1" stop-color="#883F2E"/>
</linearGradient>
<linearGradient id="paint24_linear_1550_7941" x1="12.2836" y1="4.82547" x2="11.3489" y2="4.82547" gradientUnits="userSpaceOnUse">
<stop stop-color="#C4573A" stop-opacity="0"/>
<stop offset="0.235" stop-color="#BE5539" stop-opacity="0.235"/>
<stop offset="0.539" stop-color="#AE4E35" stop-opacity="0.539"/>
<stop offset="0.8794" stop-color="#934330" stop-opacity="0.879"/>
<stop offset="1" stop-color="#883F2E"/>
</linearGradient>
<linearGradient id="paint25_linear_1550_7941" x1="7.89079" y1="13.4611" x2="7.89079" y2="15.9646" gradientUnits="userSpaceOnUse">
<stop stop-color="#C4573A" stop-opacity="0"/>
<stop offset="0.235" stop-color="#BE5539" stop-opacity="0.235"/>
<stop offset="0.539" stop-color="#AE4E35" stop-opacity="0.539"/>
<stop offset="0.8794" stop-color="#934330" stop-opacity="0.879"/>
<stop offset="1" stop-color="#883F2E"/>
</linearGradient>
<linearGradient id="paint26_linear_1550_7941" x1="7.50774" y1="4.55548" x2="7.50774" y2="6.01877" gradientUnits="userSpaceOnUse">
<stop stop-color="#C4573A" stop-opacity="0"/>
<stop offset="0.235" stop-color="#BE5539" stop-opacity="0.235"/>
<stop offset="0.539" stop-color="#AE4E35" stop-opacity="0.539"/>
<stop offset="0.8794" stop-color="#934330" stop-opacity="0.879"/>
<stop offset="1" stop-color="#883F2E"/>
</linearGradient>
<linearGradient id="paint27_linear_1550_7941" x1="12.6619" y1="15.8398" x2="12.1874" y2="12.2306" gradientUnits="userSpaceOnUse">
<stop stop-color="#C4573A" stop-opacity="0"/>
<stop offset="0.235" stop-color="#BE5539" stop-opacity="0.235"/>
<stop offset="0.539" stop-color="#AE4E35" stop-opacity="0.539"/>
<stop offset="0.8794" stop-color="#934330" stop-opacity="0.879"/>
<stop offset="1" stop-color="#883F2E"/>
</linearGradient>
<linearGradient id="paint28_linear_1550_7941" x1="11.9051" y1="9.30929" x2="12.2694" y2="12.5111" gradientUnits="userSpaceOnUse">
<stop stop-color="#F89580"/>
<stop offset="1" stop-color="#C4573A"/>
</linearGradient>
<linearGradient id="paint29_linear_1550_7941" x1="12.0056" y1="11.151" x2="12.0056" y2="12.229" gradientUnits="userSpaceOnUse">
<stop stop-color="#C4573A" stop-opacity="0"/>
<stop offset="0.235" stop-color="#BE5539" stop-opacity="0.235"/>
<stop offset="0.539" stop-color="#AE4E35" stop-opacity="0.539"/>
<stop offset="0.8794" stop-color="#934330" stop-opacity="0.879"/>
<stop offset="1" stop-color="#883F2E"/>
</linearGradient>
<linearGradient id="paint30_linear_1550_7941" x1="12.9735" y1="10.7483" x2="14.4147" y2="10.7483" gradientUnits="userSpaceOnUse">
<stop stop-color="#C4573A" stop-opacity="0"/>
<stop offset="0.235" stop-color="#BE5539" stop-opacity="0.235"/>
<stop offset="0.539" stop-color="#AE4E35" stop-opacity="0.539"/>
<stop offset="0.8794" stop-color="#934330" stop-opacity="0.879"/>
<stop offset="1" stop-color="#883F2E"/>
</linearGradient>
<linearGradient id="paint31_linear_1550_7941" x1="12.1734" y1="11.8426" x2="11.3299" y2="11.0086" gradientUnits="userSpaceOnUse">
<stop stop-color="#C4573A" stop-opacity="0"/>
<stop offset="0.235" stop-color="#BE5539" stop-opacity="0.235"/>
<stop offset="0.539" stop-color="#AE4E35" stop-opacity="0.539"/>
<stop offset="0.8794" stop-color="#934330" stop-opacity="0.879"/>
<stop offset="1" stop-color="#883F2E"/>
</linearGradient>
<linearGradient id="paint32_linear_1550_7941" x1="10.5847" y1="10.2609" x2="11.4636" y2="11.1399" gradientUnits="userSpaceOnUse">
<stop stop-color="#5A5A5A"/>
<stop offset="1" stop-color="#444444"/>
</linearGradient>
<linearGradient id="paint33_linear_1550_7941" x1="11.0719" y1="10.7582" x2="11.0719" y2="11.6952" gradientUnits="userSpaceOnUse">
<stop stop-color="#433F43" stop-opacity="0"/>
<stop offset="1" stop-color="#1A1A1A"/>
</linearGradient>
<linearGradient id="paint34_linear_1550_7941" x1="11.0829" y1="10.7548" x2="11.7802" y2="11.4521" gradientUnits="userSpaceOnUse">
<stop stop-color="#433F43" stop-opacity="0"/>
<stop offset="1" stop-color="#1A1A1A"/>
</linearGradient>
<linearGradient id="paint35_linear_1550_7941" x1="6.84002" y1="0.777281" x2="10.413" y2="6.28663" gradientUnits="userSpaceOnUse">
<stop stop-color="#BBEC6C"/>
<stop offset="0.2886" stop-color="#ABDC59"/>
<stop offset="0.866" stop-color="#82B32A"/>
<stop offset="1" stop-color="#78A91F"/>
</linearGradient>
<linearGradient id="paint36_linear_1550_7941" x1="6.41803" y1="-1.25653" x2="6.54747" y2="3.41681" gradientUnits="userSpaceOnUse">
<stop stop-color="#334C0F" stop-opacity="0"/>
<stop offset="0.3197" stop-color="#344C12" stop-opacity="0.32"/>
<stop offset="0.5654" stop-color="#374A1C" stop-opacity="0.565"/>
<stop offset="0.7856" stop-color="#3C482C" stop-opacity="0.786"/>
<stop offset="0.9909" stop-color="#444443" stop-opacity="0.991"/>
<stop offset="1" stop-color="#444444"/>
</linearGradient>
<linearGradient id="paint37_linear_1550_7941" x1="10.4052" y1="-1.36694" x2="10.5346" y2="3.3064" gradientUnits="userSpaceOnUse">
<stop stop-color="#334C0F" stop-opacity="0"/>
<stop offset="0.3197" stop-color="#344C12" stop-opacity="0.32"/>
<stop offset="0.5654" stop-color="#374A1C" stop-opacity="0.565"/>
<stop offset="0.7856" stop-color="#3C482C" stop-opacity="0.786"/>
<stop offset="0.9909" stop-color="#444443" stop-opacity="0.991"/>
<stop offset="1" stop-color="#444444"/>
</linearGradient>
<linearGradient id="paint38_linear_1550_7941" x1="4.29786" y1="-0.857463" x2="10.4607" y2="6.37873" gradientUnits="userSpaceOnUse">
<stop stop-color="#334C0F" stop-opacity="0"/>
<stop offset="0.3197" stop-color="#344C12" stop-opacity="0.32"/>
<stop offset="0.5654" stop-color="#374A1C" stop-opacity="0.565"/>
<stop offset="0.7856" stop-color="#3C482C" stop-opacity="0.786"/>
<stop offset="0.9909" stop-color="#444443" stop-opacity="0.991"/>
<stop offset="1" stop-color="#444444"/>
</linearGradient>
<linearGradient id="paint39_linear_1550_7941" x1="10.3405" y1="3.04303" x2="11.5712" y2="3.04303" gradientUnits="userSpaceOnUse">
<stop stop-color="#334C0F" stop-opacity="0"/>
<stop offset="0.3197" stop-color="#344C12" stop-opacity="0.32"/>
<stop offset="0.5654" stop-color="#374A1C" stop-opacity="0.565"/>
<stop offset="0.7856" stop-color="#3C482C" stop-opacity="0.786"/>
<stop offset="0.9909" stop-color="#444443" stop-opacity="0.991"/>
<stop offset="1" stop-color="#444444"/>
</linearGradient>
<linearGradient id="paint40_linear_1550_7941" x1="8.44034" y1="4.57093" x2="8.44034" y2="6.22536" gradientUnits="userSpaceOnUse">
<stop stop-color="#334C0F" stop-opacity="0"/>
<stop offset="0.3197" stop-color="#344C12" stop-opacity="0.32"/>
<stop offset="0.5654" stop-color="#374A1C" stop-opacity="0.565"/>
<stop offset="0.7856" stop-color="#3C482C" stop-opacity="0.786"/>
<stop offset="0.9909" stop-color="#444443" stop-opacity="0.991"/>
<stop offset="1" stop-color="#444444"/>
</linearGradient>
<linearGradient id="paint41_linear_1550_7941" x1="11.7519" y1="3.95238" x2="9.00544" y2="3.95238" gradientUnits="userSpaceOnUse">
<stop stop-color="#334C0F" stop-opacity="0"/>
<stop offset="0.3197" stop-color="#344C12" stop-opacity="0.32"/>
<stop offset="0.5654" stop-color="#374A1C" stop-opacity="0.565"/>
<stop offset="0.7856" stop-color="#3C482C" stop-opacity="0.786"/>
<stop offset="0.9909" stop-color="#444443" stop-opacity="0.991"/>
<stop offset="1" stop-color="#444444"/>
</linearGradient>
<linearGradient id="paint42_linear_1550_7941" x1="4.99254" y1="1.9952" x2="7.96429" y2="6.57745" gradientUnits="userSpaceOnUse">
<stop stop-color="#BBEC6C"/>
<stop offset="0.2886" stop-color="#ABDC59"/>
<stop offset="0.866" stop-color="#82B32A"/>
<stop offset="1" stop-color="#78A91F"/>
</linearGradient>
<linearGradient id="paint43_linear_1550_7941" x1="4.30673" y1="0.365537" x2="4.43617" y2="5.03888" gradientUnits="userSpaceOnUse">
<stop stop-color="#334C0F" stop-opacity="0"/>
<stop offset="0.3197" stop-color="#344C12" stop-opacity="0.32"/>
<stop offset="0.5654" stop-color="#374A1C" stop-opacity="0.565"/>
<stop offset="0.7856" stop-color="#3C482C" stop-opacity="0.786"/>
<stop offset="0.9909" stop-color="#444443" stop-opacity="0.991"/>
<stop offset="1" stop-color="#444444"/>
</linearGradient>
<linearGradient id="paint44_linear_1550_7941" x1="8.29391" y1="0.255131" x2="8.42331" y2="4.92847" gradientUnits="userSpaceOnUse">
<stop stop-color="#334C0F" stop-opacity="0"/>
<stop offset="0.3197" stop-color="#344C12" stop-opacity="0.32"/>
<stop offset="0.5654" stop-color="#374A1C" stop-opacity="0.565"/>
<stop offset="0.7856" stop-color="#3C482C" stop-opacity="0.786"/>
<stop offset="0.9909" stop-color="#444443" stop-opacity="0.991"/>
<stop offset="1" stop-color="#444444"/>
</linearGradient>
<linearGradient id="paint45_linear_1550_7941" x1="3.02856" y1="0.942295" x2="7.92719" y2="6.69408" gradientUnits="userSpaceOnUse">
<stop stop-color="#334C0F" stop-opacity="0"/>
<stop offset="0.3197" stop-color="#344C12" stop-opacity="0.32"/>
<stop offset="0.5654" stop-color="#374A1C" stop-opacity="0.565"/>
<stop offset="0.7856" stop-color="#3C482C" stop-opacity="0.786"/>
<stop offset="0.9909" stop-color="#444443" stop-opacity="0.991"/>
<stop offset="1" stop-color="#444444"/>
</linearGradient>
<linearGradient id="paint46_linear_1550_7941" x1="8.22922" y1="3.85407" x2="9.45991" y2="3.85407" gradientUnits="userSpaceOnUse">
<stop stop-color="#334C0F" stop-opacity="0"/>
<stop offset="0.3197" stop-color="#344C12" stop-opacity="0.32"/>
<stop offset="0.5654" stop-color="#374A1C" stop-opacity="0.565"/>
<stop offset="0.7856" stop-color="#3C482C" stop-opacity="0.786"/>
<stop offset="0.9909" stop-color="#444443" stop-opacity="0.991"/>
<stop offset="1" stop-color="#444444"/>
</linearGradient>
<linearGradient id="paint47_linear_1550_7941" x1="6.32901" y1="5.16415" x2="6.32901" y2="6.17081" gradientUnits="userSpaceOnUse">
<stop stop-color="#334C0F" stop-opacity="0"/>
<stop offset="0.3197" stop-color="#344C12" stop-opacity="0.32"/>
<stop offset="0.5654" stop-color="#374A1C" stop-opacity="0.565"/>
<stop offset="0.7856" stop-color="#3C482C" stop-opacity="0.786"/>
<stop offset="0.9909" stop-color="#444443" stop-opacity="0.991"/>
<stop offset="1" stop-color="#444444"/>
</linearGradient>
</defs>
</svg>
