<svg width="239" height="243" viewBox="0 0 239 243" fill="none" xmlns="http://www.w3.org/2000/svg">
<path d="M101.248 0.0215845C68.8837 0.593234 18.8102 12.8986 4.39725 44.5212C-0.636614 55.5658 -0.295844 71.8026 0.385696 104.276C0.586037 113.821 0.918212 127.733 3.25112 144.994C8.09725 180.852 11.3962 205.262 23.882 219.476C55.1674 255.091 168.178 254.062 216.437 189.943C242.762 154.965 246.812 105.208 222.741 64.087C196.239 18.8131 144.576 -0.743813 101.248 0.0215845Z" fill="#F4F7FA"/>
<path d="M129.836 212.689L148.817 223.714C148.817 223.714 158.046 216.052 157.386 206.479C156.039 186.946 173.24 187.129 180.457 186.128C191.339 184.618 200.271 178.542 191.4 168.485C182.53 158.429 203.487 147.801 221.414 147.896C238.957 147.989 249.245 116.858 211.294 113.171C188.63 110.969 180.409 131.579 173.783 141C167.157 150.421 151.923 142.671 149.933 157.725C148.233 170.585 152.045 182.895 141.655 186.38C131.265 189.865 125.983 197.47 129.836 212.689Z" fill="url(#paint0_linear_1553_7319)"/>
<mask id="mask0_1553_7319" style="mask-type:luminance" maskUnits="userSpaceOnUse" x="128" y="113" width="110" height="111">
<path d="M129.836 212.689L148.817 223.714C148.817 223.714 158.046 216.052 157.386 206.479C156.039 186.946 173.24 187.129 180.457 186.128C191.339 184.618 200.271 178.542 191.4 168.485C182.53 158.429 203.487 147.801 221.414 147.896C238.957 147.989 249.245 116.858 211.294 113.171C188.63 110.969 180.409 131.579 173.783 141C167.157 150.421 151.923 142.671 149.933 157.725C148.233 170.585 152.045 182.895 141.655 186.38C131.265 189.865 125.983 197.47 129.836 212.689Z" fill="white"/>
</mask>
<g mask="url(#mask0_1553_7319)">
<path d="M129.836 212.689L148.817 223.714C148.817 223.714 158.046 216.052 157.386 206.479C156.039 186.945 173.24 187.129 180.457 186.128C191.339 184.618 199.031 178.968 192.884 168.834C185.929 157.369 203.487 147.801 221.414 147.896C238.957 147.989 249.245 116.858 211.294 113.171C188.63 110.969 180.409 131.579 173.783 141C167.157 150.421 151.923 142.671 149.933 157.725C148.233 170.585 152.045 182.895 141.655 186.38C131.265 189.865 125.983 197.47 129.836 212.689Z" fill="#DFC486"/>
</g>
<mask id="mask1_1553_7319" style="mask-type:luminance" maskUnits="userSpaceOnUse" x="128" y="113" width="110" height="111">
<path d="M129.836 212.689L148.817 223.714C148.817 223.714 158.046 216.052 157.386 206.479C156.039 186.946 173.24 187.129 180.457 186.128C191.339 184.618 200.271 178.542 191.4 168.485C182.53 158.429 203.487 147.801 221.414 147.896C238.957 147.989 249.245 116.858 211.294 113.171C188.63 110.969 180.409 131.579 173.783 141C167.157 150.421 151.923 142.671 149.933 157.725C148.233 170.585 152.045 182.895 141.655 186.38C131.265 189.865 125.983 197.47 129.836 212.689Z" fill="white"/>
</mask>
<g mask="url(#mask1_1553_7319)">
<g opacity="0.5">
<path d="M137.027 219.222L137.463 219.379C137.561 219.109 147.375 192.1 165.177 168.258C181.577 146.294 208.312 122.602 242.536 134.465L242.688 134.027C227.453 128.746 212.411 129.95 197.979 137.604C186.45 143.719 175.287 153.942 164.8 167.989C146.958 191.886 137.125 218.952 137.027 219.222Z" fill="#F4EBD7"/>
<path d="M192.087 141.063L192.514 141.245C198.553 127.053 214.515 111.181 214.676 111.022L214.35 110.693C214.189 110.852 198.162 126.788 192.087 141.063Z" fill="#F4EBD7"/>
<path d="M201.842 136.227C220.214 135.658 230.475 147.011 230.576 147.125L230.923 146.819C230.82 146.702 220.424 135.187 201.828 135.764L201.842 136.227Z" fill="#F4EBD7"/>
<path d="M154.388 184.479C169.842 168.189 198.229 178.481 198.497 178.604L198.718 178.197C198.466 178.051 169.643 167.725 154.052 184.16L154.388 184.479Z" fill="#F4EBD7"/>
<path d="M158.914 176.402L159.354 176.548C163.877 162.952 155.566 146.963 155.482 146.802L155.072 147.019C155.156 147.177 163.374 162.996 158.914 176.402Z" fill="#F4EBD7"/>
<path d="M139.102 215.163C143.951 208.145 157.832 208.421 157.971 208.424L157.983 207.961C157.403 207.946 143.713 207.675 138.721 214.9L139.102 215.163Z" fill="#F4EBD7"/>
<path d="M141.34 208.736L141.774 208.898C144.132 202.579 139.162 191.127 137.529 187.364C137.298 186.832 137.099 186.373 137.079 186.284L136.625 186.377C136.651 186.502 136.782 186.808 137.103 187.548C138.718 191.269 143.632 202.592 141.34 208.736Z" fill="#F4EBD7"/>
</g>
</g>
<path d="M159.206 160.879C164.545 165.757 164.033 172.75 162.87 177.753C162.217 177.993 161.903 178.297 161.301 178.683C155.867 182.173 152.805 182.503 146.905 185.097C145.636 185.655 141.41 186.16 139.67 186.256L136.424 186.382C136.424 186.382 125.604 173.736 132.079 166.823C138.553 159.91 129.801 146.597 126.033 138.972C123.72 134.29 124.162 131.408 123.588 129.551C117.513 109.895 109.581 106.371 111.532 98.7659C113.685 90.3703 123.969 92.2615 126.795 83.2523C129.985 73.0791 119.014 63.8374 124.185 54.8849C125.071 53.35 126.024 51.7971 127.915 50.3783C132.584 46.8763 137.989 48.3354 140.115 42.6192C144.386 31.1295 155.645 23.4925 166.611 29.7648C177.433 35.9552 175.428 56.7892 158.801 78.9611C148.774 96.077 149.935 99.6967 154.475 107.892C157.654 113.633 170.079 127.09 163.656 136.579C157.233 146.067 153.104 155.304 159.206 160.879Z" fill="#EAD8AE"/>
<mask id="mask2_1553_7319" style="mask-type:luminance" maskUnits="userSpaceOnUse" x="122" y="27" width="52" height="160">
<path d="M160.92 184.03L137.117 186.733C137.117 186.733 125.605 173.736 132.079 166.823C138.553 159.91 129.801 146.597 126.033 138.972C115.812 118.284 141.62 111.173 130.798 83.555C127.919 76.2095 119.763 63.1623 124.185 54.8848C129.223 45.4544 137.382 49.9704 140.115 42.6192C144.387 31.1296 155.645 23.4925 166.611 29.7647C177.433 35.9552 175.428 56.7892 158.801 78.961C148.774 96.0771 149.935 99.6967 154.475 107.892C157.655 113.633 170.079 127.09 163.656 136.579C157.233 146.067 153.104 155.304 159.207 160.879C168.493 169.363 160.92 184.03 160.92 184.03Z" fill="white"/>
</mask>
<g mask="url(#mask2_1553_7319)">
<g opacity="0.5">
<path d="M150.148 184.181L149.685 184.29C149.06 181.744 148.463 179.168 147.911 176.634C143.828 157.871 141.786 139.386 141.842 121.691C141.889 106.699 143.44 92.0625 146.451 78.1897C148.873 67.0334 152.248 56.3078 156.482 46.3111C159.459 39.2835 162.826 32.6859 166.492 26.7018C167.13 25.6589 167.845 24.624 168.536 23.6231C169.458 22.2897 170.41 20.9108 171.189 19.5022L171.609 19.6959C170.819 21.1239 169.861 22.5121 168.933 23.8546C168.245 24.8505 167.534 25.8802 166.902 26.9126C163.248 32.8779 159.891 39.4558 156.923 46.4635C152.698 56.4354 149.332 67.1356 146.916 78.2663C143.911 92.1104 142.363 106.717 142.316 121.681C142.26 139.346 144.299 157.801 148.376 176.535C148.927 179.066 149.523 181.638 150.148 184.181Z" fill="#FCFDFE"/>
<path d="M144 95.2644L143.528 95.2361C145.383 76.3451 126.663 49.4493 126.474 49.18L126.872 48.9316C127.063 49.2024 145.87 76.2223 144 95.2644Z" fill="#FCFDFE"/>
<path d="M143.777 148.41L143.303 148.433C142.953 135.497 162.728 118.267 162.928 118.095L163.246 118.414C163.048 118.586 143.433 135.677 143.777 148.41Z" fill="#FCFDFE"/>
<path d="M144.659 155.717L144.195 155.817C142.363 147.583 135.11 137.382 123.77 127.094C123.2 126.576 123.2 126.576 123.181 126.495L123.644 126.389L123.412 126.442L123.607 126.313C123.641 126.352 123.856 126.547 124.106 126.774C135.51 137.121 142.809 147.4 144.659 155.717Z" fill="#FCFDFE"/>
<path d="M149.078 179.518L148.605 179.491C149.478 170.195 161.805 162.195 161.929 162.116L162.191 162.477C162.069 162.555 149.93 170.435 149.078 179.518Z" fill="#FCFDFE"/>
<path d="M149.487 184.457C145.128 178.246 138.676 173.045 129.762 168.556L129.996 168.166C138.978 172.69 145.484 177.938 149.886 184.209L149.487 184.457Z" fill="#FCFDFE"/>
<path d="M154.532 52.3865L154.063 52.3334C155.723 41.8683 154.869 30.5804 154.588 26.8711C154.52 25.9732 154.497 25.6571 154.51 25.5452L154.981 25.58C154.972 25.6655 155.011 26.1787 155.061 26.8286C155.342 30.5497 156.199 41.8736 154.532 52.3865Z" fill="#FCFDFE"/>
<path d="M149.139 69.0973L148.711 68.9177C153.293 59.889 173.352 52.875 174.204 52.5808L174.358 52.9939C174.152 53.0653 153.635 60.2373 149.139 69.0973Z" fill="#FCFDFE"/>
</g>
</g>
<path d="M163.136 200.821C161.497 200.927 157.799 216.516 151.104 206.847C149.431 204.431 146.343 195.554 134.411 197.423C132.094 197.786 129.778 198.148 127.462 198.511C124.484 193.726 122.564 188.664 129.162 185.336C139.408 180.167 135.922 162.073 131.612 156.265C126.277 149.077 114.222 132.096 129.931 123.872C143.01 117.025 152.909 115.119 150.369 98.0105C147.829 80.9021 155.434 68.4557 171.922 66.3213C189.274 64.0753 198.856 39.8701 214.386 44.352C241.445 52.162 227.037 93.7233 199.539 110.263C172.041 126.803 191.202 133.614 194.881 147.306C195.151 148.596 195.469 150.617 195.392 153.074C194.917 168.201 180.269 173.622 171.74 187.581C160.108 206.617 165.897 200.642 163.136 200.821Z" fill="#EAD8AE"/>
<mask id="mask3_1553_7319" style="mask-type:luminance" maskUnits="userSpaceOnUse" x="122" y="43" width="107" height="160">
<path d="M166.963 195.402L129.576 202.327C126.405 197.741 121.791 189.053 129.161 185.336C139.408 180.167 135.922 162.073 131.612 156.265C126.277 149.077 114.222 132.096 129.932 123.872C143.01 117.025 152.909 115.119 150.369 98.0104C147.829 80.9021 155.434 68.4556 171.922 66.3213C189.274 64.0752 198.856 39.87 214.386 44.3521C241.445 52.1618 227.037 93.723 199.539 110.263C172.041 126.803 191.201 133.614 194.881 147.306C199.905 165.998 171.952 167.189 166.334 175.998C161.929 182.903 164.64 190.735 166.963 195.402Z" fill="white"/>
</mask>
<g mask="url(#mask3_1553_7319)">
<g opacity="0.5">
<path d="M148.256 193.119L147.432 193.119C147.963 136.22 177.738 79.6089 225.137 45.3787L225.635 45.9955C178.435 80.0815 148.785 136.456 148.256 193.119Z" fill="#FCFDFE"/>
<path d="M151.36 162.098L150.551 162.252C146.079 140.329 122.682 127.015 122.446 126.883L122.871 126.212C123.11 126.346 146.817 139.83 151.36 162.098Z" fill="#FCFDFE"/>
<path d="M148.655 182.652L147.869 182.425C155.075 160.742 197.352 149.854 197.779 149.747L197.985 150.498C197.563 150.605 155.724 161.382 148.655 182.652Z" fill="#FCFDFE"/>
<path d="M170.421 109.162L169.617 108.999C173.761 91.4133 157.483 68.6463 157.318 68.4183L158 67.9753C158.167 68.2061 174.642 91.251 170.421 109.162Z" fill="#FCFDFE"/>
<path d="M190.99 78.5243L190.434 77.9546C206.446 63.9934 235.755 64.4745 236.05 64.4813L236.024 65.2595C235.733 65.2525 206.753 64.7804 190.99 78.5243Z" fill="#FCFDFE"/>
</g>
</g>
<path d="M128.783 22.6064L152.353 218.518C152.706 221.455 150.682 224.088 147.846 224.37L49.6725 235.148C43.6585 235.522 40.3657 232.449 39.9945 229.326L15.2486 21.0392C14.8795 17.9331 17.8301 15.1201 23.8697 15.1201L122.936 17.2066C125.804 17.2546 128.431 19.6844 128.783 22.6064Z" fill="#082133"/>
<path d="M133.201 22.2692L156.901 219.16C157.257 222.113 155.225 224.759 152.379 225.043L50.6006 235.176C47.4097 235.494 44.4854 233.185 44.1122 230.046L19.2271 20.6829C18.8561 17.5608 21.1998 15.0512 24.4256 15.1056L127.332 16.8419C130.21 16.8905 132.848 19.3326 133.201 22.2692Z" fill="#A7D2F1"/>
<path d="M131.27 33.1296L153.236 215.687C153.568 218.445 151.666 220.913 149.001 221.172L53.2825 230.477C50.3162 230.765 47.5978 228.611 47.2503 225.688L24.2529 32.2854C23.9071 29.3781 26.083 27.0258 29.0794 27.0577L125.78 28.0874C128.473 28.1161 130.939 30.385 131.27 33.1296Z" fill="#082133"/>
<path d="M79.9409 22.134C80.0664 23.1821 79.3142 24.0211 78.2598 24.0078C77.2041 23.9946 76.2457 23.1323 76.1201 22.0821C75.9945 21.0319 76.7494 20.1929 77.8052 20.2085C78.8599 20.2238 79.8156 21.0859 79.9409 22.134Z" fill="#082133"/>
<g opacity="0.5">
<path d="M114.721 155.674C95.1255 119.444 65.8525 108.599 57.039 71.2606C52.275 51.0775 55.5208 31.7596 60.9877 15.7226L24.4255 15.1056C21.1997 15.0512 18.856 17.5608 19.2271 20.6829L44.1121 230.046C44.4853 233.185 47.4095 235.494 50.6005 235.176L130.608 227.21C131.2 194.747 123.456 171.823 114.721 155.674Z" fill="#DFC486"/>
</g>
<g opacity="0.63">
<path d="M130.579 134.535L52.9271 137.638C50.7249 137.726 48.8081 136.146 48.4749 133.967L48.4149 133.575C48.0232 131.014 49.9535 128.685 52.5426 128.594L130.252 125.871C132.447 125.794 134.351 127.372 134.683 129.543L134.685 129.555C135.075 132.108 133.159 134.432 130.579 134.535Z" fill="white"/>
<path d="M132.87 149.278L55.3181 153.03C53.1028 153.137 51.1648 151.553 50.8296 149.361L50.7683 148.96C50.3789 146.413 52.286 144.092 54.8598 143.981L132.47 140.608C134.678 140.512 136.603 142.094 136.937 144.279L136.94 144.299C137.329 146.837 135.435 149.154 132.87 149.278Z" fill="white"/>
<path d="M135.161 164.02L57.7082 168.421C55.4801 168.548 53.5207 166.96 53.1833 164.754L53.1209 164.346C52.7336 161.814 54.6177 159.501 57.1759 159.368L134.687 155.346C136.908 155.231 138.854 156.817 139.191 159.015L139.195 159.043C139.581 161.567 137.71 163.875 135.161 164.02Z" fill="white"/>
</g>
<path d="M140.285 66.2665C140.285 93.3709 119.091 114.693 92.003 113.861C63.8121 112.995 40.1025 88.648 40.1025 59.5125C40.1025 30.3771 63.812 9.22678 92.003 12.1622C119.091 14.9827 140.285 39.1621 140.285 66.2665Z" fill="url(#paint1_linear_1553_7319)"/>
<path d="M147.606 63.9293C147.606 91.0337 126.412 112.355 99.3234 111.524C71.1324 110.658 47.4229 86.3108 47.4229 57.1753C47.4229 28.0397 71.1324 6.88956 99.3234 9.82507C126.412 12.6456 147.606 36.8249 147.606 63.9293Z" fill="#082133"/>
<path d="M145.479 63.7858C145.479 89.6967 125.2 110.045 99.3229 109.207C72.4411 108.337 49.8711 85.1012 49.8711 57.3402C49.8711 29.5793 72.4411 9.38713 99.3229 12.1412C125.2 14.7925 145.479 37.875 145.479 63.7858Z" fill="url(#paint2_linear_1553_7319)"/>
<path d="M143.956 63.6834C143.956 88.7394 124.334 108.392 99.3231 107.553C73.3749 106.682 51.6152 84.24 51.6152 57.4581C51.6152 30.6762 73.3749 11.1685 99.3231 13.796C124.334 16.3286 143.956 38.6274 143.956 63.6834Z" fill="url(#paint3_linear_1553_7319)"/>
<path d="M99.0671 22.32C100.398 22.4465 101.475 23.6447 101.475 24.9963V29.6095C104.137 29.9066 106.802 30.3693 109.471 30.9965C111.438 31.459 113.393 32.0095 115.335 32.6479C116.498 33.0304 117.291 34.2049 117.172 35.4162L116.605 41.2011C116.455 42.7359 114.938 43.6371 113.51 43.0003C112.231 42.43 110.92 41.9414 109.576 41.5348C107.231 40.8253 104.758 40.3628 102.156 40.1482L101.475 40.0922V53.3038C108.418 55.2463 113.517 57.8596 116.813 61.1465C120.092 64.4176 121.726 68.4945 121.726 73.3887C121.726 78.6814 119.919 82.9194 116.292 86.1157C112.646 89.329 107.533 91.1363 100.922 91.5276V96.6193C100.922 97.9715 99.8438 99.0249 98.5117 98.9719L98.469 98.9702C97.1342 98.9171 96.0503 97.774 96.0503 96.4171V91.3943L94.9774 91.3459C91.8781 91.2061 88.9094 90.8899 86.073 90.3966C83.9724 90.0312 81.9212 89.5596 79.9196 88.9814C78.7091 88.6318 77.8781 87.4786 77.9892 86.2398L78.6558 78.8036C78.7999 77.196 80.4146 76.2606 81.9433 76.8636C83.7251 77.5664 85.529 78.1585 87.3551 78.6401C90.2007 79.3905 93.085 79.8718 96.0075 80.0856L96.0503 65.3894C89.3858 63.7403 84.3962 61.2978 81.118 58.0624C77.8244 54.8119 76.1719 50.6519 76.1719 45.594C76.1719 40.3597 77.9638 36.3193 81.5341 33.4837C85.0862 30.6624 90.1359 29.2589 96.6505 29.2624V24.5461C96.6505 23.1897 97.7334 22.1931 99.0671 22.32ZM96.6505 39.9555C94.5907 40.1053 92.9845 40.671 91.8349 41.6532C90.6835 42.6372 90.1071 43.9595 90.1071 45.6191C90.1071 47.1913 90.6403 48.5054 91.7055 49.5604C92.7691 50.6136 94.4188 51.4546 96.6505 52.083V39.9555ZM100.922 66.5672V80.0441C103.161 80.0485 104.878 79.5139 106.077 78.4418C107.273 77.3715 107.87 75.8598 107.87 73.9053C107.87 72.123 107.315 70.6451 106.203 69.4696C105.09 68.2924 103.331 67.3251 100.922 66.5672Z" fill="#082133"/>
<path d="M119.568 76.8921C119.969 76.2701 120.702 74.9464 120.748 73.1688C120.839 69.7147 118.278 67.0207 117.933 67.1753C117.748 67.2586 117.983 68.2706 118.115 68.7191C118.389 69.653 118.684 69.7432 118.66 70.172C118.609 71.055 117.334 71.089 116.662 72.2607C116.178 73.1045 116.139 74.3063 116.662 75.2575C117.529 76.8355 119.485 76.8911 119.568 76.8921Z" fill="#082133"/>
<path d="M174.291 151.915L173.307 148.527L177.418 145.48L179.98 144.522L178.463 149.263L174.291 151.915Z" fill="#082133"/>
<path d="M169.203 220.158C169.203 220.158 171.452 225.815 170.86 228.323C173.274 228.276 174.836 227.968 174.836 227.968C174.836 227.968 173.866 225.389 173.676 224.111C173.421 222.384 173.44 219.59 173.44 219.59L169.203 220.158Z" fill="#082133"/>
<path d="M144.417 233.388C144.562 233.564 144.82 233.931 144.842 234.428C144.854 234.698 144.792 234.92 144.714 235.124C144.331 236.133 143.729 236.266 143.079 237.336C142.682 237.991 142.757 238.188 142.393 238.483C141.914 238.872 141.334 238.894 140.831 238.9C139.982 238.91 138.759 238.88 137.219 238.696C138.026 237.656 138.884 236.6 139.797 235.533C140.197 235.065 140.596 234.608 140.995 234.162L143.368 233.36C143.717 233.37 144.067 233.379 144.417 233.388Z" fill="#082133"/>
<path d="M142.444 221.869C142.444 221.869 141.087 228.945 142.813 230.927C144.283 232.908 142.103 231.495 142.103 231.495L139.499 233.767L137.938 236.465C137.938 236.465 139.375 229.539 138.992 226.791C138.608 224.042 138.417 222.189 138.417 222.189L142.444 221.869Z" fill="#082133"/>
<path d="M137.33 144.465C137.33 144.465 133.687 147.725 133.687 161.147C133.687 174.57 135.412 203.717 135.412 203.717L138.174 224.584C138.174 224.584 141.037 224.686 142.955 224.111C144.681 216.249 147.493 202.95 146.15 191.828C145.575 179.747 150.944 164.599 150.944 164.599C150.944 164.599 155.546 179.939 158.806 187.609C162.066 195.279 168.272 219.308 168.848 221.034C172.662 221.38 174.291 220.371 174.291 220.371C174.291 220.371 171.845 194.512 169.544 184.733C167.243 174.954 167.435 151.368 163.6 144.657C154.971 141.205 137.33 144.465 137.33 144.465Z" fill="#C19632"/>
<path d="M137.33 144.465C137.33 144.465 133.687 147.725 133.687 161.147C133.687 174.57 135.412 203.717 135.412 203.717L138.174 224.584C138.174 224.584 141.037 224.686 142.955 224.111C144.681 216.249 147.493 202.95 146.151 191.828C145.576 179.747 150.944 164.599 150.944 164.599C150.944 164.599 155.547 179.939 158.806 187.609C162.066 195.279 168.273 219.308 168.848 221.034C172.662 221.38 174.291 220.371 174.291 220.371C174.291 220.371 171.845 194.512 169.545 184.733C167.243 174.954 167.435 151.368 163.6 144.657C154.971 141.205 137.33 144.465 137.33 144.465Z" fill="#C19632"/>
<path opacity="0.25" d="M156.256 169.059C157.392 176.444 159.664 180.42 165.345 185.532C169.889 188.94 166.481 196.325 168.185 202.005C168.753 203.709 170.457 205.413 171.025 207.117C173.139 211.345 171.165 216.516 172.123 220.992C173.614 220.786 174.291 220.371 174.291 220.371C174.291 220.371 171.845 194.512 169.544 184.733C167.243 174.954 167.435 151.368 163.6 144.657C154.971 141.205 137.33 144.465 137.33 144.465C137.33 144.465 133.687 147.725 133.687 161.147C133.687 162.237 133.698 163.43 133.719 164.703C137.501 168.05 145.237 168.794 150.008 165.083C150.296 164.867 150.603 164.735 150.92 164.67C150.934 164.628 150.944 164.599 150.944 164.599C150.944 164.599 150.952 164.626 150.965 164.666C153.136 164.269 155.764 167.089 156.256 169.059Z" fill="#C19632"/>
<path d="M170.268 230.47C170.268 230.47 169.708 230.47 169.755 231.194C169.802 231.918 169.502 234.408 172.351 234.524C175.2 234.641 175.639 234.323 175.732 234.323C175.826 234.323 174.985 231.941 174.985 231.941L174.074 230.774L171.623 230.517L170.268 230.47Z" fill="#082133"/>
<path d="M176.584 232.969C176.523 232.368 176.187 231.421 175.849 230.66C175.346 229.528 175.759 229.105 175.278 228.074C175.112 227.718 174.95 227.38 174.599 227.045C174.518 226.968 173.732 226.242 172.587 226.279C172.362 226.286 172.015 226.301 171.64 226.501C171.199 226.736 170.977 227.09 170.788 227.4C170.491 227.888 170.56 228.038 170.102 229.436C170.065 229.548 169.985 229.792 169.923 230.128C169.875 230.386 169.856 230.602 169.848 230.75C170.595 230.75 173.467 230.867 174.074 231.31C174.681 231.754 174.985 232.501 174.985 233.249C174.985 233.996 175.358 234.346 175.732 234.323C176.066 234.302 176.729 233.684 176.584 232.969Z" fill="#D3E9F8"/>
<path d="M142.079 229.933C142.721 229.943 143.192 230.454 143.547 231.684C143.902 232.915 145.606 234.004 143.618 233.743C141.63 233.483 140.186 236.3 139.476 237.341C138.766 238.382 136.86 239.308 136.907 238.29C136.954 237.272 137.795 236.797 138.032 235.755C138.269 234.714 140.616 229.91 142.079 229.933Z" fill="#D3E9F8"/>
<path d="M175.801 146.085C176.272 144.773 179.217 136.157 174.458 128.299C170.562 121.867 163.821 119.768 162.86 119.484C157.008 117.756 154.076 119.976 152.23 117.933C149.097 114.466 152.645 102.657 159.51 100.291C167.247 97.6246 176.53 107.878 180.292 114.612C185.226 123.447 184.012 132.228 183.726 134.037C182.984 138.736 181.259 142.321 179.981 144.522C178.587 145.043 177.194 145.564 175.801 146.085Z" fill="white"/>
<path d="M155.594 98.6239C148.688 98.3477 143.361 98.4571 140.352 101.464C137.174 104.64 140.386 108.225 139.696 116.533C138.64 129.251 130.535 132.359 129.925 145.262C129.719 149.61 130.455 153.163 131.027 155.303C132.805 157.518 135.717 160.645 140.013 163.258C146.265 167.062 149.891 166.399 158.87 168.857C173.557 172.876 174.864 177.663 182.147 176.444C189.507 175.211 195.965 169.017 195.185 165.615C194.717 163.578 191.75 164.155 188.334 161.049C183.931 157.044 185.629 153.222 182.282 148.919C177.474 142.739 170.775 146.517 166.678 141.16C162.533 135.742 164.177 125.064 167.671 119.244C169.953 115.443 170.93 110.988 172.872 107.002C173.033 106.671 173.221 106.128 173.138 105.449C172.823 102.853 168.496 101.445 165.218 100.412C160.22 98.8368 156.163 98.6465 155.594 98.6239Z" fill="#C19632"/>
<path d="M149.776 98.3383L151.139 97.9192C151.139 97.9192 151.495 99.7634 155.875 99.9938C158.306 99.9938 159.877 98.6318 159.877 98.6318L160.808 99.3102C160.808 99.3102 158.766 101.861 155.519 101.796C151.327 101.712 149.776 98.3383 149.776 98.3383Z" fill="#C19632"/>
<path d="M152.55 92.7284C152.812 90.7028 154.413 89.4051 154.763 89.1273C156.226 87.9644 156.523 87.8475 157.026 87.7519L157.712 87.6479C157.712 87.6479 157.749 87.6489 157.787 87.6511C158.189 87.6755 159.393 88.1453 159.611 88.2992C160.311 88.791 159.796 92.2734 157.676 96.6045C157.593 96.9712 157.509 97.338 157.426 97.7048C159.273 98.0295 159.731 98.3628 159.746 98.6289C159.777 99.2054 157.754 99.941 155.879 99.9888C153.528 100.049 151.032 99.0372 151.08 98.2822C151.099 97.9767 151.543 97.5997 153.25 97.2296C153.517 96.8546 153.783 96.4795 154.05 96.1044C153.808 95.8107 152.356 94.2205 152.55 92.7284Z" fill="#C19632"/>
<path d="M155.456 91.9656C155.989 91.6464 156.395 92.3325 156.144 92.9321C155.893 93.5317 155.049 93.9068 154.537 93.5493C154.025 93.1918 154.738 92.395 155.456 91.9656Z" fill="#C19632"/>
<path d="M224.574 91.9556C217.555 84.3386 201.222 86.4275 192.164 92.5449C187.954 95.3875 185.794 98.7452 180.82 99.0269C177.039 99.2412 171.024 97.8195 167.856 93.7235C167.457 93.2075 165.86 91.0432 163.463 88.314C162.407 87.1108 161.356 85.9817 159.727 85.7264C159.313 85.6616 157.936 85.4375 157.026 86.3266C156.289 87.0469 156.108 88.2996 156.326 89.2024C156.456 89.7423 156.625 89.7992 156.601 90.1527C156.533 91.1456 154.725 91.5781 154.826 92.0782C154.897 92.4355 155.839 92.3048 156.001 92.7532C156.179 93.2448 155.145 93.6677 154.701 94.9038C153.868 95.461 153.343 96.8471 153.161 98.7021C152.893 101.429 153.167 103.645 153.684 105.313C156.172 113.348 157.951 119.094 162.258 122.304C167.959 126.552 173.093 122.629 187.597 122.009C207.456 121.159 212.408 127.891 219.546 123.286C228.458 117.536 231.862 99.8638 224.574 91.9556Z" fill="#082133"/>
<path d="M120.407 76.4082C120.23 78.0699 119.631 85.4207 124.701 91.6274C129.439 97.4268 136.149 98.5852 137.396 98.7737C143.428 99.6853 146.03 97.0853 148.138 98.8569C151.716 101.863 149.815 114.047 143.338 117.329C136.038 121.028 125.441 112.141 120.794 105.984C114.697 97.9065 114.7 89.0418 114.735 87.2112C114.828 82.4542 116.047 78.6673 117.012 76.3123C117.409 76.1929 118.012 76.0608 118.752 76.0865C119.458 76.1111 120.027 76.2698 120.407 76.4082Z" fill="white"/>
<path d="M31.7797 232.848C27.5181 232.51 22.0659 231.325 16.8329 227.904C11.171 224.203 3.79668 216.595 5.72148 211.802C6.44006 210.012 8.50905 208.48 10.3277 208.626C13.0146 208.842 13.3274 212.574 17.993 216.633C18.8553 217.384 23.3133 221.262 25.5296 219.955C26.6314 219.306 26.9573 217.505 26.7775 216.136C26.2521 212.133 21.3651 211.519 16.6671 207.186C11.904 202.793 7.93339 195.129 10.2031 189.948C11.5073 186.971 14.9572 184.62 17.225 185.281C18.1941 185.563 18.8085 186.355 21.7511 192.712C24.1663 197.93 24.7034 199.451 26.2605 199.945C27.8633 200.455 30.3551 199.816 31.3022 198.237C33.7688 194.124 23.1081 188.052 22.14 176.543C21.7062 171.386 23.1015 163.742 27.772 162.103C30.9294 160.996 35.4276 162.687 37.0537 165.584C38.5197 168.195 36.7388 170.16 37.8572 176.026C38.1965 177.806 38.8948 181.469 40.3686 181.661C42.0988 181.887 44.0347 177.216 44.4821 176.079C47.8505 167.515 43.9881 163.111 47.1642 158.954C49.6409 155.712 55.0298 154.41 59.299 156.048C63.0347 157.481 66.0232 161.206 66.2229 165.068C66.4259 168.996 63.1216 172.907 56.5131 180.729C53.3791 184.439 50.8857 186.945 51.0275 190.632C51.0965 192.429 51.8093 194.957 53.0966 195.188C55.9378 195.698 57.3364 184.257 64.0702 182.49C67.5169 181.585 71.8 183.363 73.6822 186.47C75.9882 190.276 74.4432 195.672 71.5462 198.509C67.7662 202.211 63.8899 199.398 56.7775 203.374C53.6223 205.138 48.6638 208.89 49.3899 211.993C49.7059 213.344 51.1219 214.666 52.676 214.843C56.1594 215.238 57.3098 209.53 62.9101 207.02C66.9449 205.212 72.524 205.408 73.8493 207.683C75.7202 210.895 69.0753 218.188 65.5423 221.411C61.2714 225.307 51.1991 232.694 31.7797 232.848Z" fill="#EAD8AE"/>
<path opacity="0.5" d="M33.6934 231.018C33.1301 221.47 39.4544 202.021 44.0557 192.827C48.5582 183.831 52.8652 169.598 52.9081 169.455L53.1885 169.54C53.1454 169.683 48.8311 183.939 44.3176 192.958C39.7307 202.124 33.4253 221.5 33.9856 231L33.6934 231.018Z" fill="white"/>
<path d="M21.734 234.093C18.5251 229.638 13.8179 221.599 12.9737 210.844C12.6259 206.413 11.9466 197.757 17.2415 190.291C19.8807 186.57 25.4773 181.067 29.2588 182.654C31.692 183.676 33.2026 187.561 32.5159 190.516C31.8235 193.495 29.3055 193.771 26.5634 198.827C25.5487 200.698 24.3895 202.894 25.2801 204.134C26.0238 205.171 28.0671 205.359 29.599 204.738C32.7636 203.454 31.7747 199.514 35.1959 196.688C37.6285 194.679 41.6837 193.734 43.4337 195.38C44.9531 196.809 44.6884 200.148 43.3458 202.373C41.1959 205.936 37.3408 204.891 34.8275 208.787C33.7125 210.515 32.9199 213.126 33.8957 214.158C35.0077 215.334 38.2801 214.317 40.3773 213.017C43.1464 211.3 43.2486 209.474 45.0722 209.245C47.1062 208.99 49.6492 210.927 50.047 213.07C50.604 216.071 46.9216 219.308 44.0056 220.715C40.2725 222.515 37.4987 221.459 35.6755 223.919C35.0063 224.821 34.3933 226.295 34.942 227.189C35.725 228.465 38.5544 228.044 40.4332 227.764C45.0054 227.083 46.2643 225.425 47.9027 226.231C49.5614 227.047 50.417 229.802 49.6996 231.734C49.3009 232.808 48.1033 234.472 42.1688 235.514C38.0149 236.243 31.0361 236.756 21.734 234.093Z" fill="#C19632"/>
<defs>
<linearGradient id="paint0_linear_1553_7319" x1="121.719" y1="183.628" x2="242.72" y2="149.831" gradientUnits="userSpaceOnUse">
<stop stop-color="#FFC444"/>
<stop offset="0.9964" stop-color="#F36F56"/>
</linearGradient>
<linearGradient id="paint1_linear_1553_7319" x1="73.025" y1="68.3864" x2="14.5992" y2="87.137" gradientUnits="userSpaceOnUse">
<stop stop-color="#FCB148"/>
<stop offset="0.0521" stop-color="#FDBA46"/>
<stop offset="0.1424" stop-color="#FFC244"/>
<stop offset="0.3183" stop-color="#FFC444"/>
<stop offset="0.4849" stop-color="#FDB946"/>
<stop offset="0.7754" stop-color="#F99C4D"/>
<stop offset="0.8658" stop-color="#F8924F"/>
<stop offset="1" stop-color="#F8924F"/>
</linearGradient>
<linearGradient id="paint2_linear_1553_7319" x1="110.693" y1="131.733" x2="100.629" y2="76.7528" gradientUnits="userSpaceOnUse">
<stop stop-color="#FCB148"/>
<stop offset="0.0521" stop-color="#FDBA46"/>
<stop offset="0.1424" stop-color="#FFC244"/>
<stop offset="0.3183" stop-color="#FFC444"/>
<stop offset="0.4849" stop-color="#FDB946"/>
<stop offset="0.7754" stop-color="#F99C4D"/>
<stop offset="0.8658" stop-color="#F8924F"/>
<stop offset="1" stop-color="#F8924F"/>
</linearGradient>
<linearGradient id="paint3_linear_1553_7319" x1="89.3556" y1="42.7417" x2="130.831" y2="130.787" gradientUnits="userSpaceOnUse">
<stop stop-color="#FCB148"/>
<stop offset="0.0521" stop-color="#FDBA46"/>
<stop offset="0.1424" stop-color="#FFC244"/>
<stop offset="0.3183" stop-color="#FFC444"/>
<stop offset="0.4849" stop-color="#FDB946"/>
<stop offset="0.7754" stop-color="#F99C4D"/>
<stop offset="0.8658" stop-color="#F8924F"/>
<stop offset="1" stop-color="#F8924F"/>
</linearGradient>
</defs>
</svg>
