<svg width="49" height="49" viewBox="0 0 49 49" fill="none" xmlns="http://www.w3.org/2000/svg">
<g clip-path="url(#clip0_1670_14801)">
<path d="M36.0591 37.831C35.8929 37.9966 35.6915 38.1216 35.4566 38.2072L35.2196 38.2784C35.2196 38.2784 3.25869 51.1739 0.773522 48.6797C-1.71164 46.1854 11.3001 14.2717 11.3001 14.2717L11.3721 14.035C11.4586 13.8003 11.5844 13.5994 11.7506 13.4338C13.7387 11.4529 20.7926 15.3081 27.5051 22.0451C34.2177 28.7821 38.0473 35.8502 36.0591 37.831Z" fill="#A27E2A"/>
<path d="M34.0702 38.7367C32.3882 39.4037 29.0202 40.7239 25.0433 42.2017C22.611 43.1059 19.9507 44.069 17.309 44.9766C15.0006 45.7699 12.7059 46.5224 10.5915 47.1564C9.1388 45.9356 7.69513 44.6114 6.28076 43.192C4.86639 41.7725 3.54762 40.3239 2.33203 38.8668C2.97374 36.7548 3.73458 34.4627 4.53636 32.1573C5.45362 29.5188 6.42641 26.8621 7.33945 24.4331C8.83174 20.4616 10.1642 17.0986 10.8373 15.4189C15.1256 17.7444 19.7081 21.1836 24.023 25.5142C28.338 29.8449 31.7604 34.4399 34.0702 38.7367Z" fill="#A27E2A"/>
<path d="M36.0583 37.8307C35.8925 37.997 35.6906 38.1213 35.4558 38.2075L35.2191 38.2781C35.2191 38.2781 34.8058 38.4448 34.0701 38.7366C32.388 39.4035 29.0201 40.7238 25.0432 42.2015C22.6109 43.1057 19.9506 44.0688 17.3089 44.9765C15.0128 43.2448 12.7114 41.2442 10.4816 39.0062C8.25168 36.7681 6.25959 34.4594 4.53613 32.1571C5.45339 29.5187 6.42619 26.8619 7.33922 24.433C8.83151 20.4615 10.164 17.0985 10.8371 15.4188C11.1315 14.6841 11.2998 14.2715 11.2998 14.2715L11.3712 14.035C11.4584 13.8005 11.5834 13.5991 11.7502 13.4338C13.7384 11.4528 20.7916 15.3083 27.5046 22.0448C34.2168 28.7825 38.0466 35.8497 36.0583 37.8307Z" fill="#A27E2A"/>
<path d="M36.0588 37.8306C35.893 37.9969 35.6911 38.1212 35.4563 38.2074L35.2196 38.278C35.2196 38.278 34.8064 38.4447 34.0706 38.7365C32.3885 39.4035 29.0206 40.7237 25.0437 42.2014C21.8068 40.0697 18.4909 37.3681 15.3201 34.1857C12.1493 31.0033 9.45981 27.6777 7.33984 24.433C8.83213 20.4615 10.1646 17.0985 10.8377 15.4188C11.1322 14.6841 11.3004 14.2715 11.3004 14.2715L11.3719 14.035C11.459 13.8005 11.584 13.5991 11.7508 13.4338C13.7391 11.4528 20.7923 15.3083 27.5053 22.0448C34.2173 28.7824 38.0471 35.8496 36.0588 37.8306Z" fill="#A27E2A"/>
<path d="M36.0585 37.8312C34.07 39.8125 27.0162 35.9573 20.3037 29.2202C13.5912 22.4831 9.76149 15.4154 11.75 13.434C13.7386 11.4526 20.7923 15.3079 27.5049 22.045C34.2174 28.7822 38.0471 35.8499 36.0585 37.8312Z" fill="#DFC486"/>
<path d="M34.8195 36.0151C33.3504 37.4789 27.4008 33.8894 21.5307 27.9978C15.6606 22.1063 12.0928 16.1437 13.5618 14.6799C15.0309 13.2162 20.9805 16.8057 26.8506 22.6972C32.7207 28.5887 36.2886 34.5513 34.8195 36.0151Z" fill="#DFC486"/>
<path d="M36.0591 37.8311C38.0472 35.8502 34.2177 28.7824 27.5051 22.0453C23.5691 18.095 19.5162 15.1362 16.4355 13.7632C16.5558 13.9845 16.6901 14.204 16.84 14.4204C17.0838 14.772 17.3691 15.0925 17.6904 15.3815L19.395 17.0979C19.1985 17.187 19.0179 17.2576 18.8661 17.3111C18.5943 17.4069 18.4352 17.688 18.4921 17.9705L19.0953 20.9666C19.1486 21.2315 19.3344 21.4326 19.5666 21.5206L35.9311 37.9447C35.9758 37.9093 36.0185 37.8716 36.0591 37.8311Z" fill="url(#paint0_linear_1670_14801)"/>
<path d="M25.1779 28.5222L26.8518 30.5232L34.6492 38.3491C35.2452 38.3323 35.724 38.1648 36.0588 37.8312C37.7965 36.0998 35.0912 30.4844 29.9018 24.5996C28.2847 25.2749 26.7431 26.159 25.3195 27.2459C24.9173 27.5528 24.8532 28.1341 25.1779 28.5222Z" fill="#0D0D0D" fill-opacity="0.4"/>
<path d="M26.8518 30.5233L25.1779 28.5222C24.8533 28.1342 24.9173 27.5529 25.3194 27.2458C30.507 23.2853 37.2547 21.9989 43.5566 23.8114C45.1426 24.2675 46.6613 24.9071 48.0829 25.7167C48.5227 25.9672 48.6636 26.5351 48.3934 26.9631L47.0009 29.1691C46.7484 29.5691 46.2275 29.6998 45.815 29.4686C44.7238 28.8574 43.5602 28.3723 42.3454 28.0229C37.417 26.6055 32.1423 27.5945 28.0668 30.6623C27.689 30.9466 27.1551 30.8859 26.8518 30.5233Z" fill="#082133"/>
<path d="M12.3868 9.7495L10.8669 8.18563C10.178 7.47677 9.97059 6.33574 10.3729 5.46815C10.8399 4.46077 11.9608 4.16552 12.8635 4.81203C13.6411 5.3689 14.0227 6.464 13.7724 7.42027L13.2203 9.52996C13.1228 9.90275 12.6554 10.0259 12.3868 9.7495Z" fill="#7BBCEA"/>
<path d="M9.69932 11.4475L7.5412 11.1339C6.56303 10.9918 5.70313 10.2135 5.49329 9.28051C5.24964 8.19713 5.95831 7.27996 7.06802 7.24239C8.0238 7.21002 8.99381 7.84557 9.37822 8.7563L10.2263 10.7654C10.3763 11.1204 10.0807 11.5029 9.69932 11.4475Z" fill="url(#paint1_linear_1670_14801)"/>
<path d="M38.5935 36.5335L40.7653 36.337C41.7498 36.2479 42.7669 36.8049 43.1879 37.6636C43.6766 38.6606 43.2005 39.7174 42.1299 40.012C41.2078 40.2656 40.1167 39.8728 39.5311 39.0764L38.2393 37.3195C38.0111 37.0089 38.2096 36.5682 38.5935 36.5335Z" fill="url(#paint2_linear_1670_14801)"/>
<path d="M38.966 33.3759L40.5681 31.8964C41.2943 31.2258 42.4402 31.0476 43.2973 31.4717C44.2925 31.9643 44.5591 33.0923 43.8897 33.9783C43.3132 34.7415 42.2087 35.0951 41.2592 34.8206L39.1642 34.2149C38.7941 34.1078 38.6829 33.6374 38.966 33.3759Z" fill="#7BBCEA"/>
<path d="M20.057 21.5334C19.632 21.6704 19.1829 21.4043 19.0948 20.9665L18.4916 17.9704C18.4348 17.6879 18.5939 17.4068 18.8657 17.3111C19.1833 17.1991 19.6247 17.0149 20.081 16.7344C18.7029 16.2795 17.5816 15.4907 16.8397 14.4203C15.441 12.4024 15.3313 10.1278 16.5463 8.33589C17.7485 6.56266 19.9699 5.69757 22.0745 6.18344C24.3753 6.71456 25.9914 8.7277 26.3977 11.5687C26.4146 11.687 26.4296 11.8047 26.4425 11.9219C27.007 11.5912 27.4631 11.1833 27.7487 10.7266C28.4718 9.57088 28.5404 7.84608 27.9238 6.33256C27.5323 5.37196 26.9281 4.63735 26.2466 4.26783C25.9426 4.10306 25.7806 3.76111 25.8621 3.42513L26.5531 0.575728C26.659 0.13934 27.1238 -0.111809 27.5432 0.0488342C29.4772 0.789503 31.0684 2.43677 31.982 4.67885C33.1302 7.49664 32.9317 10.7045 31.4639 13.0507C30.3026 14.907 28.1608 16.2916 25.6843 16.8769C25.128 18.04 24.2955 19.0618 23.2035 19.8989C22.0375 20.7926 20.8295 21.2844 20.057 21.5334ZM20.9159 10.4341C20.6293 10.4337 20.3216 10.5763 20.1734 10.795C19.952 11.1215 20.2462 11.6425 20.4413 11.9239C20.7088 12.3099 21.3315 12.5978 22.116 12.7268C22.1047 12.5521 22.0858 12.3729 22.0595 12.189C21.9195 11.2102 21.5566 10.5614 21.0887 10.4534C21.0331 10.4405 20.975 10.4342 20.9159 10.4341Z" fill="#C19632"/>
<path d="M29.7466 21.9039C28.728 22.5677 27.8588 23.4421 27.2007 24.465C27.0526 24.695 26.7111 24.6944 26.5639 24.4638C25.9094 23.4386 25.0435 22.561 24.0272 21.8934C23.8016 21.7453 23.8023 21.4083 24.0283 21.261C25.047 20.5972 25.9161 19.7228 26.5743 18.7C26.7223 18.47 27.0639 18.4705 27.2111 18.7011C27.8656 19.7264 28.7316 20.604 29.7478 21.2715C29.9734 21.4197 29.9727 21.7566 29.7466 21.9039Z" fill="url(#paint3_linear_1670_14801)"/>
<path d="M48.3726 20.5646C47.354 21.2284 46.4848 22.1028 45.8266 23.1256C45.6787 23.3556 45.337 23.3551 45.1898 23.1245C44.5353 22.0992 43.6695 21.2216 42.6532 20.5541C42.4276 20.4059 42.4283 20.069 42.6543 19.9217C43.6729 19.2579 44.5421 18.3835 45.2003 17.3606C45.3483 17.1306 45.6899 17.1312 45.8371 17.3618C46.4916 18.387 47.3576 19.2646 48.3738 19.9322C48.5994 20.0802 48.5987 20.4172 48.3726 20.5646Z" fill="#7BBCEA"/>
<path d="M39.65 5.68809C38.6313 6.35189 37.7621 7.2263 37.104 8.24916C36.9559 8.47917 36.6144 8.47859 36.4672 8.248C35.8127 7.22275 34.9468 6.34517 33.9305 5.67762C33.7049 5.52946 33.7056 5.19252 33.9317 5.04523C34.9503 4.38142 35.8194 3.50701 36.4777 2.48416C36.6256 2.25415 36.9673 2.25473 37.1145 2.48531C37.7689 3.51057 38.6349 4.38815 39.6511 5.0557C39.8767 5.20385 39.876 5.5408 39.65 5.68809Z" fill="url(#paint4_linear_1670_14801)"/>
<path d="M38.7054 15.9464C37.9628 16.4304 37.3292 17.0677 36.8494 17.8133C36.7415 17.981 36.4925 17.9805 36.3853 17.8124C35.9082 17.0651 35.277 16.4254 34.5361 15.9387C34.3717 15.8307 34.3721 15.5852 34.537 15.4777C35.2796 14.9938 35.9131 14.3564 36.3929 13.6108C36.5008 13.4432 36.7499 13.4436 36.8571 13.6117C37.3342 14.3591 37.9655 14.9988 38.7062 15.4854C38.8707 15.5934 38.8702 15.839 38.7054 15.9464Z" fill="#7BBCEA"/>
<path d="M41.7298 10.1827C40.9872 10.6667 40.3536 11.3041 39.8738 12.0496C39.7659 12.2173 39.5169 12.2168 39.4097 12.0488C38.9326 11.3014 38.3014 10.6617 37.5605 10.1751C37.3962 10.0671 37.3965 9.82149 37.5614 9.71407C38.304 9.23012 38.9375 8.59274 39.4174 7.84717C39.5253 7.67951 39.7743 7.6799 39.8815 7.84804C40.3586 8.59543 40.9899 9.23512 41.7306 9.72176C41.895 9.82975 41.8945 10.0753 41.7298 10.1827Z" fill="#7BBCEA"/>
</g>
<defs>
<linearGradient id="paint0_linear_1670_14801" x1="26.922" y1="25.9064" x2="22.9537" y2="13.7256" gradientUnits="userSpaceOnUse">
<stop stop-color="#FFD00D" stop-opacity="0"/>
<stop offset="1" stop-color="#DB722B"/>
</linearGradient>
<linearGradient id="paint1_linear_1670_14801" x1="10.0201" y1="7.72878" x2="5.41693" y2="7.77762" gradientUnits="userSpaceOnUse">
<stop stop-color="#C19632"/>
<stop offset="1" stop-color="#082133"/>
</linearGradient>
<linearGradient id="paint2_linear_1670_14801" x1="43.1128" y1="36.763" x2="38.112" y2="36.8276" gradientUnits="userSpaceOnUse">
<stop stop-color="#C19632"/>
<stop offset="1" stop-color="#082133"/>
</linearGradient>
<linearGradient id="paint3_linear_1670_14801" x1="29.6075" y1="19.2351" x2="23.8226" y2="19.2883" gradientUnits="userSpaceOnUse">
<stop stop-color="#C19632"/>
<stop offset="1" stop-color="#082133"/>
</linearGradient>
<linearGradient id="paint4_linear_1670_14801" x1="39.5108" y1="3.01927" x2="33.7259" y2="3.07244" gradientUnits="userSpaceOnUse">
<stop stop-color="#C19632"/>
<stop offset="1" stop-color="#082133"/>
</linearGradient>
<clipPath id="clip0_1670_14801">
<rect width="49" height="49" fill="white"/>
</clipPath>
</defs>
</svg>
