<svg width="20" height="20" viewBox="0 0 20 20" fill="none" xmlns="http://www.w3.org/2000/svg">
<path d="M9.99999 5.6052C8.54799 5.6052 7.36699 5.5922 6.48099 5.4274C5.96899 5.332 5.58919 5.191 5.31999 4.9962C4.98979 4.7572 4.82239 4.4374 4.82239 4.0454C4.82239 3.3254 5.38839 2.6678 6.41659 2.1912C7.37819 1.7454 8.65079 1.5 9.99999 1.5C11.3492 1.5 12.6218 1.7454 13.5834 2.1912C14.6116 2.6678 15.1776 3.3262 15.1776 4.0454C15.1776 4.4374 15.0102 4.7572 14.68 4.9962C14.4108 5.191 14.031 5.332 13.52 5.4274C12.633 5.5922 11.452 5.6052 9.99999 5.6052ZM9.99999 2.0422C8.72799 2.0422 7.53619 2.2698 6.64459 2.6832C5.83099 3.0602 5.36459 3.5568 5.36459 4.0454C5.36459 4.3354 5.50279 4.6938 6.58019 4.8944C7.42019 5.0506 8.57659 5.063 10.0002 5.063C11.4238 5.063 12.5802 5.0506 13.4202 4.8944C14.4976 4.6944 14.6358 4.3354 14.6358 4.0454C14.6358 3.5568 14.1692 3.0602 13.3558 2.6832C12.4638 2.2698 11.272 2.0422 9.99999 2.0422Z" fill="black"/>
<path d="M11.137 11.2736H10.9222H10.541C10.3634 11.2736 10.1834 11.2736 10.001 11.2736C9.70264 11.2736 9.38404 11.2736 9.07704 11.2718C7.55224 11.2642 6.39184 11.2184 5.68444 11.0206C5.11304 10.8606 4.82324 10.5872 4.82324 10.2066C4.82324 9.82601 4.98324 9.48421 5.29764 9.19781C5.56664 8.95301 5.95364 8.74741 6.44784 8.58701C7.32004 8.30361 8.54784 8.15381 10.001 8.15381C11.4542 8.15381 12.681 8.30361 13.5542 8.58701C14.0484 8.74701 14.4354 8.95301 14.7044 9.19781C15.0192 9.48421 15.1788 9.82361 15.1788 10.2066C15.1788 10.6112 14.8902 10.8974 14.3212 11.0574C13.628 11.2508 12.5174 11.2736 11.137 11.2736ZM10 8.69461C8.60384 8.69461 7.43304 8.83461 6.61424 9.10121C5.78504 9.37061 5.36444 9.74121 5.36444 10.2052C5.36444 10.3514 5.68964 10.458 5.82944 10.497C6.47844 10.6786 7.59784 10.7208 9.07864 10.7282C9.38444 10.7298 9.70224 10.73 10 10.73C10.1832 10.73 10.3639 10.73 10.542 10.73H10.922C12.3598 10.7318 13.5118 10.7188 14.1726 10.533C14.4792 10.4466 14.6348 10.336 14.6348 10.204C14.6348 9.74081 14.2148 9.36941 13.385 9.10001C12.567 8.83521 11.3962 8.69461 10 8.69461Z" fill="black"/>
<path d="M14.6172 18.4998H14.6136L13.4668 18.4846C13.3998 18.4838 13.3354 18.4581 13.2861 18.4126C13.2368 18.367 13.2062 18.3048 13.2 18.238C13.1864 18.086 13.172 17.918 13.157 17.7398C13.0328 16.2784 12.8452 14.0698 12.293 12.943C11.9206 12.183 11.0596 12.203 10.3 12.2208C10.1948 12.2232 10.0952 12.2256 10 12.2256C9.92942 12.2237 9.86233 12.1943 9.81305 12.1437C9.76378 12.093 9.73621 12.0252 9.73621 11.9545C9.73621 11.8839 9.76378 11.816 9.81305 11.7654C9.86233 11.7147 9.92942 11.6853 10 11.6834C10.0894 11.6834 10.1858 11.6812 10.2878 11.6788C10.6978 11.6692 11.1626 11.6588 11.6078 11.7744C12.1538 11.9166 12.5478 12.2296 12.7812 12.7044C13.3782 13.9226 13.571 16.1922 13.6986 17.694C13.7058 17.7804 13.713 17.8646 13.72 17.9456L14.3216 17.9536L13.6936 10.8838C13.6873 10.8122 13.7097 10.741 13.7558 10.6859C13.802 10.6308 13.8681 10.5963 13.9397 10.5899C14.0114 10.5836 14.0825 10.606 14.1377 10.6521C14.1928 10.6983 14.2273 10.7644 14.2336 10.836L14.8872 18.2048C14.8906 18.2423 14.8861 18.28 14.874 18.3157C14.862 18.3513 14.8426 18.384 14.8172 18.4118C14.7918 18.4395 14.7609 18.4617 14.7265 18.4769C14.6921 18.492 14.6549 18.4998 14.6172 18.4998Z" fill="black"/>
<path d="M5.38276 18.4999C5.34514 18.4999 5.30794 18.4921 5.27351 18.4769C5.23908 18.4618 5.20818 18.4396 5.18279 18.4119C5.15739 18.3841 5.13805 18.3514 5.12599 18.3157C5.11393 18.2801 5.10943 18.2424 5.11276 18.2049L5.76956 10.7999C5.7759 10.7283 5.81042 10.6621 5.86554 10.616C5.89283 10.5931 5.92436 10.5759 5.95832 10.5652C5.99227 10.5545 6.028 10.5507 6.06346 10.5538C6.09892 10.5569 6.13341 10.567 6.16496 10.5835C6.19652 10.6 6.22453 10.6225 6.24738 10.6498C6.27023 10.6771 6.28748 10.7086 6.29815 10.7425C6.30882 10.7765 6.3127 10.8122 6.30956 10.8477L5.67996 17.9537L6.28156 17.9457C6.28856 17.8657 6.29576 17.7805 6.30296 17.6941C6.43056 16.1923 6.62296 13.9227 7.22036 12.7045C7.46476 12.2057 7.75176 11.9223 8.15076 11.7845C8.51176 11.6609 8.94096 11.6679 9.48456 11.6771C9.64736 11.6797 9.81556 11.6825 10.0006 11.6825C10.0712 11.6844 10.1383 11.7138 10.1875 11.7644C10.2368 11.8151 10.2644 11.8829 10.2644 11.9536C10.2644 12.0242 10.2368 12.0921 10.1875 12.1427C10.1383 12.1934 10.0712 12.2228 10.0006 12.2247C9.81116 12.2247 9.63276 12.2217 9.47556 12.2191C8.42636 12.2017 8.07296 12.1957 7.70716 12.9421C7.15496 14.0689 6.96716 16.2775 6.84316 17.7389C6.82816 17.9169 6.81376 18.0851 6.80016 18.2371C6.79404 18.3038 6.76344 18.366 6.71426 18.4115C6.66507 18.457 6.60078 18.4827 6.53376 18.4837L5.38696 18.4989L5.38276 18.4999Z" fill="black"/>
<path d="M7.10716 8.95892C7.03527 8.95887 6.96634 8.93027 6.91552 8.87942C6.86471 8.82856 6.83616 8.75961 6.83616 8.68772V5.24292C6.83518 5.2067 6.84146 5.17065 6.85464 5.1369C6.86782 5.10314 6.88764 5.07238 6.91291 5.04641C6.93818 5.02044 6.9684 4.9998 7.00178 4.98571C7.03516 4.97162 7.07103 4.96436 7.10726 4.96436C7.14349 4.96436 7.17936 4.97162 7.21274 4.98571C7.24612 4.9998 7.27634 5.02044 7.30161 5.04641C7.32688 5.07238 7.3467 5.10314 7.35988 5.1369C7.37306 5.17065 7.37934 5.2067 7.37836 5.24292V8.68772C7.37836 8.75965 7.34979 8.82863 7.29893 8.87949C7.24807 8.93035 7.17909 8.95892 7.10716 8.95892Z" fill="black"/>
<path d="M8.21174 8.78244C8.17609 8.78255 8.14076 8.77561 8.10779 8.76204C8.07482 8.74847 8.04485 8.72853 8.0196 8.70335C7.99435 8.67817 7.97432 8.64826 7.96065 8.61533C7.94698 8.5824 7.93994 8.5471 7.93994 8.51144V5.31364C7.94186 5.24302 7.97126 5.17593 8.0219 5.12665C8.07253 5.07738 8.14039 5.0498 8.21104 5.0498C8.28169 5.0498 8.34956 5.07738 8.40019 5.12665C8.45082 5.17593 8.48022 5.24302 8.48214 5.31364V8.51144C8.48214 8.58321 8.45367 8.65205 8.40298 8.70285C8.35229 8.75366 8.28351 8.78228 8.21174 8.78244Z" fill="black"/>
<path d="M11.7882 8.78244C11.7163 8.78244 11.6474 8.75389 11.5966 8.70307C11.5458 8.65224 11.5172 8.58331 11.5172 8.51144V5.31364C11.5191 5.24302 11.5485 5.17593 11.5992 5.12665C11.6498 5.07738 11.7177 5.0498 11.7883 5.0498C11.859 5.0498 11.9268 5.07738 11.9775 5.12665C12.0281 5.17593 12.0575 5.24302 12.0594 5.31364V8.51144C12.0594 8.54705 12.0524 8.5823 12.0388 8.61519C12.0251 8.64809 12.0052 8.67797 11.98 8.70314C11.9548 8.7283 11.9249 8.74826 11.892 8.76187C11.8591 8.77548 11.8238 8.78247 11.7882 8.78244Z" fill="black"/>
<path d="M12.8928 8.95892C12.8208 8.95892 12.7519 8.93035 12.701 8.87949C12.6501 8.82863 12.6216 8.75965 12.6216 8.68772V5.24292C12.6206 5.2067 12.6269 5.17065 12.64 5.1369C12.6532 5.10314 12.673 5.07238 12.6983 5.04641C12.7236 5.02044 12.7538 4.9998 12.7872 4.98571C12.8206 4.97162 12.8564 4.96436 12.8927 4.96436C12.9289 4.96436 12.9648 4.97162 12.9981 4.98571C13.0315 4.9998 13.0617 5.02044 13.087 5.04641C13.1123 5.07238 13.1321 5.10314 13.1453 5.1369C13.1585 5.17065 13.1647 5.2067 13.1638 5.24292V8.68772C13.1638 8.75961 13.1352 8.82856 13.0844 8.87942C13.0336 8.93027 12.9647 8.95887 12.8928 8.95892Z" fill="black"/>
</svg>
