<svg width="16" height="15" viewBox="0 0 16 15" fill="none" xmlns="http://www.w3.org/2000/svg">
<path d="M1.65625 3.90625H8.96875C9.34171 3.90625 9.6994 4.05441 9.96312 4.31813C10.2268 4.58185 10.375 4.93954 10.375 5.3125V13.1875C10.375 13.4113 10.2861 13.6259 10.1279 13.7841C9.96964 13.9424 9.75503 14.0312 9.53125 14.0312H1.09375C0.869974 14.0312 0.655362 13.9424 0.497129 13.7841C0.338895 13.6259 0.25 13.4113 0.25 13.1875V5.3125C0.25 4.93954 0.398158 4.58185 0.661881 4.31813C0.925604 4.05441 1.28329 3.90625 1.65625 3.90625Z" stroke="#C19632" stroke-width="0.5" stroke-linejoin="round"/>
<path d="M8.96875 5.03125H7.84375C7.68842 5.03125 7.5625 5.15717 7.5625 5.3125V5.875C7.5625 6.03033 7.68842 6.15625 7.84375 6.15625H8.96875C9.12408 6.15625 9.25 6.03033 9.25 5.875V5.3125C9.25 5.15717 9.12408 5.03125 8.96875 5.03125Z" stroke="#C19632" stroke-width="0.5" stroke-linejoin="round"/>
<path d="M0.25 7.28125H4.1875" stroke="#C19632" stroke-width="0.5" stroke-linejoin="round"/>
<path d="M6.4375 7.28125H10.375" stroke="#C19632" stroke-width="0.5" stroke-linejoin="round"/>
<path d="M0.25 11.5H10.375" stroke="#C19632" stroke-width="0.5" stroke-linejoin="round"/>
<path d="M5.3125 11.5C6.55514 11.5 7.5625 10.4926 7.5625 9.25C7.5625 8.00736 6.55514 7 5.3125 7C4.06986 7 3.0625 8.00736 3.0625 9.25C3.0625 10.4926 4.06986 11.5 5.3125 11.5Z" stroke="#C19632" stroke-width="0.5" stroke-linejoin="round"/>
<path d="M5.3125 10.375C5.93382 10.375 6.4375 9.87132 6.4375 9.25C6.4375 8.62868 5.93382 8.125 5.3125 8.125C4.69118 8.125 4.1875 8.62868 4.1875 9.25C4.1875 9.87132 4.69118 10.375 5.3125 10.375Z" stroke="#C19632" stroke-width="0.5" stroke-linejoin="round"/>
<path d="M6.71875 2.5V0.25H15.7188V8.6875H11.2188" stroke="#C19632" stroke-width="0.5" stroke-linejoin="round"/>
<path d="M15.7188 7H11.2188" stroke="#C19632" stroke-width="0.5" stroke-linejoin="round"/>
<path d="M11.4004 4.76744L13.1877 3.0625L15.719 5.875" stroke="#C19632" stroke-width="0.5" stroke-linecap="round" stroke-linejoin="round"/>
<path d="M9.25 2.78125C9.25001 2.64592 9.28257 2.51259 9.34493 2.39249C9.40729 2.27239 9.49763 2.16905 9.60831 2.09119C9.719 2.01333 9.84679 1.96324 9.9809 1.94514C10.115 1.92704 10.2515 1.94147 10.3789 1.98719C10.5062 2.03292 10.6207 2.10862 10.7127 2.20789C10.8047 2.30716 10.8714 2.4271 10.9073 2.55758C10.9432 2.68806 10.9472 2.82526 10.9189 2.9576C10.8906 3.08994 10.8309 3.21353 10.7448 3.31796" stroke="#C19632" stroke-width="0.5" stroke-linecap="round" stroke-linejoin="round"/>
<path d="M13.7471 12.7656L14.4503 12.0624L15.1535 12.7656L14.4503 13.4688L13.7471 12.7656Z" stroke="#C19632" stroke-width="0.5" stroke-linecap="round" stroke-linejoin="round"/>
</svg>
