<svg width="17" height="20" viewBox="0 0 17 20" fill="none" xmlns="http://www.w3.org/2000/svg">
<path fill-rule="evenodd" clip-rule="evenodd" d="M16.398 11.4844C16.398 11.5904 16.3134 11.6764 16.207 11.6764H15.0561C15.0489 11.6764 15.0416 11.6765 15.0368 11.6769C14.5908 11.714 13.8452 11.9713 13.8811 13.4606L14.0189 16.3181C12.2346 16.3296 10.8709 15.9898 9.77086 15.256L11.1103 11.8546C11.1127 11.8456 11.1152 11.8364 11.12 11.8271C11.2288 11.4436 11.2312 11.0097 11.1248 10.5011C11.1224 10.4967 11.1224 10.4919 11.12 10.4877L10.2689 7.15412C10.2423 7.054 10.3028 6.94969 10.4019 6.92174L10.4551 6.90692C10.5469 6.88066 10.6388 6.92395 10.6799 7.0124L11.7534 9.39524C11.9348 9.79772 12.2007 10.1343 12.5247 10.3905C12.6867 10.5351 12.8777 10.6493 13.0832 10.7242C13.3032 10.8195 13.5402 10.8861 13.7868 10.9206L16.2335 11.2594C16.3278 11.2728 16.3979 11.3527 16.3979 11.4495V11.4844H16.398ZM14.2655 19.1263C14.3141 19.3029 14.1277 19.4585 13.9657 19.3677C13.9174 19.3407 13.8811 19.2967 13.8666 19.2437L13.1824 16.9032C13.325 16.9117 13.4725 16.9175 13.62 16.9207L14.2655 19.1263ZM10.8565 18.3415C10.8758 18.2886 10.8734 18.2317 10.8492 18.1819L10.2883 16.9892C10.2545 16.9195 10.2497 16.8395 10.2738 16.7658L10.4261 16.2972C10.298 16.2413 10.1699 16.182 10.0466 16.1181L9.79027 16.909L10.4721 18.3605C10.5513 18.5263 10.7917 18.5191 10.8565 18.3415ZM13.6587 7.99214C13.0494 7.99214 12.5513 8.49161 12.5513 9.10531C12.5513 9.43904 12.6988 9.73867 12.9309 9.94287C13.0445 10.0272 13.1654 10.0984 13.2959 10.157C13.4096 10.1966 13.5329 10.2183 13.6586 10.2183C14.2703 10.2183 14.766 9.71902 14.766 9.10536C14.766 8.49156 14.2704 7.99214 13.6587 7.99214ZM16.3158 10.6591L14.7346 10.4401C15.1215 10.1246 15.3705 9.64389 15.3705 9.10531C15.3705 8.15741 14.6017 7.38622 13.6587 7.38622C12.9068 7.38622 12.2661 7.8779 12.0388 8.55769L11.2289 6.76182C11.0645 6.40019 10.6703 6.21616 10.2908 6.32361L10.2376 6.33843C9.82656 6.45534 9.57753 6.88868 9.6839 7.30499L10.5349 10.6316C10.6171 11.0268 10.6196 11.3682 10.5422 11.646L9.12299 15.2565C9.07223 15.3853 9.11575 15.5319 9.22693 15.6133C9.32121 15.6816 9.4155 15.7465 9.51221 15.8094L9.17855 16.8349C9.15438 16.909 9.15919 16.989 9.19306 17.0587L9.92808 18.6198C10.235 19.2728 11.1793 19.2293 11.4247 18.5454C11.4972 18.3398 11.4851 18.1189 11.3932 17.9225L10.8831 16.8395L10.9894 16.5114C11.4681 16.6671 11.9807 16.7785 12.5368 16.8458L13.2863 19.4143C13.4911 20.1047 14.4282 20.2154 14.7757 19.5754C14.8796 19.3839 14.9038 19.1637 14.8434 18.9552L14.2486 16.9202C14.3638 16.9184 14.4609 16.9234 14.5557 16.8217C14.6113 16.7617 14.6403 16.6822 14.6354 16.601L14.4855 13.4358C14.4638 12.3438 14.9063 12.293 15.0658 12.2823H16.207C16.6446 12.2823 17 11.9246 17 11.4844V11.4494C17 11.0465 16.7123 10.714 16.3158 10.6591ZM8.4822 5.217C8.14131 5.31764 7.79071 5.33561 7.45705 5.27483C8.51766 4.7 9.33829 3.55723 9.60403 2.34103C9.78537 2.32278 9.96428 2.27809 10.1383 2.20737C10.4933 3.46878 9.75677 4.84308 8.4822 5.217ZM7.31686 2.59165C6.88648 3.33949 6.71484 4.17849 6.83572 4.89692C7.87105 4.50701 8.7088 3.44097 8.99236 2.30384C8.60835 2.21773 8.25566 2.01368 7.98899 1.72127C7.73268 1.97185 7.503 2.26787 7.31686 2.59165ZM6.19741 4.54354C6.16177 3.33278 6.73845 2.05007 7.65052 1.20821C7.57555 1.04097 7.52479 0.862333 7.50062 0.677368C6.89618 0.829505 6.3425 1.22837 5.99918 1.82749C5.50172 2.69567 5.56438 3.79463 6.19741 4.54354ZM8.15339 0.610304C8.67148 0.641725 9.08846 0.812528 9.4832 1.15207C9.64135 1.28812 9.78705 1.4728 9.89664 1.65177C9.5243 1.79978 9.10362 1.77183 8.74817 1.56501C8.39277 1.35842 8.15824 1.00673 8.10021 0.609084C8.1171 0.609553 8.13646 0.609553 8.15339 0.610304ZM10.4189 4.39188C9.61186 5.79324 7.85565 6.35189 6.46338 5.54416C5.07279 4.73737 4.67265 2.92636 5.4769 1.52467C5.97651 0.653965 6.85471 0.109433 7.75446 0.0168094C8.18829 -0.0278374 8.50166 0.0181695 8.89807 0.13443C9.29238 0.25008 9.7118 0.520072 10.003 0.810605V0.812293C10.2424 1.05269 10.4382 1.3368 10.5784 1.65589C10.5833 1.66635 10.5881 1.67681 10.5905 1.68774C10.9483 2.52088 10.9145 3.52614 10.4189 4.39188ZM7.01702 7.85309L5.60506 11.1097C5.5954 11.1313 5.58812 11.1544 5.5857 11.1777L5.10699 13.9091C5.08282 14.0476 5.15532 14.1847 5.2859 14.2404L6.69548 14.8487C6.81398 14.9182 7.1065 15.1265 6.81155 16.0338L6.31834 17.6454C6.26804 17.8137 6.01518 17.769 6.02097 17.5949L6.08139 15.7844C6.08624 15.6605 6.01612 15.5465 5.90247 15.4969L4.79511 15.0077C4.65007 14.9437 4.48324 15.0028 4.40826 15.1425L2.19602 19.3142C2.1133 19.4709 1.84318 19.3713 1.88657 19.1978L2.89479 15.1737C2.89964 15.1525 2.90445 15.1309 2.90445 15.1091L2.94555 13.7264C2.94555 13.72 2.94555 13.7132 2.94555 13.7067C2.92619 13.1333 2.62882 12.585 2.03889 12.0316L0.648671 10.6645C0.524387 10.5429 0.675357 10.338 0.827586 10.4229L2.3774 11.2899C2.82709 11.5407 3.33725 11.5849 3.85468 11.4179C4.06018 11.3526 4.25603 11.2575 4.43975 11.1428C4.6622 11.0335 4.86043 10.8767 5.01517 10.6854C5.35364 10.3549 5.62204 9.97114 5.78644 9.62091L6.66894 7.69622C6.77479 7.46435 7.11769 7.62756 7.01702 7.85309ZM3.69498 8.48185C3.08331 8.48185 2.58762 8.98132 2.58762 9.59502C2.58762 10.209 3.08327 10.7079 3.69498 10.7079C3.85696 10.7079 4.01171 10.6719 4.15195 10.6078C4.29942 10.5125 4.43966 10.4 4.56782 10.278C4.71529 10.0893 4.80234 9.85235 4.80234 9.59498C4.80234 8.98132 4.30427 8.48185 3.69498 8.48185ZM7.09684 7.0221L7.08956 7.0199C6.70756 6.89107 6.28927 7.0729 6.12001 7.44254L5.34389 9.13997C5.14324 8.4123 4.48076 7.87565 3.69498 7.87565C2.34545 7.87565 1.52001 9.38431 2.26124 10.5309L1.12005 9.89292C0.777014 9.70115 0.370432 9.79847 0.131194 10.1301C-0.0743128 10.4337 -0.0356371 10.8405 0.227907 11.098L1.6254 12.4719C2.09203 12.9081 2.32655 13.316 2.34349 13.7187L2.30239 15.0577L1.30144 19.0495C1.2023 19.4493 1.43202 19.8498 1.82853 19.9611C1.91731 19.987 1.97633 20 2.07029 20C2.34106 20 2.59495 19.8518 2.73034 19.5992L4.80962 15.6755L5.4721 15.9688L5.41648 17.5739C5.40393 17.9462 5.65647 18.266 6.02577 18.3415C6.40777 18.4212 6.78254 18.1981 6.89618 17.823L7.3846 16.2196C7.76659 15.0503 7.37251 14.5375 6.97839 14.3129C6.96873 14.3078 6.95902 14.303 6.94937 14.2983L5.74287 13.7777L6.17325 11.3183L7.57074 8.09504C7.75777 7.66522 7.53706 7.16932 7.09684 7.0221Z" fill="white"/>
</svg>
