<svg width="16" height="16" viewBox="0 0 16 16" fill="none" xmlns="http://www.w3.org/2000/svg">
<g clip-path="url(#clip0_6013_41243)">
<path d="M9.4541 2.32611C9.55765 2.32611 9.6416 2.24216 9.6416 2.13861C9.6416 2.03506 9.55765 1.95111 9.4541 1.95111C9.35055 1.95111 9.2666 2.03506 9.2666 2.13861C9.2666 2.24216 9.35055 2.32611 9.4541 2.32611Z" fill="#141005"/>
<path d="M15.7512 14.5265C15.6431 14.3919 15.4815 14.3147 15.3079 14.3147H12.9781C13.1725 14.1996 13.3539 14.0595 13.5179 13.8956C13.6313 13.7822 13.6937 13.6314 13.6937 13.4711V13.4342C13.6937 13.1031 13.4244 12.8338 13.0934 12.8338H12.9781C13.1725 12.7187 13.3539 12.5787 13.5179 12.4147C13.6313 12.3013 13.6937 12.1505 13.6937 11.9902V11.9533C13.6937 11.6223 13.4244 11.3529 13.0934 11.3529H12.9781C13.1725 11.2378 13.3539 11.0978 13.5179 10.9338C13.6313 10.8204 13.6937 10.6697 13.6937 10.5093V10.4724C13.6937 10.1414 13.4244 9.87206 13.0934 9.87206H12.9781C13.1725 9.75697 13.3539 9.61691 13.5179 9.45294C13.6313 9.33956 13.6937 9.18878 13.6937 9.02844V8.99153C13.6937 8.6605 13.4244 8.39119 13.0934 8.39119H9.51708C9.06977 8.39119 8.70583 8.02725 8.70583 7.57994V5.53713C9.27042 5.26722 9.64149 4.68738 9.64149 4.05525V2.88869C9.64149 2.78516 9.55752 2.70119 9.45399 2.70119C9.35046 2.70119 9.26649 2.78516 9.26649 2.88869V4.05525C9.26649 4.57691 8.93896 5.05244 8.45146 5.23856C8.37883 5.26631 8.33083 5.33597 8.33083 5.41372V7.57994C8.33083 7.89353 8.45336 8.17887 8.65277 8.39119H7.34727C7.54668 8.17887 7.66921 7.8935 7.66921 7.57994V5.41372C7.66921 5.33597 7.62121 5.26628 7.54858 5.23856C7.06108 5.05247 6.73355 4.57694 6.73355 4.05525V3.20338L7.36352 3.477C7.51208 3.54791 7.68127 3.37959 7.61021 3.23031L7.26252 2.42975L7.61021 1.62919C7.64086 1.55856 7.62524 1.47634 7.5708 1.42191C7.51633 1.36747 7.43411 1.35181 7.36352 1.3825L6.73355 1.65612V0.725344C6.73355 0.601063 6.83464 0.5 6.95893 0.5H9.04114C9.16543 0.5 9.26649 0.601094 9.26649 0.725344V1.38856C9.26649 1.49209 9.35046 1.57606 9.45399 1.57606C9.55752 1.57606 9.64149 1.49209 9.64149 1.38856V0.725344C9.64149 0.394313 9.37218 0.125 9.04114 0.125H6.95893C6.62789 0.125 6.35855 0.394313 6.35855 0.725344V1.64131L5.76243 1.38241C5.6918 1.35172 5.60961 1.36734 5.55514 1.42181C5.50068 1.47628 5.48508 1.55847 5.51574 1.62909L5.86343 2.42966L5.51574 3.23019C5.48508 3.30081 5.50071 3.38303 5.55514 3.43747C5.60958 3.49191 5.6918 3.50756 5.76243 3.47688L6.35855 3.21797V4.05516C6.35855 4.68731 6.72961 5.26716 7.29421 5.53703V7.57984C7.29421 8.02716 6.93027 8.39109 6.48296 8.39109H2.90664C2.57561 8.39109 2.3063 8.66041 2.3063 8.99144V9.02834C2.3063 9.18869 2.36877 9.33947 2.48214 9.45284C2.64611 9.61681 2.82755 9.75688 3.02199 9.87197H2.90664C2.57561 9.87197 2.3063 10.1413 2.3063 10.4723V10.5092C2.3063 10.6696 2.36877 10.8203 2.48214 10.9337C2.64611 11.0977 2.82755 11.2377 3.02199 11.3528H2.90664C2.57561 11.3528 2.3063 11.6222 2.3063 11.9532V11.9901C2.3063 12.1504 2.36877 12.3012 2.48214 12.4146C2.64611 12.5786 2.82755 12.7186 3.02199 12.8337H2.90664C2.57561 12.8337 2.3063 13.103 2.3063 13.4341V13.471C2.3063 13.6313 2.36877 13.7821 2.48214 13.8955C2.64611 14.0594 2.82755 14.1995 3.02199 14.3146H0.692113C0.518581 14.3146 0.356988 14.3918 0.248769 14.5264C0.141894 14.6594 0.101613 14.831 0.138206 14.9972L0.234144 15.4326C0.290613 15.6889 0.52355 15.8749 0.788019 15.8749H15.212C15.4765 15.8749 15.7094 15.6889 15.7659 15.4326L15.8618 14.9972C15.8984 14.831 15.8581 14.6594 15.7512 14.5264V14.5265ZM6.23983 2.35494L6.04908 1.91575L6.48824 2.1065C6.53586 2.12719 6.58999 2.12719 6.63761 2.1065L7.0768 1.91575L6.88605 2.35494C6.86536 2.40256 6.86536 2.45669 6.88605 2.50431L7.0768 2.9435L6.63761 2.75275C6.58999 2.73206 6.53586 2.73206 6.48824 2.75275L6.04908 2.9435L6.23983 2.50434C6.26052 2.45672 6.26052 2.40256 6.23983 2.35494ZM2.74727 9.18769C2.70471 9.14513 2.68127 9.08853 2.68127 9.02834V8.99144C2.68127 8.86716 2.78236 8.76609 2.90661 8.76609H13.0934C13.2177 8.76609 13.3187 8.86719 13.3187 8.99144V9.02834C13.3187 9.08853 13.2953 9.14513 13.2527 9.18769C12.8115 9.62897 12.2248 9.87197 11.6007 9.87197H4.39927C3.77524 9.87197 3.18855 9.62897 2.74727 9.18769ZM2.74727 10.6686C2.70471 10.626 2.68127 10.5694 2.68127 10.5092V10.4723C2.68127 10.3481 2.78236 10.247 2.90661 10.247H13.0934C13.2177 10.247 13.3187 10.3481 13.3187 10.4723V10.5092C13.3187 10.5694 13.2953 10.626 13.2527 10.6686C12.8115 11.1099 12.2248 11.3529 11.6007 11.3529H4.39927C3.77524 11.3529 3.18855 11.1099 2.74727 10.6686ZM2.74727 12.1495C2.70471 12.1069 2.68127 12.0503 2.68127 11.9902V11.9532C2.68127 11.829 2.78236 11.7279 2.90661 11.7279H13.0934C13.2177 11.7279 13.3187 11.829 13.3187 11.9532V11.9902C13.3187 12.0503 13.2953 12.1069 13.2527 12.1495C12.8115 12.5908 12.2248 12.8338 11.6007 12.8338H4.39927C3.77524 12.8338 3.18855 12.5908 2.74727 12.1495ZM2.74727 13.6304C2.70471 13.5878 2.68127 13.5312 2.68127 13.4711V13.4342C2.68127 13.3099 2.78236 13.2088 2.90661 13.2088H13.0934C13.2177 13.2088 13.3187 13.3099 13.3187 13.4342V13.4711C13.3187 13.5312 13.2953 13.5878 13.2527 13.6304C12.8115 14.0717 12.2248 14.3147 11.6007 14.3147H4.39927C3.77524 14.3147 3.18855 14.0717 2.74727 13.6304ZM15.4956 14.9166L15.3996 15.352C15.3807 15.4378 15.3018 15.5 15.212 15.5H0.78805C0.698206 15.5 0.6193 15.4378 0.600394 15.352L0.504456 14.9166C0.487988 14.8418 0.520331 14.7873 0.541113 14.7614C0.577769 14.7158 0.6328 14.6897 0.692144 14.6897H15.3079C15.3672 14.6897 15.4223 14.7158 15.459 14.7614C15.4797 14.7873 15.5121 14.8418 15.4956 14.9166L15.4956 14.9166Z" fill="#141005"/>
<path d="M10.9058 4.61994L11.569 4.88151L11.8306 5.54469C11.8588 5.61632 11.928 5.66341 12.005 5.66341C12.082 5.66341 12.1512 5.61635 12.1795 5.54469L12.441 4.88151L13.1042 4.61994C13.1758 4.59169 13.2229 4.52251 13.2229 4.44551C13.2229 4.36851 13.1759 4.29932 13.1042 4.27107L12.441 4.00951L12.1795 3.34632C12.1512 3.27469 12.082 3.2276 12.005 3.2276C11.928 3.2276 11.8588 3.27466 11.8306 3.34632L11.569 4.00951L10.9058 4.27107C10.8342 4.29932 10.7871 4.36851 10.7871 4.44551C10.7871 4.52251 10.8342 4.59169 10.9058 4.61994ZM11.7823 4.32851C11.8306 4.30944 11.8689 4.27119 11.888 4.22288L12.005 3.92619L12.122 4.22288C12.141 4.27119 12.1793 4.30948 12.2276 4.32851L12.5243 4.44551L12.2276 4.56254C12.1793 4.5816 12.141 4.61985 12.122 4.66816L12.005 4.96485L11.888 4.66816C11.8689 4.61985 11.8306 4.58157 11.7823 4.56254L11.4856 4.44551L11.7823 4.32851Z" fill="#141005"/>
<path d="M2.59723 6.72132L3.26042 6.98289L3.52198 7.64607C3.55023 7.7177 3.61942 7.76479 3.69642 7.76479C3.77342 7.76479 3.84261 7.71773 3.87086 7.64607L4.13242 6.98289L4.79561 6.72132C4.86723 6.69307 4.91433 6.62389 4.91433 6.54689C4.91433 6.46989 4.86727 6.4007 4.79561 6.37245L4.13242 6.11089L3.87086 5.4477C3.84261 5.37607 3.77342 5.32898 3.69642 5.32898C3.61942 5.32898 3.55023 5.37604 3.52198 5.4477L3.26042 6.11089L2.59723 6.37245C2.52561 6.4007 2.47852 6.46989 2.47852 6.54689C2.47852 6.62389 2.52558 6.69307 2.59723 6.72132ZM3.47377 6.42989C3.52208 6.41082 3.56033 6.37257 3.57939 6.32426L3.69639 6.02757L3.81342 6.32426C3.83248 6.37257 3.87073 6.41082 3.91905 6.42989L4.21573 6.54692L3.91905 6.66392C3.87073 6.68298 3.83245 6.72123 3.81342 6.76954L3.69639 7.06623L3.57939 6.76954C3.56033 6.72123 3.52208 6.68295 3.47377 6.66392L3.17708 6.54692L3.47377 6.42989Z" fill="#141005"/>
</g>
<defs>
<clipPath id="clip0_6013_41243">
<rect width="16" height="16" fill="white"/>
</clipPath>
</defs>
</svg>
