<svg width="24" height="24" viewBox="0 0 24 24" fill="none" xmlns="http://www.w3.org/2000/svg">
<path d="M11.9999 21.1856C11.8636 21.1856 5.50016 21.1856 5.50016 21.1856C5.08906 21.1856 4.74631 20.9934 4.58323 20.6714C4.4202 20.3495 4.46811 19.9594 4.71139 19.628L5.52828 18.5183C3.7962 16.7981 2.81445 14.4573 2.81445 12C2.81445 6.93503 6.93505 2.81439 11.9999 2.81439C17.065 2.81439 21.1856 6.93503 21.1856 12C21.1856 17.065 17.065 21.1856 11.9999 21.1856ZM11.9999 19.7793C16.2895 19.7793 19.7794 16.2895 19.7794 12C19.7794 7.71044 16.2895 4.22064 11.9999 4.22064C7.71045 4.22064 4.2207 7.71044 4.2207 12C4.2207 14.2662 5.20667 16.4154 6.92581 17.8967L7.41913 18.3217L6.34616 19.7793H11.9999Z" fill="black"/>
<path d="M9.55116 12C9.55116 12.5404 9.11306 12.9786 8.57255 12.9786C8.03194 12.9786 7.59375 12.5404 7.59375 12C7.59375 11.4594 8.03194 11.0212 8.57255 11.0212C9.11306 11.0212 9.55116 11.4594 9.55116 12Z" fill="black"/>
<path d="M12.0001 12.9786C12.5406 12.9786 12.9788 12.5405 12.9788 12C12.9788 11.4595 12.5406 11.0213 12.0001 11.0213C11.4596 11.0213 11.0215 11.4595 11.0215 12C11.0215 12.5405 11.4596 12.9786 12.0001 12.9786Z" fill="black"/>
<path d="M15.4284 12.9787C15.9689 12.9787 16.4071 12.5405 16.4071 12C16.4071 11.4595 15.9689 11.0213 15.4284 11.0213C14.8879 11.0213 14.4497 11.4595 14.4497 12C14.4497 12.5405 14.8879 12.9787 15.4284 12.9787Z" fill="black"/>
</svg>
