<svg width="16" height="16" viewBox="0 0 16 16" fill="none" xmlns="http://www.w3.org/2000/svg">
<path d="M7.99949 11.5312C10.1678 11.5312 11.9318 9.76755 11.9318 7.59974C11.9306 6.55719 11.5159 5.55768 10.7787 4.82048C10.0416 4.08328 9.04204 3.66861 7.99949 3.66743C5.83167 3.66743 4.06805 5.43146 4.06805 7.59974C4.06974 8.59162 4.44483 9.54651 5.11867 10.2744L4.71202 11.7915C4.68801 11.881 4.6911 11.9757 4.7209 12.0635C4.75071 12.1513 4.80589 12.2283 4.87946 12.2848C4.95304 12.3412 5.0417 12.3746 5.13423 12.3806C5.22676 12.3866 5.31901 12.3651 5.3993 12.3187L6.98977 11.3997C7.3192 11.4872 7.65863 11.5314 7.99949 11.5312ZM6.69489 10.4875L5.9108 10.9406L6.09417 10.2565C6.11622 10.1743 6.11545 10.0876 6.09195 10.0058C6.06845 9.92394 6.02311 9.85006 5.9608 9.79205C5.65812 9.51298 5.41687 9.17395 5.25241 8.79653C5.08795 8.41911 5.00387 8.01158 5.00555 7.59989C5.00577 6.96792 5.20604 6.35223 5.57765 5.84105C5.94926 5.32987 6.47314 4.94944 7.07423 4.75427C7.67531 4.55911 8.32275 4.55922 8.92377 4.75459C9.5248 4.94996 10.0485 5.33057 10.42 5.84187C10.7914 6.35317 10.9915 6.96893 10.9915 7.60091C10.9915 8.23289 10.7915 8.84865 10.42 9.35996C10.0486 9.87128 9.52486 10.2519 8.92385 10.4473C8.32283 10.6427 7.67539 10.6428 7.0743 10.4476C7.01181 10.4273 6.94574 10.4203 6.88037 10.4272C6.81501 10.434 6.75182 10.4545 6.69489 10.4874V10.4875ZM15.7437 7.93452C15.7488 7.74271 15.754 7.54436 15.7449 7.33786C15.7202 6.76093 15.4725 6.2161 15.0541 5.81811C14.6357 5.42012 14.0792 5.20001 13.5017 5.20414C12.5749 3.0838 10.4576 1.59814 7.99949 1.59814C5.54139 1.59814 3.42492 3.08377 2.49811 5.20411C1.9208 5.20001 1.3644 5.42004 0.946032 5.81788C0.527662 6.21572 0.279946 6.76035 0.255018 7.33714C0.245831 7.54439 0.251112 7.74277 0.256206 7.93461C0.261612 8.1373 0.267174 8.34689 0.256768 8.58243C0.231954 9.17291 0.442314 9.74913 0.841721 10.1847C1.24113 10.6203 1.79698 10.8798 2.38739 10.9062C2.42235 10.9078 2.45724 10.9086 2.49205 10.9086C2.78633 10.9088 3.07765 10.8499 3.34877 10.7355C3.46205 10.688 3.55212 10.5979 3.59956 10.4847C3.647 10.3714 3.64799 10.244 3.60233 10.13C3.59666 10.1078 3.58799 10.0866 3.57658 10.0668C3.15661 9.31236 2.9362 8.46319 2.93624 7.59974C2.93624 4.80739 5.20761 2.53564 7.99949 2.53564C10.7914 2.53564 13.0636 4.80752 13.0636 7.59974C13.0669 8.78168 12.6553 9.9273 11.9006 10.8369C11.1459 11.7466 10.0959 12.3625 8.93371 12.5775C8.81127 12.3004 8.59588 12.0747 8.32474 11.9396C8.05361 11.8045 7.74379 11.7683 7.44882 11.8374C7.15385 11.9064 6.89228 12.0764 6.70932 12.3178C6.52636 12.5593 6.43351 12.8571 6.44681 13.1597C6.46012 13.4624 6.57874 13.7509 6.78218 13.9753C6.98563 14.1998 7.2611 14.3461 7.56099 14.389C7.86088 14.4319 8.16634 14.3687 8.42457 14.2103C8.68279 14.0519 8.87756 13.8083 8.97521 13.5215C9.80082 13.3849 10.5888 13.0775 11.2888 12.6188C11.9887 12.1602 12.5852 11.5605 13.04 10.858C13.1935 10.8916 13.3502 10.9085 13.5073 10.9086C13.5417 10.9086 13.5762 10.9079 13.6109 10.9063C13.9035 10.8937 14.1908 10.8236 14.4563 10.6999C14.7219 10.5763 14.9604 10.4015 15.1584 10.1857C15.3564 9.96983 15.51 9.71709 15.6103 9.44189C15.7106 9.1667 15.7557 8.87444 15.743 8.5818C15.7327 8.34702 15.7383 8.13724 15.7437 7.93452ZM2.42908 9.96961C2.08682 9.9545 1.76453 9.80427 1.53288 9.55187C1.30123 9.29947 1.17913 8.9655 1.19336 8.62321C1.20521 8.35511 1.19892 8.11849 1.19336 7.90968C1.18849 7.72608 1.18399 7.55271 1.19164 7.37799C1.20374 7.09961 1.30541 6.83259 1.4815 6.61665C1.6576 6.40071 1.89871 6.24741 2.16896 6.17955C1.87349 7.39437 1.96416 8.67108 2.42833 9.83196L2.42777 9.83218C2.44602 9.87868 2.46486 9.92496 2.4843 9.97102C2.46603 9.97094 2.44762 9.97047 2.42908 9.96961ZM7.74527 13.4646C7.67364 13.4647 7.60363 13.4434 7.54407 13.4036C7.48451 13.3638 7.43809 13.3073 7.41067 13.2411C7.38325 13.175 7.37607 13.1022 7.39003 13.0319C7.40399 12.9616 7.43846 12.8971 7.4891 12.8465C7.53973 12.7958 7.60425 12.7613 7.6745 12.7473C7.74474 12.7333 7.81755 12.7405 7.88373 12.7679C7.94991 12.7953 8.00648 12.8417 8.0463 12.9012C8.08611 12.9607 8.10737 13.0307 8.10739 13.1024V13.1031C8.10715 13.199 8.06891 13.2909 8.00103 13.3587C7.93316 13.4264 7.84119 13.4645 7.74527 13.4646ZM14.8065 8.62255C14.8138 8.79226 14.7875 8.96175 14.7293 9.12132C14.6711 9.28089 14.5819 9.42742 14.467 9.55253C14.3521 9.67764 14.2137 9.77888 14.0597 9.85046C13.9056 9.92203 13.739 9.96254 13.5692 9.96968C13.5512 9.97053 13.5333 9.97099 13.5154 9.97105C13.5161 9.96931 13.5163 9.96734 13.5157 9.96552C14.0275 8.77084 14.1381 7.44244 13.8309 6.17958C14.1013 6.24745 14.3425 6.40085 14.5186 6.61692C14.6947 6.83299 14.7963 7.10018 14.8082 7.37868C14.816 7.55268 14.8114 7.72605 14.8065 7.90961C14.8009 8.11843 14.7946 8.35508 14.8065 8.62255ZM6.9043 7.5538C6.90581 7.56907 6.90654 7.5844 6.90649 7.59974C6.90654 7.61518 6.90581 7.63062 6.9043 7.64599C6.90274 7.66099 6.90024 7.6763 6.89742 7.6913C6.89461 7.7063 6.89055 7.7213 6.88617 7.73599C6.8818 7.75068 6.87649 7.76505 6.87055 7.77911C6.86461 7.79318 6.85805 7.80724 6.85086 7.82068C6.84367 7.83411 6.83586 7.84724 6.82742 7.86005C6.81907 7.87285 6.81 7.88516 6.80024 7.89693C6.79055 7.90911 6.77992 7.92036 6.7693 7.9313C6.75837 7.94218 6.7469 7.95251 6.73492 7.96224C6.72305 7.97193 6.71055 7.98099 6.69805 7.98974C6.68524 7.99786 6.67211 8.00599 6.65836 8.01318C6.64498 8.02039 6.63121 8.02686 6.61711 8.03255C6.60301 8.0385 6.58862 8.04371 6.57399 8.04818C6.5593 8.05255 6.5443 8.0563 6.5293 8.05943C6.51432 8.06248 6.4992 8.06477 6.48399 8.0663C6.45322 8.06922 6.42225 8.06922 6.39149 8.0663C6.37628 8.06477 6.36115 8.06248 6.34617 8.05943C6.33117 8.0563 6.31617 8.05255 6.30149 8.04818C6.28685 8.04371 6.27246 8.0385 6.25836 8.03255C6.24427 8.02686 6.23049 8.02039 6.21711 8.01318C6.20336 8.00599 6.19024 7.99786 6.17742 7.98974C6.16492 7.98099 6.15242 7.97193 6.14055 7.96224C6.12858 7.95251 6.1171 7.94218 6.10617 7.9313C6.09555 7.92036 6.08492 7.90911 6.07524 7.89693C6.06548 7.88516 6.0564 7.87285 6.04805 7.86005C6.03972 7.84724 6.0319 7.83411 6.02461 7.82068C6.01742 7.80724 6.01086 7.79318 6.00492 7.77911C5.99899 7.76505 5.99399 7.75068 5.9893 7.73599C5.98461 7.7213 5.98117 7.7063 5.97805 7.6913C5.97492 7.6763 5.97274 7.6613 5.97117 7.64599C5.96961 7.63068 5.96899 7.61505 5.96899 7.59974C5.96899 7.58443 5.96992 7.56911 5.97117 7.5538C5.97242 7.53849 5.97524 7.52318 5.97805 7.50818C5.98086 7.49318 5.98492 7.47849 5.9893 7.4638C5.99367 7.44911 5.99899 7.43474 6.00492 7.42068C6.01086 7.40661 6.01742 7.39255 6.02461 7.37911C6.03904 7.35206 6.05599 7.32642 6.07524 7.30255C6.08492 7.29068 6.09555 7.27911 6.10617 7.26849C6.1171 7.2576 6.12858 7.24728 6.14055 7.23755C6.15242 7.22786 6.16492 7.21849 6.17742 7.21005C6.19025 7.20157 6.2035 7.19375 6.21711 7.18661C6.23055 7.17943 6.2443 7.17286 6.25836 7.16693C6.27242 7.1613 6.28711 7.15599 6.30149 7.15161C6.31618 7.14709 6.33109 7.14334 6.34617 7.14036C6.4066 7.12809 6.46887 7.12809 6.5293 7.14036C6.54438 7.14334 6.5593 7.14709 6.57399 7.15161C6.58836 7.15599 6.60305 7.1613 6.61711 7.16693C6.63117 7.17255 6.64492 7.17943 6.65836 7.18661C6.67198 7.19375 6.68522 7.20157 6.69805 7.21005C6.71055 7.21849 6.72305 7.22786 6.73492 7.23755C6.7469 7.24728 6.75837 7.2576 6.7693 7.26849C6.77992 7.27911 6.79055 7.29068 6.80024 7.30255C6.81948 7.32642 6.83643 7.35206 6.85086 7.37911C6.85805 7.39255 6.86461 7.40661 6.87055 7.42068C6.87649 7.43474 6.88149 7.44911 6.88617 7.4638C6.89086 7.47849 6.8943 7.49349 6.89742 7.50818C6.90055 7.52286 6.90274 7.53836 6.9043 7.55368V7.5538ZM7.53117 7.59974C7.53113 7.5382 7.5432 7.47726 7.56671 7.4204C7.59023 7.36353 7.62471 7.31186 7.6682 7.26833C7.71169 7.2248 7.76334 7.19026 7.82018 7.1667C7.87702 7.14313 7.93795 7.131 7.99949 7.13099H8.00036C8.09305 7.13107 8.18364 7.15864 8.26067 7.2102C8.3377 7.26176 8.39771 7.335 8.43312 7.42066C8.46853 7.50632 8.47775 7.60055 8.45961 7.69145C8.44148 7.78235 8.3968 7.86584 8.33123 7.93135C8.26565 7.99686 8.18213 8.04146 8.09121 8.05951C8.0003 8.07756 7.90607 8.06826 7.82044 8.03276C7.73481 7.99727 7.66163 7.93719 7.61014 7.86012C7.55866 7.78304 7.53117 7.69243 7.53117 7.59974ZM9.09555 7.64586C9.09404 7.63049 9.09331 7.61506 9.09336 7.59961C9.09331 7.58427 9.09404 7.56894 9.09555 7.55368C9.09711 7.53836 9.09961 7.52305 9.10242 7.50805C9.10524 7.49305 9.1093 7.47836 9.11368 7.46368C9.11809 7.44902 9.12331 7.43463 9.1293 7.42055C9.13492 7.40649 9.1418 7.39243 9.14867 7.37899C9.16336 7.35201 9.18041 7.32639 9.19961 7.30243C9.2093 7.29055 9.21992 7.27899 9.23055 7.26836C9.24148 7.25748 9.25295 7.24715 9.26493 7.23743C9.27668 7.22757 9.28899 7.21838 9.3018 7.20993C9.31461 7.20159 9.32774 7.19378 9.34118 7.18649C9.35461 7.1793 9.36867 7.17274 9.38274 7.1668C9.3968 7.16086 9.41149 7.15586 9.42586 7.15149C9.44055 7.14697 9.45547 7.14321 9.47055 7.14024C9.51578 7.13104 9.56213 7.12873 9.60805 7.13336C9.62337 7.13487 9.6386 7.13716 9.65368 7.14024C9.66866 7.14318 9.68347 7.14693 9.69805 7.15149C9.71274 7.15586 9.72742 7.16118 9.74149 7.1668C9.75555 7.17243 9.7693 7.1793 9.78274 7.18649C9.79635 7.19363 9.8096 7.20145 9.82242 7.20993C9.83492 7.21836 9.84742 7.22774 9.8593 7.23743C9.87124 7.24708 9.88261 7.25741 9.89336 7.26836C9.9043 7.27899 9.91461 7.29055 9.92461 7.30243C9.93399 7.3143 9.94336 7.3268 9.9518 7.33961C9.96027 7.35233 9.9681 7.36547 9.97524 7.37899C9.98242 7.39243 9.98899 7.40649 9.99492 7.42055C10.0008 7.43463 10.0059 7.44903 10.0102 7.46368C10.0149 7.47822 10.0187 7.49304 10.0215 7.50805C10.0247 7.5231 10.027 7.53834 10.0284 7.55368C10.03 7.56894 10.0308 7.58427 10.0309 7.59961C10.0308 7.61506 10.03 7.6305 10.0284 7.64586C10.027 7.66109 10.0247 7.67622 10.0215 7.69118C10.0187 7.70629 10.0149 7.72121 10.0102 7.73586C10.0059 7.75049 10.0008 7.76489 9.99492 7.77899C9.98899 7.79305 9.98242 7.80711 9.97524 7.82055C9.96805 7.83399 9.96024 7.84711 9.9518 7.85993C9.94336 7.87274 9.93399 7.88524 9.92461 7.8968C9.91461 7.90899 9.9043 7.92024 9.89336 7.93118C9.88261 7.94213 9.87124 7.95246 9.8593 7.96211C9.84742 7.9718 9.83492 7.98086 9.82242 7.9893C9.8096 7.99788 9.79636 8.00581 9.78274 8.01305C9.76935 8.02026 9.75558 8.02673 9.74149 8.03243C9.7273 8.03842 9.7128 8.04364 9.69805 8.04805C9.68367 8.05243 9.66868 8.05618 9.65368 8.0593C9.62354 8.06543 9.59286 8.06847 9.56211 8.06836C9.54667 8.06841 9.53123 8.06768 9.51586 8.06618C9.50065 8.06465 9.48553 8.06236 9.47055 8.0593C9.45555 8.05618 9.44055 8.05243 9.42586 8.04805C9.41123 8.04359 9.39683 8.03837 9.38274 8.03243C9.36854 8.02673 9.35466 8.02027 9.34118 8.01305C9.32774 8.00586 9.31461 7.99774 9.3018 7.9893C9.289 7.98095 9.27669 7.97187 9.26493 7.96211C9.25295 7.95239 9.24148 7.94206 9.23055 7.93118C9.21992 7.92024 9.2093 7.90899 9.19961 7.8968C9.18985 7.88504 9.18078 7.87273 9.17242 7.85993C9.16399 7.84711 9.15586 7.83399 9.14867 7.82055C9.14149 7.80711 9.13492 7.79305 9.1293 7.77899C9.12335 7.76489 9.11814 7.7505 9.11368 7.73586C9.1093 7.72118 9.10555 7.70618 9.10242 7.69118C9.0993 7.67618 9.09711 7.66086 9.09555 7.64586Z" fill="#082133"/>
</svg>
