<svg width="16" height="16" viewBox="0 0 16 16" fill="none" xmlns="http://www.w3.org/2000/svg">
<g clip-path="url(#clip0_1217_5937)">
<path d="M15.75 9.47116H9.90875L10.4862 8.66866C11.2362 7.63366 11.135 6.79366 11.0413 6.05241C10.9864 5.75023 10.9725 5.44204 11 5.13616C11.1375 4.80491 12.925 2.46116 14.5525 0.404909C14.5785 0.380377 14.5989 0.350563 14.6124 0.317474C14.6259 0.284385 14.6321 0.248791 14.6307 0.213091C14.6292 0.17739 14.6201 0.142412 14.604 0.110513C14.5879 0.0786152 14.5652 0.050538 14.5373 0.0281738C14.5095 0.00580966 14.4771 -0.0103218 14.4425 -0.0191335C14.4079 -0.0279452 14.3718 -0.0292324 14.3366 -0.0229083C14.3014 -0.0165843 14.268 -0.00279592 14.2387 0.0175276C14.2093 0.0378511 14.1846 0.0642375 14.1663 0.0949087C12.8275 1.78616 10.5725 4.67866 10.5138 5.04241C10.4731 5.39957 10.4836 5.76072 10.545 6.11491C10.625 6.79616 10.7188 7.49991 10.0813 8.37491L9.29375 9.46991H8.75L9.53125 8.38616C9.64997 8.22388 9.69942 8.02112 9.66875 7.82241C9.65357 7.72431 9.61906 7.6302 9.56723 7.54553C9.5154 7.46087 9.44728 7.38734 9.36682 7.3292C9.28636 7.27106 9.19515 7.22948 9.0985 7.20685C9.00184 7.18423 8.90166 7.18102 8.80375 7.19741C8.70438 7.21265 8.60902 7.24746 8.52319 7.29981C8.43736 7.35216 8.36278 7.42103 8.30375 7.50241L6.875 9.47116H6.185L7.85125 7.16991C7.96911 7.0073 8.01754 6.80453 7.98589 6.60621C7.95424 6.40789 7.84511 6.23026 7.6825 6.11241C7.51989 5.99455 7.31712 5.94612 7.1188 5.97777C6.92048 6.00941 6.74286 6.11855 6.625 6.28116L4.31625 9.47116H3.77625L6.47 5.74991C7.085 4.90491 7.76625 4.77491 8.42625 4.64991C8.80841 4.59964 9.17892 4.48332 9.52125 4.30616C9.86 4.10366 11.6875 1.49991 12.4575 0.392409C12.4913 0.337984 12.5029 0.272669 12.4899 0.209941C12.4769 0.147214 12.4404 0.0918588 12.3878 0.0552979C12.3352 0.018737 12.2706 0.00375967 12.2072 0.0134562C12.1439 0.0231526 12.0867 0.0567831 12.0475 0.107409C11.0362 1.56366 9.5 3.69616 9.2675 3.87491C8.97403 4.02145 8.65792 4.11738 8.3325 4.15866C7.64875 4.28366 6.7975 4.44991 6.065 5.45616L3.15875 9.47116H0.25C0.183696 9.47116 0.120107 9.4975 0.0732233 9.54438C0.0263392 9.59127 0 9.65485 0 9.72116L0 10.1874C0.00165439 11.7285 0.614572 13.2059 1.70427 14.2956C2.79397 15.3853 4.27144 15.9983 5.8125 15.9999H10.1875C11.7286 15.9983 13.206 15.3853 14.2957 14.2956C15.3854 13.2059 15.9983 11.7285 16 10.1874V9.72116C16 9.65485 15.9737 9.59127 15.9268 9.54438C15.8799 9.4975 15.8163 9.47116 15.75 9.47116ZM8.70625 7.79241C8.72611 7.76491 8.7512 7.7416 8.78007 7.7238C8.80894 7.706 8.84104 7.69406 8.87452 7.68866C8.90801 7.68326 8.94223 7.68451 8.97524 7.69234C9.00824 7.70017 9.03938 7.71442 9.06688 7.73428C9.09437 7.75415 9.11769 7.77923 9.13549 7.8081C9.15329 7.83697 9.16523 7.86907 9.17063 7.90256C9.17602 7.93605 9.17477 7.97027 9.16694 8.00327C9.15911 8.03627 9.14486 8.06741 9.125 8.09491L8.125 9.47116H7.4925L8.70625 7.79241ZM7.0325 6.57491C7.0522 6.54774 7.07705 6.52472 7.10565 6.50716C7.13425 6.4896 7.16602 6.47784 7.19916 6.47256C7.2323 6.46728 7.26615 6.46858 7.29879 6.47638C7.33143 6.48418 7.36221 6.49834 7.38938 6.51803C7.41654 6.53773 7.43956 6.56259 7.45712 6.59118C7.47469 6.61978 7.48644 6.65155 7.49172 6.68469C7.497 6.71783 7.49571 6.75169 7.48791 6.78432C7.4801 6.81696 7.46595 6.84774 7.44625 6.87491L5.57125 9.46991H4.93375L7.0325 6.57491ZM15.5 10.1874C15.4983 11.5959 14.9381 12.9462 13.9422 13.9421C12.9462 14.938 11.596 15.4983 10.1875 15.4999H5.8125C4.40405 15.4983 3.05375 14.938 2.05782 13.9421C1.06189 12.9462 0.501654 11.5959 0.5 10.1874V9.97116H15.5V10.1874Z" fill="#141005"/>
<path d="M-0.000289192 6.5275C-0.000289192 6.5938 0.02605 6.65739 0.0729341 6.70428C0.119818 6.75116 0.183407 6.7775 0.249711 6.7775C0.316015 6.7775 0.379603 6.75116 0.426488 6.70428C0.473372 6.65739 0.499711 6.5938 0.499711 6.5275C0.499711 6.085 0.652211 5.875 0.828461 5.625C1.10616 5.29118 1.25554 4.86918 1.24971 4.435C1.25614 3.99996 1.10672 3.57697 0.828461 3.2425C0.652211 3 0.499711 2.785 0.499711 2.3425C0.499711 1.9 0.652211 1.6875 0.828461 1.4425C1.10672 1.10803 1.25614 0.68504 1.24971 0.25C1.24971 0.183696 1.22337 0.120107 1.17649 0.0732233C1.1296 0.0263392 1.06601 0 0.999711 0C0.933407 0 0.869818 0.0263392 0.822934 0.0732233C0.77605 0.120107 0.749711 0.183696 0.749711 0.25C0.749711 0.6925 0.597211 0.905 0.420961 1.15C0.142702 1.48447 -0.00671732 1.90746 -0.000289192 2.3425C-0.00641791 2.77711 0.142984 3.1996 0.420961 3.53375C0.597211 3.78 0.749711 3.9925 0.749711 4.435C0.749711 4.8775 0.597211 5.09 0.420961 5.33625C0.142984 5.6704 -0.00641791 6.09289 -0.000289192 6.5275Z" fill="#141005"/>
<path d="M2.0002 4.435C2.00565 4.75882 1.89275 5.0735 1.6827 5.32C1.66266 5.34662 1.64815 5.37698 1.64002 5.40929C1.63188 5.4416 1.63028 5.47521 1.63532 5.50814C1.64036 5.54108 1.65193 5.57267 1.66936 5.60107C1.68678 5.62947 1.7097 5.6541 1.73678 5.67351C1.76386 5.69293 1.79455 5.70673 1.82704 5.71412C1.85953 5.7215 1.89316 5.72232 1.92597 5.71652C1.95878 5.71072 1.9901 5.69842 2.01809 5.68034C2.04608 5.66226 2.07017 5.63877 2.08895 5.61125C2.36083 5.28014 2.50654 4.86338 2.5002 4.435C2.50663 3.99996 2.35721 3.57697 2.07895 3.2425C1.9077 3 1.7502 2.785 1.7502 2.3425C1.7502 1.9 1.9027 1.6875 2.07895 1.4425C2.35721 1.10803 2.50663 0.68504 2.5002 0.25C2.5002 0.183696 2.47386 0.120107 2.42698 0.0732233C2.38009 0.0263392 2.3165 0 2.2502 0C2.18389 0 2.12031 0.0263392 2.07342 0.0732233C2.02654 0.120107 2.0002 0.183696 2.0002 0.25C2.0002 0.6925 1.8477 0.905 1.67145 1.15C1.39319 1.48447 1.24377 1.90746 1.2502 2.3425C1.24407 2.77711 1.39347 3.1996 1.67145 3.53375C1.85395 3.78 2.0002 3.9925 2.0002 4.435Z" fill="#141005"/>
<path d="M6.41853 3.53266L7.82728 3.75891H7.86728C7.88308 3.76042 7.89898 3.76042 7.91478 3.75891H7.92603L7.95978 3.74891L7.97603 3.74141L8.00228 3.72766L8.01728 3.71641L8.04103 3.69641L8.04853 3.68891C8.05529 3.68098 8.06156 3.67263 8.06728 3.66391L8.07603 3.65016C8.08117 3.64129 8.08576 3.6321 8.08978 3.62266L8.09603 3.60766C8.09914 3.59783 8.10165 3.58781 8.10353 3.57766C8.10353 3.57766 8.10353 3.56641 8.10353 3.56141L8.32978 2.15266C8.33978 2.08739 8.32355 2.0208 8.28462 1.96745C8.2457 1.9141 8.18725 1.87832 8.12204 1.86792C8.05682 1.85752 7.99014 1.87334 7.93656 1.91194C7.88297 1.95053 7.84683 2.00876 7.83603 2.07391L7.69978 2.98016C7.05478 2.25266 6.82478 1.56016 7.07478 1.07766C7.43353 0.390163 8.86228 0.310163 10.471 0.885163C10.5335 0.90754 10.6023 0.904177 10.6624 0.875812C10.7224 0.847447 10.7687 0.796404 10.791 0.733913C10.8134 0.671421 10.81 0.602599 10.7817 0.542588C10.7533 0.482576 10.7023 0.43629 10.6398 0.413913C8.73478 -0.266087 7.12478 -0.0935875 6.62478 0.845163C6.29228 1.47766 6.49978 2.31016 7.18478 3.15016L6.49978 3.03891C6.4345 3.02891 6.36792 3.04514 6.31457 3.08407C6.26122 3.12299 6.22544 3.18144 6.21504 3.24665C6.20463 3.31187 6.22046 3.37855 6.25905 3.43214C6.29765 3.48572 6.35588 3.52186 6.42103 3.53266H6.41853Z" fill="#141005"/>
<path d="M14.3749 2.38857H14.3362H14.3112H14.2887L14.2637 2.39607L14.2424 2.40357L14.2199 2.41607L14.1999 2.42732C14.1893 2.43486 14.1793 2.44322 14.1699 2.45232H14.1624C14.148 2.46658 14.1355 2.48253 14.1249 2.49982C14.1203 2.50792 14.1161 2.51626 14.1124 2.52482C14.1124 2.53107 14.1062 2.53732 14.1037 2.54357C14.0979 2.55936 14.0937 2.5757 14.0912 2.59232L13.8674 3.99982C13.857 4.0653 13.873 4.13224 13.9119 4.18592C13.9508 4.2396 14.0094 4.27563 14.0749 4.28607H14.1149C14.1748 4.28685 14.2331 4.26607 14.2789 4.22752C14.3248 4.18898 14.3553 4.13523 14.3649 4.07607L14.5124 3.15982C15.1574 3.88732 15.3874 4.57982 15.1374 5.06232C14.7762 5.74857 13.3474 5.82982 11.7399 5.25482C11.709 5.24374 11.6762 5.23887 11.6433 5.24047C11.6105 5.24208 11.5783 5.25013 11.5486 5.26418C11.5189 5.27822 11.4922 5.29798 11.4701 5.32233C11.4481 5.34667 11.431 5.37513 11.4199 5.40607C11.4088 5.43702 11.404 5.46984 11.4056 5.50267C11.4072 5.53549 11.4152 5.56768 11.4293 5.5974C11.4433 5.62711 11.4631 5.65377 11.4874 5.67585C11.5118 5.69793 11.5402 5.71499 11.5712 5.72607C12.2511 5.98289 12.9696 6.12278 13.6962 6.13982C14.6024 6.13982 15.2874 5.85232 15.5787 5.29607C15.9112 4.66357 15.7037 3.83107 15.0187 2.99107L15.7112 3.10232C15.7437 3.10771 15.777 3.10662 15.809 3.09911C15.8411 3.0916 15.8714 3.07781 15.8982 3.05855C15.9249 3.03929 15.9476 3.01493 15.9649 2.98687C15.9822 2.95881 15.9938 2.92761 15.9989 2.89507C16.0041 2.86252 16.0028 2.82927 15.9951 2.79722C15.9874 2.76517 15.9735 2.73497 15.954 2.70834C15.9346 2.68172 15.9101 2.6592 15.8819 2.64207C15.8538 2.62495 15.8225 2.61357 15.7899 2.60857L14.3824 2.38232L14.3749 2.38857Z" fill="#141005"/>
</g>
<defs>
<clipPath id="clip0_1217_5937">
<rect width="16" height="16" fill="white"/>
</clipPath>
</defs>
</svg>
