<svg width="16" height="16" viewBox="0 0 16 16" fill="none" xmlns="http://www.w3.org/2000/svg">
<path d="M12.0881 10.0158C12.0573 10.0042 12.0245 9.9988 11.9917 9.9999C11.9588 10.001 11.9265 10.0086 11.8965 10.0222C11.8666 10.0358 11.8397 10.0552 11.8172 10.0792C11.7948 10.1032 11.7773 10.1315 11.7658 10.1623L11.2501 11.538L10.7343 10.163C10.7111 10.1009 10.6642 10.0505 10.6038 10.023C10.5435 9.99549 10.4747 9.99307 10.4126 10.0163C10.3504 10.0395 10.3001 10.0864 10.2725 10.1468C10.245 10.2071 10.2426 10.2759 10.2658 10.338L11.0158 12.338C11.0336 12.3858 11.0656 12.427 11.1075 12.456C11.1493 12.4851 11.1991 12.5007 11.2501 12.5007C11.301 12.5007 11.3508 12.4851 11.3927 12.456C11.4345 12.427 11.4665 12.3858 11.4843 12.338L12.2343 10.338C12.2459 10.3073 12.2513 10.2745 12.2502 10.2417C12.2491 10.2088 12.2416 10.1765 12.228 10.1466C12.2144 10.1166 12.1951 10.0897 12.1711 10.0672C12.147 10.0448 12.1188 10.0273 12.0881 10.0158Z" fill="#666666"/>
<path d="M12.9843 10.1623C12.9728 10.1316 12.9554 10.1034 12.933 10.0793C12.9106 10.0553 12.8837 10.0359 12.8538 10.0223C12.8239 10.0087 12.7917 10.0011 12.7589 9.99991C12.726 9.99875 12.6933 10.0041 12.6626 10.0156C12.6318 10.0271 12.6036 10.0445 12.5796 10.0669C12.5556 10.0893 12.5362 10.1162 12.5225 10.146C12.5089 10.1759 12.5013 10.2082 12.5002 10.241C12.499 10.2738 12.5043 10.3066 12.5158 10.3373L13.2658 12.3373C13.2836 12.3851 13.3156 12.4263 13.3575 12.4553C13.3993 12.4844 13.4491 12.5 13.5001 12.5C13.551 12.5 13.6008 12.4844 13.6427 12.4553C13.6845 12.4263 13.7165 12.3851 13.7343 12.3373L14.4843 10.3373C14.4958 10.3066 14.5011 10.2738 14.5 10.241C14.4988 10.2082 14.4912 10.1759 14.4776 10.146C14.4639 10.1162 14.4446 10.0893 14.4205 10.0669C14.3965 10.0445 14.3683 10.0271 14.3376 10.0156C14.3068 10.0041 14.2741 9.99875 14.2413 9.99991C14.2084 10.0011 14.1762 10.0087 14.1463 10.0223C14.1164 10.0359 14.0895 10.0553 14.0671 10.0793C14.0447 10.1034 14.0273 10.1316 14.0158 10.1623L13.5001 11.5381L12.9843 10.1623Z" fill="#666666"/>
<path d="M14.25 2H1.75C1.41848 2 1.10054 2.1317 0.866117 2.36612C0.631696 2.60054 0.5 2.91848 0.5 3.25V11.25C0.5 11.5815 0.631696 11.8995 0.866117 12.1339C1.10054 12.3683 1.41848 12.5 1.75 12.5H7.1875C7.48652 13.473 8.12483 14.3064 8.98636 14.8486C9.84788 15.3907 10.8754 15.6057 11.882 15.4543C12.8886 15.3029 13.8074 14.7953 14.4714 14.0237C15.1354 13.2522 15.5004 12.2679 15.5 11.25V3.25C15.5 2.91848 15.3683 2.60054 15.1339 2.36612C14.8995 2.1317 14.5815 2 14.25 2ZM11.25 15C10.5083 15 9.7833 14.7801 9.16661 14.368C8.54993 13.956 8.06928 13.3703 7.78545 12.6851C7.50162 11.9998 7.42736 11.2458 7.57206 10.5184C7.71675 9.79098 8.0739 9.1228 8.59835 8.59835C9.1228 8.0739 9.79098 7.71675 10.5184 7.57206C11.2458 7.42736 11.9998 7.50162 12.6851 7.78545C13.3703 8.06928 13.956 8.54993 14.368 9.16661C14.7801 9.7833 15 10.5083 15 11.25C14.9988 12.2442 14.6033 13.1973 13.9003 13.9003C13.1973 14.6033 12.2442 14.9988 11.25 15ZM15 9.255C14.5552 8.41762 13.843 7.75313 12.9768 7.36731C12.1107 6.9815 11.1403 6.89654 10.2203 7.12597C9.3003 7.3554 8.48348 7.88603 7.89991 8.63337C7.31633 9.38071 6.99955 10.3018 7 11.25C7.00164 11.5016 7.02506 11.7525 7.07 12H1.75C1.55127 11.9994 1.36085 11.9202 1.22033 11.7797C1.0798 11.6392 1.00059 11.4487 1 11.25V6.5H15V9.255ZM15 6H1V4.5H15V6ZM15 4H1V3.25C1.00059 3.05127 1.0798 2.86085 1.22033 2.72033C1.36085 2.5798 1.55127 2.50059 1.75 2.5H14.25C14.4487 2.50059 14.6392 2.5798 14.7797 2.72033C14.9202 2.86085 14.9994 3.05127 15 3.25V4Z" fill="#666666"/>
<path d="M5.5 9H3C2.73478 9 2.48043 9.10536 2.29289 9.29289C2.10536 9.48043 2 9.73478 2 10C2 10.2652 2.10536 10.5196 2.29289 10.7071C2.48043 10.8946 2.73478 11 3 11H5.5C5.76522 11 6.01957 10.8946 6.20711 10.7071C6.39464 10.5196 6.5 10.2652 6.5 10C6.5 9.73478 6.39464 9.48043 6.20711 9.29289C6.01957 9.10536 5.76522 9 5.5 9ZM5.5 10.5H3C2.86739 10.5 2.74021 10.4473 2.64645 10.3536C2.55268 10.2598 2.5 10.1326 2.5 10C2.5 9.86739 2.55268 9.74021 2.64645 9.64645C2.74021 9.55268 2.86739 9.5 3 9.5H5.5C5.63261 9.5 5.75979 9.55268 5.85355 9.64645C5.94732 9.74021 6 9.86739 6 10C6 10.1326 5.94732 10.2598 5.85355 10.3536C5.75979 10.4473 5.63261 10.5 5.5 10.5Z" fill="#666666"/>
<path d="M9.25 10.5C9.37295 10.5 9.49159 10.5453 9.58325 10.6272C9.6075 10.6502 9.63612 10.6682 9.66742 10.6799C9.69872 10.6917 9.73206 10.697 9.76547 10.6957C9.79888 10.6943 9.83168 10.6863 9.86193 10.672C9.89218 10.6578 9.91926 10.6376 9.94157 10.6127C9.96388 10.5878 9.98097 10.5587 9.99183 10.5271C10.0027 10.4954 10.0071 10.462 10.0048 10.4286C10.0025 10.3952 9.99347 10.3627 9.97835 10.3329C9.96323 10.303 9.94229 10.2765 9.91675 10.255C9.77289 10.1263 9.59486 10.0419 9.40413 10.0122C9.21341 9.98244 9.01816 10.0085 8.84193 10.0873C8.66571 10.1661 8.51604 10.2942 8.41101 10.4561C8.30597 10.618 8.25005 10.8069 8.25 11V11.5C8.25005 11.693 8.30597 11.8819 8.41101 12.0438C8.51604 12.2058 8.66571 12.3339 8.84193 12.4126C9.01816 12.4914 9.21341 12.5175 9.40413 12.4877C9.59486 12.458 9.77289 12.3737 9.91675 12.245C9.94229 12.2234 9.96323 12.1969 9.97835 12.1671C9.99347 12.1372 10.0025 12.1047 10.0048 12.0713C10.0071 12.038 10.0027 12.0045 9.99183 11.9729C9.98097 11.9412 9.96388 11.9121 9.94157 11.8872C9.91926 11.8623 9.89218 11.8421 9.86193 11.8279C9.83168 11.8136 9.79888 11.8056 9.76547 11.8042C9.73206 11.8029 9.69872 11.8082 9.66742 11.82C9.63612 11.8318 9.6075 11.8497 9.58325 11.8727C9.5113 11.937 9.42227 11.9792 9.32691 11.994C9.23155 12.0089 9.13392 11.9958 9.04583 11.9564C8.95773 11.917 8.88292 11.8529 8.83043 11.7719C8.77793 11.6909 8.75 11.5965 8.75 11.5V11C8.75 10.8674 8.80268 10.7402 8.89645 10.6464C8.99021 10.5526 9.11739 10.5 9.25 10.5Z" fill="#666666"/>
</svg>
