<svg width="10" height="10" viewBox="0 0 10 10" fill="none" xmlns="http://www.w3.org/2000/svg">
<g clip-path="url(#clip0_668_3041)">
<path d="M8.90625 1.25H8.125V0.9375C8.125 0.77174 8.05915 0.612769 7.94194 0.495558C7.82473 0.378348 7.66576 0.3125 7.5 0.3125C7.33424 0.3125 7.17527 0.378348 7.05806 0.495558C6.94085 0.612769 6.875 0.77174 6.875 0.9375V1.25H5.625V0.9375C5.625 0.77174 5.55915 0.612769 5.44194 0.495558C5.32473 0.378348 5.16576 0.3125 5 0.3125C4.83424 0.3125 4.67527 0.378348 4.55806 0.495558C4.44085 0.612769 4.375 0.77174 4.375 0.9375V1.25H3.125V0.9375C3.125 0.77174 3.05915 0.612769 2.94194 0.495558C2.82473 0.378348 2.66576 0.3125 2.5 0.3125C2.33424 0.3125 2.17527 0.378348 2.05806 0.495558C1.94085 0.612769 1.875 0.77174 1.875 0.9375V1.25H1.09375C0.88655 1.25 0.687836 1.33231 0.541323 1.47882C0.39481 1.62534 0.3125 1.82405 0.3125 2.03125V8.28125C0.3125 8.48845 0.39481 8.68716 0.541323 8.83368C0.687836 8.98019 0.88655 9.0625 1.09375 9.0625H5.46875C5.51019 9.0625 5.54993 9.04604 5.57924 9.01674C5.60854 8.98743 5.625 8.94769 5.625 8.90625C5.625 8.86481 5.60854 8.82507 5.57924 8.79576C5.54993 8.76646 5.51019 8.75 5.46875 8.75H1.09375C0.969544 8.74963 0.850531 8.70012 0.762703 8.6123C0.674876 8.52447 0.625371 8.40546 0.625 8.28125V3.4375H9.375V6.09375C9.375 6.13519 9.39146 6.17493 9.42076 6.20424C9.45007 6.23354 9.48981 6.25 9.53125 6.25C9.57269 6.25 9.61243 6.23354 9.64174 6.20424C9.67104 6.17493 9.6875 6.13519 9.6875 6.09375V2.03125C9.6875 1.82405 9.60519 1.62534 9.45868 1.47882C9.31216 1.33231 9.11345 1.25 8.90625 1.25ZM7.1875 0.9375C7.1875 0.85462 7.22042 0.775134 7.27903 0.716529C7.33763 0.657924 7.41712 0.625 7.5 0.625C7.58288 0.625 7.66237 0.657924 7.72097 0.716529C7.77958 0.775134 7.8125 0.85462 7.8125 0.9375V1.875C7.8125 1.95788 7.77958 2.03737 7.72097 2.09597C7.66237 2.15458 7.58288 2.1875 7.5 2.1875C7.41712 2.1875 7.33763 2.15458 7.27903 2.09597C7.22042 2.03737 7.1875 1.95788 7.1875 1.875V0.9375ZM4.6875 0.9375C4.6875 0.85462 4.72042 0.775134 4.77903 0.716529C4.83763 0.657924 4.91712 0.625 5 0.625C5.08288 0.625 5.16237 0.657924 5.22097 0.716529C5.27958 0.775134 5.3125 0.85462 5.3125 0.9375V1.875C5.3125 1.95788 5.27958 2.03737 5.22097 2.09597C5.16237 2.15458 5.08288 2.1875 5 2.1875C4.91712 2.1875 4.83763 2.15458 4.77903 2.09597C4.72042 2.03737 4.6875 1.95788 4.6875 1.875V0.9375ZM2.1875 0.9375C2.1875 0.85462 2.22042 0.775134 2.27903 0.716529C2.33763 0.657924 2.41712 0.625 2.5 0.625C2.58288 0.625 2.66237 0.657924 2.72097 0.716529C2.77958 0.775134 2.8125 0.85462 2.8125 0.9375V1.875C2.8125 1.95788 2.77958 2.03737 2.72097 2.09597C2.66237 2.15458 2.58288 2.1875 2.5 2.1875C2.41712 2.1875 2.33763 2.15458 2.27903 2.09597C2.22042 2.03737 2.1875 1.95788 2.1875 1.875V0.9375ZM9.375 3.125H0.625V2.03125C0.625371 1.90704 0.674876 1.78803 0.762703 1.7002C0.850531 1.61238 0.969544 1.56287 1.09375 1.5625H1.875V1.875C1.875 2.04076 1.94085 2.19973 2.05806 2.31694C2.17527 2.43415 2.33424 2.5 2.5 2.5C2.66576 2.5 2.82473 2.43415 2.94194 2.31694C3.05915 2.19973 3.125 2.04076 3.125 1.875V1.5625H4.375V1.875C4.375 2.04076 4.44085 2.19973 4.55806 2.31694C4.67527 2.43415 4.83424 2.5 5 2.5C5.16576 2.5 5.32473 2.43415 5.44194 2.31694C5.55915 2.19973 5.625 2.04076 5.625 1.875V1.5625H6.875V1.875C6.875 2.04076 6.94085 2.19973 7.05806 2.31694C7.17527 2.43415 7.33424 2.5 7.5 2.5C7.66576 2.5 7.82473 2.43415 7.94194 2.31694C8.05915 2.19973 8.125 2.04076 8.125 1.875V1.5625H8.90625C9.03046 1.56287 9.14947 1.61238 9.2373 1.7002C9.32512 1.78803 9.37463 1.90704 9.375 2.03125V3.125Z" fill="#0E3958"/>
<path d="M4.6875 4.53125C4.6875 4.44837 4.65458 4.36888 4.59597 4.31028C4.53737 4.25167 4.45788 4.21875 4.375 4.21875H3.75C3.66712 4.21875 3.58763 4.25167 3.52903 4.31028C3.47042 4.36888 3.4375 4.44837 3.4375 4.53125V5C3.4375 5.08288 3.47042 5.16237 3.52903 5.22097C3.58763 5.27958 3.66712 5.3125 3.75 5.3125H4.375C4.45788 5.3125 4.53737 5.27958 4.59597 5.22097C4.65458 5.16237 4.6875 5.08288 4.6875 5V4.53125ZM3.75 5V4.53125H4.375V5H3.75Z" fill="#0E3958"/>
<path d="M2.8125 4.53125C2.8125 4.44837 2.77958 4.36888 2.72097 4.31028C2.66237 4.25167 2.58288 4.21875 2.5 4.21875H1.875C1.79212 4.21875 1.71263 4.25167 1.65403 4.31028C1.59542 4.36888 1.5625 4.44837 1.5625 4.53125V5C1.5625 5.08288 1.59542 5.16237 1.65403 5.22097C1.71263 5.27958 1.79212 5.3125 1.875 5.3125H2.5C2.58288 5.3125 2.66237 5.27958 2.72097 5.22097C2.77958 5.16237 2.8125 5.08288 2.8125 5V4.53125ZM1.875 5V4.53125H2.5V5H1.875Z" fill="#0E3958"/>
<path d="M8.125 5.3125C8.20788 5.3125 8.28737 5.27958 8.34597 5.22097C8.40458 5.16237 8.4375 5.08288 8.4375 5V4.53125C8.4375 4.44837 8.40458 4.36888 8.34597 4.31028C8.28737 4.25167 8.20788 4.21875 8.125 4.21875H7.5C7.41712 4.21875 7.33763 4.25167 7.27903 4.31028C7.22042 4.36888 7.1875 4.44837 7.1875 4.53125V5C7.1875 5.08288 7.22042 5.16237 7.27903 5.22097C7.33763 5.27958 7.41712 5.3125 7.5 5.3125H8.125ZM7.5 4.53125H8.125V5H7.5V4.53125Z" fill="#0E3958"/>
<path d="M4.6875 5.9375C4.6875 5.85462 4.65458 5.77513 4.59597 5.71653C4.53737 5.65792 4.45788 5.625 4.375 5.625H3.75C3.66712 5.625 3.58763 5.65792 3.52903 5.71653C3.47042 5.77513 3.4375 5.85462 3.4375 5.9375V6.40625C3.4375 6.48913 3.47042 6.56862 3.52903 6.62722C3.58763 6.68583 3.66712 6.71875 3.75 6.71875H4.375C4.45788 6.71875 4.53737 6.68583 4.59597 6.62722C4.65458 6.56862 4.6875 6.48913 4.6875 6.40625V5.9375ZM3.75 6.40625V5.9375H4.375V6.40625H3.75Z" fill="#0E3958"/>
<path d="M2.8125 5.9375C2.8125 5.85462 2.77958 5.77513 2.72097 5.71653C2.66237 5.65792 2.58288 5.625 2.5 5.625H1.875C1.79212 5.625 1.71263 5.65792 1.65403 5.71653C1.59542 5.77513 1.5625 5.85462 1.5625 5.9375V6.40625C1.5625 6.48913 1.59542 6.56862 1.65403 6.62722C1.71263 6.68583 1.79212 6.71875 1.875 6.71875H2.5C2.58288 6.71875 2.66237 6.68583 2.72097 6.62722C2.77958 6.56862 2.8125 6.48913 2.8125 6.40625V5.9375ZM1.875 6.40625V5.9375H2.5V6.40625H1.875Z" fill="#0E3958"/>
<path d="M4.375 7.03125H3.75C3.66712 7.03125 3.58763 7.06417 3.52903 7.12278C3.47042 7.18138 3.4375 7.26087 3.4375 7.34375V7.8125C3.4375 7.89538 3.47042 7.97487 3.52903 8.03347C3.58763 8.09208 3.66712 8.125 3.75 8.125H4.375C4.45788 8.125 4.53737 8.09208 4.59597 8.03347C4.65458 7.97487 4.6875 7.89538 4.6875 7.8125V7.34375C4.6875 7.26087 4.65458 7.18138 4.59597 7.12278C4.53737 7.06417 4.45788 7.03125 4.375 7.03125ZM3.75 7.8125V7.34375H4.375V7.8125H3.75Z" fill="#0E3958"/>
<path d="M5.625 5.3125H6.25C6.33288 5.3125 6.41237 5.27958 6.47097 5.22097C6.52958 5.16237 6.5625 5.08288 6.5625 5V4.53125C6.5625 4.44837 6.52958 4.36888 6.47097 4.31028C6.41237 4.25167 6.33288 4.21875 6.25 4.21875H5.625C5.54212 4.21875 5.46263 4.25167 5.40403 4.31028C5.34542 4.36888 5.3125 4.44837 5.3125 4.53125V5C5.3125 5.08288 5.34542 5.16237 5.40403 5.22097C5.46263 5.27958 5.54212 5.3125 5.625 5.3125ZM5.625 4.53125H6.25V5H5.625V4.53125Z" fill="#0E3958"/>
<path d="M5.3125 6.40625C5.3125 6.48913 5.34542 6.56862 5.40403 6.62722C5.46263 6.68583 5.54212 6.71875 5.625 6.71875C5.66644 6.71875 5.70618 6.70229 5.73549 6.67299C5.76479 6.64368 5.78125 6.60394 5.78125 6.5625C5.78125 6.52106 5.76479 6.48132 5.73549 6.45201C5.70618 6.42271 5.66644 6.40625 5.625 6.40625V5.9375H6.25C6.29144 5.9375 6.33118 5.92104 6.36049 5.89174C6.38979 5.86243 6.40625 5.82269 6.40625 5.78125C6.40625 5.73981 6.38979 5.70007 6.36049 5.67076C6.33118 5.64146 6.29144 5.625 6.25 5.625H5.625C5.54212 5.625 5.46263 5.65792 5.40403 5.71653C5.34542 5.77513 5.3125 5.85462 5.3125 5.9375V6.40625Z" fill="#0E3958"/>
<path d="M2.5 7.03125H1.875C1.79212 7.03125 1.71263 7.06417 1.65403 7.12278C1.59542 7.18138 1.5625 7.26087 1.5625 7.34375V7.8125C1.5625 7.89538 1.59542 7.97487 1.65403 8.03347C1.71263 8.09208 1.79212 8.125 1.875 8.125H2.5C2.58288 8.125 2.66237 8.09208 2.72097 8.03347C2.77958 7.97487 2.8125 7.89538 2.8125 7.8125V7.34375C2.8125 7.26087 2.77958 7.18138 2.72097 7.12278C2.66237 7.06417 2.58288 7.03125 2.5 7.03125ZM1.875 7.8125V7.34375H2.5V7.8125H1.875Z" fill="#0E3958"/>
<path d="M7.65625 5.625C7.25451 5.625 6.86179 5.74413 6.52775 5.96733C6.19371 6.19052 5.93336 6.50776 5.77962 6.87892C5.62588 7.25009 5.58565 7.6585 5.66403 8.05253C5.74241 8.44655 5.93587 8.80849 6.21994 9.09256C6.50402 9.37664 6.86595 9.57009 7.25997 9.64847C7.654 9.72685 8.06241 9.68662 8.43358 9.53288C8.80474 9.37914 9.12198 9.11879 9.34517 8.78475C9.56837 8.45071 9.6875 8.05799 9.6875 7.65625C9.68688 7.11772 9.47268 6.60142 9.09188 6.22062C8.71108 5.83983 8.19478 5.62562 7.65625 5.625ZM7.65625 9.375C7.31631 9.375 6.98401 9.2742 6.70136 9.08534C6.41872 8.89648 6.19842 8.62805 6.06833 8.31399C5.93825 7.99993 5.90421 7.65434 5.97053 7.32094C6.03684 6.98753 6.20054 6.68128 6.44091 6.44091C6.68128 6.20054 6.98753 6.03684 7.32094 5.97053C7.65434 5.90421 7.99993 5.93824 8.31399 6.06833C8.62805 6.19842 8.89648 6.41872 9.08534 6.70136C9.2742 6.98401 9.375 7.31631 9.375 7.65625C9.37446 8.11193 9.19321 8.54878 8.871 8.871C8.54879 9.19321 8.11193 9.37446 7.65625 9.375Z" fill="#0E3958"/>
<path d="M8.5598 7.00138L7.34449 8.21669L6.79214 7.66419C6.76267 7.63573 6.7232 7.61998 6.68224 7.62034C6.64127 7.62069 6.60208 7.63713 6.57311 7.6661C6.54414 7.69507 6.52771 7.73426 6.52735 7.77522C6.52699 7.81619 6.54274 7.85566 6.5712 7.88513L7.23402 8.5481C7.26332 8.57739 7.30305 8.59385 7.34449 8.59385C7.38592 8.59385 7.42565 8.57739 7.45496 8.5481L8.78074 7.22232C8.8092 7.19285 8.82495 7.15338 8.82459 7.11241C8.82424 7.07144 8.8078 7.03225 8.77883 7.00328C8.74986 6.97431 8.71067 6.95788 8.66971 6.95753C8.62874 6.95717 8.58927 6.97292 8.5598 7.00138Z" fill="#0E3958"/>
</g>
<defs>
<clipPath id="clip0_668_3041">
<rect width="10" height="10" fill="white"/>
</clipPath>
</defs>
</svg>
