<svg width="24" height="24" viewBox="0 0 24 24" fill="none" xmlns="http://www.w3.org/2000/svg">
<path fill-rule="evenodd" clip-rule="evenodd" d="M10.3094 2.25002H13.6908C13.9072 2.24988 14.0957 2.24976 14.2737 2.27819C14.977 2.3905 15.5856 2.82915 15.9146 3.46084C15.9978 3.62073 16.0573 3.79961 16.1256 4.00494L16.2373 4.33984C16.2562 4.39653 16.2616 4.41258 16.2661 4.42522C16.4413 4.90934 16.8953 5.2366 17.4099 5.24964C17.4235 5.24998 17.44 5.25004 17.5001 5.25004H20.5001C20.9143 5.25004 21.2501 5.58583 21.2501 6.00004C21.2501 6.41425 20.9143 6.75004 20.5001 6.75004H3.5C3.08579 6.75004 2.75 6.41425 2.75 6.00004C2.75 5.58583 3.08579 5.25004 3.5 5.25004H6.50008C6.56013 5.25004 6.5767 5.24998 6.59023 5.24964C7.10488 5.2366 7.55891 4.90936 7.73402 4.42524C7.73863 4.41252 7.74392 4.39681 7.76291 4.33984L7.87452 4.00497C7.94281 3.79965 8.00233 3.62073 8.08559 3.46084C8.41453 2.82915 9.02313 2.3905 9.72643 2.27819C9.90445 2.24976 10.093 2.24988 10.3094 2.25002ZM9.00815 5.25004C9.05966 5.14902 9.10531 5.04404 9.14458 4.93548C9.1565 4.90252 9.1682 4.86742 9.18322 4.82234L9.28302 4.52293C9.37419 4.24942 9.39519 4.19363 9.41601 4.15364C9.52566 3.94308 9.72853 3.79686 9.96296 3.75942C10.0075 3.75231 10.067 3.75004 10.3553 3.75004H13.6448C13.9331 3.75004 13.9927 3.75231 14.0372 3.75942C14.2716 3.79686 14.4745 3.94308 14.5842 4.15364C14.605 4.19363 14.626 4.24941 14.7171 4.52293L14.8169 4.82216L14.8556 4.9355C14.8949 5.04406 14.9405 5.14902 14.992 5.25004H9.00815Z" fill="#666666"/>
<path d="M5.91439 8.45014C5.88684 8.03684 5.52945 7.72414 5.11615 7.75169C4.70286 7.77924 4.39015 8.13662 4.4177 8.54992L4.88115 15.5016C4.96665 16.7844 5.03572 17.8205 5.19769 18.6336C5.36609 19.4789 5.65251 20.185 6.2441 20.7384C6.8357 21.2919 7.55925 21.5307 8.4139 21.6425C9.23592 21.75 10.2743 21.75 11.5599 21.75H12.4388C13.7244 21.75 14.7628 21.75 15.5849 21.6425C16.4395 21.5307 17.1631 21.2919 17.7547 20.7384C18.3463 20.185 18.6327 19.4789 18.8011 18.6336C18.9631 17.8205 19.0321 16.7844 19.1176 15.5016L19.5811 8.54992C19.6086 8.13662 19.2959 7.77924 18.8826 7.75169C18.4693 7.72414 18.1119 8.03684 18.0844 8.45014L17.6244 15.3492C17.5346 16.6971 17.4706 17.6349 17.33 18.3405C17.1936 19.025 17.0033 19.3873 16.7299 19.6431C16.4565 19.8988 16.0823 20.0647 15.3903 20.1552C14.6769 20.2485 13.7369 20.25 12.3861 20.25H11.6127C10.2619 20.25 9.32185 20.2485 8.60845 20.1552C7.91645 20.0647 7.54228 19.8988 7.26887 19.6431C6.99546 19.3873 6.80512 19.025 6.66877 18.3405C6.52821 17.6349 6.46418 16.6971 6.37433 15.3492L5.91439 8.45014Z" fill="#666666"/>
<path d="M9.42543 10.2538C9.83759 10.2126 10.2052 10.5133 10.2464 10.9255L10.7464 15.9255C10.7876 16.3376 10.4869 16.7052 10.0747 16.7464C9.66253 16.7876 9.295 16.4869 9.25378 16.0747L8.75378 11.0747C8.71257 10.6626 9.01328 10.295 9.42543 10.2538Z" fill="#666666"/>
<path d="M14.5747 10.2538C14.9869 10.295 15.2876 10.6626 15.2464 11.0747L14.7464 16.0747C14.7052 16.4869 14.3376 16.7876 13.9255 16.7464C13.5133 16.7052 13.2126 16.3376 13.2538 15.9255L13.7538 10.9255C13.795 10.5133 14.1626 10.2126 14.5747 10.2538Z" fill="#666666"/>
</svg>
