<svg width="16" height="16" viewBox="0 0 16 16" fill="none" xmlns="http://www.w3.org/2000/svg">
<g clip-path="url(#clip0_3261_11150)">
<path d="M4.94531 1.21289C6.3537 0.558975 8.02939 1.16789 8.68359 2.5791C9.32008 3.95228 8.75519 5.56968 7.42676 6.25879C8.1421 6.46659 8.81126 6.84596 9.40723 7.38965H9.40625C9.41352 7.39541 9.42082 7.40255 9.42773 7.40918H9.83789V7.26465C9.84081 6.83568 10.1854 6.4873 10.6152 6.4873H12.1729C12.6023 6.4873 12.95 6.83526 12.9502 7.26465V7.40918H14.1992C14.6695 7.41208 15.0498 7.79238 15.0527 8.2627V9.15723C15.0527 9.53039 14.8085 9.85493 14.457 9.96582V13.9531C14.4542 14.5599 13.9648 15.0496 13.3604 15.0498H9.48535C8.87818 15.0497 8.38881 14.5574 8.38867 13.9531V13.4033C5.77863 14.3938 2.82491 13.5607 1.11719 11.3447C0.971331 11.1577 0.919358 10.9127 0.974609 10.6797C1.28021 9.3857 1.94685 8.21729 2.85449 7.38965C3.4498 6.84657 4.11759 6.46675 4.83203 6.25879C4.28147 5.97162 3.84126 5.51391 3.57812 4.95117C2.92396 3.54263 3.53674 1.86707 4.94531 1.21289ZM8.89844 13.9531C8.89858 14.2752 9.16033 14.5369 9.48242 14.5371H13.3574C13.6796 14.537 13.9413 14.2753 13.9414 13.9531V10.0078H8.89844V13.9531ZM6.13086 6.58203C4.04739 6.58203 2.18066 8.2043 1.53027 10.5674L1.4707 10.7979C1.45214 10.882 1.47142 10.9678 1.52246 11.0352C2.61758 12.4718 4.32279 13.3121 6.13086 13.3066C6.90625 13.3066 7.6708 13.1532 8.38867 12.8525V9.97949C8.00929 9.88621 7.7373 9.55 7.7373 9.1543V8.25977C7.73756 7.78943 8.11847 7.40918 8.58887 7.40918H8.60938C7.87394 6.88217 7.02472 6.58207 6.13086 6.58203ZM10.5615 7.00391C10.4391 7.03 10.3478 7.1364 10.3477 7.26465V7.92188H8.5918C8.4035 7.92188 8.25015 8.07444 8.25 8.2627V9.15723C8.25007 9.29316 8.33214 9.4165 8.45801 9.46875C8.49864 9.48541 8.54392 9.49512 8.58887 9.49512H14.2012C14.2606 9.4974 14.322 9.47929 14.3779 9.44531L14.4453 9.39062C14.5041 9.32833 14.5371 9.24486 14.5371 9.15723L14.54 8.2627C14.5399 8.07444 14.3875 7.92188 14.1992 7.92188H12.4404V7.26465C12.4402 7.11743 12.3201 6.99805 12.1729 6.99805H10.6152L10.5615 7.00391ZM6.13086 1.46387C4.85972 1.46387 3.8291 2.49449 3.8291 3.76562C3.82933 5.03377 4.85973 6.06373 6.13086 6.06641C7.40177 6.06631 8.43141 5.0365 8.43164 3.76562C8.43164 2.49455 7.40191 1.46396 6.13086 1.46387Z" fill="#FF000D" stroke="#FF000D" stroke-width="0.1"/>
<path d="M10.1729 10.6823C10.3179 10.6825 10.4326 10.8005 10.4326 10.9401V13.6012C10.4292 13.7461 10.3086 13.8603 10.1631 13.8541V13.8551C10.0179 13.8517 9.90259 13.7304 9.90918 13.5846V10.943C9.90918 10.8001 10.0281 10.6823 10.1729 10.6823Z" fill="#FF000D" stroke="#FF000D" stroke-width="0.1"/>
<path d="M11.6836 13.5858C11.6836 13.7309 11.5659 13.8493 11.4209 13.8495C11.2764 13.8495 11.1568 13.7343 11.1602 13.5849V10.9403C11.1668 10.8036 11.2743 10.6908 11.4141 10.6874C11.5559 10.6841 11.6769 10.7956 11.6836 10.9403V13.5858Z" fill="#FF000D" stroke="#FF000D" stroke-width="0.1"/>
<path d="M12.9346 13.5858C12.9346 13.7309 12.8169 13.8493 12.6719 13.8495C12.5273 13.8495 12.4077 13.7343 12.4111 13.5849V10.9403C12.4178 10.8036 12.5252 10.6908 12.665 10.6874C12.8069 10.6841 12.9278 10.7956 12.9346 10.9403V13.5858Z" fill="#FF000D" stroke="#FF000D" stroke-width="0.1"/>
</g>
<defs>
<clipPath id="clip0_3261_11150">
<rect width="16" height="16" fill="white"/>
</clipPath>
</defs>
</svg>
