<svg width="251" height="249" viewBox="0 0 251 249" fill="none" xmlns="http://www.w3.org/2000/svg">
<path d="M246.848 105.11C240.667 64.6521 215.325 14.9473 165.259 9.74559C165.259 9.74559 127.247 5.12195 89.7749 12.1296C67.5353 16.2886 48.0344 28.669 35.6951 46.4628C23.3555 64.2566 19.2338 85.9536 24.2361 106.639C27.4851 120.075 29.6806 133.98 29.078 147.785C28.0294 171.813 28.6326 194.241 51.9508 208.57C72.7712 221.365 98.974 232.649 123.972 234.625C140.96 235.968 160.011 233.795 176.385 229.372C259.828 206.831 253.029 145.567 246.848 105.11Z" fill="#F4EBD7"/>
<path d="M132.773 191.529C125.683 193.492 120.164 185.323 124.631 179.479C126.018 177.664 127.334 175.708 128.547 173.601C137.551 157.946 132.897 147.668 141.006 119.33C146.134 101.411 149.892 88.9582 160.72 84.5644C169.205 81.1213 181.016 83.0396 186.763 89.7308C191.541 95.2944 192.686 104.809 192.127 111.247C191.671 116.493 190.059 119.973 192.278 123.369C194.545 126.84 198.139 126.129 200.395 128.848C204.969 134.362 198.25 147.001 197.164 149.044C185.083 171.768 158.558 182.368 146.932 186.852C143.014 188.364 138.277 190.005 132.773 191.529Z" fill="#C19632"/>
<mask id="mask0_3261_11644" style="mask-type:luminance" maskUnits="userSpaceOnUse" x="121" y="82" width="81" height="111">
<path d="M130.492 192.142C124.019 193.828 119.121 186.225 123.374 181.062C125.224 178.816 126.973 176.336 128.546 173.601C137.55 157.946 132.897 147.669 141.006 119.33C146.133 101.412 149.892 88.9585 160.72 84.5647C169.205 81.1216 181.015 83.04 186.762 89.7312C191.54 95.2948 192.686 104.81 192.126 111.247C191.671 116.494 190.058 119.974 192.277 123.37C194.545 126.84 198.139 126.13 200.394 128.848C204.968 134.362 198.249 147.001 197.163 149.044C185.083 171.768 158.557 182.368 146.931 186.853C142.483 188.569 136.977 190.453 130.492 192.142Z" fill="white"/>
</mask>
<g mask="url(#mask0_3261_11644)">
<g opacity="0.5">
<path d="M96.1077 199.442L96.0391 198.83C107.403 197.558 117.516 195.158 126.097 191.697C138.743 186.595 147.673 179.31 152.637 170.043C156.526 162.784 157.917 154.58 159.843 143.226C161.381 134.162 161.654 127.598 161.894 121.807C162.208 114.233 162.457 108.25 165.416 100.235C168.419 92.1022 173.307 84.5073 179.946 77.6608L180.388 78.0897C173.81 84.8742 168.967 92.3967 165.994 100.448C163.068 108.372 162.822 114.312 162.51 121.833C162.268 127.642 161.995 134.227 160.451 143.33C158.588 154.312 157.116 162.986 153.18 170.334C148.146 179.731 139.111 187.111 126.327 192.268C117.695 195.75 107.527 198.164 96.1077 199.442Z" fill="white"/>
<path d="M161.217 136.97L160.943 136.756C160.89 136.715 155.647 132.572 151.301 124.97C147.289 117.953 143.233 106.463 146.688 91.5735L147.288 91.7129C143.878 106.408 147.879 117.743 151.836 124.664C155.562 131.181 159.937 135.106 161.053 136.049C170.034 121.255 181.237 113.407 189.078 109.424C197.642 105.073 204.174 104.261 204.239 104.253L204.311 104.865C204.247 104.872 197.803 105.678 189.331 109.986C181.516 113.961 170.325 121.817 161.396 136.672L161.217 136.97Z" fill="white"/>
<path d="M156.321 161.328L156.244 161.118C156.208 161.018 152.557 151.013 146.934 141.7C141.347 132.448 124.49 125.394 124.32 125.324L124.556 124.755C124.727 124.826 141.769 131.955 147.461 141.382C152.662 149.994 156.184 159.194 156.745 160.696C176.56 159.751 207.206 121.819 207.515 121.434L207.995 121.82C207.918 121.917 200.104 131.623 189.923 141.287C176.22 154.295 164.99 161.035 156.544 161.321L156.321 161.328Z" fill="white"/>
<path d="M141.559 191.478C134.694 191.478 130.306 190.906 130.243 190.897L129.635 190.816L130.064 190.377C136.851 183.432 138.367 174.696 134.569 164.41C131.726 156.71 126.811 150.999 126.762 150.942L127.227 150.538C127.277 150.596 132.266 156.392 135.147 164.196C138.899 174.357 137.44 183.388 130.934 190.357C133.163 190.598 141.303 191.322 151.946 190.427C163.461 189.458 180.343 186.34 195.379 176.99L224.597 158.82L224.922 159.343L195.704 177.513C180.559 186.931 163.568 190.069 151.982 191.042C148.129 191.366 144.601 191.478 141.559 191.478Z" fill="white"/>
</g>
</g>
<path d="M118.379 192.249C128.222 198.016 141.585 203.957 156.799 205.458C160.681 205.841 184.666 208.207 187.416 198.248C188.384 194.74 185.9 192.665 187.113 187.951C188.551 182.367 192.959 181.705 198.513 176.915C201.827 174.056 211.525 165.691 208.594 156.272C206.843 150.644 200.661 144.894 194.506 143.032C185.477 140.3 178.274 146.468 166.268 157.115C155.624 166.553 154.972 170 147.189 176.663C141.413 181.607 132.35 187.774 118.379 192.249Z" fill="#D3E9F8"/>
<mask id="mask1_3261_11644" style="mask-type:luminance" maskUnits="userSpaceOnUse" x="118" y="142" width="92" height="64">
<path d="M118.379 192.249C128.222 198.015 141.585 203.956 156.799 205.457C160.681 205.841 184.666 208.207 187.416 198.248C188.384 194.739 185.9 192.664 187.113 187.951C188.551 182.366 192.959 181.705 198.513 176.914C201.827 174.056 211.525 165.691 208.594 156.272C206.843 150.644 200.661 144.894 194.506 143.032C185.477 140.3 178.274 146.468 166.268 157.114C155.624 166.552 154.972 170 147.189 176.662C141.413 181.607 132.35 187.774 118.379 192.249Z" fill="white"/>
</mask>
<g mask="url(#mask1_3261_11644)">
<g opacity="0.5">
<path d="M123.437 192.382C117.283 192.382 111.251 191.517 105.363 189.783C93.9478 186.421 83.4838 180.06 74.2617 170.875L74.6964 170.439C83.845 179.55 94.2214 185.859 105.537 189.192C120.611 193.631 136.66 192.323 153.242 185.305C170.517 177.994 184.04 166.318 192.343 157.811C198.085 151.927 202.151 144.09 204.428 134.517L205.028 134.659C202.724 144.343 198.605 152.277 192.784 158.241C184.442 166.789 170.851 178.521 153.482 185.873C143.235 190.209 133.184 192.382 123.437 192.382Z" fill="white"/>
<path d="M174.157 173.967L174.114 173.694C174.082 173.492 171.067 153.403 183.828 140.527L184.266 140.961C172.534 152.798 174.374 170.883 174.685 173.323C203.409 171.76 212.157 156.106 214.159 151.333C214.215 151.199 214.252 151.116 214.269 151.088L214.799 151.401L214.534 151.245L214.803 151.395C214.789 151.422 214.764 151.482 214.727 151.571C212.684 156.444 203.74 172.459 174.434 173.953L174.157 173.967Z" fill="white"/>
<path d="M182.084 197.111C182.05 197.111 182.017 197.111 181.982 197.111C175.524 197.091 165.333 195.097 153.459 185.708L153.33 185.606L153.343 185.441C153.356 185.288 154.703 169.888 165.46 154.102L176.295 138.201L176.804 138.548L165.969 154.449C155.901 169.224 154.147 183.644 153.973 185.328C160.456 190.429 170.538 196.46 181.984 196.495C182.016 196.495 182.049 196.495 182.082 196.495C188.892 196.495 192.99 194.337 193.031 194.315L193.323 194.858C193.15 194.95 189.044 197.111 182.084 197.111Z" fill="white"/>
</g>
</g>
<path d="M193.285 63.7621C194.33 64.2924 195.642 63.8055 196.216 62.6747C196.79 61.544 196.409 60.1974 195.364 59.6671C195.31 59.6396 195.255 59.6165 195.2 59.5945C195.394 58.9688 195.54 58.3382 195.638 57.7074C195.698 57.7072 195.758 57.7062 195.819 57.7007C197.011 57.5945 197.956 56.4997 197.931 55.2552C197.906 54.0108 196.92 53.0881 195.729 53.1943C195.666 53.1998 195.605 53.2097 195.544 53.2205C195.42 52.6038 195.249 52.0014 195.034 51.4183C195.089 51.3863 195.144 51.3531 195.197 51.3158C196.216 50.6016 196.542 49.1921 195.925 48.1675C195.307 47.1429 193.981 46.8913 192.961 47.6054C192.909 47.642 192.86 47.6816 192.811 47.7217C192.409 47.2766 191.967 46.8641 191.489 46.4877C191.523 46.4326 191.556 46.3768 191.586 46.3182C192.16 45.1874 192.91 43.9522 191.857 43.4384C189.423 42.2498 188.378 43.2673 187.804 44.3981C187.774 44.4567 187.748 44.5161 187.724 44.5757C187.138 44.4121 186.544 44.299 185.947 44.2366C185.951 44.1737 185.954 44.1108 185.953 44.047C185.928 42.8026 186.297 42.1292 185.101 42.1059C182.493 42.0552 181.613 43.1872 181.638 44.4315C181.639 44.4966 181.645 44.5602 181.651 44.6234C181.053 44.7937 180.467 45.0116 179.895 45.275C179.868 45.2195 179.84 45.1644 179.808 45.1108C179.19 44.0862 177.863 43.8346 176.844 44.5488C175.825 45.263 175.499 46.6725 176.116 47.697C176.148 47.7495 176.182 47.7986 176.218 47.847C175.766 48.2984 175.343 48.7887 174.953 49.3146C174.902 49.283 174.851 49.2519 174.797 49.2245C173.753 48.6943 172.44 49.1811 171.866 50.312C171.292 51.4428 171.673 52.7893 172.718 53.3196C172.772 53.3471 172.827 53.3702 172.882 53.3923C172.688 54.018 172.542 54.6486 172.444 55.2794C172.384 55.2796 172.324 55.2806 172.263 55.286C171.072 55.3923 170.126 56.4871 170.151 57.7316C170.176 58.9761 171.162 59.8987 172.353 59.7924C172.416 59.7869 172.477 59.777 172.538 59.7662C172.662 60.3829 172.833 60.9853 173.048 61.5683C172.993 61.6005 172.938 61.6336 172.885 61.6709C171.866 62.3851 171.54 63.7946 172.157 64.8192C172.775 65.8438 174.818 66.3198 175.838 65.6056C175.89 65.569 175.222 65.3051 175.271 65.265C175.673 65.7101 176.115 66.1226 176.593 66.499C176.559 66.5541 176.526 66.6099 176.497 66.6685C175.923 67.7992 176.304 69.1458 177.348 69.676C178.392 70.2061 179.704 69.7194 180.279 68.5885C180.308 68.5299 180.334 68.4704 180.359 68.4108C180.944 68.5743 181.538 68.6874 182.135 68.7499C182.131 68.8128 182.128 68.8757 182.13 68.9395C182.155 70.1839 183.141 71.1067 184.332 71.0004C185.524 70.8941 186.469 69.7993 186.444 68.5549C186.443 68.4899 186.438 68.4262 186.431 68.363C187.029 68.1927 187.616 67.9748 188.187 67.7114C188.214 67.7669 188.242 67.8221 188.275 67.8756C188.892 68.9001 190.219 69.1518 191.238 68.4377C192.258 67.7234 192.584 66.3139 191.966 65.2893C191.935 65.2369 191.9 65.1877 191.865 65.1393C192.316 64.6879 192.739 64.1976 193.13 63.6718C193.18 63.7037 193.231 63.7347 193.285 63.7621ZM180.267 63.9273C176.475 62.0021 175.091 57.1132 177.175 53.0075C179.26 48.9019 184.024 47.1342 187.815 49.0594C191.607 50.9846 192.991 55.8735 190.907 59.9791C188.822 64.0848 184.058 65.8525 180.267 63.9273Z" fill="url(#paint0_linear_3261_11644)"/>
<path d="M195.82 57.7007C197.012 57.5945 197.958 56.4996 197.933 55.2552C197.908 54.0108 196.922 53.0881 195.73 53.1943C195.668 53.1998 195.607 53.2096 195.546 53.2205C195.421 52.6038 195.251 52.0013 195.036 51.4183C195.09 51.3863 195.145 51.3531 195.198 51.3158C196.218 50.6016 197.479 48.876 196.76 47.9201C195.395 46.1061 193.982 46.8913 192.963 47.6055C192.91 47.6421 192.861 47.6815 192.813 47.7217C192.41 47.2766 191.968 46.8642 191.491 46.4877C191.524 46.4327 191.557 46.3769 191.587 46.3183C191.899 45.7029 191.927 45.0243 191.721 44.4474C190.736 46.1804 189.765 47.9206 188.811 49.6703C191.836 51.887 192.799 56.2551 190.908 59.9792C189.306 63.1351 186.121 64.9071 183.011 64.685C182.872 65.0448 182.736 65.4066 182.587 65.7628C182.184 66.7298 181.726 67.6768 181.268 68.6226C181.556 68.6769 181.846 68.7197 182.136 68.7501C182.132 68.813 182.129 68.876 182.131 68.9398C182.156 70.1842 182.911 71.2415 185.071 71.1269C186.265 71.0636 186.47 69.7996 186.445 68.5551C186.444 68.4901 186.439 68.4265 186.432 68.3634C187.03 68.193 187.617 67.9752 188.188 67.7117C188.215 67.7673 188.244 67.8224 188.276 67.876C188.893 68.9006 191.035 69.336 192.054 68.6217C193.074 67.9075 192.585 66.3143 191.967 65.2897C191.936 65.2372 191.901 65.1882 191.866 65.1398C192.317 64.6883 192.74 64.1981 193.131 63.6722C193.181 63.7039 193.232 63.7349 193.287 63.7623C194.331 64.2926 195.643 63.8057 196.217 62.6749C196.791 61.5441 196.41 60.1975 195.366 59.6674C195.312 59.6399 195.256 59.6168 195.201 59.5947C195.395 58.969 195.541 58.3384 195.639 57.7076C195.699 57.7072 195.759 57.7062 195.82 57.7007Z" fill="url(#paint1_linear_3261_11644)"/>
<path d="M194.408 63.8899C195.452 64.4202 196.764 63.9332 197.339 62.8025C197.913 61.6717 197.532 60.3251 196.487 59.795C196.433 59.7675 196.378 59.7444 196.323 59.7224C196.517 59.0967 196.663 58.466 196.761 57.8351C196.821 57.835 196.881 57.834 196.942 57.8285C198.133 57.7223 199.079 56.6274 199.054 55.383C199.029 54.1385 198.043 53.2159 196.852 53.3221C196.789 53.3276 196.728 53.3374 196.667 53.3483C196.543 52.7316 196.372 52.1291 196.157 51.5461C196.212 51.5141 196.267 51.4809 196.32 51.4436C197.339 50.7294 197.665 49.3198 197.048 48.2953C196.431 47.2707 195.104 47.019 194.084 47.7333C194.032 47.7699 193.983 47.8094 193.934 47.8495C193.532 47.4044 193.09 46.9919 192.612 46.6154C192.646 46.5604 192.679 46.5045 192.709 46.446C193.283 45.3152 192.902 43.9687 191.857 43.4385C190.813 42.9082 189.501 43.3951 188.927 44.5259C188.897 44.5845 188.871 44.644 188.847 44.7036C188.261 44.54 187.667 44.427 187.07 44.3645C187.074 44.3016 187.077 44.2386 187.076 44.1749C187.051 42.9304 186.065 42.0077 184.873 42.1139C183.682 42.2201 182.736 43.315 182.761 44.5594C182.762 44.6245 182.768 44.688 182.774 44.7512C182.176 44.9216 181.59 45.1394 181.018 45.4029C180.991 45.3474 180.963 45.2922 180.931 45.2386C180.313 44.2141 178.986 43.9625 177.967 44.6766C176.948 45.3909 176.622 46.8004 177.239 47.8249C177.271 47.8774 177.305 47.9265 177.341 47.9749C176.889 48.4263 176.466 48.9165 176.076 49.4424C176.025 49.4107 175.974 49.3798 175.92 49.3523C174.876 48.8221 173.564 49.3089 172.989 50.4398C172.415 51.5706 172.796 52.9171 173.841 53.4474C173.895 53.4748 173.95 53.4979 174.006 53.52C173.812 54.1457 173.665 54.7763 173.567 55.4071C173.507 55.4073 173.447 55.4083 173.386 55.4137C172.195 55.5199 171.249 56.6148 171.274 57.8593C171.299 59.1037 172.285 60.0263 173.476 59.9201C173.539 59.9145 173.6 59.9047 173.661 59.8939C173.785 60.5106 173.956 61.113 174.171 61.696C174.116 61.7281 174.061 61.7612 174.008 61.7986C172.989 62.5127 172.663 63.9223 173.28 64.9469C173.897 65.9715 175.224 66.223 176.244 65.509C176.296 65.4723 176.345 65.4328 176.394 65.3927C176.796 65.8378 177.238 66.2503 177.716 66.6267C177.682 66.6818 177.649 66.7375 177.62 66.7961C177.045 67.9269 177.427 69.2735 178.471 69.8038C179.515 70.334 180.827 69.8471 181.401 68.7163C181.431 68.6578 181.457 68.5983 181.481 68.5387C182.067 68.7023 182.661 68.8153 183.258 68.8777C183.254 68.9406 183.251 69.0036 183.252 69.0674C183.277 70.3118 184.264 71.2345 185.455 71.1282C186.646 71.022 187.592 69.9271 187.567 68.6827C187.566 68.6177 187.56 68.5541 187.554 68.4909C188.152 68.3206 188.739 68.1027 189.31 67.8393C189.337 67.8948 189.365 67.9499 189.397 68.0034C190.015 69.028 191.342 69.2797 192.361 68.5655C193.38 67.8513 193.706 66.4418 193.089 65.4172C193.057 65.3647 193.023 65.3156 192.988 65.2672C193.439 64.8157 193.862 64.3255 194.252 63.7997C194.303 63.8314 194.354 63.8624 194.408 63.8899ZM181.39 64.0551C177.598 62.1299 176.214 57.241 178.298 53.1353C180.383 49.0296 185.147 47.262 188.938 49.1872C192.73 51.1123 194.114 56.0012 192.03 60.1069C189.945 64.2126 185.181 65.9802 181.39 64.0551Z" fill="#C19632"/>
<path d="M165.35 42.4249C167.396 43.4636 169.966 42.5099 171.091 40.2948C172.215 38.0798 171.468 35.442 169.423 34.4034C169.317 34.3495 169.209 34.3044 169.1 34.2611C169.48 33.0354 169.767 31.8001 169.959 30.5643C170.076 30.564 170.194 30.5621 170.313 30.5514C172.647 30.3433 174.5 28.1986 174.451 25.761C174.402 23.3233 172.47 21.5157 170.136 21.7238C170.014 21.7347 169.895 21.754 169.775 21.7752C169.532 20.5672 169.198 19.3871 168.776 18.245C168.884 18.1822 168.99 18.1173 169.095 18.0442C171.092 16.6453 171.73 13.8841 170.521 11.877C169.311 9.86994 166.712 9.377 164.715 10.776C164.613 10.8477 164.517 10.9252 164.422 11.0038C163.633 10.1319 162.768 9.32386 161.832 8.5865C161.898 8.47857 161.962 8.36937 162.02 8.25453C163.145 6.03944 164.615 3.61978 162.553 2.61325C157.784 0.28495 155.737 2.27801 154.612 4.49319C154.554 4.60794 154.504 4.72451 154.455 4.84117C153.308 4.52076 152.145 4.29918 150.976 4.17697C150.983 4.05385 150.989 3.93045 150.986 3.80551C150.937 1.36793 151.661 0.0487168 149.318 0.00321743C144.209 -0.0961532 142.485 2.1214 142.534 4.55889C142.537 4.68629 142.547 4.81086 142.56 4.93462C141.389 5.26831 140.239 5.69501 139.12 6.21106C139.067 6.10232 139.012 5.9943 138.949 5.88929C137.739 3.88222 135.14 3.38937 133.143 4.78839C131.146 6.1874 130.508 8.94849 131.717 10.9556C131.779 11.0584 131.847 11.1546 131.916 11.2494C131.032 12.1338 130.204 13.0941 129.438 14.1242C129.339 14.0622 129.239 14.0015 129.133 13.9477C127.087 12.909 124.517 13.8627 123.393 16.0778C122.268 18.2929 123.015 20.9306 125.06 21.9692C125.166 22.023 125.275 22.0682 125.383 22.1116C125.003 23.3372 124.716 24.5725 124.524 25.8083C124.407 25.8087 124.289 25.8106 124.17 25.8211C121.836 26.0293 119.983 28.174 120.032 30.6118C120.081 33.0494 122.013 34.8568 124.347 34.6488C124.469 34.638 124.589 34.6188 124.708 34.5976C124.951 35.8057 125.285 36.9857 125.707 38.1279C125.6 38.1907 125.493 38.2556 125.388 38.3287C123.392 39.7276 122.753 42.4888 123.963 44.4959C125.172 46.503 129.175 47.4354 131.172 46.0364C131.275 45.9647 129.966 45.4477 130.061 45.3692C130.85 46.2411 131.715 47.049 132.651 47.7865C132.585 47.8943 132.521 48.0036 132.463 48.1185C131.338 50.3335 132.085 52.9712 134.13 54.0099C136.176 55.0486 138.746 54.0948 139.871 51.8798C139.929 51.7651 139.979 51.6485 140.028 51.5317C141.175 51.8521 142.338 52.0737 143.507 52.196C143.5 52.3191 143.494 52.4425 143.497 52.5675C143.546 55.0051 145.477 56.8126 147.811 56.6046C150.145 56.3965 151.998 54.2517 151.949 51.8141C151.946 51.6867 151.936 51.5621 151.923 51.4384C153.094 51.1047 154.244 50.678 155.363 50.1619C155.416 50.2707 155.471 50.3787 155.534 50.4835C156.744 52.4906 159.343 52.9835 161.34 51.5845C163.337 50.1855 163.975 47.4244 162.766 45.4173C162.704 45.3145 162.636 45.2184 162.567 45.1235C163.451 44.2391 164.279 43.2788 165.045 42.2487C165.144 42.3105 165.244 42.3711 165.35 42.4249ZM139.848 42.7484C132.42 38.9773 129.709 29.4005 133.793 21.3579C137.876 13.3152 147.208 9.85265 154.635 13.6238C162.063 17.395 164.774 26.9719 160.691 35.0144C156.607 43.057 147.276 46.5196 139.848 42.7484Z" fill="url(#paint2_linear_3261_11644)"/>
<path d="M170.312 30.5514C172.646 30.3433 174.498 28.1985 174.45 25.7608C174.401 23.3232 172.469 21.5156 170.135 21.7238C170.013 21.7346 169.893 21.754 169.774 21.7751C169.53 20.567 169.196 19.387 168.775 18.2449C168.882 18.1822 168.989 18.1171 169.093 18.044C171.09 16.645 173.56 13.2647 172.152 11.3923C169.478 7.83862 166.711 9.37686 164.714 10.7758C164.612 10.8475 164.515 10.9248 164.42 11.0035C163.631 10.1316 162.767 9.32363 161.831 8.58617C161.896 8.47825 161.961 8.36905 162.019 8.25439C162.631 7.04875 162.685 5.71962 162.281 4.5896C160.352 7.98422 158.45 11.3931 156.581 14.8206C162.506 19.1627 164.393 27.7195 160.689 35.0146C157.55 41.1965 151.311 44.6676 145.219 44.2327C144.948 44.9375 144.681 45.646 144.39 46.3439C143.6 48.2381 142.703 50.0931 141.805 51.9457C142.37 52.0522 142.937 52.1361 143.506 52.1956C143.499 52.3188 143.493 52.4422 143.496 52.5672C143.544 55.0048 145.024 57.076 149.254 56.8516C151.594 56.7274 151.997 54.2514 151.948 51.8138C151.945 51.6864 151.934 51.5618 151.922 51.438C153.093 51.1043 154.242 50.6777 155.361 50.1616C155.415 50.2703 155.47 50.3784 155.533 50.4832C156.742 52.4903 160.938 53.3431 162.935 51.944C164.931 50.5449 163.974 47.4241 162.764 45.4169C162.702 45.3141 162.635 45.218 162.566 45.1231C163.45 44.2388 164.278 43.2785 165.043 42.2483C165.142 42.3105 165.243 42.3711 165.349 42.4248C167.394 43.4635 169.964 42.5098 171.089 40.2947C172.214 38.0797 171.467 35.4419 169.421 34.4033C169.315 34.3495 169.207 34.3042 169.099 34.2609C169.479 33.0353 169.765 31.7999 169.957 30.5643C170.075 30.5639 170.192 30.5619 170.312 30.5514Z" fill="url(#paint3_linear_3261_11644)"/>
<path d="M167.551 42.6751C169.597 43.7137 172.167 42.7601 173.291 40.5449C174.416 38.3298 173.669 35.6921 171.624 34.6535C171.518 34.5997 171.41 34.5544 171.301 34.5112C171.681 33.2856 171.968 32.0502 172.16 30.8144C172.277 30.8141 172.395 30.8121 172.514 30.8015C174.848 30.5935 176.701 28.4487 176.652 26.011C176.603 23.5733 174.671 21.7658 172.337 21.9739C172.215 21.9848 172.096 22.0041 171.976 22.0253C171.733 20.8172 171.399 19.6372 170.977 18.4951C171.085 18.4323 171.191 18.3673 171.296 18.2942C173.292 16.8953 173.931 14.1341 172.722 12.127C171.512 10.1199 168.913 9.62706 166.916 11.026C166.814 11.0977 166.718 11.1751 166.623 11.2537C165.834 10.3818 164.969 9.57382 164.033 8.83646C164.099 8.72854 164.163 8.61924 164.222 8.5045C165.346 6.2894 164.6 3.65162 162.554 2.61305C160.508 1.57439 157.938 2.52806 156.813 4.74315C156.755 4.8579 156.705 4.97447 156.657 5.09122C155.509 4.77082 154.346 4.54924 153.177 4.42702C153.184 4.30381 153.19 4.18051 153.187 4.05557C153.138 1.61798 151.207 -0.189528 148.873 0.0184955C146.539 0.226519 144.686 2.37136 144.735 4.80895C144.738 4.93643 144.748 5.06092 144.761 5.18468C143.59 5.51846 142.441 5.94507 141.321 6.46121C141.268 6.35247 141.213 6.24445 141.15 6.13944C139.941 4.13237 137.341 3.63943 135.344 5.03853C133.348 6.43764 132.709 9.19873 133.919 11.2057C133.98 11.3085 134.048 11.4047 134.117 11.4995C133.233 12.384 132.405 13.3442 131.64 14.3744C131.541 14.3123 131.44 14.2516 131.334 14.1978C129.289 13.1592 126.718 14.1128 125.594 16.3279C124.469 18.543 125.216 21.1807 127.262 22.2194C127.368 22.2732 127.476 22.3184 127.584 22.3617C127.204 23.5874 126.918 24.8227 126.725 26.0584C126.608 26.0588 126.49 26.0607 126.371 26.0713C124.037 26.2795 122.185 28.4241 122.233 30.8619C122.282 33.2996 124.214 35.107 126.548 34.899C126.67 34.8881 126.79 34.8689 126.909 34.8477C127.153 36.0558 127.487 37.2358 127.908 38.3779C127.801 38.4407 127.694 38.5057 127.59 38.5789C125.593 39.9778 124.954 42.739 126.164 44.746C127.373 46.7531 129.972 47.246 131.969 45.847C132.071 45.7752 132.168 45.6979 132.263 45.6193C133.051 46.4911 133.916 47.2992 134.852 48.0366C134.787 48.1444 134.722 48.2537 134.664 48.3684C133.539 50.5835 134.286 53.2212 136.332 54.2599C138.377 55.2985 140.947 54.3449 142.072 52.1297C142.13 52.015 142.181 51.8984 142.229 51.7817C143.376 52.1021 144.539 52.3236 145.709 52.4459C145.701 52.569 145.696 52.6924 145.698 52.8174C145.747 55.255 147.679 57.0625 150.013 56.8545C152.347 56.6465 154.199 54.5017 154.15 52.0641C154.148 51.9367 154.137 51.8121 154.124 51.6884C155.295 51.3547 156.445 50.928 157.564 50.412C157.617 50.5206 157.672 50.6287 157.736 50.7336C158.945 52.7406 161.544 53.2337 163.541 51.8346C165.538 50.4355 166.176 47.6745 164.967 45.6672C164.905 45.5645 164.837 45.4683 164.768 45.3735C165.653 44.4891 166.481 43.5288 167.246 42.4987C167.345 42.5606 167.445 42.6212 167.551 42.6751ZM142.049 42.9987C134.621 39.2275 131.91 29.6507 135.994 21.608C140.077 13.5655 149.409 10.1029 156.836 13.8741C164.264 17.6452 166.975 27.222 162.891 35.2646C158.808 43.3073 149.477 46.7698 142.049 42.9987Z" fill="#C19632"/>
<path d="M248.335 219.579L5.93555 217.484V223.684C5.93555 225.366 6.99277 226.797 8.42464 227.052L76.9679 239.26C77.7814 239.405 78.6063 239.443 79.4271 239.374L245.701 225.455C247.185 225.331 248.335 223.896 248.335 222.167V219.579Z" fill="#666666"/>
<path d="M163.256 100.944V204.656C163.256 205.964 162.779 207.185 162.017 208.091C161.277 208.977 160.258 209.561 159.134 209.646L47.7518 217.861L6.22331 220.934H6.21704L5.93585 220.94L5.0335 220.995C2.27633 221.197 0 219.032 0 216.169V101.441C0 98.5772 2.31064 96.1819 5.06781 96.1819H159.13C161.404 96.1819 163.256 98.3556 163.256 100.944Z" fill="#666666"/>
<path d="M165.721 100.944V204.656C165.721 206.655 164.611 208.439 163.066 209.225C163.043 209.236 163.014 209.248 162.992 209.259C162.844 209.33 162.692 209.396 162.537 209.449C162.503 209.461 162.467 209.474 162.433 209.486C162.405 209.493 162.376 209.502 162.351 209.508C162.239 209.543 162.126 209.568 162.01 209.589C161.873 209.617 161.732 209.636 161.589 209.646L160.808 209.697L49.9516 217.854H49.9455L7.52264 220.981C7.1137 221.013 6.71394 221.009 6.33311 220.937C6.29562 220.931 6.26113 220.934 6.22382 220.934H6.21754C6.12381 220.934 5.99923 220.878 5.9055 220.85C3.92583 220.309 2.46484 218.457 2.46484 216.169V101.441C2.46484 98.5772 4.76875 96.1819 7.52592 96.1819H161.589C163.861 96.1819 165.721 98.3556 165.721 100.944Z" fill="white"/>
<path d="M156.79 202.332L13.2952 212.184C11.0517 212.338 9.22852 210.568 9.22852 208.23V107.786C9.22852 105.448 11.0517 103.545 13.2952 103.536L156.79 102.917C158.664 102.909 160.179 104.629 160.179 106.758V198.244C160.179 200.374 158.664 202.204 156.79 202.332Z" fill="#666666"/>
<path d="M89.9994 99.3943C89.9994 100.46 89.2064 101.327 88.2272 101.33C87.2468 101.333 86.4512 100.47 86.4512 99.4012C86.4512 98.3328 87.2468 97.4661 88.2272 97.4653C89.2064 97.4646 89.9994 98.3282 89.9994 99.3943Z" fill="white"/>
<path opacity="0.48" d="M7.52313 220.985L160.808 209.702L161.588 209.644C162.63 209.567 163.578 209.052 164.301 208.271C153.271 207.667 146.42 203.753 142 199.708C133.125 191.585 134.664 183.575 125.093 178.235C113.155 171.573 103.769 180.014 94.7098 171.686C89.2179 166.637 91.9141 162.872 85.1564 155.327C77.6716 146.97 72.7986 149.779 65.2765 142.258C55.7655 132.748 60.5223 125.349 52.3296 118.521C42.3907 110.238 31.6721 117.905 22.2111 109.961C18.1304 106.535 15.8913 101.554 14.7221 96.2562H7.52386C4.76696 96.2562 2.52539 98.5776 2.52539 101.441V216.168C2.52521 219.032 4.76633 221.188 7.52313 220.985Z" fill="white"/>
<path d="M168.847 209.015L5.93555 220.953L76.9679 233.604C77.7814 233.749 78.6063 233.787 79.4271 233.719L248.335 219.579L171.438 209.096C170.578 208.979 169.711 208.952 168.847 209.015Z" fill="url(#paint4_linear_3261_11644)"/>
<path d="M29.707 221.055L165.336 210.969L207.311 216.645L72.8512 227.427L29.707 221.055Z" fill="#666666"/>
<path opacity="0.3" d="M153.401 96.1815V199.74C153.401 200.696 153.21 201.63 152.932 202.513C152.541 203.765 151.871 204.918 151.028 205.907C149.404 207.812 147.052 209.108 144.429 209.308L32.8781 217.726L26.2994 218.223C24.7131 218.345 23.2099 218.126 21.864 217.633C19.16 216.649 17.1478 214.56 16.3454 211.893C16.1019 211.097 16.0195 210.251 16.0195 209.364V96.1815H153.401Z" fill="#BFC8D6"/>
<path d="M146.927 33.1308L28.7646 29.4901C23.0386 29.3137 18.3691 33.4871 18.3691 38.8125V207.18C18.3691 212.505 23.0385 216.47 28.7646 216.038L146.927 207.122C151.877 206.749 155.868 202.467 155.868 197.556V42.2982C155.868 37.3874 151.877 33.2833 146.927 33.1308Z" fill="#082133"/>
<path opacity="0.74" d="M21.7012 207.948V37.895C21.7012 34.8301 24.3863 32.4237 27.6873 32.5197L147.862 36.0128C150.717 36.0958 153.023 38.4624 153.023 41.2989V198.682C153.023 201.519 150.717 203.988 147.862 204.199L27.6873 213.056C24.3864 213.3 21.7012 211.013 21.7012 207.948Z" fill="white"/>
<path d="M146.927 33.1307L28.7646 29.4899C23.0387 29.3134 18.3691 33.4867 18.3691 38.8123V45.7294L155.868 48.6764V42.2979C155.868 37.3872 151.877 33.2832 146.927 33.1307Z" fill="#082133"/>
<path d="M36.8279 38.356C36.8279 40.0808 35.3262 41.4428 33.4702 41.3981C31.6103 41.3533 30.0996 39.9133 30.0996 38.1819C30.0996 36.4506 31.6103 35.0888 33.4702 35.1402C35.3262 35.1915 36.8279 36.6312 36.8279 38.356Z" fill="white"/>
<path d="M48.5192 38.6584C48.5192 40.3716 47.0376 41.7247 45.2064 41.6806C43.3713 41.6364 41.8809 40.2064 41.8809 38.4866C41.8809 36.7668 43.3713 35.4139 45.2064 35.4647C47.0376 35.5153 48.5192 36.9452 48.5192 38.6584Z" fill="white"/>
<path d="M60.0542 38.9568C60.0542 40.6587 58.5922 42.003 56.7852 41.9595C54.9745 41.9159 53.5039 40.4956 53.5039 38.7873C53.5039 37.079 54.9745 35.7348 56.7852 35.785C58.5921 35.835 60.0542 37.2551 60.0542 38.9568Z" fill="white"/>
<path d="M85.5147 80.8939L36.8794 80.8167C36.0866 80.8154 35.4434 80.225 35.4434 79.4981V76.4037C35.4434 75.6767 36.0867 75.091 36.8794 75.0954L85.5147 75.3683C86.2533 75.3725 86.8516 75.9439 86.8516 76.6446V79.6272C86.8515 80.3279 86.2533 80.895 85.5147 80.8939Z" fill="white"/>
<path d="M38.7637 81.9825L42.945 97.3169C43.2091 98.2862 44.157 98.9572 45.2428 98.945L77.6191 98.5813C78.6542 98.5696 79.5551 97.8953 79.8061 96.9458L83.7491 82.017L38.7637 81.9825ZM50.7658 96.4175C50.7658 97.0259 50.2326 97.5246 49.5747 97.5313L48.4382 97.543C47.7786 97.5497 47.2432 97.0608 47.2432 96.4509V84.5659C47.2432 83.9559 47.7786 83.4614 48.4382 83.4612L49.5747 83.4609C50.2326 83.4607 50.7658 83.9538 50.7658 84.5622V96.4175ZM57.0844 96.3575C57.0844 96.9632 56.556 97.4596 55.9039 97.4663L54.7776 97.4778C54.124 97.4846 53.5934 96.9977 53.5934 96.3906V84.5591C53.5934 83.9519 54.124 83.4595 54.7776 83.4594L55.9039 83.4591C56.5559 83.4589 57.0844 83.9497 57.0844 84.5554V96.3575ZM63.3465 96.2982C63.3465 96.9012 62.8228 97.3954 62.1767 97.402L61.0605 97.4135C60.4126 97.4201 59.8868 96.9356 59.8868 96.331V84.5526C59.8868 83.9482 60.4126 83.458 61.0605 83.4578L62.1767 83.4575C62.8228 83.4574 63.3465 83.946 63.3465 84.549V96.2982ZM69.5529 96.2393C69.5529 96.8396 69.034 97.3316 68.3934 97.3381L67.2871 97.3495C66.6451 97.3562 66.1239 96.8737 66.1239 96.2719V84.546C66.1239 83.9442 66.6451 83.4563 67.2871 83.4561L68.3934 83.4558C69.0339 83.4556 69.5529 83.9421 69.5529 84.5423V96.2393ZM75.7043 96.181C75.7043 96.7786 75.1899 97.2683 74.5551 97.2749L73.4587 97.2862C72.8222 97.2927 72.3057 96.8123 72.3057 96.2133V84.5394C72.3057 83.9404 72.8223 83.4545 73.4587 83.4544L74.5551 83.4541C75.1899 83.4539 75.7043 83.9382 75.7043 84.5359V96.181Z" fill="white"/>
<path d="M44.2296 73.5765C43.4909 74.1647 42.3688 74.0866 41.7233 73.4011C41.0773 72.7148 41.1546 71.6811 41.8958 71.0933C42.6361 70.5061 43.7579 70.5869 44.4014 71.2729C45.0444 71.958 44.9676 72.9889 44.2296 73.5765Z" fill="#513F15"/>
<path d="M59.8362 59.0061C59.5926 58.7414 59.0888 58.77 58.7109 59.0702L43.3111 71.2993C42.9246 71.6062 42.8134 72.0705 43.0629 72.3359C43.3123 72.6013 43.8276 72.5673 44.2137 72.2603L59.5938 60.0285C59.9713 59.7283 60.0798 59.2706 59.8362 59.0061Z" fill="white"/>
<path d="M78.5891 73.8069C79.2916 74.3898 80.356 74.3274 80.9667 73.6687C81.5768 73.0106 81.504 72.0052 80.8036 71.422C80.1027 70.8383 79.0378 70.898 78.4255 71.5564C77.8126 72.2155 77.8859 73.2235 78.5891 73.8069Z" fill="#513F15"/>
<path d="M63.4009 59.067C63.6432 58.8115 64.1437 58.8575 64.5188 59.1694L79.4628 71.5997C79.8296 71.9048 79.9351 72.3586 79.6984 72.6135C79.4617 72.8685 78.972 72.828 78.6047 72.5228L63.6421 60.0948C63.2665 59.7829 63.1585 59.3226 63.4009 59.067Z" fill="white"/>
<path d="M142.146 66.2721L91.9941 65.6319V59.3895L142.146 60.2588V66.2721Z" fill="white"/>
<path d="M142.146 76.8L91.9941 76.5611V70.3185L142.146 70.7867V76.8Z" fill="white"/>
<path d="M142.146 87.3279L91.9941 87.4901V81.2476L142.146 81.3146V87.3279Z" fill="white"/>
<path d="M142.146 97.856L91.9941 98.4195V92.177L142.146 91.8427V97.856Z" fill="white"/>
<path d="M135.323 151.074C135.323 176.328 114.973 198.162 89.7928 199.845C64.5264 201.534 43.9805 182.308 43.9805 156.897C43.9805 131.486 64.5264 109.64 89.7928 108.108C114.973 106.58 135.323 125.819 135.323 151.074Z" fill="#C19632"/>
<path d="M92.5893 110.179C103.588 110.179 113.813 114.36 121.382 121.953C128.982 129.577 133.167 139.919 133.167 151.074C133.167 162.744 128.641 174.021 120.424 182.828C112.204 191.637 101.275 196.916 89.6488 197.694C88.671 197.759 87.683 197.792 86.7119 197.792C75.7209 197.792 65.5008 193.618 57.9339 186.038C50.3262 178.417 46.1365 168.068 46.1365 156.897C46.1365 132.646 65.7791 111.724 89.9231 110.26C90.8087 110.206 91.705 110.179 92.5887 110.179H92.5893ZM92.5869 108.023C91.6636 108.023 90.7302 108.051 89.7927 108.108C64.5263 109.64 43.9805 131.486 43.9805 156.897C43.9805 181.267 62.8768 199.948 86.7121 199.948C87.73 199.948 88.758 199.914 89.7927 199.845C114.973 198.162 135.323 176.328 135.323 151.074C135.323 126.759 116.463 108.021 92.5869 108.023Z" fill="white"/>
<path d="M109.298 178.22C107.959 178.376 106.614 177.954 105.583 176.915L69.7808 140.825C67.4324 138.458 67.4324 134.446 69.7808 131.9C72.111 129.374 75.8498 129.276 78.1326 131.645L112.964 167.804C114.968 169.884 114.968 173.576 112.964 176.079C111.957 177.338 110.63 178.065 109.298 178.22Z" fill="white"/>
<path d="M73.9863 182.328C72.4712 182.504 70.9483 182.066 69.7808 180.968C67.4324 178.76 67.4324 174.748 69.7808 172.043L105.583 130.807C107.641 128.436 110.945 128.349 112.964 130.581C114.968 132.797 114.968 136.488 112.964 138.857L78.1326 180.023C76.9935 181.369 75.4937 182.152 73.9863 182.328Z" fill="white"/>
<path d="M174.242 121.462C171.268 118.286 179.502 106.355 183.91 101.127C187.76 96.5594 191.718 91.865 196.578 92.4593C200.844 92.9812 204.996 97.4809 205.245 101.794C205.914 113.395 178.471 125.977 174.242 121.462Z" fill="#C19632"/>
<path d="M209.957 244.066C210.517 244.521 210.62 245.658 210.687 246.401C210.718 246.733 210.732 246.899 210.695 247.016C210.425 247.871 208.766 247.961 206.166 248.227C202.057 248.647 200.834 248.97 200.512 248.359C200.211 247.786 200.94 246.847 201.022 246.744C201.464 246.188 202.006 245.985 203.054 245.64C204.992 245.002 206.302 244.653 206.699 244.547C209.176 243.886 209.589 243.768 209.957 244.066Z" fill="url(#paint5_linear_3261_11644)"/>
<path d="M207.513 240.312L207.102 244.995C207.218 245.221 208.61 245.899 209.716 245.318L210.773 240.715L207.513 240.312Z" fill="url(#paint6_linear_3261_11644)"/>
<path d="M177.365 243.464C178.036 244.206 178.189 245.57 177.606 246.243C177.032 246.904 176.169 246.408 173.723 246.481C171.103 246.559 170.419 247.178 168.638 246.687C167.919 246.488 166.648 246.005 166.672 245.492C166.689 245.131 167.336 244.944 169.496 244.22C172.563 243.193 172.549 243.137 173.201 243.029C174.836 242.758 176.479 242.486 177.365 243.464Z" fill="url(#paint7_linear_3261_11644)"/>
<path d="M175.687 239.191L174.373 243.562C174.472 243.797 175.808 244.579 176.955 244.084L178.907 239.841L175.687 239.191Z" fill="url(#paint8_linear_3261_11644)"/>
<path d="M187.364 143.444C187.176 158.136 186.174 174.656 183.768 192.603C181.39 210.342 178.058 226.369 174.424 240.463C176.101 240.915 177.778 241.366 179.454 241.817C183.708 237.85 189.075 231.606 191.664 222.782C193.271 217.305 192.736 214.49 193.755 207.754C195.378 197.028 198.666 191.409 202.065 182.759C205.118 174.987 208.728 163.581 210.663 148.334C202.897 146.704 195.131 145.074 187.364 143.444Z" fill="url(#paint9_linear_3261_11644)"/>
<path d="M202.5 142.042C203.526 160.728 204.37 179.762 205.01 199.133C205.49 213.669 205.843 228.02 206.077 242.183C207.79 242.394 209.503 242.606 211.215 242.817C212.871 239.736 215.069 235.025 216.575 228.986C218.404 221.653 217.98 217.298 218.782 209.697C219.682 201.172 220.989 199.315 223.305 188.561C228.005 166.737 230.355 155.824 225.112 149.036C223.41 146.832 218.075 141.305 202.5 142.042Z" fill="url(#paint10_linear_3261_11644)"/>
<path d="M227.464 95.0785C223.453 93.9505 217.574 92.6314 210.374 92.2244C200.105 91.644 194.971 91.3538 191.333 93.7991C182.929 99.4471 189.435 112.482 185.995 144.796C185.504 149.411 185.394 154.058 185.038 158.685C184.449 166.346 184.315 166.762 184.848 167.538C188.191 172.406 200.662 165.064 218.942 167.966C229.169 169.59 233.808 173.332 236.61 170.633C239.878 167.486 237.075 159.021 234.662 151.734C231.892 143.37 230.181 143.263 228.609 136.963C226.966 130.379 227.96 126.989 228.216 116.607C228.338 111.639 228.312 104.245 227.464 95.0785Z" fill="#C19632"/>
<g opacity="0.3">
<path d="M202.607 155.743C207.385 155.369 210.484 158.07 214.608 155.965C220.264 153.079 222.081 144.098 221.72 137.741C221.173 128.084 215.658 125.538 216.609 119.295C217.123 115.919 219.533 111.437 228.187 106.858C228.303 110.712 228.281 113.997 228.216 116.607C227.96 126.99 226.967 130.38 228.61 136.964C230.182 143.263 231.893 143.371 234.662 151.735C237.075 159.022 239.878 167.486 236.61 170.633C233.808 173.332 229.17 169.59 218.942 167.966C203.192 165.466 191.76 170.565 186.758 168.911C192.802 158.923 198.284 156.081 202.607 155.743Z" fill="#C19632"/>
</g>
<path d="M220.946 95.7415C224.358 92.9379 231.219 96.1115 233.053 96.9598C243.28 101.691 252.463 114.439 250.188 127.911C249.846 129.932 248.264 139.382 240.262 143.962C233.041 148.093 223.291 147.031 215.479 141.179C214.411 140.231 213.344 139.284 212.276 138.337C211.226 137.202 210.175 136.066 209.125 134.931C210.776 133.558 213.581 131.576 217.521 130.305C222.715 128.629 226.497 131.637 228.907 129.35C230.57 127.772 230.574 124.985 230.163 123.296C229.335 119.891 226.334 118.934 223.829 116.517C217.944 110.84 216.86 99.0985 220.946 95.7415Z" fill="#C19632"/>
<path d="M171.912 139.723L217.647 139.04L205.486 144.91L171.795 142.705L171.912 139.723Z" fill="#082133"/>
<path d="M219.261 140.255V140.256C219.261 141.111 218.725 141.876 217.921 142.168L203.307 147.898L203.24 143.926L217.647 139.04C218.455 138.808 219.261 139.414 219.261 140.255Z" fill="#082133"/>
<path d="M212.219 137.549C212.499 137.487 210.851 134.203 209.557 134.581C208.264 134.961 201.936 138.628 201.36 140.138C200.785 141.648 200.785 141.648 200.785 141.648C200.785 141.648 203.546 141.864 205.257 141.289C206.97 140.713 209.936 138.058 212.219 137.549Z" fill="url(#paint11_linear_3261_11644)"/>
<path d="M202.028 116.057L205.252 145.41C205.363 146.422 203.945 147.931 202.927 147.883L155.634 144.98C154.857 144.943 154.21 144.371 154.079 143.604L148.143 115.255C147.966 114.223 149.82 113.157 150.867 113.187L200.427 114.58C201.254 114.604 201.938 115.234 202.028 116.057Z" fill="url(#paint12_linear_3261_11644)"/>
<path d="M200.945 116.913L204.169 146.266C204.28 147.279 203.46 148.151 202.442 148.103L154.551 145.836C153.774 145.799 153.127 145.227 152.995 144.461L148.103 115.981C147.925 114.949 148.737 114.013 149.783 114.043L199.343 115.436C200.171 115.459 200.855 116.09 200.945 116.913Z" fill="#141005"/>
<path opacity="0.3" d="M172.823 138.958C177.005 137.186 175.529 133.806 180.467 129.594C186.982 124.038 193.622 126.448 195.946 122.142C196.67 120.8 197.016 118.713 195.755 115.336L199.344 115.436C200.171 115.46 200.855 116.09 200.945 116.913L204.169 146.266C204.28 147.279 203.46 148.151 202.442 148.103L154.551 145.836C153.774 145.799 153.127 145.227 152.996 144.461L152.32 140.531C153.773 139.722 155.51 138.987 157.536 138.576C164.562 137.151 168.009 140.998 172.823 138.958Z" fill="#141005"/>
<path d="M151.535 141.731C151.457 141.494 151.622 141.251 151.871 141.238C152.883 141.187 155.231 141.166 156.527 141.959C158.21 142.99 160.387 144.872 158.554 145.822L156.842 146.709C156.763 146.749 156.678 146.762 156.592 146.743C155.983 146.609 153.423 146.041 153.143 145.9C152.888 145.772 151.912 142.875 151.535 141.731Z" fill="url(#paint13_linear_3261_11644)"/>
<path d="M209.609 81.0057C209.583 84.0499 209.923 86.4643 210.244 88.1177C210.612 90.0121 210.877 90.5015 211.216 90.8986C211.725 91.4964 212.497 91.9978 216.859 93.0796C219.233 93.6681 219.539 93.6521 219.591 93.8876C219.847 95.0369 213.374 98.9536 206.686 98.0095C202.593 97.4319 198.869 95.0968 199.098 93.8705C199.328 92.6365 203.416 93.2986 204.635 91.0661C205.483 89.5129 204.532 87.308 203.409 85.482C204.497 83.4438 208.521 83.0439 209.609 81.0057Z" fill="url(#paint14_linear_3261_11644)"/>
<path d="M202.011 82.2096C201.045 80.9265 200.986 78.6863 202.099 77.2703C203.057 76.0519 204.564 75.8781 205.466 75.7738C208.081 75.4718 211.38 76.5635 212.528 78.97C213.208 80.3962 211.737 83.3595 211.507 83.8923C211.246 84.4946 210.773 84.7013 210.335 85.1568C209.729 85.7885 208.78 86.7929 207.231 88.4726C207.11 87.977 206.927 87.3634 206.636 86.6984C206.524 86.4423 206.075 85.4425 205.395 84.6134C204.032 82.9515 202.927 83.4256 202.011 82.2096Z" fill="url(#paint15_linear_3261_11644)"/>
<path d="M209.44 87.0601C209.44 87.0601 207.721 89.8802 204.299 89.6576C201.234 89.4581 200.786 82.5863 202.743 81.128C203.396 80.6415 204.704 80.4395 205.767 80.7375C206.395 80.9135 206.608 81.1744 207.639 81.442C208.591 81.689 208.86 81.5835 209.147 81.8251C209.507 82.1276 209.77 82.869 209.17 84.8779C209.754 84.2859 210.456 84.0588 210.953 84.2936C211.033 84.3312 211.243 84.4742 211.361 84.6912C211.79 85.4759 211.073 86.4785 209.44 87.0601Z" fill="url(#paint16_linear_3261_11644)"/>
<path d="M209.285 81.4141C209.137 81.5243 209.589 82.0757 209.623 82.856C209.688 84.3708 208.155 86.1889 206.591 86.3432C205.666 86.4343 205.412 85.8769 203.883 85.7154C202.937 85.6155 202.149 85.7358 201.653 85.844C201.173 87.5054 201.625 89.1617 202.736 89.9302C203.931 90.7575 205.458 90.2556 206.097 90.0457C206.524 89.9053 207.892 89.4582 208.608 88.2032C209.353 86.8953 208.622 86.1068 209.477 85.2222C209.908 84.776 210.474 84.5828 211.026 83.7189C211.176 83.4842 211.276 83.2766 211.337 83.1369C210.546 82.2991 209.499 81.2545 209.285 81.4141Z" fill="url(#paint17_linear_3261_11644)"/>
<path d="M202.766 86.4599C202.766 86.4599 203.428 86.8057 204.571 86.7414C204.627 86.7381 204.688 86.7546 204.695 86.7833C204.722 86.8918 203.988 87.3782 203.312 87.1883C202.832 87.0532 202.458 86.5989 202.523 86.4831C202.55 86.4345 202.659 86.4409 202.766 86.4599Z" fill="url(#paint18_linear_3261_11644)"/>
<defs>
<linearGradient id="paint0_linear_3261_11644" x1="218.491" y1="66.1119" x2="185.881" y2="56.8841" gradientUnits="userSpaceOnUse">
<stop stop-color="#311944"/>
<stop offset="1" stop-color="#A03976"/>
</linearGradient>
<linearGradient id="paint1_linear_3261_11644" x1="218.407" y1="66.4139" x2="185.797" y2="57.186" gradientUnits="userSpaceOnUse">
<stop stop-color="#311944"/>
<stop offset="1" stop-color="#A03976"/>
</linearGradient>
<linearGradient id="paint2_linear_3261_11644" x1="214.725" y1="47.0278" x2="150.846" y2="28.9515" gradientUnits="userSpaceOnUse">
<stop stop-color="#311944"/>
<stop offset="1" stop-color="#A03976"/>
</linearGradient>
<linearGradient id="paint3_linear_3261_11644" x1="214.556" y1="47.6194" x2="150.677" y2="29.5431" gradientUnits="userSpaceOnUse">
<stop stop-color="#311944"/>
<stop offset="1" stop-color="#A03976"/>
</linearGradient>
<linearGradient id="paint4_linear_3261_11644" x1="62.5574" y1="221.367" x2="304.957" y2="221.367" gradientUnits="userSpaceOnUse">
<stop offset="0.494" stop-color="#EBEFF2"/>
<stop offset="1" stop-color="white"/>
</linearGradient>
<linearGradient id="paint5_linear_3261_11644" x1="200.493" y1="246.161" x2="210.729" y2="246.457" gradientUnits="userSpaceOnUse">
<stop stop-color="#444B8C"/>
<stop offset="0.9964" stop-color="#26264F"/>
</linearGradient>
<linearGradient id="paint6_linear_3261_11644" x1="207.102" y1="242.93" x2="210.772" y2="242.93" gradientUnits="userSpaceOnUse">
<stop stop-color="#FFC444"/>
<stop offset="0.9964" stop-color="#F36F56"/>
</linearGradient>
<linearGradient id="paint7_linear_3261_11644" x1="167.256" y1="243.342" x2="177.745" y2="246.226" gradientUnits="userSpaceOnUse">
<stop stop-color="#444B8C"/>
<stop offset="0.9964" stop-color="#26264F"/>
</linearGradient>
<linearGradient id="paint8_linear_3261_11644" x1="174.373" y1="241.718" x2="178.907" y2="241.718" gradientUnits="userSpaceOnUse">
<stop stop-color="#FFC444"/>
<stop offset="0.9964" stop-color="#F36F56"/>
</linearGradient>
<linearGradient id="paint9_linear_3261_11644" x1="170.83" y1="225.636" x2="199.845" y2="160.228" gradientUnits="userSpaceOnUse">
<stop stop-color="#40447E"/>
<stop offset="0.9964" stop-color="#3C3B6B"/>
</linearGradient>
<linearGradient id="paint10_linear_3261_11644" x1="185.079" y1="228.734" x2="221.889" y2="167.373" gradientUnits="userSpaceOnUse">
<stop stop-color="#40447E"/>
<stop offset="0.9964" stop-color="#3C3B6B"/>
</linearGradient>
<linearGradient id="paint11_linear_3261_11644" x1="200.785" y1="138.119" x2="212.25" y2="138.119" gradientUnits="userSpaceOnUse">
<stop stop-color="#FFC444"/>
<stop offset="0.9964" stop-color="#F36F56"/>
</linearGradient>
<linearGradient id="paint12_linear_3261_11644" x1="171.959" y1="137.146" x2="182.746" y2="121.829" gradientUnits="userSpaceOnUse">
<stop stop-color="#444B8C"/>
<stop offset="0.9964" stop-color="#26264F"/>
</linearGradient>
<linearGradient id="paint13_linear_3261_11644" x1="151.516" y1="143.984" x2="159.25" y2="143.984" gradientUnits="userSpaceOnUse">
<stop stop-color="#FFC444"/>
<stop offset="0.9964" stop-color="#F36F56"/>
</linearGradient>
<linearGradient id="paint14_linear_3261_11644" x1="210.104" y1="81.0348" x2="208.126" y2="114.654" gradientUnits="userSpaceOnUse">
<stop stop-color="#FFC444"/>
<stop offset="0.9964" stop-color="#F36F56"/>
</linearGradient>
<linearGradient id="paint15_linear_3261_11644" x1="213.396" y1="96.4809" x2="205.725" y2="76.7858" gradientUnits="userSpaceOnUse">
<stop stop-color="#311944"/>
<stop offset="1" stop-color="#6B3976"/>
</linearGradient>
<linearGradient id="paint16_linear_3261_11644" x1="201.562" y1="85.134" x2="211.483" y2="85.134" gradientUnits="userSpaceOnUse">
<stop stop-color="#FFC444"/>
<stop offset="0.9964" stop-color="#F36F56"/>
</linearGradient>
<linearGradient id="paint17_linear_3261_11644" x1="211.026" y1="97.414" x2="203.347" y2="77.6989" gradientUnits="userSpaceOnUse">
<stop stop-color="#311944"/>
<stop offset="1" stop-color="#6B3976"/>
</linearGradient>
<linearGradient id="paint18_linear_3261_11644" x1="202.516" y1="86.8388" x2="204.696" y2="86.8388" gradientUnits="userSpaceOnUse">
<stop stop-color="#FFC444"/>
<stop offset="0.9964" stop-color="#F36F56"/>
</linearGradient>
</defs>
</svg>
