<svg width="12" height="12" viewBox="0 0 12 12" fill="none" xmlns="http://www.w3.org/2000/svg">
<g clip-path="url(#clip0_1976_10875)">
<path d="M5.99004 11.1631C5.31087 11.1644 4.63816 11.0314 4.01055 10.7718C3.38294 10.5123 2.81283 10.1313 2.33293 9.65067C0.316106 7.63385 0.316106 4.35246 2.33293 2.33564C2.8121 1.85378 3.3821 1.47174 4.00992 1.21163C4.63772 0.951529 5.31089 0.818528 5.99046 0.820331C7.3721 0.820331 8.67101 1.35826 9.64755 2.33564C10.6245 3.31261 11.1629 4.61149 11.1629 5.99316C11.1629 7.37482 10.6249 8.6737 9.64755 9.65067C9.16758 10.1313 8.59737 10.5123 7.96971 10.7718C7.34203 11.0314 6.66926 11.1643 5.99004 11.1631ZM5.99046 1.64792C5.41959 1.6463 4.85409 1.75796 4.3267 1.97645C3.79931 2.19494 3.32051 2.5159 2.91804 2.92073C2.09748 3.7413 1.64562 4.83246 1.64562 5.99316C1.64562 7.15385 2.09748 8.24461 2.91804 9.06558C4.6121 10.7596 7.3688 10.7601 9.06246 9.06558C9.88301 8.24503 10.3353 7.15385 10.3353 5.99316C10.3353 4.83246 9.8834 3.7417 9.06246 2.92073C8.65997 2.51601 8.18123 2.19514 7.65394 1.97666C7.12662 1.75818 6.56123 1.64644 5.99046 1.64792Z" fill="#666666"/>
<path d="M4.23461 8.16203C4.15269 8.16221 4.07256 8.13805 4.0044 8.09263C3.93625 8.04718 3.88311 7.98252 3.85178 7.90684C3.82042 7.83116 3.81229 7.74786 3.82834 7.66754C3.84442 7.58722 3.884 7.51349 3.94206 7.45569L7.45309 3.94466C7.4915 3.90624 7.53711 3.87578 7.58732 3.85496C7.6375 3.83417 7.69131 3.82349 7.74564 3.82349C7.79997 3.82349 7.85378 3.83417 7.90396 3.85496C7.95416 3.87578 7.99977 3.90624 8.03818 3.94466C8.0766 3.98307 8.10709 4.02868 8.12788 4.07888C8.14867 4.12909 8.15938 4.18288 8.15938 4.2372C8.15938 4.29153 8.14867 4.34535 8.12788 4.39555C8.10709 4.44573 8.0766 4.49134 8.03818 4.52975L4.52715 8.04081C4.48883 8.07936 4.44325 8.10992 4.39302 8.13074C4.34282 8.15155 4.28896 8.16219 4.23461 8.16203Z" fill="#666666"/>
<path d="M7.74582 8.16202C7.69147 8.1621 7.63765 8.15141 7.58745 8.1306C7.53722 8.10981 7.49164 8.07927 7.45327 8.04081L3.94222 4.52975C3.9038 4.49134 3.87333 4.44573 3.85255 4.39555C3.83176 4.34535 3.82104 4.29153 3.82104 4.2372C3.82104 4.18288 3.83176 4.12909 3.85255 4.07888C3.87333 4.02868 3.9038 3.98307 3.94222 3.94466C3.98065 3.90624 4.02626 3.87578 4.07644 3.85496C4.12665 3.83417 4.18046 3.82349 4.23479 3.82349C4.28912 3.82349 4.3429 3.83417 4.39311 3.85496C4.44331 3.87578 4.48892 3.90624 4.52733 3.94466L8.03836 7.45569C8.09642 7.51349 8.13601 7.58722 8.15206 7.66754C8.16814 7.74786 8.15998 7.83116 8.12865 7.90684C8.09729 7.98252 8.04418 8.04718 7.97602 8.09263C7.90784 8.13805 7.82773 8.16221 7.74582 8.16202Z" fill="#666666"/>
</g>
<defs>
<clipPath id="clip0_1976_10875">
<rect width="12" height="12" fill="white"/>
</clipPath>
</defs>
</svg>
