<svg width="24" height="24" viewBox="0 0 24 24" fill="none" xmlns="http://www.w3.org/2000/svg">
<path d="M8.99943 3.75078C8.99943 5.41198 10.3477 6.75005 12.0001 6.75005C13.6525 6.75005 15 5.41198 15 3.75078C15 3.24416 14.8733 2.76534 14.6507 2.34598L14.8667 2.16216C15.1389 1.92793 14.9657 1.48272 14.6067 1.50078C14.523 1.50503 14.4445 1.53366 14.3812 1.58865L14.2186 1.72996C13.6702 1.12889 12.8789 0.749965 12.0001 0.75C10.3404 0.750035 8.99943 2.09836 8.99943 3.75078ZM3.3753 1.50004C2.75146 1.50045 2.25033 2.00767 2.25033 2.6243C2.25033 3.24533 2.75146 3.74963 3.3753 3.75004C3.99915 3.74963 4.50027 3.24533 4.50027 2.6243C4.50027 2.00767 3.99915 1.50044 3.3753 1.50004ZM13.6487 2.21855L12.0199 3.61528L11.1395 2.73491C10.778 2.39156 10.2685 2.90122 10.6107 3.26665L11.7342 4.39017C11.8728 4.52879 12.0952 4.53759 12.244 4.41002L14.0626 2.85142C14.183 3.12679 14.25 3.43042 14.25 3.75083C14.25 4.98327 13.2472 6.0001 12.0001 6.0001C10.753 6.0001 9.74941 4.98327 9.74941 3.75083C9.74941 2.50375 10.7633 1.5001 12.0001 1.50007C12.6485 1.50004 13.2368 1.77635 13.6487 2.21855ZM20.9999 1.50004C20.8123 1.50004 20.6249 1.62505 20.6249 1.87504V2.25005C20.6249 2.75018 21.3749 2.75018 21.3749 2.25005V1.87504C21.3749 1.62498 21.1874 1.50004 20.9999 1.50004ZM3.3753 2.25005C3.57773 2.25046 3.75029 2.41301 3.75029 2.6243C3.75029 2.8356 3.58064 2.99964 3.3753 3.00004C3.16994 2.99962 3.0003 2.8356 3.0003 2.6243C3.0003 2.41301 3.17286 2.25044 3.3753 2.25005ZM19.8749 2.62504C19.3748 2.62504 19.3748 3.37505 19.8749 3.37505H20.2499C20.75 3.37505 20.75 2.62504 20.2499 2.62504H19.8749ZM21.7499 2.62504C21.2498 2.62504 21.2498 3.37505 21.7499 3.37505H22.1249C22.625 3.37505 22.625 2.62504 22.1249 2.62504H21.7499ZM20.9999 3.37505C20.8123 3.37505 20.6249 3.50005 20.6249 3.75004V4.12504C20.6249 4.62515 21.3749 4.62515 21.3749 4.12504V3.75004C21.3749 3.49997 21.1874 3.37505 20.9999 3.37505ZM2.25033 4.87504C2.06279 4.87504 1.87533 4.99991 1.87533 5.25004V5.62504C1.87533 6.12518 2.62531 6.12518 2.62531 5.62504V5.25004C2.62531 4.99998 2.43787 4.87504 2.25033 4.87504ZM22.1249 5.62504C21.501 5.62546 20.9999 6.13267 20.9999 6.74931C20.9999 7.37034 21.501 7.87465 22.1249 7.87504C22.7487 7.87463 23.2498 7.37034 23.2498 6.74931C23.2498 6.13267 22.7487 5.62546 22.1249 5.62504ZM1.12535 6.00004C0.625238 6.00004 0.625238 6.75005 1.12535 6.75005H1.50034C2.00044 6.75005 2.00044 6.00004 1.50034 6.00004H1.12535ZM3.0003 6.00004C2.50019 6.00004 2.50019 6.75005 3.0003 6.75005H3.3753C3.87541 6.75005 3.87541 6.00004 3.3753 6.00004H3.0003ZM6.19946 6.28277C6.05914 6.81762 5.67856 7.41865 5.0774 7.73077C4.80647 7.87151 4.80679 8.25965 5.07882 8.39801C5.73304 8.73448 6.05239 9.33883 6.20233 9.85699C6.25548 10.0381 6.41921 10.125 6.56561 10.125C6.70465 10.125 6.86989 10.038 6.92303 9.85697C7.07295 9.33881 7.40104 8.72557 8.04799 8.39799C8.31135 8.26406 8.32108 7.87143 8.05083 7.73076C7.44968 7.41864 7.06976 6.8259 6.92732 6.28275C6.88395 6.11552 6.73747 5.99964 6.56631 6.00078C6.39515 5.99967 6.24287 6.11559 6.19946 6.28277ZM17.0735 6.28277C16.931 6.82591 16.5511 7.41865 15.95 7.73077C15.6791 7.87137 15.6888 8.26407 15.9528 8.39801C16.5997 8.72558 16.9278 9.33883 17.0778 9.85699C17.1309 10.038 17.2961 10.125 17.4352 10.125C17.5816 10.125 17.7453 10.038 17.7984 9.85697C17.9484 9.33881 18.2677 8.73447 18.9219 8.39799C19.194 8.25966 19.1943 7.8715 18.9234 7.73076C18.3222 7.41864 17.9416 6.81761 17.8013 6.28275C17.758 6.11558 17.6056 5.99964 17.4345 6.00078C17.2633 5.99967 17.1168 6.11559 17.0735 6.28277ZM22.1249 6.37503C22.3273 6.37545 22.4999 6.53801 22.4999 6.74931C22.4999 6.9606 22.3302 7.12464 22.1249 7.12504C21.9195 7.12463 21.7499 6.9606 21.7499 6.74931C21.7499 6.53801 21.9224 6.37543 22.1249 6.37503ZM2.25033 6.75005C2.06279 6.75005 1.87533 6.87505 1.87533 7.12504V7.50004C1.87533 8.00015 2.62531 8.00015 2.62531 7.50004V7.12504C2.62531 6.87497 2.43787 6.75005 2.25033 6.75005ZM14.1093 7.15285L12.2608 7.90358C12.1521 7.94751 12.0697 8.0395 12.0388 8.1526L11.7115 9.37575H9.37582C9.20351 9.37485 9.05277 9.4914 9.01035 9.65846L8.70714 10.875H7.87513C7.25837 10.8749 6.75014 11.3687 6.75014 12V12.7507C6.75014 13.2481 7.0755 13.6775 7.53382 13.823L7.83044 16.5H3.00097C2.37243 16.5 1.87526 17.0082 1.87526 17.625V18.0103C1.60418 18.0488 1.34206 18.1722 1.1326 18.3816C0.620915 18.8934 0.623778 19.7302 1.13334 20.2398L2.90941 22.0152C2.94371 22.0494 2.97858 22.0883 3.01273 22.1162C3.09692 22.7566 3.64359 23.25 4.31275 23.25C4.68125 23.25 5.01245 23.0996 5.25022 22.8567C5.488 23.0996 5.81922 23.25 6.18771 23.25C6.55623 23.25 6.8874 23.0996 7.12518 22.8567C7.36297 23.0996 7.69415 23.25 8.06266 23.25C8.43116 23.25 8.76236 23.0996 9.00014 22.8567C9.23792 23.0996 9.56911 23.25 9.93762 23.25C10.6656 23.25 11.2501 22.6596 11.2501 21.939V20.9993H12.7501V21.939C12.7501 22.6596 13.3346 23.25 14.0625 23.25C14.431 23.25 14.7622 23.0996 15 22.8567C15.2378 23.0996 15.569 23.25 15.9375 23.25C16.306 23.25 16.6372 23.0996 16.875 22.8567C17.1127 23.0996 17.4439 23.25 17.8124 23.25C18.1809 23.25 18.5121 23.0996 18.7499 22.8567C18.9877 23.0996 19.3189 23.25 19.6874 23.25C20.3566 23.25 20.9032 22.7566 20.9874 22.1162C21.0216 22.0883 21.0564 22.0494 21.0907 22.0152L22.8668 20.2398C23.3764 19.7302 23.3741 18.8883 22.8676 18.3816C22.6581 18.1722 22.396 18.0488 22.1249 18.0103V17.625C22.1249 17.0083 21.6277 16.5 20.9992 16.5H16.1697L16.4663 13.823C16.9246 13.6775 17.25 13.2481 17.25 12.7507V12C17.25 11.3687 16.7418 10.8749 16.125 10.875H15.293L14.9898 9.65846C14.9474 9.49146 14.7966 9.37484 14.6243 9.37575H12.4894L12.7171 8.52613L14.3922 7.84792C14.7815 7.67614 14.6521 7.11897 14.2383 7.12576C14.1925 7.12721 14.1514 7.13428 14.1093 7.15285ZM2.63777 9.27691C2.39094 10.0782 1.86895 10.8551 0.960562 11.2889C0.678586 11.4265 0.680386 11.8281 0.963397 11.9634C1.94352 12.4504 2.44709 13.3005 2.64061 13.9871C2.69546 14.1632 2.84763 14.2504 2.99948 14.25C3.15133 14.2504 3.30348 14.1632 3.35836 13.9871C3.55187 13.3005 4.05544 12.4504 5.03558 11.9634C5.31873 11.8282 5.32056 11.4265 5.03841 11.2889C4.12987 10.8551 3.60802 10.0782 3.3612 9.27691C3.31584 9.11461 3.16786 9.00196 2.99949 9.00224C2.8311 9.00196 2.68312 9.11464 2.63777 9.27691ZM20.6388 9.27691C20.392 10.0782 19.8701 10.8552 18.9616 11.2889C18.6795 11.4265 18.6814 11.8282 18.9644 11.9634C19.9446 12.4504 20.4481 13.3005 20.6416 13.9871C20.6965 14.1632 20.8487 14.2504 21.0005 14.25C21.1524 14.2504 21.3046 14.1632 21.3594 13.9871C21.5529 13.3005 22.0565 12.4504 23.0366 11.9634C23.3197 11.8282 23.3215 11.4265 23.0394 11.2889C22.1309 10.8552 21.609 10.0782 21.3621 9.27691C21.3168 9.11464 21.1688 9.00197 21.0005 9.00226C20.8322 9.00197 20.6842 9.11465 20.6388 9.27691ZM9.66885 10.1265H14.3313L14.5188 10.875C12.8397 10.8761 11.1605 10.8755 9.48135 10.875L9.66885 10.1265ZM8.29485 13.8743H15.7053L15.58 15H13.125C12.8134 14.7672 12.4204 14.6243 12 14.6243C11.5797 14.6243 11.1867 14.7672 10.8751 15H8.42005L8.29485 13.8743ZM12.0001 15.3743C12.6166 15.3743 13.1235 15.8708 13.1243 16.5H10.8759C10.8767 15.8708 11.3836 15.3743 12.0001 15.3743ZM8.5036 15.75H10.2819C10.1811 15.9803 10.1261 16.2336 10.1259 16.5H8.58709L8.5036 15.75ZM15.4966 15.75L15.4131 16.5H13.8743C13.8741 16.2336 13.8192 15.9803 13.7183 15.75H15.4966ZM3.00104 17.25H9.75015V18.3758C9.75097 18.5829 9.91952 18.7501 10.1266 18.7493H13.8736C14.0807 18.7501 14.2492 18.5829 14.25 18.3758V17.25H20.9992C21.2017 17.25 21.3749 17.4108 21.3749 17.625V18.1246C21.2433 18.1878 21.1183 18.2757 21.0101 18.3838L19.8793 19.5147C19.8175 19.5062 19.7518 19.5001 19.6874 19.5001C19.3189 19.5001 18.9877 19.6505 18.7499 19.8934C18.5122 19.6505 18.1809 19.5001 17.8125 19.5001C17.4439 19.5001 17.1128 19.6505 16.875 19.8934C16.6372 19.6505 16.306 19.5001 15.9375 19.5001C15.569 19.5001 15.2378 19.6505 15 19.8934C14.7623 19.6505 14.431 19.5001 14.0626 19.5001C13.5381 19.5001 13.0859 19.8086 12.8753 20.2494H11.1249C10.9143 19.8086 10.4621 19.5001 9.93764 19.5001C9.56914 19.5001 9.23794 19.6505 9.00017 19.8934C8.76239 19.6505 8.43119 19.5001 8.06268 19.5001C7.69418 19.5001 7.36299 19.6505 7.12521 19.8934C6.88742 19.6505 6.55625 19.5001 6.18773 19.5001C5.81924 19.5001 5.48803 19.6505 5.25025 19.8934C5.01248 19.6505 4.68128 19.5001 4.31277 19.5001C4.24843 19.5001 4.18266 19.5058 4.12088 19.5147L2.99006 18.3838C2.88191 18.2757 2.75683 18.1877 2.62531 18.1246V17.625C2.62531 17.4108 2.79843 17.25 3.00104 17.25ZM2.0577 18.7464C2.2013 18.745 2.34726 18.8017 2.45979 18.9141L3.40679 19.8611C3.15544 20.1005 3.0003 20.4386 3.0003 20.8111V21.0454L1.66441 19.7095C1.43931 19.4846 1.44804 19.1275 1.66367 18.9119C1.77153 18.8041 1.91409 18.7479 2.0577 18.7464ZM22.3365 18.9119C22.5522 19.1275 22.5609 19.4846 22.3358 19.7095L20.9999 21.0454V20.8111C20.9999 20.4386 20.8448 20.1005 20.5934 19.8611L21.5404 18.9141C21.6529 18.8016 21.7989 18.745 21.9425 18.7464C22.0861 18.7478 22.2287 18.8041 22.3365 18.9119ZM4.31277 20.25C4.61771 20.25 4.87527 20.493 4.87527 20.8111V21.939C4.87527 22.2571 4.61771 22.5 4.31277 22.5C4.00785 22.5 3.75029 22.2571 3.75029 21.939V20.8111C3.75029 20.493 4.00785 20.25 4.31277 20.25ZM6.18773 20.25C6.49267 20.25 6.75021 20.493 6.75021 20.8111V21.939C6.75021 22.2571 6.49267 22.5 6.18773 22.5C5.88283 22.5 5.62524 22.2571 5.62524 21.939V20.8111C5.62524 20.493 5.88283 20.25 6.18773 20.25ZM8.06268 20.25C8.36762 20.25 8.62518 20.493 8.62518 20.8111V21.939C8.62518 22.2571 8.36762 22.5 8.06268 22.5C7.75776 22.5 7.5002 22.2571 7.5002 21.939V20.8111C7.5002 20.493 7.75776 20.25 8.06268 20.25ZM9.93764 20.25C10.2426 20.25 10.5001 20.493 10.5001 20.8111V21.939C10.5001 22.2571 10.2426 22.5 9.93764 22.5C9.63271 22.5 9.37515 22.2571 9.37515 21.939V20.8111C9.37515 20.493 9.63271 20.25 9.93764 20.25ZM14.0626 20.25C14.3675 20.25 14.625 20.493 14.625 20.8111V21.939C14.625 22.2571 14.3675 22.5 14.0626 22.5C13.7576 22.5 13.5001 22.2571 13.5001 21.939V20.8111C13.5001 20.493 13.7576 20.25 14.0626 20.25ZM15.9375 20.25C16.2424 20.25 16.5 20.493 16.5 20.8111V21.939C16.5 22.2571 16.2424 22.5 15.9375 22.5C15.6326 22.5 15.375 22.2571 15.375 21.939V20.8111C15.375 20.493 15.6326 20.25 15.9375 20.25ZM17.8125 20.25C18.1174 20.25 18.375 20.493 18.375 20.8111V21.939C18.375 22.2571 18.1174 22.5 17.8125 22.5C17.5075 22.5 17.25 22.2571 17.25 21.939V20.8111C17.25 20.493 17.5075 20.25 17.8125 20.25ZM19.6874 20.25C19.9923 20.25 20.2499 20.493 20.2499 20.8111V21.939C20.2499 22.2571 19.9923 22.5 19.6874 22.5C19.3825 22.5 19.1249 22.2571 19.1249 21.939V20.8111C19.1249 20.493 19.3825 20.25 19.6874 20.25Z" fill="#795E20"/>
</svg>
