<svg width="106" height="106" viewBox="0 0 106 106" fill="none" xmlns="http://www.w3.org/2000/svg">
<rect x="1.5" y="1.5" width="103" height="103" rx="51.5" stroke="url(#paint0_linear_5988_40104)" stroke-width="3"/>
<rect x="6" y="6" width="94" height="94" rx="47" fill="url(#paint1_linear_5988_40104)"/>
<path d="M40.7376 80.9254C40.7376 80.9254 45.9963 84.3027 46.0643 84.756C46.1323 85.2094 46.4043 86.4107 42.347 85.572C39.7403 85.028 38.5163 84.6653 37.7003 84.3707C37.5643 84.3253 37.451 84.144 37.3603 83.9173C37.1336 83.328 37.2243 82.648 37.5416 82.104L38.1763 81.0387L40.7376 80.9254Z" fill="#141005"/>
<path d="M61.8844 81.016C61.8844 81.016 68.3444 82.3307 68.5711 82.7387C68.8204 83.1693 69.5231 84.2347 65.2164 84.96C62.4511 85.4133 61.1591 85.0507 60.2298 85.0733C59.7991 85.0733 59.4364 84.756 59.4138 84.348L59.2324 82.0813L61.8844 81.016Z" fill="#141005"/>
<path d="M52.3877 32.6227C52.3877 32.6227 53.6117 33.3933 53.9064 35.2067L52.6597 35.4107L51.0957 34.0053L52.3877 32.6227Z" fill="#E9F4FC"/>
<path d="M46.0196 50.8013C46.0196 50.8013 43.1636 53.5667 44.2743 57.1253L44.5236 58.916C44.5236 58.916 43.6396 64.56 43.5716 69.116C43.5716 69.116 40.285 71.428 38.1543 80.9933C38.1543 80.9933 40.5343 82.1493 42.8236 81.7867C42.8236 81.7867 49.3743 71.7 49.6916 70.0227C50.009 68.3453 51.6863 61.0013 51.6863 61.0013L49.9183 50.5747L46.0196 50.8013Z" fill="#FAF5EB"/>
<path d="M46.948 51.1187C46.948 51.1187 44.5 51.8667 44.5 54.5867C44.5 57.216 47.8547 61.2507 47.8547 61.2507L53.68 69.7733C53.68 69.7733 53.68 73.7627 59.1653 82.308C59.0067 82.308 63.1773 81.152 63.2907 81.0613C63.2907 81.0613 60.48 69.7507 59.8 68.096C59.12 66.4413 57.1253 59.324 54.7227 55.516C54.7227 53.748 53.816 49.8493 53.816 49.8493L46.948 51.1187Z" fill="#FAF5EB"/>
<path d="M58.7578 53.2493C58.7578 53.2493 59.6645 55.924 60.0045 56.4227C60.7071 57.4427 61.9311 58.0547 62.5205 56.4227C63.1098 54.7907 61.5458 51.436 61.5458 51.436L58.7578 53.2493Z" fill="#E5B092"/>
<path d="M53.6341 36.68L58.3715 46.88C58.3715 46.88 61.7715 51.572 61.9301 52.0707C62.0661 52.5013 59.7541 53.748 59.1195 54.0653C59.0288 54.1107 58.8928 54.1333 58.8021 54.0653C58.0995 53.748 55.2888 52.3427 54.3821 50.0307C53.3395 47.356 53.6341 36.68 53.6341 36.68Z" fill="#E9F4FC"/>
<path d="M51.6857 34.3C51.6857 34.3 53.771 36.1813 54.3603 39.1733C54.9497 42.1653 54.9497 49.0107 55.403 53.816C55.403 53.816 53.2723 57.4427 47.1523 55.2213L50.6203 35.2293L51.6857 34.3Z" fill="#EFF3C1"/>
<path d="M51.3438 36.9067L53.9051 36.1133V36.9067L51.3438 37.6773V36.9067Z" fill="#E9F4FC"/>
<path d="M51.8887 38.5387L54.4727 37.7453V38.5387L51.8887 39.3093V38.5387Z" fill="#E9F4FC"/>
<path d="M52.0254 40.1707L54.6094 39.3773V40.1707L52.0254 40.9414V40.1707Z" fill="#E9F4FC"/>
<path d="M52.5684 41.78L55.1524 41.0093V41.78L52.5684 42.5507V41.78Z" fill="#E9F4FC"/>
<path d="M52.5 43.6613L55.084 42.868V43.6613L52.5 44.4093V43.6613Z" fill="#E9F4FC"/>
<path d="M50.3926 46.1773L55.6286 44.5V45.2707L50.3926 46.948V46.1773Z" fill="#E9F4FC"/>
<path d="M50.5293 47.7867L55.7653 46.132V46.9027L50.5293 48.5574V47.7867Z" fill="#E9F4FC"/>
<path d="M51.0723 49.4187L56.3083 47.7413V48.5347L51.0723 50.1893V49.4187Z" fill="#E9F4FC"/>
<path d="M50.4375 51.4814L55.6962 49.804V50.5973L50.4375 52.252V51.4814Z" fill="#E9F4FC"/>
<path d="M50.5742 53.1133L55.8102 51.436V52.2293L50.5742 53.884V53.1133Z" fill="#E9F4FC"/>
<path d="M51.1406 54.7454L56.3766 53.068V53.8614L51.1406 55.516V54.7454Z" fill="#E9F4FC"/>
<path d="M38.2662 55.5613C38.2662 55.5613 36.4302 57.7147 37.8582 59.3693C39.2862 61.024 41.3942 58.78 41.4396 56.4L38.2662 55.5613Z" fill="#E5B092"/>
<path d="M52.6608 31.988L50.7115 36.6347L48.6035 32.6227L52.6608 31.988Z" fill="#E5B092"/>
<path d="M46.2687 30.2427C46.2687 30.2427 40.3754 31.24 40.1714 36.1133C39.9447 40.9867 43.2314 37.972 43.2314 37.972L47.6287 33.416L47.878 31.988L46.2687 30.2427Z" fill="#E9F4FC"/>
<path d="M56.99 25.9133C57.6247 29.1773 55.9927 32.6907 52.7287 33.3253C49.4647 33.96 46.2913 31.8067 45.6793 28.5427C45.0447 25.2787 47.198 22.1053 50.462 21.4933C53.726 20.836 56.3553 22.6267 56.99 25.9133Z" fill="#E5B092"/>
<path d="M45.7232 22.7853C42.1419 28.1347 49.1912 32.9173 47.8765 32.0107L49.8712 30.3107C49.8712 30.3107 47.7179 28.9053 49.3725 27.7267C51.0272 26.548 50.8232 28.384 50.8232 28.384L52.4779 25.4373L55.3339 25.8C55.3565 25.7773 56.9659 25.936 56.9885 25.8907C58.4845 23.964 56.8072 20.7453 54.4725 21.4253C54.4725 21.4027 49.0552 17.776 45.7232 22.7853Z" fill="#553C32"/>
<path d="M46.5169 32.2827C46.5169 32.2827 52.5463 36.9747 52.6596 38.6293C52.7503 40.2387 52.4556 48.784 50.8916 55.5613C50.7783 56.0147 50.3703 56.3093 49.9169 56.2867C47.9676 56.1733 43.0489 55.788 41.9609 54.496C41.9609 54.4733 43.8649 34.8667 46.5169 32.2827Z" fill="#E9F4FC"/>
<path d="M45.7916 33.416C45.7916 33.416 42.8903 35.388 41.9609 36.1133C41.9609 36.1133 44.5903 37.9947 44.8849 40.148L45.7916 33.416Z" fill="#E9F4FC"/>
<path d="M41.4399 38.9013C41.4399 38.9013 47.0386 38.8107 46.7212 40.1707L52.4786 41.0093L52.6599 38.6293C52.6599 38.6293 48.0132 32.3053 46.5172 32.2827C45.0439 32.26 41.2586 34.708 41.4399 38.9013Z" fill="#1C72B0"/>
<path d="M40.2832 35.2293C40.2832 35.2293 41.3712 30.764 42.0965 30.2653C42.8219 29.7667 45.8139 30.356 45.8139 30.356L40.2832 35.2293Z" fill="#E9F4FC"/>
<path d="M51.6855 34.3C51.6855 34.3 54.2242 35.0253 55.4029 34.6627C55.4029 34.6627 56.3775 36.9747 56.8989 38.6067C58.5082 43.684 57.4882 51.3227 57.5789 54.2467C57.5789 54.2467 56.8762 55.108 55.3349 55.4253C54.9949 55.4933 54.6775 55.1987 54.7002 54.8587C54.9042 51.572 55.6069 37.0427 51.6855 34.3Z" fill="#E9F4FC"/>
<path d="M41.6435 52.7507C41.6435 52.7507 47.4462 54.1333 49.3048 54.1787C51.1635 54.224 51.1635 54.224 51.1635 54.224C51.1635 54.224 51.4808 55.1533 50.8462 56.1053C50.7102 56.2867 50.5062 56.4 50.2795 56.4C48.8062 56.3547 42.9808 56.128 41.4168 54.8587C39.6262 53.3627 41.6435 52.7507 41.6435 52.7507Z" fill="#E9F4FC"/>
<path d="M41.6208 38.2893C41.6208 38.2893 43.5928 33.4613 46.7434 35.9093C49.8941 38.3573 44.9074 47.4693 44.9074 47.4693C44.9074 47.4693 44.1821 51.5493 41.8928 55.9013C41.7114 56.2413 41.3714 56.4453 40.9861 56.4227C40.3288 56.3773 39.2408 56.2187 38.2661 55.584C37.9488 55.38 37.8128 54.9947 37.8581 54.632C38.1074 53.0453 38.8328 48.5573 39.5581 45.8373C40.4194 42.4827 41.6208 38.2893 41.6208 38.2893Z" fill="#E9F4FC"/>
<path d="M54.745 53.5893C54.745 53.5893 56.6943 53.4533 57.5556 52.728C57.5556 52.728 58.0543 53.816 57.5556 54.2693C57.057 54.7227 54.9716 56.468 54.6543 54.8813L54.745 53.5893Z" fill="#1C72B0"/>
<path d="M51.685 38.0173C51.685 38.0173 52.3877 41.1453 51.4357 44.908C51.4357 44.908 51.9344 46.0867 50.8917 49.94C50.8917 49.94 50.8464 52.7733 49.9397 54.2013C49.9397 54.2013 49.9397 55.448 49.373 56.4227C49.373 56.4227 50.3477 56.7853 50.869 56.128C51.413 55.4707 51.345 54.1787 51.345 54.1787C51.345 54.1787 51.9797 52.388 51.9797 49.9627C51.9797 49.9627 52.8184 47.288 52.4104 45.1573C52.4104 45.1573 53.113 41.508 52.6597 38.652L51.685 38.0173Z" fill="#1C72B0"/>
<path d="M41.9615 35.66C43.4121 33.0533 46.0641 32.5093 47.0161 34.3907C47.7868 35.9093 50.5975 38.72 52.6601 38.6067C52.6601 38.6067 50.1441 31.9653 45.7921 30.3333C45.7921 30.356 40.3068 34.4813 41.9615 35.66Z" fill="#E9F4FC"/>
<defs>
<linearGradient id="paint0_linear_5988_40104" x1="100.592" y1="12.2714" x2="-0.62668" y2="13.2095" gradientUnits="userSpaceOnUse">
<stop stop-color="#F4EBD7"/>
<stop offset="1" stop-color="#26264F"/>
</linearGradient>
<linearGradient id="paint1_linear_5988_40104" x1="6.11632" y1="53.0056" x2="99.9506" y2="53.0056" gradientUnits="userSpaceOnUse">
<stop stop-color="#A56C0B"/>
<stop offset="0.191" stop-color="#B2801D"/>
<stop offset="0.566" stop-color="#C9A33D"/>
<stop offset="0.661" stop-color="#CEAB44"/>
<stop offset="0.807" stop-color="#DDC059"/>
<stop offset="0.985" stop-color="#F6E37A"/>
<stop offset="1" stop-color="#F8E67D"/>
</linearGradient>
</defs>
</svg>
