<svg width="24" height="24" viewBox="0 0 24 24" fill="none" xmlns="http://www.w3.org/2000/svg">
<g clip-path="url(#clip0_1998_10923)">
<path d="M0.00847054 9.53498C0.00847054 10.4362 0.492737 11.2266 1.2147 11.6594C0.938095 12.0588 0.775862 12.5434 0.775862 13.0649C0.775862 14.4296 1.88614 15.5399 3.25081 15.5399H8.47541C8.31528 16.2655 8.09628 17.3544 7.9438 18.4942C7.54696 21.4605 7.81817 23.1056 8.79725 23.6714C9.40766 24.024 10.0658 24.0955 10.6504 23.873C11.102 23.7009 11.712 23.278 12.0596 22.2399L13.4327 18.6446C14.3434 16.3954 17.7116 13.9994 18.5088 13.4556H23.2803C23.6724 13.4556 23.9902 13.1377 23.9902 12.7456L23.9902 2.31792C23.9902 1.92581 23.6723 1.60795 23.2803 1.60795H18.4276C15.7226 0.541122 12.8769 -3.8147e-06 9.96692 -3.8147e-06L4.27414 -3.8147e-06C2.90947 -3.8147e-06 1.79919 1.11028 1.79919 2.47495C1.79919 2.95284 1.93536 3.39956 2.17091 3.77826C1.34586 4.18007 0.775955 5.02729 0.775955 6.00496C0.775955 6.52659 0.938189 7.01109 1.2148 7.41051C0.492737 7.84336 0.00847054 8.63372 0.00847054 9.53498ZM19.0028 3.02784H22.5703L22.5703 12.0356H19.0028L19.0028 3.02784ZM2.48347 8.47997H3.25086C3.64297 8.47997 3.96083 8.16206 3.96083 7.77C3.96083 7.37789 3.64292 7.06003 3.25086 7.06003C2.66914 7.06003 2.19585 6.58673 2.19585 6.00496C2.19585 5.42325 2.66914 4.94995 3.25086 4.94995H4.2741C4.6662 4.94995 4.98406 4.63204 4.98406 4.23998C4.98406 3.84792 4.66616 3.53001 4.2741 3.53001C3.69238 3.53001 3.21908 3.05672 3.21908 2.475C3.21908 1.89328 3.69238 1.41998 4.2741 1.41998L9.96688 1.41998C12.5818 1.41998 15.1413 1.88522 17.5828 2.80359L17.5828 12.3678C16.5106 13.1075 13.1345 15.5856 12.1132 18.1197C12.1116 18.1237 12.11 18.1277 12.1085 18.1318L10.7274 21.7478C10.7235 21.758 10.7199 21.7682 10.7165 21.7785C10.5826 22.184 10.3797 22.4565 10.1449 22.5459C9.91728 22.6327 9.67269 22.5372 9.50764 22.4418C9.50155 22.4383 8.90928 21.9966 9.34972 18.6934C9.59989 16.8174 10.0543 15.0232 10.0588 15.0052C10.1129 14.7929 10.0658 14.5673 9.93139 14.3943C9.79686 14.2212 9.59 14.1199 9.37077 14.1199H3.25072C2.669 14.1199 2.19571 13.6466 2.19571 13.0649C2.19571 12.4832 2.669 12.0099 3.25072 12.0099C3.64283 12.0099 3.96069 11.692 3.96069 11.2999C3.96069 10.9078 3.64278 10.59 3.25072 10.59H2.48333C1.90161 10.59 1.42831 10.1167 1.42831 9.53493C1.42836 8.95326 1.90175 8.47997 2.48347 8.47997Z" fill="black"/>
</g>
<defs>
<clipPath id="clip0_1998_10923">
<rect width="24" height="24" fill="white" transform="matrix(-1 0 0 -1 24 24)"/>
</clipPath>
</defs>
</svg>
