<svg width="33" height="33" viewBox="0 0 33 33" fill="none" xmlns="http://www.w3.org/2000/svg">
<path d="M24.0986 13.6777C25.0433 13.6777 25.9667 13.3975 26.7522 12.8727C27.5377 12.3479 28.1499 11.6019 28.5114 10.7292C28.8729 9.8564 28.9675 8.89604 28.7832 7.96952C28.5989 7.043 28.144 6.19194 27.476 5.52396C26.808 4.85598 25.9569 4.40107 25.0304 4.21678C24.1039 4.03248 23.1435 4.12707 22.2708 4.48858C21.398 4.85009 20.6521 5.46228 20.1272 6.24775C19.6024 7.03321 19.3223 7.95667 19.3223 8.90134C19.3238 10.1676 19.8275 11.3817 20.7229 12.2771C21.6183 13.1725 22.8323 13.6762 24.0986 13.6777ZM24.0986 4.99343C24.8715 4.99343 25.6271 5.22262 26.2697 5.65203C26.9124 6.08144 27.4133 6.69177 27.709 7.40585C28.0048 8.11992 28.0822 8.90567 27.9314 9.66374C27.7806 10.4218 27.4084 11.1181 26.8619 11.6647C26.3154 12.2112 25.6191 12.5834 24.861 12.7342C24.1029 12.885 23.3172 12.8076 22.6031 12.5118C21.889 12.216 21.2787 11.7151 20.8493 11.0725C20.4199 10.4298 20.1907 9.67425 20.1907 8.90134C20.1918 7.86525 20.6039 6.87192 21.3366 6.1393C22.0692 5.40667 23.0625 4.99458 24.0986 4.99343Z" fill="#082133"/>
<path d="M22.7962 26.7041H22.3619C22.2468 26.7041 22.1363 26.7498 22.0549 26.8313C21.9735 26.9127 21.9277 27.0232 21.9277 27.1383C21.9277 27.2535 21.9735 27.3639 22.0549 27.4453C22.1363 27.5268 22.2468 27.5725 22.3619 27.5725H22.7962C22.9113 27.5725 23.0218 27.5268 23.1032 27.4453C23.1846 27.3639 23.2304 27.2535 23.2304 27.1383C23.2304 27.0232 23.1846 26.9127 23.1032 26.8313C23.0218 26.7498 22.9113 26.7041 22.7962 26.7041Z" fill="#082133"/>
<path d="M21.928 16.2832H21.4938C21.3786 16.2832 21.2682 16.329 21.1867 16.4104C21.1053 16.4918 21.0596 16.6023 21.0596 16.7174C21.0596 16.8326 21.1053 16.943 21.1867 17.0245C21.2682 17.1059 21.3786 17.1516 21.4938 17.1516H21.928C22.0432 17.1516 22.1536 17.1059 22.235 17.0245C22.3165 16.943 22.3622 16.8326 22.3622 16.7174C22.3622 16.6023 22.3165 16.4918 22.235 16.4104C22.1536 16.329 22.0432 16.2832 21.928 16.2832Z" fill="#082133"/>
<path d="M21.9274 8.46706H22.3616C22.4767 8.46706 22.5872 8.42131 22.6686 8.33988C22.7501 8.25845 22.7958 8.14801 22.7958 8.03285C22.7958 7.91768 22.7501 7.80724 22.6686 7.72581C22.5872 7.64438 22.4767 7.59863 22.3616 7.59863H21.9274C21.8122 7.59863 21.7018 7.64438 21.6203 7.72581C21.5389 7.80724 21.4932 7.91768 21.4932 8.03285C21.4932 8.14801 21.5389 8.25845 21.6203 8.33988C21.7018 8.42131 21.8122 8.46706 21.9274 8.46706Z" fill="#082133"/>
<path d="M25.8356 8.46706H26.2698C26.385 8.46706 26.4954 8.42131 26.5768 8.33988C26.6583 8.25845 26.704 8.14801 26.704 8.03285C26.704 7.91768 26.6583 7.80724 26.5768 7.72581C26.4954 7.64438 26.385 7.59863 26.2698 7.59863H25.8356C25.7204 7.59863 25.61 7.64438 25.5285 7.72581C25.4471 7.80724 25.4014 7.91768 25.4014 8.03285C25.4014 8.14801 25.4471 8.25845 25.5285 8.33988C25.61 8.42131 25.7204 8.46706 25.8356 8.46706Z" fill="#082133"/>
<path d="M23.2298 17.5854H22.7955C22.6804 17.5854 22.5699 17.6312 22.4885 17.7126C22.4071 17.7941 22.3613 17.9045 22.3613 18.0197C22.3613 18.1348 22.4071 18.2453 22.4885 18.3267C22.5699 18.4081 22.6804 18.4539 22.7955 18.4539H23.2298C23.3449 18.4539 23.4554 18.4081 23.5368 18.3267C23.6182 18.2453 23.664 18.1348 23.664 18.0197C23.664 17.9045 23.6182 17.7941 23.5368 17.7126C23.4554 17.6312 23.3449 17.5854 23.2298 17.5854Z" fill="#082133"/>
<path d="M24.5335 18.8882H24.0993C23.9841 18.8882 23.8736 18.9339 23.7922 19.0154C23.7108 19.0968 23.665 19.2072 23.665 19.3224C23.665 19.4376 23.7108 19.548 23.7922 19.6294C23.8736 19.7109 23.9841 19.7566 24.0993 19.7566H24.5335C24.6486 19.7566 24.7591 19.7109 24.8405 19.6294C24.9219 19.548 24.9677 19.4376 24.9677 19.3224C24.9677 19.2072 24.9219 19.0968 24.8405 19.0154C24.7591 18.9339 24.6486 18.8882 24.5335 18.8882Z" fill="#082133"/>
<path d="M26.2697 26.7041H24.5328C24.4177 26.7041 24.3072 26.7498 24.2258 26.8313C24.1444 26.9127 24.0986 27.0232 24.0986 27.1383C24.0986 27.2535 24.1444 27.3639 24.2258 27.4453C24.3072 27.5268 24.4177 27.5725 24.5328 27.5725H26.2697C26.3849 27.5725 26.4953 27.5268 26.5767 27.4453C26.6582 27.3639 26.7039 27.2535 26.7039 27.1383C26.7039 27.0232 26.6582 26.9127 26.5767 26.8313C26.4953 26.7498 26.3849 26.7041 26.2697 26.7041Z" fill="#082133"/>
<path d="M27.5725 24.34V24.3157C27.5687 21.6281 26.5889 19.0333 24.8151 17.0141C23.0414 14.995 20.5946 13.6888 17.9299 13.3388C18.2659 12.9502 18.4518 12.4543 18.454 11.9406C18.454 11.3648 18.2253 10.8126 17.8181 10.4054C17.411 9.99827 16.8588 9.76953 16.2829 9.76953C15.7071 9.76953 15.1549 9.99827 14.7478 10.4054C14.3406 10.8126 14.1119 11.3648 14.1119 11.9406C14.1141 12.4543 14.3 12.9502 14.636 13.3388C11.9713 13.6888 9.52448 14.995 7.75076 17.0141C5.97703 19.0333 4.99716 21.6281 4.99342 24.3157V24.34C4.73029 24.4912 4.51154 24.709 4.35912 24.9715C4.2067 25.234 4.12596 25.5319 4.125 25.8354V27.138C4.125 27.5987 4.30799 28.0404 4.63371 28.3662C4.95943 28.6919 5.40121 28.8749 5.86185 28.8749H26.704C27.1647 28.8749 27.6065 28.6919 27.9322 28.3662C28.2579 28.0404 28.4409 27.5987 28.4409 27.138V25.8354C28.4399 25.5319 28.3592 25.234 28.2068 24.9715C28.0544 24.709 27.8356 24.4912 27.5725 24.34ZM16.2829 10.638C16.5406 10.638 16.7924 10.7144 17.0067 10.8575C17.2209 11.0006 17.3878 11.2041 17.4864 11.4421C17.585 11.6801 17.6108 11.942 17.5606 12.1947C17.5103 12.4474 17.3862 12.6795 17.2041 12.8617C17.0219 13.0439 16.7898 13.1679 16.5371 13.2182C16.2844 13.2685 16.0225 13.2427 15.7845 13.1441C15.5464 13.0455 15.343 12.8785 15.1998 12.6643C15.0567 12.4501 14.9803 12.1982 14.9803 11.9406C14.9803 11.5951 15.1176 11.2638 15.3618 11.0195C15.6061 10.7752 15.9375 10.638 16.2829 10.638ZM16.0658 14.1117H16.5001C19.1682 14.114 21.7296 15.1602 23.6364 17.0265C25.5433 18.8928 26.6443 21.431 26.704 24.0985H5.86402C5.92378 21.4314 7.0245 18.8935 8.93088 17.0273C10.8373 15.1611 13.3981 14.1146 16.0658 14.1117ZM27.5725 27.138C27.5725 27.3684 27.481 27.5892 27.3181 27.7521C27.1553 27.915 26.9344 28.0065 26.704 28.0065H5.86185C5.63153 28.0065 5.41064 27.915 5.24778 27.7521C5.08492 27.5892 4.99342 27.3684 4.99342 27.138V25.8354C4.99342 25.6051 5.08492 25.3842 5.24778 25.2213C5.41064 25.0585 5.63153 24.967 5.86185 24.967H26.704C26.9344 24.967 27.1553 25.0585 27.3181 25.2213C27.481 25.3842 27.5725 25.6051 27.5725 25.8354V27.138Z" fill="#082133"/>
<path d="M22.0146 10.3776C21.9455 10.4697 21.9158 10.5855 21.9321 10.6995C21.9484 10.8135 22.0093 10.9164 22.1014 10.9855C22.1935 11.0546 22.3094 11.0842 22.4234 11.0679C22.5374 11.0516 22.6402 10.9907 22.7093 10.8986C22.8711 10.6829 23.0809 10.5078 23.3221 10.3872C23.5632 10.2667 23.8292 10.2039 24.0988 10.2039C24.3684 10.2039 24.6344 10.2667 24.8755 10.3872C25.1167 10.5078 25.3265 10.6829 25.4883 10.8986C25.5574 10.9907 25.6602 11.0516 25.7742 11.0679C25.8882 11.0842 26.004 11.0546 26.0962 10.9855C26.1883 10.9164 26.2492 10.8135 26.2655 10.6995C26.2818 10.5855 26.2521 10.4697 26.183 10.3776C25.9403 10.054 25.6257 9.79137 25.2639 9.6105C24.9022 9.42962 24.5033 9.33545 24.0988 9.33545C23.6943 9.33545 23.2954 9.42962 22.9337 9.6105C22.5719 9.79137 22.2573 10.054 22.0146 10.3776Z" fill="#082133"/>
<path d="M6.73109 16.2827C6.84625 16.2827 6.95669 16.237 7.03812 16.1555C7.11955 16.0741 7.1653 15.9637 7.1653 15.8485V10.2037C7.1653 10.0886 7.11955 9.97814 7.03812 9.89671C6.95669 9.81528 6.84625 9.76953 6.73109 9.76953C6.61593 9.76953 6.50548 9.81528 6.42405 9.89671C6.34262 9.97814 6.29688 10.0886 6.29688 10.2037V15.8485C6.29688 15.9637 6.34262 16.0741 6.42405 16.1555C6.50548 16.237 6.61593 16.2827 6.73109 16.2827Z" fill="#082133"/>
<path d="M4.99281 15.8485C5.10797 15.8485 5.21841 15.8027 5.29984 15.7213C5.38127 15.6399 5.42702 15.5294 5.42702 15.4143V11.9406C5.42702 11.8254 5.38127 11.715 5.29984 11.6335C5.21841 11.5521 5.10797 11.5063 4.99281 11.5063C4.87765 11.5063 4.7672 11.5521 4.68577 11.6335C4.60434 11.715 4.55859 11.8254 4.55859 11.9406V15.4143C4.55859 15.5294 4.60434 15.6399 4.68577 15.7213C4.7672 15.8027 4.87765 15.8485 4.99281 15.8485Z" fill="#082133"/>
<path d="M11.5065 12.8094C11.6216 12.8094 11.7321 12.7637 11.8135 12.6823C11.8949 12.6008 11.9407 12.4904 11.9407 12.3752V7.16468C11.9407 7.04952 11.8949 6.93908 11.8135 6.85765C11.7321 6.77622 11.6216 6.73047 11.5065 6.73047C11.3913 6.73047 11.2809 6.77622 11.1994 6.85765C11.118 6.93908 11.0723 7.04952 11.0723 7.16468V12.3752C11.0723 12.4904 11.118 12.6008 11.1994 12.6823C11.2809 12.7637 11.3913 12.8094 11.5065 12.8094Z" fill="#082133"/>
<path d="M9.76917 9.33584C9.88433 9.33584 9.99478 9.29009 10.0762 9.20866C10.1576 9.12723 10.2034 9.01679 10.2034 8.90163V8.46742C10.2034 8.35226 10.1576 8.24181 10.0762 8.16038C9.99478 8.07895 9.88433 8.0332 9.76917 8.0332C9.65401 8.0332 9.54357 8.07895 9.46214 8.16038C9.38071 8.24181 9.33496 8.35226 9.33496 8.46742V8.90163C9.33496 9.01679 9.38071 9.12723 9.46214 9.20866C9.54357 9.29009 9.65401 9.33584 9.76917 9.33584Z" fill="#082133"/>
<path d="M9.76917 12.8094C9.88433 12.8094 9.99478 12.7636 10.0762 12.6822C10.1576 12.6008 10.2034 12.4903 10.2034 12.3752V10.6383C10.2034 10.5232 10.1576 10.4127 10.0762 10.3313C9.99478 10.2498 9.88433 10.2041 9.76917 10.2041C9.65401 10.2041 9.54357 10.2498 9.46214 10.3313C9.38071 10.4127 9.33496 10.5232 9.33496 10.6383V12.3752C9.33496 12.4903 9.38071 12.6008 9.46214 12.6822C9.54357 12.7636 9.65401 12.8094 9.76917 12.8094Z" fill="#082133"/>
</svg>
