<svg width="12" height="12" viewBox="0 0 12 12" fill="none" xmlns="http://www.w3.org/2000/svg">
<g clip-path="url(#clip0_1142_2053)">
<path d="M6 12C4.39734 12 2.89059 11.3759 1.75734 10.2427C0.624094 9.10941 0 7.60266 0 6C0 4.39734 0.624117 2.89062 1.75734 1.75734C2.89057 0.62407 4.39734 0 6 0C7.60266 0 9.10941 0.624094 10.2427 1.75734C11.3759 2.89059 12 4.39734 12 6C12 7.60266 11.3759 9.10938 10.2427 10.2427C9.10943 11.3759 7.60266 12 6 12ZM6 0.75C3.10514 0.75 0.75 3.10514 0.75 6C0.75 8.89486 3.10514 11.25 6 11.25C8.89486 11.25 11.25 8.89486 11.25 6C11.25 3.10514 8.89486 0.75 6 0.75Z" fill="#141005"/>
<path d="M6 5.625C5.48306 5.625 5.0625 5.20444 5.0625 4.6875C5.0625 4.17056 5.48306 3.75 6 3.75C6.51694 3.75 6.9375 4.17056 6.9375 4.6875C6.9375 4.89459 7.10538 5.0625 7.3125 5.0625C7.51962 5.0625 7.6875 4.89459 7.6875 4.6875C7.6875 3.88591 7.12552 3.21356 6.375 3.04252V2.625C6.375 2.41791 6.20712 2.25 6 2.25C5.79288 2.25 5.625 2.41791 5.625 2.625V3.04252C4.87448 3.21356 4.3125 3.88591 4.3125 4.6875C4.3125 5.61799 5.06951 6.375 6 6.375C6.51694 6.375 6.9375 6.79556 6.9375 7.3125C6.9375 7.82944 6.51694 8.25 6 8.25C5.48306 8.25 5.0625 7.82944 5.0625 7.3125C5.0625 7.10541 4.89462 6.9375 4.6875 6.9375C4.48038 6.9375 4.3125 7.10541 4.3125 7.3125C4.3125 8.11409 4.87448 8.78644 5.625 8.95748V9.375C5.625 9.58209 5.79288 9.75 6 9.75C6.20712 9.75 6.375 9.58209 6.375 9.375V8.95748C7.12552 8.78644 7.6875 8.11409 7.6875 7.3125C7.6875 6.38201 6.93049 5.625 6 5.625Z" fill="#141005"/>
</g>
<defs>
<clipPath id="clip0_1142_2053">
<rect width="12" height="12" fill="white"/>
</clipPath>
</defs>
</svg>
