<svg width="16" height="16" viewBox="0 0 16 16" fill="none" xmlns="http://www.w3.org/2000/svg">
<g clip-path="url(#clip0_1217_6025)">
<path d="M14.9708 6.53844L13.972 6.73632C13.8446 6.76169 13.7619 6.88504 13.7873 7.01247C13.8123 7.1396 13.936 7.22194 14.0631 7.19719C15.1208 6.99 15.0736 6.99147 15.1386 6.99147C15.3246 6.99147 15.4858 7.12422 15.5218 7.30675L15.5228 7.31144C15.5649 7.52454 15.4258 7.72988 15.215 7.77138L11.3529 8.53629C11.4568 8.26766 11.5254 7.9846 11.5548 7.69404L13.1416 7.37969C13.2691 7.35432 13.3517 7.23066 13.3263 7.10354C13.3013 6.97641 13.1776 6.89375 13.0505 6.91882L11.567 7.2125C11.5543 6.95379 11.5152 6.77922 11.5066 6.72594C11.4559 6.47013 11.2298 6.28447 10.9693 6.28447C10.8691 6.28447 11.3754 6.19716 2.92141 7.86813C2.79397 7.89319 2.71131 8.01685 2.73669 8.14397C2.76175 8.2711 2.88541 8.35375 3.01253 8.32869L10.9537 6.75569C10.9997 6.74757 11.0377 6.77704 11.0457 6.81738C11.0944 7.13079 11.1312 7.38854 11.0692 7.79019C10.9611 8.49213 10.5836 9.12963 10.025 9.56013C9.60306 8.50763 9.08494 8.60719 8.85588 9.15904C8.69837 9.53882 8.48703 9.89357 8.23031 10.2123L8.04025 10.2498C8.01709 10.0348 7.95603 9.8256 7.86053 9.63554C7.72616 9.36891 7.34003 9.38535 7.2265 9.659C7.17609 9.78079 7.11034 9.89635 7.03175 10.0015L6.43122 8.99272C6.29581 8.76569 5.97019 8.76532 5.83287 8.98835C5.73175 9.1521 5.61341 9.34747 5.501 9.55382C5.43869 9.66747 5.48066 9.81025 5.59462 9.87225C5.70828 9.93457 5.85106 9.8926 5.91306 9.77894C5.98444 9.64838 6.05897 9.52125 6.12941 9.40416L6.78128 10.4991C6.78528 10.5035 6.83016 10.6077 6.95756 10.6265C7.02769 10.6368 7.09847 10.6152 7.15044 10.5676C7.30219 10.4286 7.43178 10.2669 7.53431 10.0917C7.61387 10.383 7.59466 10.7081 7.4645 10.9875C7.36 11.2114 7.62881 11.424 7.82206 11.2718C8.9215 10.4094 9.26041 9.37263 9.32837 9.26169C9.65356 9.65207 10.0296 10.723 9.57697 11.7158C9.48597 11.9151 9.69481 12.1198 9.89256 12.0248C10.262 11.8463 10.5961 11.5949 10.8722 11.2893C10.8412 11.696 10.5579 12.12 10.1565 12.3563H5.71994C5.43412 11.9298 5.31744 11.3295 5.55212 10.5952C5.59125 10.4715 5.523 10.3397 5.39934 10.3002C5.27566 10.2611 5.14384 10.3293 5.10441 10.453C5.0615 10.5889 5.02769 10.7207 5.00328 10.8513C3.82497 11.0715 3.63031 11.1568 3.18825 11.1568C1.87134 11.1568 0.72978 10.2179 0.473374 8.9235L0.471187 8.91191C0.462562 8.87541 0.486155 8.829 0.532562 8.81985L2.09116 8.51113C2.21859 8.48607 2.30125 8.36241 2.27587 8.23529C2.25081 8.10785 2.12716 8.0255 2.00003 8.05057L0.441437 8.35929C0.152437 8.41625 -0.0487196 8.69791 0.0103117 9.00366L0.0128117 9.01494C0.312437 10.5282 1.64781 11.6265 3.18828 11.6265C3.69087 11.6265 3.95609 11.5239 4.95509 11.3397C4.95553 11.6994 5.03753 12.0558 5.18612 12.3648H2.76225C2.41984 12.3648 2.14128 12.6433 2.14128 12.9858V14.3112C2.14128 14.6536 2.41984 14.9322 2.76225 14.9322H3.47566V15.4488C3.47566 15.5785 3.58075 15.6836 3.71047 15.6836H12.2894C12.4191 15.6836 12.5242 15.5785 12.5242 15.4488V14.9323H13.2376C13.58 14.9323 13.8586 14.6538 13.8586 14.3113V12.9859C13.8586 12.6435 13.58 12.3649 13.2376 12.3649H10.8765C11.2337 11.9634 11.432 11.4115 11.3075 10.9024C11.2379 10.615 10.8647 10.5371 10.6866 10.7759C10.5485 10.9616 10.3867 11.1294 10.2069 11.2737C10.2857 10.8591 10.2686 10.4401 10.1728 10.0307C10.2719 9.98254 10.7481 9.62125 11.0889 9.06763L15.3061 8.23229C15.7081 8.15244 15.9999 7.79772 15.9999 7.38819C15.9999 6.84322 15.5052 6.43279 14.9708 6.53844ZM2.76225 14.4627C2.67881 14.4627 2.61094 14.3948 2.61094 14.3113V12.9859C2.61094 12.9024 2.67881 12.8346 2.76225 12.8346H7.76509V14.4627C7.22575 14.4627 3.33584 14.4627 2.76225 14.4627ZM12.0546 15.2141H3.94531V14.9323H12.0546V15.2141H12.0546ZM13.2376 12.8345C13.3211 12.8345 13.3889 12.9024 13.3889 12.9858V14.3113C13.3889 14.3948 13.3211 14.4626 13.2376 14.4626C12.6902 14.4626 8.75984 14.4626 8.23478 14.4626V12.8345L13.2376 12.8345Z" fill="#141005"/>
<path d="M10.5268 2.12796C10.443 2.02899 10.2948 2.01674 10.1959 2.10062L9.48739 2.70103C8.92377 2.25156 8.08386 2.39106 7.70058 3.00959C6.45333 3.02031 5.74324 4.50003 6.57286 5.4789C7.40136 6.45656 8.97836 6.00181 9.19364 4.77134C9.86558 4.49515 10.1426 3.68999 9.79108 3.05931L10.4995 2.4589C10.5984 2.37506 10.6106 2.22687 10.5268 2.12796ZM8.91949 4.36887C8.8218 4.39431 8.7513 4.47927 8.74433 4.57999C8.68039 5.50934 7.52136 5.87187 6.93108 5.17534C6.33421 4.47106 6.90049 3.39578 7.81567 3.48415C7.91633 3.49368 8.01155 3.43824 8.05264 3.34609C8.23299 2.94162 8.73245 2.7809 9.11745 3.01456L7.66774 4.24318C7.50061 4.38481 7.60246 4.65715 7.81967 4.65715C7.97546 4.65715 7.91211 4.62496 9.42108 3.37281C9.5883 3.79056 9.34849 4.25718 8.91949 4.36887Z" fill="#141005"/>
<path d="M5.78559 0.587402C5.24849 0.587402 4.81152 1.02437 4.81152 1.56146C4.81152 2.09856 5.24849 2.53553 5.78559 2.53553C6.32271 2.53553 6.75968 2.09856 6.75968 1.56146C6.75968 1.02437 6.32271 0.587402 5.78559 0.587402ZM5.78559 2.06584C5.50746 2.06584 5.28118 1.83953 5.28118 1.56143C5.28118 1.28334 5.50749 1.05703 5.78559 1.05703C6.06374 1.05703 6.29002 1.28334 6.29002 1.56143C6.29002 1.83953 6.06371 2.06584 5.78559 2.06584Z" fill="#141005"/>
<path d="M1.34564 5.78271C0.808551 5.78271 0.371582 6.21968 0.371582 6.75678C0.371582 7.29387 0.808551 7.73084 1.34564 7.73084C1.88274 7.73084 2.31971 7.29387 2.31971 6.75678C2.31971 6.21968 1.88274 5.78271 1.34564 5.78271ZM1.34568 7.26118C1.06758 7.26118 0.84127 7.03487 0.84127 6.75678C0.84127 6.47868 1.06758 6.25237 1.34568 6.25237C1.62377 6.25237 1.85008 6.47865 1.85008 6.75678C1.85008 7.0349 1.62377 7.26118 1.34568 7.26118Z" fill="#141005"/>
<path d="M5.19056 4.08112C4.76631 3.48562 3.82922 2.68187 3.03706 2.53753L2.55959 1.86687C2.87309 1.55681 2.92141 1.06222 2.66103 0.696499C2.20213 0.0521552 1.18688 0.264968 1.03353 1.04906C0.4815 0.971405 0 1.40034 0 1.94672C0 2.61125 0.702688 3.05809 1.30719 2.75891L1.86075 3.53603C1.7875 4.28772 2.10125 5.35419 2.53925 5.96944C3.17619 6.86356 4.29775 7.24287 5.05844 6.70147C5.73491 6.21969 5.90097 5.07962 5.19056 4.08112ZM2.27813 2.67C2.17638 2.74262 2.09184 2.83875 2.02547 2.95744L1.55675 2.29931C1.51144 2.23603 1.43963 2.20069 1.36544 2.20069C1.25516 2.20069 1.20866 2.26619 1.15941 2.30181C0.8675 2.50909 0.469656 2.29625 0.469656 1.94675C0.469656 1.60069 0.852656 1.3915 1.14344 1.57981C1.32219 1.69481 1.54916 1.53203 1.49881 1.32653C1.43197 1.04897 1.6415 0.785499 1.92212 0.785499C2.36972 0.785499 2.53341 1.388 2.12562 1.60862C1.99981 1.6745 1.96141 1.83716 2.04391 1.95241L2.48069 2.56578C2.40806 2.59116 2.34009 2.62591 2.27844 2.67003C2.27813 2.67 2.27813 2.67 2.27813 2.67ZM2.92153 5.69703C2.37934 4.93503 2.08528 3.38278 2.55081 3.05228C2.79391 2.87881 3.25572 3.07119 3.52203 3.21853C4.00294 3.48403 4.50984 3.93491 4.80794 4.35353C5.04841 4.69137 5.18084 5.07928 5.18084 5.44656C5.18084 6.71284 3.73044 6.83219 2.92153 5.69703Z" fill="#141005"/>
</g>
<defs>
<clipPath id="clip0_1217_6025">
<rect width="16" height="16" fill="white"/>
</clipPath>
</defs>
</svg>
