<svg width="33" height="33" viewBox="0 0 33 33" fill="none" xmlns="http://www.w3.org/2000/svg">
<path d="M27.6364 21.4926C28.634 20.0056 29.0996 18.2635 28.9822 16.4536C28.7279 12.4829 25.5982 9.2857 21.7017 9.0186C19.5383 8.87109 17.4648 9.60462 15.8726 11.0916C14.3038 12.5547 13.404 14.54 13.3258 16.7007L11.0528 20.6674C10.9824 20.791 10.9824 20.9425 11.0528 21.0661C11.1232 21.1896 11.2523 21.2654 11.3932 21.2654H13.318V24.9131C13.318 25.6905 13.94 26.3244 14.7029 26.3244H16.299V29.9721H17.0814V26.3244H18.3451V25.5271H14.7029C14.3703 25.5271 14.1004 25.252 14.1004 24.9131V20.8667C14.1004 20.6475 13.9243 20.4681 13.7092 20.4681H12.0739L14.0182 17.0715C14.073 17.0037 14.1043 16.92 14.1043 16.8283C14.1473 14.847 14.9611 13.0171 16.3968 11.6776C17.8326 10.3421 19.6987 9.68037 21.6469 9.81193C25.1522 10.0511 27.969 12.9294 28.1998 16.5014C28.3054 18.1319 27.8868 19.6987 26.987 21.0382C26.1107 22.3458 25.5239 23.5736 25.1913 24.7975C24.4363 27.5722 24.5693 29.9003 24.5732 30L25.3557 29.9522C25.3557 29.9282 25.2266 27.6519 25.9464 25.0128C26.2555 23.8766 26.8071 22.7245 27.6325 21.4926H27.6364Z" fill="#082133"/>
<path d="M24.398 16.885C24.873 15.8693 25.3322 14.5697 24.6672 13.518C24.0417 12.5263 22.8225 12.3463 21.6033 12.3064C21.5637 12.3064 21.5241 12.3064 21.4845 12.3064C21.061 12.0584 20.5701 11.9545 20.103 12.0184C19.0382 12.1624 18.0921 13.0981 17.7992 14.2858C17.6804 14.7616 17.6765 15.2375 17.7754 15.6653C17.3281 16.1092 17.0392 16.721 17.0035 17.3528C16.9837 17.7087 17.0471 18.0206 17.1896 18.2765C17.3954 18.6364 17.7319 18.8444 18.0644 19.0203C18.9155 19.4602 19.8259 19.7721 20.7681 19.94C20.9462 19.972 21.1402 20 21.342 20C21.635 20 21.9358 19.944 22.201 19.7601C22.6523 19.4482 22.8463 18.8484 22.6642 18.3285C22.6008 18.1526 22.5019 17.9966 22.3712 17.8687C22.5217 17.9846 22.6958 18.0606 22.8819 18.0846C23.2936 18.1406 23.8913 17.9766 24.394 16.893L24.398 16.885ZM20.6533 13.1861C20.8314 13.1181 21.0333 13.0981 21.2431 13.0941C21.2827 13.1221 21.3222 13.1541 21.3579 13.1901C21.6231 13.434 21.7656 13.7419 21.7498 14.0498C21.7458 14.1658 21.7181 14.2098 21.7102 14.2178C21.6983 14.2298 21.635 14.2578 21.3737 14.2218C21.0966 14.1858 20.8076 14.1498 20.586 14.0298C20.3999 13.9339 20.2732 13.7699 20.2732 13.622C20.2732 13.458 20.4316 13.2661 20.6493 13.1821L20.6533 13.1861ZM21.7616 19.0883C21.5518 19.2322 21.1995 19.1922 20.9145 19.1443C20.8987 19.1443 20.8789 19.1363 20.8631 19.1363C20.8868 18.9643 20.9264 18.8164 20.9897 18.6924C21.1006 18.4685 21.2945 18.3165 21.4845 18.3005C21.6745 18.2845 21.8646 18.4165 21.9239 18.5884C21.9833 18.7604 21.9121 18.9883 21.7616 19.0923V19.0883ZM21.9793 15.9013C21.8843 16.2731 21.8091 16.677 21.9002 17.0849C21.9596 17.3528 22.0902 17.5847 22.2644 17.7567C22.0268 17.5727 21.726 17.4728 21.4172 17.5008C20.9541 17.5408 20.5147 17.8567 20.2812 18.3285C20.1862 18.5165 20.1228 18.7204 20.0872 18.9523C19.5172 18.7924 18.963 18.5724 18.4326 18.2965C18.2069 18.1806 17.9813 18.0446 17.8823 17.8687C17.815 17.7527 17.7873 17.5887 17.7992 17.3888C17.815 17.0609 17.9338 16.737 18.1277 16.4691C18.2386 16.633 18.3692 16.777 18.5236 16.897C18.959 17.2448 19.5805 17.3528 20.1466 17.1729C20.6335 17.0169 20.9897 16.673 21.1204 16.2252C21.1877 16.0012 21.1797 15.7973 21.0926 15.6253C21.0016 15.4334 20.8433 15.3294 20.7126 15.2575C20.0476 14.8896 19.2045 14.8576 18.5038 15.1615C18.488 14.9256 18.5117 14.6856 18.5671 14.4697C18.7334 13.8019 19.1609 13.2461 19.6874 12.9702C19.5568 13.1621 19.4736 13.39 19.4815 13.6459C19.4934 14.0858 19.7745 14.5057 20.2218 14.7416C20.5701 14.9256 20.9462 14.9735 21.2747 15.0175C21.4885 15.0455 21.9358 15.1015 22.2485 14.8056C22.4267 14.6376 22.5256 14.3937 22.5375 14.0858C22.5533 13.7659 22.4742 13.446 22.3198 13.1541C23.0402 13.2381 23.6775 13.438 23.9982 13.9459C24.3267 14.4657 24.2159 15.1575 23.9823 15.8133C23.9348 15.6373 23.8557 15.4814 23.7488 15.3494C23.4242 14.9416 22.8581 14.8296 22.4583 15.0895C22.1219 15.3094 22.0229 15.7093 21.9714 15.9013H21.9793ZM18.7294 15.9372C19.2242 15.6813 19.8497 15.6893 20.3366 15.9572C20.3485 15.9652 20.3603 15.9692 20.3682 15.9732C20.3682 15.9772 20.3682 15.9852 20.3643 15.9892C20.2891 16.2492 20.0476 16.3611 19.9091 16.4011C19.6003 16.5011 19.2401 16.4451 19.0144 16.2611C18.8997 16.1692 18.8046 16.0572 18.7294 15.9292V15.9372ZM22.6721 16.9089C22.6206 16.677 22.6642 16.4171 22.7433 16.1012C22.7631 16.0212 22.8185 15.8133 22.8938 15.7613C22.9056 15.7533 22.9215 15.7493 22.9413 15.7493C23.0006 15.7493 23.0877 15.7853 23.1392 15.8493C23.2302 15.9652 23.2698 16.1572 23.254 16.3971L23.7369 16.4331C23.7211 16.4691 23.7013 16.5091 23.6855 16.5451C23.5746 16.781 23.2856 17.3208 22.9927 17.2848C22.8581 17.2688 22.7196 17.1049 22.676 16.9129L22.6721 16.9089Z" fill="#082133"/>
<path d="M5.90792 8.89616L6.56353 7.80755L7.54104 12.6867C7.57637 12.8708 7.74126 13 7.92577 13H7.9454C8.14168 12.9883 8.29872 12.8394 8.31442 12.6476L8.88365 6.69544L9.70414 9.9652C9.74732 10.1336 9.89258 10.2511 10.0653 10.2628C10.2498 10.2706 10.3951 10.1649 10.454 10.0044L11.0939 8.21872L11.6867 9.63235C11.7455 9.77332 11.8829 9.8673 12.036 9.87122C12.1931 9.87905 12.3305 9.7929 12.4011 9.65584L13.0803 8.30095L13.4886 8.91574C13.5592 9.02147 13.6809 9.08804 13.8105 9.09196L14.9882 9.11154L15 8.32836L14.0264 8.3127L13.3551 7.31023C13.2766 7.19276 13.151 7.12619 13.0057 7.13794C12.8644 7.14577 12.7427 7.228 12.6799 7.35331L12.0832 8.54765L11.4315 6.98913C11.3687 6.84033 11.2195 6.74243 11.0585 6.75026C10.8976 6.75418 10.7523 6.85599 10.6974 7.00871L10.1517 8.53199L9.09172 4.29501C9.04461 4.11096 8.87188 3.98566 8.68344 4.00132C8.49108 4.01698 8.3419 4.16579 8.32227 4.35375L7.78837 9.92995L7.13276 6.66411C7.10136 6.50748 6.97573 6.38217 6.81478 6.35476C6.65382 6.32735 6.49286 6.40175 6.41042 6.53881L5.34654 8.30487H4V9.08804H5.57031C5.70771 9.08804 5.83726 9.01756 5.90792 8.89616Z" fill="#082133"/>
</svg>
