<svg width="15" height="16" viewBox="0 0 15 16" fill="none" xmlns="http://www.w3.org/2000/svg">
<path fill-rule="evenodd" clip-rule="evenodd" d="M0.8 10.3999C1.24182 10.3999 1.6 10.7581 1.6 11.1999V12.7999C1.6 13.0121 1.68427 13.2155 1.83433 13.3656C1.98434 13.5156 2.18782 13.5999 2.4 13.5999H12C12.2121 13.5999 12.4156 13.5157 12.5657 13.3656C12.7157 13.2155 12.8 13.0121 12.8 12.7999V11.1999C12.8 10.7581 13.1581 10.3999 13.6 10.3999C14.0418 10.3999 14.4 10.7581 14.4 11.1999V12.7999C14.4 13.4364 14.1472 14.0469 13.697 14.4969C13.2469 14.947 12.6365 15.1999 12 15.1999H2.4C1.7635 15.1999 1.15302 14.9471 0.702928 14.4969C0.252864 14.0469 0 13.4364 0 12.7999V11.1999C0 10.7581 0.358168 10.3999 0.8 10.3999Z" fill="#795E20"/>
<path fill-rule="evenodd" clip-rule="evenodd" d="M2.6347 5.83442C2.94713 5.52199 3.45366 5.52199 3.76608 5.83442L7.20038 9.26874L10.6347 5.83442C10.9471 5.52199 11.4537 5.52199 11.7661 5.83442C12.0785 6.14682 12.0785 6.65338 11.7661 6.96578L7.76606 10.9658C7.45365 11.2782 6.94709 11.2782 6.6347 10.9658L2.6347 6.96578C2.32229 6.65338 2.32229 6.14682 2.6347 5.83442Z" fill="#795E20"/>
<path fill-rule="evenodd" clip-rule="evenodd" d="M7.20039 0C7.64223 0 8.00039 0.358176 8.00039 0.8V10.4C8.00039 10.8418 7.64223 11.2 7.20039 11.2C6.75855 11.2 6.40039 10.8418 6.40039 10.4V0.8C6.40039 0.358176 6.75855 0 7.20039 0Z" fill="#795E20"/>
</svg>
