<svg width="25" height="25" viewBox="0 0 25 25" fill="none" xmlns="http://www.w3.org/2000/svg">
<rect y="0.0825195" width="24.1947" height="24.1947" rx="12.0974" transform="rotate(-0.19506 0 0.0825195)" fill="#082133"/>
<path d="M12.1518 16.1709C12.0192 16.1721 11.8875 16.1472 11.7646 16.0974C11.6416 16.0477 11.5296 15.9741 11.4351 15.881L5.36584 9.85296C5.17536 9.66377 5.06784 9.40667 5.06692 9.13821C5.06601 8.86975 5.17178 8.61192 5.36096 8.42144C5.55015 8.23097 5.80725 8.12344 6.07571 8.12253C6.34417 8.12162 6.602 8.22739 6.79247 8.41657L12.1436 13.7414L17.4583 8.39034C17.6506 8.22453 17.8984 8.13738 18.1521 8.14632C18.4059 8.15526 18.6469 8.25962 18.827 8.43854C19.0072 8.61747 19.1132 8.85779 19.1238 9.11147C19.1345 9.36515 19.0491 9.61352 18.8846 9.80693L12.8565 15.8762C12.6694 16.0631 12.4163 16.1689 12.1518 16.1709Z" fill="#FAF5EB"/>
</svg>
