<svg width="40" height="40" viewBox="0 0 40 40" fill="none" xmlns="http://www.w3.org/2000/svg">
<g clip-path="url(#clip0_1009_3055)">
<path d="M4.55206 25.6224C4.00188 25.7952 3.5466 26.186 3.29239 26.7037C2.69829 27.7312 2.30288 29.6873 2.9737 32.0952C3.0366 32.3209 3.21515 32.4959 3.44208 32.5543C3.66901 32.6127 3.90985 32.5456 4.07388 32.3782C4.23791 32.2109 4.30021 31.9688 4.23731 31.743C3.74844 30.3097 3.81656 28.7449 4.42813 27.3594C4.51847 27.1557 4.67807 26.9905 4.87862 26.8932C5.10563 26.8346 5.28415 26.6594 5.34693 26.4335C5.40972 26.2076 5.34722 25.9654 5.183 25.7981C5.01877 25.6308 4.77776 25.5638 4.55075 25.6224H4.55206Z" fill="#141005"/>
<path d="M16.0656 23.9344C17.3331 23.9344 18.3607 22.9069 18.3607 21.6393C18.3607 20.3718 17.3331 19.3442 16.0656 19.3442C14.7981 19.3442 13.7705 20.3718 13.7705 21.6393C13.7705 22.9069 14.7981 23.9344 16.0656 23.9344ZM16.0656 20.6557C16.6088 20.6557 17.0492 21.0961 17.0492 21.6393C17.0492 22.1826 16.6088 22.6229 16.0656 22.6229C15.5224 22.6229 15.082 22.1826 15.082 21.6393C15.082 21.0961 15.5224 20.6557 16.0656 20.6557Z" fill="#141005"/>
<path d="M10.4917 8.19673C10.8538 8.19673 11.1474 7.90315 11.1474 7.54099C11.1474 7.17884 10.8538 6.88525 10.4917 6.88525C10.1295 6.88525 9.83594 7.17884 9.83594 7.54099C9.83594 7.90315 10.1295 8.19673 10.4917 8.19673Z" fill="#141005"/>
<path d="M15.0818 27.2133C15.4439 27.2133 15.7375 26.9197 15.7375 26.5576C15.7375 26.1954 15.4439 25.9019 15.0818 25.9019C14.7196 25.9019 14.426 26.1954 14.426 26.5576C14.426 26.9197 14.7196 27.2133 15.0818 27.2133Z" fill="#141005"/>
<path d="M15.7375 30.4921C16.0997 30.4921 16.3933 30.1986 16.3933 29.8364C16.3933 29.4742 16.0997 29.1807 15.7375 29.1807C15.3754 29.1807 15.0818 29.4742 15.0818 29.8364C15.0818 30.1986 15.3754 30.4921 15.7375 30.4921Z" fill="#141005"/>
<path d="M8.52439 10.164C8.88654 10.164 9.18013 9.87043 9.18013 9.50828C9.18013 9.14612 8.88654 8.85254 8.52439 8.85254C8.16224 8.85254 7.86865 9.14612 7.86865 9.50828C7.86865 9.87043 8.16224 10.164 8.52439 10.164Z" fill="#141005"/>
<path d="M39.0911 35.2015L30.3979 26.5077L32.1206 11.0356C32.1819 10.4795 32.0036 9.92348 31.6301 9.50683C31.2566 9.09017 30.7234 8.85227 30.1638 8.85267H27.0281L28.0852 5.99365L34.474 1.52086C34.7582 1.309 34.8226 0.909672 34.6194 0.619244C34.4162 0.328816 34.019 0.252425 33.7225 0.446764L27.1652 5.03693C27.0557 5.11334 26.9722 5.22131 26.9258 5.34644L25.6301 8.85267H14.6137C14.1615 7.42158 13.4105 6.10286 12.4104 4.98381C11.8775 4.45115 11.2207 4.0591 10.4989 3.84283C10.8074 3.18029 10.9762 2.46131 10.9947 1.7307C11.0083 1.36743 10.8706 1.01478 10.6143 0.756928C10.3577 0.497923 10.0036 0.359329 9.63926 0.375289C8.52685 0.367889 7.45087 0.771384 6.61762 1.5084C6.04431 2.12759 5.67767 2.90969 5.56844 3.74644C3.80319 2.1589 2.92713 2.0107 2.67664 2.0107C2.30893 2.00801 2.00609 2.29892 1.99401 2.66644C1.9878 2.83752 2.05118 3.00382 2.16967 3.12738C2.28817 3.25095 2.45167 3.32122 2.62287 3.32217C2.63008 3.32217 3.23533 3.43168 4.60582 4.64545C3.79586 4.76337 3.04105 5.12522 2.44188 5.68283C1.70557 6.51554 1.30295 7.59098 1.31139 8.7025C1.29729 9.05765 1.42859 9.40319 1.67498 9.65936C1.92136 9.91552 2.26154 10.0602 2.61696 10.0599H2.66746C3.39825 10.0411 4.11739 9.87241 4.78024 9.56414C4.99504 10.287 5.38806 10.9443 5.92319 11.4756C7.13917 12.5581 8.58552 13.3496 10.1527 13.7904L10.8412 19.9838C10.3934 20.3161 10.001 20.7171 9.6786 21.172C9.60332 21.0823 9.5232 20.9967 9.4386 20.9156C8.79105 20.3332 8.00564 19.9256 7.15664 19.7314C5.95336 19.4343 3.96844 19.7196 2.51598 20.0133C2.10477 20.0964 1.77718 20.4071 1.67247 20.8134C1.56777 21.2196 1.70436 21.65 2.02418 21.9215C2.49762 22.3235 3.05303 22.7668 3.6268 23.172C2.51219 23.5608 1.58304 24.352 1.02155 25.3904C-0.0931995 27.3209 -0.310904 30.0907 0.44385 32.8002C1.57369 36.8317 4.54811 39.6723 7.41369 39.6723C7.76558 39.6728 8.11613 39.6287 8.45696 39.5412C8.70216 39.4777 8.94116 39.3924 9.17106 39.2861C9.40041 39.3926 9.639 39.478 9.88385 39.5412C11.0625 39.8099 12.2989 39.6299 13.352 39.0363C13.7225 39.4412 14.2458 39.6722 14.7947 39.673H27.1737C27.7157 39.6705 28.2329 39.4453 28.6038 39.05C29.7394 39.4603 30.9374 39.671 32.1448 39.673H32.1822C34.6894 39.6744 37.1135 38.7739 39.0117 37.1359C39.2928 36.8931 39.4607 36.5445 39.4753 36.1733C39.4903 35.8105 39.3521 35.458 39.0943 35.2022L39.0911 35.2015ZM30.552 28.5169L25.6052 28.511C25.7282 27.2274 26.2304 26.0094 27.0478 25.012L30.552 28.5169ZM30.556 29.8284L27.0596 33.3248C26.2393 32.3266 25.7328 31.108 25.6038 29.8225L30.556 29.8284ZM31.4832 30.7543L31.4897 35.7064C30.2041 35.5774 28.9853 35.0709 27.9868 34.2507L31.4832 30.7543ZM32.8012 35.7058L32.7947 30.7582L36.2996 34.2632C35.3023 35.0805 34.0847 35.5831 32.8012 35.7071V35.7058ZM30.1638 10.1641C30.3504 10.1645 30.5281 10.2437 30.6531 10.3823C30.778 10.5208 30.8385 10.7058 30.8196 10.8914L30.3304 15.2848L28.5553 16.174C27.2135 16.8347 25.6535 16.8912 24.2675 16.3294L26.5435 10.1641H30.1638ZM23.053 15.8264C22.3862 15.6011 21.6874 15.4848 20.9835 15.4822C19.9713 15.4791 18.9724 15.7138 18.0675 16.1674C16.5998 16.8966 14.8754 16.8966 13.4078 16.1674L11.6373 15.2828L11.1475 10.892C11.1281 10.7063 11.1885 10.521 11.3135 10.3823C11.4385 10.2435 11.6164 10.1643 11.8032 10.1641H25.1455L23.053 15.8264ZM7.54483 2.43496C8.14972 1.94385 8.90602 1.67739 9.68516 1.68086C9.69395 2.4617 9.42874 3.22092 8.93565 3.82644C8.33416 4.32252 7.57556 4.58802 6.79598 4.57529C6.78309 3.79549 7.0486 3.03663 7.54483 2.43496ZM2.62287 8.74775C2.61477 7.96893 2.87973 7.21187 3.37172 6.60808C3.97224 6.11261 4.72967 5.84734 5.50811 5.85988C5.52102 6.63901 5.25705 7.39745 4.76319 8.00021C4.15921 8.49216 3.4018 8.7567 2.62287 8.74775ZM6.84844 10.5445C6.33902 10.034 6.01692 9.36647 5.93434 8.65004C6.5067 7.84098 6.81581 6.87518 6.81959 5.88414C7.80688 5.87657 8.76811 5.56646 9.57369 4.99562C10.2944 5.07861 10.9662 5.40202 11.4806 5.91365C12.2433 6.77358 12.8351 7.77106 13.2242 8.85267H11.8032C11.2435 8.85225 10.7102 9.09024 10.3367 9.50705C9.96319 9.92385 9.78491 10.48 9.84647 11.0363L9.99401 12.3615C8.8347 11.9719 7.76515 11.3541 6.84844 10.5445ZM11.0216 21.5989L11.2288 23.4632C10.975 23.5806 10.7289 23.7137 10.4917 23.8618C10.3131 23.9743 10.1204 24.0625 9.9186 24.1241C10.0328 23.193 10.4161 22.3155 11.0216 21.5989ZM6.84123 21.0022C7.46799 21.1436 8.04951 21.4394 8.53303 21.8625C8.78327 22.0443 8.9299 22.3361 8.92647 22.6455L8.92057 22.6651C8.8609 22.871 8.59926 23.0586 8.21172 23.1694C7.58635 23.3178 6.93382 23.3076 6.31336 23.1399C5.17228 22.6948 4.12437 22.0405 3.22352 21.2107C4.40732 20.9259 5.63254 20.8553 6.84123 21.0022ZM10.2078 38.2697C9.95843 38.2041 9.71862 38.1064 9.49434 37.9792C9.29753 37.8688 9.05775 37.8673 8.85959 37.9753C8.63046 38.1035 8.38615 38.2024 8.13237 38.2697C5.66483 38.9005 2.78221 36.29 1.70614 32.4468C1.04385 30.071 1.21237 27.6782 2.15598 26.0468C2.58657 25.222 3.33646 24.6098 4.23073 24.353C4.92146 24.1867 5.64751 24.2493 6.29959 24.5314C6.59157 24.6493 6.87191 24.7941 7.13696 24.9641C7.55608 25.2309 8.02425 25.4113 8.51401 25.4946V26.551C8.51401 26.9132 8.8076 27.2068 9.16975 27.2068C9.53191 27.2068 9.82549 26.9132 9.82549 26.551V25.4946C10.3113 25.4123 10.7759 25.234 11.192 24.97C11.2537 24.9314 11.3173 24.8999 11.3802 24.8638L12.8229 37.8356C12.0397 38.3121 11.1028 38.4676 10.2078 38.2697ZM14.7934 38.3609C14.4574 38.3629 14.1742 38.1106 14.1376 37.7766L11.8111 16.8356L12.8216 17.3405C14.6583 18.254 16.8169 18.254 18.6537 17.3405C19.8825 16.7401 21.2959 16.6384 22.5979 17.0566L15.7783 35.5104C15.6526 35.8501 15.8261 36.2273 16.1658 36.353C16.5055 36.4787 16.8828 36.3052 17.0084 35.9655L23.8111 17.5582C25.5362 18.2504 27.4748 18.1733 29.1396 17.3464L30.1553 16.8376L29.2104 25.3202L26.1107 22.2205C25.8509 21.9688 25.5013 21.8312 25.1396 21.8382C24.7681 21.8529 24.4192 22.021 24.1763 22.3025C20.5957 26.4768 20.8332 32.7042 24.7212 36.5937C25.4175 37.2893 26.2077 37.8842 27.0688 38.3609H14.7934ZM38.1514 36.1425C36.4813 37.578 34.3509 38.3653 32.1488 38.3609H32.1442C30.943 38.3627 29.7532 38.1284 28.6425 37.671H28.6393H28.6294C25.8992 36.5392 23.8779 34.166 23.195 31.2905C22.5121 28.4149 23.2505 25.3863 25.1802 23.1477L26.1166 24.0841C24.9124 25.5026 24.2524 27.3034 24.255 29.1641C24.2637 33.5182 27.7914 37.0457 32.1455 37.054C34.0064 37.0564 35.8074 36.3965 37.2261 35.1923L38.1514 36.1425Z" fill="#141005"/>
</g>
<defs>
<clipPath id="clip0_1009_3055">
<rect width="40" height="40" fill="white"/>
</clipPath>
</defs>
</svg>
