<svg width="16" height="16" viewBox="0 0 16 16" fill="none" xmlns="http://www.w3.org/2000/svg">
<path d="M13.4322 2.7915H2.56778C1.38453 2.7915 0.421875 3.75416 0.421875 4.93741V11.0628C0.421875 12.2461 1.38453 13.2088 2.56778 13.2088H13.4322C14.6155 13.2088 15.5781 12.2461 15.5781 11.0628V4.93741C15.5781 3.75416 14.6155 2.7915 13.4322 2.7915ZM10.8018 7.88L14.6262 4.27744C14.7348 4.47316 14.7969 4.69813 14.7969 4.93741V11.0628C14.7969 11.2973 14.7374 11.5181 14.6328 11.711L10.8018 7.88ZM13.4322 3.57275C13.6616 3.57275 13.8778 3.62988 14.0677 3.73029L8.75109 8.73853C8.34397 9.124 7.65603 9.12403 7.24819 8.73785L1.93234 3.73029C2.12228 3.62991 2.33844 3.57275 2.56778 3.57275H13.4322ZM1.36719 11.711C1.26259 11.5181 1.20312 11.2973 1.20312 11.0628V4.93741C1.20312 4.69813 1.26522 4.47319 1.37384 4.27744L5.19819 7.88L1.36719 11.711ZM2.56778 12.4275C2.33334 12.4275 2.11253 12.368 1.91963 12.2635L5.76713 8.41597L6.71178 9.30585C7.06709 9.64225 7.53366 9.81038 8.00028 9.81038C8.46656 9.81038 8.93284 9.64238 9.28753 9.30653L10.2329 8.41597L14.0804 12.2635C13.8875 12.3681 13.6667 12.4275 13.4322 12.4275H2.56778V12.4275Z" fill="#666666"/>
</svg>
