<svg width="37" height="37" viewBox="0 0 37 37" fill="none" xmlns="http://www.w3.org/2000/svg">
<path d="M11.5988 16.8154L16.1504 12.2642C16.6379 11.7767 16.7008 11.0858 16.3383 10.2104C15.8054 8.92417 14.0913 6.44125 12.2625 4.30583C8.57417 3.97364e-07 7.01709 0 6.505 0C5.95042 0 5.45709 0.2 5.07917 0.577917L0.712505 4.94458C-0.898329 6.55542 -0.257912 18.3846 7.71667 27.1354L0.493755 34.3587C-0.00999515 34.8625 -0.00999515 35.6796 0.493755 36.1829C0.745838 36.435 1.71584 37.1321 2.31834 36.1829L9.56834 28.9329C15.4096 34.1125 22.7963 36.4871 27.4779 36.4867C29.2463 36.4867 30.4983 36.1313 31.1992 35.4304L35.5658 31.0637C35.8588 30.7708 36.4788 29.9425 35.9142 28.5796C35.1475 26.7283 28.9371 20.7267 24.9983 19.9433C23.4238 19.63 19.7296 24.5771 19.7296 24.5771C18.1713 24.1354 16.89 23.4529 15.8383 22.6621L28.735 9.76625C29.2388 9.2625 29.2388 8.44542 28.735 7.94208C28.2313 7.43833 27.4146 7.43792 26.9104 7.94208L13.9583 20.8942C12.6383 19.3504 11.9321 17.7542 11.5988 16.8154ZM9.54417 25.3083C2.33876 17.5017 2.18417 7.23625 2.53709 6.76917L6.66709 2.63917C7.27084 2.90667 8.70584 4.04917 10.6996 6.45625C12.3263 8.42042 13.4229 10.1242 13.8329 10.9321L9.47042 15.2946C8.97334 15.7925 8.79459 16.5196 9.00417 17.1921C9.32167 18.2104 10.2025 20.5242 12.1296 22.7229L9.54417 25.3083ZM19.4804 27.1812C19.6292 27.2188 20.7233 27.6283 21.2738 26.6825L25.2817 22.6746C28.3575 23.5775 33.2171 28.8913 33.4988 29.4817C33.4988 29.4817 29.5521 34.0158 27.4779 33.9062C23.9838 33.7217 17.0567 32.0675 11.3963 27.1046L13.9967 24.5042C15.4254 25.6388 17.2229 26.6142 19.4804 27.1812Z" fill="white"/>
</svg>
