<svg width="26" height="26" viewBox="0 0 26 26" fill="none" xmlns="http://www.w3.org/2000/svg">
<path d="M25.9679 9.80599C25.9644 9.7973 25.964 9.78821 25.9596 9.77953C25.9411 9.74124 25.917 9.70589 25.8881 9.67466L20.6923 4.04682C20.6649 4.01584 20.6333 3.98903 20.5982 3.96709C20.5973 3.96709 20.5968 3.96709 20.5966 3.96709H20.5961C20.5247 3.92428 20.4432 3.90112 20.3599 3.8999H5.64004C5.55859 3.90026 5.47865 3.92194 5.40822 3.96272C5.37323 3.98466 5.34154 4.01152 5.31417 4.04245L0.11488 9.67294C0.104368 9.68751 0.0949728 9.7029 0.0866952 9.71889C0.0696829 9.74225 0.0550575 9.76719 0.0429204 9.79344C0.03251 9.81848 0.0245371 9.84443 0.0191033 9.87099C0.0122985 9.8977 0.00813427 9.92497 0.00656 9.95244C0.0056967 9.97997 0.00747409 10.0075 0.0117398 10.0348C0.0153962 10.0615 0.0216425 10.0877 0.0303771 10.1132C0.0411938 10.1407 0.0548036 10.167 0.0711049 10.1917C0.078316 10.2078 0.0865428 10.2234 0.0957853 10.2385L12.6628 25.839C12.6693 25.8472 12.6789 25.8498 12.6858 25.8576C12.6927 25.8654 12.7031 25.8771 12.7127 25.8858C12.7222 25.8945 12.7217 25.8996 12.7282 25.9048H12.7326L12.7369 25.9091C12.7403 25.9117 12.7451 25.9131 12.749 25.9156C12.763 25.9243 12.7775 25.9321 12.7923 25.9391C12.8063 25.9474 12.8208 25.9549 12.8357 25.9616H12.8391C12.8465 25.9646 12.853 25.9707 12.8603 25.9733C12.8677 25.9759 12.8738 25.9733 12.8798 25.9763C12.8859 25.9794 12.8889 25.982 12.8942 25.9833C12.9282 25.9919 12.9631 25.9962 12.9982 25.9963H13.0042C13.0393 25.9962 13.0742 25.9919 13.1082 25.9833C13.1134 25.9833 13.1173 25.9781 13.1225 25.9763C13.1277 25.9746 13.1359 25.9763 13.142 25.9733C13.1481 25.9702 13.1559 25.9646 13.1633 25.9616H13.1667C13.1815 25.9549 13.196 25.9474 13.21 25.9391C13.2249 25.9321 13.2394 25.9243 13.2533 25.9156C13.2568 25.9131 13.262 25.9122 13.2655 25.9091L13.2698 25.9048H13.2741C13.2806 25.8996 13.2837 25.8914 13.2897 25.8858C13.2958 25.8801 13.3075 25.8671 13.3166 25.8576C13.3257 25.8481 13.333 25.8472 13.3395 25.839L25.9066 10.2385C25.9236 10.2151 25.9381 10.19 25.9499 10.1635C25.9542 10.1553 25.9603 10.148 25.9642 10.1397C25.9833 10.0943 25.9945 10.0459 25.9976 9.99673C25.9982 9.98433 25.9982 9.97189 25.9976 9.95945C25.997 9.92086 25.9911 9.88252 25.9803 9.84549C25.9771 9.83204 25.9729 9.81883 25.9679 9.80599ZM20.4362 5.04744L24.5773 9.53343H17.6754L20.4362 5.04744ZM19.5912 4.76661L16.8789 9.1746L13.8268 4.76661H19.5912ZM16.0728 9.53343H13H9.92712L13 5.09467L16.0728 9.53343ZM12.1731 4.76661L9.1211 9.1746L6.40879 4.76661H12.1731ZM13.91 23.7472L15.7366 16.5757C15.7804 16.4238 15.7381 16.2601 15.6262 16.1485C15.5143 16.037 15.3504 15.9951 15.1987 16.0395C15.0469 16.0839 14.9314 16.2074 14.8972 16.3617L13 23.8122L11.1015 16.3587C11.0672 16.2044 10.9517 16.0809 10.8 16.0365C10.6482 15.9921 10.4844 16.0339 10.3724 16.1456C10.2605 16.2572 10.2182 16.4209 10.2621 16.5727L12.09 23.7472L1.00495 9.98586L5.56377 5.04744L8.32462 9.53343H2.59968C2.36034 9.53343 2.16635 9.72743 2.16635 9.96676C2.16635 10.2061 2.36034 10.4001 2.59968 10.4001H8.75927L9.84003 14.8363C9.88736 15.0303 10.0611 15.1668 10.2608 15.1669C10.2954 15.1669 10.3299 15.1629 10.3635 15.1548C10.4752 15.1276 10.5716 15.0571 10.6313 14.9588C10.691 14.8605 10.7093 14.7426 10.682 14.6309L9.65152 10.4001H16.3484L15.318 14.6309C15.2906 14.7426 15.3089 14.8605 15.3686 14.9588C15.4284 15.0571 15.5247 15.1276 15.6365 15.1548C15.6701 15.1629 15.7046 15.1669 15.7392 15.1669C15.9388 15.1668 16.1126 15.0303 16.1599 14.8363L17.2407 10.4001H24.6613L13.91 23.7472Z" fill="#513F15"/>
<path d="M5.23661 22.8696L3.81653 22.1836L3.13096 20.7635C3.05854 20.614 2.90706 20.519 2.74095 20.519C2.57484 20.519 2.42335 20.614 2.35094 20.7635L1.66537 22.1836L0.244468 22.8687C0.0949637 22.9411 0 23.0926 0 23.2587C0 23.4248 0.0949637 23.5763 0.244468 23.6487V23.6496L1.66542 24.3352L2.35053 25.7557C2.42295 25.9052 2.57443 26.0001 2.74054 26.0001C2.90665 26.0001 3.05814 25.9052 3.13055 25.7557L3.81612 24.3352L5.23661 23.6496C5.38612 23.5772 5.48108 23.4257 5.48108 23.2596C5.48108 23.0935 5.38612 22.942 5.23661 22.8696ZM3.30347 23.6201C3.21526 23.6627 3.14411 23.7339 3.1015 23.8221L2.74054 24.5705L2.37998 23.823C2.33743 23.7348 2.26623 23.6636 2.17802 23.621L1.42964 23.2592L2.17802 22.8986C2.26633 22.8562 2.33758 22.785 2.37998 22.6967L2.74054 21.9491L3.1015 22.6967C3.14406 22.7849 3.21526 22.856 3.30347 22.8986L4.05145 23.2592L3.30347 23.6201Z" fill="#513F15"/>
<path d="M20.763 3.13055V3.13142L22.1835 3.81653L22.8691 5.23661C22.9415 5.38612 23.093 5.48108 23.2591 5.48108C23.4252 5.48108 23.5767 5.38612 23.6491 5.23661L24.3342 3.81653L25.7552 3.13142C25.9047 3.059 25.9996 2.90751 25.9996 2.7414C25.9996 2.57529 25.9047 2.42381 25.7552 2.35139L24.3347 1.66496L23.6495 0.244468C23.5771 0.0949637 23.4256 0 23.2595 0C23.0934 0 22.9419 0.0949637 22.8695 0.244468L22.1835 1.66496L20.763 2.35053C20.6135 2.42295 20.5186 2.57443 20.5186 2.74054C20.5186 2.90665 20.6135 3.05814 20.763 3.13055ZM22.6966 2.37998C22.7848 2.33743 22.856 2.26623 22.8986 2.17802L23.2596 1.42964L23.6201 2.17716C23.6627 2.26537 23.7339 2.33651 23.8221 2.37912L24.5696 2.74008L23.8221 3.10064C23.7338 3.14305 23.6625 3.21424 23.6201 3.3026L23.2596 4.05013L22.8986 3.3026C22.856 3.21439 22.7848 3.14325 22.6966 3.10064L21.9486 2.74095L22.6966 2.37998Z" fill="#513F15"/>
<path d="M24.3042 22.002L22.8837 21.3169L22.1982 19.8968C22.1258 19.7473 21.9743 19.6523 21.8082 19.6523C21.6421 19.6523 21.4906 19.7473 21.4182 19.8968L20.733 21.3169L19.3121 22.002C19.1626 22.0744 19.0676 22.2259 19.0676 22.392C19.0676 22.5581 19.1626 22.7096 19.3121 22.782L20.733 23.4676L21.4182 24.8881C21.4906 25.0376 21.6421 25.1326 21.8082 25.1326C21.9743 25.1326 22.1258 25.0376 22.1982 24.8881L22.8837 23.4676L24.3042 22.782C24.4537 22.7096 24.5487 22.5581 24.5487 22.392C24.5487 22.2259 24.4537 22.0744 24.3042 22.002ZM22.3707 22.7534C22.2825 22.796 22.2113 22.8672 22.1687 22.9554L21.8078 23.7038L21.4472 22.9563C21.4046 22.8681 21.3335 22.7969 21.2452 22.7543L20.4969 22.3925L21.2444 22.0319C21.3327 21.9895 21.4039 21.9183 21.4463 21.83L21.8069 21.0824L22.1679 21.83C22.2104 21.9182 22.2816 21.9893 22.3698 22.0319L23.1178 22.3925L22.3707 22.7534Z" fill="#513F15"/>
</svg>
