<svg width="15" height="11" viewBox="0 0 15 11" fill="none" xmlns="http://www.w3.org/2000/svg">
<path d="M3.18384 9.47812C3.04577 9.47812 2.93384 9.36619 2.93384 9.22812V6.56958C2.93384 6.43151 3.04577 6.31958 3.18384 6.31958C3.32191 6.31958 3.43384 6.43151 3.43384 6.56958V9.22812C3.43384 9.36619 3.32191 9.47812 3.18384 9.47812Z" fill="#082133"/>
<path d="M10.1885 9.47798C10.0504 9.47798 9.93848 9.36605 9.93848 9.22798V7.03125C9.93848 6.89318 10.0504 6.78125 10.1885 6.78125C10.3265 6.78125 10.4385 6.89318 10.4385 7.03125V9.22798C10.4385 9.36605 10.3265 9.47798 10.1885 9.47798Z" fill="#082133"/>
<path d="M11.7261 7.48516C11.3706 7.48516 11.038 7.43451 10.7617 7.38267C10.5891 7.35031 10.3231 7.30568 10.1495 7.27833C10.0131 7.25682 9.91995 7.12884 9.94145 6.99245C9.96293 6.85607 10.0909 6.76293 10.2273 6.78441C10.399 6.81148 10.6684 6.85646 10.8538 6.89125C11.767 7.06254 12.9103 7.10952 13.6506 5.94276C13.9709 5.438 14.1117 4.84777 14.0469 4.28081C13.9787 3.68337 13.7186 3.29211 13.274 3.11788C12.9863 3.00513 12.6614 3.00284 12.3593 3.11144C12.2146 3.16346 11.4464 3.42572 10.5309 3.48014C10.0942 3.50612 9.69513 3.47932 9.34487 3.40052C8.9138 3.30354 8.55268 3.12682 8.27153 2.87528C8.16864 2.78322 8.15986 2.62517 8.25192 2.52227C8.34398 2.41937 8.50205 2.41059 8.60493 2.50266C9.11694 2.96077 9.9188 3.01568 10.5013 2.98103C11.1582 2.94197 11.8217 2.77341 12.1902 2.64093C12.6062 2.49137 13.0559 2.49542 13.4564 2.65235C14.0781 2.89595 14.4541 3.43945 14.5437 4.22408C14.6214 4.90422 14.4542 5.60973 14.0728 6.21067C13.6526 6.87283 13.0741 7.28175 12.3533 7.42604C12.1409 7.46855 11.9297 7.48516 11.7261 7.48516Z" fill="#082133"/>
<path d="M3.18398 6.81952C3.18343 6.81952 3.18288 6.81952 3.18234 6.81951C2.73819 6.81664 2.25405 6.70678 1.81912 6.51019C1.33795 6.29271 0.947 5.98505 0.688516 5.62049C0.679414 5.60764 0.670469 5.59492 0.661688 5.58232C0.295305 5.05662 0.0716328 4.45298 0.0148437 3.83662C-0.0508203 3.12393 0.101586 2.44663 0.467836 1.8235C0.760563 1.32546 1.17664 0.898034 1.67109 0.587448C2.15952 0.280636 2.72401 0.0877606 3.30355 0.0296668C3.77725 -0.0178097 4.26109 -0.00826264 4.74163 0.0580186C5.12546 0.110972 5.50813 0.200081 5.87898 0.322847C6.49613 0.527151 6.87417 0.756276 6.90967 0.778214C7.42778 1.09027 7.88473 1.49926 8.26791 1.99389C8.57289 2.38759 8.83179 2.83587 9.0374 3.3263C9.38704 4.16027 9.46187 4.82581 9.46488 4.85374C9.4797 4.99101 9.38042 5.11431 9.24316 5.12912C9.10598 5.14396 8.98277 5.04482 8.9678 4.9077C8.96711 4.90146 8.89512 4.27446 8.57016 3.50507C8.14029 2.4873 7.49442 1.71371 6.65048 1.20579C6.64928 1.20507 6.64809 1.20433 6.6469 1.20359C6.64371 1.20162 6.28931 0.983612 5.70637 0.792417C5.17255 0.617323 4.33098 0.429167 3.35341 0.527167C2.3263 0.630128 1.40873 1.20945 0.898898 2.07685C0.586797 2.60784 0.456883 3.18447 0.512742 3.79074C0.561602 4.321 0.754945 4.84165 1.07189 5.2964C1.07991 5.30791 1.08809 5.31955 1.09641 5.33128C1.5522 5.97413 2.49241 6.31502 3.18559 6.31951C3.32365 6.3204 3.43485 6.43305 3.43396 6.57112C3.43305 6.70865 3.3213 6.81951 3.18398 6.81952Z" fill="#082133"/>
<path d="M4.72506 5.31443C4.66447 5.31443 4.60371 5.29253 4.55566 5.24822C4.29635 5.00912 3.96813 4.54211 3.87712 3.67505C3.8627 3.53773 3.96234 3.41473 4.09965 3.40032C4.23686 3.38587 4.35996 3.48554 4.37438 3.62285C4.45307 4.37243 4.73409 4.73263 4.89459 4.88062C4.99609 4.97422 5.00251 5.13238 4.90892 5.23389C4.85964 5.28734 4.79245 5.31443 4.72506 5.31443Z" fill="#082133"/>
<path d="M3.67749 5.96196C3.64567 5.96196 3.61331 5.95584 3.58207 5.94292C3.53521 5.92355 2.43185 5.44527 2.22111 3.43701C2.20671 3.29969 2.30634 3.17669 2.44365 3.16228C2.58104 3.14783 2.70396 3.24751 2.71838 3.38482C2.81403 4.29637 3.11003 4.8259 3.34149 5.10959C3.56866 5.38803 3.77117 5.48004 3.77311 5.48085C3.90071 5.53361 3.96138 5.67981 3.90863 5.8074C3.86879 5.90376 3.77566 5.96196 3.67749 5.96196Z" fill="#082133"/>
<path d="M6.68609 10.3097C5.73173 10.3097 4.83172 10.2208 4.15187 10.0594C3.80762 9.97761 3.53335 9.88018 3.33668 9.76978C3.06938 9.61972 2.93384 9.43747 2.93384 9.22809C2.93384 9.0187 3.06938 8.83645 3.33668 8.68639C3.53335 8.57598 3.80761 8.47856 4.15187 8.39682C4.83172 8.23539 5.73173 8.14648 6.68609 8.14648C7.64045 8.14648 8.54045 8.23539 9.22031 8.39682C9.56456 8.47856 9.83884 8.57599 10.0355 8.68639C10.3028 8.83645 10.4383 9.0187 10.4383 9.22809C10.4383 9.43747 10.3028 9.61972 10.0355 9.76978C9.83884 9.88019 9.56457 9.97762 9.22031 10.0594C8.54046 10.2208 7.64045 10.3097 6.68609 10.3097ZM3.4412 9.22809C3.48043 9.2758 3.66411 9.44376 4.38275 9.59902C5.01164 9.73488 5.82965 9.8097 6.6861 9.8097C7.54254 9.8097 8.36055 9.73488 8.98943 9.59902C9.70807 9.44377 9.89175 9.27581 9.93099 9.22809C9.89176 9.18038 9.70808 9.01241 8.98943 8.85716C8.36055 8.7213 7.54254 8.64648 6.6861 8.64648C5.82965 8.64648 5.01164 8.7213 4.38275 8.85716C3.66411 9.01241 3.48044 9.18037 3.4412 9.22809Z" fill="#082133"/>
<path d="M9.97689 7.29351C9.75608 7.29351 9.53522 7.25839 9.32428 7.18885C8.46437 6.90538 7.73733 6.38173 7.27884 5.99235C6.81701 5.60013 6.26362 5.35042 5.67851 5.27022C4.92802 5.16737 4.32186 5.367 3.87684 5.86363C3.54017 6.23934 3.42592 6.64152 3.4248 6.64555C3.3879 6.77859 3.25014 6.85654 3.11708 6.81962C2.98403 6.78271 2.90609 6.64494 2.943 6.51189C2.94883 6.49087 3.09053 5.99189 3.50447 5.52995C3.89126 5.0983 4.59419 4.61691 5.74642 4.77485C6.4261 4.86802 7.06793 5.15723 7.60252 5.61125C8.02706 5.97179 8.69754 6.45579 9.48083 6.71398C9.99476 6.8834 10.5466 6.78259 10.9569 6.44429C11.0808 6.34213 11.1651 6.23941 11.2007 6.14723C11.2504 6.01845 11.3952 5.9544 11.524 6.00412C11.6528 6.05387 11.7168 6.19862 11.6671 6.32741C11.5996 6.50202 11.4677 6.67113 11.275 6.83007C11.0087 7.04959 10.6872 7.19841 10.3452 7.26048C10.2236 7.28253 10.1003 7.2935 9.97689 7.29351Z" fill="#082133"/>
</svg>
