<svg width="16" height="16" viewBox="0 0 16 16" fill="none" xmlns="http://www.w3.org/2000/svg">
<path d="M2.74395 8.09692H2.46895C2.38145 8.09692 2.30957 8.1688 2.30957 8.2563V9.88442C2.30957 9.97192 2.38145 10.0438 2.46895 10.0438H2.74395C3.28145 10.0438 3.71582 9.6063 3.71582 9.0688C3.7127 8.53442 3.27832 8.09692 2.74395 8.09692ZM2.74082 9.72505H2.62832V8.41567H2.74395C3.10332 8.41567 3.39395 8.70942 3.39395 9.0688C3.39395 9.4313 3.1002 9.72505 2.74082 9.72505Z" fill="#666666"/>
<path d="M4.33477 8.09692H4.05977C3.97227 8.09692 3.90039 8.1688 3.90039 8.2563V9.88442C3.90039 9.97192 3.97227 10.0438 4.05977 10.0438H4.33477C4.87227 10.0438 5.30664 9.6063 5.30664 9.0688C5.30664 8.53442 4.87227 8.09692 4.33477 8.09692ZM4.33477 9.72505H4.21914V8.41567H4.33477C4.69414 8.41567 4.98477 8.70942 4.98477 9.0688C4.98477 9.4313 4.69414 9.72505 4.33477 9.72505Z" fill="#666666"/>
<path d="M11.4377 7.99695C11.3533 7.96882 11.2627 8.0157 11.2377 8.10007L10.6439 9.94382C10.6158 10.0282 10.6627 10.1188 10.747 10.1438C10.7627 10.1501 10.7814 10.1501 10.797 10.1501C10.8658 10.1501 10.9283 10.1063 10.9502 10.0376L11.5439 8.19382C11.5658 8.11257 11.522 8.02507 11.4377 7.99695Z" fill="#666666"/>
<path d="M6.1906 7.99695C6.10622 7.96882 6.0156 8.0157 5.9906 8.10007L5.39685 9.94382C5.36872 10.0282 5.4156 10.1188 5.49997 10.1438C5.5156 10.1501 5.53435 10.1501 5.54997 10.1501C5.61872 10.1501 5.68122 10.1063 5.7031 10.0376L6.29685 8.19382C6.31872 8.11257 6.27497 8.02507 6.1906 7.99695Z" fill="#666666"/>
<path d="M13.3996 9.61255C13.3121 9.61255 13.2402 9.68442 13.2402 9.77505C13.2402 9.86255 13.3121 9.93442 13.3996 9.93442C13.4871 9.93442 13.559 9.86255 13.559 9.77505V9.77192C13.5621 9.68442 13.4902 9.61255 13.3996 9.61255Z" fill="#666666"/>
<path d="M13.3996 8.2063C13.3121 8.2063 13.2402 8.27817 13.2402 8.36567V9.13755C13.2402 9.22505 13.3121 9.29692 13.3996 9.29692C13.4871 9.29692 13.559 9.22505 13.559 9.13755V8.36567C13.5621 8.27817 13.4902 8.2063 13.3996 8.2063Z" fill="#666666"/>
<path d="M13.4 7.44058C13.1312 7.44058 12.8813 7.5062 12.6562 7.62183V6.1062C12.6562 4.87183 12.6562 4.25308 12.2406 3.83745C11.8219 3.4187 11.2031 3.4187 9.97188 3.4187H3.65625C2.42188 3.4187 1.80313 3.4187 1.3875 3.83745C0.96875 4.25308 0.96875 4.87183 0.96875 6.1062V9.89683C0.96875 11.1312 0.96875 11.75 1.38437 12.1656C1.80312 12.5843 2.42188 12.5843 3.65313 12.5843H9.96875C11.2031 12.5843 11.8219 12.5843 12.2375 12.1656C12.5875 11.8156 12.6406 11.3 12.6531 10.5218C12.8781 10.6375 13.1313 10.7031 13.3969 10.7031C14.2969 10.7031 15.0281 9.97183 15.0281 9.07183C15.0312 8.17183 14.3 7.44058 13.4 7.44058ZM1.6125 4.06245C1.93437 3.74058 2.50937 3.74058 3.65625 3.74058H9.97188C11.1156 3.74058 11.6906 3.74058 12.0156 4.06245C12.3375 4.38433 12.3375 4.95933 12.3375 6.09683H1.29062C1.29062 4.9562 1.29062 4.38433 1.6125 4.06245ZM12.0156 11.9375C11.6938 12.2593 11.1188 12.2593 9.97188 12.2593H3.65625C2.5125 12.2593 1.9375 12.2593 1.6125 11.9375C1.29062 11.6156 1.29062 11.0406 1.29062 9.8937V6.4187H12.3375V7.83745C11.9906 8.13745 11.7719 8.57808 11.7719 9.07183C11.7719 9.56558 11.9906 10.0062 12.3375 10.3062C12.3312 11.2 12.2937 11.6593 12.0156 11.9375ZM13.4 10.3812C12.6781 10.3812 12.0906 9.7937 12.0906 9.07183C12.0906 8.34995 12.6781 7.76245 13.4 7.76245C14.1219 7.76245 14.7094 8.34995 14.7094 9.07183C14.7125 9.7937 14.1219 10.3812 13.4 10.3812Z" fill="#666666"/>
<path d="M8.12187 8.09984C8.04687 8.08421 7.97187 8.12796 7.94375 8.19984L7.46875 9.43734L6.99687 8.19984C6.96875 8.12796 6.89375 8.08421 6.81875 8.09984C6.74375 8.11546 6.6875 8.18109 6.6875 8.25609V9.88421C6.6875 9.97171 6.75938 10.0436 6.84688 10.0436C6.93438 10.0436 7.00625 9.97171 7.00625 9.88421V9.12484L7.31875 9.94359C7.34375 10.0061 7.40312 10.0467 7.46875 10.0467C7.53438 10.0467 7.59375 10.0061 7.61875 9.94359L7.93125 9.12796V9.88734C7.93125 9.97484 8.00312 10.0467 8.09062 10.0467C8.17812 10.0467 8.25 9.97484 8.25 9.88734V8.25921C8.25 8.18109 8.19687 8.11546 8.12187 8.09984Z" fill="#666666"/>
<path d="M10.0379 8.09984C9.96289 8.08421 9.88789 8.12796 9.85977 8.19984L9.38477 9.43734L8.91289 8.19984C8.88477 8.12796 8.80977 8.08421 8.73477 8.09984C8.65977 8.11546 8.60352 8.18109 8.60352 8.25609V9.88421C8.60352 9.97171 8.67539 10.0436 8.76289 10.0436C8.85039 10.0436 8.92227 9.97171 8.92227 9.88421V9.12484L9.23477 9.94359C9.25977 10.0061 9.31914 10.0467 9.38477 10.0467C9.45039 10.0467 9.50977 10.0061 9.53477 9.94359L9.84727 9.12796V9.88734C9.84727 9.97484 9.91914 10.0467 10.0066 10.0467C10.0941 10.0467 10.166 9.97484 10.166 9.88734V8.25921C10.1691 8.18109 10.1129 8.11546 10.0379 8.09984Z" fill="#666666"/>
</svg>
