<svg width="26" height="26" viewBox="0 0 26 26" fill="none" xmlns="http://www.w3.org/2000/svg">
<g clip-path="url(#clip0_1206_5971)">
<path d="M17.2788 12.153C17.4038 12.153 17.5226 12.1255 17.6297 12.0773L18.5209 12.9685C18.5804 13.0279 18.6586 13.0579 18.7362 13.0579C18.8139 13.0579 18.8921 13.0279 18.9516 12.9685C19.0704 12.8497 19.0704 12.6567 18.9516 12.5374L18.0604 11.6462C18.1086 11.539 18.136 11.4202 18.136 11.2953C18.136 10.9296 17.906 10.6179 17.583 10.4945V8.22758C17.583 8.05949 17.4464 7.92289 17.2783 7.92289C17.1102 7.92289 16.9736 8.05949 16.9736 8.22758V10.4945C16.6512 10.6179 16.4206 10.9296 16.4206 11.2953C16.4211 11.7686 16.8055 12.153 17.2788 12.153ZM17.0305 11.2958C17.0305 11.1587 17.1417 11.0475 17.2788 11.0475C17.4159 11.0475 17.5271 11.1587 17.5271 11.2958C17.5271 11.4329 17.4159 11.5441 17.2788 11.5441C17.1417 11.5441 17.0305 11.4324 17.0305 11.2958ZM23.8433 6.79961L24.1587 6.48426C24.4436 6.19938 24.4436 5.73574 24.1587 5.45086L23.1801 4.47231C22.8952 4.18742 22.4316 4.18742 22.1472 4.47231L21.842 4.7775C20.9193 4.12953 19.8534 3.67199 18.7017 3.46379V2.69598H19.4548C19.8194 2.69598 20.116 2.39941 20.116 2.0348V1.42289C20.116 1.05828 19.8194 0.761719 19.4548 0.761719H15.1029C14.7382 0.761719 14.4417 1.05828 14.4417 1.42289V2.0348C14.4417 2.39941 14.7382 2.69598 15.1029 2.69598H15.8559V3.46328C14.7042 3.67199 13.6383 4.12902 12.7156 4.77699L12.4104 4.4718C12.1255 4.18691 11.6624 4.18691 11.3775 4.4718L10.399 5.45035C10.1141 5.73523 10.1141 6.19887 10.399 6.48375L10.7143 6.7991C9.8348 8.0793 9.31938 9.62813 9.31938 11.2953C9.31938 12.1276 9.44633 12.9426 9.69719 13.7246C9.36102 13.6688 8.97508 13.6211 8.49266 13.5723C7.87617 13.5104 7.31758 13.7648 6.95906 14.2705L5.4082 16.4592C5.0634 16.9457 5.27211 17.4754 5.65652 17.7475C6.04246 18.0207 6.61273 18.0431 6.95754 17.5566L8.41293 15.503L9.21781 15.6L8.45711 17.488C8.34996 17.7308 8.30477 17.9527 8.31949 18.1533L7.89496 19.1887C7.78832 19.4487 7.61109 19.629 7.35313 19.7402L4.38395 21.0234C3.77406 21.287 3.65625 21.8913 3.8543 22.3519C4.00461 22.7013 4.33875 22.9755 4.75719 22.975C4.89227 22.975 5.03598 22.9465 5.18527 22.8825L8.385 21.515C8.82629 21.3266 9.15434 21.0118 9.36102 20.5786L9.72461 19.8174L10.336 20.3673C10.5447 20.5552 10.6549 20.7827 10.6732 21.063L10.8824 24.2907C10.9068 24.6675 11.1028 24.9737 11.4207 25.1306C11.5659 25.2022 11.7269 25.2378 11.8879 25.2378C12.0961 25.2378 12.3038 25.1784 12.478 25.0621C12.7725 24.8655 12.9274 24.5365 12.903 24.1607L12.6796 20.4826C12.6506 20.0068 12.4775 19.6066 12.1504 19.2593L11.7244 18.8068L12.2591 17.4713C13.6754 18.6235 15.4411 19.2542 17.2788 19.2542C21.6679 19.2542 25.2383 15.6838 25.2383 11.2948C25.2383 9.62863 24.7229 8.0798 23.8433 6.79961ZM22.5773 4.90344C22.6241 4.85723 22.7023 4.85672 22.749 4.90344L23.7275 5.88199C23.7738 5.9282 23.7738 6.00691 23.7275 6.05363L23.4752 6.30602C23.1339 5.88301 22.7505 5.49504 22.3311 5.14973L22.5773 4.90344ZM15.0511 2.0348V1.42289C15.0511 1.39547 15.0754 1.37109 15.1029 1.37109H19.4548C19.4822 1.37109 19.5066 1.39547 19.5066 1.42289V2.0348C19.5066 2.06223 19.4822 2.0866 19.4548 2.0866H15.1029C15.0749 2.0866 15.0511 2.06223 15.0511 2.0348ZM16.4653 2.69598H18.0918V3.37695C17.8242 3.34953 17.553 3.33582 17.2788 3.33582C17.0046 3.33582 16.7329 3.35004 16.4658 3.37695V2.69598H16.4653ZM10.8296 6.05313C10.7834 6.00691 10.7834 5.9282 10.8296 5.88148L11.8082 4.90293C11.8549 4.85621 11.9331 4.85672 11.9798 4.90293L12.2261 5.14922C11.8066 5.49453 11.4232 5.8825 11.082 6.30551L10.8296 6.05313ZM8.81105 20.3171C8.66836 20.6162 8.45051 20.8254 8.14531 20.9554L4.94559 22.3229C4.67086 22.4402 4.48754 22.2823 4.41391 22.1117C4.3875 22.0502 4.27324 21.7354 4.62465 21.5841L7.59383 20.3008C7.99906 20.1256 8.29004 19.8296 8.45762 19.4213L8.7034 18.8226L9.25336 19.3918L8.81105 20.3171ZM11.147 19.0841L11.7066 19.6782C11.9351 19.9205 12.0509 20.1881 12.0707 20.5207L12.2941 24.2003C12.3048 24.3613 12.2525 24.4811 12.1393 24.5568C12.0123 24.6416 11.8275 24.6533 11.6904 24.5857C11.568 24.5253 11.5009 24.4131 11.4903 24.2526L11.2811 21.025C11.2526 20.5842 11.0718 20.2109 10.7433 19.9159L9.69465 18.9729L8.94512 18.197C8.90195 18.0898 8.92582 17.9339 9.01519 17.7328C9.01672 17.7298 9.01824 17.7262 9.01926 17.7232L9.93027 15.4614C9.96582 15.3735 9.9582 15.274 9.90996 15.1927C9.86172 15.1115 9.77844 15.0566 9.68398 15.0455L8.30477 14.8789C8.19355 14.8652 8.08437 14.9139 8.01937 15.0054L6.45937 17.2072C6.29535 17.4388 6.05465 17.2859 6.00793 17.2529C5.96172 17.2204 5.74031 17.0457 5.90484 16.8142L7.4557 14.6255C7.68371 14.3041 8.03918 14.1426 8.43121 14.1817C10.1862 14.3579 10.5655 14.5102 12.1621 15.1521L12.253 15.1887C12.3729 15.2694 12.412 15.3502 12.4241 15.4233L11.0861 18.7642C11.0419 18.8718 11.0657 18.9978 11.147 19.0841ZM13.0163 15.5812C13.0198 15.5726 13.0223 15.5639 13.0249 15.5553L13.5906 15.5243C13.6835 15.5193 13.7688 15.472 13.8227 15.3964L15.3827 13.1945C15.4487 13.1016 15.5304 13.0609 15.634 13.0706C15.7721 13.0833 15.9148 13.1838 15.9722 13.3093C16.0149 13.4027 16.0037 13.4936 15.9372 13.587L14.3777 15.7879C14.1507 16.1078 13.811 16.2663 13.42 16.2332L12.7761 16.1794L13.0163 15.5812ZM17.2788 18.6459C15.5182 18.6459 13.8288 18.0192 12.4973 16.8777L12.5394 16.7715L13.3692 16.8411C13.42 16.8452 13.4702 16.8472 13.52 16.8472C13.7338 16.8472 13.9384 16.8081 14.1284 16.7334C15.0825 17.287 16.1682 17.58 17.2788 17.58C20.7441 17.58 23.5635 14.7606 23.5635 11.2953C23.5635 7.82996 20.7441 5.01059 17.2788 5.01059C13.8135 5.01059 10.9941 7.83047 10.9941 11.2958C10.9941 11.507 11.0053 11.7193 11.0261 11.929C10.8398 12.2225 10.7641 12.5694 10.8139 12.9172C10.9175 13.6454 11.5446 14.173 12.2601 14.173C12.3287 14.173 12.3977 14.1685 12.4673 14.1583C13.2651 14.0446 13.8216 13.3027 13.7079 12.5049C13.5941 11.7071 12.8532 11.15 12.0545 11.2643C11.8955 11.2871 11.7442 11.3349 11.605 11.4045C11.6045 11.3684 11.6035 11.3323 11.6035 11.2958C11.6035 9.84039 12.1545 8.51145 13.0579 7.50598L13.5276 7.9757C13.587 8.03512 13.6652 8.06508 13.7429 8.06508C13.8206 8.06508 13.8988 8.03512 13.9582 7.9757C14.0771 7.85688 14.0771 7.66391 13.9582 7.54457L13.4885 7.07484C14.4234 6.23442 15.6381 5.69969 16.9736 5.62859V6.29535C16.9736 6.46344 17.1102 6.60004 17.2783 6.60004C17.4464 6.60004 17.583 6.46344 17.583 6.29535V5.62859C18.9186 5.69969 20.1332 6.23442 21.0681 7.07484L20.5984 7.54457C20.4796 7.6634 20.4796 7.85637 20.5984 7.9757C20.6578 8.03512 20.736 8.06508 20.8137 8.06508C20.8914 8.06508 20.9696 8.03512 21.029 7.9757L21.4987 7.50598C22.3392 8.44086 22.8739 9.65555 22.945 10.9911H22.2782C22.1102 10.9911 21.9736 11.1277 21.9736 11.2958C21.9736 11.4639 22.1102 11.6005 22.2782 11.6005H22.945C22.8739 12.936 22.3387 14.1507 21.4987 15.0856L21.029 14.6159C20.9102 14.497 20.7172 14.497 20.5979 14.6159C20.4791 14.7347 20.4791 14.9277 20.5979 15.047L21.0676 15.5167C20.1327 16.3571 18.918 16.8919 17.5825 16.963V16.2957C17.5825 16.1276 17.4459 15.991 17.2778 15.991C17.1097 15.991 16.9731 16.1276 16.9731 16.2957V16.962C16.1784 16.9193 15.404 16.7116 14.6991 16.3516C14.7621 16.2871 14.821 16.217 14.8748 16.1408L16.4343 13.94C16.6263 13.6688 16.6598 13.3463 16.5257 13.0554C16.3785 12.7344 16.0428 12.4973 15.6904 12.4643C15.3705 12.4348 15.077 12.5724 14.8855 12.8426L13.4103 14.9241L12.8746 14.9536C12.802 14.8489 12.6994 14.7474 12.5557 14.657C12.5404 14.6473 12.5242 14.6392 12.5074 14.6321L12.3891 14.5844C11.5136 14.2325 10.9835 14.0197 10.3914 13.8689C10.0841 13.0472 9.92824 12.1824 9.92824 11.2953C9.92824 7.24242 13.2255 3.9452 17.2783 3.9452C21.3312 3.9452 24.6289 7.24242 24.6289 11.2958C24.6289 15.3491 21.3317 18.6459 17.2788 18.6459ZM12.1408 11.8671C12.6064 11.8011 13.0386 12.1255 13.1051 12.5907C13.1716 13.0559 12.8466 13.4885 12.3815 13.5545C11.9158 13.6205 11.4837 13.2961 11.4177 12.8309C11.3857 12.6054 11.443 12.381 11.5796 12.1992C11.7157 12.0169 11.9153 11.8991 12.1408 11.8671ZM2.33238 14.3076C2.33238 14.1395 2.46898 14.0029 2.63707 14.0029H4.86891C5.03699 14.0029 5.17359 14.1395 5.17359 14.3076C5.17359 14.4757 5.03699 14.6123 4.86891 14.6123H2.63707C2.46898 14.6123 2.33238 14.4757 2.33238 14.3076ZM1.76973 15.9692C1.76973 15.8011 1.90633 15.6645 2.07441 15.6645H4.41238C4.58047 15.6645 4.71707 15.8011 4.71707 15.9692C4.71707 16.1373 4.58047 16.2739 4.41238 16.2739H2.07441C1.90633 16.2739 1.76973 16.1378 1.76973 15.9692ZM4.41238 17.9359H1.06641C0.89832 17.9359 0.761719 17.7993 0.761719 17.6313C0.761719 17.4632 0.89832 17.3266 1.06641 17.3266H4.41238C4.58047 17.3266 4.71707 17.4632 4.71707 17.6313C4.71707 17.7993 4.58047 17.9359 4.41238 17.9359ZM4.86891 19.598H2.63707C2.46898 19.598 2.33238 19.4614 2.33238 19.2933C2.33238 19.1252 2.46898 18.9886 2.63707 18.9886H4.86891C5.03699 18.9886 5.17359 19.1252 5.17359 19.2933C5.17359 19.4614 5.03699 19.598 4.86891 19.598Z" fill="#513F15"/>
</g>
<defs>
<clipPath id="clip0_1206_5971">
<rect width="26" height="26" fill="white"/>
</clipPath>
</defs>
</svg>
