<svg width="16" height="16" viewBox="0 0 16 16" fill="none" xmlns="http://www.w3.org/2000/svg">
<g clip-path="url(#clip0_1670_14999)">
<path d="M14.9996 15.7499C14.8496 15.7499 14.7496 15.6499 14.7496 15.4999C14.7496 14.8999 14.4996 13.7499 12.7246 12.7749C12.3996 12.5999 11.9996 12.4499 11.5496 12.2749C10.4746 11.8749 9.22461 11.3999 9.22461 10.3999V9.3999C9.22461 9.2499 9.32461 9.1499 9.47461 9.1499C9.62461 9.1499 9.72461 9.2499 9.72461 9.3999V10.3999C9.72461 11.0499 10.7496 11.4499 11.7246 11.8249C12.1746 11.9999 12.5996 12.1499 12.9496 12.3499C14.9496 13.4499 15.2496 14.7999 15.2496 15.4999C15.2496 15.6499 15.1496 15.7499 14.9996 15.7499Z" fill="#141005"/>
<path d="M1 15.7499C0.85 15.7499 0.75 15.6499 0.75 15.4999C0.75 14.7999 1.05 13.4249 3.025 12.3499C3.375 12.1499 3.8 11.9999 4.25 11.8249C5.225 11.4499 6.25 11.0749 6.25 10.3999V9.3999C6.25 9.2499 6.35 9.1499 6.5 9.1499C6.65 9.1499 6.75 9.2499 6.75 9.3999V10.3999C6.75 11.3999 5.525 11.8749 4.425 12.2749C4 12.4499 3.575 12.5999 3.25 12.7749C1.5 13.7499 1.25 14.8999 1.25 15.4999C1.25 15.6499 1.15 15.7499 1 15.7499Z" fill="#141005"/>
<path d="M8.00002 14.2499C6.50002 14.2499 5.12502 13.3749 4.52502 11.9999C4.47502 11.8749 4.52502 11.7249 4.65002 11.6749C4.77502 11.6249 4.92502 11.6749 4.97502 11.7999C5.50002 12.9749 6.70002 13.7499 8.00002 13.7499C9.30002 13.7499 10.5 12.9749 11.025 11.7999C11.075 11.6749 11.225 11.6249 11.35 11.6749C11.475 11.7249 11.525 11.8749 11.475 11.9999C10.875 13.3749 9.50002 14.2499 8.00002 14.2499Z" fill="#141005"/>
<path d="M8 10.2501C6.675 10.2501 5.4 9.0001 5.025 7.4001C4.675 7.2751 4.25 6.9001 4.25 6.0001C4.25 5.7751 4.275 5.5501 4.35 5.3751C4.425 5.1501 4.625 5.0001 4.875 4.9751C5.55 4.9001 5.75 4.3751 5.975 3.6001C6.125 3.0501 6.3 2.4751 6.875 2.4751C7.175 2.4751 7.425 2.5751 7.6 2.6501C7.725 2.5501 7.95 2.4751 8.325 2.4751C8.9 2.4751 9.3 3.0501 9.75 3.6751C10.175 4.2751 10.625 4.9001 11.175 4.9751C11.4 5.0001 11.575 5.1501 11.675 5.3501C11.725 5.5501 11.75 5.7501 11.75 6.0001C11.75 6.9001 11.3 7.2751 10.975 7.4001C10.6 9.0001 9.325 10.2501 8 10.2501ZM4.925 5.5001C4.875 5.5001 4.85 5.5251 4.825 5.5751C4.775 5.6751 4.75 5.8251 4.75 6.0001C4.75 6.8751 5.25 6.9501 5.275 6.9501C5.375 6.9501 5.475 7.0501 5.5 7.1501C5.8 8.7501 7.025 9.7501 8 9.7501C8.975 9.7501 10.2 8.7501 10.5 7.1501C10.525 7.0501 10.6 6.9501 10.725 6.9501C10.775 6.9501 11.25 6.8501 11.25 6.0001C11.25 5.7751 11.2 5.6501 11.175 5.5751C11.15 5.5251 11.125 5.5001 11.075 5.5001C10.3 5.4001 9.775 4.6501 9.3 4.0001C8.95 3.5251 8.6 3.0251 8.3 3.0251C7.925 3.0251 7.825 3.1501 7.825 3.1501C7.8 3.2001 7.75 3.2501 7.675 3.2501C7.6 3.2751 7.525 3.2501 7.475 3.2001C7.475 3.2001 7.225 3.0001 6.875 3.0001C6.7 3.0001 6.6 3.3001 6.45 3.7751C6.25 4.4501 5.975 5.4001 4.925 5.5001Z" fill="#141005"/>
<path d="M12.0254 10.25C11.1254 10.25 10.7754 10.075 10.7504 10.075C10.6254 10.025 10.5754 9.875 10.6504 9.75C10.7004 9.625 10.8504 9.575 10.9754 9.65C11.1004 9.725 11.2754 9.775 12.0254 9.775C12.7504 9.775 13.0004 9.25 13.0004 8.775C13.0004 8.025 12.6254 7.225 12.4504 6.85C12.3004 6.525 12.3254 6.125 12.3504 5.725C12.3754 5.35 12.4004 4.975 12.3004 4.6C12.1754 4.1 11.8504 3.725 11.5504 3.4C11.4004 3.25 11.2754 3.1 11.1754 2.95C11.0754 2.8 10.9754 2.6 10.8754 2.375C10.5504 1.625 10.1504 0.75 9.00044 0.75C8.05044 0.75 7.70044 1.15 7.70044 1.15C7.62544 1.25 7.45044 1.275 7.35044 1.175C7.25044 1.1 7.22544 0.925 7.30044 0.825C7.32544 0.825 7.77544 0.25 9.00044 0.25C10.4754 0.25 11.0004 1.375 11.3504 2.125C11.4504 2.325 11.5254 2.5 11.6004 2.6C11.7004 2.725 11.8254 2.875 11.9504 3C12.2754 3.375 12.6754 3.8 12.8254 4.425C12.9254 4.875 12.9004 5.325 12.8754 5.7C12.8504 6.075 12.8254 6.375 12.9254 6.6C13.1254 7.025 13.5004 7.875 13.5004 8.725C13.5004 9.5 13.0504 10.25 12.0254 10.25Z" fill="#141005"/>
<path d="M3.975 10.25C2.95 10.25 2.5 9.5 2.5 8.75C2.5 7.9 2.9 7.025 3.075 6.625C3.175 6.425 3.15 6.1 3.125 5.725C3.1 5.325 3.075 4.9 3.175 4.45C3.325 3.8 3.7 3.4 4.05 3.025C4.175 2.875 4.3 2.75 4.4 2.625C4.475 2.5 4.575 2.325 4.65 2.15C4.95 1.475 5.4 0.5 6.75 0.5C7.175 0.5 7.6 0.75 7.625 0.8C7.75 0.875 7.775 1.025 7.7 1.15C7.625 1.275 7.475 1.3 7.35 1.225C7.275 1.15 6.975 1 6.75 1C5.725 1 5.4 1.7 5.1 2.35C5 2.55 4.925 2.75 4.8 2.9C4.675 3.05 4.55 3.2 4.425 3.35C4.125 3.7 3.8 4.05 3.675 4.55C3.6 4.925 3.6 5.325 3.625 5.675C3.65 6.1 3.675 6.475 3.525 6.8C3.375 7.2 3 8 3 8.75C3 9.225 3.25 9.75 3.975 9.75C4.75 9.75 5.025 9.625 5.05 9.625C5.175 9.575 5.325 9.625 5.375 9.75C5.425 9.875 5.375 10.025 5.275 10.075C5.225 10.075 4.875 10.25 3.975 10.25Z" fill="#141005"/>
</g>
<defs>
<clipPath id="clip0_1670_14999">
<rect width="16" height="16" fill="white"/>
</clipPath>
</defs>
</svg>
