<svg width="254" height="169" viewBox="0 0 254 169" fill="none" xmlns="http://www.w3.org/2000/svg">
<mask id="mask0_1723_10020" style="mask-type:luminance" maskUnits="userSpaceOnUse" x="0" y="0" width="254" height="169">
<path d="M254 0H0V169H254V0Z" fill="white"/>
</mask>
<g mask="url(#mask0_1723_10020)">
<path opacity="0.26" d="M51.4888 18.8639C33.5868 33.6301 57.5175 52.5841 45.1199 60.8581C32.7222 69.1323 -15.6326 125.718 42.6024 143.323C93.614 158.744 87.4054 164.844 124.317 144.574C161.229 124.303 157.382 126.327 187.757 140.03C218.133 153.734 249.881 132.414 239.087 107.11C228.292 81.8069 221.42 82.1223 233.746 65.9632C246.072 49.804 224.61 -3.48928 182.181 31.0681C139.751 65.6254 135.132 45.2271 117.19 27.2575C107.476 17.5284 79.7799 -4.47138 51.4888 18.8639Z" fill="#EAD8AE"/>
<path opacity="0.26" d="M54.9529 18.8639C37.3778 33.6301 60.8715 52.5841 48.7003 60.8581C36.529 69.1323 -13.8785 85.2697 36.8836 117.284C87.6457 149.297 90.2138 164.844 126.452 144.574C162.689 124.303 158.913 126.327 188.733 140.03C218.554 153.734 249.723 132.414 239.126 107.11C228.528 81.8069 221.781 82.1223 233.882 65.9632C245.983 49.804 224.913 -3.48928 183.259 31.0681C141.604 65.6254 137.069 45.2271 119.454 27.2575C109.917 17.5284 82.7274 -4.47138 54.9529 18.8639Z" fill="#EAD8AE"/>
<path opacity="0.26" d="M57.5699 25.6032C40.8605 39.5911 63.197 57.5463 51.6252 65.3845C40.0534 73.2228 -7.87111 88.5096 40.3906 118.837C88.6523 149.164 91.0938 163.891 125.547 144.688C160 125.486 156.409 127.403 184.761 140.385C213.113 153.366 242.746 133.169 232.671 109.199C222.596 85.2291 216.181 85.5281 227.685 70.2205C239.19 54.9129 219.159 4.42792 179.556 37.1643C139.953 69.9006 135.641 50.5772 118.894 33.5544C109.827 24.338 83.9763 3.49757 57.5699 25.6032Z" fill="#EAD8AE"/>
<path d="M101.139 143.147C92.8492 144.801 82.2625 135.781 78.8521 125.926C75.3423 115.785 81.7776 111.537 81.7278 97.4643C81.6713 81.4786 73.3395 79.0693 67.8281 57.5218C66.5846 52.6603 59.3889 24.5269 68.3073 19.2534C76.5534 14.3776 99.7157 28.3706 103.775 46.2803C106.67 59.0508 97.7214 64.4128 101.139 79.2867C104.138 92.3375 112.019 92.5263 115.039 105.118C118.715 120.447 112.024 140.975 101.139 143.147Z" fill="#EAD8AE"/>
<path d="M100.536 147.02C102.771 129.797 98.4115 103.225 94.3607 83.9669C89.9749 63.117 84.9974 46.1099 84.9476 45.9404L84.2578 46.1424C84.3076 46.3114 89.2783 63.2959 93.6584 84.1194C97.6972 103.321 102.045 129.805 99.8234 146.928L100.536 147.02Z" fill="url(#paint0_linear_1723_10020)"/>
<path d="M83.1542 153.432C94.0285 147.777 97.7507 128.359 91.5694 122.048C87.3928 117.783 81.403 122.269 75.6247 117.848C68.2471 112.205 73.6742 101.575 67.8739 87.7901C62.9379 76.0588 51.0974 64.9578 44.1785 67.2355C36.9359 69.6197 33.121 87.3102 39.3066 97.9567C43.3291 104.88 49.4862 105.22 50.8221 111.66C52.3721 119.132 44.8838 122.539 44.8429 129.783C44.7697 142.795 68.7682 160.913 83.1542 153.432Z" fill="#A27E2A"/>
<path d="M77.2868 158.405C77.3515 158.405 77.4176 158.391 77.4798 158.36C77.6999 158.254 77.7918 157.989 77.6849 157.77C63.2683 128.121 59.0409 93.7264 58.9998 93.3825C58.971 93.1399 58.7503 92.9667 58.5077 92.9959C58.2649 93.0246 58.0914 93.2445 58.1204 93.487C58.1616 93.8324 62.407 128.375 76.888 158.156C76.9644 158.313 77.1223 158.405 77.2868 158.405Z" fill="url(#paint1_linear_1723_10020)"/>
<path d="M47.7079 102.29C47.7534 102.29 47.7993 102.275 47.8378 102.246C47.9301 102.174 47.9466 102.041 47.8747 101.949C43.3243 96.1195 38.2807 87.3615 40.0963 78.7427C41.1775 73.6097 44.2209 70.9325 44.2516 70.9061C44.3398 70.8299 44.3496 70.6966 44.2732 70.6083C44.1965 70.52 44.0628 70.5103 43.9745 70.5867C43.8452 70.6983 40.7923 73.3845 39.6821 78.6556C38.6617 83.5002 39.1968 91.5191 47.5409 102.208C47.5826 102.262 47.645 102.29 47.7079 102.29Z" fill="#F0F0F0"/>
<path d="M84.1354 150.843C84.2029 150.843 84.2692 150.811 84.3103 150.751C91.3035 140.565 93.6884 132.694 91.3981 127.358C89.3621 122.614 84.2211 121.731 84.1695 121.722C84.0539 121.704 83.9455 121.782 83.9267 121.897C83.9081 122.012 83.9862 122.12 84.1015 122.139C84.1509 122.147 89.0698 122.998 91.0112 127.529C93.2367 132.724 90.8647 140.457 83.961 150.512C83.8947 150.609 83.9195 150.74 84.0158 150.806C84.0526 150.831 84.0943 150.843 84.1354 150.843Z" fill="#F0F0F0"/>
<path d="M157.983 98.7455C159.995 89.384 164.882 81.5999 171.087 76.6959C176.634 72.312 180.324 65.972 181.242 58.9773C181.339 58.2422 181.466 57.5017 181.626 56.7586C184.046 45.4996 192.92 37.8521 201.447 39.6775C209.973 41.5029 214.924 52.1098 212.504 63.3688C212.009 65.671 211.244 67.8217 210.268 69.7711C207.151 75.9924 206.387 83.1614 208.396 89.8249C210.191 95.7798 210.521 102.651 209.012 109.67C206.763 120.138 200.918 128.634 193.656 133.336C190.909 135.115 188.496 137.38 186.572 140.02C183.373 144.408 178.501 146.802 173.714 145.777C168.549 144.671 164.93 139.897 164.134 133.988C163.683 130.645 162.579 127.433 160.996 124.45C157.258 117.408 155.949 108.211 157.983 98.7455Z" fill="#A27E2A"/>
<path opacity="0.57" d="M195.886 51.0156C193.173 58.2182 190.694 65.5019 188.291 72.8116C187.689 74.6387 187.118 76.4753 186.54 78.31L185.673 81.0621L184.83 83.8215C184.274 85.6634 183.694 87.4974 183.16 89.3457L181.556 94.8897C180.535 98.5993 179.482 102.3 178.53 106.029C178.051 107.892 177.536 109.746 177.095 111.619L175.747 117.232C174.026 124.733 172.492 132.28 171.344 139.89L171.672 139.943L172.748 134.282L173.014 132.866L173.315 131.458L173.923 128.641L174.525 125.825C174.724 124.885 174.959 123.953 175.173 123.017C175.616 121.149 176.043 119.276 176.497 117.41C178.363 109.958 180.329 102.529 182.447 95.1428C183.535 91.4575 184.59 87.7634 185.704 84.0855L186.531 81.3249L187.382 78.5713C187.948 76.7351 188.513 74.8989 189.098 73.0684C190.236 69.3978 191.4 65.7347 192.594 62.0813C193.768 58.4218 194.978 54.7723 196.198 51.1284L195.886 51.0156Z" fill="white"/>
<path d="M191.459 120.624C194.684 114.407 199.628 109.853 204.943 107.582C209.693 105.552 213.516 101.787 215.514 97.0308C215.724 96.5308 215.957 96.0331 216.213 95.5396C220.091 88.0631 227.814 84.3683 233.463 87.2869C239.111 90.2056 240.545 98.6325 236.666 106.109C235.873 107.638 234.919 109.008 233.855 110.196C230.46 113.987 228.537 118.896 228.663 123.979C228.775 128.522 227.68 133.43 225.262 138.091C221.656 145.042 215.9 149.915 209.881 151.842C207.604 152.57 205.468 153.706 203.603 155.2C200.504 157.681 196.612 158.437 193.441 156.799C190.021 155.031 188.396 150.971 188.977 146.653C189.306 144.209 189.15 141.733 188.612 139.326C187.343 133.645 188.199 126.909 191.459 120.624Z" fill="url(#paint2_linear_1723_10020)"/>
<path opacity="0.57" d="M227.36 94.2185C224.058 98.7783 220.906 103.44 217.802 108.135C217.026 109.308 216.268 110.494 215.507 111.677L214.365 113.452L213.238 115.237C212.492 116.429 211.729 117.612 210.996 118.813L208.796 122.416C207.36 124.836 205.904 127.244 204.513 129.691C203.816 130.914 203.096 132.122 202.423 133.359L200.39 137.059C197.729 142.019 195.191 147.048 192.912 152.195L193.133 152.295L194.984 148.508L195.445 147.561L195.929 146.625L196.901 144.756L197.87 142.885C198.191 142.26 198.536 141.648 198.868 141.029C199.54 139.796 200.203 138.557 200.883 137.328C203.637 132.43 206.455 127.568 209.374 122.764C210.851 120.374 212.308 117.971 213.803 115.59L214.918 113.802L216.049 112.023C216.802 110.836 217.555 109.65 218.32 108.471C219.83 106.1 221.358 103.74 222.904 101.392C224.438 99.0358 225.994 96.6939 227.558 94.3577L227.36 94.2185Z" fill="white"/>
<path d="M192.952 124.409C191.962 121.186 190.22 118.321 187.936 115.999C185.048 113.063 181.295 110.995 177.103 110.171C177.103 110.171 169.511 108.774 162.424 106.583C159.332 109.81 150.962 116.646 135.797 116.277C121.423 115.927 114.935 110.121 112.456 106.959C106.56 108.932 100.642 110.171 100.642 110.171C93.1371 111.646 83.5953 117.11 81.3536 124.409C78.7014 133.044 75.9821 148.576 76.9655 158.951H197.34C198.324 148.576 195.604 133.044 192.952 124.409Z" fill="#082133"/>
<path d="M135.796 116.277C150.961 116.646 159.331 109.81 162.423 106.583C156.275 104.681 150.507 102.182 150.411 99.4764L149.485 73.417H125.06L124.134 99.4764C124.032 102.364 118.254 105.017 112.455 106.959C114.935 110.121 121.422 115.927 135.796 116.277Z" fill="url(#paint3_linear_1723_10020)"/>
<path d="M115.852 50.307C115.852 50.307 118.751 79.8201 125.129 87.3429C125.129 87.3429 144.263 89.0791 151.221 85.0282C151.221 85.0282 156.15 70.2716 155.57 50.5962C155.57 50.5962 156.52 32.6919 136.726 31.2102C113.532 29.4743 115.852 50.307 115.852 50.307Z" fill="url(#paint4_linear_1723_10020)"/>
<path d="M153.541 59.5658C153.541 59.5658 155.28 54.3577 158.179 54.3577C161.079 54.3577 157.6 68.2463 153.541 68.2463V59.5658Z" fill="url(#paint5_linear_1723_10020)"/>
<path d="M118.491 60.9339C118.491 60.9339 116.064 56.0073 113.191 56.3975C110.319 56.7877 115.642 70.081 119.664 69.5349L118.491 60.9339Z" fill="url(#paint6_linear_1723_10020)"/>
<path d="M118.235 70.1815C118.941 75.9653 120.905 86.2316 126.236 92.4041C126.959 93.2417 127.996 93.7447 129.102 93.7979C133.066 93.9883 143.207 94.329 148.924 93.1921C150.347 92.9092 151.518 91.9081 151.986 90.5377C153.301 86.69 155.521 80.7649 155.114 67.8273C155.093 67.1625 154.181 66.992 153.923 67.6053L150.328 76.1533C148.42 81.2151 146.505 80.1267 145.172 78.1378C143.575 75.7534 140.889 74.3226 138.015 74.3226C135.316 74.3226 132.798 75.604 131.146 77.7334C131.123 77.7626 131.1 77.7917 131.077 77.8207C129.6 79.6727 126.727 79.51 125.435 77.5249L120.194 69.4715C119.576 68.5223 118.099 69.0582 118.235 70.1815Z" fill="url(#paint7_linear_1723_10020)"/>
<path d="M119.016 59.9272C117.902 60.4204 116.603 59.8699 116.188 58.7271C115.456 56.7164 114.333 53.6606 113.423 51.3255C111.941 47.523 104.109 42.6642 112.364 33.158C120.619 23.6517 125.294 33.9692 130.789 31.2398C136.283 28.5105 142.844 22.173 148.559 26.1867C154.274 30.2005 150.464 34.003 152.369 35.0592C154.274 36.1155 157.238 30.623 159.354 38.0167C160.992 43.7372 158.324 54.2688 157.033 58.7427C156.72 59.8291 155.481 60.3476 154.485 59.8095C153.959 59.5256 153.612 58.9981 153.561 58.4034C153.418 56.7176 153.082 52.983 152.581 48.7905C151.899 43.0855 146.682 50.9896 136.508 52.1082C126.334 53.2267 127.181 47.7342 122.313 47.7342C120.259 47.7342 120.197 54.8842 120.265 57.9663C120.284 58.8113 119.79 59.5843 119.016 59.9272Z" fill="url(#paint8_linear_1723_10020)"/>
<path opacity="0.65" d="M116.005 54.5939C116.195 54.468 116.203 54.1797 116.149 53.9221C116.124 53.7926 116.074 53.6598 116.03 53.5231C115.983 53.3883 115.945 53.2516 115.892 53.1192C115.693 52.5856 115.445 52.0712 115.179 51.5665C114.628 50.5639 114.001 49.5995 113.383 48.6122C112.78 47.6191 112.182 46.5945 111.78 45.4639C111.366 44.3373 111.182 43.1283 111.198 41.9286C111.232 40.7287 111.456 39.5307 111.898 38.4098C112.335 37.2892 112.993 36.2494 113.817 35.3744C115.466 33.6312 117.763 32.5096 120.118 32.3759C120.176 32.3725 120.226 32.4171 120.23 32.4756C120.233 32.5291 120.195 32.5758 120.144 32.5857C117.89 33.027 115.839 34.1982 114.355 35.8649C112.875 37.5302 112.027 39.72 111.962 41.9474C111.938 43.059 112.078 44.1793 112.447 45.2334C112.798 46.2958 113.334 47.3066 113.904 48.3056C114.468 49.3089 115.077 50.3055 115.572 51.3698C115.815 51.9041 116.039 52.4485 116.212 53.0114C116.257 53.1511 116.29 53.2956 116.329 53.4371C116.366 53.5776 116.408 53.7202 116.426 53.8778C116.444 54.032 116.448 54.1925 116.41 54.3558C116.376 54.5174 116.273 54.6881 116.114 54.7747C116.063 54.8028 115.998 54.784 115.97 54.7329C115.944 54.6845 115.96 54.6241 116.005 54.5939Z" fill="white"/>
<path opacity="0.65" d="M117.051 55.0482C117.045 55.0482 117.038 55.0476 117.031 55.0463C116.974 55.0353 116.936 54.98 116.947 54.9227C117.385 52.6341 116.246 50.4339 115.144 48.3062C114.072 46.2368 112.964 44.0968 113.24 41.8221C113.627 38.6303 116.594 36.4441 118.791 35.0775C118.841 35.0466 118.906 35.0619 118.937 35.1113C118.968 35.1607 118.953 35.226 118.903 35.2568C116.742 36.6006 113.827 38.7458 113.45 41.8476C113.182 44.0577 114.275 46.1683 115.332 48.2094C116.45 50.369 117.606 52.6022 117.155 54.9625C117.145 55.0132 117.101 55.0482 117.051 55.0482Z" fill="white"/>
<path opacity="0.65" d="M131.93 46.825C132.123 47.4205 132.508 47.9402 133.006 48.3145C133.499 48.6969 134.09 48.9442 134.697 49.0722C135.306 49.1922 135.935 49.1796 136.552 49.0649C137.169 48.9558 137.767 48.7425 138.347 48.4896C139.506 47.9704 140.588 47.2555 141.668 46.5478C142.744 45.8308 143.802 45.0739 144.901 44.3631C145.996 43.6497 147.128 42.9673 148.344 42.436C149.559 41.9052 150.828 41.477 152.195 41.3844C152.874 41.3464 153.595 41.4311 154.235 41.7499C154.315 41.7875 154.392 41.8314 154.466 41.8802C154.541 41.9278 154.617 41.9728 154.69 42.023C154.827 42.1346 154.971 42.2383 155.088 42.3697C155.34 42.6156 155.538 42.9052 155.704 43.2041C156.038 43.8058 156.209 44.4621 156.324 45.1113C156.44 45.7626 156.483 46.4175 156.504 47.0688C156.506 47.1271 156.46 47.1759 156.401 47.1778C156.346 47.1794 156.3 47.1376 156.293 47.0842C156.213 46.4422 156.13 45.8017 155.981 45.1814C155.834 44.5618 155.623 43.9598 155.305 43.4342C155.144 43.1735 154.96 42.9293 154.736 42.7309C154.632 42.6228 154.505 42.5436 154.389 42.4517C154.327 42.4117 154.261 42.3767 154.198 42.3387C154.135 42.2994 154.07 42.2645 154.002 42.236C153.465 41.9869 152.846 41.935 152.233 41.9795C151.926 42.0028 151.617 42.0501 151.31 42.1158C151.003 42.1825 150.698 42.2759 150.392 42.3549C149.789 42.551 149.188 42.7586 148.61 43.0299C147.447 43.5531 146.337 44.2048 145.253 44.906C144.168 45.6065 143.1 46.3467 142.002 47.0552C140.903 47.7593 139.787 48.4565 138.557 48.9763C137.942 49.2307 137.298 49.4335 136.629 49.5313C135.965 49.634 135.27 49.6283 134.608 49.4635C133.951 49.2947 133.325 48.9985 132.808 48.5593C132.282 48.1322 131.893 47.5339 131.726 46.8809C131.712 46.8245 131.746 46.7669 131.802 46.7525C131.857 46.7386 131.912 46.7694 131.929 46.822L131.93 46.825Z" fill="white"/>
<path d="M132.793 70.0189C135.052 69.8077 137.142 71.2366 137.755 73.4169C140.622 83.6123 147.5 112.752 140.89 138.252C139.887 142.124 136.104 144.631 132.137 144.062C132.086 144.055 132.034 144.048 131.983 144.04C129.567 143.683 127.346 142.522 125.65 140.768C122.739 137.758 116.792 132.525 108.207 129.411C103.689 127.773 101.566 122.613 103.664 118.298C109.317 106.671 119.137 86.5455 124.733 75.4994C126.298 72.4111 129.341 70.3415 132.793 70.0189Z" fill="#DFC486"/>
<path d="M111.042 123.949C109.108 123.741 107.807 121.801 107.565 120.082C107.306 118.238 107.889 116.417 108.508 114.711C110.921 108.063 114.253 101.68 117.475 95.5084C120.51 89.6946 123.649 83.6828 126.012 77.4619L126.21 77.5367C123.843 83.7692 120.701 89.7867 117.663 95.606C114.444 101.772 111.115 108.148 108.707 114.783C108.097 116.464 107.522 118.256 107.775 120.052C108.005 121.693 109.237 123.542 111.065 123.739L111.042 123.949Z" fill="white"/>
<path d="M92.041 116.921C83.5398 136.238 76.6641 158.951 76.6641 158.951H97.2698L105.184 119.534C99.7573 119.579 95.1574 118.211 92.041 116.921Z" fill="#082133"/>
<path d="M133.85 71.705C133.387 70.7026 132.226 70.2279 131.189 70.6105L117.872 75.5212C116.348 76.0831 115.066 77.1529 114.242 78.5499L105.13 93.998C100.79 98.7524 96.2193 107.427 92.041 116.921C95.1572 118.211 99.7573 119.579 105.184 119.535L109.129 99.8883C109.663 97.2284 111.439 94.9835 113.911 93.8547C116.676 92.5919 120.041 90.78 120.884 89.1276C122.375 86.2058 125.006 80.2657 131.143 77.7336C135.044 76.1241 134.653 73.4444 133.85 71.705Z" fill="url(#paint9_linear_1723_10020)"/>
<path d="M201.297 155.694C201.297 155.694 201.494 156.811 201.591 157.916C201.629 158.348 201.295 158.723 200.861 158.741C199.386 158.802 196.232 158.922 195.1 158.871C194.929 158.864 194.818 158.69 194.881 158.532C194.934 158.399 195.036 158.292 195.165 158.233L200.376 155.843L201.297 155.694Z" fill="url(#paint10_linear_1723_10020)"/>
<path d="M201.459 155.038L201.3 156.374C201.3 156.374 200.387 156.798 199.764 156.32L200.142 154.832L201.459 155.038Z" fill="url(#paint11_linear_1723_10020)"/>
<path d="M201.339 129.929C201.408 130.277 201.707 147.333 199.88 154.977C199.851 155.101 199.914 155.23 200.033 155.279C200.313 155.393 200.862 155.558 201.521 155.58C201.724 155.587 201.907 155.455 201.965 155.26C202.487 153.486 204.989 144.601 205.315 136.114C205.68 126.629 205.315 135.791 205.315 135.791L205.101 129.928L201.339 129.929Z" fill="url(#paint12_linear_1723_10020)"/>
<path d="M207.292 156.277C207.292 156.277 207.606 156.84 207.911 158.338C207.966 158.609 207.777 158.868 207.501 158.895C207.014 158.942 206.265 159.004 205.664 159C205.387 158.998 205.171 158.757 205.205 158.483C205.271 157.936 205.478 157.039 206.119 156.34L207.292 156.277Z" fill="url(#paint13_linear_1723_10020)"/>
<path d="M207.569 154.559L207.198 156.579C207.198 156.579 206.831 156.851 206.105 156.654L206.283 154.48L207.569 154.559Z" fill="url(#paint14_linear_1723_10020)"/>
<path d="M208.571 130.452C210.065 139.451 208.247 152.694 207.634 155.286C207.596 155.444 207.468 155.566 207.307 155.593C207.033 155.638 206.583 155.675 206.138 155.546C205.985 155.502 205.878 155.364 205.871 155.205C205.789 153.11 205.937 140.245 204.545 135.161C204.475 134.904 204.317 134.679 204.099 134.524L201.397 132.607L201.189 129.508L208.571 130.452Z" fill="url(#paint15_linear_1723_10020)"/>
<path d="M199.049 113.401C203.527 113.327 208.467 114.574 208.467 114.574C209.801 122.346 208.7 131.311 208.7 131.311C205.234 132.218 201.324 130.756 201.324 130.756C200.748 127.508 198.06 118.365 198.06 118.365C195.872 118.094 194.07 117.464 192.586 116.631C193.718 115.322 194.252 113.655 194.483 112.67C196.066 113.162 197.668 113.424 199.049 113.401Z" fill="#795E20"/>
<path d="M185.824 106.819C186.264 106.289 186.821 106.54 186.821 106.54C187.48 109.318 190.934 111.57 194.484 112.671C194.252 113.656 193.718 115.322 192.586 116.632C186.696 113.326 185.824 106.819 185.824 106.819Z" fill="url(#paint16_linear_1723_10020)"/>
<path d="M185.932 106.954C185.886 107.1 186.418 107.322 186.732 106.725C186.743 106.439 186.918 105.213 186.746 104.979C185.834 103.737 184.064 102.181 184.064 102.181C183.765 102.475 184.011 102.765 184.011 102.765L184.87 103.657C184.69 103.981 184.471 104.254 184.369 104.646C184.291 104.943 184.338 105.26 184.489 105.529C184.639 105.8 184.845 106.153 185.039 106.428C185.407 106.95 185.932 106.954 185.932 106.954Z" fill="url(#paint17_linear_1723_10020)"/>
<path d="M185.245 104.236L186.028 104.898L186.273 105.557L185.576 106.329C185.576 106.329 185.341 105.022 185.167 104.738C184.993 104.456 185.083 104.319 185.245 104.236Z" fill="url(#paint18_linear_1723_10020)"/>
<path d="M206.75 118.901L208.467 114.574C208.467 114.574 212.649 117.41 213.337 121.006C212.547 121.064 211.109 121.269 209.701 121.979C209.392 120.281 206.75 118.901 206.75 118.901Z" fill="#795E20"/>
<path d="M206.6 123.722C206.6 123.722 208.638 124.797 209.375 123.36C209.637 122.85 209.783 122.423 209.702 121.978C211.109 121.269 212.547 121.064 213.338 121.006C213.545 122.09 213.516 123.29 212.797 124.408C210.647 127.751 205.979 124.877 205.979 124.877L206.6 123.722Z" fill="url(#paint19_linear_1723_10020)"/>
<path d="M203.585 109.773L205.01 113.885C205.034 113.953 205.006 114.029 204.942 114.063C204.554 114.278 203.155 114.897 201.469 113.83C201.293 113.719 201.174 113.538 201.147 113.332L200.686 109.773L203.585 109.773Z" fill="url(#paint20_linear_1723_10020)"/>
<path d="M200.485 105.966C200.485 105.966 198.921 108.904 199.121 110.092C199.322 111.279 201.261 111.194 202.954 110.229L204.137 107.056L200.485 105.966Z" fill="url(#paint21_linear_1723_10020)"/>
<path d="M202.878 108.671C202.809 108.641 202.784 108.557 202.825 108.494C202.951 108.303 203.186 107.913 203.26 107.572C203.26 107.572 203.542 107.392 202.545 107.154C201.548 106.915 200.061 106.546 199.748 105.699C199.444 104.873 200.244 102.796 201.521 104.451C201.57 104.514 201.665 104.515 201.714 104.452C201.923 104.18 202.474 103.616 203.238 103.958C203.953 104.278 204.034 104.801 204.024 105.065C204.021 105.142 204.091 105.203 204.167 105.188C204.528 105.119 205.396 105.06 205.801 105.949C206.135 106.68 205.918 107.095 205.72 107.297C205.657 107.363 205.684 107.471 205.772 107.498C206.01 107.57 206.317 107.772 206.286 108.327C206.244 109.095 205.383 109.028 205.138 108.993C205.098 108.987 205.057 109.001 205.03 109.031C204.82 109.263 203.874 110.248 202.849 110.367C202.761 110.377 202.692 110.289 202.721 110.205L203.164 108.919C203.184 108.859 203.156 108.794 203.098 108.768L202.878 108.671Z" fill="url(#paint22_linear_1723_10020)"/>
<path d="M202.7 108.854C202.7 108.854 203.814 108.091 203.896 108.733C203.977 109.375 202.892 109.663 202.355 109.424L202.7 108.854Z" fill="url(#paint23_linear_1723_10020)"/>
<path d="M206.169 131.896C205.765 131.896 205.434 131.573 205.428 131.168L204.785 88.425C204.779 88.0167 205.106 87.6808 205.515 87.6747C205.932 87.6681 206.261 87.9947 206.267 88.4028L206.91 131.146C206.916 131.554 206.589 131.89 206.18 131.896C206.176 131.896 206.172 131.896 206.169 131.896Z" fill="#082133"/>
<path d="M208.02 125.814C208.02 125.814 208.378 124.349 208.233 123.829C208.089 123.31 207.811 122.641 206.88 122.79C205.951 122.938 204.854 123.329 204.854 123.329C204.854 123.329 204.909 124.006 205.616 123.788L205.177 124.126C205.177 124.126 205.24 124.668 205.837 124.379L205.429 124.828C205.429 124.828 205.686 125.273 206.125 124.987C206.564 124.702 206.775 125.99 208.02 125.814Z" fill="url(#paint24_linear_1723_10020)"/>
<path d="M203.766 92.1308C223.283 92.1308 239.105 76.3404 239.105 56.8618C239.105 37.3833 223.283 21.5928 203.766 21.5928C184.249 21.5928 168.428 37.3833 168.428 56.8618C168.428 76.3404 184.249 92.1308 203.766 92.1308Z" fill="#082133"/>
<path opacity="0.74" d="M224.745 77.0791C236.047 65.7995 236.047 47.5116 224.745 36.2319C213.443 24.9523 195.119 24.9523 183.817 36.2319C172.515 47.5116 172.515 65.7995 183.817 77.0791C195.119 88.3587 213.443 88.3587 224.745 77.0791Z" fill="white"/>
<path d="M183.65 83.4069L176.973 76.1536L226.547 30.6958L233.224 37.9491L183.65 83.4069Z" fill="#082133"/>
<path d="M215.166 38.5359L212.172 34.0591L205.986 38.5359H215.166Z" fill="url(#paint25_linear_1723_10020)"/>
<path d="M209.143 38.5359H190.967V74.2688H209.143V38.5359Z" fill="url(#paint26_linear_1723_10020)"/>
<path d="M215.164 38.5359H208.957V74.2688H215.164V38.5359Z" fill="url(#paint27_linear_1723_10020)"/>
<path d="M208.958 38.5359H190.967L194.181 34.0591H212.171L208.958 38.5359Z" fill="url(#paint28_linear_1723_10020)"/>
<path d="M212.171 34.0591H194.365V31.0925C194.365 30.8318 194.577 30.6204 194.838 30.6204H211.698C211.959 30.6204 212.171 30.8316 212.171 31.0925V34.0591H212.171Z" fill="url(#paint29_linear_1723_10020)"/>
<path d="M188.464 71.0905L221.658 53.0802C223.205 52.2413 225.139 52.8072 225.986 54.3472C228.573 59.0518 232.943 69.4275 229.86 81.8106C229.428 83.5471 227.652 84.5919 225.922 84.1242L188.817 74.093C187.396 73.7087 187.171 71.7921 188.464 71.0905Z" fill="url(#paint30_linear_1723_10020)"/>
<path d="M221.024 76.9787C222.523 76.9787 223.739 75.7654 223.739 74.2688C223.739 72.7721 222.523 71.5588 221.024 71.5588C219.524 71.5588 218.309 72.7721 218.309 74.2688C218.309 75.7654 219.524 76.9787 221.024 76.9787Z" fill="url(#paint31_linear_1723_10020)"/>
<path d="M219.887 67.3017C221.815 67.3017 223.379 65.7413 223.379 63.8165C223.379 61.8917 221.815 60.3313 219.887 60.3313C217.958 60.3313 216.395 61.8917 216.395 63.8165C216.395 65.7413 217.958 67.3017 219.887 67.3017Z" fill="url(#paint32_linear_1723_10020)"/>
<path d="M218.558 70.0966C218.338 70.8119 217.578 71.2135 216.861 70.9936C216.145 70.7736 215.742 70.0155 215.963 69.3002C216.183 68.5849 216.943 68.1833 217.659 68.4032C218.376 68.6231 218.778 69.3813 218.558 70.0966Z" fill="url(#paint33_linear_1723_10020)"/>
<path d="M209.456 64.6838C210.908 64.3093 212.389 65.1803 212.765 66.6294C213.14 68.0784 212.267 69.5567 210.815 69.9313C209.364 70.3058 207.882 69.4346 207.507 67.9857C207.132 66.5365 208.005 65.0581 209.456 64.6838Z" fill="url(#paint34_linear_1723_10020)"/>
<path d="M200.02 67.5531C201.887 67.0715 203.792 68.1917 204.274 70.0554C204.757 71.919 203.635 73.8203 201.767 74.3019C199.9 74.7836 197.995 73.6633 197.512 71.7997C197.03 69.9358 198.152 68.0348 200.02 67.5531Z" fill="url(#paint35_linear_1723_10020)"/>
<path d="M207.866 71.5876C208.592 71.4004 209.332 71.8358 209.52 72.5604C209.708 73.285 209.271 74.0239 208.545 74.2113C207.819 74.3985 207.079 73.9631 206.891 73.2385C206.704 72.5139 207.14 71.7748 207.866 71.5876Z" fill="url(#paint36_linear_1723_10020)"/>
<path d="M210.683 62.5258C212.934 71.2633 208.882 78.6026 202.005 80.3673C195.128 82.1321 188.03 77.6541 185.779 68.9165C183.528 60.179 186.976 50.4909 193.853 48.7261C200.73 46.9613 208.432 53.7883 210.683 62.5258Z" fill="url(#paint37_linear_1723_10020)"/>
<path d="M206.03 65.6416C207.234 70.3146 204.764 74.3174 200.714 75.3567C196.664 76.3961 192.567 74.0785 191.363 69.4054C190.159 64.7323 192.304 59.4733 196.354 58.4339C200.405 57.3946 204.826 60.9685 206.03 65.6416Z" fill="url(#paint38_linear_1723_10020)"/>
<path d="M54.6413 106.197C74.1583 106.197 89.9799 90.406 89.9799 70.9275C89.9799 51.4489 74.1583 35.6584 54.6413 35.6584C35.1244 35.6584 19.3027 51.4489 19.3027 70.9275C19.3027 90.406 35.1244 106.197 54.6413 106.197Z" fill="#082133"/>
<path opacity="0.74" d="M75.6221 91.1435C86.9239 79.8639 86.9239 61.576 75.6221 50.2964C64.3202 39.0168 45.9962 39.0168 34.6943 50.2964C23.3925 61.576 23.3924 79.8639 34.6943 91.1435C45.9962 102.423 64.3202 102.423 75.6221 91.1435Z" fill="white"/>
<path d="M34.5249 97.4726L27.8477 90.2193L77.4219 44.7615L84.0991 52.0147L34.5249 97.4726Z" fill="#082133"/>
<path d="M49.0026 50.6759C49.8717 54.5581 49.1072 58.0327 47.2953 58.4368C45.4832 58.8409 43.3098 56.0214 42.4407 52.139C41.5716 48.2569 42.3361 44.7823 44.1482 44.3781C45.9601 43.974 48.1337 46.7938 49.0026 50.6759Z" fill="#D5B15D"/>
<path d="M45.7038 61.1771C46.5729 65.0593 45.8083 68.5339 43.9965 68.938C42.1844 69.3421 40.011 66.5226 39.1419 62.6402C38.2728 58.7581 39.0373 55.2834 40.8494 54.8793C42.6611 54.4754 44.8347 57.295 45.7038 61.1771Z" fill="#D5B15D"/>
<path d="M42.4049 71.6783C43.274 75.5605 42.5095 79.0351 40.6976 79.4392C38.8856 79.8434 36.7122 77.0238 35.8431 73.1415C34.974 69.2593 35.7385 65.7847 37.5506 65.3805C39.3624 64.9766 41.5358 67.7962 42.4049 71.6783Z" fill="#D5B15D"/>
<path d="M52.6853 51.828C49.7512 54.5201 48.3913 57.8087 49.6479 59.1727C50.9046 60.5368 54.3018 59.4602 57.236 56.7681C60.1701 54.0759 61.53 50.7874 60.2734 49.4233C59.0169 48.0591 55.6195 49.1358 52.6853 51.828Z" fill="#D5B15D"/>
<path d="M49.3865 62.3294C46.4524 65.0216 45.0924 68.3099 46.3491 69.6742C47.6058 71.0382 51.003 69.9617 53.9371 67.2695C56.8713 64.5773 58.2312 61.289 56.9745 59.9248C55.7181 58.5605 52.3208 59.6373 49.3865 62.3294Z" fill="#D5B15D"/>
<path d="M46.0877 72.8306C43.1536 75.5227 41.7936 78.8113 43.0503 80.1753C44.3069 81.5396 47.7042 80.4628 50.6383 77.7706C53.5724 75.0785 54.9324 71.7899 53.6757 70.4259C52.4191 69.0619 49.0218 70.1384 46.0877 72.8306Z" fill="#D5B15D"/>
<path d="M55.704 45.2009C54.4894 49.0674 52.2794 51.8183 50.7675 51.3453C49.2556 50.8723 49.0147 47.3544 50.229 43.4879C51.4436 39.6213 53.6536 36.8704 55.1655 37.3434C56.6774 37.8166 56.9185 41.3344 55.704 45.2009Z" fill="#D5B15D"/>
<path d="M58.9762 34.7852C58.9762 34.7852 59.0902 50.5736 50.7679 51.3455L50.1465 53.3238C50.1465 53.3238 60.7423 50.9967 58.9762 34.7852Z" fill="url(#paint39_linear_1723_10020)"/>
<path d="M63.789 46.9804C63.8642 46.6192 60.2948 60.7962 47.9839 60.5076L47.2598 62.8128C47.2598 62.8128 60.8401 61.1542 63.789 46.9804Z" fill="url(#paint40_linear_1723_10020)"/>
<path d="M61.4425 61.6243C61.6622 61.3275 50.7844 72.8235 44.8449 70.4964L44.2012 72.5453C44.2012 72.5453 51.9757 74.4153 61.4425 61.6243Z" fill="url(#paint41_linear_1723_10020)"/>
<path d="M53.5853 33.0989C53.5853 33.0989 44.4606 45.9967 50.8521 51.3722L50.2306 53.3506C50.2306 53.3506 42.8619 45.4029 53.5853 33.0989Z" fill="url(#paint42_linear_1723_10020)"/>
<path d="M42.6576 40.3695C42.8026 40.03 37.6237 53.7034 47.8965 60.4807L47.1724 62.7859C47.1724 62.7859 36.9714 53.6867 42.6576 40.3695Z" fill="url(#paint43_linear_1723_10020)"/>
<path d="M36.2071 53.7288C36.1965 53.3602 38.5517 68.9963 44.7595 70.4698L44.1158 72.5187C44.1158 72.5187 36.6634 69.6245 36.2071 53.7288Z" fill="url(#paint44_linear_1723_10020)"/>
<path d="M51.0357 49.6134C48.0087 57.8747 41.8993 75.2128 39.7507 86.1926C39.6468 86.7234 40.3457 86.8988 40.518 86.385C43.3054 78.0675 49.3667 59.6686 51.7931 49.8423C51.9243 49.3104 51.2241 49.0985 51.0357 49.6134Z" fill="url(#paint45_linear_1723_10020)"/>
<path d="M46.7668 79.8885C46.7668 79.8885 44.6402 81.1552 43.0468 79.3501C41.4923 77.5891 35.0919 70.519 26.7682 80.2629C26.5224 80.5504 26.7055 80.9957 27.0831 81.0223C28.0022 81.087 29.4303 81.3702 30.6163 82.4079C32.5369 84.0886 42.3978 85.737 44.8976 83.7196C47.3972 81.7023 46.7668 79.8885 46.7668 79.8885Z" fill="url(#paint46_linear_1723_10020)"/>
<path opacity="0.33" d="M28.8736 79.5533C28.8014 79.5533 28.7316 79.5151 28.6947 79.4475C28.6433 79.353 28.6744 79.236 28.7638 79.179C28.7807 79.1656 28.8101 79.1388 28.852 79.101C30.6611 77.4765 35.6006 74.233 42.3743 79.1861C42.4651 79.2525 42.4846 79.3796 42.4182 79.4701C42.3517 79.5607 42.2243 79.5803 42.1335 79.514C35.6006 74.737 30.8595 77.8451 29.1242 79.4031C29.0357 79.4825 29.0059 79.5094 28.9708 79.5284C28.9399 79.5453 28.9064 79.5533 28.8736 79.5533ZM28.7758 79.1716C28.7733 79.173 28.7701 79.1745 28.7665 79.1771C28.7695 79.1752 28.7726 79.1735 28.7758 79.1716Z" fill="white"/>
<path opacity="0.33" d="M30.3189 80.1684C30.2597 80.1684 30.2008 80.1426 30.1606 80.0932C30.0899 80.0059 30.1033 79.8779 30.1907 79.8073C30.2351 79.7714 31.3042 78.9201 33.3075 78.4853C35.1432 78.0869 38.1453 77.9832 42.0224 79.7514C42.1246 79.798 42.1697 79.9187 42.123 80.0207C42.0762 80.1227 41.9553 80.1675 41.8531 80.121C34.6443 76.8332 30.4883 80.0898 30.447 80.1229C30.4093 80.1534 30.364 80.1684 30.3189 80.1684Z" fill="white"/>
<path d="M28.7828 87.5101C28.5773 87.4533 28.5612 87.1652 28.7579 87.0823C29.5177 86.7619 30.8629 86.0054 32.3998 84.2888C34.7794 81.6315 39.4836 79.5635 45.0886 82.3212L46.7057 82.3486C46.7057 82.3486 48.3652 92.9158 28.7828 87.5101Z" fill="url(#paint47_linear_1723_10020)"/>
<path opacity="0.33" d="M38.6644 88.3543C37.8141 88.4369 36.9038 88.4565 35.9386 88.412C33.1151 88.281 30.7819 87.642 30.7586 87.6354C30.6503 87.6054 30.5868 87.4934 30.6168 87.3853C30.6469 87.2771 30.7593 87.214 30.8674 87.2438C30.9585 87.2689 40.0127 89.7179 44.1296 85.7906C44.2109 85.7132 44.3398 85.716 44.4175 85.7971C44.4952 85.8782 44.4924 86.0069 44.4109 86.0844C43.0882 87.3462 41.1293 88.1147 38.6644 88.3543Z" fill="white"/>
<path opacity="0.33" d="M38.3185 87.1556C35.3655 87.4425 33.176 86.8958 32.5891 86.7259L32.5738 86.7215C32.4908 86.7023 32.4259 86.6324 32.417 86.5432C32.4062 86.4315 32.4879 86.3322 32.5999 86.3212C32.6394 86.3174 32.6644 86.3246 32.7023 86.3355C33.6015 86.5956 38.3637 87.7644 43.8224 85.2421C43.9244 85.1952 44.0455 85.2394 44.0927 85.3412C44.1399 85.443 44.0955 85.5639 43.9934 85.611C41.9562 86.5523 40.0118 86.9911 38.3185 87.1556Z" fill="white"/>
<path d="M81.4069 78.8915C80.262 77.8251 78.873 76.8069 77.1892 75.878C65.9977 69.704 55.0393 73.2173 48.948 77.9476C42.8567 82.6782 42.8376 82.762 44.3091 84.0722C45.8587 85.4519 45.1795 83.3176 47.7371 81.8482C49.7053 80.7173 57.1791 79.5288 63.3265 86.8717C64.9798 88.8464 66.8379 90.5443 68.7598 91.9411C69.0783 82.0311 78.2687 79.4236 81.4069 78.8915Z" fill="url(#paint48_linear_1723_10020)"/>
<path d="M81.4068 78.8916C78.2687 79.424 69.0783 82.0312 68.7598 91.9411C73.9843 95.7379 79.6822 97.3048 83.0305 96.1275C83.2204 96.0607 85.1428 96.6727 85.8806 94.4107C86.5076 92.4887 87.8718 84.9133 81.4068 78.8916Z" fill="url(#paint49_linear_1723_10020)"/>
<path d="M76.2624 90.0641C77.1528 90.0641 77.8745 89.3917 77.8745 88.5623C77.8745 87.7329 77.1528 87.0605 76.2624 87.0605C75.3721 87.0605 74.6504 87.7329 74.6504 88.5623C74.6504 89.3917 75.3721 90.0641 76.2624 90.0641Z" fill="url(#paint50_linear_1723_10020)"/>
<path d="M76.4339 89.32C76.8818 89.32 77.2448 88.9577 77.2448 88.5107C77.2448 88.0638 76.8818 87.7014 76.4339 87.7014C75.9861 87.7014 75.623 88.0638 75.623 88.5107C75.623 88.9577 75.9861 89.32 76.4339 89.32Z" fill="url(#paint51_linear_1723_10020)"/>
<path opacity="0.33" d="M76.144 87.4458C76.2916 87.4874 76.3771 87.6406 76.3354 87.7876C76.2937 87.9349 76.1402 88.0202 75.9929 87.9786C75.8456 87.937 75.7599 87.7838 75.8016 87.6368C75.8433 87.4898 75.9965 87.4042 76.144 87.4458Z" fill="white"/>
<path opacity="0.33" d="M76.4451 88.511C76.5118 88.511 76.5659 88.457 76.5659 88.3904C76.5659 88.3238 76.5118 88.2698 76.4451 88.2698C76.3783 88.2698 76.3242 88.3238 76.3242 88.3904C76.3242 88.457 76.3783 88.511 76.4451 88.511Z" fill="white"/>
<path d="M77.916 94.229C77.916 94.229 78.4272 95.3081 81.1446 96.4896C81.831 96.4448 82.4652 96.3263 83.0309 96.1273C83.0309 96.1273 81.0288 96.1695 77.916 94.229Z" fill="url(#paint52_linear_1723_10020)"/>
<path d="M67.3334 81.6313C66.4071 82.5294 65.0101 84.3907 66.4674 86.4977C66.5333 86.5928 66.6838 86.5359 66.6698 86.4212C66.5637 85.5524 66.4649 83.5184 67.5059 81.7682C67.5725 81.6561 67.4271 81.5405 67.3334 81.6313Z" fill="url(#paint53_linear_1723_10020)"/>
<path d="M68.7649 82.4373C68.1367 83.0869 67.3609 84.3464 68.1742 86.1707C68.226 86.2871 68.403 86.2402 68.3875 86.1137C68.2868 85.278 68.2525 83.8214 68.9425 82.5674C69.0045 82.4551 68.854 82.345 68.7649 82.4373Z" fill="url(#paint54_linear_1723_10020)"/>
<path d="M50.319 72.777C49.8906 72.8869 49.8227 73.4609 50.2102 73.6736C50.5303 73.8493 50.9953 73.9974 51.6657 74.0268C53.4934 74.1071 53.7948 75.2275 54.6383 75.1885C55.4818 75.1494 66.6415 69.1461 80.8058 78.3519C80.8058 78.3519 78.9999 73.3778 73.3926 71.4383C66.2698 68.9743 53.5825 71.9405 50.319 72.777Z" fill="url(#paint55_linear_1723_10020)"/>
<path d="M51.4199 88.1878C51.0901 88.1829 50.9616 87.7581 51.2332 87.5716C52.7019 86.5626 55.6623 84.4759 56.8229 83.273C58.3943 81.6443 60.3232 79.5728 62.4619 80.1776C64.6005 80.7824 62.0572 80.9525 61.3929 81.8885C60.7287 82.8246 60.2066 86.4912 57.4024 87.4655C55.4635 88.1392 52.849 88.2089 51.4199 88.1878Z" fill="url(#paint56_linear_1723_10020)"/>
<path opacity="0.33" d="M60.6993 80.8452C60.1176 81.5328 59.5021 82.1862 58.8635 82.8191C58.2253 83.4518 57.5651 84.0638 56.8764 84.6441C56.1853 85.221 55.4794 85.784 54.7229 86.2798C53.9702 86.7783 53.18 87.2323 52.3319 87.5589C52.2794 87.5792 52.2205 87.553 52.2002 87.5006C52.1816 87.4524 52.2021 87.399 52.2464 87.3749L52.2517 87.3721C52.4468 87.2655 52.6422 87.1611 52.8382 87.0595C52.9375 87.0115 53.0295 86.948 53.1246 86.8911L53.4074 86.7166C53.5993 86.6068 53.781 86.4786 53.9645 86.3539C54.148 86.2293 54.3347 86.1101 54.5112 85.9747L55.0488 85.5816L55.5746 85.1716C55.7526 85.0387 55.9215 84.8933 56.0949 84.7539C56.2676 84.6139 56.4397 84.4727 56.6084 84.3274C57.2921 83.757 57.9529 83.1583 58.6097 82.5548C58.775 82.4048 58.9361 82.2508 59.0993 82.0985C59.2633 81.947 59.424 81.7924 59.5857 81.6384C59.9117 81.3336 60.2302 81.0192 60.549 80.7083L60.5505 80.7068C60.5907 80.6675 60.6553 80.6681 60.6946 80.7083C60.7312 80.7463 60.7325 80.8057 60.6993 80.8452Z" fill="white"/>
<path opacity="0.33" d="M60.1987 82.2767C60.0937 82.5885 59.9587 82.8853 59.8137 83.1785C59.6681 83.4713 59.5062 83.7559 59.333 84.0341C59.1556 84.3093 58.9719 84.5821 58.7674 84.8398C58.6669 84.9699 58.5611 85.096 58.455 85.2222C58.3454 85.3453 58.2347 85.4676 58.1183 85.5847C57.8876 85.8206 57.6454 86.0475 57.3815 86.2493C57.1196 86.4529 56.8455 86.6428 56.55 86.7979C56.2564 86.955 55.9478 87.0852 55.6278 87.1771C55.3067 87.2649 54.9767 87.3158 54.6476 87.3213C54.6194 87.3218 54.5961 87.2994 54.5957 87.2713C54.5953 87.2461 54.6133 87.225 54.6372 87.2204L54.6387 87.2202C54.9543 87.1602 55.2599 87.0744 55.5539 86.9597C55.8477 86.8431 56.1252 86.6931 56.3934 86.5294C56.9255 86.1931 57.4056 85.7779 57.8427 85.32C58.2791 84.8611 58.6773 84.363 59.0496 83.8446C59.4236 83.327 59.7731 82.7873 60.1052 82.2357L60.106 82.2344C60.1206 82.2104 60.152 82.2025 60.1761 82.2169C60.1977 82.2292 60.2061 82.2545 60.1987 82.2767Z" fill="white"/>
<path d="M49.5237 87.4904C50.1454 86.7472 51.0283 86.3209 51.9791 86.213C52.5334 86.15 53.0937 86.0148 53.6237 85.8055C55.8354 84.9321 56.6808 83.1044 56.0492 81.5112C55.4176 79.9179 53.5479 79.1623 51.3362 80.0356C50.8062 80.2449 50.3048 80.5289 49.8575 80.8616C49.09 81.4322 48.154 81.7241 47.1912 81.6067C45.8903 81.448 44.4107 81.6257 43.0743 82.1534C40.1039 83.3262 38.9681 85.7812 39.8165 87.9211C40.6649 90.0611 43.1761 91.0759 46.1464 89.9029C47.4831 89.3754 48.6838 88.4945 49.5237 87.4904Z" fill="#F4EBD7"/>
<path d="M53.5538 92.2007C54.464 91.8656 55.4421 91.9351 56.3203 92.3145C56.8323 92.5357 57.3856 92.6971 57.9497 92.7793C60.3032 93.1221 61.9489 91.9581 62.1968 90.2627C62.4446 88.5672 61.2011 86.9822 58.8476 86.6393C58.2835 86.5571 57.7071 86.554 57.1532 86.6199C56.203 86.7329 55.2456 86.5204 54.4695 85.9396C53.4209 85.1551 52.0493 84.5733 50.6271 84.366C47.466 83.9055 45.2558 85.469 44.9227 87.7462C44.5897 90.0235 46.26 92.1523 49.421 92.6126C50.8432 92.8198 52.3242 92.6536 53.5538 92.2007Z" fill="#DFC486"/>
<path d="M48.5865 105.496C48.5865 105.496 54.2653 112.752 47.7862 120.132L45.3504 119.906C45.3504 119.906 50.0392 112.392 47.9507 106.402L45.5485 106.242C45.108 106.213 44.6933 106.024 44.3828 105.71L43.697 105.018C43.4536 104.773 43.6833 104.362 44.0207 104.44L48.5865 105.496Z" fill="#141005"/>
<path d="M45.4778 141.022C45.4778 141.022 40.8768 151.031 38.4629 155.176C38.4629 155.176 37.9835 157.784 38.4629 158.605L38.8714 158.786L36.9645 158.729C36.9645 158.729 36.7952 155.221 36.9275 155.025C37.0598 154.829 37.3243 154.842 37.3243 154.842C37.3243 154.842 38.142 148.376 40.5101 146.996L42.805 139.108L45.4778 141.022Z" fill="url(#paint57_linear_1723_10020)"/>
<path d="M39.6844 159.277C39.6871 159.323 38.1953 159.302 37.3848 159.287C37.0855 159.282 36.8305 159.072 36.7668 158.78L36.1548 155.571C36.0966 155.266 36.2907 154.97 36.5938 154.9L36.9355 154.823C36.9355 154.823 37.4227 155.49 37.2695 156.118C37.116 156.746 36.9795 158.373 37.3673 158.563C37.7548 158.752 38.8701 158.785 38.8701 158.785C38.8701 158.785 39.659 158.864 39.6844 159.277Z" fill="#C19632"/>
<path d="M49.8386 159.335C49.9895 159.421 49.9273 159.651 49.7535 159.649C48.3974 159.636 45.3583 159.593 45.0884 159.481C44.7398 159.336 45.2154 158.085 45.716 157.662L48.4801 158.563L49.8386 159.335Z" fill="#C19632"/>
<path d="M50.6954 140.384C50.6954 140.384 47.7221 154.739 46.8811 157.539L48.8708 158.786C48.8708 158.786 47.8736 158.616 47.1343 158.563C46.3949 158.509 45.7148 157.663 45.7148 157.663L45.9532 157.283C45.9532 157.283 46.6989 143.006 46.5173 141.385L50.6954 140.384Z" fill="url(#paint58_linear_1723_10020)"/>
<path d="M58.0757 106.901C58.0757 106.901 58.4859 114.368 51.6738 118.184L53.3138 121.917C53.3138 121.917 59.4731 118.199 59.2536 108.059C59.247 107.761 59.3474 107.47 59.5425 107.244L60.8534 105.727C61.3527 105.149 61.5394 104.364 61.3538 103.624L61.1813 102.935C61.1235 102.705 60.8606 102.594 60.6546 102.713L60.5175 102.793C60.081 103.046 59.7354 103.429 59.5294 103.889L58.8857 105.325C58.6753 105.794 58.5987 105.882 58.1898 105.863C58.0556 105.857 57.921 105.87 57.7918 105.907L57.1065 106.102L58.0757 106.901Z" fill="url(#paint59_linear_1723_10020)"/>
<path d="M51.9109 117.624C50.7713 117.94 46.9102 118.953 44.5 118.912L45.98 127.247L45.8621 128.606L50.6872 128.585C50.6872 128.585 52.0455 125.436 53.1172 123.867C53.4266 123.413 53.1963 122.873 53.0209 122.353L53.2619 122.193C53.5073 122.03 53.6135 121.723 53.5221 121.444L52.3471 117.856C52.2859 117.675 52.0952 117.573 51.9109 117.624Z" fill="#082133"/>
<path d="M51.0738 127.873L50.979 128.697C50.979 128.697 52.3425 132.772 50.2972 142.291C50.2972 142.291 45.8674 143.544 42.2266 140.547C42.2266 140.547 43.2536 131.562 43.534 131.144C44.9312 129.059 45.8622 128.606 45.8622 128.606L45.9041 127.707C45.9041 127.707 49.7983 128.409 51.0738 127.873Z" fill="#C19632"/>
<path d="M49.1865 118.296C49.2034 118.274 48.1791 115.21 48.1791 115.21L46.7119 115.343L46.1387 118.819C46.1387 118.819 48.4382 119.282 49.1865 118.296Z" fill="url(#paint60_linear_1723_10020)"/>
<path d="M47.0624 110.378C47.1602 110.439 50.1976 111.691 49.545 114.838C49.5065 115.024 49.382 115.182 49.2082 115.259C48.7625 115.458 47.803 115.798 46.6553 115.681C45.0642 115.52 44.0216 112.749 44.0658 111.942C44.11 111.136 46.0927 109.775 47.0624 110.378Z" fill="url(#paint61_linear_1723_10020)"/>
<path d="M48.0662 116.971C48.0662 116.281 47.9216 115.626 47.6615 115.033C47.3684 114.364 47.4287 113.583 47.8975 113.023C48.6652 112.106 48.9438 110.944 48.5207 109.926C47.8601 108.337 45.7419 107.705 43.7895 108.513C42.4056 109.086 41.4781 110.23 41.2906 111.413C41.1828 112.093 40.8181 112.699 40.2699 113.117C39.4927 113.709 38.9004 114.531 38.5933 115.481C38.3859 116.122 37.9687 116.675 37.3817 117.009C36.0562 117.764 34.9516 118.929 34.2825 120.424C32.6042 124.174 34.2998 128.576 38.0696 130.257C41.8394 131.937 46.256 130.259 47.9343 126.509C48.8667 124.426 48.7565 122.141 47.8287 120.234C47.5959 119.756 47.5472 119.204 47.74 118.708C47.95 118.17 48.0662 117.584 48.0662 116.971Z" fill="url(#paint62_linear_1723_10020)"/>
</g>
<defs>
<linearGradient id="paint0_linear_1723_10020" x1="82.8281" y1="46.3763" x2="103.411" y2="146.429" gradientUnits="userSpaceOnUse">
<stop stop-color="#2B3582"/>
<stop offset="1" stop-color="#150E42"/>
</linearGradient>
<linearGradient id="paint1_linear_1723_10020" x1="60.8172" y1="92.5193" x2="74.4915" y2="158.989" gradientUnits="userSpaceOnUse">
<stop stop-color="#2B3582"/>
<stop offset="1" stop-color="#150E42"/>
</linearGradient>
<linearGradient id="paint2_linear_1723_10020" x1="236.255" y1="94.5516" x2="187.748" y2="94.8716" gradientUnits="userSpaceOnUse">
<stop stop-color="#C19632"/>
<stop offset="1" stop-color="#082133"/>
</linearGradient>
<linearGradient id="paint3_linear_1723_10020" x1="141.659" y1="64.4378" x2="126.204" y2="220.1" gradientUnits="userSpaceOnUse">
<stop stop-color="#F9B776"/>
<stop offset="1" stop-color="#F47960"/>
</linearGradient>
<linearGradient id="paint4_linear_1723_10020" x1="136.915" y1="85.0128" x2="135.423" y2="41.9091" gradientUnits="userSpaceOnUse">
<stop stop-color="#F9B776"/>
<stop offset="0.0496" stop-color="#F9B475"/>
<stop offset="1" stop-color="#F47960"/>
</linearGradient>
<linearGradient id="paint5_linear_1723_10020" x1="157.158" y1="84.3119" x2="155.665" y2="41.2076" gradientUnits="userSpaceOnUse">
<stop stop-color="#F9B776"/>
<stop offset="0.0496" stop-color="#F9B475"/>
<stop offset="1" stop-color="#F47960"/>
</linearGradient>
<linearGradient id="paint6_linear_1723_10020" x1="116.782" y1="85.7102" x2="115.289" y2="42.6065" gradientUnits="userSpaceOnUse">
<stop stop-color="#F9B776"/>
<stop offset="0.0496" stop-color="#F9B475"/>
<stop offset="1" stop-color="#F47960"/>
</linearGradient>
<linearGradient id="paint7_linear_1723_10020" x1="138.176" y1="45.7562" x2="135.509" y2="92.5183" gradientUnits="userSpaceOnUse">
<stop stop-color="#2B3582"/>
<stop offset="1" stop-color="#150E42"/>
</linearGradient>
<linearGradient id="paint8_linear_1723_10020" x1="158.134" y1="78.6582" x2="124.498" y2="27.6733" gradientUnits="userSpaceOnUse">
<stop stop-color="#2B3582"/>
<stop offset="1" stop-color="#150E42"/>
</linearGradient>
<linearGradient id="paint9_linear_1723_10020" x1="76.6643" y1="95.007" x2="134.376" y2="95.007" gradientUnits="userSpaceOnUse">
<stop stop-color="#F9B776"/>
<stop offset="0.0496" stop-color="#F9B475"/>
<stop offset="1" stop-color="#F47960"/>
</linearGradient>
<linearGradient id="paint10_linear_1723_10020" x1="195.265" y1="154.151" x2="214.306" y2="174.904" gradientUnits="userSpaceOnUse">
<stop stop-color="#CB236D"/>
<stop offset="1" stop-color="#4C246D"/>
</linearGradient>
<linearGradient id="paint11_linear_1723_10020" x1="201.459" y1="155.69" x2="199.764" y2="155.69" gradientUnits="userSpaceOnUse">
<stop stop-color="#F9B776"/>
<stop offset="1" stop-color="#F47960"/>
</linearGradient>
<linearGradient id="paint12_linear_1723_10020" x1="205.478" y1="142.754" x2="199.873" y2="142.754" gradientUnits="userSpaceOnUse">
<stop stop-color="#2B3582"/>
<stop offset="1" stop-color="#150E42"/>
</linearGradient>
<linearGradient id="paint13_linear_1723_10020" x1="199.546" y1="150.223" x2="218.588" y2="170.976" gradientUnits="userSpaceOnUse">
<stop stop-color="#CB236D"/>
<stop offset="1" stop-color="#4C246D"/>
</linearGradient>
<linearGradient id="paint14_linear_1723_10020" x1="207.569" y1="155.603" x2="206.106" y2="155.603" gradientUnits="userSpaceOnUse">
<stop stop-color="#F9B776"/>
<stop offset="1" stop-color="#F47960"/>
</linearGradient>
<linearGradient id="paint15_linear_1723_10020" x1="209.146" y1="142.571" x2="201.19" y2="142.571" gradientUnits="userSpaceOnUse">
<stop stop-color="#2B3582"/>
<stop offset="1" stop-color="#150E42"/>
</linearGradient>
<linearGradient id="paint16_linear_1723_10020" x1="194.484" y1="111.556" x2="185.824" y2="111.556" gradientUnits="userSpaceOnUse">
<stop stop-color="#F9B776"/>
<stop offset="1" stop-color="#F47960"/>
</linearGradient>
<linearGradient id="paint17_linear_1723_10020" x1="187.754" y1="110.107" x2="193.546" y2="123.31" gradientUnits="userSpaceOnUse">
<stop stop-color="#F9B776"/>
<stop offset="1" stop-color="#F47960"/>
</linearGradient>
<linearGradient id="paint18_linear_1723_10020" x1="185.866" y1="105.713" x2="183.448" y2="101.988" gradientUnits="userSpaceOnUse">
<stop stop-color="#F9B776"/>
<stop offset="1" stop-color="#F47960"/>
</linearGradient>
<linearGradient id="paint19_linear_1723_10020" x1="213.449" y1="123.516" x2="205.978" y2="123.516" gradientUnits="userSpaceOnUse">
<stop stop-color="#F9B776"/>
<stop offset="1" stop-color="#F47960"/>
</linearGradient>
<linearGradient id="paint20_linear_1723_10020" x1="205.018" y1="112.105" x2="200.686" y2="112.105" gradientUnits="userSpaceOnUse">
<stop stop-color="#F9B776"/>
<stop offset="1" stop-color="#F47960"/>
</linearGradient>
<linearGradient id="paint21_linear_1723_10020" x1="199.655" y1="109.354" x2="204.413" y2="106.446" gradientUnits="userSpaceOnUse">
<stop stop-color="#F9B776"/>
<stop offset="1" stop-color="#F47960"/>
</linearGradient>
<linearGradient id="paint22_linear_1723_10020" x1="206.94" y1="103.398" x2="200.795" y2="108.261" gradientUnits="userSpaceOnUse">
<stop stop-color="#2B3582"/>
<stop offset="1" stop-color="#150E42"/>
</linearGradient>
<linearGradient id="paint23_linear_1723_10020" x1="200.906" y1="110.436" x2="205.187" y2="107.819" gradientUnits="userSpaceOnUse">
<stop stop-color="#F9B776"/>
<stop offset="1" stop-color="#F47960"/>
</linearGradient>
<linearGradient id="paint24_linear_1723_10020" x1="208.268" y1="124.3" x2="204.854" y2="124.3" gradientUnits="userSpaceOnUse">
<stop stop-color="#F9B776"/>
<stop offset="1" stop-color="#F47960"/>
</linearGradient>
<linearGradient id="paint25_linear_1723_10020" x1="213.969" y1="35.8303" x2="202.631" y2="44.9065" gradientUnits="userSpaceOnUse">
<stop stop-color="#53D8FF"/>
<stop offset="1" stop-color="#3840F7"/>
</linearGradient>
<linearGradient id="paint26_linear_1723_10020" x1="206.172" y1="44.4655" x2="170.476" y2="114.391" gradientUnits="userSpaceOnUse">
<stop stop-color="#53D8FF"/>
<stop offset="1" stop-color="#3840F7"/>
</linearGradient>
<linearGradient id="paint27_linear_1723_10020" x1="223.51" y1="47.2733" x2="183.108" y2="79.6143" gradientUnits="userSpaceOnUse">
<stop stop-color="#53D8FF"/>
<stop offset="1" stop-color="#3840F7"/>
</linearGradient>
<linearGradient id="paint28_linear_1723_10020" x1="209.722" y1="29.7969" x2="180.953" y2="52.8263" gradientUnits="userSpaceOnUse">
<stop stop-color="#53D8FF"/>
<stop offset="1" stop-color="#3840F7"/>
</linearGradient>
<linearGradient id="paint29_linear_1723_10020" x1="209.934" y1="27.1473" x2="186.359" y2="46.0189" gradientUnits="userSpaceOnUse">
<stop stop-color="#53D8FF"/>
<stop offset="1" stop-color="#3840F7"/>
</linearGradient>
<linearGradient id="paint30_linear_1723_10020" x1="231.124" y1="54.7982" x2="188.428" y2="97.594" gradientUnits="userSpaceOnUse">
<stop offset="0.1571" stop-color="#F7D845"/>
<stop offset="1" stop-color="#D93C65"/>
</linearGradient>
<linearGradient id="paint31_linear_1723_10020" x1="230.281" y1="83.8847" x2="213.759" y2="66.6542" gradientUnits="userSpaceOnUse">
<stop offset="0.1571" stop-color="#F7D845"/>
<stop offset="1" stop-color="#D93C65"/>
</linearGradient>
<linearGradient id="paint32_linear_1723_10020" x1="231.792" y1="76.1838" x2="210.543" y2="54.0235" gradientUnits="userSpaceOnUse">
<stop offset="0.1571" stop-color="#F7D845"/>
<stop offset="1" stop-color="#D93C65"/>
</linearGradient>
<linearGradient id="paint33_linear_1723_10020" x1="221.889" y1="74.5064" x2="213.628" y2="65.8912" gradientUnits="userSpaceOnUse">
<stop offset="0.1571" stop-color="#F7D845"/>
<stop offset="1" stop-color="#D93C65"/>
</linearGradient>
<linearGradient id="paint34_linear_1723_10020" x1="213.496" y1="54.401" x2="207.509" y2="77.4893" gradientUnits="userSpaceOnUse">
<stop offset="0.1571" stop-color="#F7D845"/>
<stop offset="1" stop-color="#D93C65"/>
</linearGradient>
<linearGradient id="paint35_linear_1723_10020" x1="198.116" y1="64.252" x2="205.232" y2="81.4215" gradientUnits="userSpaceOnUse">
<stop offset="0.1571" stop-color="#F7D845"/>
<stop offset="1" stop-color="#D93C65"/>
</linearGradient>
<linearGradient id="paint36_linear_1723_10020" x1="209.886" y1="66.4461" x2="206.892" y2="77.9903" gradientUnits="userSpaceOnUse">
<stop offset="0.1571" stop-color="#F7D845"/>
<stop offset="1" stop-color="#D93C65"/>
</linearGradient>
<linearGradient id="paint37_linear_1723_10020" x1="189.519" y1="90.2662" x2="202.316" y2="52.8167" gradientUnits="userSpaceOnUse">
<stop stop-color="#CCCCCC"/>
<stop offset="0.9974" stop-color="white"/>
</linearGradient>
<linearGradient id="paint38_linear_1723_10020" x1="201.022" y1="57.4783" x2="195.126" y2="82.1269" gradientUnits="userSpaceOnUse">
<stop offset="0.1571" stop-color="#F7D845"/>
<stop offset="1" stop-color="#D93C65"/>
</linearGradient>
<linearGradient id="paint39_linear_1723_10020" x1="58.7141" y1="36.9313" x2="50.0925" y2="36.9703" gradientUnits="userSpaceOnUse">
<stop stop-color="#C19632"/>
<stop offset="1" stop-color="#082133"/>
</linearGradient>
<linearGradient id="paint40_linear_1723_10020" x1="62.9468" y1="48.8073" x2="47.1622" y2="48.96" gradientUnits="userSpaceOnUse">
<stop stop-color="#C19632"/>
<stop offset="1" stop-color="#082133"/>
</linearGradient>
<linearGradient id="paint41_linear_1723_10020" x1="60.5659" y1="62.8947" x2="44.1013" y2="63.1334" gradientUnits="userSpaceOnUse">
<stop stop-color="#C19632"/>
<stop offset="1" stop-color="#082133"/>
</linearGradient>
<linearGradient id="paint42_linear_1723_10020" x1="53.2882" y1="35.4434" x2="47.7269" y2="35.4582" gradientUnits="userSpaceOnUse">
<stop stop-color="#C19632"/>
<stop offset="1" stop-color="#082133"/>
</linearGradient>
<linearGradient id="paint43_linear_1723_10020" x1="47.5413" y1="42.9591" x2="40.8919" y2="42.9782" gradientUnits="userSpaceOnUse">
<stop stop-color="#C19632"/>
<stop offset="1" stop-color="#082133"/>
</linearGradient>
<linearGradient id="paint44_linear_1723_10020" x1="44.3231" y1="55.8984" x2="36.1559" y2="55.9329" gradientUnits="userSpaceOnUse">
<stop stop-color="#C19632"/>
<stop offset="1" stop-color="#082133"/>
</linearGradient>
<linearGradient id="paint45_linear_1723_10020" x1="51.1936" y1="53.6451" x2="39.668" y2="53.6796" gradientUnits="userSpaceOnUse">
<stop stop-color="#C19632"/>
<stop offset="1" stop-color="#082133"/>
</linearGradient>
<linearGradient id="paint46_linear_1723_10020" x1="36.051" y1="74.9367" x2="37.3236" y2="85.0395" gradientUnits="userSpaceOnUse">
<stop stop-color="#53D8FF"/>
<stop offset="1" stop-color="#3840F7"/>
</linearGradient>
<linearGradient id="paint47_linear_1723_10020" x1="34.4022" y1="81.5316" x2="44.2847" y2="91.6845" gradientUnits="userSpaceOnUse">
<stop stop-color="#53D8FF"/>
<stop offset="1" stop-color="#3840F7"/>
</linearGradient>
<linearGradient id="paint48_linear_1723_10020" x1="43.5039" y1="82.2561" x2="81.4069" y2="82.2561" gradientUnits="userSpaceOnUse">
<stop stop-color="#53D8FF"/>
<stop offset="1" stop-color="#3840F7"/>
</linearGradient>
<linearGradient id="paint49_linear_1723_10020" x1="88.9659" y1="101.415" x2="58.6011" y2="66.1106" gradientUnits="userSpaceOnUse">
<stop stop-color="#53D8FF"/>
<stop offset="1" stop-color="#3840F7"/>
</linearGradient>
<linearGradient id="paint50_linear_1723_10020" x1="74.6504" y1="88.5623" x2="77.8744" y2="88.5623" gradientUnits="userSpaceOnUse">
<stop stop-color="#2B3582"/>
<stop offset="1" stop-color="#150E42"/>
</linearGradient>
<linearGradient id="paint51_linear_1723_10020" x1="76.7228" y1="86.4919" x2="76.1135" y2="90.7659" gradientUnits="userSpaceOnUse">
<stop stop-color="#53D8FF"/>
<stop offset="1" stop-color="#3840F7"/>
</linearGradient>
<linearGradient id="paint52_linear_1723_10020" x1="82.1161" y1="91.2435" x2="79.6041" y2="97.2843" gradientUnits="userSpaceOnUse">
<stop stop-color="#53D8FF"/>
<stop offset="1" stop-color="#3840F7"/>
</linearGradient>
<linearGradient id="paint53_linear_1723_10020" x1="65.836" y1="84.0721" x2="67.5228" y2="84.0721" gradientUnits="userSpaceOnUse">
<stop stop-color="#53D8FF"/>
<stop offset="1" stop-color="#3840F7"/>
</linearGradient>
<linearGradient id="paint54_linear_1723_10020" x1="67.8242" y1="84.3201" x2="68.9571" y2="84.3201" gradientUnits="userSpaceOnUse">
<stop stop-color="#53D8FF"/>
<stop offset="1" stop-color="#3840F7"/>
</linearGradient>
<linearGradient id="paint55_linear_1723_10020" x1="65.9126" y1="59.6519" x2="65.4236" y2="74.5483" gradientUnits="userSpaceOnUse">
<stop stop-color="#53D8FF"/>
<stop offset="1" stop-color="#3840F7"/>
</linearGradient>
<linearGradient id="paint56_linear_1723_10020" x1="51.086" y1="84.1305" x2="63.3017" y2="84.1305" gradientUnits="userSpaceOnUse">
<stop stop-color="#53D8FF"/>
<stop offset="1" stop-color="#3840F7"/>
</linearGradient>
<linearGradient id="paint57_linear_1723_10020" x1="45.4777" y1="148.947" x2="36.8768" y2="148.947" gradientUnits="userSpaceOnUse">
<stop stop-color="#F9B776"/>
<stop offset="1" stop-color="#F47960"/>
</linearGradient>
<linearGradient id="paint58_linear_1723_10020" x1="50.6954" y1="149.585" x2="45.7148" y2="149.585" gradientUnits="userSpaceOnUse">
<stop stop-color="#F9B776"/>
<stop offset="1" stop-color="#F47960"/>
</linearGradient>
<linearGradient id="paint59_linear_1723_10020" x1="61.4243" y1="112.291" x2="51.6738" y2="112.291" gradientUnits="userSpaceOnUse">
<stop stop-color="#F9B776"/>
<stop offset="1" stop-color="#F47960"/>
</linearGradient>
<linearGradient id="paint60_linear_1723_10020" x1="49.1867" y1="117.069" x2="46.1388" y2="117.069" gradientUnits="userSpaceOnUse">
<stop stop-color="#F9B776"/>
<stop offset="1" stop-color="#F47960"/>
</linearGradient>
<linearGradient id="paint61_linear_1723_10020" x1="44.3418" y1="113.138" x2="22.1578" y2="114.649" gradientUnits="userSpaceOnUse">
<stop stop-color="#F9B776"/>
<stop offset="1" stop-color="#F47960"/>
</linearGradient>
<linearGradient id="paint62_linear_1723_10020" x1="47.8778" y1="110.351" x2="35.6536" y2="134.13" gradientUnits="userSpaceOnUse">
<stop stop-color="#2B3582"/>
<stop offset="1" stop-color="#150E42"/>
</linearGradient>
</defs>
</svg>
