<svg width="18" height="18" viewBox="0 0 18 18" fill="none" xmlns="http://www.w3.org/2000/svg">
<path d="M10.776 9.56836L10.4987 10.4556C10.4524 10.6039 10.3151 10.7048 10.1597 10.7048H7.84083C7.68551 10.7048 7.54819 10.6039 7.50185 10.4556L7.22461 9.56836" stroke="#082133" stroke-width="0.5" stroke-miterlimit="10" stroke-linecap="round" stroke-linejoin="round"/>
<path d="M14.4854 8.43213H17.4523C17.6091 8.43213 17.7363 8.55939 17.7363 8.71619V9.28432C17.7363 9.44111 17.6091 9.56838 17.4523 9.56838H0.547734C0.390937 9.56838 0.263672 9.44111 0.263672 9.28432V8.71619C0.263672 8.55939 0.390937 8.43213 0.547734 8.43213H13.255" stroke="#082133" stroke-width="0.5" stroke-miterlimit="10" stroke-linecap="round" stroke-linejoin="round"/>
<path d="M6.20508 3.45996H14.3912C14.9917 3.45996 15.5271 3.83754 15.7293 4.40285L17.1682 8.43211" stroke="#082133" stroke-width="0.5" stroke-miterlimit="10" stroke-linecap="round" stroke-linejoin="round"/>
<path d="M0.832031 8.43211L2.27098 4.40285C2.47312 3.83754 3.00855 3.45996 3.60902 3.45996H4.97484" stroke="#082133" stroke-width="0.5" stroke-miterlimit="10" stroke-linecap="round" stroke-linejoin="round"/>
<path d="M5.19141 14.5405H14.3921C14.9926 14.5405 15.528 14.1629 15.7302 13.5976L17.1691 9.56836" stroke="#082133" stroke-width="0.5" stroke-miterlimit="10" stroke-linecap="round" stroke-linejoin="round"/>
<path d="M0.832031 9.56836L2.27098 13.5976C2.47312 14.1629 3.00855 14.5405 3.60902 14.5405H3.96023" stroke="#082133" stroke-width="0.5" stroke-miterlimit="10" stroke-linecap="round" stroke-linejoin="round"/>
<path d="M8.43164 14.5405V12.8358C8.43164 12.522 8.68603 12.2676 8.99987 12.2676C9.31368 12.2676 9.5681 12.522 9.5681 12.8358V14.5405" stroke="#082133" stroke-width="0.5" stroke-miterlimit="10" stroke-linecap="round" stroke-linejoin="round"/>
<path d="M10.7051 14.5405V12.8358C10.7051 12.522 10.9595 12.2676 11.2733 12.2676C11.5871 12.2676 11.8415 12.522 11.8415 12.8358V14.5405" stroke="#082133" stroke-width="0.5" stroke-miterlimit="10" stroke-linecap="round" stroke-linejoin="round"/>
<path d="M7.29466 14.5405V12.8358C7.29466 12.522 7.04027 12.2676 6.72643 12.2676C6.41263 12.2676 6.1582 12.522 6.1582 12.8358V14.5405" stroke="#082133" stroke-width="0.5" stroke-miterlimit="10" stroke-linecap="round" stroke-linejoin="round"/>
</svg>
