<svg width="20" height="20" viewBox="0 0 20 20" fill="none" xmlns="http://www.w3.org/2000/svg">
<path d="M18.7827 12.4018H6.96399C6.84132 12.4018 6.74176 12.3022 6.74176 12.1796C6.74176 12.0569 6.84132 11.9573 6.96399 11.9573H18.5569C18.4391 8.376 15.4889 5.49822 11.8795 5.49822C9.35554 5.49822 7.07376 6.89599 5.92532 9.14577C5.86932 9.25511 5.73554 9.29866 5.62621 9.24266C5.51687 9.18666 5.47332 9.05288 5.52932 8.94355C6.75421 6.54399 9.18754 5.05377 11.8795 5.05377C15.8084 5.05377 19.0053 8.25022 19.0053 12.1796C19.0049 12.3022 18.9053 12.4018 18.7827 12.4018Z" fill="#141005"/>
<path d="M18.6729 14.2796H7.87508C7.75241 14.2796 7.65285 14.18 7.65285 14.0573C7.65285 13.9347 7.75241 13.8351 7.87508 13.8351H18.6729C19.068 13.8351 19.3893 13.5138 19.3893 13.1187C19.3893 12.7236 19.068 12.4018 18.6729 12.4018H6.96441C6.84174 12.4018 6.74219 12.3022 6.74219 12.1796C6.74219 12.0569 6.84174 11.9573 6.96441 11.9573H18.6724C19.3129 11.9573 19.8333 12.4782 19.8333 13.1187C19.8333 13.7591 19.3129 14.2796 18.6729 14.2796Z" fill="#141005"/>
<path d="M16.0456 16.2297H7.71355C7.41311 16.2297 7.12155 16.1689 6.84689 16.0484C6.73444 15.9991 6.68333 15.868 6.73267 15.7555C6.782 15.6431 6.91311 15.592 7.02555 15.6413C7.24333 15.7369 7.47489 15.7853 7.714 15.7853H16.046C16.9238 15.7853 17.6504 15.128 17.7598 14.2795H7.87489C7.75222 14.2795 7.65266 14.18 7.65266 14.0573C7.65266 13.9346 7.75222 13.8351 7.87489 13.8351H17.9962C18.0553 13.8351 18.1118 13.8586 18.1536 13.9C18.1953 13.9417 18.2184 13.9982 18.2184 14.0573C18.218 15.2551 17.2438 16.2297 16.0456 16.2297Z" fill="#141005"/>
<path d="M16.0161 9.04443C15.9459 9.04443 15.877 9.01154 15.8339 8.94977C14.9383 7.66977 13.4717 6.90532 11.9117 6.90532C11.789 6.90532 11.6895 6.80577 11.6895 6.6831C11.6895 6.56043 11.789 6.46088 11.9117 6.46088C13.617 6.46088 15.2192 7.29599 16.1983 8.6951C16.2686 8.79554 16.2441 8.93421 16.1437 9.00443C16.1046 9.03154 16.0601 9.04443 16.0161 9.04443Z" fill="#141005"/>
<path d="M11.8791 5.49821C11.1457 5.49821 10.5488 4.90132 10.5488 4.16799C10.5488 3.43466 11.1457 2.83777 11.8791 2.83777C12.6124 2.83777 13.2093 3.43466 13.2093 4.16799C13.2093 4.90132 12.6128 5.49821 11.8791 5.49821ZM11.8791 3.28221C11.3906 3.28221 10.9933 3.67955 10.9933 4.16799C10.9933 4.65644 11.3906 5.05377 11.8791 5.05377C12.3675 5.05377 12.7648 4.65644 12.7648 4.16799C12.7648 3.67955 12.3675 3.28221 11.8791 3.28221Z" fill="#141005"/>
<path d="M4.63585 14.4653C4.40563 14.4653 4.18963 14.376 4.02785 14.2142L3.60652 13.7929H3.01052C2.53629 13.7929 2.15096 13.4071 2.15096 12.9333V12.3373L1.72963 11.916C1.56785 11.7542 1.47852 11.5382 1.47852 11.308C1.47852 11.0778 1.56785 10.8618 1.72963 10.7L2.15096 10.2787V9.68267C2.15096 9.20845 2.53674 8.82312 3.01052 8.82312H3.60652L4.02785 8.40178C4.36296 8.06667 4.90829 8.06667 5.2434 8.40178L5.66474 8.82312H6.26074C6.73496 8.82312 7.12029 9.2089 7.12029 9.68267V10.2787L7.54163 10.7C7.7034 10.8618 7.79274 11.0778 7.79274 11.308C7.79274 11.5382 7.7034 11.7542 7.54163 11.916L7.12029 12.3373V12.9333C7.12029 13.4076 6.73452 13.7929 6.26074 13.7929H5.66474L5.2434 14.2142C5.08207 14.376 4.86607 14.4653 4.63585 14.4653ZM3.01052 9.26712C2.78163 9.26712 2.5954 9.45334 2.5954 9.68223V10.3702C2.5954 10.4293 2.57185 10.4858 2.53052 10.5276L2.04385 11.0142C1.96607 11.092 1.92296 11.1965 1.92296 11.308C1.92296 11.4196 1.96607 11.5236 2.04385 11.6018L2.53052 12.0885C2.57229 12.1302 2.5954 12.1867 2.5954 12.2458V12.9333C2.5954 13.1622 2.78163 13.3485 3.01052 13.3485H3.69852C3.75763 13.3485 3.81407 13.372 3.85585 13.4133L4.34252 13.9C4.42029 13.9778 4.52474 14.0209 4.63629 14.0209C4.74785 14.0209 4.85185 13.9778 4.93007 13.9L5.41674 13.4133C5.45852 13.3716 5.51496 13.3485 5.57407 13.3485H6.26207C6.49096 13.3485 6.67718 13.1622 6.67718 12.9333V12.2453C6.67718 12.1862 6.70074 12.1298 6.74207 12.088L7.22874 11.6013C7.30652 11.5236 7.34963 11.4191 7.34963 11.3076C7.34963 11.196 7.30652 11.092 7.22874 11.0138L6.74207 10.5271C6.70029 10.4853 6.67718 10.4289 6.67718 10.3698V9.68179C6.67718 9.4529 6.49096 9.26667 6.26207 9.26667H5.57318C5.51407 9.26667 5.45763 9.24312 5.41585 9.20179L4.92918 8.71512C4.7674 8.55334 4.50385 8.55334 4.34207 8.71512L3.8554 9.20179C3.81363 9.24356 3.75718 9.26667 3.69807 9.26667L3.01052 9.26712Z" fill="#141005"/>
<path d="M4.63616 13.2191C3.58239 13.2191 2.72461 12.3618 2.72461 11.3076C2.72461 10.2533 3.58194 9.396 4.63616 9.396C5.69039 9.396 6.54772 10.2533 6.54772 11.3076C6.54772 12.3618 5.69039 13.2191 4.63616 13.2191ZM4.63616 9.84044C3.82728 9.84044 3.16905 10.4987 3.16905 11.3076C3.16905 12.1164 3.82728 12.7747 4.63616 12.7747C5.44505 12.7747 6.10328 12.1164 6.10328 11.3076C6.10328 10.4987 5.44505 9.84044 4.63616 9.84044Z" fill="#141005"/>
<path d="M2.56181 17.228C2.54981 17.228 2.53737 17.2271 2.52492 17.2249C2.43337 17.2098 2.36092 17.1391 2.34359 17.048L2.03381 15.4551L0.482256 15.9751C0.394701 16.0045 0.297812 15.9765 0.23959 15.9049C0.181367 15.8334 0.172923 15.7334 0.219145 15.6534L2.18092 12.2556C2.24226 12.1494 2.37826 12.1129 2.48448 12.1743C2.5907 12.2356 2.62714 12.3716 2.56581 12.4778L0.897812 15.3671L2.13337 14.9534C2.19426 14.9329 2.26048 14.94 2.31603 14.972C2.37159 15.004 2.41026 15.0587 2.42226 15.1218L2.6667 16.38L4.04492 13.9925C4.10626 13.8863 4.24226 13.8498 4.34848 13.9111C4.4547 13.9725 4.49114 14.1085 4.42981 14.2147L2.75426 17.1169C2.71426 17.1863 2.64048 17.228 2.56181 17.228Z" fill="#141005"/>
<path d="M6.71028 17.228C6.63206 17.228 6.55784 17.1863 6.51784 17.1169L4.84228 14.2151C4.78095 14.1089 4.81739 13.9729 4.92362 13.9116C5.02984 13.8503 5.16584 13.8867 5.22717 13.9929L6.60539 16.3805L6.85028 15.1218C6.86273 15.0591 6.90139 15.0045 6.9565 14.972C7.01162 14.9396 7.07828 14.9329 7.13917 14.9534L8.37473 15.3671L6.70673 12.4778C6.64539 12.3716 6.68184 12.2356 6.78806 12.1743C6.89428 12.1129 7.03028 12.1494 7.09162 12.2556L9.05339 15.6534C9.09962 15.7334 9.09162 15.8334 9.03295 15.9049C8.97473 15.9765 8.87784 16.0045 8.79028 15.9751L7.23873 15.4551L6.92895 17.048C6.91117 17.1391 6.83873 17.2094 6.74762 17.2249C6.73473 17.2271 6.72273 17.228 6.71028 17.228Z" fill="#141005"/>
</svg>
