<svg width="40" height="40" viewBox="0 0 40 40" fill="none" xmlns="http://www.w3.org/2000/svg">
<path d="M38.3715 5.81362C37.5068 4.94892 36.2832 4.6195 35.1479 4.8548C35.3832 3.7195 35.0479 2.49603 34.1832 1.62539C32.795 0.243033 30.5421 0.243033 29.1538 1.63127C28.4832 2.30186 28.1127 3.19009 28.1127 4.14303C28.1127 5.06656 28.4656 5.94303 29.1068 6.60186L24.6068 11.1019C23.8715 10.9019 23.0832 10.9137 22.3479 11.1783C21.4303 11.5077 20.5068 11.9901 19.6127 12.6078C19.1303 12.943 18.5538 13.1196 17.9479 13.1196C13.1891 13.1254 7.37736 15.4783 4.14207 18.7196C-0.589993 23.4395 -0.608875 31.1039 4.14207 35.8549C8.83007 40.5549 16.5078 40.6368 21.2774 35.8549C24.5185 32.6196 26.8715 26.8078 26.8774 22.049C26.8774 21.4431 27.0538 20.8666 27.3891 20.3843C28.0068 19.4902 28.4891 18.5666 28.8185 17.649C29.0832 16.9137 29.095 16.1196 28.895 15.3843L33.3891 10.8902C34.7648 12.2172 36.9779 12.2308 38.3656 10.8431C39.7623 9.4585 39.7622 7.20433 38.3715 5.81362ZM27.7127 17.2489C27.4185 18.0724 26.9832 18.9019 26.4244 19.7136C25.9479 20.396 25.7009 21.2019 25.7009 22.0489C25.695 26.4548 23.4362 32.0313 20.4479 35.0254C16.1832 39.2901 9.24207 39.2901 4.97148 35.0254C0.715184 30.7691 0.672596 23.86 4.97148 19.5489C7.9656 16.5607 13.5421 14.3019 17.9479 14.296C18.795 14.296 19.6009 14.0489 20.2832 13.5783C21.095 13.0136 21.9244 12.5783 22.7479 12.2842C23.6619 11.9537 24.7448 12.1869 25.4656 12.9077L27.0891 14.5313C27.095 14.5313 27.095 14.543 27.1009 14.5489C27.6973 15.1139 28.0892 16.2029 27.7127 17.2489ZM37.5362 10.0136C36.4377 11.1052 34.6494 10.8309 33.9185 9.70186C33.7065 9.38997 33.2746 9.33997 33.0068 9.60774L28.3715 14.243C28.2787 14.0571 26.6523 12.2988 25.7479 11.6195L30.3891 6.98421C30.5127 6.86068 30.5774 6.68427 30.5538 6.50774C30.5362 6.33127 30.4421 6.1725 30.2891 6.07244C29.1825 5.35644 28.8799 3.57109 29.9832 2.46068C30.9127 1.53127 32.4244 1.53127 33.3479 2.4548C34.195 3.30186 34.2832 4.64303 33.5538 5.57833C33.3656 5.81362 33.4303 6.19009 33.6421 6.40186C33.8479 6.60774 34.1832 6.63127 34.4127 6.44891C35.3597 5.7195 36.7009 5.80774 37.5421 6.64891C38.4526 7.55933 38.485 9.0648 37.5362 10.0136Z" fill="#1A1400"/>
<path d="M11.0534 19.1799C6.97026 21.1131 4.32226 24.1228 5.01361 28.51C5.06508 28.8351 5.37238 29.0518 5.68632 28.9995C6.00744 28.9489 6.22685 28.6479 6.17632 28.3273C5.55932 24.4153 8.03932 21.9099 11.5566 20.2426C11.8507 20.1036 11.976 19.7532 11.8364 19.4596C11.6973 19.1655 11.3463 19.0409 11.0534 19.1799Z" fill="#1A1400"/>
</svg>
