<svg width="16" height="16" viewBox="0 0 16 16" fill="none" xmlns="http://www.w3.org/2000/svg">
<path d="M14.6361 11.1419H9.31082C9.20738 11.1419 9.12332 11.2259 9.12332 11.3294V11.825C9.12332 12.2016 9.42957 12.5081 9.80645 12.5081H11.3096C10.6364 12.9372 9.87832 13.2137 9.08426 13.3194C8.84988 12.97 8.45145 12.7397 8.0002 12.7397C7.54895 12.7397 7.15051 12.97 6.91613 13.3194C6.12238 13.2137 5.36426 12.9369 4.69082 12.5081H6.19394C6.57051 12.5081 6.87707 12.2019 6.87707 11.825V11.3294C6.87707 11.2259 6.79301 11.1419 6.68957 11.1419H1.36426C1.26082 11.1419 1.17676 11.2259 1.17676 11.3294V11.825C1.17676 12.2016 1.48301 12.5081 1.85988 12.5081H4.04082C4.83238 13.1231 5.76301 13.5234 6.74926 13.675C6.71457 13.7922 6.69582 13.9159 6.69582 14.0441C6.69582 14.1425 6.70676 14.2391 6.72801 14.3328H5.98895C5.68832 14.3328 5.44332 14.5775 5.44332 14.8784V15.3438C5.44332 15.4472 5.52738 15.5312 5.63082 15.5312H10.3696C10.473 15.5312 10.5571 15.4472 10.5571 15.3438V14.8784C10.5571 14.5778 10.3124 14.3328 10.0114 14.3328H9.27238C9.29363 14.2387 9.30457 14.1422 9.30457 14.0441C9.30457 13.9159 9.28551 13.7919 9.25113 13.675C10.2374 13.5234 11.1677 13.1231 11.9596 12.5081H14.1405C14.5171 12.5081 14.8236 12.2019 14.8236 11.825V11.3294C14.8236 11.2259 14.7396 11.1419 14.6361 11.1419ZM1.55176 11.825V11.5169H6.50207V11.825C6.50207 11.9947 6.36395 12.1331 6.19394 12.1331H1.85988C1.6902 12.1331 1.55176 11.9947 1.55176 11.825ZM10.1821 14.8784V15.1562H5.81832V14.8784C5.81832 14.7844 5.89488 14.7078 5.98895 14.7078H10.0118C10.1055 14.7078 10.1821 14.7844 10.1821 14.8784ZM7.11676 14.3328C7.08644 14.24 7.07082 14.1434 7.07082 14.0441C7.07082 13.5316 7.4877 13.1147 8.0002 13.1147C8.5127 13.1147 8.92957 13.5316 8.92957 14.0441C8.92957 14.1434 8.91395 14.2403 8.88363 14.3328H7.11676ZM14.4486 11.825C14.4486 11.9947 14.3105 12.1331 14.1405 12.1331H9.80613C9.63613 12.1331 9.49801 11.995 9.49801 11.825V11.5169H14.4483V11.825H14.4486ZM4.02707 2.4425C4.57113 2.4425 5.01395 1.99969 5.01395 1.45563C5.01395 0.911563 4.57113 0.46875 4.02707 0.46875C3.48301 0.46875 3.0402 0.911563 3.0402 1.45563C3.0402 1.99969 3.48301 2.4425 4.02707 2.4425ZM4.02707 0.84375C4.36457 0.84375 4.63895 1.11813 4.63895 1.45563C4.63895 1.79313 4.36457 2.0675 4.02707 2.0675C3.68957 2.0675 3.4152 1.79313 3.4152 1.45563C3.4152 1.11813 3.68957 0.84375 4.02707 0.84375ZM2.5627 6.73562C2.63551 6.73562 2.70488 6.72156 2.76926 6.69719V10.0828C2.76926 10.4812 3.09332 10.8053 3.49176 10.8053C3.70363 10.8053 3.89457 10.7134 4.02676 10.5678C4.15895 10.7138 4.34988 10.8053 4.56176 10.8053C4.9602 10.8053 5.28426 10.4812 5.28426 10.0828V6.69688C5.34863 6.72156 5.41801 6.73531 5.49082 6.73531C5.81144 6.73531 6.07238 6.47437 6.07238 6.15375V3.67656C6.07238 3.07125 5.57988 2.57875 4.97457 2.57875H3.07895C2.47363 2.57875 1.98113 3.07125 1.98113 3.67656V6.15375C1.98113 6.47469 2.24207 6.73562 2.5627 6.73562ZM2.35613 3.67688C2.35613 3.27844 2.6802 2.95406 3.07895 2.95406H4.9752C5.37363 2.95406 5.69801 3.27813 5.69801 3.67688V6.15406C5.69801 6.26781 5.60551 6.36062 5.49145 6.36062C5.37738 6.36062 5.28488 6.26812 5.28488 6.15406V4.00969C5.28488 3.90625 5.20082 3.82219 5.09738 3.82219C4.99395 3.82219 4.90988 3.90625 4.90988 4.00969V6.15406V10.0828C4.90988 10.2744 4.75395 10.4303 4.56238 10.4303C4.37082 10.4303 4.21488 10.2744 4.21488 10.0828V6.69C4.21488 6.58656 4.13082 6.5025 4.02738 6.5025C3.92395 6.5025 3.83988 6.58656 3.83988 6.69V10.0828C3.83988 10.2744 3.68395 10.4303 3.49238 10.4303C3.30082 10.4303 3.14488 10.2744 3.14488 10.0828V6.15406V4.00969C3.14488 3.90625 3.06082 3.82219 2.95738 3.82219C2.85395 3.82219 2.76988 3.90625 2.76988 4.00969V6.15406C2.76988 6.26781 2.67738 6.36062 2.56332 6.36062C2.44957 6.36062 2.35676 6.26812 2.35676 6.15406V3.67688H2.35613ZM10.0005 6.37656L10.0196 6.38281C10.0758 6.40094 10.1336 6.41 10.1908 6.41C10.1993 6.41 10.2077 6.40969 10.2161 6.40938L9.91301 7.48344C9.89707 7.54 9.90863 7.60063 9.94395 7.6475C9.97926 7.69438 10.0346 7.72188 10.0933 7.72188H10.9377V10.1941C10.9377 10.5312 11.2121 10.8056 11.5493 10.8056C11.7139 10.8056 11.8633 10.7403 11.9733 10.6344C12.0833 10.7403 12.233 10.8056 12.3974 10.8056C12.7346 10.8056 13.0089 10.5312 13.0089 10.1941V7.72188H13.8527C13.9114 7.72188 13.9668 7.69438 14.0021 7.6475C14.0374 7.60063 14.0489 7.54 14.033 7.48344L13.7299 6.40906C13.7955 6.41219 13.8618 6.40406 13.9268 6.38312L13.9455 6.37719C14.2318 6.28469 14.3896 5.98625 14.3049 5.6975L13.7133 3.68375C13.5686 3.19 13.3883 2.57562 12.5802 2.57562H11.3658C10.5577 2.57562 10.3777 3.19 10.2327 3.68344L9.64113 5.69719C9.55645 5.98594 9.71426 6.28438 10.0005 6.37656ZM10.0011 5.80281L10.5927 3.78875C10.7543 3.23781 10.8621 2.95031 11.3658 2.95031H12.5808C13.0846 2.95031 13.1924 3.23781 13.3539 3.78875L13.9455 5.80281C13.9721 5.89344 13.9205 5.99094 13.8308 6.01969L13.8121 6.02563C13.7655 6.04063 13.7168 6.03656 13.6746 6.01375C13.6324 5.99094 13.6021 5.95281 13.5886 5.90594L12.9989 3.81531C12.9708 3.71562 12.8674 3.65781 12.7677 3.68563C12.668 3.71375 12.6099 3.81719 12.638 3.91687L13.6055 7.34625H12.8218C12.7183 7.34625 12.6343 7.43031 12.6343 7.53375V10.1934C12.6343 10.3241 12.528 10.43 12.3977 10.43C12.2671 10.43 12.1611 10.3238 12.1611 10.1934C12.1611 10.1928 12.1611 10.1919 12.1611 10.1912C12.1611 10.1906 12.1611 10.1897 12.1611 10.1891V7.53406C12.1611 7.43062 12.0771 7.34656 11.9736 7.34656C11.8702 7.34656 11.7861 7.43062 11.7861 7.53406V10.1891V10.1912V10.1934C11.7861 10.3241 11.6799 10.43 11.5496 10.43C11.4189 10.43 11.313 10.3238 11.313 10.1934V7.53375C11.313 7.43031 11.2289 7.34625 11.1255 7.34625H10.3418L11.3093 3.91687C11.3374 3.81719 11.2793 3.71375 11.1796 3.68563C11.0799 3.6575 10.9764 3.71562 10.9483 3.81531L10.358 5.90625C10.3449 5.95312 10.3143 5.99156 10.2721 6.01406C10.2299 6.03656 10.1811 6.04094 10.1346 6.02594L10.1155 6.01969C10.0258 5.99063 9.97457 5.89344 10.0011 5.80281ZM11.9733 2.43937C12.5168 2.43937 12.9586 1.9975 12.9586 1.45406C12.9586 0.910625 12.5168 0.46875 11.9733 0.46875C11.4299 0.46875 10.988 0.910625 10.988 1.45406C10.988 1.9975 11.4302 2.43937 11.9733 2.43937ZM11.9733 0.84375C12.3099 0.84375 12.5836 1.1175 12.5836 1.45406C12.5836 1.79062 12.3099 2.06437 11.9733 2.06437C11.6368 2.06437 11.363 1.79062 11.363 1.45406C11.363 1.1175 11.6368 0.84375 11.9733 0.84375Z" fill="#1A1400"/>
</svg>
