<svg width="24" height="24" viewBox="0 0 24 24" fill="none" xmlns="http://www.w3.org/2000/svg">
<path d="M21.7477 10.4351L21.3727 7.06007C21.3517 6.87032 21.1912 6.72632 21 6.72632C20.523 6.72632 20.1068 6.90932 19.7966 7.25544C18.9262 8.22707 19.0924 10.2056 19.125 10.5198V10.8839C17.8245 10.9447 17.5095 11.3448 16.9886 12.1661C16.8079 12.4514 16.5836 12.8043 16.2443 13.2206L14.2657 14.5751C14.0336 14.7558 12 16.3762 12 17.6249C12 18.7094 12.1537 19.4219 12.2662 19.9424C12.327 20.2241 12.375 20.4468 12.375 20.6249V21.7499C12.375 22.2457 13.125 22.2464 13.125 21.7499V20.6249C13.125 20.3669 13.0669 20.0969 12.9994 19.7842C12.894 19.2967 12.75 18.6292 12.75 17.6249C12.75 16.9574 13.9624 15.7631 14.7079 15.1803L16.7119 13.8093C16.7411 13.7894 16.767 13.7658 16.7895 13.7388C17.1776 13.2689 17.424 12.8804 17.6224 12.5681C18.03 11.9249 18.18 11.6887 19.0417 11.6366C18.9345 12.1346 18.7312 12.9596 18.4357 13.6571C18.1935 13.8907 17.2252 14.8286 16.6016 15.4931C16.2622 15.8546 16.8086 16.3679 17.1487 16.0061C17.8369 15.2718 18.9983 14.1562 19.0099 14.1449C19.0455 14.1108 19.074 14.0699 19.0939 14.0249C19.503 13.0897 19.8368 11.6399 19.8686 11.2829C19.8784 11.1779 19.8765 10.4902 19.8731 10.4587C19.8146 9.92169 19.7873 8.38907 20.3561 7.75532C20.4495 7.65144 20.5526 7.57794 20.6708 7.53219L20.9981 10.4774C20.955 10.8967 20.6254 14.1176 20.6284 14.5961C20.5691 14.8019 19.878 15.4391 19.3732 15.9044C18.093 17.0846 16.5 18.5531 16.5 19.8749V21.7499C16.5 22.2457 17.25 22.2464 17.25 21.7499V19.8749C17.25 18.8816 18.7706 17.4798 19.881 16.4564C20.8901 15.5264 21.375 15.0599 21.375 14.6249C21.375 14.2173 21.6442 11.5199 21.7481 10.5149C21.7507 10.4883 21.7507 10.4617 21.7477 10.4351Z" fill="#141005"/>
<path d="M9.71555 14.5617L7.7558 13.2207C7.41642 12.8044 7.19255 12.4516 7.01142 12.1662C6.49055 11.3449 6.17555 10.9448 4.87505 10.8841V10.5199C4.90767 10.2057 5.0738 8.22718 4.20342 7.25556C3.8933 6.90943 3.47705 6.72681 3.00005 6.72681C2.8088 6.72681 2.6483 6.87043 2.6273 7.06056L2.2523 10.4356C2.2493 10.4622 2.2493 10.4888 2.25192 10.5154C2.3558 11.5201 2.62505 14.2174 2.62505 14.6251C2.62505 15.0601 3.10992 15.5266 4.11905 16.4566C5.22942 17.4799 6.75005 18.8817 6.75005 19.8751V21.7501C6.75005 21.9571 6.91805 22.1251 7.12505 22.1251C7.33205 22.1251 7.50005 21.9571 7.50005 21.7501V19.8751C7.50005 18.5532 5.90705 17.0847 4.62717 15.9049C4.1228 15.4396 3.4313 14.8028 3.37505 14.6251C3.37505 14.1192 3.04542 10.8972 3.0023 10.4779L3.32967 7.53268C4.27205 7.89606 4.12505 9.87456 4.12505 10.5001C4.12542 10.5991 4.12242 11.2662 4.1303 11.3127C4.1408 11.3753 4.3943 12.8547 4.90655 14.0254C4.92642 14.0708 4.95455 14.1113 4.99055 14.1454C5.00217 14.1567 6.16317 15.2723 6.85167 16.0066C7.1918 16.3696 7.73742 15.8543 7.3988 15.4936C6.77517 14.8287 5.80692 13.8908 5.56467 13.6576C5.26917 12.9601 5.06592 12.1351 4.95867 11.6371C5.82042 11.6892 5.97042 11.9254 6.37805 12.5686C6.4988 12.7587 7.1003 13.6819 7.28817 13.8098L9.27305 15.1673C10.0377 15.7624 11.25 16.9561 11.25 17.6251C11.25 18.6293 11.106 19.2968 11.0007 19.7843C10.9332 20.0971 10.875 20.3671 10.875 20.6251V21.7501C10.875 21.9571 11.043 22.1251 11.25 22.1251C11.457 22.1251 11.625 21.9571 11.625 21.7501V20.6251C11.625 20.4469 11.673 20.2242 11.7338 19.9426C11.8463 19.4221 12 18.7096 12 17.6251C12 16.3763 9.96642 14.7559 9.71555 14.5617Z" fill="#141005"/>
<path d="M11.8196 13.8289C11.9321 13.8904 12.0679 13.8904 12.1804 13.8289C16.2041 11.6209 19.125 8.14913 19.125 5.574C19.125 3.17138 17.3861 1.875 15.75 1.875C14.1 1.875 12.7601 3.25387 12 4.83487C11.2399 3.25387 9.89962 1.875 8.25 1.875C6.61388 1.875 4.875 3.17138 4.875 5.574C4.875 8.1495 7.79587 11.6209 11.8196 13.8289ZM8.25 2.625C9.81862 2.625 11.1094 4.34775 11.6445 5.94863C11.7581 6.28912 12.2419 6.28875 12.3555 5.94863C12.8906 4.34775 14.1814 2.625 15.75 2.625C17.0227 2.625 18.375 3.6585 18.375 5.574C18.375 7.81763 15.6469 11.0156 12 13.071C8.35312 11.0156 5.625 7.818 5.625 5.574C5.625 3.6585 6.97725 2.625 8.25 2.625Z" fill="#141005"/>
</svg>
