<svg width="16" height="16" viewBox="0 0 16 16" fill="none" xmlns="http://www.w3.org/2000/svg">
<g clip-path="url(#clip0_1205_5858)">
<path d="M14.4375 2.4375H12.6795L12.7271 1.76713C12.8594 1.73822 12.9779 1.66501 13.0629 1.55961C13.148 1.45421 13.1945 1.32293 13.1947 1.1875V0.8125C13.1947 0.754494 13.1717 0.698873 13.1306 0.657857C13.0896 0.616841 13.034 0.593783 12.976 0.59375H3.024C2.96599 0.593783 2.91037 0.616841 2.86936 0.657857C2.82834 0.698873 2.80528 0.754494 2.80525 0.8125V1.1875C2.80552 1.32293 2.85202 1.45421 2.93705 1.55961C3.02209 1.66501 3.14057 1.73822 3.27288 1.76713L3.3205 2.4375H1.5625C1.30566 2.4378 1.05943 2.53996 0.877819 2.72157C0.696208 2.90318 0.594048 3.14941 0.59375 3.40625V3.81875C0.594585 4.4835 0.800819 5.13175 1.18423 5.67479C1.56764 6.21783 2.10949 6.62912 2.73563 6.85238L4.46625 7.46613C4.93708 8.26747 5.5525 8.97452 6.28125 9.55138V11.12C6.28159 11.2385 6.31738 11.3542 6.384 11.4522C6.45063 11.5502 6.54505 11.6261 6.65513 11.67C6.49475 12.6353 6.26288 13.6188 6.11225 14.2183H5.5625C5.40509 14.2184 5.25418 14.2811 5.14287 14.3924C5.03157 14.5037 4.96895 14.6546 4.96875 14.812V15.187C4.96875 15.245 4.9918 15.3007 5.03282 15.3417C5.07384 15.3827 5.12948 15.4058 5.1875 15.4058H10.8125C10.8705 15.4058 10.9262 15.3827 10.9672 15.3417C11.0082 15.3007 11.0312 15.245 11.0312 15.187V14.812C11.0311 14.6546 10.9684 14.5037 10.8571 14.3924C10.7458 14.2811 10.5949 14.2184 10.4375 14.2183H9.8875C9.7375 13.6182 9.505 12.6353 9.34463 11.67C9.4547 11.6261 9.54912 11.5502 9.61575 11.4522C9.68237 11.3542 9.71816 11.2385 9.7185 11.12V9.55062C10.4014 9.01077 10.9859 8.35683 11.4459 7.61775C11.4768 7.56775 11.504 7.5165 11.5334 7.46613L13.2642 6.85238C13.8904 6.62914 14.4323 6.21786 14.8157 5.67482C15.1992 5.13178 15.4054 4.48351 15.4062 3.81875V3.40625C15.406 3.14941 15.3038 2.90318 15.1222 2.72157C14.9406 2.53996 14.6943 2.4378 14.4375 2.4375ZM12.595 3.625H14.2188V3.81875C14.2183 4.23826 14.0882 4.64737 13.8461 4.99C13.6041 5.33264 13.262 5.59203 12.8667 5.73263L12.209 5.9665C12.3946 5.3917 12.5106 4.79669 12.5545 4.19425L12.595 3.625ZM3.24275 1.03125H12.7572V1.1875C12.7572 1.22892 12.7407 1.26862 12.7114 1.29791C12.6821 1.3272 12.6424 1.34368 12.601 1.34375H3.399C3.35758 1.34368 3.31788 1.3272 3.28859 1.29791C3.2593 1.26862 3.24282 1.22892 3.24275 1.1875V1.03125ZM3.4455 4.19438C3.48875 4.79666 3.60446 5.39154 3.79012 5.96613L3.133 5.7325C2.73781 5.59189 2.39578 5.3325 2.15378 4.98989C1.91178 4.64728 1.78166 4.23821 1.78125 3.81875V3.625H3.405L3.4455 4.19438ZM2.882 6.44012C2.34102 6.2471 1.87288 5.89168 1.5416 5.42245C1.21032 4.95323 1.03208 4.39313 1.03125 3.81875V3.40625C1.03142 3.2654 1.08744 3.13038 1.18703 3.03078C1.28663 2.93119 1.42165 2.87517 1.5625 2.875H3.35162L3.37387 3.1875H1.5625C1.50448 3.1875 1.44884 3.21055 1.40782 3.25157C1.3668 3.29259 1.34375 3.34823 1.34375 3.40625V3.81875C1.34429 4.32868 1.50256 4.82596 1.79684 5.24241C2.09112 5.65886 2.50702 5.97409 2.9875 6.14488L3.9875 6.5C4.04187 6.63263 4.09937 6.76388 4.161 6.893L2.882 6.44012ZM10.4375 14.6562C10.4789 14.6563 10.5186 14.6728 10.5479 14.7021C10.5772 14.7314 10.5937 14.7711 10.5938 14.8125V14.9688H5.40625V14.8125C5.40632 14.7711 5.4228 14.7314 5.45209 14.7021C5.48138 14.6728 5.52108 14.6563 5.5625 14.6562H10.4375ZM9.4375 14.2188H6.56313C6.717 13.5994 6.93738 12.6473 7.09137 11.7137H8.90862C9.0625 12.6473 9.283 13.6 9.4375 14.2188ZM9.28125 11.12C9.28118 11.1614 9.2647 11.2011 9.23541 11.2304C9.20612 11.2597 9.16642 11.2762 9.125 11.2762H6.875C6.83358 11.2762 6.79388 11.2597 6.76459 11.2304C6.7353 11.2011 6.71882 11.1614 6.71875 11.12V9.875C6.85187 9.9655 6.98787 10.0525 7.12762 10.1349C7.39169 10.2914 7.69299 10.3739 7.99994 10.3739C8.30689 10.3739 8.60819 10.2914 8.87225 10.1349C9.0115 10.0528 9.14725 9.9655 9.28125 9.87463V11.12ZM8.65 9.7575C8.45256 9.87215 8.22831 9.93254 8 9.93254C7.77169 9.93254 7.54744 9.87215 7.35 9.7575C6.36228 9.17539 5.53065 8.36219 4.92655 7.38775C4.32246 6.41332 3.96397 5.3068 3.88188 4.16325L3.7125 1.78125H12.2875L12.1181 4.1625C12.0363 5.30627 11.6779 6.41306 11.0738 7.38771C10.4697 8.36237 9.63793 9.17573 8.65 9.75788V9.7575ZM14.9688 3.81875C14.9679 4.39312 14.7897 4.95321 14.4585 5.42243C14.1272 5.89165 13.6591 6.24708 13.1181 6.44012L11.8386 6.89388C11.9001 6.76463 11.9578 6.63363 12.0116 6.50087L13.013 6.14488C13.4934 5.97401 13.9092 5.65874 14.2034 5.2423C14.4976 4.82586 14.6557 4.32862 14.6562 3.81875V3.40625C14.6562 3.34823 14.6332 3.29259 14.5922 3.25157C14.5512 3.21055 14.4955 3.1875 14.4375 3.1875H12.6261L12.6484 2.875H14.4375C14.5783 2.87517 14.7134 2.93119 14.813 3.03078C14.9126 3.13038 14.9686 3.2654 14.9688 3.40625V3.81875Z" fill="#141005"/>
<path d="M4.30854 2.67196C4.27989 2.67398 4.25192 2.68164 4.22622 2.69449C4.20053 2.70734 4.17763 2.72513 4.15882 2.74684C4.14001 2.76855 4.12567 2.79376 4.11661 2.82102C4.10756 2.84828 4.10396 2.87706 4.10604 2.90571L4.15842 3.63933C4.1623 3.69448 4.18694 3.74611 4.22737 3.78382C4.26779 3.82153 4.32101 3.84253 4.37629 3.84258C4.38154 3.84258 4.38679 3.84258 4.39217 3.84258C4.42081 3.84054 4.44878 3.83287 4.47446 3.82001C4.50014 3.80716 4.52304 3.78937 4.54185 3.76766C4.56065 3.74595 4.57499 3.72075 4.58406 3.6935C4.59312 3.66625 4.59673 3.63748 4.59467 3.60883L4.54229 2.87496C4.54033 2.84626 4.53271 2.81823 4.51989 2.79249C4.50707 2.76674 4.48929 2.74377 4.46757 2.72491C4.44585 2.70605 4.42063 2.69167 4.39334 2.68258C4.36605 2.67349 4.33723 2.66988 4.30854 2.67196Z" fill="#141005"/>
<path d="M10.0029 4.4644L8.7545 4.28303L8.19613 3.15165C8.17805 3.11507 8.15011 3.08427 8.11545 3.06273C8.0808 3.0412 8.04081 3.02979 8 3.02979C7.9592 3.02979 7.91921 3.0412 7.88455 3.06273C7.84989 3.08427 7.82195 3.11507 7.80388 3.15165L7.2455 4.28303L5.99713 4.4644C5.95673 4.47027 5.91878 4.48732 5.88757 4.51363C5.85636 4.53994 5.83314 4.57445 5.82052 4.61328C5.80791 4.6521 5.80641 4.69367 5.81619 4.7333C5.82597 4.77293 5.84665 4.80903 5.87588 4.83753L6.77913 5.71815L6.56588 6.96153C6.55902 7.00174 6.56355 7.04308 6.57894 7.08086C6.59433 7.11864 6.61997 7.15137 6.65298 7.17535C6.68598 7.19934 6.72503 7.21362 6.76572 7.21659C6.80641 7.21955 6.84712 7.21109 6.88325 7.19215L8 6.60503L9.11675 7.19253C9.15289 7.21147 9.19359 7.21993 9.23428 7.21696C9.27497 7.21399 9.31402 7.19971 9.34703 7.17573C9.38003 7.15175 9.40567 7.11902 9.42106 7.08123C9.43646 7.04345 9.44098 7.00212 9.43413 6.9619L9.22088 5.71853L10.1241 4.83753C10.1534 4.80903 10.174 4.77293 10.1838 4.7333C10.1936 4.69367 10.1921 4.6521 10.1795 4.61328C10.1669 4.57445 10.1436 4.53994 10.1124 4.51363C10.0812 4.48732 10.0433 4.47027 10.0029 4.4644ZM8.833 5.48515C8.80767 5.50994 8.78874 5.54052 8.77785 5.57425C8.76697 5.60798 8.76444 5.64385 8.7705 5.67878L8.92838 6.59865L8.10213 6.16428C8.07075 6.14778 8.03583 6.13916 8.00038 6.13916C7.96492 6.13916 7.93 6.14778 7.89863 6.16428L7.07238 6.59865L7.23025 5.67878C7.23631 5.64385 7.23379 5.60798 7.2229 5.57425C7.21201 5.54052 7.19308 5.50994 7.16775 5.48515L6.49938 4.83365L7.42225 4.70003C7.45732 4.6949 7.49063 4.68133 7.5193 4.6605C7.54798 4.63966 7.57117 4.61217 7.58688 4.5804L8 3.74278L8.41313 4.58028C8.42884 4.61205 8.45203 4.63953 8.4807 4.66037C8.50938 4.68121 8.54268 4.69477 8.57775 4.6999L9.50138 4.83415L8.833 5.48515Z" fill="#141005"/>
</g>
<defs>
<clipPath id="clip0_1205_5858">
<rect width="16" height="16" fill="white"/>
</clipPath>
</defs>
</svg>
