<svg width="16" height="16" viewBox="0 0 16 16" fill="none" xmlns="http://www.w3.org/2000/svg">
<g clip-path="url(#clip0_1932_8768)">
<path d="M6.62704 3.48259H10.7772C10.966 3.48259 11.1191 3.32949 11.1191 3.14071C11.1191 2.95192 10.966 2.79883 10.7772 2.79883H6.62704C6.43822 2.79883 6.28516 2.95192 6.28516 3.14071C6.28516 3.32949 6.43822 3.48259 6.62704 3.48259Z" fill="#082133"/>
<path d="M6.62704 6.45109H10.7772C10.966 6.45109 11.1191 6.298 11.1191 6.10921C11.1191 5.92043 10.966 5.76733 10.7772 5.76733H6.62704C6.43822 5.76733 6.28516 5.92043 6.28516 6.10921C6.28516 6.298 6.43822 6.45109 6.62704 6.45109Z" fill="#082133"/>
<path d="M5.01749 2.25363L3.88049 3.33104L3.41031 2.86649C3.27602 2.73377 3.05954 2.7351 2.92682 2.8694C2.7941 3.00372 2.7954 3.22016 2.92973 3.35288L3.6352 4.04994C3.79301 4.17986 3.9515 4.1815 4.11065 4.05493L5.48778 2.75001C5.62484 2.62013 5.63068 2.40375 5.5008 2.26669C5.37089 2.12953 5.15451 2.12379 5.01749 2.25363Z" fill="#082133"/>
<path d="M5.01745 5.38542L3.88046 6.46282L3.41031 5.99827C3.27602 5.86556 3.05954 5.86686 2.92682 6.00118C2.7941 6.13551 2.7954 6.35195 2.92973 6.48467L3.6352 7.18173C3.79301 7.31164 3.9515 7.31328 4.11065 7.18672L5.48778 5.8818C5.62484 5.75192 5.63068 5.53554 5.5008 5.39848C5.37085 5.26142 5.15448 5.25561 5.01745 5.38542Z" fill="#082133"/>
<path d="M5.01743 8.35396L3.88043 9.43137L3.41028 8.96685C3.27596 8.83414 3.05951 8.83543 2.92679 8.96976C2.79411 9.10408 2.79541 9.32056 2.9297 9.45325L3.63517 10.1503C3.79298 10.2802 3.95148 10.2818 4.11062 10.1553L5.48775 8.85034C5.62481 8.72046 5.63066 8.50408 5.50078 8.36702C5.37083 8.2299 5.15445 8.22412 5.01743 8.35396Z" fill="#082133"/>
<path d="M16 9.85355C16 9.66477 15.8469 9.51167 15.6581 9.51167C15.4693 9.51167 15.3162 9.66477 15.3162 9.85355C15.3162 11.1671 14.2365 12.2357 12.9092 12.2357C11.582 12.2357 10.5022 11.1671 10.5022 9.85355C10.5022 8.54005 11.582 7.47143 12.9092 7.47143C13.4907 7.47143 14.0432 7.67854 14.4742 8.04367L14.1575 8.0461C13.9687 8.04757 13.8168 8.20183 13.8183 8.39061C13.8197 8.57854 13.9725 8.72986 14.1601 8.72986H14.1628L15.2015 8.72186C15.3881 8.72043 15.539 8.56976 15.5408 8.38326L15.5507 7.34272C15.5525 7.15389 15.4009 6.99937 15.2121 6.99755C15.2109 6.99755 15.2099 6.99755 15.2088 6.99755C15.0215 6.99755 14.8688 7.14849 14.8669 7.33615L14.8656 7.48012C14.3749 7.082 13.7685 6.83988 13.1252 6.79536V1.3274C13.1252 0.76186 12.6651 0.301758 12.0996 0.301758H2.29542C1.73084 0.301758 1.27074 0.761074 1.26978 1.32559L1.24978 12.7208H0.34188C0.15306 12.7208 0 12.8739 0 13.0626V14.1249C0 14.9925 0.70694 15.6983 1.57593 15.6983H11.4671C12.3432 15.6983 13.1252 15.0265 13.1252 14.1123V12.9118C14.7291 12.8015 16 11.472 16 9.85355ZM0.683761 14.1249V13.4045H10.0486C10.0162 13.9329 10.0132 14.5615 10.3216 15.0146H1.57593C1.084 15.0146 0.683761 14.6155 0.683761 14.1249ZM11.5366 15.0146C11.1257 15.0146 10.7324 14.5051 10.7324 14.1353V13.0626C10.7324 12.8738 10.5794 12.7207 10.3905 12.7207C10.3903 12.7207 10.3901 12.7208 10.3899 12.7208H1.93354L1.95354 1.32682C1.95385 1.13861 2.10725 0.985553 2.29542 0.985553H12.0996C12.2881 0.985553 12.4414 1.13892 12.4414 1.32743V6.82278C11.3397 6.98942 10.4274 7.73523 10.031 8.73615H6.60773C6.41891 8.73615 6.26585 8.88925 6.26585 9.07803C6.26585 9.26682 6.41891 9.41991 6.60773 9.41991H9.84954C9.82923 9.56166 9.81846 9.70637 9.81846 9.85359C9.81846 11.3864 10.9584 12.6601 12.4414 12.8844V14.1123C12.4414 14.6098 12.0356 15.0146 11.5366 15.0146Z" fill="#082133"/>
<path d="M12.9083 8.26025C12.7195 8.26025 12.5664 8.41335 12.5664 8.60213V9.8569C12.5664 9.94767 12.6025 10.0348 12.6668 10.0989L13.5067 10.9371C13.6679 11.0704 13.8291 11.0703 13.9902 10.9366C14.1236 10.8029 14.1234 10.5865 13.9897 10.4531L13.2502 9.71506V8.6021C13.2502 8.41335 13.0971 8.26025 12.9083 8.26025Z" fill="#082133"/>
</g>
<defs>
<clipPath id="clip0_1932_8768">
<rect width="16" height="16" fill="white"/>
</clipPath>
</defs>
</svg>
