<svg width="32" height="32" viewBox="0 0 32 32" fill="none" xmlns="http://www.w3.org/2000/svg">
<path d="M31.1375 13.856C31.1366 13.8553 31.1358 13.8543 31.1351 13.8535L18.0816 0.800539C17.5252 0.243897 16.7855 -0.0625 15.9986 -0.0625C15.2117 -0.0625 14.472 0.243897 13.9153 0.800539L0.868687 13.847C0.864292 13.8513 0.859654 13.856 0.855503 13.8604C-0.287077 15.0096 -0.285124 16.8741 0.861119 18.0203C1.3848 18.5442 2.07621 18.8475 2.81571 18.8794C2.84599 18.8824 2.87626 18.8838 2.90678 18.8838H3.4268V28.4898C3.4268 30.3909 4.97368 31.9376 6.8748 31.9376H11.9817C12.4996 31.9376 12.9192 31.5176 12.9192 31.0001V23.4688C12.9192 22.6014 13.6251 21.8958 14.4925 21.8958H17.5047C18.3721 21.8958 19.0777 22.6014 19.0777 23.4688V31.0001C19.0777 31.5176 19.4974 31.9376 20.0152 31.9376H25.1222C27.0235 31.9376 28.5702 30.3909 28.5702 28.4898V18.8838H29.0526C29.8392 18.8838 30.579 18.5774 31.1358 18.0205C32.2833 16.8726 32.2838 15.0047 31.1375 13.856ZM29.8099 16.6949C29.6075 16.8973 29.3385 17.0088 29.0526 17.0088H27.6327C27.1148 17.0088 26.6952 17.4285 26.6952 17.9463V28.4898C26.6952 29.357 25.9896 30.0626 25.1222 30.0626H20.9527V23.4688C20.9527 21.5677 19.4061 20.0208 17.5047 20.0208H14.4925C12.5911 20.0208 11.0442 21.5677 11.0442 23.4688V30.0626H6.8748C6.00761 30.0626 5.3018 29.357 5.3018 28.4898V17.9463C5.3018 17.4285 4.88212 17.0088 4.3643 17.0088H2.96879C2.95414 17.0078 2.93974 17.0071 2.92484 17.0069C2.64555 17.002 2.38358 16.8911 2.18729 16.6946C1.76981 16.2771 1.76981 15.5977 2.18729 15.18C2.18754 15.18 2.18754 15.1797 2.18778 15.1795L2.18851 15.1787L15.2415 2.12623C15.4437 1.92383 15.7125 1.8125 15.9986 1.8125C16.2845 1.8125 16.5533 1.92383 16.7557 2.12623L29.8058 15.1761C29.8077 15.178 29.8099 15.18 29.8119 15.1819C30.2271 15.6001 30.2264 16.2781 29.8099 16.6949Z" fill="black"/>
</svg>
