<svg width="16" height="16" viewBox="0 0 16 16" fill="none" xmlns="http://www.w3.org/2000/svg">
<path d="M10.9601 9.45862C11.0383 9.46594 11.1145 9.43078 11.1596 9.36647C11.2047 9.30212 11.2119 9.21853 11.1784 9.14747L10.3785 7.45291C10.5744 7.40013 10.7493 7.29644 10.9058 7.13991C11.2049 6.84081 11.313 6.47559 11.2363 6.02338C11.1851 5.72125 11.3037 5.43491 11.5535 5.25747C11.9275 4.99184 12.1094 4.65716 12.1094 4.23425C12.1094 3.81134 11.9276 3.47666 11.5535 3.21103C11.3037 3.03359 11.1851 2.74725 11.2363 2.44506C11.3128 1.99269 11.2047 1.6275 10.9058 1.32856C10.6067 1.02947 10.2414 0.921344 9.78927 0.998094C9.48715 1.04928 9.2008 0.930688 9.02333 0.680844C8.75768 0.306813 8.42299 0.125 8.00011 0.125C7.57724 0.125 7.24252 0.306813 6.9769 0.680844C6.79943 0.930688 6.51302 1.04931 6.21096 0.998062C5.75858 0.921531 5.3934 1.02962 5.09446 1.32859C4.79552 1.62756 4.6873 1.99288 4.76399 2.44513C4.81518 2.74725 4.69658 3.03359 4.44671 3.21103C4.07271 3.47669 3.8909 3.81138 3.8909 4.23425C3.8909 4.65712 4.07271 4.99184 4.44671 5.25744C4.69655 5.43491 4.81518 5.72125 4.76396 6.02341C4.68743 6.47575 4.79552 6.84097 5.09449 7.13991C5.25443 7.29984 5.43352 7.40462 5.63449 7.45628L4.83365 9.15297C4.80011 9.22403 4.80724 9.30763 4.8524 9.37197C4.89755 9.43631 4.97358 9.47134 5.05196 9.46412L5.97321 9.37753L6.56436 10.0894C6.60633 10.1399 6.66824 10.1684 6.73265 10.1684C6.7453 10.1684 6.75802 10.1673 6.77074 10.1651C6.84811 10.1514 6.91221 10.0972 6.93865 10.0232L7.56558 8.26794C7.69902 8.31838 7.84349 8.34347 8.00015 8.34347C8.16152 8.34347 8.30996 8.31678 8.44671 8.26325L9.07336 10.0177C9.0998 10.0917 9.16389 10.1459 9.24127 10.1596C9.25399 10.1618 9.26671 10.1629 9.27936 10.1629C9.34374 10.1629 9.40568 10.1344 9.44765 10.0839L10.0388 9.37203L10.9601 9.45862ZM6.65571 9.51466L6.23593 9.00919C6.18974 8.95359 6.11915 8.92437 6.04715 8.93116L5.39302 8.99266L6.10477 7.48478C6.13968 7.48103 6.17496 7.4765 6.21096 7.47041C6.51311 7.41922 6.79946 7.53781 6.97686 7.78766C7.04233 7.87984 7.11208 7.96025 7.18624 8.02925L6.65568 9.51469L6.65571 9.51466ZM7.33358 7.53431C7.09905 7.20409 6.74277 7.02075 6.35274 7.02075C6.28208 7.02075 6.21021 7.02678 6.1379 7.03903C5.82286 7.09244 5.60336 7.03006 5.40383 6.83053C5.20436 6.63106 5.14199 6.4115 5.1953 6.09641C5.27521 5.62475 5.09005 5.17778 4.70002 4.90072C4.43952 4.71572 4.32836 4.51638 4.32836 4.23419C4.32836 3.952 4.43952 3.75269 4.70002 3.56766C5.09008 3.29063 5.27524 2.84363 5.1953 2.37194C5.1419 2.05697 5.20424 1.83744 5.4038 1.63787C5.60327 1.43837 5.82277 1.37606 6.1379 1.42938C6.60949 1.50938 7.05655 1.32413 7.33358 0.934125C7.51861 0.673625 7.71796 0.562469 8.00011 0.562469C8.28227 0.562469 8.48161 0.673625 8.66668 0.934156C8.94368 1.32413 9.39058 1.50919 9.8624 1.42941C10.1773 1.376 10.3969 1.43834 10.5965 1.63791C10.7959 1.83734 10.8583 2.05691 10.805 2.37197C10.7251 2.84363 10.9102 3.29063 11.3002 3.56766C11.5607 3.75269 11.6719 3.95203 11.6719 4.23419C11.6719 4.51634 11.5607 4.71569 11.3002 4.90072C10.9102 5.17775 10.725 5.62475 10.805 6.09644C10.8584 6.41141 10.796 6.63094 10.5965 6.8305C10.397 7.03 10.1775 7.09241 9.86236 7.03903C9.39071 6.95906 8.94371 7.14425 8.66668 7.53428C8.48161 7.79481 8.28227 7.90597 8.00011 7.90597C7.71796 7.90597 7.51861 7.79481 7.33358 7.53431ZM9.77599 9.00369L9.35624 9.50912L8.82408 8.01928C8.89443 7.95247 8.96086 7.87556 9.02333 7.78762C9.2008 7.53778 9.48714 7.41919 9.7893 7.47041C9.83046 7.47738 9.87068 7.48228 9.91039 7.48616L10.6189 8.98709L9.96474 8.92562C9.89271 8.91887 9.82214 8.94806 9.77596 9.00369H9.77599ZM10.6622 4.23422C10.6622 2.76634 9.46799 1.57216 8.00011 1.57216C6.53224 1.57216 5.33805 2.76634 5.33805 4.23422C5.33805 5.70209 6.53224 6.89628 8.00011 6.89628C9.46799 6.89628 10.6622 5.70209 10.6622 4.23422ZM8.00011 6.45878C6.77349 6.45878 5.77555 5.46084 5.77555 4.23422C5.77555 3.00759 6.77349 2.00966 8.00011 2.00966C9.22674 2.00966 10.2247 3.00759 10.2247 4.23422C10.2247 5.46084 9.22674 6.45878 8.00011 6.45878ZM9.75296 3.67216C9.71165 3.545 9.60358 3.45562 9.47096 3.43897L8.65758 3.33675L8.30902 2.59478C8.25218 2.47378 8.1338 2.39862 8.00011 2.39862C7.86643 2.39862 7.74808 2.47381 7.69124 2.59478L7.34265 3.33675L6.5293 3.43897C6.39661 3.45562 6.28855 3.545 6.2473 3.67209C6.20596 3.79922 6.24086 3.93503 6.3384 4.0265L6.93633 4.58731L6.78224 5.39244C6.75711 5.52375 6.80868 5.65413 6.9168 5.73266C7.02493 5.81125 7.16486 5.82 7.28202 5.75553L8.00011 5.36019L8.71827 5.75556C8.77036 5.78422 8.82696 5.79844 8.88327 5.79844C8.95355 5.79844 9.02336 5.77631 9.08336 5.73272C9.19152 5.65416 9.24311 5.52378 9.21799 5.39244L9.0639 4.58728L9.66186 4.02644C9.75933 3.93497 9.79421 3.79919 9.75293 3.67213L9.75296 3.67216ZM8.67677 4.35059C8.62208 4.40188 8.59746 4.47759 8.61158 4.55125L8.74983 5.27353L8.10561 4.91888C8.03993 4.88272 7.9603 4.88272 7.89461 4.91888L7.2504 5.27356L7.38865 4.55128C7.40274 4.47766 7.37815 4.40191 7.32346 4.35063L6.78705 3.84753L7.51674 3.75581C7.59115 3.74647 7.65555 3.69966 7.68743 3.63178L8.00015 2.96619L8.31283 3.63178C8.34471 3.69963 8.40914 3.74644 8.48352 3.75581L9.21321 3.84753L8.6768 4.35063L8.67677 4.35059ZM6.15115 11.087C5.96271 10.4465 5.49458 10.0877 4.95252 9.67216C4.36305 9.22034 3.69505 8.70834 3.09449 7.66947C2.95755 7.41347 2.70236 7.25859 2.4109 7.25494C2.22652 7.25259 2.05527 7.31119 1.91799 7.41834C1.75646 6.39484 1.6589 4.99147 1.6589 4.39791C1.6589 3.89687 1.37068 3.61469 1.08505 3.55722C0.772708 3.49437 0.476177 3.67963 0.329677 4.02916C0.126333 4.51447 0.104333 6.42744 0.137739 7.34378C0.168614 8.19006 0.226145 8.85419 0.687645 9.69594C0.907052 10.0961 1.17561 10.4854 1.43536 10.8618C1.54458 11.0201 1.64777 11.1697 1.74286 11.3138C2.15761 11.9422 2.43715 12.4623 2.51586 13.0261C2.28436 13.0739 2.08724 13.247 2.02199 13.4904L1.71286 14.6441C1.69786 14.7001 1.70571 14.7598 1.73471 14.8101C1.76371 14.8603 1.81149 14.897 1.86752 14.912L5.43374 15.8676C5.45236 15.8726 5.4714 15.875 5.49036 15.875C5.52843 15.875 5.56621 15.8651 5.59974 15.8457C5.64999 15.8167 5.68665 15.7689 5.70165 15.7129L6.01077 14.5592C6.08146 14.2955 5.97686 14.0258 5.76918 13.8729C6.22186 12.59 6.33952 11.7273 6.15115 11.087V11.087ZM5.58818 14.446L5.33568 15.3883L2.19205 14.546L2.44455 13.6037C2.47421 13.4931 2.58815 13.4273 2.69874 13.4569L5.4414 14.1918C5.55196 14.2214 5.6178 14.3354 5.58818 14.446ZM5.36015 13.7171L2.96221 13.0745C2.88343 12.3053 2.48277 11.6406 2.10802 11.0728C2.01043 10.9249 1.90602 10.7735 1.79549 10.6133C1.54202 10.246 1.27993 9.86609 1.0713 9.48559C0.655083 8.72644 0.604552 8.13834 0.574989 7.32781C0.533177 6.18113 0.594458 4.52944 0.733208 4.19825C0.79752 4.04491 0.896739 3.96556 0.998833 3.98609C1.10605 4.00766 1.22143 4.14569 1.22143 4.39787C1.22143 5.18406 1.37715 7.23353 1.63155 8.22313L1.63174 8.22306C1.75371 9.11291 2.77174 10.295 3.22571 10.5843C3.32761 10.6492 3.4628 10.6192 3.52774 10.5173C3.59268 10.4154 3.56271 10.2802 3.4608 10.2153C3.23065 10.0686 2.79477 9.60641 2.46371 9.08675C2.11943 8.54628 1.97871 8.08003 2.09652 7.86991C2.15977 7.75709 2.27611 7.69187 2.40536 7.69234C2.53552 7.69397 2.6493 7.76325 2.70968 7.87766C2.71096 7.88009 2.7123 7.8825 2.71368 7.88487C3.3583 9.00138 4.09465 9.56581 4.68633 10.0193C5.20702 10.4184 5.58324 10.7068 5.7314 11.2104C5.88971 11.7485 5.77168 12.5474 5.36011 13.717L5.36015 13.7171ZM15.6705 4.02916C15.524 3.67966 15.2275 3.49447 14.9152 3.55722C14.6296 3.61466 14.3413 3.89687 14.3413 4.39791C14.3413 4.99141 14.2438 6.39466 14.0823 7.41819C13.9451 7.31097 13.7739 7.25234 13.5893 7.25494C13.2979 7.25863 13.0427 7.41347 12.9057 7.66947C12.3052 8.70834 11.6372 9.22031 11.0477 9.67216C10.5056 10.0876 10.0375 10.4465 9.84908 11.087C9.66071 11.7273 9.77836 12.59 10.231 13.8729C10.0234 14.0258 9.91877 14.2955 9.98946 14.5592L10.2986 15.7128C10.3136 15.7689 10.3502 15.8167 10.4005 15.8457C10.434 15.865 10.4718 15.875 10.5099 15.875C10.5288 15.875 10.5479 15.8725 10.5665 15.8675L14.1327 14.9119C14.1887 14.8969 14.2365 14.8603 14.2655 14.81C14.2945 14.7598 14.3024 14.7001 14.2874 14.644L13.9782 13.4904C13.913 13.2469 13.7158 13.0739 13.4844 13.0261C13.5631 12.4623 13.8426 11.9421 14.2573 11.3137C14.3524 11.1697 14.4556 11.0202 14.5647 10.8619C14.8245 10.4854 15.0931 10.0961 15.3126 9.69591C15.7741 8.85409 15.8316 8.19003 15.8625 7.34375C15.8959 6.42741 15.8739 4.51444 15.6705 4.02913L15.6705 4.02916ZM13.5557 13.6037L13.8082 14.546L10.6646 15.3883L10.4121 14.446C10.3824 14.3354 10.4483 14.2214 10.5588 14.1918L13.3015 13.4569C13.3194 13.4521 13.3374 13.4498 13.3551 13.4498C13.4468 13.4498 13.5309 13.5111 13.5557 13.6037ZM15.4253 7.32781C15.3957 8.13834 15.3452 8.72638 14.9289 9.48563C14.7203 9.86619 14.4581 10.2461 14.2046 10.6135C14.0941 10.7737 13.9898 10.925 13.8922 11.0728C13.5174 11.6406 13.1168 12.3053 13.038 13.0746L10.6401 13.7171C10.2285 12.5474 10.1105 11.7486 10.2688 11.2105C10.4169 10.7069 10.7931 10.4185 11.3138 10.0194C11.9055 9.56588 12.6419 9.00144 13.2865 7.88494C13.2879 7.88253 13.2892 7.88013 13.2905 7.87772C13.3509 7.76331 13.4646 7.69406 13.5948 7.69241C13.7258 7.69203 13.8404 7.75716 13.9037 7.87C14.0215 8.08012 13.8808 8.54638 13.5365 9.08681C13.2055 9.60644 12.7696 10.0687 12.5394 10.2153C12.4375 10.2803 12.4076 10.4155 12.4725 10.5174C12.5374 10.6192 12.6726 10.6492 12.7745 10.5843C13.2285 10.295 14.2465 9.113 14.3685 8.22313L14.3687 8.22319C14.6231 7.23347 14.7788 5.18403 14.7788 4.39794C14.7788 4.14578 14.8941 4.00772 15.0014 3.98616C15.1034 3.96566 15.2027 4.04494 15.267 4.19828C15.4058 4.5295 15.4671 6.18116 15.4253 7.32781ZM12.0007 2.44181C11.9403 2.33719 11.9762 2.20341 12.0808 2.143L12.6194 1.83206C12.724 1.77169 12.8578 1.8075 12.9182 1.91212C12.9786 2.01675 12.9427 2.15053 12.8381 2.21094L12.2996 2.52187C12.2651 2.54175 12.2275 2.55122 12.1904 2.55122C12.1148 2.55122 12.0412 2.512 12.0007 2.44181ZM12.8381 6.25747C12.9427 6.31787 12.9786 6.45166 12.9182 6.55628C12.8777 6.62647 12.8041 6.66569 12.7285 6.66569C12.6914 6.66569 12.6538 6.65625 12.6194 6.63634L12.0808 6.32541C11.9762 6.265 11.9403 6.13122 12.0007 6.02659C12.0612 5.92194 12.1949 5.88609 12.2996 5.94653L12.8381 6.25747ZM12.6997 4.01547H13.3216C13.4424 4.01547 13.5404 4.11341 13.5404 4.23422C13.5404 4.35503 13.4424 4.45297 13.3216 4.45297H12.6997C12.5789 4.45297 12.481 4.35503 12.481 4.23422C12.481 4.11341 12.5789 4.01547 12.6997 4.01547ZM3.70071 5.94653C3.8054 5.88616 3.93915 5.92197 3.99952 6.02659C4.05993 6.13122 4.02408 6.265 3.91946 6.32541L3.3809 6.63634C3.34643 6.65622 3.30883 6.66569 3.27174 6.66569C3.19615 6.66569 3.12261 6.62647 3.08208 6.55628C3.02168 6.45166 3.05752 6.31787 3.16215 6.25747L3.70071 5.94653ZM2.45986 4.23422C2.45986 4.11341 2.5578 4.01547 2.67861 4.01547H3.30052C3.42133 4.01547 3.51927 4.11341 3.51927 4.23422C3.51927 4.35503 3.42133 4.45297 3.30052 4.45297H2.67861C2.5578 4.45297 2.45986 4.35503 2.45986 4.23422ZM3.08208 1.91212C3.14249 1.80747 3.2763 1.77163 3.3809 1.83206L3.91946 2.143C4.02408 2.20341 4.05993 2.33719 3.99952 2.44181C3.95902 2.512 3.88549 2.55122 3.8099 2.55122C3.77277 2.55122 3.73518 2.54178 3.70071 2.52187L3.16215 2.21094C3.05752 2.15053 3.02168 2.01675 3.08208 1.91212Z" fill="#A27E2A"/>
</svg>
