<svg width="26" height="26" viewBox="0 0 26 26" fill="none" xmlns="http://www.w3.org/2000/svg">
<path d="M13.2281 3.30762C9.20695 3.30762 5.93896 6.5756 5.93896 10.5967C5.93896 13.5438 7.22258 15.2597 8.1591 16.5105C8.72232 17.2637 9.16766 17.8662 9.16766 18.4622C9.16766 19.5559 9.59989 20.3417 10.4578 20.8002C10.8835 21.0294 11.414 21.18 12.0885 21.2521H12.1016C12.4422 21.2914 12.8155 21.3045 13.2281 21.3045C13.6407 21.3045 14.0205 21.2848 14.3545 21.2521H14.3676C15.0422 21.18 15.5726 21.0294 15.9983 20.8002C16.8563 20.3417 17.2885 19.5493 17.2885 18.4622C17.2885 17.8597 17.7338 17.2637 18.2971 16.5105C19.2336 15.2531 20.5172 13.5373 20.5172 10.5967C20.5172 6.58215 17.2492 3.30762 13.2281 3.30762ZM17.616 16.0063C16.9807 16.8511 16.4371 17.5846 16.4371 18.4687C16.4371 19.5035 15.9721 20.0798 14.8522 20.3221L16.1621 14.8536C16.5747 14.6179 17.5439 13.9826 17.7666 13.0526C17.8976 12.5091 17.8714 11.9589 17.6945 11.5071C17.5046 11.0159 17.1575 10.6819 16.7449 10.5836C15.9066 10.3806 14.9963 11.1665 14.7147 12.3257C14.4921 13.2557 15.0684 14.2642 15.3303 14.6572L13.9419 20.4465C13.7193 20.4596 13.4769 20.4662 13.215 20.4662C12.953 20.4662 12.7107 20.4596 12.488 20.4465L10.9752 14.1201C11.1782 14.0153 11.3616 13.8713 11.5122 13.6944C11.7742 13.3801 11.8855 13.0199 11.8069 12.7055L11.3092 10.636L10.484 10.8325L10.9817 12.902C10.9948 12.9609 10.9163 13.1116 10.7656 13.2426L10.2024 10.898C10.15 10.6688 9.9208 10.5312 9.69158 10.5836C9.46236 10.636 9.32483 10.8652 9.37723 11.0945L9.94045 13.439C9.74397 13.3866 9.60644 13.2884 9.59335 13.236L9.09562 11.1665L8.27043 11.363L8.76816 13.4325C8.84675 13.7468 9.10217 14.0219 9.48201 14.1791C9.69158 14.2708 9.92735 14.3166 10.1566 14.3166L11.5974 20.3286C10.4775 20.0863 10.0125 19.5035 10.0125 18.4753C10.0125 17.5911 9.46891 16.8576 8.83365 16.0128C7.92333 14.7881 6.7838 13.2688 6.7838 10.6033C6.7838 7.05368 9.67193 4.16555 13.2215 4.16555C16.7711 4.16555 19.6593 7.05368 19.6593 10.6033C19.6658 13.2622 18.5328 14.7816 17.616 16.0063ZM15.9328 14.0022C15.7036 13.6093 15.4351 13.0002 15.553 12.5222C15.7233 11.7952 16.1948 11.4023 16.4895 11.4023C16.5157 11.4023 16.5354 11.4023 16.555 11.4088C16.6925 11.4416 16.8235 11.5922 16.9087 11.8083C17.02 12.103 17.0331 12.4763 16.9479 12.8496C16.8301 13.3342 16.3192 13.7534 15.9328 14.0022Z" fill="#513F15"/>
<path d="M15.3826 5.02986C14.6949 4.76135 13.968 4.63037 13.2279 4.63037C12.9922 4.63037 12.8022 4.82029 12.8022 5.05606C12.8022 5.29183 12.9922 5.48175 13.2279 5.48175C13.8632 5.48175 14.4854 5.59963 15.0748 5.82885C15.1272 5.8485 15.1796 5.85505 15.2254 5.85505C15.3957 5.85505 15.5594 5.75026 15.6249 5.57999C15.71 5.35732 15.6052 5.115 15.3826 5.02986Z" fill="#513F15"/>
<path d="M16.8563 5.85503C16.6729 5.71095 16.4044 5.75024 16.2603 5.93362C16.1162 6.11699 16.1555 6.3855 16.3389 6.52958C17.616 7.51194 18.3495 8.99203 18.3495 10.5966C18.3495 10.8323 18.5394 11.0222 18.7751 11.0222C19.0109 11.0222 19.2008 10.8323 19.2008 10.5966C19.2008 8.73007 18.3495 7.00112 16.8563 5.85503Z" fill="#513F15"/>
<path d="M16.1228 21.1271C15.5268 21.6183 14.1843 21.6707 13.2281 21.6707C12.2719 21.6707 10.9294 21.6117 10.3334 21.1271C10.15 20.9765 9.88154 21.0027 9.73746 21.186C9.58683 21.3694 9.61303 21.6379 9.7964 21.782C10.4186 22.2928 11.4795 22.5221 13.2347 22.5221C14.9898 22.5221 16.0508 22.2928 16.6729 21.782C16.8563 21.6314 16.8825 21.3629 16.7319 21.186C16.5747 21.0027 16.3062 20.9765 16.1228 21.1271Z" fill="#513F15"/>
<path d="M16.1228 22.3253C15.5268 22.8165 14.1843 22.8689 13.2281 22.8689C12.2719 22.8689 10.9294 22.81 10.3334 22.3253C10.15 22.1747 9.88154 22.2009 9.73746 22.3843C9.58683 22.5677 9.61303 22.8362 9.7964 22.9803C10.4186 23.4911 11.4795 23.7203 13.2347 23.7203C14.9898 23.7203 16.0508 23.4911 16.6729 22.9803C16.8563 22.8296 16.8825 22.5611 16.7319 22.3843C16.5747 22.2075 16.3062 22.1813 16.1228 22.3253Z" fill="#513F15"/>
<path d="M15.7692 23.7403C15.6055 23.8124 15.409 23.8713 15.1863 23.9237C15.1536 23.9237 15.1274 23.9303 15.1012 23.9434C14.6231 24.0351 14.0075 24.0809 13.2281 24.0809C12.0231 24.0809 11.211 23.9761 10.6871 23.7403C10.471 23.6487 10.2221 23.7469 10.1239 23.963C10.0322 24.1791 10.1304 24.428 10.3466 24.5262C10.5037 24.5983 10.6806 24.6572 10.8705 24.7031C11.0277 25.1877 11.5385 25.9998 13.2281 25.9998C14.9178 25.9998 15.4286 25.1877 15.5858 24.7031C15.7823 24.6507 15.9526 24.5917 16.1097 24.5262C16.3259 24.4345 16.4241 24.1791 16.3324 23.963C16.2407 23.7469 15.9853 23.6487 15.7692 23.7403ZM13.2281 25.1484C12.6322 25.1484 12.2589 25.0305 12.0297 24.8864C12.3899 24.9192 12.7828 24.9323 13.2281 24.9323C13.6735 24.9323 14.0664 24.9192 14.4266 24.8864C14.1974 25.0305 13.8241 25.1484 13.2281 25.1484Z" fill="#513F15"/>
<path d="M13.2279 2.55414C13.4637 2.55414 13.6536 2.36421 13.6536 2.12845V0.42569C13.6536 0.189923 13.4637 0 13.2279 0C12.9922 0 12.8022 0.189923 12.8022 0.42569V2.12845C12.8022 2.36421 12.9922 2.55414 13.2279 2.55414Z" fill="#513F15"/>
<path d="M23.3987 10.1704H21.696C21.4602 10.1704 21.2703 10.3603 21.2703 10.5961C21.2703 10.8319 21.4602 11.0218 21.696 11.0218H23.3987C23.6345 11.0218 23.8244 10.8319 23.8244 10.5961C23.8244 10.3603 23.6345 10.1704 23.3987 10.1704Z" fill="#513F15"/>
<path d="M4.75345 10.1704H3.05069C2.81492 10.1704 2.625 10.3603 2.625 10.5961C2.625 10.8319 2.81492 11.0218 3.05069 11.0218H4.75345C4.98921 11.0218 5.17914 10.8319 5.17914 10.5961C5.17914 10.3603 4.98921 10.1704 4.75345 10.1704Z" fill="#513F15"/>
<path d="M19.2204 5.03638C19.3318 5.03638 19.4366 4.99709 19.5217 4.91195L20.0653 4.36838C20.229 4.20465 20.229 3.92959 20.0653 3.76586C19.9015 3.60213 19.6265 3.60213 19.4628 3.76586L18.9192 4.30943C18.7555 4.47316 18.7555 4.74822 18.9192 4.91195C18.9978 4.99054 19.1091 5.03638 19.2204 5.03638Z" fill="#513F15"/>
<path d="M19.5217 16.2873C19.358 16.1236 19.0829 16.1236 18.9192 16.2873C18.7555 16.4511 18.7555 16.7261 18.9192 16.8899L19.4628 17.4334C19.5479 17.5186 19.6527 17.5579 19.764 17.5579C19.8753 17.5579 19.9801 17.5186 20.0653 17.4334C20.229 17.2697 20.229 16.9946 20.0653 16.8309L19.5217 16.2873Z" fill="#513F15"/>
<path d="M6.93443 16.2873L6.39086 16.8309C6.22713 16.9946 6.22713 17.2697 6.39086 17.4334C6.476 17.5186 6.58078 17.5579 6.69212 17.5579C6.80345 17.5579 6.90824 17.5186 6.99338 17.4334L7.53695 16.8899C7.70068 16.7261 7.70068 16.4511 7.53695 16.2873C7.37322 16.1236 7.10471 16.1236 6.93443 16.2873Z" fill="#513F15"/>
<path d="M6.93443 4.91195C7.01957 4.99709 7.12436 5.03638 7.23569 5.03638C7.34703 5.03638 7.45181 4.99709 7.53695 4.91195C7.70068 4.74822 7.70068 4.47316 7.53695 4.30943L6.99338 3.76586C6.82965 3.60213 6.55459 3.60213 6.39086 3.76586C6.22713 3.92959 6.22713 4.20465 6.39086 4.36838L6.93443 4.91195Z" fill="#513F15"/>
</svg>
