<svg width="24" height="24" viewBox="0 0 24 24" fill="none" xmlns="http://www.w3.org/2000/svg">
<path d="M16.5 5C15.0222 5.00145 13.5972 5.55005 12.5 6.54C11.4028 5.55005 9.97782 5.00145 8.5 5C5.977 5 4 7.3 4 10.237C4 11.649 4.6 16.523 12.3 19.957C12.3642 19.9857 12.4337 20.0005 12.504 20.0005C12.5743 20.0005 12.6438 19.9857 12.708 19.957C20.408 16.523 21.008 11.649 21.008 10.237C21 7.3 19.023 5 16.5 5ZM12.5 18.951C5.545 15.772 5 11.485 5 10.237C5 7.861 6.537 6 8.5 6C9.17736 6.0034 9.84699 6.14421 10.4684 6.4139C11.0897 6.68358 11.6499 7.07655 12.115 7.569C12.1637 7.62269 12.2232 7.66559 12.2895 7.69494C12.3558 7.7243 12.4275 7.73946 12.5 7.73946C12.5725 7.73946 12.6442 7.7243 12.7105 7.69494C12.7768 7.66559 12.8363 7.62269 12.885 7.569C13.3501 7.07655 13.9103 6.68358 14.5316 6.4139C15.153 6.14421 15.8226 6.0034 16.5 6C18.463 6 20 7.861 20 10.237C20 11.485 19.455 15.772 12.5 18.951ZM19 10.237C19 10.3696 18.9473 10.4968 18.8536 10.5906C18.7598 10.6843 18.6326 10.737 18.5 10.737C18.3674 10.737 18.2402 10.6843 18.1464 10.5906C18.0527 10.4968 18 10.3696 18 10.237C18 9.161 17.427 8 16.5 8C16.3674 8 16.2402 7.94732 16.1464 7.85355C16.0527 7.75979 16 7.63261 16 7.5C16 7.36739 16.0527 7.24021 16.1464 7.14645C16.2402 7.05268 16.3674 7 16.5 7C18.064 7 19 8.646 19 10.237Z" fill="black"/>
</svg>
