<svg width="32" height="32" viewBox="0 0 32 32" fill="none" xmlns="http://www.w3.org/2000/svg">
<path d="M22.0002 6.6665C20.0297 6.66843 18.1298 7.3999 16.6668 8.71984C15.2038 7.3999 13.3039 6.66843 11.3335 6.6665C7.9695 6.6665 5.3335 9.73317 5.3335 13.6492C5.3335 15.5318 6.1335 22.0305 16.4002 26.6092C16.4857 26.6474 16.5784 26.6672 16.6722 26.6672C16.7659 26.6672 16.8586 26.6474 16.9442 26.6092C27.2108 22.0305 28.0108 15.5318 28.0108 13.6492C28.0002 9.73317 25.3642 6.6665 22.0002 6.6665ZM16.6668 25.2678C7.3935 21.0292 6.66683 15.3132 6.66683 13.6492C6.66683 10.4812 8.71616 7.99984 11.3335 7.99984C12.2366 8.00437 13.1295 8.19211 13.958 8.5517C14.7865 8.91128 15.5334 9.43523 16.1535 10.0918C16.2185 10.1634 16.2977 10.2206 16.3861 10.2598C16.4745 10.2989 16.5701 10.3191 16.6668 10.3191C16.7635 10.3191 16.8591 10.2989 16.9475 10.2598C17.0359 10.2206 17.1152 10.1634 17.1802 10.0918C17.8003 9.43523 18.5472 8.91128 19.3757 8.5517C20.2042 8.19211 21.097 8.00437 22.0002 7.99984C24.6175 7.99984 26.6668 10.4812 26.6668 13.6492C26.6668 15.3132 25.9402 21.0292 16.6668 25.2678ZM25.3335 13.6492C25.3335 13.826 25.2633 13.9956 25.1382 14.1206C25.0132 14.2456 24.8436 14.3158 24.6668 14.3158C24.49 14.3158 24.3204 14.2456 24.1954 14.1206C24.0704 13.9956 24.0002 13.826 24.0002 13.6492C24.0002 12.2145 23.2362 10.6665 22.0002 10.6665C21.8234 10.6665 21.6538 10.5963 21.5288 10.4712C21.4037 10.3462 21.3335 10.1766 21.3335 9.99984C21.3335 9.82303 21.4037 9.65346 21.5288 9.52843C21.6538 9.40341 21.8234 9.33317 22.0002 9.33317C24.0855 9.33317 25.3335 11.5278 25.3335 13.6492Z" fill="black"/>
</svg>
