<svg width="32" height="32" viewBox="0 0 32 32" fill="none" xmlns="http://www.w3.org/2000/svg">
<path d="M21.3332 6C18.6665 6 16.8398 7.29333 15.9998 8.05333C15.1598 7.29333 13.3332 6 10.6665 6C7.3065 6 4.6665 9.06667 4.6665 12.9867C4.6665 14.8667 5.4665 21.3733 15.7332 25.9467C15.9065 26.0267 16.0932 26.0267 16.2798 25.9467C26.5465 21.3733 27.3465 14.8667 27.3465 12.9867C27.3465 9.06667 24.7065 6 21.3465 6H21.3332ZM23.9998 13.6533C23.6265 13.6533 23.3332 13.36 23.3332 12.9867C23.3332 11.5467 22.5732 10 21.3332 10C20.9598 10 20.6665 9.70667 20.6665 9.33333C20.6665 8.96 20.9598 8.66667 21.3332 8.66667C23.4132 8.66667 24.6665 10.8667 24.6665 12.9867C24.6665 13.36 24.3732 13.6533 23.9998 13.6533Z" fill="black"/>
</svg>
