<svg width="16" height="16" viewBox="0 0 16 16" fill="none" xmlns="http://www.w3.org/2000/svg">
<path d="M5.32942 3.81677C5.17779 3.91814 5.03421 4.03107 4.89997 4.15454C4.33589 4.66481 3.81302 5.21886 3.33625 5.81152C2.61988 6.69393 2.17497 7.76526 2.05549 8.89555C1.93601 10.0258 2.1471 11.1665 2.66316 12.1792C4.22541 15.1536 7.49739 15.0105 7.81428 14.9893C7.85969 14.9925 7.96492 14.9988 8.1175 14.9988C9.17 14.9987 12.4608 14.7047 13.6634 11.1488C15.1007 6.89868 11.1541 4.77502 11.1141 4.75414C11.0836 4.73818 11.0502 4.72869 11.0158 4.72625C10.9815 4.72381 10.9471 4.72848 10.9146 4.73998C10.8822 4.75147 10.8525 4.76954 10.8274 4.79304C10.8023 4.81655 10.7823 4.84499 10.7686 4.87658C10.2352 6.11266 10.4613 6.93994 10.8021 7.44958C9.56306 6.95727 9.40461 5.73828 9.43855 4.97314C9.46466 4.56775 9.42576 4.1608 9.32332 3.7677C8.57307 1.08594 5.80182 1.00183 5.774 1.00122H5.76911C5.72343 1.00123 5.67862 1.01376 5.63956 1.03744C5.60049 1.06113 5.56866 1.09506 5.54753 1.13556C5.52639 1.17606 5.51675 1.22158 5.51966 1.26717C5.52257 1.31276 5.53792 1.35668 5.56404 1.39417C5.94197 1.9364 6.09138 2.4325 6.00837 2.86878C5.91637 3.26215 5.67223 3.60303 5.32942 3.81677ZM6.24812 1.56127C6.85979 1.6608 7.4298 1.93459 7.88983 2.34983C8.34987 2.76506 8.68042 3.30414 8.84187 3.90246C8.92968 4.24458 8.96248 4.59849 8.93904 4.95092C8.90852 5.6372 9.0113 7.89587 11.6151 8.1444C11.6734 8.14974 11.7318 8.13442 11.78 8.10112C11.8282 8.06781 11.8632 8.01863 11.8789 7.96216C11.8946 7.90569 11.8899 7.84551 11.8657 7.79212C11.8416 7.73873 11.7994 7.69553 11.7467 7.67004C11.6939 7.6444 10.5216 7.05016 11.1239 5.33947C11.9195 5.8457 14.3065 7.68676 13.1898 10.9886C11.8863 14.8429 8.00398 14.506 7.83992 14.4898C7.83161 14.489 7.82331 14.4885 7.81501 14.4885C7.80696 14.4885 7.79914 14.4889 7.79133 14.4896C7.6612 14.5023 4.58186 14.7564 3.10603 11.9468C2.63494 11.0199 2.44293 9.97621 2.55331 8.94235C2.66368 7.90849 3.0717 6.92887 3.72785 6.12232C4.18814 5.55049 4.69289 5.01591 5.23738 4.52357C5.35253 4.41748 5.4757 4.32044 5.60578 4.23329C5.83127 4.0909 6.02634 3.90528 6.17974 3.68714C6.33314 3.469 6.44185 3.22264 6.49958 2.96229C6.57624 2.48029 6.48761 1.98653 6.24812 1.56127Z" fill="#141005"/>
<path d="M6.28664 9.85437C6.25532 9.84458 6.22237 9.84106 6.18969 9.844C6.157 9.84695 6.12521 9.85631 6.09615 9.87155C6.06708 9.88678 6.0413 9.9076 6.02028 9.9328C5.99926 9.958 5.98341 9.9871 5.97364 10.0184C5.92538 10.1649 5.84674 10.2995 5.74285 10.4135C5.63897 10.5274 5.51219 10.6181 5.37081 10.6797C5.36622 10.6819 5.36172 10.6836 5.35725 10.6861C5.32035 10.7032 5.28416 10.7187 5.25 10.7315V9.01245C5.25 8.94615 5.22366 8.88256 5.17678 8.83567C5.12989 8.78879 5.0663 8.76245 5 8.76245C4.9337 8.76245 4.87011 8.78879 4.82322 8.83567C4.77634 8.88256 4.75 8.94615 4.75 9.01245V12.0563C4.75 12.1226 4.77634 12.1862 4.82322 12.2331C4.87011 12.2799 4.9337 12.3063 5 12.3063C5.0663 12.3063 5.12989 12.2799 5.17678 12.2331C5.22366 12.1862 5.25 12.1226 5.25 12.0563V11.2554C5.30327 11.2406 5.36302 11.2218 5.42819 11.1973C5.66649 11.4322 5.81367 11.7441 5.84352 12.0774C5.84868 12.1399 5.87714 12.1982 5.92326 12.2408C5.96939 12.2833 6.02981 12.3069 6.09255 12.307C6.09938 12.307 6.10622 12.3068 6.11305 12.3062C6.14578 12.3035 6.17768 12.2944 6.2069 12.2794C6.23613 12.2645 6.26212 12.2439 6.28338 12.2188C6.30465 12.1938 6.32077 12.1648 6.33084 12.1336C6.34091 12.1023 6.34471 12.0694 6.34205 12.0366C6.30785 11.6363 6.14685 11.2574 5.88247 10.9549C6.15299 10.7618 6.35261 10.4852 6.45069 10.1676C6.4605 10.1363 6.46404 10.1033 6.4611 10.0706C6.45817 10.0379 6.44882 10.0061 6.43358 9.97699C6.41835 9.9479 6.39753 9.9221 6.37231 9.90106C6.3471 9.88002 6.31799 9.86415 6.28664 9.85437Z" fill="#141005"/>
<path d="M7.44215 12.3071C7.63505 12.3079 7.82123 12.2363 7.9639 12.1065C8.10657 11.9767 8.19533 11.7981 8.21265 11.6059C8.21883 11.5399 8.19852 11.4741 8.1562 11.423C8.11387 11.3719 8.05298 11.3398 7.98694 11.3336C7.92089 11.3274 7.8551 11.3477 7.80402 11.39C7.75295 11.4324 7.72078 11.4933 7.7146 11.5593C7.70794 11.6293 7.67458 11.6941 7.62144 11.7402C7.5683 11.7863 7.49945 11.8101 7.42919 11.8068C7.35893 11.8035 7.29264 11.7732 7.24409 11.7223C7.19555 11.6714 7.16846 11.6038 7.16846 11.5334V10.9899C7.16845 10.9207 7.19462 10.8541 7.24169 10.8034C7.28877 10.7528 7.35328 10.7218 7.42225 10.7168C7.49122 10.7117 7.55954 10.7329 7.6135 10.7762C7.66746 10.8195 7.70306 10.8815 7.71313 10.9499C7.71779 10.9825 7.72882 11.0138 7.7456 11.042C7.76237 11.0703 7.78456 11.095 7.81088 11.1147C7.83721 11.1344 7.86716 11.1487 7.89902 11.1567C7.93088 11.1648 7.96402 11.1666 7.99655 11.1618C8.02907 11.1571 8.06035 11.146 8.08858 11.1291C8.1168 11.1123 8.14143 11.0901 8.16105 11.0637C8.18067 11.0373 8.1949 11.0073 8.20291 10.9755C8.21093 10.9436 8.21258 10.9104 8.20776 10.8779C8.1795 10.6845 8.07905 10.5089 7.92661 10.3865C7.77417 10.2641 7.58104 10.2039 7.38606 10.2181C7.19107 10.2323 7.00868 10.3198 6.87556 10.4629C6.74243 10.6061 6.66844 10.7944 6.66846 10.9899V11.5334C6.6687 11.7385 6.7503 11.9352 6.89534 12.0802C7.04038 12.2253 7.23703 12.3069 7.44215 12.3071Z" fill="#141005"/>
<path d="M9.16382 10.9377C8.98215 10.9378 8.80784 11.0095 8.67871 11.1373C8.58243 11.233 8.51679 11.3552 8.49013 11.4883C8.46347 11.6215 8.47701 11.7595 8.52901 11.8849C8.58102 12.0103 8.66914 12.1174 8.78218 12.1926C8.89522 12.2678 9.02806 12.3076 9.16382 12.3071H9.39014C9.57165 12.3069 9.74566 12.2347 9.874 12.1063C10.0023 11.978 10.0745 11.8039 10.0747 11.6224V10.7064C10.0746 10.5766 10.023 10.4522 9.93123 10.3604C9.83946 10.2686 9.71501 10.2169 9.58521 10.2168H8.72681C8.6605 10.2168 8.59692 10.2431 8.55003 10.29C8.50315 10.3369 8.47681 10.4005 8.47681 10.4668C8.47681 10.5331 8.50315 10.5967 8.55003 10.6436C8.59692 10.6905 8.6605 10.7168 8.72681 10.7168L9.57471 10.7064V10.9377H9.16382ZM9.57471 11.6224C9.57467 11.6714 9.55521 11.7183 9.52061 11.7529C9.48601 11.7876 9.43909 11.8071 9.39014 11.8071H9.16382C9.13934 11.8076 9.11502 11.8031 9.0923 11.794C9.06957 11.7849 9.04889 11.7713 9.03147 11.7541C9.01405 11.7369 9.00025 11.7164 8.99086 11.6938C8.98148 11.6712 8.9767 11.6469 8.97682 11.6224C8.97689 11.598 8.98179 11.5738 8.99125 11.5513C9.0007 11.5288 9.01451 11.5084 9.03189 11.4912C9.04927 11.474 9.06988 11.4605 9.09252 11.4513C9.11516 11.4421 9.13939 11.4375 9.16382 11.4377H9.57471V11.6224Z" fill="#141005"/>
<path d="M11.165 12.307H11.5554C11.6217 12.307 11.6853 12.2807 11.7322 12.2338C11.7791 12.1869 11.8054 12.1233 11.8054 12.057C11.8054 11.9907 11.7791 11.9271 11.7322 11.8802C11.6853 11.8333 11.6217 11.807 11.5554 11.807H11.165C11.099 11.8069 11.0357 11.7807 10.9891 11.734C10.9424 11.6873 10.9161 11.624 10.916 11.558V9.07251C10.916 9.00621 10.8897 8.94262 10.8428 8.89573C10.7959 8.84885 10.7323 8.82251 10.666 8.82251C10.5997 8.82251 10.5361 8.84885 10.4892 8.89573C10.4424 8.94262 10.416 9.00621 10.416 9.07251V11.558C10.4162 11.7566 10.4952 11.947 10.6356 12.0874C10.7761 12.2278 10.9665 12.3068 11.165 12.307Z" fill="#141005"/>
</svg>
