<svg width="16" height="16" viewBox="0 0 16 16" fill="none" xmlns="http://www.w3.org/2000/svg">
<path d="M0.25 13.6251H15.75C15.8163 13.6251 15.8799 13.5987 15.9268 13.5519C15.9737 13.505 16 13.4414 16 13.3751C16 13.3088 15.9737 13.2452 15.9268 13.1983C15.8799 13.1514 15.8163 13.1251 15.75 13.1251H14.125V11.8751C14.1249 11.7425 14.0721 11.6154 13.9784 11.5217C13.8847 11.4279 13.7576 11.3752 13.625 11.3751H13.5V7.21394C14.0489 7.00887 14.5083 6.61752 14.798 6.10823C15.0877 5.59895 15.1893 5.00407 15.0852 4.42748C14.981 3.85089 14.6775 3.32922 14.2279 2.95355C13.7782 2.57787 13.2109 2.37207 12.625 2.37207C12.0391 2.37207 11.4718 2.57787 11.0221 2.95355C10.5725 3.32922 10.269 3.85089 10.1648 4.42748C10.0607 5.00407 10.1623 5.59895 10.452 6.10823C10.7417 6.61752 11.2011 7.00887 11.75 7.21394V11.3751H10.625V10.8751C10.6249 10.7425 10.5721 10.6154 10.4784 10.5217C10.3847 10.4279 10.2576 10.3752 10.125 10.3751H8.4789C8.9443 10.0827 9.32794 9.6771 9.59396 9.19616C9.85998 8.71523 9.99968 8.17468 10 7.62508C10 7.55877 9.97366 7.49519 9.92677 7.4483C9.87989 7.40142 9.8163 7.37508 9.75 7.37508H3.75C3.6837 7.37508 3.62011 7.40142 3.57323 7.4483C3.52634 7.49519 3.5 7.55877 3.5 7.62508C3.50032 8.17468 3.64002 8.71523 3.90604 9.19616C4.17206 9.6771 4.5557 10.0827 5.02109 10.3751H3.375C3.24244 10.3752 3.11534 10.4279 3.0216 10.5217C2.92787 10.6154 2.87514 10.7425 2.875 10.8751V11.3751H2.375C2.24244 11.3752 2.11534 11.4279 2.0216 11.5217C1.92787 11.6154 1.87514 11.7425 1.875 11.8751V13.1251H0.25C0.183696 13.1251 0.120107 13.1514 0.0732233 13.1983C0.0263392 13.2452 0 13.3088 0 13.3751C0 13.4414 0.0263392 13.505 0.0732233 13.5519C0.120107 13.5987 0.183696 13.6251 0.25 13.6251ZM10.625 4.87508C10.625 4.47951 10.7423 4.09283 10.9621 3.76394C11.1818 3.43504 11.4942 3.17869 11.8596 3.02732C12.2251 2.87594 12.6272 2.83634 13.0152 2.91351C13.4031 2.99068 13.7595 3.18116 14.0392 3.46086C14.3189 3.74057 14.5094 4.09693 14.5866 4.4849C14.6637 4.87286 14.6241 5.27499 14.4728 5.64044C14.3214 6.0059 14.065 6.31825 13.7361 6.53802C13.4072 6.75778 13.0206 6.87508 12.625 6.87508C12.0948 6.87447 11.5864 6.66356 11.2115 6.28862C10.8365 5.91368 10.6256 5.40532 10.625 4.87508ZM13 7.34382V11.3751H12.25V7.34382C12.4983 7.3855 12.7517 7.3855 13 7.34382ZM4.01123 7.87508H9.48877C9.42636 8.55832 9.11083 9.19355 8.60411 9.6561C8.09739 10.1186 7.43608 10.3751 6.75 10.3751C6.06392 10.3751 5.40261 10.1186 4.89589 9.6561C4.38917 9.19355 4.07364 8.55832 4.01123 7.87508ZM3.375 10.8751H10.125V11.3751H3.375V10.8751ZM2.375 11.8751H13.625V13.1251H2.375V11.8751Z" fill="#141005"/>
<path d="M12.3937 3.47145C12.3999 3.48649 12.4079 3.50075 12.4175 3.51393C12.4262 3.52778 12.4367 3.54039 12.4487 3.55141C12.4718 3.57478 12.4992 3.59334 12.5295 3.606C12.5597 3.61867 12.5922 3.6252 12.625 3.6252C12.6578 3.6252 12.6903 3.61867 12.7205 3.606C12.7508 3.59334 12.7782 3.57478 12.8013 3.55141C12.8133 3.54039 12.8238 3.52778 12.8325 3.51393C12.8416 3.50046 12.8495 3.48625 12.8562 3.47145C12.8751 3.42555 12.8799 3.37507 12.87 3.32643C12.8671 3.31016 12.8625 3.29424 12.8562 3.27895C12.8495 3.26413 12.8416 3.2499 12.8325 3.2364C12.8047 3.19539 12.7656 3.16328 12.72 3.14394C12.7052 3.13747 12.6896 3.13286 12.6737 3.1302C12.6415 3.12392 12.6084 3.12392 12.5762 3.1302C12.5599 3.13302 12.544 3.13763 12.5287 3.14394C12.5136 3.15012 12.4994 3.15809 12.4862 3.16768C12.4723 3.17633 12.4597 3.18684 12.4487 3.19893C12.4367 3.20995 12.4262 3.22256 12.4175 3.2364C12.4079 3.24961 12.3999 3.26389 12.3937 3.27894C12.3874 3.29422 12.3828 3.31015 12.38 3.32643C12.3733 3.35858 12.3733 3.39175 12.38 3.4239C12.3826 3.44025 12.3872 3.45621 12.3937 3.47145Z" fill="#141005"/>
<path d="M12.8013 6.55141C12.8133 6.54039 12.8238 6.52778 12.8325 6.51393C12.8416 6.50046 12.8495 6.48625 12.8562 6.47145C12.8751 6.42555 12.8799 6.37507 12.87 6.32643C12.8671 6.31016 12.8625 6.29424 12.8562 6.27895C12.8495 6.26413 12.8416 6.2499 12.8325 6.2364C12.8047 6.19539 12.7656 6.16328 12.72 6.14394C12.7052 6.13747 12.6896 6.13286 12.6737 6.1302C12.6415 6.12392 12.6084 6.12392 12.5762 6.1302C12.5599 6.13302 12.544 6.13763 12.5287 6.14394C12.5136 6.15012 12.4994 6.15809 12.4862 6.16768C12.4723 6.17633 12.4597 6.18684 12.4487 6.19893C12.4367 6.20995 12.4262 6.22255 12.4175 6.2364C12.4079 6.24961 12.3999 6.26389 12.3937 6.27894C12.3874 6.29422 12.3828 6.31015 12.38 6.32643C12.3733 6.35858 12.3733 6.39175 12.38 6.4239C12.3826 6.44025 12.3872 6.45621 12.3937 6.47145C12.3999 6.48649 12.4079 6.50074 12.4175 6.51393C12.4262 6.52778 12.4367 6.54038 12.4487 6.5514C12.4718 6.57478 12.4992 6.59334 12.5295 6.606C12.5597 6.61867 12.5922 6.6252 12.625 6.6252C12.6578 6.6252 12.6903 6.61867 12.7205 6.606C12.7508 6.59334 12.7782 6.57478 12.8013 6.55141Z" fill="#141005"/>
<path d="M13.9487 5.05121C13.9718 5.07454 13.9993 5.09307 14.0296 5.10575C14.0599 5.11843 14.0924 5.125 14.1252 5.12508C14.1581 5.12516 14.1906 5.11875 14.2209 5.10623C14.2513 5.0937 14.2789 5.0753 14.3021 5.05209C14.3253 5.02887 14.3437 5.0013 14.3562 4.97095C14.3688 4.9406 14.3752 4.90807 14.3751 4.87524C14.375 4.8424 14.3685 4.80991 14.3558 4.77962C14.3431 4.74933 14.3246 4.72184 14.3013 4.69873C14.2537 4.65359 14.1906 4.62842 14.125 4.62842C14.0594 4.62842 13.9963 4.65359 13.9487 4.69873C13.9254 4.72176 13.9068 4.74919 13.8942 4.77945C13.8815 4.8097 13.875 4.84217 13.875 4.87497C13.875 4.90776 13.8815 4.94023 13.8942 4.97049C13.9068 5.00074 13.9254 5.02818 13.9487 5.05121Z" fill="#141005"/>
<path d="M11.3013 4.69893C11.2902 4.68684 11.2776 4.67633 11.2637 4.66768C11.2502 4.65854 11.236 4.6506 11.2212 4.64394C11.2057 4.63818 11.1899 4.63359 11.1737 4.6302C11.1415 4.62392 11.1084 4.62392 11.0762 4.6302C11.06 4.63359 11.0441 4.63818 11.0287 4.64394C11.0139 4.65062 10.9997 4.65857 10.9862 4.66768C10.9723 4.67633 10.9597 4.68684 10.9487 4.69893C10.9254 4.72195 10.9068 4.74939 10.8942 4.77965C10.8815 4.8099 10.875 4.84237 10.875 4.87517C10.875 4.90796 10.8815 4.94043 10.8942 4.97069C10.9068 5.00094 10.9254 5.02838 10.9487 5.05141C10.9597 5.06349 10.9723 5.074 10.9862 5.08266C10.9994 5.09224 11.0136 5.10021 11.0287 5.1064C11.0439 5.11289 11.0598 5.11752 11.0762 5.12019C11.1083 5.12687 11.1415 5.12687 11.1737 5.12019C11.19 5.11735 11.2059 5.11273 11.2212 5.1064C11.2363 5.10024 11.2505 5.09227 11.2637 5.08266C11.2776 5.07401 11.2902 5.06349 11.3013 5.05141C11.3246 5.02838 11.3432 5.00094 11.3558 4.97069C11.3685 4.94043 11.375 4.90796 11.375 4.87517C11.375 4.84237 11.3685 4.8099 11.3558 4.77965C11.3432 4.74939 11.3246 4.72195 11.3013 4.69893Z" fill="#141005"/>
<path d="M13.4548 3.90974C13.4611 3.92493 13.4686 3.93957 13.4773 3.9535C13.4867 3.96679 13.4972 3.97932 13.5085 3.99098C13.5559 4.03754 13.6197 4.06359 13.6862 4.06349C13.7025 4.06349 13.7188 4.06225 13.7349 4.05976C13.7506 4.05587 13.7661 4.05085 13.7811 4.04475C13.8118 4.033 13.8395 4.01464 13.8623 3.99098C13.8737 3.97935 13.8842 3.96682 13.8936 3.9535C13.9023 3.9396 13.9099 3.92495 13.9161 3.90974C13.9222 3.89469 13.9273 3.87923 13.9312 3.86347C13.9341 3.84696 13.9358 3.83025 13.9362 3.81349C13.9355 3.74734 13.909 3.68407 13.8623 3.63722C13.8143 3.59235 13.7511 3.56738 13.6854 3.56738C13.6197 3.56738 13.5565 3.59235 13.5085 3.63722C13.4619 3.68412 13.4355 3.74737 13.4348 3.81349C13.4352 3.83025 13.4369 3.84696 13.4398 3.86347C13.4437 3.87923 13.4487 3.8947 13.4548 3.90974Z" fill="#141005"/>
<path d="M11.3874 5.75885C11.3642 5.78207 11.3457 5.80965 11.3331 5.84001C11.3205 5.87037 11.314 5.90291 11.314 5.93579C11.3139 5.96866 11.3204 6.00121 11.333 6.03159C11.3456 6.06196 11.364 6.08956 11.3872 6.11281C11.4105 6.13605 11.4381 6.15449 11.4684 6.16706C11.4988 6.17963 11.5314 6.18609 11.5643 6.18607C11.5971 6.18605 11.6297 6.17956 11.66 6.16695C11.6904 6.15435 11.718 6.13588 11.7412 6.11261C11.7526 6.10094 11.763 6.08839 11.7724 6.07507C11.7812 6.06118 11.7887 6.04656 11.7949 6.03137C11.8011 6.01637 11.8061 6.0009 11.8099 5.98511C11.8128 5.969 11.8145 5.9527 11.8149 5.93634C11.8146 5.8698 11.7881 5.80606 11.7412 5.75885C11.6931 5.71424 11.6299 5.68945 11.5643 5.68945C11.4987 5.68945 11.4355 5.71424 11.3874 5.75885Z" fill="#141005"/>
<path d="M13.6862 6.18634C13.7358 6.18633 13.7842 6.17161 13.8253 6.14405C13.8665 6.11649 13.8985 6.07734 13.9174 6.03155C13.9362 5.98576 13.9411 5.93539 13.9313 5.88685C13.9215 5.8383 13.8975 5.79375 13.8624 5.75885C13.8143 5.71424 13.7511 5.68945 13.6855 5.68945C13.6199 5.68945 13.5567 5.71424 13.5086 5.75885C13.4737 5.79394 13.4499 5.8386 13.4403 5.8872C13.4307 5.93579 13.4357 5.98614 13.4547 6.03188C13.4737 6.07763 13.5059 6.11671 13.5471 6.1442C13.5883 6.17169 13.6367 6.18636 13.6862 6.18634Z" fill="#141005"/>
<path d="M11.3875 3.63722C11.3405 3.68445 11.3141 3.74821 11.3137 3.81477C11.3142 3.83111 11.3158 3.84739 11.3187 3.86348C11.3226 3.87924 11.3276 3.8947 11.3337 3.90974C11.3397 3.92465 11.3472 3.93888 11.3562 3.95222C11.3652 3.9662 11.3757 3.9792 11.3874 3.99098C11.4106 4.01436 11.4381 4.03292 11.4685 4.04558C11.4989 4.05825 11.5314 4.06477 11.5643 4.06477C11.5972 4.06477 11.6298 4.05825 11.6602 4.04558C11.6905 4.03292 11.7181 4.01436 11.7412 3.99098C11.7526 3.97888 11.7631 3.96592 11.7725 3.95222C11.7815 3.93891 11.789 3.92467 11.7949 3.90974C11.8011 3.89474 11.8062 3.87927 11.8099 3.86348C11.8129 3.84739 11.8145 3.83111 11.8149 3.81477C11.8146 3.74821 11.7881 3.68445 11.7412 3.63722C11.6931 3.59264 11.6299 3.56787 11.5643 3.56787C11.4987 3.56787 11.4356 3.59264 11.3875 3.63722Z" fill="#141005"/>
<path d="M12.625 5.125C12.6913 5.125 12.7549 5.09866 12.8018 5.05177C12.8487 5.00489 12.875 4.9413 12.875 4.875V4.3125C12.875 4.2462 12.8487 4.18261 12.8018 4.13572C12.7549 4.08884 12.6913 4.0625 12.625 4.0625C12.5587 4.0625 12.4951 4.08884 12.4482 4.13572C12.4013 4.18261 12.375 4.2462 12.375 4.3125V4.875C12.375 4.9413 12.4013 5.00489 12.4482 5.05177C12.4951 5.09866 12.5587 5.125 12.625 5.125Z" fill="#141005"/>
<path d="M6.99994 9.62504C6.99994 9.55873 6.9736 9.49515 6.92671 9.44826C6.87983 9.40138 6.81624 9.37504 6.74994 9.37504C6.44292 9.37416 6.14149 9.29288 5.87565 9.1393C5.6098 8.98572 5.38881 8.7652 5.23468 8.49967C5.21826 8.47118 5.19638 8.44621 5.1703 8.42619C5.14421 8.40617 5.11444 8.39149 5.08267 8.383C5.0509 8.3745 5.01778 8.37236 4.98518 8.37669C4.95258 8.38101 4.92116 8.39173 4.89271 8.40822C4.86426 8.4247 4.83935 8.44664 4.81939 8.47277C4.79943 8.49891 4.78482 8.52872 4.7764 8.5605C4.76798 8.59229 4.76592 8.62542 4.77032 8.65801C4.77472 8.69059 4.78551 8.72199 4.80207 8.7504C5.00026 9.09164 5.28437 9.37501 5.62612 9.57233C5.96786 9.76964 6.35533 9.874 6.74994 9.87504C6.81624 9.87503 6.87983 9.84869 6.92671 9.80181C6.9736 9.75492 6.99994 9.69134 6.99994 9.62504Z" fill="#141005"/>
</svg>
