<svg width="40" height="40" viewBox="0 0 40 40" fill="none" xmlns="http://www.w3.org/2000/svg">
<g clip-path="url(#clip0_1009_3021)">
<path d="M20.0381 21.5835C16.3476 21.5835 13.345 24.5861 13.345 28.2766C13.345 31.9671 16.3476 34.9697 20.0381 34.9697C23.7289 34.9697 26.7312 31.9671 26.7312 28.2766C26.7312 24.5861 23.7289 21.5835 20.0381 21.5835ZM20.0381 33.7978C16.9937 33.7978 14.5168 31.321 14.5168 28.2766C14.5168 25.2322 16.9937 22.7554 20.0381 22.7554C23.0828 22.7554 25.5596 25.2322 25.5596 28.2766C25.5596 31.321 23.0828 33.7978 20.0381 33.7978Z" fill="#141005"/>
<path d="M34.0594 13.1066H34.0136L35.3509 6.63449C35.4495 6.15781 35.3518 5.66739 35.083 5.28928C34.8312 4.93467 34.4564 4.70823 34.0283 4.65146L31.7718 4.3527C31.6021 4.33012 31.4331 4.33683 31.2695 4.36765L31.2893 4.1995C31.3467 3.71153 31.2063 3.22477 30.9039 2.86466C30.6207 2.52714 30.2252 2.32756 29.79 2.30284L28.1192 2.20732C28.1741 1.73277 28.0465 1.25548 27.7645 0.890487C27.4932 0.539536 27.1066 0.319505 26.676 0.271287L24.3478 0.010057C23.9175 -0.0384659 23.49 0.0897078 23.1439 0.370469C22.771 0.672897 22.5299 1.12944 22.482 1.62291L22.2702 3.81834C22.214 3.73502 22.1508 3.65659 22.0803 3.58457C21.7709 3.26811 21.362 3.09385 20.9286 3.09385H18.6175C18.3102 3.09385 18.0163 3.18296 17.7606 3.34684L17.5943 1.62291C17.5467 1.12944 17.3053 0.672897 16.9323 0.370469C16.5866 0.0897078 16.1593 -0.0381606 15.7284 0.010057L13.4002 0.271287C12.9696 0.319505 12.583 0.539536 12.3117 0.890487C12.0297 1.25548 11.9021 1.73277 11.9571 2.20732L10.2862 2.30284C9.85134 2.32756 9.45553 2.52714 9.17232 2.86466C8.86989 3.22477 8.72951 3.71153 8.78689 4.1995L8.80672 4.36796C8.64315 4.33713 8.47439 4.33012 8.3044 4.3527L6.04793 4.65146C5.61977 4.70823 5.24532 4.93467 4.99325 5.28928C4.72439 5.66739 4.62673 6.15781 4.7253 6.63449L6.06258 13.1066H6.01681C5.62404 13.1066 5.25356 13.2788 5.00026 13.5794C4.74697 13.88 4.64016 14.2745 4.70699 14.6615L8.88485 38.8967C8.99532 39.536 9.54616 39.9999 10.195 39.9999H29.8816C30.5304 39.9999 31.0812 39.536 31.1914 38.8967L35.3695 14.6615C35.4364 14.2745 35.3292 13.88 35.0763 13.5794C34.823 13.2788 34.4525 13.1066 34.0594 13.1066ZM31.0986 5.82303C31.21 5.61551 31.4193 5.48734 31.6183 5.5145L33.8748 5.81296C34.0054 5.83036 34.0844 5.90665 34.1278 5.96799C34.2086 6.08182 34.2364 6.23837 34.2035 6.39737L32.8173 13.1063H31.9607L32.5311 8.60135C32.5888 8.14755 32.4588 7.69253 32.1746 7.35318C31.8982 7.02237 31.5069 6.82797 31.0736 6.8057L30.9832 6.80112L31.0986 5.82303ZM30.2993 7.93942L31.0138 7.97604C31.1471 7.98306 31.2301 8.0502 31.2762 8.10513C31.3528 8.19668 31.3855 8.32058 31.3687 8.45395L30.7794 13.1066H28.042L28.3587 11.2567C28.4243 10.8737 28.3474 10.4898 28.1454 10.1626L28.2849 8.35629C28.2983 8.18081 28.395 8.0264 28.529 7.93851C28.6093 7.88601 28.703 7.85733 28.8 7.86282L30.2984 7.93942H30.2993ZM27.3901 3.34074C27.3977 3.34104 27.4054 3.34043 27.4133 3.34104H27.4136L29.7235 3.47257C29.8632 3.48081 29.9548 3.55619 30.0067 3.61784C30.1022 3.73197 30.1455 3.89402 30.1257 4.06248L29.9459 5.59262C29.9459 5.59262 29.9456 5.59293 29.9456 5.59323L29.8108 6.741L28.8598 6.69248C27.9681 6.6467 27.1868 7.35257 27.1164 8.26596L27.0266 9.42654L26.4785 9.34017L26.8545 3.91996C26.8765 3.59831 27.1206 3.3386 27.3901 3.34074ZM27.2036 11.0589L26.8429 13.1662C26.4608 13.2846 26.1477 13.572 25.9973 13.9639C25.5395 15.1559 24.7424 16.1746 23.692 16.91C23.5794 16.9888 23.4646 17.0626 23.348 17.1334L24.2901 10.5996C24.3057 10.4907 24.3631 10.3949 24.4516 10.3299C24.5401 10.2642 24.6484 10.238 24.757 10.2551L25.7565 10.4126C25.7568 10.4126 25.7574 10.4126 25.758 10.4129L26.8652 10.5874C26.9738 10.6045 27.0691 10.6631 27.1331 10.7525C27.1972 10.8419 27.2222 10.9506 27.2036 11.0589ZM22.3407 15.2917L23.6483 1.73552C23.6663 1.55241 23.7512 1.3867 23.8821 1.2805C23.9529 1.22313 24.0692 1.15782 24.2172 1.17461L26.5457 1.43553C26.69 1.4517 26.784 1.53776 26.8371 1.60673C26.9369 1.73582 26.9793 1.91313 26.9531 2.09318L26.9326 2.23417C26.9229 2.23722 26.9134 2.24089 26.9036 2.24394C26.8914 2.24791 26.8792 2.25218 26.8673 2.25645C26.8307 2.26896 26.7944 2.2827 26.759 2.29795C26.7498 2.30162 26.7407 2.30558 26.7315 2.30986C26.6623 2.34068 26.5954 2.37608 26.531 2.41606C26.5252 2.41941 26.5197 2.42308 26.5139 2.42674C26.474 2.45237 26.4346 2.47953 26.3967 2.50853C26.3934 2.51097 26.39 2.5131 26.3867 2.51585C26.3662 2.53141 26.3464 2.54759 26.3269 2.56407C26.3226 2.56773 26.3183 2.57139 26.314 2.57505C26.2805 2.60404 26.2481 2.63395 26.2167 2.66539C26.2088 2.67332 26.2011 2.68095 26.1932 2.68919C26.1773 2.70567 26.1612 2.72245 26.1459 2.73985C26.1291 2.75877 26.1126 2.77799 26.0968 2.79753C26.0818 2.81584 26.0675 2.83415 26.0531 2.85276C26.0424 2.86711 26.0321 2.88175 26.0214 2.8964C26.008 2.91532 25.9945 2.93485 25.9814 2.95469C25.9668 2.97727 25.9524 3.00016 25.9387 3.02336C25.9301 3.0377 25.9219 3.05204 25.914 3.06669C25.8993 3.09294 25.8853 3.11949 25.8718 3.14665C25.8657 3.15946 25.8593 3.17259 25.8535 3.18571C25.8407 3.21317 25.8285 3.24125 25.8169 3.26963C25.8123 3.28123 25.8078 3.29252 25.8032 3.30412C25.7898 3.33952 25.7772 3.37553 25.7656 3.41184C25.7629 3.42069 25.7605 3.42985 25.758 3.439C25.7479 3.47227 25.7391 3.50614 25.7309 3.54063C25.7293 3.54795 25.7272 3.55528 25.7257 3.56291C25.7168 3.60258 25.7095 3.64286 25.7031 3.68345C25.7019 3.6926 25.7003 3.70206 25.6991 3.71122C25.6933 3.75333 25.6884 3.79606 25.6854 3.83909L25.3167 9.15707L24.9392 9.09787C24.5187 9.03103 24.0982 9.13418 23.7558 9.38687C23.413 9.63986 23.1909 10.0113 23.1301 10.4327L22.3242 16.0244L22.3407 15.2917ZM18.305 4.40336C18.366 4.34049 18.4698 4.26572 18.6175 4.26572H20.9286C21.0763 4.26572 21.1807 4.3408 21.2423 4.40397C21.3504 4.51444 21.4102 4.67374 21.4065 4.84098L21.1758 14.9758L20.9472 10.5978C20.9234 10.1413 20.7324 9.71798 20.4095 9.40579C20.0747 9.0823 19.6423 8.9172 19.19 8.94131L18.2492 8.99105L18.2293 8.22201L18.143 4.83945C18.1387 4.67222 18.1979 4.51322 18.305 4.40336ZM19.252 10.1114C19.4174 10.1037 19.5382 10.1934 19.595 10.2484C19.7042 10.3537 19.7689 10.4995 19.7772 10.6588L20.1632 18.0569C20.1217 18.0575 20.0799 18.059 20.0381 18.059C19.0493 18.059 18.0902 17.8347 17.2189 17.4044L16.5533 10.8001C16.5371 10.6408 16.5817 10.4867 16.6754 10.3775C16.7288 10.3155 16.8219 10.2398 16.9635 10.2322L19.252 10.1114ZM13.2391 1.60673C13.2925 1.53746 13.3865 1.4517 13.5308 1.43553L15.859 1.17461C16.0077 1.15782 16.1233 1.22313 16.1944 1.2805C16.325 1.3867 16.4102 1.55241 16.4279 1.73552L17.0584 8.27237L17.0785 9.053L16.9015 9.06216C16.4679 9.08535 16.0717 9.28158 15.7858 9.61483C15.4846 9.96639 15.3393 10.4409 15.3872 10.9176L15.7095 14.1146L14.9826 12.3727L14.3908 3.83909C14.3878 3.79606 14.3829 3.75364 14.3771 3.71153C14.3759 3.70206 14.3743 3.69291 14.3731 3.68345C14.3667 3.64286 14.3594 3.60258 14.3505 3.5626C14.349 3.55589 14.3472 3.54887 14.3457 3.54215C14.3374 3.50675 14.3283 3.47227 14.3182 3.43778C14.3158 3.42985 14.3133 3.4213 14.3109 3.41337C14.2993 3.37583 14.2865 3.33921 14.2724 3.3029C14.2688 3.29313 14.2648 3.28336 14.2608 3.2736C14.248 3.24156 14.2343 3.21012 14.2199 3.1793C14.2172 3.1732 14.2147 3.16709 14.2117 3.1616C14.1955 3.12742 14.1778 3.09446 14.1595 3.06211C14.1537 3.05143 14.1476 3.04075 14.1415 3.03007C14.1229 2.99864 14.1037 2.96751 14.0835 2.9376C14.078 2.92936 14.0722 2.92143 14.0664 2.91319C14.0496 2.88877 14.0322 2.86497 14.0142 2.84178C14.0069 2.83201 13.9993 2.82225 13.992 2.81278C13.9697 2.78501 13.9468 2.75816 13.923 2.73191C13.9151 2.72306 13.9068 2.71452 13.8986 2.70567C13.8778 2.6837 13.8571 2.66264 13.8354 2.64219C13.829 2.63578 13.8226 2.62937 13.8159 2.62297C13.7893 2.59825 13.7622 2.57475 13.7341 2.55155C13.7255 2.54454 13.717 2.53782 13.7082 2.5308C13.6792 2.50761 13.6493 2.48533 13.619 2.46397C13.6151 2.46153 13.6111 2.45909 13.6074 2.45665C13.5778 2.4365 13.5476 2.41728 13.5168 2.39927C13.5104 2.39531 13.504 2.39164 13.4976 2.38798C13.4637 2.36814 13.4289 2.34983 13.3935 2.33274C13.3895 2.33061 13.3853 2.32878 13.3813 2.32695C13.3444 2.30955 13.3071 2.29307 13.269 2.27842C13.269 2.27812 13.2687 2.27812 13.2684 2.27812C13.229 2.26286 13.1887 2.24913 13.1478 2.23692C13.1463 2.23661 13.1451 2.236 13.1439 2.23539L13.1231 2.09318C13.0972 1.91313 13.1393 1.73582 13.2391 1.60673ZM10.0698 3.61784C10.1217 3.55619 10.213 3.48051 10.353 3.47288L12.6641 3.34074H12.6657C12.6684 3.34074 12.6715 3.34104 12.6742 3.34074C12.9489 3.3325 13.1994 3.59342 13.222 3.91996L13.5742 8.99746L13.2833 8.30044C13.1073 7.879 12.785 7.54452 12.3754 7.35928C12.3248 7.33609 12.2732 7.31625 12.2213 7.29825C12.2183 7.29733 12.2152 7.29611 12.2122 7.29489C12.1621 7.27811 12.1121 7.26437 12.0614 7.25217C12.0565 7.25125 12.0514 7.24972 12.0465 7.2485C11.997 7.23721 11.9476 7.22897 11.8978 7.22226C11.8917 7.22134 11.8853 7.22043 11.8792 7.21982C11.8304 7.21402 11.7813 7.21036 11.7324 7.20914C11.7254 7.20914 11.7187 7.20883 11.712 7.20853C11.7038 7.20853 11.6955 7.20792 11.6876 7.20792C11.6616 7.20792 11.636 7.21036 11.6101 7.21158C11.5881 7.2128 11.5658 7.2131 11.5438 7.21493C11.5109 7.21799 11.4782 7.22348 11.4453 7.22836C11.4248 7.23172 11.4041 7.23355 11.3836 7.23752C11.3479 7.24484 11.3125 7.2543 11.2768 7.26376C11.26 7.26834 11.2429 7.2717 11.2259 7.27658C11.1737 7.29245 11.1221 7.31076 11.0711 7.33212L10.3698 7.6254L10.2639 6.72604L9.95052 4.06278C9.93099 3.89402 9.97432 3.73197 10.0698 3.61784ZM9.40883 9.29714L9.75582 9.15188L10.1046 9.00631H10.1049L11.5234 8.41305C11.6766 8.34927 11.8203 8.39413 11.8924 8.42648C12.0306 8.48935 12.1405 8.6047 12.2021 8.7518L15.1199 15.7437C14.6814 15.2139 14.3295 14.6151 14.0795 13.9639C13.8797 13.4429 13.392 13.1063 12.8372 13.1063H10.7043L9.21383 9.96975C9.14516 9.8251 9.13509 9.66518 9.18667 9.5306C9.19735 9.50192 9.21322 9.46957 9.23519 9.43752C9.27211 9.38412 9.32705 9.33132 9.40883 9.29714ZM5.87307 6.39737C5.84011 6.23837 5.86757 6.08182 5.94845 5.96799C5.99209 5.90695 6.07113 5.83036 6.20174 5.81327L8.45821 5.5145C8.65658 5.48856 8.86623 5.61582 8.97793 5.82334L9.10183 6.87528L9.24526 8.09536L8.95687 8.21621C8.55617 8.38376 8.24917 8.70175 8.09231 9.1119C7.92659 9.54434 7.94979 10.0402 8.15548 10.4727L9.407 13.1066H7.25918L5.87307 6.39737ZM34.2147 14.4625L32.3642 25.1974H28.5321C28.2086 25.1974 27.9461 25.4595 27.9461 25.7833C27.9461 26.1068 28.2086 26.3692 28.5321 26.3692H32.1621L31.5527 29.9038H28.6093C28.2855 29.9038 28.0233 30.1659 28.0233 30.4897C28.0233 30.8135 28.2855 31.0757 28.6093 31.0757H31.3507L30.0369 38.6974C30.0238 38.7731 29.9585 38.828 29.8816 38.828H10.195C10.1181 38.828 10.0528 38.7731 10.0396 38.6974L8.72585 31.0757H11.4672C11.7907 31.0757 12.0532 30.8135 12.0532 30.4897C12.0532 30.1659 11.7907 29.9038 11.4672 29.9038H8.52382L7.91439 26.3692H11.5625C11.8859 26.3692 12.1484 26.1068 12.1484 25.7833C12.1484 25.4595 11.8859 25.1974 11.5625 25.1974H7.71236L5.86178 14.4625C5.8514 14.4027 5.8749 14.36 5.89657 14.3344C5.91793 14.3087 5.95638 14.2782 6.01711 14.2782H12.8372C12.9028 14.2782 12.9608 14.3197 12.9855 14.3838C13.5272 15.7946 14.4702 17.0001 15.7129 17.8698C16.9845 18.7603 18.4805 19.2309 20.0384 19.2309C20.1184 19.2309 20.1992 19.2291 20.281 19.2263C20.3192 19.2251 20.3576 19.2236 20.3961 19.2217C20.4296 19.2199 20.4635 19.2181 20.4974 19.2159C20.8538 19.1946 21.2057 19.1488 21.5518 19.0783C21.553 19.078 21.5539 19.078 21.5548 19.0777C22.5592 18.8732 23.5119 18.4661 24.3637 17.8698C25.6063 17.0001 26.5493 15.7946 27.091 14.3838C27.1157 14.3197 27.174 14.2782 27.2393 14.2782H34.0597C34.1201 14.2782 34.1586 14.3087 34.18 14.3341C34.2016 14.36 34.2248 14.4027 34.2147 14.4625Z" fill="#141005"/>
</g>
<defs>
<clipPath id="clip0_1009_3021">
<rect width="40" height="40" fill="white"/>
</clipPath>
</defs>
</svg>
