<svg width="20" height="20" viewBox="0 0 20 20" fill="none" xmlns="http://www.w3.org/2000/svg">
<path d="M9.0412 15.3858H1.67076C1.30088 15.3858 1 15.085 1 14.7151V5.28493C1 4.91505 1.30088 4.61417 1.67076 4.61417H9.0412C9.41108 4.61417 9.712 4.91505 9.712 5.28493V14.7151C9.712 15.085 9.41108 15.3858 9.0412 15.3858ZM1.67076 5.06133C1.54752 5.06133 1.44716 5.16169 1.44716 5.28493V14.7151C1.44716 14.8383 1.54752 14.9386 1.67076 14.9386H9.0412C9.16448 14.9386 9.2648 14.8383 9.2648 14.7151V5.28493C9.2648 5.16169 9.16448 5.06133 9.0412 5.06133H1.67076Z" fill="#141005"/>
<path d="M18.3293 15.3858H10.9589C10.589 15.3858 10.2881 15.085 10.2881 14.7151V5.28493C10.2881 4.91505 10.589 4.61417 10.9589 4.61417H18.3293C18.6992 4.61417 19.0001 4.91505 19.0001 5.28493V14.7151C19.0001 15.085 18.6992 15.3858 18.3293 15.3858ZM10.9589 5.06133C10.8356 5.06133 10.7353 5.16169 10.7353 5.28493V14.7151C10.7353 14.8383 10.8356 14.9386 10.9589 14.9386H18.3293C18.4526 14.9386 18.5529 14.8383 18.5529 14.7151V5.28493C18.5529 5.16169 18.4526 5.06133 18.3293 5.06133H10.9589Z" fill="#141005"/>
<path d="M3.61057 9.13221C2.72145 9.13221 1.99805 8.40881 1.99805 7.51953C1.99805 6.63029 2.72145 5.90689 3.61057 5.90689C4.49981 5.90689 5.22321 6.63029 5.22321 7.51953C5.22321 8.40881 4.49977 9.13221 3.61057 9.13221ZM3.61057 6.35413C2.96793 6.35413 2.44521 6.87697 2.44521 7.51957C2.44521 8.16221 2.96793 8.68505 3.61057 8.68505C4.25317 8.68505 4.77605 8.16221 4.77605 7.51957C4.77601 6.87693 4.25317 6.35413 3.61057 6.35413Z" fill="#141005"/>
<path d="M4.23211 7.51954C4.23211 7.8625 3.95407 8.1405 3.61115 8.1405C3.26823 8.1405 2.99023 7.86246 2.99023 7.51954C2.99023 7.17658 3.26823 6.89862 3.61115 6.89862C3.95407 6.89862 4.23211 7.17658 4.23211 7.51954Z" fill="#141005"/>
<path d="M17.64 7.73724H15.1263C15.1077 7.73724 15.0893 7.73496 15.0713 7.73036C14.7941 7.66016 14.6006 7.41212 14.6006 7.12704C14.6006 6.836 14.7983 6.58628 15.0814 6.5198L15.1321 6.50812C15.2208 6.48768 15.3045 6.4684 15.3809 6.44012C15.7643 6.2984 16.0359 6.12056 16.1075 5.96432C16.1295 5.9164 16.1309 5.8746 16.1123 5.82448C16.081 5.7404 16.103 5.64588 16.1681 5.5842C16.2333 5.52236 16.3293 5.50588 16.4111 5.54148C16.684 5.66036 18.0502 6.28968 18.1536 7.00792C18.1609 7.04112 18.1657 7.08456 18.1657 7.12704C18.1657 7.41212 17.9721 7.66016 17.6949 7.73036C17.6769 7.73496 17.6584 7.73724 17.64 7.73724ZM15.1598 7.29008H17.6065C17.6735 7.26384 17.7186 7.19968 17.7186 7.12704C17.7186 7.1158 17.7169 7.10304 17.7137 7.0882C17.6693 6.78208 17.0719 6.37144 16.5363 6.09612C16.5297 6.11444 16.5223 6.13268 16.514 6.1508C16.3555 6.49636 15.8947 6.72692 15.536 6.8596C15.4327 6.8978 15.3309 6.92128 15.2324 6.94388L15.1835 6.9552C15.1037 6.974 15.0478 7.04464 15.0478 7.12704C15.0478 7.19964 15.0929 7.26384 15.1598 7.29008Z" fill="#141005"/>
<path d="M17.3151 10.0369H15.4502C15.3267 10.0369 15.2266 9.93683 15.2266 9.81335C15.2266 9.68987 15.3267 9.58975 15.4502 9.58975H17.3151C17.4386 9.58975 17.5387 9.68987 17.5387 9.81335C17.5387 9.93683 17.4386 10.0369 17.3151 10.0369Z" fill="#141005"/>
<path d="M4.28148 13.5981C4.17504 13.5981 4.0686 13.5678 3.97852 13.5078C3.7738 13.3714 3.68416 13.1172 3.75712 12.8848C3.66828 12.805 3.5616 12.7701 3.45952 12.7836C3.26256 12.8104 2.7584 12.8304 2.33576 12.4442C2.09608 12.225 1.97164 11.9358 1.97568 11.6075C1.98452 10.9112 2.55812 10.3376 3.25448 10.329C3.58072 10.3283 3.8722 10.4495 4.091 10.6891C4.47712 11.1116 4.45692 11.6157 4.43044 11.8128C4.41624 11.9174 4.4538 12.0276 4.5312 12.1104C4.76396 12.0379 5.018 12.127 5.15448 12.3316C5.2736 12.51 5.27684 12.7424 5.16288 12.9238C5.08176 13.0527 4.95608 13.1384 4.81668 13.1699C4.78524 13.3093 4.69952 13.435 4.57048 13.5162C4.48356 13.5708 4.38256 13.5981 4.28148 13.5981ZM3.50228 12.3336C3.71528 12.3336 3.92664 12.421 4.08324 12.5777C4.20276 12.6974 4.23816 12.862 4.18468 13.0162C4.17276 13.0503 4.1766 13.1024 4.22648 13.1357C4.25728 13.1562 4.30196 13.1569 4.33252 13.1376C4.38524 13.1044 4.38944 13.0506 4.37708 13.0146C4.349 12.9338 4.36964 12.8441 4.43012 12.7836C4.4908 12.723 4.58024 12.7024 4.66124 12.7302C4.69716 12.7424 4.7512 12.7386 4.78428 12.6858C4.80368 12.655 4.80296 12.6103 4.78252 12.5798C4.74924 12.5298 4.69692 12.5262 4.66276 12.5378C4.50892 12.5914 4.34416 12.5561 4.23336 12.4455C4.04264 12.2546 3.95396 11.9991 3.98716 11.753C4.00976 11.5855 4.0104 11.2639 3.76084 10.9908C3.62668 10.8437 3.46268 10.772 3.26004 10.7762C2.81184 10.7817 2.42856 11.1651 2.42284 11.6132C2.42032 11.816 2.49056 11.9797 2.63748 12.114C2.91044 12.3636 3.23228 12.3634 3.39976 12.3404C3.4338 12.3358 3.46812 12.3336 3.50228 12.3336Z" fill="#141005"/>
<path d="M3.87106 12.9115C3.81386 12.9115 3.75662 12.8896 3.71298 12.846C3.62562 12.7586 3.62562 12.6171 3.71298 12.5298L4.17642 12.0663C4.26374 11.979 4.40522 11.979 4.49258 12.0663C4.5799 12.1537 4.5799 12.2952 4.49258 12.3825L4.02914 12.846C3.9855 12.8896 3.9283 12.9115 3.87106 12.9115Z" fill="#141005"/>
<path d="M17.5876 14.2372H15.1776C14.8363 14.2372 14.5586 13.9595 14.5586 13.6182V12.6424C14.5586 11.6505 15.3472 10.8155 16.3164 10.7811C16.8197 10.7655 17.2898 10.9446 17.6491 11.2913C18.0086 11.6383 18.2067 12.1045 18.2067 12.604V13.6182C18.2066 13.9595 17.9289 14.2372 17.5876 14.2372ZM16.383 11.2271C16.3661 11.2271 16.3493 11.2274 16.3323 11.228C15.6008 11.254 15.0058 11.8884 15.0058 12.6423V13.6182C15.0058 13.7129 15.0829 13.79 15.1776 13.79H17.5876C17.6824 13.79 17.7594 13.7129 17.7594 13.6182V12.6039C17.7594 12.2268 17.61 11.8749 17.3386 11.613C17.0795 11.3631 16.7419 11.2271 16.383 11.2271Z" fill="#141005"/>
<path d="M15.5486 13.2486C15.4289 13.2486 15.3125 13.2058 15.2216 13.1269C15.1143 13.0337 15.0519 12.8988 15.0504 12.7569C15.0497 12.6959 15.0129 12.6311 14.946 12.6311H14.7959C14.7318 12.6311 14.6709 12.6035 14.6284 12.5556C14.5859 12.5077 14.5662 12.4438 14.5739 12.3803C14.6859 11.4679 15.4636 10.7799 16.383 10.7799C17.2704 10.7799 18.0252 11.4144 18.1778 12.2885C18.1985 12.407 18.166 12.5279 18.0884 12.62C18.0112 12.7119 17.8984 12.7645 17.7784 12.7645C17.6542 12.7645 17.5565 12.7237 17.4831 12.6496C17.4081 12.5738 17.3657 12.4679 17.3667 12.359C17.367 12.3298 17.3519 12.3107 17.3428 12.302C17.3318 12.2913 17.3113 12.276 17.2845 12.2801C17.245 12.2819 17.2103 12.3253 17.2103 12.3732V12.4636C17.2103 12.5974 17.1546 12.7271 17.0574 12.8193C16.9603 12.9115 16.8261 12.9597 16.6939 12.9532C16.4335 12.9397 16.2296 12.7179 16.2296 12.4485V12.3724C16.2296 12.3379 16.2115 12.3155 16.2007 12.3054C16.19 12.2951 16.1666 12.2783 16.1319 12.2801C16.0816 12.2828 16.045 12.3449 16.045 12.4277V12.7397C16.045 12.9951 15.8596 13.2122 15.6138 13.2445C15.5921 13.2473 15.5703 13.2486 15.5486 13.2486ZM15.0684 12.1976C15.314 12.2539 15.4945 12.4773 15.4976 12.752C15.4978 12.7715 15.5085 12.7838 15.5149 12.7893C15.5262 12.7992 15.5401 12.8033 15.5557 12.801C15.5781 12.7981 15.5979 12.7693 15.5979 12.7397V12.4277C15.5979 12.1043 15.8174 11.8489 16.1086 11.8336C16.258 11.8249 16.4002 11.8781 16.5086 11.981C16.6155 12.0825 16.6768 12.2251 16.6768 12.3724V12.4485C16.6768 12.4773 16.6964 12.5056 16.7173 12.5067C16.7322 12.507 16.7435 12.5006 16.7496 12.4949C16.7558 12.4891 16.7631 12.4788 16.7631 12.4636V12.3732C16.7631 12.0831 16.9835 11.846 17.2647 11.8334C17.3741 11.8284 17.4852 11.8593 17.577 11.9193C17.3382 11.5008 16.8892 11.2272 16.383 11.2272C15.7714 11.2271 15.243 11.6305 15.0684 12.1976Z" fill="#141005"/>
<path d="M16.6783 10.0369H16.0871C15.9636 10.0369 15.8635 9.93685 15.8635 9.81337V9.75309C15.8635 9.45309 15.7103 9.18197 15.4638 9.04589C14.9055 8.73745 14.5586 8.15041 14.5586 7.51369C14.5586 7.39021 14.6587 7.29013 14.7822 7.29013H17.983C18.1065 7.29013 18.2066 7.39021 18.2066 7.51369C18.2066 8.15041 17.8598 8.73757 17.3014 9.04589C17.055 9.18201 16.9018 9.45301 16.9018 9.75309V9.81337C16.9019 9.93685 16.8018 10.0369 16.6783 10.0369ZM16.3005 9.58977H16.4648C16.5143 9.19293 16.7427 8.84365 17.0853 8.65437C17.4346 8.46145 17.6729 8.12201 17.7401 7.73725H15.0251C15.0924 8.12197 15.3306 8.46145 15.68 8.65437C16.0227 8.84365 16.251 9.19293 16.3005 9.58977Z" fill="#141005"/>
<path d="M8.21519 7.74312H6.10055C5.97707 7.74312 5.87695 7.64304 5.87695 7.51952C5.87695 7.39604 5.97707 7.29596 6.10055 7.29596H8.21519C8.33867 7.29596 8.43879 7.39604 8.43879 7.51952C8.43879 7.64304 8.33867 7.74312 8.21519 7.74312Z" fill="#141005"/>
<path d="M8.21569 9.1322H5.40133C5.27785 9.1322 5.17773 9.03208 5.17773 8.9086C5.17773 8.78512 5.27785 8.685 5.40133 8.685H8.21569C8.33917 8.685 8.43929 8.78512 8.43929 8.9086C8.43929 9.03208 8.33917 9.1322 8.21569 9.1322Z" fill="#141005"/>
<path d="M13.6518 8.64791H11.5371C11.4136 8.64791 11.3135 8.54779 11.3135 8.42431C11.3135 8.30083 11.4136 8.20071 11.5371 8.20071H13.6518C13.7753 8.20071 13.8754 8.30083 13.8754 8.42431C13.8754 8.54775 13.7753 8.64791 13.6518 8.64791Z" fill="#141005"/>
<path d="M14.3514 10.0369H11.5371C11.4136 10.0369 11.3135 9.93683 11.3135 9.81335C11.3135 9.68987 11.4136 9.58975 11.5371 9.58975H14.3514C14.4749 9.58975 14.575 9.68987 14.575 9.81335C14.575 9.93683 14.4749 10.0369 14.3514 10.0369Z" fill="#141005"/>
<path d="M13.6518 12.6968H11.5371C11.4136 12.6968 11.3135 12.5967 11.3135 12.4732C11.3135 12.3498 11.4136 12.2496 11.5371 12.2496H13.6518C13.7753 12.2496 13.8754 12.3498 13.8754 12.4732C13.8754 12.5967 13.7753 12.6968 13.6518 12.6968Z" fill="#141005"/>
<path d="M14.0624 14.0859H11.5371C11.4136 14.0859 11.3135 13.9858 11.3135 13.8623C11.3135 13.7389 11.4136 13.6387 11.5371 13.6387H14.0624C14.1858 13.6387 14.286 13.7389 14.286 13.8623C14.286 13.9858 14.1858 14.0859 14.0624 14.0859Z" fill="#141005"/>
<path d="M8.21519 12.6968H6.10055C5.97707 12.6968 5.87695 12.5967 5.87695 12.4732C5.87695 12.3498 5.97707 12.2496 6.10055 12.2496H8.21519C8.33867 12.2496 8.43879 12.3498 8.43879 12.4732C8.43879 12.5967 8.33867 12.6968 8.21519 12.6968Z" fill="#141005"/>
<path d="M8.21569 14.0859H5.40133C5.27785 14.0859 5.17773 13.9858 5.17773 13.8623C5.17773 13.7389 5.27785 13.6387 5.40133 13.6387H8.21569C8.33917 13.6387 8.43929 13.7389 8.43929 13.8623C8.43929 13.9858 8.33917 14.0859 8.21569 14.0859Z" fill="#141005"/>
<path d="M10.5114 6.44006H9.48825C9.36477 6.44006 9.26465 6.33994 9.26465 6.21646C9.26465 6.09298 9.36477 5.99286 9.48825 5.99286H10.5114C10.6349 5.99286 10.735 6.09298 10.735 6.21646C10.735 6.33994 10.6349 6.44006 10.5114 6.44006Z" fill="#141005"/>
<path d="M10.5114 7.95342H9.48825C9.36477 7.95342 9.26465 7.8533 9.26465 7.72982C9.26465 7.60634 9.36477 7.50626 9.48825 7.50626H10.5114C10.6349 7.50626 10.735 7.60634 10.735 7.72982C10.735 7.8533 10.6349 7.95342 10.5114 7.95342Z" fill="#141005"/>
<path d="M10.5114 9.46685H9.48825C9.36477 9.46685 9.26465 9.36673 9.26465 9.24325C9.26465 9.11977 9.36477 9.01965 9.48825 9.01965H10.5114C10.6349 9.01965 10.735 9.11977 10.735 9.24325C10.735 9.36673 10.6349 9.46685 10.5114 9.46685Z" fill="#141005"/>
<path d="M10.5114 10.9804H9.48825C9.36477 10.9804 9.26465 10.8803 9.26465 10.7568C9.26465 10.6333 9.36477 10.5332 9.48825 10.5332H10.5114C10.6349 10.5332 10.735 10.6333 10.735 10.7568C10.735 10.8803 10.6349 10.9804 10.5114 10.9804Z" fill="#141005"/>
<path d="M10.5114 12.4938H9.48825C9.36477 12.4938 9.26465 12.3936 9.26465 12.2702C9.26465 12.1467 9.36477 12.0466 9.48825 12.0466H10.5114C10.6349 12.0466 10.735 12.1467 10.735 12.2702C10.735 12.3936 10.6349 12.4938 10.5114 12.4938Z" fill="#141005"/>
<path d="M10.5114 14.0072H9.48825C9.36477 14.0072 9.26465 13.9071 9.26465 13.7836C9.26465 13.6601 9.36477 13.56 9.48825 13.56H10.5114C10.6349 13.56 10.735 13.6601 10.735 13.7836C10.735 13.907 10.6349 14.0072 10.5114 14.0072Z" fill="#141005"/>
</svg>
