<svg width="24" height="24" viewBox="0 0 24 24" fill="none" xmlns="http://www.w3.org/2000/svg">
<path d="M3.0903 7.5825L2.09655 21.6075C2.06655 22.0313 2.21655 22.4513 2.5053 22.7625C2.79405 23.0738 3.2028 23.25 3.62655 23.25H20.374C20.8428 23.25 21.2815 23.04 21.574 22.6725C21.814 22.365 21.9303 21.9863 21.9003 21.6L20.524 7.58625C20.4678 6.7875 19.7965 6.16125 18.994 6.16125H18.0003V5.43375C18.0003 4.1775 17.4678 2.99625 16.4965 2.11125C15.5403 1.2375 14.269 0.753754 12.9153 0.753754C12.1653 0.753754 11.4528 0.907504 10.8115 1.1775C10.6353 1.15875 10.459 1.15125 10.279 1.15125C7.4778 1.15125 5.1978 3.25125 5.1978 5.83125V6.16125H4.61655C3.81405 6.16125 3.1428 6.7875 3.08655 7.58625L3.0903 7.5825ZM18.9978 6.9075C19.4065 6.9075 19.7478 7.22625 19.7778 7.64625L21.154 21.6563L19.129 19.02L18.754 6.9075H18.9978ZM20.7753 22.3913C20.6553 22.4625 20.5203 22.5 20.3778 22.5H16.279L18.739 19.74L20.7753 22.3913ZM18.004 6.9075L18.379 19.0125L15.8928 21.8025L16.9503 6.9075H18.004ZM12.9228 1.49625C14.0853 1.49625 15.1765 1.90875 15.9978 2.655C16.8078 3.3975 17.2578 4.38 17.2578 5.42625V6.15375H15.3715V5.82375C15.3715 3.9075 14.1153 2.26125 12.3228 1.5375C12.5215 1.51125 12.7203 1.49625 12.9265 1.49625H12.9228ZM10.924 1.9425C13.009 2.22375 14.6178 3.855 14.6178 5.82375V6.15375H8.5878V5.42625C8.5878 3.915 9.53655 2.59875 10.9203 1.9425H10.924ZM5.95155 5.8275C5.95155 3.89625 7.4928 2.29125 9.5178 1.96125C8.4903 2.82 7.8378 4.05375 7.8378 5.42625V6.15375H5.95155V5.82375V5.8275ZM4.6203 6.9075H5.20155V8.19375C5.20155 8.4 5.3703 8.56875 5.57655 8.56875C5.7828 8.56875 5.95155 8.4 5.95155 8.19375V6.9075H14.614V8.19375C14.614 8.4 14.7828 8.56875 14.989 8.56875C15.1953 8.56875 15.364 8.4 15.364 8.19375V6.9075H16.1965L15.0903 22.5H3.62655C3.4053 22.5 3.2028 22.41 3.0528 22.2488C2.9028 22.0875 2.8278 21.8775 2.8428 21.66L3.83655 7.635C3.86655 7.22625 4.2078 6.9075 4.61655 6.9075H4.6203ZM4.5003 17.7263C4.5003 18.6938 5.2878 19.4775 6.25155 19.4775H12.8178C13.399 19.4775 13.9428 19.1888 14.2728 18.705C14.4678 18.4125 14.5728 18.075 14.5728 17.7263C14.5728 17.3775 14.344 17.0513 14.0215 16.9275C14.0403 16.86 14.0515 16.7888 14.0515 16.7138V16.0838C14.0515 16.0163 14.044 15.9488 14.029 15.885C14.3478 15.78 14.5765 15.4838 14.5765 15.1313C14.5765 13.9838 14.1715 12.8663 13.4403 11.985C12.499 10.8525 11.119 10.2038 9.64905 10.2038H9.4278C8.07405 10.2038 6.76905 10.77 5.83905 11.7525C4.97655 12.6675 4.5003 13.8675 4.5003 15.1275C4.5003 15.48 4.72905 15.7763 5.0478 15.8813C5.0328 15.945 5.0253 16.0125 5.0253 16.08V16.71C5.0253 16.785 5.03655 16.8563 5.0553 16.9238C4.7328 17.0475 4.50405 17.3588 4.50405 17.7225L4.5003 17.7263ZM6.38655 12.27C7.1853 11.4225 8.2653 10.9575 9.4278 10.9575H9.64905C10.894 10.9575 12.064 11.5088 12.8628 12.465C13.4853 13.2113 13.8265 14.16 13.8265 15.1313C13.8265 15.1575 13.804 15.18 13.7778 15.18H5.29905C5.2728 15.18 5.2503 15.1575 5.2503 15.1313C5.2503 14.0625 5.65155 13.0463 6.38655 12.27ZM13.3015 16.0875V16.7175C13.3015 16.8038 13.2303 16.8713 13.1478 16.8713H5.92905C5.8428 16.8713 5.7753 16.8 5.7753 16.7175V16.0875C5.7753 16.0013 5.84655 15.9338 5.92905 15.9338H13.144C13.2303 15.9338 13.2978 16.005 13.2978 16.0875H13.3015ZM5.35905 17.6213H13.714C13.774 17.6213 13.8228 17.67 13.8228 17.73C13.8228 17.9325 13.7628 18.1238 13.6503 18.2888C13.4628 18.5663 13.1515 18.7313 12.8178 18.7313H6.25155C5.7003 18.7313 5.2503 18.2813 5.2503 17.73C5.2503 17.67 5.29905 17.6213 5.35905 17.6213Z" fill="#082133"/>
</svg>
