<svg width="16" height="16" viewBox="0 0 16 16" fill="none" xmlns="http://www.w3.org/2000/svg">
<path d="M8 15.5C7.31 15.5 6.75 14.94 6.75 14.25C6.75 14.1125 6.8625 14 7 14H9C9.1375 14 9.25 14.1125 9.25 14.25C9.25 14.94 8.69 15.5 8 15.5ZM7.2925 14.5C7.395 14.79 7.675 15 8 15C8.325 15 8.605 14.79 8.7075 14.5H7.2925Z" fill="#141005"/>
<path d="M5.99997 10.5C5.86247 10.5 5.74997 10.3875 5.74997 10.25V10.09C5.74997 9.70751 5.55247 9.33751 5.21997 9.09751C3.83247 8.09251 3.08747 6.41001 3.27997 4.70501C3.38497 3.75751 3.77747 2.87251 4.40997 2.14501C4.49997 2.04001 4.65997 2.03001 4.76247 2.12001C4.86747 2.21001 4.87747 2.36751 4.78747 2.47251C4.21997 3.12501 3.87247 3.91501 3.77747 4.76001C3.60247 6.31001 4.25247 7.78001 5.51247 8.69251C5.97247 9.02501 6.24747 9.54751 6.24747 10.09V10.25C6.24747 10.3875 6.13497 10.5 5.99747 10.5H5.99997Z" fill="#141005"/>
<path d="M9.99969 10.5C9.86219 10.5 9.74969 10.3875 9.74969 10.25V10.09C9.74969 9.54751 10.0247 9.02501 10.4822 8.69251C11.5897 7.89751 12.2497 6.61001 12.2497 5.25001C12.2497 4.04251 11.7347 2.89001 10.8347 2.08251C9.92219 1.26501 8.74219 0.890006 7.51219 1.02501C6.77719 1.10751 6.07719 1.38501 5.48469 1.82751C5.37469 1.91001 5.21719 1.88751 5.13469 1.77751C5.05219 1.66751 5.07469 1.51001 5.18469 1.42751C5.84719 0.932506 6.63469 0.622506 7.45719 0.530006C8.83219 0.380006 10.1472 0.797506 11.1672 1.71251C12.1722 2.61251 12.7497 3.90251 12.7497 5.25251C12.7497 6.77251 12.0122 8.21001 10.7747 9.10001C10.4447 9.33751 10.2497 9.71001 10.2497 10.0925V10.2525C10.2497 10.39 10.1372 10.5025 9.99969 10.5025V10.5Z" fill="#141005"/>
<path d="M10.75 11.75C10.75 11.3375 10.4125 11 10 11H8C7.8625 11 7.75 11.1125 7.75 11.25C7.75 11.3875 7.8625 11.5 8 11.5H10C10.1375 11.5 10.25 11.6125 10.25 11.75C10.25 11.8175 10.225 11.8775 10.1725 11.9275C10.1275 11.975 10.065 12 10 12H6C5.8625 12 5.75 11.8875 5.75 11.75C5.75 11.6825 5.775 11.6225 5.8275 11.5725C5.8725 11.525 5.935 11.5 6 11.5H7C7.1375 11.5 7.25 11.3875 7.25 11.25C7.25 11.1125 7.1375 11 7 11H6C5.7975 11 5.6075 11.08 5.4725 11.2175C5.3275 11.3575 5.25 11.5475 5.25 11.75C5.25 11.9525 5.325 12.1175 5.445 12.25C5.32 12.3875 5.25 12.56 5.25 12.75C5.25 13.095 5.485 13.385 5.805 13.47C5.77 13.5575 5.75 13.6525 5.75 13.75C5.75 14.1625 6.0875 14.5 6.5 14.5H9.5C9.7025 14.5 9.8925 14.42 10.0275 14.2825C10.1725 14.1425 10.25 13.9525 10.25 13.75C10.25 13.6525 10.23 13.5575 10.195 13.4725C10.32 13.4375 10.4375 13.375 10.5275 13.2825C10.6725 13.1425 10.75 12.9525 10.75 12.75C10.75 12.5475 10.675 12.3825 10.555 12.25C10.68 12.1125 10.75 11.94 10.75 11.75ZM10.1725 12.9275C10.1275 12.975 10.065 13 10 13H9.25C9.1125 13 9 13.1125 9 13.25C9 13.3875 9.1125 13.5 9.25 13.5H9.5C9.6375 13.5 9.75 13.6125 9.75 13.75C9.75 13.8175 9.725 13.8775 9.6725 13.9275C9.6275 13.975 9.565 14 9.5 14H6.5C6.3625 14 6.25 13.8875 6.25 13.75C6.25 13.6825 6.275 13.6225 6.3275 13.5725C6.3725 13.525 6.435 13.5 6.5 13.5H8.25C8.3875 13.5 8.5 13.3875 8.5 13.25C8.5 13.1125 8.3875 13 8.25 13H6C5.8625 13 5.75 12.8875 5.75 12.75C5.75 12.6825 5.775 12.6225 5.8275 12.5725C5.8725 12.525 5.935 12.5 6 12.5H10C10.1375 12.5 10.25 12.6125 10.25 12.75C10.25 12.8175 10.225 12.8775 10.1725 12.9275Z" fill="#141005"/>
<path d="M14.5 5.5H13.5C13.3625 5.5 13.25 5.3875 13.25 5.25C13.25 5.1125 13.3625 5 13.5 5H14.5C14.6375 5 14.75 5.1125 14.75 5.25C14.75 5.3875 14.6375 5.5 14.5 5.5Z" fill="#141005"/>
<path d="M13.4997 4.25C13.4197 4.25 13.3397 4.21 13.2922 4.1375C13.2147 4.0225 13.2472 3.8675 13.3622 3.79L14.1122 3.29C14.2272 3.2125 14.3822 3.245 14.4597 3.36C14.5372 3.475 14.5047 3.63 14.3897 3.7075L13.6397 4.2075C13.5972 4.235 13.5497 4.25 13.5022 4.25H13.4997Z" fill="#141005"/>
<path d="M14.2496 7.25C14.2021 7.25 14.1546 7.2375 14.1121 7.2075L13.3621 6.7075C13.2471 6.63 13.2171 6.475 13.2921 6.36C13.3696 6.245 13.5221 6.215 13.6396 6.29L14.3896 6.79C14.5046 6.8675 14.5346 7.02249 14.4596 7.13749C14.4121 7.20999 14.3321 7.25 14.2521 7.25H14.2496Z" fill="#141005"/>
<path d="M2.5 5.5H1.5C1.3625 5.5 1.25 5.3875 1.25 5.25C1.25 5.1125 1.3625 5 1.5 5H2.5C2.6375 5 2.75 5.1125 2.75 5.25C2.75 5.3875 2.6375 5.5 2.5 5.5Z" fill="#141005"/>
<path d="M1.74974 7.25C1.66974 7.25 1.58974 7.21 1.54224 7.1375C1.46474 7.0225 1.49724 6.8675 1.61224 6.79L2.36224 6.29C2.47724 6.2125 2.63224 6.245 2.70974 6.36C2.78724 6.475 2.75474 6.63 2.63974 6.7075L1.88974 7.2075C1.84724 7.235 1.79974 7.25 1.75224 7.25H1.74974Z" fill="#141005"/>
<path d="M2.49962 4.25C2.45212 4.25 2.40462 4.2375 2.36212 4.2075L1.61212 3.7075C1.49712 3.63 1.46712 3.475 1.54212 3.36C1.61962 3.245 1.77212 3.215 1.88962 3.29L2.63962 3.79C2.75462 3.8675 2.78462 4.0225 2.70962 4.1375C2.66212 4.21 2.58212 4.25 2.50212 4.25H2.49962Z" fill="#141005"/>
<path d="M8 8.25C7.9575 8.25 7.915 8.24 7.875 8.2175C7.7675 8.155 5.25 6.685 5.25 4.85C5.25 3.9675 5.9425 3.25 6.7925 3.25C7.245 3.25 7.69 3.455 8 3.7925C8.31 3.455 8.755 3.25 9.2075 3.25C10.0575 3.25 10.75 3.9675 10.75 4.85C10.75 5.36 10.5575 5.885 10.175 6.4125C10.095 6.525 9.9375 6.55 9.825 6.4675C9.7125 6.3875 9.6875 6.23 9.77 6.1175C10.0875 5.6775 10.25 5.2525 10.25 4.85C10.25 4.2425 9.7825 3.75 9.2075 3.75C8.81 3.75 8.4225 3.98 8.2175 4.3375C8.1275 4.4925 7.8725 4.4925 7.785 4.3375C7.58 3.98 7.1925 3.75 6.795 3.75C6.22 3.75 5.7525 4.2425 5.7525 4.85C5.7525 6.19 7.5125 7.3975 8.0025 7.7075C8.22 7.57 8.685 7.255 9.1375 6.83C9.2375 6.735 9.3975 6.74 9.49 6.84C9.585 6.94 9.58 7.0975 9.48 7.1925C8.825 7.81 8.1575 8.1975 8.1275 8.215C8.09 8.2375 8.045 8.2475 8.0025 8.2475L8 8.25Z" fill="#141005"/>
</svg>
