<svg width="16" height="16" viewBox="0 0 16 16" fill="none" xmlns="http://www.w3.org/2000/svg">
<g clip-path="url(#clip0_1932_8803)">
<path d="M15.3525 9.8607C15.2856 9.79395 15.2011 9.74754 15.1089 9.72683C15.0167 9.70612 14.9205 9.71197 14.8315 9.7437C13.6352 10.1702 12.3424 10.2486 11.1033 9.96956C9.86422 9.69056 8.72975 9.06571 7.83169 8.16759C6.93362 7.26948 6.30883 6.13497 6.02991 4.89588C5.75099 3.6568 5.82938 2.364 6.25599 1.1677C6.28768 1.07866 6.2935 0.982463 6.27275 0.890255C6.25201 0.798047 6.20556 0.713607 6.13878 0.646724C6.072 0.579841 5.98763 0.533254 5.89546 0.512365C5.80328 0.491476 5.70707 0.49714 5.61799 0.5287C4.53943 0.909569 3.56065 1.52876 2.75449 2.3402C1.3093 3.78648 0.49766 5.74752 0.498047 7.7921C0.498434 9.83668 1.31081 11.7974 2.75655 13.2431C4.20228 14.6889 6.16301 15.5013 8.20759 15.5016C10.2522 15.502 12.2132 14.6904 13.6595 13.2452C14.471 12.4389 15.0902 11.4599 15.471 10.3812C15.5024 10.2921 15.508 10.1959 15.487 10.1038C15.466 10.0117 15.4194 9.9274 15.3525 9.8607ZM12.9525 12.5382C12.2707 13.2181 11.4506 13.7433 10.5479 14.0781C9.64517 14.413 8.68096 14.5497 7.72073 14.479C6.7605 14.4083 5.82674 14.1317 4.98284 13.6682C4.13893 13.2046 3.40466 12.5649 2.82986 11.7925C2.25507 11.0201 1.85321 10.133 1.65158 9.1915C1.44995 8.25001 1.45327 7.27617 1.66131 6.33608C1.86935 5.39599 2.27724 4.51168 2.85728 3.74318C3.43733 2.97468 4.17595 2.33999 5.02299 1.8822C4.77223 3.13057 4.83264 4.42147 5.19888 5.64096C5.56512 6.86046 6.22593 7.97105 7.12299 8.8747C8.02654 9.7719 9.13712 10.4328 10.3566 10.7991C11.5762 11.1653 12.8671 11.2256 14.1155 10.9747C13.8063 11.5499 13.4145 12.0767 12.9525 12.5382Z" fill="#141005"/>
</g>
<defs>
<clipPath id="clip0_1932_8803">
<rect width="16" height="16" fill="white"/>
</clipPath>
</defs>
</svg>
