<svg width="16" height="16" viewBox="0 0 16 16" fill="none" xmlns="http://www.w3.org/2000/svg">
<g clip-path="url(#clip0_668_3085)">
<path d="M10.5 10.4997C10.5 10.2345 10.3946 9.98011 10.2071 9.79258C10.0196 9.60504 9.76522 9.49968 9.5 9.49968H6.2825L6.5 7.77968C6.50123 7.76972 6.50123 7.75964 6.5 7.74968C6.5 6.36468 5.52 5.99968 5 5.99968C4.94389 5.99761 4.88871 6.01448 4.84336 6.04759C4.79801 6.0807 4.76512 6.12811 4.75 6.18218L3.75 9.65468C3.58202 9.98591 3.32147 10.2612 3 10.4472V10.2497C3 10.1834 2.97366 10.1198 2.92678 10.0729C2.87989 10.026 2.8163 9.99968 2.75 9.99968H0.25C0.183696 9.99968 0.120107 10.026 0.0732233 10.0729C0.0263392 10.1198 0 10.1834 0 10.2497L0 15.7497C0 15.816 0.0263392 15.8796 0.0732233 15.9265C0.120107 15.9733 0.183696 15.9997 0.25 15.9997H2.75C2.8163 15.9997 2.87989 15.9733 2.92678 15.9265C2.97366 15.8796 3 15.816 3 15.7497V15.5822L4.4325 15.9997C4.45484 16.0035 4.47766 16.0035 4.5 15.9997H8.75C8.93939 15.997 9.12414 15.9406 9.28272 15.837C9.44131 15.7335 9.56722 15.587 9.64579 15.4146C9.72437 15.2423 9.75238 15.0512 9.72657 14.8635C9.70076 14.6759 9.62219 14.4994 9.5 14.3547C9.62384 14.2801 9.73004 14.1797 9.8113 14.0601C9.89257 13.9406 9.94695 13.8049 9.97071 13.6623C9.99447 13.5197 9.98705 13.3737 9.94895 13.2343C9.91084 13.0949 9.84297 12.9654 9.75 12.8547C9.87384 12.7801 9.98004 12.6797 10.0613 12.5601C10.1426 12.4406 10.197 12.3049 10.2207 12.1623C10.2445 12.0197 10.237 11.8737 10.1989 11.7343C10.1608 11.5949 10.093 11.4654 10 11.3547C10.1504 11.2679 10.2756 11.1434 10.3633 10.9934C10.451 10.8435 10.4981 10.6733 10.5 10.4997ZM2.5 15.4997H0.5V10.4997H2.5V15.4997ZM8.75 15.4997H4.535L3 15.0622V10.9697C3.75 10.7972 4.2025 9.90468 4.2225 9.86218C4.22941 9.84762 4.23526 9.83258 4.24 9.81718L5.1825 6.52218C5.475 6.58718 5.995 6.82968 6 7.73468L5.75 9.71968C5.74573 9.75458 5.74886 9.78998 5.7592 9.82358C5.76954 9.85718 5.78685 9.88822 5.81 9.91468C5.8337 9.94167 5.86295 9.96323 5.89573 9.9779C5.92852 9.99256 5.96408 9.99999 6 9.99968H9.5C9.63261 9.99968 9.75979 10.0524 9.85355 10.1461C9.94732 10.2399 10 10.3671 10 10.4997C10 10.6323 9.94732 10.7595 9.85355 10.8532C9.75979 10.947 9.63261 10.9997 9.5 10.9997H8.25C8.1837 10.9997 8.12011 11.026 8.07322 11.0729C8.02634 11.1198 8 11.1834 8 11.2497C8 11.316 8.02634 11.3796 8.07322 11.4265C8.12011 11.4733 8.1837 11.4997 8.25 11.4997H9.25C9.38261 11.4997 9.50979 11.5524 9.60355 11.6461C9.69732 11.7399 9.75 11.8671 9.75 11.9997C9.75 12.1323 9.69732 12.2595 9.60355 12.3532C9.50979 12.447 9.38261 12.4997 9.25 12.4997H8C7.9337 12.4997 7.87011 12.526 7.82322 12.5729C7.77634 12.6198 7.75 12.6834 7.75 12.7497C7.75 12.816 7.77634 12.8796 7.82322 12.9265C7.87011 12.9733 7.9337 12.9997 8 12.9997H9C9.13261 12.9997 9.25979 13.0524 9.35355 13.1461C9.44732 13.2399 9.5 13.3671 9.5 13.4997C9.5 13.6323 9.44732 13.7595 9.35355 13.8532C9.25979 13.947 9.13261 13.9997 9 13.9997H7.75C7.6837 13.9997 7.62011 14.026 7.57322 14.0729C7.52634 14.1198 7.5 14.1834 7.5 14.2497C7.5 14.316 7.52634 14.3796 7.57322 14.4265C7.62011 14.4733 7.6837 14.4997 7.75 14.4997H8.75C8.88261 14.4997 9.00979 14.5524 9.10355 14.6461C9.19732 14.7399 9.25 14.8671 9.25 14.9997C9.25 15.1323 9.19732 15.2595 9.10355 15.3532C9.00979 15.447 8.88261 15.4997 8.75 15.4997Z" fill="#513F15"/>
<path d="M3.25 3.75H3.5V4C3.5 4.0663 3.52634 4.12989 3.57322 4.17678C3.62011 4.22366 3.6837 4.25 3.75 4.25C3.8163 4.25 3.87989 4.22366 3.92678 4.17678C3.97366 4.12989 4 4.0663 4 4V3.75H4.25C4.3163 3.75 4.37989 3.72366 4.42678 3.67678C4.47366 3.62989 4.5 3.5663 4.5 3.5C4.5 3.4337 4.47366 3.37011 4.42678 3.32322C4.37989 3.27634 4.3163 3.25 4.25 3.25H4V3C4 2.9337 3.97366 2.87011 3.92678 2.82322C3.87989 2.77634 3.8163 2.75 3.75 2.75C3.6837 2.75 3.62011 2.77634 3.57322 2.82322C3.52634 2.87011 3.5 2.9337 3.5 3V3.25H3.25C3.1837 3.25 3.12011 3.27634 3.07322 3.32322C3.02634 3.37011 3 3.4337 3 3.5C3 3.5663 3.02634 3.62989 3.07322 3.67678C3.12011 3.72366 3.1837 3.75 3.25 3.75Z" fill="#513F15"/>
<path d="M13.5 12.5H13.25V12.25C13.25 12.1837 13.2237 12.1201 13.1768 12.0732C13.1299 12.0263 13.0663 12 13 12C12.9337 12 12.8701 12.0263 12.8232 12.0732C12.7763 12.1201 12.75 12.1837 12.75 12.25V12.5H12.5C12.4337 12.5 12.3701 12.5263 12.3232 12.5732C12.2763 12.6201 12.25 12.6837 12.25 12.75C12.25 12.8163 12.2763 12.8799 12.3232 12.9268C12.3701 12.9737 12.4337 13 12.5 13H12.75V13.25C12.75 13.3163 12.7763 13.3799 12.8232 13.4268C12.8701 13.4737 12.9337 13.5 13 13.5C13.0663 13.5 13.1299 13.4737 13.1768 13.4268C13.2237 13.3799 13.25 13.3163 13.25 13.25V13H13.5C13.5663 13 13.6299 12.9737 13.6768 12.9268C13.7237 12.8799 13.75 12.8163 13.75 12.75C13.75 12.6837 13.7237 12.6201 13.6768 12.5732C13.6299 12.5263 13.5663 12.5 13.5 12.5Z" fill="#513F15"/>
<path d="M10.5 -0.000179179C9.04131 -0.000179179 7.64236 0.579283 6.61091 1.61073C5.57946 2.64218 5 4.04113 5 5.49982C5 5.56612 5.02634 5.62971 5.07322 5.6766C5.12011 5.72348 5.1837 5.74982 5.25 5.74982C5.3163 5.74982 5.37989 5.72348 5.42678 5.6766C5.47366 5.62971 5.5 5.56612 5.5 5.49982C5.5003 4.55175 5.77013 3.62331 6.27803 2.82277C6.78593 2.02223 7.51096 1.38259 8.36857 0.978441C9.22618 0.574295 10.181 0.422302 11.1217 0.54019C12.0624 0.658078 12.9502 1.04099 13.6816 1.64426C14.413 2.24753 14.9577 3.04631 15.2524 3.94742C15.547 4.84854 15.5794 5.81485 15.3458 6.73367C15.1121 7.6525 14.622 8.48595 13.9327 9.13684C13.2434 9.78772 12.3832 10.2292 11.4525 10.4098C11.3862 10.4161 11.3251 10.4485 11.2827 10.4998C11.2402 10.5512 11.22 10.6173 11.2262 10.6836C11.2325 10.7499 11.2649 10.811 11.3163 10.8534C11.3676 10.8958 11.4337 10.9161 11.5 10.9098H11.5475C12.9028 10.662 14.1157 9.9146 14.9463 8.8154C15.7769 7.7162 16.1648 6.34529 16.0331 4.97386C15.9014 3.60242 15.2598 2.33035 14.2352 1.40928C13.2106 0.488208 11.8777 -0.0147779 10.5 -0.000179179Z" fill="#513F15"/>
<path d="M12.75 6.5C12.75 5.96957 12.5393 5.46086 12.1642 5.08579C11.7891 4.71071 11.2804 4.5 10.75 4.5H10.25C10.1174 4.5 9.99021 4.44732 9.89645 4.35355C9.80268 4.25979 9.75 4.13261 9.75 4C9.75 3.86739 9.80268 3.74021 9.89645 3.64645C9.99021 3.55268 10.1174 3.5 10.25 3.5H12C12.1989 3.5 12.3897 3.42098 12.5303 3.28033C12.671 3.13968 12.75 2.94891 12.75 2.75C12.75 2.55109 12.671 2.36032 12.5303 2.21967C12.3897 2.07902 12.1989 2 12 2H11.25V1.25C11.25 1.1837 11.2237 1.12011 11.1768 1.07322C11.1299 1.02634 11.0663 1 11 1H10C9.9337 1 9.87011 1.02634 9.82322 1.07322C9.77634 1.12011 9.75 1.1837 9.75 1.25V2.065C9.28 2.18783 8.87077 2.47753 8.59873 2.88C8.32669 3.28247 8.21043 3.7702 8.27166 4.25211C8.3329 4.73402 8.56744 5.17718 8.93149 5.49882C9.29554 5.82046 9.76421 5.99861 10.25 6H10.75C10.8826 6 11.0098 6.05268 11.1036 6.14645C11.1973 6.24021 11.25 6.36739 11.25 6.5C11.25 6.63261 11.1973 6.75979 11.1036 6.85355C11.0098 6.94732 10.8826 7 10.75 7H9C8.80109 7 8.61032 7.07902 8.46967 7.21967C8.32902 7.36032 8.25 7.55109 8.25 7.75C8.25 7.94891 8.32902 8.13968 8.46967 8.28033C8.61032 8.42098 8.80109 8.5 9 8.5H9.75V9.25C9.75 9.3163 9.77634 9.37989 9.82322 9.42678C9.87011 9.47366 9.9337 9.5 10 9.5H11C11.0663 9.5 11.1299 9.47366 11.1768 9.42678C11.2237 9.37989 11.25 9.3163 11.25 9.25V8.435C11.6791 8.32422 12.0592 8.07407 12.3307 7.72384C12.6022 7.37361 12.7497 6.94314 12.75 6.5ZM10.965 7.9825C10.9049 7.99099 10.85 8.02103 10.8104 8.06703C10.7709 8.11303 10.7494 8.17184 10.75 8.2325V9H10.25V8.25C10.25 8.1837 10.2237 8.12011 10.1768 8.07322C10.1299 8.02634 10.0663 8 10 8H9C8.9337 8 8.87011 7.97366 8.82322 7.92678C8.77634 7.87989 8.75 7.8163 8.75 7.75C8.75 7.6837 8.77634 7.62011 8.82322 7.57322C8.87011 7.52634 8.9337 7.5 9 7.5H10.75C11.0152 7.5 11.2696 7.39464 11.4571 7.20711C11.6446 7.01957 11.75 6.76522 11.75 6.5C11.75 6.23478 11.6446 5.98043 11.4571 5.79289C11.2696 5.60536 11.0152 5.5 10.75 5.5H10.25C9.87312 5.49671 9.51129 5.35167 9.23649 5.09372C8.96169 4.83577 8.79407 4.48383 8.76697 4.10791C8.73987 3.73199 8.85528 3.35964 9.09024 3.06495C9.3252 2.77025 9.66249 2.57481 10.035 2.5175C10.0951 2.50901 10.15 2.47897 10.1896 2.43297C10.2291 2.38697 10.2506 2.32816 10.25 2.2675V1.5H10.75V2.25C10.75 2.3163 10.7763 2.37989 10.8232 2.42678C10.8701 2.47366 10.9337 2.5 11 2.5H12C12.0663 2.5 12.1299 2.52634 12.1768 2.57322C12.2237 2.62011 12.25 2.6837 12.25 2.75C12.25 2.8163 12.2237 2.87989 12.1768 2.92678C12.1299 2.97366 12.0663 3 12 3H10.25C9.98478 3 9.73043 3.10536 9.54289 3.29289C9.35536 3.48043 9.25 3.73478 9.25 4C9.25 4.26522 9.35536 4.51957 9.54289 4.70711C9.73043 4.89464 9.98478 5 10.25 5H10.75C11.1269 5.00329 11.4887 5.14833 11.7635 5.40628C12.0383 5.66423 12.2059 6.01617 12.233 6.39209C12.2601 6.76801 12.1447 7.14036 11.9098 7.43505C11.6748 7.72975 11.3375 7.92519 10.965 7.9825Z" fill="#513F15"/>
</g>
<defs>
<clipPath id="clip0_668_3085">
<rect width="16" height="16" fill="white"/>
</clipPath>
</defs>
</svg>
