<svg width="24" height="24" viewBox="0 0 24 24" fill="none" xmlns="http://www.w3.org/2000/svg">
<g clip-path="url(#clip0_1998_10700)">
<path d="M23.9909 14.465C23.9909 13.5638 23.5067 12.7734 22.7847 12.3406C23.0613 11.9412 23.2235 11.4566 23.2235 10.9351C23.2235 9.57038 22.1132 8.4601 20.7486 8.4601H15.524C15.6841 7.73447 15.9031 6.64561 16.0556 5.50575C16.4524 2.53946 16.1812 0.894378 15.2021 0.328644C14.5917 -0.0239967 13.9336 -0.095528 13.349 0.127035C12.8973 0.299066 12.2874 0.722019 11.9398 1.76007L10.5667 5.35542C9.65598 7.60463 6.28778 10.0006 5.49058 10.5444H0.719124C0.327015 10.5444 0.00915527 10.8623 0.00915527 11.2544V21.6821C0.00915527 22.0742 0.327061 22.392 0.719124 22.392H5.57176C8.27683 23.4589 11.1225 24 14.0325 24H19.7252C21.0899 24 22.2002 22.8897 22.2002 21.525C22.2002 21.0472 22.064 20.6004 21.8285 20.2217C22.6535 19.8199 23.2234 18.9727 23.2234 17.995C23.2234 17.4734 23.0612 16.9889 22.7846 16.5895C23.5067 16.1566 23.9909 15.3663 23.9909 14.465ZM4.99661 20.9722H1.42909V11.9644H4.99661V20.9722ZM21.5159 15.52H20.7485C20.3564 15.52 20.0386 15.8379 20.0386 16.23C20.0386 16.6221 20.3565 16.94 20.7485 16.94C21.3302 16.94 21.8035 17.4133 21.8035 17.995C21.8035 18.5768 21.3302 19.05 20.7485 19.05H19.7253C19.3332 19.05 19.0153 19.368 19.0153 19.76C19.0153 20.1521 19.3332 20.47 19.7253 20.47C20.307 20.47 20.7803 20.9433 20.7803 21.525C20.7803 22.1067 20.307 22.58 19.7253 22.58H14.0325C11.4176 22.58 8.85808 22.1148 6.41664 21.1964V11.6322C7.48881 10.8925 10.8649 8.41444 11.8862 5.88033C11.8877 5.8763 11.8893 5.87227 11.8909 5.86824L13.272 2.25216C13.2759 2.24203 13.2795 2.23177 13.2828 2.2215C13.4168 1.81603 13.6197 1.54346 13.8545 1.45407C14.0821 1.3673 14.3267 1.46278 14.4917 1.55818C14.4978 1.56169 15.0901 2.00339 14.6497 5.30658C14.3995 7.18257 13.9451 8.97685 13.9406 8.99475C13.8865 9.20714 13.9336 9.43266 14.068 9.60572C14.2025 9.77878 14.4094 9.88008 14.6286 9.88008H20.7487C21.3304 9.88008 21.8037 10.3534 21.8037 10.9351C21.8037 11.5168 21.3304 11.9901 20.7487 11.9901C20.3566 11.9901 20.0387 12.308 20.0387 12.7001C20.0387 13.0922 20.3566 13.41 20.7487 13.41H21.5161C22.0978 13.41 22.5711 13.8833 22.5711 14.4651C22.571 15.0467 22.0976 15.52 21.5159 15.52Z" fill="black"/>
</g>
<defs>
<clipPath id="clip0_1998_10700">
<rect width="24" height="24" fill="white"/>
</clipPath>
</defs>
</svg>
