<svg width="9" height="10" viewBox="0 0 9 10" fill="none" xmlns="http://www.w3.org/2000/svg">
<path d="M6.06398 6.60713C7.12811 4.93734 6.99434 5.14566 7.025 5.10213C7.41242 4.55568 7.61719 3.91254 7.61719 3.24219C7.61719 1.46445 6.17459 0 4.39453 0C2.62027 0 1.17188 1.46156 1.17188 3.24219C1.17188 3.91211 1.38094 4.57209 1.78105 5.1259L2.72504 6.60715C1.71576 6.76225 0 7.22445 0 8.24219C0 8.61318 0.242148 9.14189 1.39574 9.55389C2.20125 9.84156 3.26623 10 4.39453 10C6.50439 10 8.78906 9.40484 8.78906 8.24219C8.78906 7.22428 7.07531 6.76256 6.06398 6.60713ZM2.27049 4.80361C2.26727 4.79857 2.26391 4.79365 2.26039 4.78881C1.92744 4.33076 1.75781 3.78791 1.75781 3.24219C1.75781 1.77699 2.93762 0.585938 4.39453 0.585938C5.84842 0.585938 7.03125 1.77752 7.03125 3.24219C7.03125 3.78879 6.86482 4.31322 6.54988 4.7592C6.52166 4.79643 6.66891 4.56768 4.39453 8.1365L2.27049 4.80361ZM4.39453 9.41406C2.08996 9.41406 0.585938 8.73666 0.585938 8.24219C0.585938 7.90984 1.35875 7.36338 3.07125 7.15037L4.14746 8.8391C4.20125 8.92352 4.29441 8.97461 4.39451 8.97461C4.49461 8.97461 4.58779 8.9235 4.64156 8.8391L5.71775 7.15037C7.43029 7.36338 8.20312 7.90984 8.20312 8.24219C8.20312 8.73246 6.71264 9.41406 4.39453 9.41406Z" fill="#082133"/>
</svg>
