<svg width="12" height="12" viewBox="0 0 12 12" fill="none" xmlns="http://www.w3.org/2000/svg">
<path fill-rule="evenodd" clip-rule="evenodd" d="M6.23814 5.73888C6.31382 5.73882 6.38778 5.71634 6.45068 5.67427C6.51358 5.63219 6.5626 5.57242 6.59155 5.50251C6.6205 5.43259 6.62808 5.35566 6.61333 5.28144C6.59858 5.20721 6.56217 5.13903 6.50868 5.08549L6.35976 4.93692L6.83913 4.13669L6.92371 4.22083C6.99489 4.29185 7.09136 4.33168 7.1919 4.33157C7.29244 4.33146 7.38882 4.29141 7.45984 4.22024C7.53085 4.14906 7.57068 4.05259 7.57057 3.95205C7.57046 3.85151 7.53041 3.75513 7.45924 3.68412L6.511 2.73785C6.43973 2.66698 6.34326 2.62726 6.24274 2.62741C6.14223 2.62755 6.04587 2.66755 5.9748 2.73862C5.90385 2.80983 5.86404 2.90629 5.86413 3.00682C5.86421 3.10734 5.90417 3.20373 5.97525 3.27483L6.05606 3.35555L5.25698 3.83669L5.10932 3.68939C5.07387 3.65386 5.03173 3.62569 4.98534 3.60653C4.93894 3.58736 4.88922 3.57756 4.83902 3.57771H4.83857C4.76291 3.57782 4.68897 3.60036 4.62611 3.64247C4.56325 3.68459 4.51428 3.74439 4.48539 3.81432C4.4565 3.88425 4.44898 3.96118 4.46379 4.03538C4.4786 4.10959 4.51507 4.17773 4.5686 4.23122L5.15146 4.81265L4.4774 5.48815C4.46218 5.5034 4.45011 5.5215 4.44188 5.54141C4.43365 5.56133 4.42943 5.58267 4.42945 5.60422C4.42947 5.62577 4.43373 5.6471 4.442 5.667C4.45026 5.6869 4.46236 5.70498 4.47761 5.7202C4.49286 5.73542 4.51096 5.74749 4.53088 5.75572C4.55079 5.76395 4.57214 5.76818 4.59368 5.76816C4.61523 5.76814 4.63657 5.76387 4.65647 5.75561C4.67637 5.74734 4.69444 5.73524 4.70967 5.71999L5.38373 5.04447L5.96803 5.62711C6.0035 5.6626 6.04562 5.69075 6.09199 5.70993C6.13836 5.72911 6.18806 5.73895 6.23824 5.73888H6.23814ZM6.20697 2.97054C6.21659 2.96104 6.22955 2.95572 6.24307 2.95572C6.25658 2.95572 6.26954 2.96104 6.27916 2.97054L7.22751 3.91638C7.23691 3.92604 7.24219 3.93897 7.24223 3.95244C7.24228 3.96591 7.23708 3.97888 7.22775 3.98859C7.21799 3.9979 7.20502 4.0031 7.19153 4.0031C7.17805 4.0031 7.16508 3.9979 7.15532 3.98859L6.20697 3.04263C6.19755 3.033 6.19228 3.02006 6.19228 3.00658C6.19228 2.99311 6.19755 2.98017 6.20697 2.97054ZM6.29564 3.59442L6.59995 3.89789L6.12037 4.69812L5.49649 4.07557L6.29571 3.59442H6.29564ZM4.78432 3.96026C4.7843 3.95307 4.78571 3.94595 4.78846 3.93931C4.79122 3.93266 4.79525 3.92663 4.80035 3.92156C4.80537 3.91651 4.81135 3.91252 4.81794 3.90983C4.82453 3.90713 4.83159 3.90578 4.83871 3.90586C4.84589 3.90577 4.853 3.90711 4.85964 3.90981C4.86629 3.91251 4.87233 3.9165 4.87741 3.92156L6.27684 5.31778C6.28188 5.3228 6.28587 5.32879 6.28857 5.33538C6.29126 5.34197 6.29262 5.34903 6.29254 5.35615C6.29263 5.36332 6.29129 5.37043 6.28859 5.37708C6.28589 5.38372 6.2819 5.38976 6.27684 5.39484C6.26653 5.40489 6.2527 5.41051 6.23831 5.41051C6.22391 5.41051 6.21009 5.40489 6.19978 5.39484L4.80035 3.99872C4.79525 3.9937 4.79121 3.98771 4.78845 3.9811C4.7857 3.9745 4.78429 3.96741 4.78432 3.96026ZM8.80087 4.19794C8.80087 4.75188 8.63661 5.29338 8.32885 5.75397C8.0211 6.21455 7.58368 6.57353 7.0719 6.78552C6.56013 6.9975 5.99698 7.05297 5.45368 6.9449C4.91039 6.83683 4.41133 6.57008 4.01964 6.17839C3.62794 5.78669 3.36119 5.28764 3.25312 4.74434C3.14506 4.20104 3.20052 3.6379 3.41251 3.12612C3.62449 2.61435 3.98347 2.17692 4.44406 1.86917C4.90465 1.56142 5.44615 1.39715 6.00009 1.39715C6.74264 1.39801 7.45453 1.69337 7.9796 2.21843C8.50466 2.74349 8.80001 3.45539 8.80087 4.19794ZM9.37432 9.20775C9.89371 9.50414 10.1682 9.86512 10.1682 10.2518C10.1682 10.7468 9.71496 11.199 8.89174 11.5245C8.11673 11.831 7.08965 12 6.00011 12C4.91057 12 3.88317 11.831 3.10793 11.5245C2.28482 11.199 1.83154 10.7468 1.83154 10.2518C1.83154 9.86465 2.10693 9.50301 2.62779 9.20627C3.05718 8.96184 3.6344 8.7708 4.30591 8.6494L3.05496 7.05848C2.35603 6.16896 1.95698 5.11148 1.93183 4.08044C1.90486 2.97288 2.29788 1.98007 3.06825 1.20972C3.84727 0.434924 4.90133 0 6.00005 0C7.09878 0 8.15283 0.434924 8.93186 1.20972C9.70223 1.98007 10.095 2.97288 10.0681 4.08044C10.0431 5.11151 9.64385 6.16898 8.94468 7.05853L7.69385 8.64944C8.36681 8.77106 8.94503 8.96254 9.37432 9.20777V9.20775ZM8.77113 11.2193C9.45049 10.9504 9.84009 10.598 9.84009 10.2518C9.84009 9.70193 8.86387 9.16507 7.46322 8.94283L6.12902 10.6399C6.11369 10.6595 6.0941 10.6753 6.07174 10.6862C6.04938 10.6971 6.02483 10.7028 5.99995 10.7028C5.97507 10.7028 5.95052 10.6971 5.92816 10.6862C5.9058 10.6753 5.88621 10.6595 5.87088 10.6399L4.53656 8.94283C3.13589 9.16507 2.15979 9.70169 2.15979 10.2518C2.15979 10.598 2.54962 10.9504 3.2291 11.2193C3.96642 11.5111 4.95049 11.6718 6.00011 11.6718C7.04974 11.6718 8.03348 11.511 8.77113 11.2192V11.2193ZM3.3003 1.44164C4.01683 0.726661 4.98772 0.325121 5.99995 0.325121C7.01218 0.325121 7.98307 0.726661 8.6996 1.44164H8.69981C10.0986 2.84041 10.0932 5.06672 8.68666 6.8557L6.00011 10.2732L3.31312 6.85575C1.90673 5.06672 1.90153 2.84041 3.3003 1.44164Z" fill="#141005"/>
</svg>
