<svg width="12" height="15" viewBox="0 0 12 15" fill="none" xmlns="http://www.w3.org/2000/svg">
<path d="M9.33333 14.6668H2.66667C1.95965 14.6661 1.28181 14.3849 0.781881 13.8849C0.281947 13.385 0.00075353 12.7072 0 12.0002V8.00016C0.00075353 7.29315 0.281947 6.61531 0.781881 6.11538C1.28181 5.61544 1.95965 5.33425 2.66667 5.3335H9.33333C10.0403 5.33425 10.7182 5.61544 11.2181 6.11538C11.7181 6.61531 11.9992 7.29315 12 8.00016V12.0002C11.9992 12.7072 11.7181 13.385 11.2181 13.8849C10.7182 14.3849 10.0403 14.6661 9.33333 14.6668ZM2.66667 6.66683C2.31317 6.66723 1.97426 6.80784 1.7243 7.0578C1.47434 7.30776 1.33374 7.64666 1.33333 8.00016V12.0002C1.33374 12.3537 1.47434 12.6926 1.7243 12.9425C1.97426 13.1925 2.31317 13.3331 2.66667 13.3335H9.33333C9.68683 13.3331 10.0257 13.1925 10.2757 12.9425C10.5257 12.6926 10.6663 12.3537 10.6667 12.0002V8.00016C10.6663 7.64666 10.5257 7.30776 10.2757 7.0578C10.0257 6.80784 9.68683 6.66723 9.33333 6.66683H2.66667Z" fill="#666666"/>
<path d="M8.99967 6.66667H2.99967C2.91212 6.66669 2.82542 6.64946 2.74453 6.61597C2.66363 6.58247 2.59013 6.53337 2.52822 6.47146C2.46631 6.40955 2.4172 6.33604 2.38371 6.25515C2.35021 6.17426 2.33299 6.08755 2.33301 6V3.66667C2.33301 2.69421 2.71932 1.76158 3.40695 1.07394C4.09458 0.386309 5.02721 0 5.99967 0C6.97214 0 7.90477 0.386309 8.5924 1.07394C9.28003 1.76158 9.66634 2.69421 9.66634 3.66667V6C9.66636 6.08755 9.64914 6.17426 9.61564 6.25515C9.58215 6.33604 9.53304 6.40955 9.47113 6.47146C9.40922 6.53337 9.33572 6.58247 9.25482 6.61597C9.17393 6.64946 9.08723 6.66669 8.99967 6.66667ZM3.66634 5.33333H8.33301V3.66667C8.33301 3.04783 8.08718 2.45434 7.64959 2.01675C7.21201 1.57917 6.61851 1.33333 5.99967 1.33333C5.38084 1.33333 4.78734 1.57917 4.34976 2.01675C3.91217 2.45434 3.66634 3.04783 3.66634 3.66667V5.33333Z" fill="#666666"/>
<path d="M6 10.3335C6.55228 10.3335 7 9.88578 7 9.3335C7 8.78121 6.55228 8.3335 6 8.3335C5.44772 8.3335 5 8.78121 5 9.3335C5 9.88578 5.44772 10.3335 6 10.3335Z" fill="#666666"/>
</svg>
