<svg width="241" height="241" viewBox="0 0 241 241" fill="none" xmlns="http://www.w3.org/2000/svg">
<path d="M110.486 0.0475712C63.8227 -1.29379 8.0541 25.8856 0.796473 62.0487C-6.4936 98.3739 38.9503 124.895 27.8743 172.945C22.4292 196.567 8.90584 201.179 12.7334 213.002C21.843 241.142 111.447 255.164 175.678 217.408C186.321 211.152 234.101 183.066 239.883 133.257C247.368 68.7731 180.498 2.06004 110.486 0.0475712Z" fill="#F4EBD7"/>
<path d="M170.552 176.485C171.716 182.541 167.969 187.377 164.761 190.461C164.211 190.328 163.855 190.401 163.267 190.398C157.963 190.371 155.771 189.168 150.595 188.272C149.481 188.079 146.432 186.455 145.232 185.705L143.017 184.267C143.017 184.267 142.003 169.99 149.665 168.021C157.326 166.052 158.009 152.263 159.225 144.953C162.525 125.119 183.106 132.113 189.384 106.964C191.054 100.276 192.002 86.9613 198.967 83.0349C206.903 78.5616 210.114 85.6836 215.508 81.6341C223.939 75.305 235.127 75.0642 239.344 84.7835C243.505 94.376 232.025 108.557 210.195 116.821C195.206 124.524 194.212 127.699 193.23 135.787C192.542 141.453 194.225 157.076 185.342 160.939C176.46 164.801 169.221 169.562 170.552 176.485Z" fill="#DFC486"/>
<mask id="mask0_1938_10241" style="mask-type:luminance" maskUnits="userSpaceOnUse" x="143" y="77" width="98" height="118">
<path d="M160.408 194.099L143.305 184.849C143.305 184.849 142.002 169.99 149.663 168.021C157.325 166.052 158.007 152.263 159.224 144.953C162.524 125.119 183.105 132.113 189.383 106.964C191.053 100.276 192.001 86.9612 198.966 83.0348C206.902 78.5615 210.113 85.6835 215.507 81.6341C223.938 75.305 235.126 75.0642 239.343 84.7835C243.504 94.376 232.024 108.557 210.194 116.821C195.205 124.524 194.211 127.699 193.229 135.787C192.541 141.453 194.224 157.076 185.341 160.939C176.459 164.801 169.22 169.562 170.551 176.485C172.576 187.019 160.408 194.099 160.408 194.099Z" fill="white"/>
</mask>
<g mask="url(#mask0_1938_10241)">
<g opacity="0.5">
<path d="M153.192 189.134L152.832 188.996C153.658 186.853 154.517 184.701 155.386 182.602C161.819 167.056 169.471 152.674 178.129 139.854C185.465 128.992 193.625 119.096 202.381 110.443C209.422 103.484 216.886 97.2874 224.565 92.0245C229.964 88.3249 235.411 85.1214 240.758 82.5035C241.689 82.0471 242.668 81.6325 243.614 81.2315C244.874 80.6973 246.178 80.1449 247.381 79.4893L247.565 79.8278C246.346 80.4925 245.033 81.0487 243.764 81.5865C242.823 81.9855 241.849 82.3981 240.927 82.8498C235.598 85.4594 230.166 88.6533 224.783 92.3426C217.123 97.5924 209.677 103.775 202.652 110.717C193.914 119.353 185.771 129.228 178.449 140.07C169.805 152.868 162.165 167.227 155.742 182.749C154.874 184.846 154.016 186.994 153.192 189.134Z" fill="#FCFDFE"/>
<path d="M192.436 121.684L192.137 121.441C202.571 108.6 203.26 80.255 203.265 79.9702L203.651 79.9779C203.645 80.2641 202.954 108.74 192.436 121.684Z" fill="#FCFDFE"/>
<path d="M166.394 160.164L166.068 159.957C172.139 150.401 193.648 147.207 193.865 147.176L193.92 147.558C193.705 147.589 172.369 150.757 166.394 160.164Z" fill="#FCFDFE"/>
<path d="M163.419 165.883L163.062 165.737C165.859 158.897 166.019 148.074 163.511 135.262C163.385 134.618 163.385 134.618 163.412 134.55L163.771 134.692L163.591 134.621L163.783 134.619C163.787 134.663 163.834 134.906 163.89 135.188C166.411 148.073 166.245 158.974 163.419 165.883Z" fill="#FCFDFE"/>
<path d="M154.755 185.245L154.455 185.003C159.563 178.665 171.636 178.664 171.757 178.665L171.755 179.051C171.635 179.05 159.746 179.052 154.755 185.245Z" fill="#FCFDFE"/>
<path d="M152.618 189.023C152.753 182.461 151.008 175.645 147.283 168.187L147.628 168.014C151.381 175.53 153.14 182.405 153.004 189.031L152.618 189.023Z" fill="#FCFDFE"/>
<path d="M220.312 95.5163L220.027 95.257C226.227 88.441 231.16 79.8434 232.781 77.0182C233.173 76.3343 233.312 76.0941 233.375 76.0188L233.671 76.2661C233.623 76.3242 233.399 76.7152 233.115 77.2102C231.489 80.0444 226.54 88.6693 220.312 95.5163Z" fill="#FCFDFE"/>
<path d="M208.593 105.108L208.396 104.776C215.834 100.379 232.555 104.737 233.263 104.924L233.165 105.297C232.993 105.251 215.892 100.794 208.593 105.108Z" fill="#FCFDFE"/>
</g>
</g>
<mask id="mask1_1938_10241" style="mask-type:luminance" maskUnits="userSpaceOnUse" x="150" y="116" width="91" height="90">
<path d="M151.409 196.073L166.642 205.359C166.642 205.359 174.272 199.293 173.901 191.503C173.143 175.609 187.116 176.055 192.997 175.366C201.865 174.327 209.227 169.544 202.193 161.22C195.159 152.896 212.37 144.623 226.933 145.009C241.185 145.387 250.081 120.272 219.31 116.621C200.934 114.441 193.899 131.045 188.353 138.585C182.807 146.125 170.563 139.565 168.686 151.763C167.084 162.181 169.968 172.249 161.467 174.902C152.965 177.554 148.541 183.642 151.409 196.073Z" fill="white"/>
</mask>
<g mask="url(#mask1_1938_10241)">
<path d="M151.409 196.073L166.642 205.359C166.642 205.359 174.272 199.293 173.901 191.503C173.143 175.609 187.116 176.055 192.997 175.366C201.865 174.327 208.211 169.869 203.392 161.53C197.939 152.094 212.37 144.623 226.933 145.009C241.185 145.387 250.081 120.272 219.31 116.621C200.934 114.441 193.899 131.045 188.353 138.585C182.807 146.125 170.563 139.565 168.686 151.763C167.084 162.181 169.968 172.249 161.467 174.902C152.965 177.554 148.541 183.642 151.409 196.073Z" fill="#F4EBD7"/>
</g>
<mask id="mask2_1938_10241" style="mask-type:luminance" maskUnits="userSpaceOnUse" x="150" y="116" width="91" height="90">
<path d="M151.409 196.073L166.642 205.359C166.642 205.359 174.272 199.293 173.901 191.503C173.143 175.609 187.116 176.055 192.997 175.366C201.865 174.327 209.227 169.544 202.193 161.22C195.159 152.896 212.37 144.623 226.933 145.009C241.185 145.387 250.081 120.272 219.31 116.621C200.934 114.441 193.899 131.045 188.353 138.585C182.807 146.125 170.563 139.565 168.686 151.763C167.084 162.181 169.968 172.249 161.467 174.902C152.965 177.554 148.541 183.642 151.409 196.073Z" fill="white"/>
</mask>
<g mask="url(#mask2_1938_10241)">
<g opacity="0.5">
<path d="M157.143 201.506L157.494 201.641C157.578 201.423 166.017 179.648 180.893 160.584C194.597 143.021 216.727 124.232 244.329 134.461L244.46 134.108C232.173 129.554 219.93 130.273 208.073 136.243C198.601 141.012 189.354 149.126 180.591 160.358C165.683 179.466 157.226 201.288 157.143 201.506Z" fill="#D3E9F8"/>
<path d="M203.225 138.952L203.568 139.107C208.72 127.68 221.963 115.06 222.096 114.933L221.837 114.66C221.703 114.787 208.407 127.458 203.225 138.952Z" fill="#D3E9F8"/>
<path d="M211.234 135.191C226.17 135.045 234.311 144.446 234.392 144.541L234.679 144.298C234.598 144.201 226.35 134.667 211.23 134.814L211.234 135.191Z" fill="#D3E9F8"/>
<path d="M171.844 173.577C184.681 160.608 207.568 169.459 207.784 169.564L207.97 169.237C207.768 169.114 184.527 160.228 171.576 173.312L171.844 173.577Z" fill="#D3E9F8"/>
<path d="M175.662 167.092L176.016 167.218C179.926 156.25 173.449 143.115 173.383 142.983L173.047 143.152C173.112 143.282 179.517 156.276 175.662 167.092Z" fill="#D3E9F8"/>
<path d="M158.897 198.243C162.958 192.625 174.231 193.088 174.344 193.094L174.362 192.718C173.891 192.695 162.772 192.239 158.592 198.023L158.897 198.243Z" fill="#D3E9F8"/>
<path d="M160.826 193.06L161.176 193.199C163.201 188.106 159.36 178.715 158.098 175.63C157.92 175.194 157.766 174.817 157.751 174.745L157.381 174.812C157.399 174.915 157.501 175.165 157.749 175.772C158.997 178.823 162.795 188.108 160.826 193.06Z" fill="#D3E9F8"/>
</g>
</g>
<path d="M178.315 210.174C178.241 210.189 178.168 210.203 178.094 210.217C173.741 211.044 168.838 211.18 163.36 210.183C162.306 209.913 161.252 209.643 160.198 209.374C159.864 206.657 160.033 204.013 163.481 203.745C168.836 203.329 170.872 194.51 170.171 191.083C169.302 186.84 167.484 176.921 175.752 176.148C182.635 175.504 187.209 176.496 189.455 168.299C191.702 160.102 197.349 155.907 204.765 158.028C212.568 160.261 221.34 151.128 227.063 156.056C237.034 164.644 222.84 180.707 207.951 183.028C193.061 185.349 199.873 192.007 198.775 198.875C197.275 208.252 185.175 203.56 181.078 206.485C179.69 207.475 178.834 208.793 178.315 210.174Z" fill="#D3E9F8"/>
<mask id="mask3_1938_10241" style="mask-type:luminance" maskUnits="userSpaceOnUse" x="160" y="154" width="71" height="62">
<path d="M177.575 215.36L160.355 211.492C159.9 208.829 159.629 204.044 163.481 203.745C168.836 203.329 170.872 194.51 170.171 191.083C169.303 186.84 167.484 176.921 175.752 176.147C182.636 175.504 187.209 176.495 189.455 168.299C191.702 160.102 197.349 155.906 204.765 158.028C212.569 160.26 221.341 151.128 227.063 156.056C237.035 164.644 222.84 180.707 207.951 183.028C193.062 185.349 199.873 192.007 198.775 198.875C197.275 208.252 185.175 203.56 181.078 206.485C177.866 208.777 177.495 212.82 177.575 215.36Z" fill="white"/>
</mask>
<g mask="url(#mask3_1938_10241)">
<g opacity="0.5">
<path d="M170.075 210.83L169.725 210.675C181.008 185.094 204.651 165.113 231.428 158.531L231.519 158.902C204.855 165.456 181.311 185.354 170.075 210.83Z" fill="#FCFDFE"/>
<path d="M177.421 197.41L177.047 197.327C179.409 186.596 172.063 176.21 171.988 176.106L172.299 175.883C172.374 175.988 179.82 186.509 177.421 197.41Z" fill="#FCFDFE"/>
<path d="M172.28 206.181L171.99 205.931C179.263 197.493 199.329 200.487 199.531 200.519L199.473 200.897C199.273 200.866 179.414 197.903 172.28 206.181Z" fill="#FCFDFE"/>
<path d="M195.802 177.083L195.492 176.859C200.669 169.697 198.183 156.376 198.157 156.242L198.532 156.169C198.558 156.305 201.075 169.788 195.802 177.083Z" fill="#FCFDFE"/>
<path d="M210.489 167.103L210.363 166.741C219.875 163.436 232.226 169.136 232.349 169.194L232.187 169.541C232.065 169.483 219.852 163.848 210.489 167.103Z" fill="#FCFDFE"/>
</g>
</g>
<path d="M9.78711 11.9712V215.998C9.78711 219.887 12.5409 223.267 16.4416 224.166L33.5213 228.1C35.1461 228.474 36.8117 228.655 38.4812 228.637C38.6122 228.636 38.7433 228.628 38.8737 228.615L41.5257 228.358L57.5563 56.9121L36.6831 1.23511L17.3389 3.64447C13.0211 4.18217 9.78711 7.74796 9.78711 11.9712Z" fill="#C19632"/>
<path d="M30.5859 8.54802V221.265C30.5859 225.512 34.3031 228.866 38.6697 228.558L155.334 216.653C159.276 216.376 162.327 213.193 162.327 209.359V13.5228C162.327 9.60881 159.15 6.38875 155.12 6.21678L38.4553 1.24206C34.1662 1.0592 30.5859 4.38306 30.5859 8.54802Z" fill="#A27E2A"/>
<path d="M21.7372 219.495V10.1158C21.7372 6.97732 24.176 3.79357 27.2058 2.41504L23.7396 2.84679C20.653 3.94476 18.502 6.80957 18.502 10.1158V219.495C18.502 221.751 19.5068 223.816 21.1414 225.248L26.0626 226.381C23.4573 225.077 21.7372 222.449 21.7372 219.495Z" fill="#141005"/>
<path d="M48.5449 27.0875V148.871C48.5449 152.41 51.5028 155.28 55.1513 155.28L141.309 152.17C144.957 152.17 147.915 149.3 147.915 145.761V30.0864C147.915 26.6625 145.141 23.8433 141.616 23.6843L55.4583 20.6853C51.6933 20.5154 48.5449 23.4309 48.5449 27.0875Z" fill="#082133"/>
<path d="M144.928 145.761V30.0865C144.928 26.6626 142.154 23.8434 138.629 23.6843L54.105 20.759C50.9683 21.2434 48.5449 23.8798 48.5449 27.0874V148.871C48.5449 152.41 51.5028 155.28 55.1513 155.28L138.322 152.17C141.971 152.17 144.928 149.3 144.928 145.761Z" fill="#082133"/>
<path d="M102.185 14.592C102.185 16.3097 101.3 17.7021 100.208 17.7021C99.1157 17.7021 98.2305 16.3097 98.2305 14.592C98.2305 12.8744 99.1157 11.4819 100.208 11.4819C101.3 11.4819 102.185 12.8744 102.185 14.592Z" fill="url(#paint0_linear_1938_10241)"/>
<path d="M126.883 82.5049L73.963 83.3847C69.9353 83.4517 66.6582 86.5837 66.6582 90.3801V123.708C66.6582 127.504 69.9352 130.45 73.963 130.288L126.883 128.163C130.685 128.01 133.756 124.913 133.756 121.244V89.034C133.756 85.365 130.685 82.4417 126.883 82.5049Z" fill="white"/>
<path d="M126.118 79.1838C124.515 79.2077 123.214 77.9707 123.214 76.4209V69.1267C123.214 61.8091 117.024 55.8737 109.362 55.8958L92.1218 55.9456C84.262 55.9683 77.8214 62.0792 77.8214 69.5676V77.0321C77.8214 78.6182 76.4568 79.9242 74.7708 79.9494C73.0821 79.9745 71.7109 78.7053 71.7109 77.1144V69.627C71.7109 58.9389 80.9192 50.2434 92.1218 50.2434H109.362C120.247 50.2434 129.014 58.6892 129.014 69.0704V76.3428C129.013 77.888 127.718 79.16 126.118 79.1838Z" fill="white"/>
<path d="M108.985 100.975C108.985 97.2713 105.752 94.3635 101.822 94.6306C98.3457 94.8668 95.4714 97.6502 95.2837 100.974C95.1381 103.553 96.5553 105.782 98.7098 106.909C99.6263 107.389 100.081 108.4 99.9033 109.399L98.3922 117.879C98.1998 118.958 99.0679 119.907 100.21 119.866L104.093 119.727C105.229 119.687 106.091 118.68 105.9 117.618L104.39 109.217C104.21 108.215 104.731 107.22 105.65 106.67C107.648 105.476 108.985 103.357 108.985 100.975Z" fill="#082133"/>
<path opacity="0.3" d="M94.9005 186.393C94.9005 198.232 84.961 208.572 72.5511 209.5C59.9737 210.441 49.6523 201.38 49.6523 189.25C49.6523 177.12 59.9736 166.755 72.5511 166.107C84.961 165.468 94.9005 174.554 94.9005 186.393Z" fill="#082133"/>
<path d="M80.8295 183.17C80.3017 183.203 79.8735 182.816 79.8735 182.308V179.913C79.8735 177.512 77.8421 175.673 75.3391 175.815L69.7542 176.133C67.2293 176.276 65.1701 178.362 65.1701 180.783V183.196C65.1701 183.709 64.7349 184.151 64.1978 184.184C63.6604 184.217 63.2246 183.827 63.2246 183.314V180.898C63.2246 177.45 66.1595 174.481 69.7542 174.28L75.3391 173.969C78.8986 173.77 81.7845 176.387 81.7845 179.801V182.192C81.7845 182.7 81.3571 183.138 80.8295 183.17Z" fill="white"/>
<path d="M81.083 184.25L63.942 185.305C62.662 185.383 61.623 186.439 61.623 187.661V198.395C61.623 199.618 62.6619 200.537 63.942 200.448L81.083 199.254C82.338 199.167 83.354 198.117 83.354 196.908V186.299C83.354 185.09 82.338 184.173 81.083 184.25ZM73.6859 192.754C73.3877 192.944 73.2186 193.274 73.2771 193.599L73.7672 196.321C73.8292 196.666 73.5493 197.003 73.1807 197.028L71.9227 197.114C71.5533 197.139 71.2728 196.84 71.335 196.486L71.8235 193.71C71.8811 193.383 71.734 193.059 71.4376 192.914C70.7418 192.573 70.2846 191.865 70.3316 191.025C70.3921 189.942 71.32 189 72.4444 188.878C73.7191 188.739 74.7702 189.645 74.7702 190.855C74.7702 191.632 74.3352 192.34 73.6859 192.754Z" fill="white"/>
<path d="M148.66 182.998C148.66 194.491 139.294 204.509 127.604 205.383C115.762 206.269 106.047 197.456 106.047 185.689C106.047 173.921 115.762 163.882 127.604 163.272C139.294 162.67 148.66 171.505 148.66 182.998Z" fill="#082133"/>
<path d="M134.595 179.867C134.155 179.663 133.986 179.133 134.218 178.682L135.31 176.562C136.404 174.437 135.606 171.923 133.527 170.953L128.893 168.79C126.799 167.813 124.191 168.751 123.082 170.887L121.976 173.018C121.74 173.471 121.187 173.672 120.741 173.465C120.293 173.259 120.122 172.723 120.358 172.27L121.466 170.137C123.046 167.097 126.76 165.765 129.738 167.158L134.368 169.324C137.321 170.706 138.455 174.28 136.901 177.3L135.812 179.419C135.58 179.87 135.035 180.07 134.595 179.867Z" fill="white"/>
<path d="M135.641 180.894L119.498 181.887C118.293 181.962 117.314 182.984 117.314 184.17V194.585C117.314 195.771 118.293 196.665 119.498 196.581L135.641 195.457C136.823 195.375 137.78 194.357 137.78 193.184V182.887C137.78 181.714 136.823 180.822 135.641 180.894ZM128.673 189.134C128.392 189.318 128.233 189.638 128.288 189.953L128.75 192.596C128.808 192.931 128.544 193.257 128.197 193.281L127.013 193.362C126.665 193.385 126.4 193.094 126.459 192.751L126.919 190.058C126.973 189.741 126.835 189.426 126.556 189.285C125.9 188.952 125.47 188.265 125.514 187.45C125.571 186.399 126.445 185.487 127.504 185.37C128.705 185.237 129.694 186.119 129.694 187.293C129.694 188.047 129.285 188.734 128.673 189.134Z" fill="white"/>
<path opacity="0.3" d="M155.119 6.21685L57.5703 2.05713C57.5973 3.186 57.6757 4.33308 57.8201 5.49801C60.4421 26.6663 80.7967 30.0476 88.6325 53.6237C95.8127 75.227 81.3717 80.3596 89.865 99.3582C97.8239 117.161 112.687 117.536 121.602 140.011C125.514 149.873 123.54 180.332 126.84 190.723C129.663 199.613 134.951 206.412 145.225 217.364L155.333 216.653C159.275 216.376 162.326 213.193 162.326 209.359V13.5228C162.326 9.60879 159.15 6.38873 155.119 6.21685Z" fill="white"/>
<path d="M147.117 148.593L101.512 56.1385C100.65 54.3895 101.469 52.2769 103.285 51.5662L162.359 28.4494C163.937 27.832 165.726 28.4982 166.517 29.9968L213.437 118.991C214.337 120.699 213.6 122.812 211.833 123.59L151.443 150.167C149.812 150.885 147.905 150.191 147.117 148.593Z" fill="#D3E9F8"/>
<path d="M147.382 147.587L101.778 55.1323C100.915 53.3834 101.734 51.2707 103.55 50.56L162.625 27.4433C164.202 26.8259 165.992 27.4921 166.782 28.9907L213.702 117.985C214.603 119.693 213.866 121.806 212.099 122.584L151.709 149.161C150.078 149.879 148.171 149.185 147.382 147.587Z" fill="#082133"/>
<path d="M146.52 74.6706L154.888 91.6788L156.769 90.7533L158.259 93.7821L156.379 94.7076L157.124 96.2221L159.005 95.2966L159.865 97.0441L157.984 97.9696L159.187 100.416L160.078 99.9777L161.626 103.123L160.735 103.561L161.423 104.959L163.153 104.108L164.999 107.86L163.269 108.711L164.69 111.6L166.571 110.674L168.09 113.761L166.209 114.687L167.977 118.28C168.186 118.705 168.542 119.038 168.98 119.218L176.058 122.131C176.94 122.494 177.955 122.162 178.452 121.348L180.569 117.881C180.915 117.314 180.947 116.609 180.654 116.013L159.343 72.7021L146.52 74.6706Z" fill="white"/>
<path d="M139.459 46.31C129.133 51.391 124.881 63.881 129.962 74.2075C135.043 84.5339 147.533 88.786 157.859 83.7051C168.186 78.6241 172.438 66.1341 167.357 55.8076C162.276 45.4812 149.786 41.229 139.459 46.31ZM146.395 60.406C144.304 61.4349 141.775 60.5737 140.746 58.4827C139.717 56.3918 140.578 53.8625 142.669 52.8337C144.76 51.8049 147.29 52.666 148.318 54.7569C149.347 56.8479 148.486 59.3771 146.395 60.406Z" fill="white"/>
<path opacity="0.17" d="M167.357 55.8076C162.276 45.4812 149.786 41.229 139.459 46.31C129.133 51.391 124.881 63.881 129.962 74.2075C134.092 82.6007 143.116 86.9808 151.895 85.5985L152.792 87.4217C155.127 86.2145 156.623 86.3012 157.607 86.7234C160.372 87.9099 159.232 91.7658 162.592 97.1489C165.411 101.665 167.671 101.286 169.736 105.788C171.182 108.939 170.715 110.519 171.43 113.347C172.065 115.858 173.536 118.97 177.024 122.26C177.598 122.192 178.131 121.871 178.451 121.348L180.567 117.881C180.913 117.314 180.945 116.61 180.652 116.014L162.999 80.1353C169.45 74.0232 171.487 64.2008 167.357 55.8076ZM142.669 52.8337C144.76 51.8049 147.29 52.666 148.318 54.7569C149.347 56.8478 148.486 59.3771 146.395 60.406C144.304 61.4349 141.775 60.5737 140.746 58.4827C139.717 56.3918 140.578 53.8626 142.669 52.8337Z" fill="#D3E9F8"/>
<path opacity="0.17" d="M141.266 49.9796C132.967 54.0633 129.549 64.102 133.633 72.4018C137.716 80.7016 147.755 84.1191 156.055 80.0354C164.355 75.9517 167.772 65.9129 163.688 57.6131C159.605 49.3134 149.566 45.8957 141.266 49.9796ZM146.396 60.4059C144.305 61.4348 141.776 60.5736 140.747 58.4826C139.718 56.3917 140.579 53.8624 142.67 52.8336C144.761 51.8048 147.291 52.666 148.319 54.7568C149.348 56.8479 148.487 59.3771 146.396 60.4059Z" fill="#082133"/>
<path opacity="0.3" d="M213.703 117.985L166.783 28.9907C165.993 27.492 164.203 26.8259 162.626 27.4433L139.674 36.4246C139.558 37.9622 139.581 39.5799 139.804 41.2552C142.078 58.3729 162.172 59.4898 167.12 77.2914C170.712 90.2149 164.982 107.115 159.931 116.473C157.228 121.48 154.489 124.753 153.756 130.833C153.041 136.774 154.617 142.269 156.875 146.888L212.099 122.584C213.867 121.806 214.604 119.693 213.703 117.985Z" fill="#FAF5EB"/>
<path d="M118.492 93.6834L116.605 91.4959C116.605 91.4959 115.223 89.4097 116.448 86.6835C117.673 83.9573 119.017 84.8245 119.017 84.8245L118.49 86.77C118.49 86.77 118.142 88.0244 119.234 89.7053C120.175 91.695 120.258 93.1734 120.258 93.1734L118.492 93.6834Z" fill="url(#paint1_linear_1938_10241)"/>
<path d="M202.71 107.87L205.155 105.959L206.452 102.257C206.452 102.257 209.172 103.567 207.381 107.019C206.317 108.136 203.788 109.742 202.641 111.407C201.494 113.072 202.71 107.87 202.71 107.87Z" fill="url(#paint2_linear_1938_10241)"/>
<path d="M178.262 131.545C178.262 131.545 189.756 125.564 192.608 123.342C195.582 121.024 203.632 111.864 204.353 110.765C205.074 109.666 202.633 107.181 202.633 107.181C202.633 107.181 188.681 122.199 172.984 116.305C175.109 122.223 178.262 131.545 178.262 131.545Z" fill="#C19632"/>
<path d="M172.943 225.442C172.943 225.442 174.586 230.663 173.889 232.873C176.057 232.99 177.478 232.818 177.478 232.818C177.478 232.818 176.778 230.44 176.693 229.282C176.578 227.717 176.78 225.213 176.78 225.213L172.943 225.442Z" fill="url(#paint3_linear_1938_10241)"/>
<path d="M149.844 235.667C149.963 235.834 150.17 236.18 150.156 236.627C150.149 236.87 150.079 237.065 149.996 237.243C149.586 238.122 149.037 238.202 148.383 239.119C147.984 239.679 148.038 239.861 147.693 240.102C147.237 240.419 146.716 240.4 146.265 240.372C145.502 240.325 144.408 240.217 143.039 239.951C143.831 239.071 144.671 238.181 145.559 237.285C145.949 236.892 146.338 236.508 146.725 236.135L148.905 235.573C149.218 235.604 149.531 235.636 149.844 235.667Z" fill="#26264F"/>
<path d="M148.837 225.208C148.837 225.208 147.153 231.463 148.57 233.354C149.757 235.228 147.896 233.817 147.896 233.817L145.411 235.682L143.832 237.998C143.832 237.998 145.579 231.883 145.417 229.393C145.254 226.903 145.205 225.228 145.205 225.228L148.837 225.208Z" fill="url(#paint4_linear_1938_10241)"/>
<path d="M162.971 115.525C157.126 114.09 148.428 116.462 139.013 110.559C129.748 104.75 124.608 96.8047 121.644 91.7393C120.149 92.3463 118.655 92.9532 117.16 93.5601C119.298 97.9697 124.401 107.456 131.584 114.328C140.625 122.979 150.009 124.137 154.661 131.001C157.25 128.788 165.823 116.225 162.971 115.525Z" fill="#C19632"/>
<path d="M149.367 155.465C149.367 155.465 145.885 158.147 144.998 170.183C144.111 182.219 143.732 208.467 143.732 208.467L144.83 227.36C144.83 227.36 147.39 227.641 149.148 227.252C151.215 220.317 154.615 208.578 154.146 198.517C154.429 187.647 160.244 174.418 160.244 174.418C160.244 174.418 163.357 188.477 165.773 195.57C168.189 202.663 172.166 224.619 172.568 226.204C175.965 226.766 177.493 225.969 177.493 225.969C177.493 225.969 177.009 202.621 175.592 193.701C174.175 184.78 175.905 163.644 172.91 157.373C165.401 153.708 149.367 155.465 149.367 155.465Z" fill="url(#paint5_linear_1938_10241)"/>
<path d="M149.367 155.465C149.367 155.465 145.885 158.147 144.998 170.183C144.111 182.219 143.732 208.467 143.732 208.467L144.83 227.36C144.83 227.36 147.39 227.641 149.148 227.252C151.215 220.317 154.615 208.578 154.146 198.517C154.429 187.647 160.244 174.418 160.244 174.418C160.244 174.418 163.357 188.477 165.773 195.57C168.189 202.663 172.166 224.619 172.568 226.204C175.965 226.766 177.493 225.969 177.493 225.969C177.493 225.969 177.008 202.621 175.592 193.701C174.174 184.78 175.905 163.644 172.91 157.373C165.401 153.708 149.367 155.465 149.367 155.465Z" fill="#141005"/>
<path opacity="0.25" d="M164.711 178.769C165.242 185.465 167.017 189.18 171.772 194.14C175.622 197.496 172.078 203.892 173.23 209.098C173.627 210.663 175.042 212.304 175.439 213.869C177.055 217.8 174.943 222.306 175.507 226.383C176.858 226.297 177.492 225.969 177.492 225.969C177.492 225.969 177.008 202.621 175.591 193.701C174.174 184.78 175.904 163.644 172.909 157.373C165.4 153.708 149.366 155.465 149.366 155.465C149.366 155.465 145.884 158.147 144.997 170.183C144.925 171.16 144.856 172.231 144.791 173.373C147.961 176.624 154.848 177.802 159.371 174.79C159.644 174.616 159.928 174.517 160.216 174.48C160.232 174.443 160.243 174.418 160.243 174.418C160.243 174.418 160.249 174.443 160.257 174.479C162.23 174.267 164.4 176.969 164.711 178.769Z" fill="url(#paint6_linear_1938_10241)"/>
<path d="M173.218 234.759C173.218 234.759 172.715 234.722 172.709 235.374C172.703 236.026 172.27 238.239 174.817 238.532C177.364 238.825 177.778 238.568 177.862 238.574C177.946 238.58 177.35 236.389 177.35 236.389L176.61 235.282L174.429 234.89L173.218 234.759Z" fill="#26264F"/>
<path d="M178.716 237.417C178.701 236.874 178.462 236.003 178.209 235.298C177.833 234.25 178.231 233.897 177.868 232.942C177.742 232.611 177.62 232.297 177.327 231.974C177.26 231.9 176.603 231.196 175.574 231.154C175.372 231.146 175.06 231.136 174.71 231.29C174.299 231.472 174.077 231.775 173.887 232.041C173.588 232.458 173.64 232.597 173.137 233.82C173.097 233.919 173.008 234.132 172.931 234.43C172.871 234.657 172.84 234.85 172.822 234.982C173.492 235.032 176.06 235.326 176.575 235.764C177.09 236.202 177.313 236.892 177.263 237.562C177.214 238.232 177.526 238.571 177.862 238.574C178.163 238.578 178.798 238.067 178.716 237.417Z" fill="#444B8C"/>
<path d="M147.978 232.415C148.553 232.466 148.941 232.955 149.178 234.082C149.415 235.209 150.871 236.298 149.106 235.933C147.34 235.568 145.859 237.998 145.154 238.885C144.449 239.772 142.678 240.475 142.788 239.566C142.898 238.657 143.683 238.286 143.964 237.368C144.245 236.45 146.667 232.297 147.978 232.415Z" fill="#444B8C"/>
<path d="M168.77 115.568C165.89 115.27 158.604 113.927 154.916 117.107C151.144 120.359 154.391 124.836 153.331 130.576C152.613 134.466 152.597 136.79 151.379 143.148C151.131 144.446 150.776 145.893 150.23 147.634C148.941 151.743 146.629 159.838 145.561 161.824C148.389 163.551 155.766 166.811 164.892 166.134C169.06 165.824 172.46 164.696 174.872 163.642C173.052 156.378 174.206 146.695 175.33 143.261C177.551 136.481 178.138 133.797 183.709 124.222C185.244 121.582 181.964 122.883 180.112 120.33C177.272 116.415 171.675 115.868 168.77 115.568Z" fill="#C19632"/>
<path opacity="0.25" d="M158.865 133.017C159.106 131.753 159.517 129.44 158.547 126.913C158.387 126.495 157.836 125.152 156.716 123.961C154.329 121.422 151.015 121.334 147.264 120.786C144.52 120.384 140.603 119.599 135.832 117.885C142.74 122.962 149.382 124.861 153.485 129.495C153.45 129.85 153.4 130.21 153.332 130.576C152.614 134.466 152.598 136.79 151.38 143.148C151.132 144.446 150.777 145.893 150.231 147.634C148.942 151.743 146.63 159.838 145.562 161.824C148.39 163.551 155.767 166.811 164.893 166.134C169.061 165.824 172.461 164.696 174.873 163.642C174.318 161.424 174.04 158.981 173.953 156.559C170.635 156.299 165.844 155.42 161.014 152.507C158.321 150.883 156.975 150.071 156.256 148.444C154.877 145.321 157.027 142.666 158.865 133.017Z" fill="#C19632"/>
<path d="M166.764 109.476C167.211 107.294 169.056 106.011 169.459 105.737C171.142 104.59 171.476 104.487 172.03 104.423L172.784 104.365C172.784 104.365 172.824 104.369 172.865 104.375C173.3 104.433 174.571 105.041 174.797 105.225C175.518 105.816 174.679 109.562 172.027 114.101C171.907 114.493 171.787 114.885 171.667 115.277C173.65 115.779 174.121 116.178 174.115 116.468C174.103 117.097 171.845 117.735 169.802 117.637C167.241 117.514 164.608 116.214 164.72 115.397C164.766 115.066 165.278 114.692 167.164 114.426C167.484 114.04 167.804 113.653 168.124 113.267C167.885 112.928 166.434 111.083 166.764 109.476Z" fill="url(#paint7_linear_1938_10241)"/>
<path d="M172.146 102.873C171.287 103.598 170.99 104.945 171.154 105.944C171.253 106.542 171.432 106.617 171.377 107C171.224 108.074 169.223 108.399 169.292 108.951C169.342 109.345 170.376 109.279 170.516 109.779C170.67 110.328 169.512 110.705 168.93 112.014C168.839 112.218 168.289 113.456 168.82 114.248C169.316 114.986 170.554 114.911 171.948 114.833C173.487 114.748 174.613 114.378 174.943 114.261C175.984 113.893 177.103 113.497 178.083 112.47C178.315 112.226 179.682 110.748 179.739 108.545C179.813 105.651 177.584 103.011 175.131 102.437C174.734 102.344 173.201 101.985 172.146 102.873Z" fill="url(#paint8_linear_1938_10241)"/>
<path d="M169.986 108.879C170.592 108.575 170.978 109.354 170.657 109.985C170.336 110.617 169.388 110.957 168.86 110.528C168.332 110.098 169.172 109.289 169.986 108.879Z" fill="url(#paint9_linear_1938_10241)"/>
<path d="M163.645 115.201L165.09 114.87C165.09 114.87 165.319 116.811 169.846 117.385C172.368 117.571 174.103 116.278 174.103 116.278L175.153 116.858C175.153 116.858 172.703 119.543 169.338 119.228C164.996 118.82 163.645 115.201 163.645 115.201Z" fill="#FAF5EB"/>
<defs>
<linearGradient id="paint0_linear_1938_10241" x1="103.252" y1="9.42652" x2="95.8941" y2="21.9121" gradientUnits="userSpaceOnUse">
<stop stop-color="#311944"/>
<stop offset="1" stop-color="#893976"/>
</linearGradient>
<linearGradient id="paint1_linear_1938_10241" x1="118.427" y1="89.5657" x2="112.41" y2="95.1763" gradientUnits="userSpaceOnUse">
<stop stop-color="#AB316D"/>
<stop offset="1" stop-color="#792D3D"/>
</linearGradient>
<linearGradient id="paint2_linear_1938_10241" x1="203.934" y1="107.433" x2="194.863" y2="115.892" gradientUnits="userSpaceOnUse">
<stop stop-color="#AB316D"/>
<stop offset="1" stop-color="#792D3D"/>
</linearGradient>
<linearGradient id="paint3_linear_1938_10241" x1="174.842" y1="234.138" x2="175.522" y2="224.904" gradientUnits="userSpaceOnUse">
<stop stop-color="#AB316D"/>
<stop offset="1" stop-color="#792D3D"/>
</linearGradient>
<linearGradient id="paint4_linear_1938_10241" x1="146.503" y1="234.695" x2="147.323" y2="223.567" gradientUnits="userSpaceOnUse">
<stop stop-color="#AB316D"/>
<stop offset="1" stop-color="#792D3D"/>
</linearGradient>
<linearGradient id="paint5_linear_1938_10241" x1="143.499" y1="190.522" x2="179.907" y2="193.206" gradientUnits="userSpaceOnUse">
<stop stop-color="#311944"/>
<stop offset="1" stop-color="#893976"/>
</linearGradient>
<linearGradient id="paint6_linear_1938_10241" x1="155.12" y1="157.91" x2="178.104" y2="203.9" gradientUnits="userSpaceOnUse">
<stop stop-color="#311944"/>
<stop offset="1" stop-color="#893976"/>
</linearGradient>
<linearGradient id="paint7_linear_1938_10241" x1="173.539" y1="108.359" x2="165.519" y2="119.422" gradientUnits="userSpaceOnUse">
<stop stop-color="#AB316D"/>
<stop offset="1" stop-color="#792D3D"/>
</linearGradient>
<linearGradient id="paint8_linear_1938_10241" x1="168.959" y1="108.339" x2="179.702" y2="109.13" gradientUnits="userSpaceOnUse">
<stop stop-color="#311944"/>
<stop offset="1" stop-color="#6B3976"/>
</linearGradient>
<linearGradient id="paint9_linear_1938_10241" x1="171.089" y1="106.6" x2="166.075" y2="118.835" gradientUnits="userSpaceOnUse">
<stop stop-color="#AB316D"/>
<stop offset="1" stop-color="#792D3D"/>
</linearGradient>
</defs>
</svg>
