<svg width="16" height="16" viewBox="0 0 16 16" fill="none" xmlns="http://www.w3.org/2000/svg">
<path fill-rule="evenodd" clip-rule="evenodd" d="M3.75736 3.75728C5.72111 1.79353 8.70587 1.47625 11.0003 2.80239C11.3191 2.98664 11.4281 3.39442 11.2439 3.71319C11.0596 4.03197 10.6518 4.14101 10.3331 3.95677C8.54813 2.92511 6.22635 3.1739 4.70017 4.70009C2.87772 6.52253 2.87772 9.47731 4.70017 11.2998C6.22635 12.8259 8.54813 13.0747 10.3331 12.043C10.6518 11.8588 11.0596 11.9678 11.2439 12.2866C11.4281 12.6054 11.3191 13.0132 11.0003 13.1974C8.70587 14.5236 5.72111 14.2063 3.75736 12.2426C1.41421 9.89944 1.41421 6.10042 3.75736 3.75728ZM12.1953 5.52851C12.4556 5.26816 12.8777 5.26816 13.1381 5.52851L14.3989 6.78931C14.5179 6.90831 14.6337 7.02411 14.7239 7.13024C14.8228 7.24684 14.9292 7.39477 14.9919 7.58791C15.0789 7.85571 15.0789 8.14417 14.9919 8.41191C14.9292 8.60511 14.8228 8.75304 14.7239 8.86957C14.6337 8.97571 14.5179 9.09157 14.3989 9.21051L13.1381 10.4713C12.8777 10.7316 12.4556 10.7316 12.1953 10.4713C11.9349 10.211 11.9349 9.78884 12.1953 9.52851L13.0572 8.66657H8C7.6318 8.66657 7.33333 8.36811 7.33333 7.99991C7.33333 7.63171 7.6318 7.33324 8 7.33324H13.0572L12.1953 6.47132C11.9349 6.21097 11.9349 5.78886 12.1953 5.52851Z" fill="#FF000D"/>
</svg>
