<svg width="20" height="20" viewBox="0 0 20 20" fill="none" xmlns="http://www.w3.org/2000/svg">
<path fill-rule="evenodd" clip-rule="evenodd" d="M11.5535 16.1687L13.008 19.2927C13.0565 19.3971 13.2022 19.4037 13.2601 19.3042L14.3607 17.4102L16.5186 17.7872C16.6322 17.8071 16.7208 17.6914 16.6721 17.5869L14.9513 13.8908C14.8023 13.9678 14.6923 14.0694 14.5956 14.2173L13.9371 15.2243C13.4153 16.0221 12.4696 16.3919 11.5535 16.1687ZM9.93186 11.3055C8.77408 10.6253 6.64408 9.06445 6.61565 7.50695C6.58401 5.77304 8.53291 4.98664 9.99908 6.47749C11.465 4.98687 13.4139 5.77273 13.3825 7.50667C13.3544 9.06425 11.2242 10.6253 10.0663 11.3055C10.0237 11.3305 9.97447 11.3305 9.93186 11.3055ZM10.9572 0.948823L11.9204 1.66984C12.1838 1.86703 12.4612 1.96796 12.7897 1.98625L13.991 2.05308C14.7104 2.09308 15.2946 2.58332 15.4589 3.2848L15.7333 4.45628C15.8084 4.77667 15.9559 5.03222 16.1959 5.25742L17.0732 6.08085C17.5985 6.5739 17.731 7.32496 17.406 7.96792L16.8631 9.04175C16.7147 9.33542 16.6635 9.62605 16.7025 9.95277L16.8453 11.1475C16.9308 11.8628 16.5495 12.5234 15.8872 12.8069L14.7812 13.2806C14.4787 13.4102 14.2526 13.5998 14.0726 13.8752L13.414 14.8822C13.0197 15.4852 12.303 15.746 11.6134 15.5376L10.4616 15.1895C10.1466 15.0943 9.85154 15.0943 9.53654 15.1895L8.38479 15.5376C7.69514 15.746 6.9785 15.4852 6.58416 14.8822L5.92561 13.8752C5.74549 13.5998 5.51944 13.4102 5.21697 13.2806L4.11092 12.8069C3.44865 12.5233 3.06733 11.8628 3.15283 11.1475L3.29565 9.95273C3.33471 9.62601 3.28346 9.33539 3.13502 9.04171L2.59221 7.96789C2.26721 7.32492 2.39963 6.57386 2.92494 6.08082L3.80229 5.25738C4.04225 5.03218 4.18975 4.77664 4.26483 4.45625L4.53924 3.28476C4.70358 2.58328 5.28779 2.09308 6.00713 2.05304L7.20846 1.98621C7.53701 1.96792 7.81432 1.86703 8.07776 1.6698L9.04104 0.948784C9.61776 0.517065 10.3804 0.517065 10.9572 0.948823ZM9.99908 3.02765C7.18846 3.02765 4.90998 5.30613 4.90998 8.11675C4.90998 10.9274 7.18846 13.2059 9.99908 13.2059C12.8097 13.2059 15.0882 10.9274 15.0882 8.11675C15.0882 5.30609 12.8097 3.02765 9.99908 3.02765ZM8.44463 16.1687C7.52858 16.3919 6.58287 16.0221 6.06112 15.2243L5.40256 14.2173C5.30584 14.0694 5.19588 13.9678 5.04682 13.8908L3.32604 17.5869C3.27733 17.6914 3.366 17.807 3.47959 17.7872L5.63748 17.4102L6.73807 19.3042C6.79596 19.4037 6.94162 19.3971 6.99022 19.2927L8.44463 16.1687Z" fill="#FAF5EB"/>
</svg>
