<svg width="16" height="16" viewBox="0 0 16 16" fill="none" xmlns="http://www.w3.org/2000/svg">
<g clip-path="url(#clip0_1951_9594)">
<path d="M15.4462 7.64572C14.8687 7.17025 14.016 7.19125 13.4628 7.6955L11.5841 9.40744C11.3166 9.04041 10.8929 8.81678 10.4238 8.81678H8.43491C8.18425 8.81678 7.94163 8.77381 7.71391 8.68937C7.15229 8.48119 6.04419 8.20025 4.92757 8.66131C4.71497 8.74919 4.50288 8.8805 4.297 9.05231L2.3521 10.677C2.04979 10.499 1.65447 10.5369 1.39535 10.7962L0.506566 11.6849C0.198441 11.9927 0.198223 12.4919 0.506566 12.8L3.47363 15.7672C3.78063 16.0745 4.2811 16.0744 4.58879 15.7672L5.47744 14.8783C5.78497 14.5708 5.78497 14.0707 5.47744 13.7632L5.44604 13.7317L5.66354 13.5142C6.0681 13.1097 6.61263 12.8967 7.16069 12.9338C8.54985 13.0245 11.3381 12.941 12.3221 11.9563L15.5007 8.77772C15.8197 8.45897 15.7948 7.93322 15.4462 7.64572ZM5.12407 14.5249L4.2355 15.4136C4.12275 15.5261 3.93944 15.5259 3.82691 15.4138L0.859941 12.4467C0.859941 12.4467 0.859941 12.4467 0.859816 12.4464C0.747629 12.3347 0.746598 12.1519 0.859941 12.0383L1.74872 11.1497C1.86172 11.0369 2.04416 11.037 2.15707 11.1497C2.2485 11.2411 5.17304 14.1656 5.12404 14.1166C5.23685 14.2296 5.23694 14.4118 5.12407 14.5249ZM15.1473 8.42431L11.9687 11.6029C11.1123 12.4592 8.38372 12.5125 7.19319 12.4349C6.50294 12.3917 5.81638 12.6546 5.31016 13.1608L5.09263 13.3783C1.86516 10.1278 2.97832 11.2489 2.7375 11.0064L4.61735 9.436C4.78404 9.29687 4.9526 9.19169 5.11832 9.12334C6.07691 8.72769 7.04697 8.97519 7.53988 9.158C7.8235 9.26319 8.12469 9.31666 8.43491 9.31666H10.4238C10.9479 9.31666 11.3602 9.74334 11.3561 10.2539C11.355 10.4106 11.2242 10.5382 11.0646 10.5382H6.59447C6.45644 10.5382 6.34454 10.65 6.34454 10.7882C6.34454 10.9263 6.45644 11.0381 6.59447 11.0381H11.0645C11.4979 11.0381 11.8529 10.6879 11.8559 10.2576C11.8569 10.1285 11.8408 10.0018 11.8081 9.87953L13.7994 8.06509C14.1698 7.72706 14.7409 7.7129 15.1283 8.03215C15.2501 8.13219 15.2578 8.31362 15.1473 8.42431Z" fill="#082133"/>
<path d="M8.02319 5.08204C8.1096 5.16601 8.14888 5.28707 8.1285 5.40591L7.99634 6.17645C7.87556 6.88063 8.61528 7.42401 9.25319 7.08829L9.94306 6.72463C10.0501 6.66851 10.1776 6.66851 10.2844 6.72463L10.9718 7.08782C11.6064 7.42341 12.3495 6.88432 12.2296 6.17791L12.0985 5.40541C12.0785 5.28679 12.1178 5.16623 12.2038 5.08226L12.7604 4.53945C13.2736 4.03891 12.9902 3.1666 12.2809 3.06329L11.5092 2.95076C11.3901 2.9332 11.2872 2.85851 11.234 2.75038L10.8891 2.0511C10.5717 1.40713 9.6545 1.40816 9.33706 2.04988L8.98994 2.75113C8.9366 2.85876 8.83385 2.93323 8.715 2.95054L7.94447 3.06307C7.23484 3.16641 6.95169 4.03991 7.46597 4.53995L8.02319 5.08204ZM8.01672 3.55757L8.787 3.44504C9.06828 3.40429 9.31163 3.22782 9.43781 2.97276L9.78488 2.27154C9.91922 2.00026 10.3064 1.99995 10.4407 2.27226L10.7856 2.97154C10.9114 3.22707 11.155 3.40404 11.437 3.44529L12.2088 3.55782C12.509 3.60207 12.6289 3.96957 12.4113 4.18166L11.8548 4.72448C11.6513 4.92291 11.5581 5.20873 11.6057 5.48891L11.7367 6.26141C11.7875 6.56113 11.4744 6.78713 11.2054 6.64607L10.5178 6.28288C10.2651 6.14913 9.96291 6.14888 9.70994 6.28238L9.02006 6.64604C8.75075 6.78801 8.4376 6.56001 8.4891 6.26088L8.62125 5.49035C8.66947 5.20895 8.57609 4.92238 8.37156 4.72373L7.81447 4.18163C7.5965 3.96938 7.71628 3.60179 8.01672 3.55757Z" fill="#082133"/>
<path d="M10.1132 0.862316C10.2512 0.862316 10.3632 0.750535 10.3632 0.612379V0.252379C10.3632 0.114223 10.2512 0.00244141 10.1132 0.00244141C9.97519 0.00244141 9.86328 0.114223 9.86328 0.252379V0.612379C9.86328 0.750535 9.97519 0.862316 10.1132 0.862316Z" fill="#082133"/>
<path d="M8.01436 1.24204C8.08392 1.36279 8.23758 1.40179 8.3557 1.33357C8.4753 1.26451 8.51617 1.1117 8.44711 0.992106L8.26711 0.680418C8.19817 0.560575 8.04501 0.519574 7.92576 0.588887C7.80617 0.657949 7.7653 0.810762 7.83436 0.930356L8.01436 1.24204Z" fill="#082133"/>
<path d="M6.41406 2.53252L6.72574 2.7124C6.84553 2.78133 6.99831 2.74015 7.06721 2.62086C7.13615 2.50127 7.09515 2.34849 6.97568 2.27939L6.66399 2.09952C6.54403 2.03021 6.39137 2.07171 6.32253 2.19105C6.25359 2.31065 6.29459 2.46343 6.41406 2.53252Z" fill="#082133"/>
<path d="M5.98627 4.62878H6.34614C6.48417 4.62878 6.59608 4.517 6.59608 4.37884C6.59608 4.24069 6.48417 4.12891 6.34614 4.12891H5.98627C5.84823 4.12891 5.73633 4.24069 5.73633 4.37884C5.73633 4.517 5.84823 4.62878 5.98627 4.62878Z" fill="#082133"/>
<path d="M13.6309 4.37884C13.6309 4.517 13.7428 4.62878 13.8808 4.62878H14.2407C14.3787 4.62878 14.4906 4.517 14.4906 4.37884C14.4906 4.24069 14.3787 4.12891 14.2407 4.12891H13.8808C13.7428 4.12891 13.6309 4.24069 13.6309 4.37884Z" fill="#082133"/>
<path d="M13.4999 2.7124L13.8116 2.53252C13.9311 2.46346 13.9721 2.31065 13.9032 2.19105C13.834 2.07171 13.6813 2.03021 13.5617 2.09952L13.25 2.27939C13.1305 2.34846 13.0895 2.50127 13.1585 2.62086C13.2277 2.74033 13.3803 2.78127 13.4999 2.7124Z" fill="#082133"/>
<path d="M11.8711 1.33357C11.9894 1.40192 12.143 1.36261 12.2124 1.24204L12.3924 0.930356C12.4615 0.810762 12.4206 0.657981 12.301 0.588887C12.1814 0.519574 12.0285 0.560575 11.9597 0.680418L11.7797 0.992106C11.7106 1.11173 11.7515 1.26451 11.8711 1.33357Z" fill="#082133"/>
</g>
<defs>
<clipPath id="clip0_1951_9594">
<rect width="16" height="16" fill="white"/>
</clipPath>
</defs>
</svg>
