<svg width="24" height="24" viewBox="0 0 24 24" fill="none" xmlns="http://www.w3.org/2000/svg">
<g clip-path="url(#clip0_1952_9841)">
<path fill-rule="evenodd" clip-rule="evenodd" d="M4.261 13.2276L4.05503 9.98555L4.01247 9.32096C3.97539 8.74285 3.47284 8.29932 2.89473 8.33639C2.71211 8.34877 2.54458 8.40507 2.40039 8.49703V14.4301C3.36836 15.311 4.261 14.8812 4.261 13.2276Z" fill="#FFBC85"/>
<path fill-rule="evenodd" clip-rule="evenodd" d="M19.9482 9.98555L19.7422 13.2276C20.4278 14.9456 21.6245 14.3264 21.7316 14.9456L21.6027 8.49703C21.4586 8.40502 21.2897 8.34872 21.1084 8.33639C20.5303 8.29932 20.0264 8.74285 19.9893 9.32096L19.9482 9.98555Z" fill="#FFBC85"/>
<path fill-rule="evenodd" clip-rule="evenodd" d="M15.6092 18.392L15.4238 20.8485L17.5868 21.8349L19.9002 20.8485C21.7484 19.1444 23.1709 17.0312 23.3659 13.9773L23.7106 8.53958C23.7477 7.96147 23.3055 7.45892 22.7261 7.42184C22.148 7.38477 21.6454 7.8283 21.6083 8.40641L21.6028 8.49702L21.2527 14.0006C21.1456 13.3813 20.4604 12.968 19.7422 13.2275C19.6022 13.277 19.4635 13.3525 19.3262 13.4568L18.2098 14.3892L16.8038 15.5632C15.785 16.4133 15.7053 17.1245 15.6092 18.392Z" fill="#FFE5C1"/>
<path fill-rule="evenodd" clip-rule="evenodd" d="M7.19938 15.5632L5.79332 14.3892L4.67699 13.4568C4.5397 13.3525 4.39963 13.277 4.26093 13.2275C3.54281 12.968 2.85623 13.3813 2.75052 14.0006L2.40037 8.49702L2.39488 8.40641C2.35781 7.8283 1.85385 7.38477 1.27579 7.42184C0.697728 7.45892 0.25415 7.96142 0.291228 8.53953L0.637259 13.9772C0.830853 17.0311 2.25342 19.1444 4.10165 20.8485L6.20573 21.4405L8.57938 20.8485L8.39399 18.3919C8.2979 17.1245 8.2169 16.4132 7.19938 15.5632Z" fill="#FFE5C1"/>
<path fill-rule="evenodd" clip-rule="evenodd" d="M5.22583 15.1267L6.63189 16.3008C7.38025 16.9269 7.37336 17.4281 7.4695 18.6956L7.62194 20.8487H8.58039L8.395 18.3921C8.29886 17.1247 8.21786 16.4134 7.20039 15.5634L5.79433 14.3894L4.678 13.457C4.5407 13.3526 4.40064 13.2771 4.26194 13.2277C3.62758 12.9983 3.01652 13.2949 2.81055 13.7947C3.33372 13.5984 3.83627 14.0062 4.33881 14.3866L5.22583 15.1267Z" fill="#FED1A3"/>
<path fill-rule="evenodd" clip-rule="evenodd" d="M8.57938 20.8486H4.10164H2.9908C2.74227 20.8486 2.53906 21.0532 2.53906 21.3018V23.5483C2.53906 23.7968 2.74227 24 2.9908 24H9.30988C9.55841 24 9.76161 23.7968 9.76161 23.5483V21.3018C9.76161 21.0532 9.55841 20.8486 9.30988 20.8486H8.57938Z" fill="#A27E2A"/>
<path fill-rule="evenodd" clip-rule="evenodd" d="M14.692 20.8486C14.4434 20.8486 14.2402 21.0532 14.2402 21.3018V23.5483C14.2402 23.7968 14.4434 24 14.692 24H21.011C21.2596 24 21.4628 23.7968 21.4628 23.5483V21.3018C21.4628 21.0532 21.2596 20.8486 21.011 20.8486H19.8988H15.4225H14.692Z" fill="#A27E2A"/>
<path fill-rule="evenodd" clip-rule="evenodd" d="M15.3283 13.2399C17.167 11.4013 17.167 8.42151 15.3283 6.58425C13.4911 4.74698 10.5115 4.74698 8.67284 6.58425C6.83562 8.42151 6.83562 11.4013 8.67284 13.2399C8.80193 13.369 8.93646 13.4885 9.07652 13.5983H14.926C15.0647 13.4885 15.1992 13.3677 15.3283 13.2399Z" fill="#082133"/>
<path fill-rule="evenodd" clip-rule="evenodd" d="M13.201 10.9331C12.7053 10.2808 11.7002 10.2671 10.8008 10.9331C9.78605 11.3931 9.07617 12.4175 9.07617 13.5984C10.7843 14.9578 13.2175 14.9578 14.9257 13.5984C14.9256 12.4174 14.2157 11.3931 13.201 10.9331Z" fill="#A27E2A"/>
<path fill-rule="evenodd" clip-rule="evenodd" d="M7.70956 5.16988L7.73567 3.92578L8.44559 2.90278L7.2702 2.4936L6.51772 1.5022L5.76523 2.4936L4.58984 2.90278L5.29977 3.92578L5.32583 5.16988L6.51772 4.81012L7.70956 5.16988Z" fill="#FFD772"/>
<path fill-rule="evenodd" clip-rule="evenodd" d="M10.7841 2.42227L10.8102 3.66633L12.0021 3.30792L13.1939 3.66633L13.22 2.42227L13.9299 1.40062L12.7545 0.990047L12.0021 0L11.2483 0.990047L10.0742 1.40062L10.7841 2.42227Z" fill="#FFD772"/>
<path fill-rule="evenodd" clip-rule="evenodd" d="M15.5566 2.90278L16.2652 3.92578L16.2926 5.16988L17.4845 4.81012L18.675 5.16988L18.7024 3.92578L19.4123 2.90278L18.237 2.4936L17.4845 1.5022L16.7306 2.4936L15.5566 2.90278Z" fill="#FFD772"/>
<path fill-rule="evenodd" clip-rule="evenodd" d="M2.75053 14.0006L2.39494 8.40641C2.35786 7.8283 1.85391 7.38477 1.27584 7.42184C0.792516 7.45203 0.402562 7.81044 0.310547 8.26494C1.65206 7.85572 1.54636 8.53958 1.59305 9.27969L1.79489 13.4376C1.84294 14.4386 2.0393 15.0854 2.34413 15.3902C2.81372 15.8585 4.08384 17.2536 4.5068 17.6559C4.9297 18.0569 5.72611 17.921 5.21531 17.2055C4.79241 16.8032 3.67055 15.6099 3.20095 15.1417C2.87686 14.8176 2.76703 14.5252 2.75053 14.0006Z" fill="#FED1A3"/>
<path fill-rule="evenodd" clip-rule="evenodd" d="M8.07283 21.3018V23.5483C8.07283 23.7968 7.86963 24 7.62109 24H9.31C9.55853 24 9.76173 23.7968 9.76173 23.5483V21.3018C9.76173 21.0532 9.55853 20.8486 9.31 20.8486H8.5795H7.95475H7.62109C7.86958 20.8486 8.07283 21.0532 8.07283 21.3018Z" fill="#A27E2A"/>
<path fill-rule="evenodd" clip-rule="evenodd" d="M18.6973 20.8486H19.9001C21.7484 19.1445 23.1709 17.0313 23.3659 13.9774L23.7105 8.53967C23.7435 8.02198 23.3906 7.56336 22.9004 7.448C22.8633 8.20325 22.4335 13.7563 22.3553 14.2602C22.2399 14.9893 22.115 15.9259 21.7896 16.6962C21.1222 18.2836 19.9523 19.6979 18.6973 20.8486Z" fill="#FED1A3"/>
<path fill-rule="evenodd" clip-rule="evenodd" d="M13.8367 6.49237C15.3856 8.0399 15.6286 10.399 14.5685 12.2033C14.7965 12.618 14.9255 13.0945 14.9255 13.5985C15.0642 13.4886 15.1988 13.3678 15.3279 13.2401C17.1665 11.4014 17.1665 8.42165 15.3279 6.58439C14.2925 5.54901 12.8961 5.09728 11.5449 5.22773C12.3853 5.4172 13.1831 5.83739 13.8367 6.49237Z" fill="#082133"/>
<path fill-rule="evenodd" clip-rule="evenodd" d="M7.73652 3.92582L8.44644 2.90282L7.27105 2.4936L6.51856 1.5022L6.24805 1.8592C6.57073 2.82178 6.60505 3.87909 6.34827 4.86229L6.51852 4.81012L7.71036 5.16988L7.73652 3.92582Z" fill="#FBBA58"/>
<path fill-rule="evenodd" clip-rule="evenodd" d="M11.888 0.149672C12.2093 1.18364 12.2011 2.32064 11.8633 3.34912L12.002 3.30792L13.1938 3.66633L13.2199 2.42227L13.9299 1.40062L12.7545 0.990047L12.002 0L11.888 0.149672Z" fill="#FBBA58"/>
<path fill-rule="evenodd" clip-rule="evenodd" d="M17.2567 1.80154C17.5601 2.79707 17.5601 3.88462 17.2539 4.88015L17.4846 4.81012L18.6751 5.16988L18.7025 3.92582L19.4125 2.90282L18.2371 2.4936L17.4846 1.5022L17.2567 1.80154Z" fill="#FBBA58"/>
<path fill-rule="evenodd" clip-rule="evenodd" d="M12.6562 11.2407C13.3785 11.8902 13.8783 12.9627 13.9607 14.1916C14.2999 14.0365 14.624 13.8387 14.926 13.5984C14.926 12.4175 14.2161 11.3931 13.2014 10.9331C13.0394 11.0636 12.8554 11.1679 12.6562 11.2407Z" fill="#A27E2A"/>
<path fill-rule="evenodd" clip-rule="evenodd" d="M13.2022 10.933C13.6375 10.5829 13.9162 10.0446 13.9162 9.44178C13.9162 8.38446 13.0593 7.52759 12.002 7.52759C10.9447 7.52759 10.0879 8.38442 10.0879 9.44178C10.0879 10.0446 10.3667 10.5829 10.8019 10.933C11.1301 11.198 11.5475 11.356 12.002 11.356C12.4566 11.3559 12.874 11.198 13.2022 10.933Z" fill="#FFE5C1"/>
<path fill-rule="evenodd" clip-rule="evenodd" d="M12.8602 9.2427C12.8602 9.84551 12.5814 10.3838 12.1462 10.7339C11.8633 10.9619 11.5145 11.1116 11.1328 11.1486C11.3937 11.2804 11.6889 11.356 12.002 11.356C12.4565 11.356 12.8739 11.198 13.2021 10.933C13.6374 10.5829 13.9161 10.0446 13.9161 9.44178C13.9161 8.38446 13.0593 7.52759 12.002 7.52759C11.9388 7.52759 11.8756 7.53171 11.8152 7.5372C12.4345 7.85304 12.8602 8.49842 12.8602 9.2427Z" fill="#FED1A3"/>
<path fill-rule="evenodd" clip-rule="evenodd" d="M19.5689 23.5483C19.5689 23.7968 19.3657 24 19.1172 24H21.0121C21.2606 24 21.4638 23.7968 21.4638 23.5483V21.3018C21.4638 21.0532 21.2606 20.8486 21.0121 20.8486H19.8999H19.1172C19.3658 20.8486 19.569 21.0532 19.569 21.3018V23.5483H19.5689Z" fill="#A27E2A"/>
<path fill-rule="evenodd" clip-rule="evenodd" d="M19.8245 14.848L18.0682 16.6963C17.6659 17.1192 18.0531 17.8785 18.7878 17.2057C19.2107 16.8034 20.3325 15.6101 20.8008 15.1418C21.1921 14.7519 21.3116 14.344 21.2525 14.0008C21.2457 13.9637 21.2374 13.9266 21.2264 13.8909C21.0658 13.3402 20.4313 12.9929 19.7654 13.2194C20.7966 13.7384 20.246 14.4264 19.8245 14.848Z" fill="#FED1A3"/>
</g>
<defs>
<clipPath id="clip0_1952_9841">
<rect width="24" height="24" fill="white"/>
</clipPath>
</defs>
</svg>
