<svg width="16" height="16" viewBox="0 0 16 16" fill="none" xmlns="http://www.w3.org/2000/svg">
<g clip-path="url(#clip0_1670_14948)">
<path d="M8 10.25C7.15 10.25 6.85 10.05 6.575 9.85C6.5 9.8 6.45 9.75 6.375 9.725C5.625 9.275 5.075 8.5 4.825 7.4C4.475 7.275 4 6.9 4 6C4 5.3 4.325 5.075 4.35 5.05C4.475 4.975 4.625 5 4.7 5.125C4.775 5.25 4.75 5.4 4.625 5.475C4.5 5.55 4.475 5.6 4.475 6.025C4.475 6.875 5 6.975 5.05 6.975C5.15 7 5.25 7.075 5.275 7.175C5.425 7.875 5.75 8.825 6.6 9.325C6.7 9.375 6.775 9.425 6.85 9.475C7.1 9.65 7.3 9.775 7.975 9.775C8.675 9.775 8.85 9.65 9.1 9.475C9.175 9.425 9.25 9.375 9.35 9.325C10.2 8.825 10.55 7.9 10.675 7.175C10.7 7.075 10.8 6.975 10.9 6.975C10.95 6.975 11.475 6.875 11.475 6.025C11.475 5.6 11.325 5.475 11.325 5.475C11.2 5.4 11.175 5.25 11.275 5.125C11.35 5 11.525 4.975 11.625 5.075C11.65 5.1 11.975 5.35 11.975 6.025C11.975 6.925 11.5 7.3 11.15 7.425C10.9 8.5 10.375 9.3 9.6 9.75C9.525 9.8 9.45 9.85 9.4 9.875C9.15 10.05 8.85 10.25 8 10.25Z" fill="#141005"/>
<path d="M4.50002 5.5001C4.40002 5.5001 4.32502 5.4501 4.27502 5.3501C4.22502 5.2251 4.27502 5.0751 4.40002 5.0251C5.05002 4.7251 5.55002 4.0751 6.02502 2.9001C6.05002 2.8251 6.12502 2.7751 6.20002 2.7501C6.27502 2.7251 6.37502 2.7501 6.42502 2.8251C7.15002 3.5001 8.17502 3.3501 8.85002 3.2501C9.05002 3.2251 9.22502 3.2001 9.35002 3.2001C10.35 3.2001 10.75 3.9251 11.025 4.4501C11.2 4.8001 11.325 5.0251 11.5 5.0251C11.65 5.0251 11.75 5.1251 11.75 5.2751C11.75 5.4251 11.65 5.5251 11.5 5.5251C11.025 5.5251 10.8 5.1001 10.575 4.7001C10.3 4.2001 10.05 3.7251 9.35002 3.7251C9.25002 3.7251 9.10002 3.7501 8.92502 3.7751C8.27502 3.8751 7.20002 4.0251 6.35002 3.4501C5.85002 4.5501 5.30002 5.2001 4.60002 5.5251C4.57502 5.5001 4.52502 5.5001 4.50002 5.5001Z" fill="#141005"/>
<path d="M15.5 15.75C15.35 15.75 15.25 15.65 15.25 15.5C15.25 14.125 15.25 13.025 13.3 12.55C11.675 12.175 9.75 11.425 9.75 10.15V9.125C9.75 8.975 9.85 8.875 10 8.875C10.15 8.875 10.25 8.975 10.25 9.125V10.15C10.25 10.875 11.4 11.575 13.4 12.075C15.75 12.625 15.75 14.15 15.75 15.475C15.75 15.625 15.65 15.75 15.5 15.75Z" fill="#141005"/>
<path d="M0.5 15.5H0.25C0.25 14.15 0.25 12.625 2.6 12.075C4.6 11.6 5.75 10.9 5.75 10.15V9.125C5.75 8.975 5.85 8.875 6 8.875C6.15 8.875 6.25 8.975 6.25 9.125V10.15C6.25 11.425 4.325 12.175 2.7 12.55C0.75 13.025 0.75 14.125 0.75 15.475L0.5 15.5Z" fill="#141005"/>
<path d="M8.00018 13.7502C6.57518 13.7502 5.20018 13.1002 4.25018 11.9752C4.15018 11.8752 4.17518 11.7252 4.27518 11.6252C4.37518 11.5252 4.52518 11.5502 4.62518 11.6502C5.50018 12.6752 6.72518 13.2502 8.00018 13.2502C9.27518 13.2502 10.5002 12.6752 11.3752 11.6502C11.4752 11.5502 11.6252 11.5252 11.7252 11.6252C11.8252 11.7252 11.8502 11.8752 11.7502 11.9752C10.8002 13.1002 9.42518 13.7502 8.00018 13.7502Z" fill="#141005"/>
<path d="M4.425 5.575C4.325 5.575 4.225 5.525 4.2 5.425C4 4.9 4 4.725 4 3.5C4 2.45 4.65 1.6 5.325 1.3C5.85 0.575 6.675 0.25 8 0.25C8.65 0.25 9.275 0.375 9.8 0.6C10.675 0.85 11.45 0.75 11.45 0.75C11.575 0.725 11.7 0.825 11.725 0.95C11.725 0.975 11.85 1.525 11.525 2C11.85 2.525 11.975 3.275 11.975 3.8C11.975 4.275 11.975 4.9 11.775 5.425C11.725 5.55 11.575 5.625 11.45 5.575C11.325 5.525 11.25 5.375 11.3 5.25C11.475 4.825 11.475 4.275 11.475 3.8C11.475 3.3 11.325 2.55 11.025 2.15C10.95 2.05 10.95 1.925 11.025 1.825C11.175 1.625 11.225 1.425 11.225 1.25C10.9 1.25 10.3 1.25 9.65 1.075C9.625 1.075 9.625 1.075 9.6 1.05C9.15 0.85 8.6 0.75 8 0.75C6.525 0.75 6.025 1.175 5.7 1.65C5.675 1.7 5.625 1.725 5.575 1.75C5.05 1.95 4.5 2.625 4.5 3.5C4.5 4.7 4.5 4.8 4.675 5.225C4.725 5.35 4.65 5.5 4.525 5.55C4.5 5.575 4.45 5.575 4.425 5.575Z" fill="#141005"/>
</g>
<defs>
<clipPath id="clip0_1670_14948">
<rect width="16" height="16" fill="white"/>
</clipPath>
</defs>
</svg>
