<svg width="24" height="24" viewBox="0 0 24 24" fill="none" xmlns="http://www.w3.org/2000/svg">
<path d="M8.4651 0C8.38417 0.0012006 8.30524 0.025303 8.23744 0.0694947C8.23744 0.0694947 7.88453 0.29472 7.52601 0.645322C7.16751 0.99594 6.7532 1.48245 6.72838 2.12844C6.71332 2.52073 6.89152 2.78903 7.06066 3.08426C7.22981 3.37945 7.42318 3.67175 7.53857 3.87771C7.572 3.93732 7.57713 3.982 7.55444 4.07439C7.53174 4.16687 7.46859 4.29142 7.38705 4.40664C7.22396 4.63709 7.01376 4.81426 7.01376 4.81426C6.96739 4.84898 6.92853 4.89276 6.89955 4.94292C6.87057 4.99308 6.85205 5.04861 6.84513 5.10613C6.83821 5.16365 6.84302 5.22194 6.85927 5.27754C6.87552 5.33315 6.90287 5.3849 6.93968 5.42963C6.97649 5.47437 7.02199 5.51117 7.07342 5.53783C7.12486 5.56449 7.18116 5.58045 7.23893 5.58473C7.29671 5.58902 7.35475 5.58152 7.40956 5.56274C7.46436 5.54396 7.51479 5.51427 7.55779 5.47545C7.55779 5.47545 7.84288 5.24305 8.08592 4.89962C8.20744 4.72793 8.32594 4.52561 8.38639 4.27946C8.44684 4.03332 8.43605 3.72693 8.28512 3.45753C8.1411 3.2005 7.95173 2.91549 7.80386 2.65741C7.65599 2.39932 7.58378 2.13754 7.5829 2.16027C7.59246 1.91135 7.8345 1.54154 8.12358 1.25881C8.41266 0.97609 8.69941 0.790984 8.69941 0.790984C8.77837 0.741141 8.83888 0.666876 8.87176 0.579485C8.90463 0.492094 8.90807 0.396318 8.88154 0.306795C8.85502 0.217272 8.79998 0.138858 8.72481 0.0834826C8.64963 0.028107 8.55846 -0.00121288 8.4651 0ZM12.752 0C12.67 0.000564877 12.5898 0.0246936 12.521 0.0694947C12.521 0.0694947 12.1673 0.29472 11.8088 0.645322C11.4503 0.99594 11.0368 1.48245 11.012 2.12844C10.9969 2.52073 11.1751 2.78903 11.3443 3.08426C11.5134 3.37945 11.7093 3.67175 11.8247 3.87771C11.8581 3.93732 11.8599 3.982 11.8372 4.07439C11.8144 4.16687 11.7547 4.29142 11.6731 4.40664C11.51 4.63709 11.2965 4.81426 11.2965 4.81426C11.2501 4.84898 11.2112 4.89276 11.1823 4.94292C11.1533 4.99308 11.1348 5.04861 11.1278 5.10613C11.1209 5.16365 11.1257 5.22194 11.142 5.27754C11.1582 5.33315 11.1856 5.38489 11.2224 5.42963C11.2592 5.47437 11.3047 5.51117 11.3561 5.53783C11.4076 5.56449 11.4639 5.58045 11.5216 5.58473C11.5794 5.58902 11.6375 5.58157 11.6923 5.56279C11.7471 5.54401 11.7975 5.51427 11.8405 5.47545C11.8405 5.47545 12.1289 5.24305 12.372 4.89962C12.4935 4.72793 12.6086 4.52561 12.6691 4.27946C12.7296 4.03332 12.7221 3.72693 12.5712 3.45753C12.4272 3.2005 12.2353 2.91549 12.0874 2.65741C11.9395 2.39932 11.8698 2.13754 11.869 2.16027C11.8785 1.91135 12.1206 1.54154 12.4096 1.25881C12.6987 0.97609 12.9855 0.790984 12.9855 0.790984C13.0644 0.741177 13.1248 0.666988 13.1577 0.579683C13.1906 0.492377 13.1941 0.396717 13.1677 0.30724C13.1413 0.217762 13.0864 0.139321 13.0114 0.083878C12.9363 0.0284355 12.8453 -0.00102646 12.752 0ZM17.0382 0C16.9561 0.000565497 16.8759 0.0246942 16.8072 0.0694947C16.8072 0.0694947 16.4534 0.29472 16.0949 0.645322C15.7364 0.99594 15.3229 1.48245 15.2981 2.12844C15.283 2.52073 15.4612 2.78903 15.6304 3.08426C15.7995 3.37945 15.9929 3.67176 16.1083 3.87771C16.1417 3.93732 16.1468 3.982 16.1242 4.07439C16.1014 4.16687 16.0375 4.29142 15.9559 4.40664C15.7928 4.63709 15.5826 4.81426 15.5826 4.81426C15.5363 4.84899 15.4974 4.89276 15.4684 4.94292C15.4395 4.99308 15.421 5.04862 15.414 5.10613C15.4071 5.16364 15.4119 5.22194 15.4282 5.27754C15.4444 5.33315 15.4718 5.3849 15.5086 5.42963C15.5454 5.47436 15.5909 5.51117 15.6423 5.53783C15.6937 5.56448 15.7501 5.5804 15.8078 5.58468C15.8656 5.58897 15.9236 5.58151 15.9784 5.56274C16.0332 5.54396 16.0837 5.51426 16.1267 5.47545C16.1267 5.47545 16.4126 5.24305 16.6556 4.89962C16.7771 4.72793 16.8957 4.52561 16.9561 4.27946C17.0165 4.03331 17.0091 3.72693 16.8582 3.45753C16.7142 3.2005 16.5214 2.91549 16.3736 2.65741C16.2257 2.39932 16.156 2.13754 16.1551 2.16027C16.1647 1.91135 16.4042 1.54154 16.6933 1.25881C16.9824 0.97609 17.2691 0.790984 17.2691 0.790984C17.3478 0.741288 17.4082 0.667279 17.4411 0.580226C17.4741 0.493174 17.4778 0.397768 17.4517 0.308426C17.4256 0.219084 17.3711 0.140707 17.2965 0.0850643C17.2219 0.029422 17.1312 -0.000471446 17.0382 0ZM11.9979 6.28729C10.9772 6.2871 10.1405 7.12376 10.1407 8.14452C10.1407 8.14423 10.1407 8.14481 10.1407 8.14452C10.141 8.46218 10.2242 8.76828 10.3725 9.03762C4.99337 9.82577 0.85622 14.4634 0.85622 20.0596C0.856541 20.5302 0.896159 20.9992 0.955818 21.4657C0.410894 21.5979 0 22.0911 0 22.6743V22.7538C0 23.4364 0.561191 24.0001 1.24374 24.0001H22.7513C23.4338 24.0001 23.9975 23.4364 23.9975 22.7538V22.6743C23.9975 22.0887 23.5814 21.5938 23.0325 21.4641C23.0946 20.999 23.1367 20.5316 23.1397 20.0621C23.1397 20.061 23.1397 20.06 23.1397 20.0589C23.1397 14.4627 19.0025 9.8242 13.6233 9.03604C13.7715 8.76707 13.8547 8.46183 13.8552 8.14467C13.8552 8.14438 13.8552 8.14496 13.8552 8.14467C13.8554 7.12391 13.0187 6.2871 11.9979 6.28729ZM11.9979 7.14436C12.5554 7.14425 12.9982 7.58706 12.9981 8.14452C12.9973 8.4637 12.8309 8.74642 12.5771 8.93298C12.3851 8.92327 12.1924 8.9184 11.9979 8.9184C11.8035 8.9184 11.6107 8.92327 11.4188 8.93298C11.165 8.74614 10.9981 8.46311 10.9978 8.14373C10.9981 7.58666 11.4408 7.14425 11.9979 7.14436ZM11.9979 9.77498C12.2278 9.77498 12.4594 9.78628 12.6935 9.80167C12.699 9.80178 12.7046 9.80178 12.7102 9.80167C18.0617 10.1672 22.2822 14.6137 22.2826 20.0587C22.2792 20.5179 22.222 20.9736 22.1579 21.428H1.83047C1.76903 20.9737 1.71362 20.5182 1.71329 20.0595C1.71329 14.6138 5.93439 10.1668 11.2865 9.80167C11.2915 9.80176 11.2966 9.80176 11.3016 9.80167C11.536 9.78547 11.7678 9.77498 11.9979 9.77498ZM11.9979 10.7157C11.8853 10.7173 11.7778 10.7631 11.6987 10.8433C11.6196 10.9235 11.5752 11.0316 11.5752 11.1443C11.5752 11.2569 11.6196 11.365 11.6987 11.4452C11.7778 11.5254 11.8853 11.5712 11.9979 11.5727C13.0167 11.5727 13.9839 11.7834 14.8612 12.1636C16.7172 12.9682 18.6629 14.5874 19.3072 16.428C19.3242 16.483 19.3522 16.534 19.3894 16.578C19.4265 16.622 19.4722 16.658 19.5236 16.6839C19.5751 16.7098 19.6312 16.7251 19.6886 16.7289C19.7461 16.7326 19.8037 16.7248 19.8581 16.7058C19.9125 16.6867 19.9624 16.6569 20.005 16.6182C20.0476 16.5794 20.082 16.5325 20.106 16.4802C20.13 16.4278 20.1433 16.3712 20.145 16.3136C20.1466 16.256 20.1367 16.1987 20.1157 16.1451C19.3503 13.9586 17.2347 12.2589 15.2018 11.3778C14.2475 10.9641 13.1943 10.7388 12.0925 10.7258C12.0614 10.719 12.0297 10.7154 11.9979 10.7157ZM1.24374 22.2851H1.42285C1.42786 22.2855 1.43288 22.2858 1.4379 22.2859H22.5479C22.5526 22.2857 22.5574 22.2855 22.5621 22.2851H22.7513C22.9739 22.2851 23.1397 22.4517 23.1397 22.6743V22.7538C23.1397 22.9764 22.9739 23.143 22.7513 23.143H1.24374C1.02118 23.143 0.857896 22.9764 0.857896 22.7538V22.6743C0.857896 22.4517 1.02118 22.2851 1.24374 22.2851Z" fill="#141005"/>
</svg>
