<svg width="12" height="12" viewBox="0 0 12 12" fill="none" xmlns="http://www.w3.org/2000/svg">
<g clip-path="url(#clip0_1142_2071)">
<path d="M8.75693 0.891762C8.78055 0.844248 8.78439 0.789318 8.76746 0.738966C8.75061 0.688705 8.71445 0.647142 8.66694 0.623522C6.98636 -0.207841 5.0141 -0.207841 3.33353 0.623522C3.25049 0.664994 3.20682 0.758008 3.22806 0.848368C3.2493 0.938727 3.32996 1.00254 3.4227 1.00254C3.45355 1.00272 3.48394 0.995946 3.51168 0.98258C5.08002 0.206788 6.92044 0.206788 8.48878 0.98258C8.53639 1.00611 8.59141 1.00977 8.64167 0.992742C8.69202 0.975713 8.73349 0.939368 8.75693 0.891762Z" fill="#141005"/>
<path d="M11.1087 3.24331C11.0611 3.26693 11.025 3.30841 11.0081 3.35876C10.9912 3.40902 10.995 3.46395 11.0187 3.51146C11.4037 4.28442 11.6028 5.13665 11.6 6.00015C11.6 9.09288 9.09291 11.6 6.00018 11.6C2.90754 11.6 0.400457 9.09288 0.400457 6.00015C0.397802 5.13656 0.597105 4.28432 0.982438 3.51146C1.01485 3.44738 1.01045 3.37084 0.970903 3.31097C0.931262 3.251 0.862691 3.21695 0.791008 3.22162C0.719324 3.22619 0.655697 3.26895 0.624204 3.33349C0.211315 4.16165 -0.00236176 5.07486 0.000384726 6.00015C0.000384726 9.31379 2.68664 11.9999 6.00018 11.9999C9.31382 11.9999 12 9.31379 12 6.00015C12.003 5.07486 11.7896 4.16165 11.3768 3.33349C11.3533 3.28598 11.3117 3.24972 11.2615 3.23279C11.2111 3.21585 11.1562 3.21969 11.1087 3.24331Z" fill="#141005"/>
<path d="M10.3217 3.91314C10.2906 3.84878 10.2274 3.80603 10.1562 3.80081C10.0849 3.79568 10.0163 3.82892 9.97618 3.88806C9.93608 3.9472 9.9305 4.02318 9.96172 4.08754C10.109 4.39112 10.2207 4.71091 10.2945 5.0403L9.9045 5.10906C9.80233 5.127 9.73074 5.22001 9.7398 5.32346C9.74877 5.42682 9.83538 5.50611 9.93911 5.50601C9.95082 5.50601 9.96254 5.50501 9.97408 5.50308L10.3627 5.43442C10.4127 5.81023 10.4127 6.19099 10.3627 6.5668L9.97426 6.49823C9.8655 6.479 9.76168 6.5516 9.74246 6.66046C9.72332 6.76922 9.79592 6.87294 9.90468 6.89217L10.2935 6.96083C10.2107 7.3306 10.0803 7.68801 9.90532 8.02418L9.56531 7.82735C9.50342 7.79109 9.42679 7.79073 9.36454 7.82652C9.30229 7.86223 9.26402 7.9286 9.2642 8.00038C9.26429 8.07215 9.30293 8.13825 9.36527 8.17377L9.70529 8.37033C9.50077 8.6892 9.25633 8.98051 8.97774 9.23712L8.72516 8.93611C8.67975 8.87944 8.60733 8.85179 8.53574 8.86387C8.46415 8.87596 8.40473 8.92585 8.38047 8.99433C8.35621 9.06272 8.37095 9.13889 8.41892 9.19336L8.67133 9.49328C8.37049 9.72407 8.0411 9.91495 7.69138 10.0613L7.55634 9.69011C7.53291 9.62163 7.47431 9.57119 7.40318 9.55809C7.33195 9.54509 7.25926 9.57155 7.21312 9.62731C7.16698 9.68306 7.15453 9.75941 7.18062 9.82688L7.31575 10.2001C6.95395 10.3135 6.57896 10.3794 6.20022 10.396V10.0001C6.20022 9.88969 6.11068 9.80015 6.00018 9.80015C5.88977 9.80015 5.80024 9.88969 5.80024 10.0001V10.3951C5.4215 10.3787 5.04651 10.3131 4.6847 10.2001L4.82011 9.82835C4.84611 9.76079 4.83366 9.68443 4.78751 9.62868C4.74137 9.57293 4.66868 9.54656 4.59755 9.55956C4.52632 9.57256 4.46773 9.623 4.44429 9.69148L4.30926 10.0627C3.95954 9.91633 3.63014 9.72545 3.32931 9.49474L3.58171 9.19473C3.62969 9.14026 3.64443 9.06409 3.62016 8.9957C3.5959 8.92732 3.53649 8.87742 3.4649 8.86534C3.3934 8.85325 3.32089 8.8809 3.27548 8.93757L3.02289 9.23849C2.7444 8.98188 2.49987 8.69057 2.29535 8.37179L2.63536 8.17515C2.69771 8.13972 2.73634 8.07352 2.73653 8.00175C2.73662 7.92998 2.69835 7.8636 2.6361 7.8279C2.57384 7.7921 2.49722 7.79247 2.43533 7.82881L2.09531 8.02555C1.92027 7.68883 1.78972 7.33069 1.70714 6.96019L2.09595 6.89162C2.16636 6.87917 2.22476 6.8301 2.24912 6.76299C2.27356 6.69579 2.26029 6.62072 2.21433 6.56598C2.16837 6.51123 2.09678 6.48523 2.02638 6.49759L1.63793 6.56625C1.58813 6.19044 1.58813 5.80968 1.63793 5.43387L2.02674 5.50244C2.03828 5.50446 2.05 5.50547 2.06171 5.50547C2.16553 5.50547 2.25205 5.42618 2.26111 5.32282C2.27008 5.21946 2.19858 5.12636 2.09632 5.10851L1.70577 5.0403C1.77919 4.71109 1.89079 4.39158 2.03837 4.08828C2.06959 4.02401 2.06419 3.94793 2.02418 3.8887C1.98408 3.82947 1.91542 3.79605 1.8441 3.80118C1.77278 3.80621 1.70961 3.84897 1.6784 3.91333C1.36173 4.56333 1.19822 5.27723 1.20042 6.0002C1.20078 6.27824 1.22523 6.55563 1.27356 6.82937V6.83385C1.27356 6.83541 1.27503 6.83678 1.27539 6.83861C1.37207 7.38416 1.56332 7.90855 1.84035 8.38836C1.84218 8.39212 1.84218 8.39633 1.84438 8.40017C1.84776 8.40512 1.85143 8.40988 1.85536 8.41436C2.13212 8.88758 2.48742 9.31036 2.90589 9.66447C2.90992 9.6685 2.91175 9.67354 2.91596 9.67711C2.92008 9.68068 2.92512 9.68169 2.92933 9.68489C4.70741 11.1717 7.29506 11.1717 9.07314 9.68489C9.07735 9.68169 9.08229 9.6805 9.0865 9.67711C9.09071 9.67372 9.09255 9.6685 9.09648 9.66447C9.51505 9.31036 9.87026 8.88758 10.1471 8.41436C10.1507 8.40979 10.1541 8.40512 10.1571 8.40017C10.1593 8.39633 10.1593 8.39212 10.1611 8.38836C10.4379 7.90855 10.6288 7.38406 10.7252 6.83861C10.7252 6.83678 10.7267 6.83559 10.7271 6.83385C10.7274 6.83202 10.7271 6.83083 10.7271 6.82937C10.7753 6.55563 10.7998 6.27824 10.8 6.0002C10.8017 5.27714 10.6381 4.56324 10.3217 3.91314Z" fill="#141005"/>
<path d="M0.909201 0.909418C0.41703 1.40177 0.791193 2.48938 1.28355 2.98073C1.51599 3.21647 1.82955 3.35471 2.16032 3.36734H2.20371C2.29819 3.36634 2.39212 3.35425 2.48376 3.33136L5.0141 5.86326C5.00632 5.90858 5.00175 5.95444 5.00028 6.0004C5.00175 6.04645 5.00632 6.09232 5.0141 6.13764L4.72691 6.42501C4.49246 6.65938 4.49246 7.0394 4.72691 7.27377C4.96128 7.50813 5.3413 7.50813 5.57567 7.27377L5.86286 6.98658C5.90827 6.99436 5.95414 6.99893 6.00019 7.0004C6.04633 6.99893 6.09219 6.99436 6.1376 6.98658L6.4258 7.27477C6.662 7.50566 7.03955 7.50484 7.27456 7.27276C7.50499 7.03702 7.50453 6.66029 7.27355 6.42501L6.98636 6.13764C6.99414 6.09232 6.99872 6.04645 7.00018 6.0004C6.99872 5.95444 6.99414 5.90858 6.98636 5.86326L9.56193 3.28751C9.78988 3.39847 10.0633 3.35205 10.2419 3.17216L11.656 1.75799C11.7113 1.70865 11.7349 1.63275 11.7172 1.56079C11.6994 1.48884 11.6433 1.43262 11.5713 1.41468C11.4995 1.39674 11.4235 1.41999 11.3741 1.47519L9.96008 2.88918C9.88208 2.96672 9.7561 2.96672 9.6781 2.88918L9.53648 2.74755L11.0919 1.19221C11.1438 1.14195 11.1647 1.06762 11.1464 0.997672C11.1281 0.927819 11.0735 0.873164 11.0036 0.854854C10.9336 0.836544 10.8593 0.857418 10.8091 0.909418L9.25368 2.46476L9.11214 2.32313C9.0346 2.24513 9.0346 2.11916 9.11214 2.04115L10.526 0.626987C10.6018 0.548529 10.6008 0.423839 10.5237 0.346662C10.4465 0.269486 10.3218 0.268479 10.2433 0.34419L8.82935 1.75836C8.64927 1.93688 8.60267 2.21025 8.71335 2.43839L6.1376 5.01423C6.09219 5.00654 6.04633 5.00196 6.00019 5.0005C5.95414 5.00196 5.90827 5.00654 5.86286 5.01423L3.33371 2.48517C3.35944 2.37906 3.3707 2.26994 3.36713 2.16081C3.3544 1.82986 3.21607 1.5163 2.98033 1.28376C2.48797 0.791411 1.40036 0.416789 0.909201 0.909418ZM2.17414 2.96773C1.94463 2.9583 1.72738 2.86181 1.56634 2.69793C1.17817 2.30958 0.918997 1.4654 1.192 1.19221C1.2906 1.10982 1.41748 1.06926 1.54556 1.07924C1.97456 1.10314 2.38187 1.27543 2.69772 1.56656C2.86159 1.7276 2.95799 1.94484 2.96751 2.17436C2.97886 2.38804 2.89894 2.5965 2.74761 2.74783C2.59637 2.89916 2.38782 2.97908 2.17414 2.96773ZM5.29287 6.99097C5.25534 7.0286 5.20435 7.04974 5.15125 7.04974C5.09815 7.04974 5.04715 7.0286 5.00962 6.99097C4.97208 6.95353 4.95094 6.90253 4.95094 6.84943C4.95094 6.79624 4.97208 6.74534 5.00962 6.70781L5.16663 6.5508C5.24115 6.66313 5.33746 6.75935 5.44988 6.83378L5.29287 6.99097ZM6.98984 6.70698C7.04056 6.75743 7.06051 6.83103 7.0422 6.90024C7.02389 6.96936 6.97015 7.02347 6.90113 7.04224C6.8321 7.06091 6.75831 7.04141 6.70759 6.99097L6.55058 6.83405C6.66301 6.75944 6.75922 6.66313 6.83384 6.5508L6.98984 6.70698ZM8.96969 2.74719L9.25295 3.03035L6.83301 5.45028C6.75849 5.33786 6.66218 5.24146 6.54985 5.16684L8.96969 2.74719ZM6.6002 6.0004C6.6002 6.33181 6.3316 6.60042 6.00019 6.60042C5.66887 6.60042 5.40026 6.33181 5.40026 6.0004C5.40026 5.66908 5.66887 5.40048 6.00019 5.40048C6.3316 5.40048 6.6002 5.66908 6.6002 6.0004ZM5.44988 5.16703C5.33746 5.24155 5.24115 5.33786 5.16663 5.45028L2.87477 3.15815C2.98674 3.08317 3.08314 2.98732 3.15876 2.87572L5.44988 5.16703Z" fill="#141005"/>
<path d="M7.30018 2.42941C7.35008 2.44744 7.4051 2.44497 7.45316 2.42245C7.50123 2.39993 7.53831 2.35928 7.55634 2.30939L7.69156 1.93797C7.76599 1.96919 7.83996 2.00242 7.91293 2.03803C8.01235 2.08628 8.1321 2.04481 8.18034 1.94539C8.22859 1.84596 8.18712 1.72631 8.08779 1.67797C7.94277 1.60784 7.79519 1.54641 7.64578 1.49157C7.64441 1.49157 7.6434 1.48984 7.64194 1.48919C7.64057 1.48865 7.63956 1.48919 7.63837 1.48919C6.57996 1.10386 5.41966 1.10386 4.36126 1.48919H4.35888L4.3565 1.49084C4.20562 1.54568 4.05768 1.60821 3.91312 1.67797C3.8137 1.72631 3.77232 1.84606 3.82057 1.94548C3.8689 2.0449 3.98865 2.08628 4.08807 2.03803C4.16113 2.00242 4.23492 1.9691 4.30926 1.93797L4.44448 2.30957C4.46791 2.37805 4.5265 2.42849 4.59773 2.44159C4.66886 2.45459 4.74156 2.42813 4.7877 2.37237C4.83393 2.31662 4.84638 2.24027 4.82029 2.1728L4.68525 1.80184C5.04678 1.68795 5.42159 1.62212 5.80024 1.60583V2.00022C5.80024 2.11063 5.88977 2.20017 6.00018 2.20017C6.11068 2.20017 6.20022 2.11063 6.20022 2.00022V1.60583C6.57896 1.62222 6.95385 1.68832 7.31538 1.80239L7.18016 2.17298C7.16204 2.22287 7.16451 2.27799 7.18703 2.32605C7.20955 2.37421 7.2502 2.41137 7.30018 2.42941Z" fill="#141005"/>
</g>
<defs>
<clipPath id="clip0_1142_2071">
<rect width="12" height="12" fill="white"/>
</clipPath>
</defs>
</svg>
