<svg width="16" height="16" viewBox="0 0 16 16" fill="none" xmlns="http://www.w3.org/2000/svg">
<path d="M5.55371 11.8972C5.52283 11.9534 5.47498 11.9702 5.43005 11.9702C5.38513 11.9702 5.34021 11.9534 5.30933 11.8972L4.98621 11.2904V12.5207C4.98621 12.5967 4.89355 12.636 4.80371 12.636C4.71094 12.636 4.62109 12.5967 4.62109 12.5207V10.765C4.62109 10.6302 4.71094 10.5825 4.80371 10.5825C4.93567 10.5825 4.99475 10.6106 5.0874 10.7762L5.43298 11.4055L5.77844 10.7762C5.87122 10.6106 5.93298 10.5825 6.06506 10.5825C6.15771 10.5825 6.24756 10.6302 6.24756 10.765V12.5207C6.24756 12.5967 6.15491 12.636 6.06506 12.636C5.97229 12.636 5.88245 12.5967 5.88245 12.5207V11.3129L5.55371 11.8972Z" fill="black"/>
<path d="M7.26562 11.4646H7.69263C7.76562 11.4646 7.80774 11.5349 7.80774 11.6107C7.80774 11.6753 7.77124 11.7512 7.69263 11.7512H7.26562V12.3158H8.06055C8.13367 12.3158 8.17578 12.3916 8.17578 12.4788C8.17578 12.5546 8.13928 12.6361 8.06055 12.6361H7.06055C6.97913 12.6361 6.90039 12.5967 6.90039 12.5209V10.6978C6.90039 10.6219 6.979 10.5825 7.06055 10.5825H8.06055C8.13928 10.5825 8.17578 10.6641 8.17578 10.7399C8.17578 10.827 8.13367 10.9028 8.06055 10.9028H7.26562V11.4646Z" fill="black"/>
<path d="M9.67236 12.5209L9.06836 11.3916V12.5209C9.06836 12.5968 8.97571 12.6361 8.88574 12.6361C8.79309 12.6361 8.70312 12.5968 8.70312 12.5209V10.6978C8.70312 10.6191 8.79309 10.5826 8.88574 10.5826C9.01782 10.5826 9.07117 10.6107 9.15833 10.7764L9.70044 11.8242V10.6949C9.70044 10.6163 9.79028 10.5825 9.88306 10.5825C9.9729 10.5825 10.0656 10.6162 10.0656 10.6949V12.5209C10.0656 12.5967 9.9729 12.6361 9.88306 12.6361C9.7959 12.6361 9.72009 12.608 9.67236 12.5209Z" fill="black"/>
<path d="M11.6923 10.6948C11.6923 10.6162 11.7821 10.5825 11.8748 10.5825C11.9647 10.5825 12.0574 10.6162 12.0574 10.6948V12.0095C12.0574 12.4786 11.7596 12.6528 11.3832 12.6528C11.0039 12.6528 10.709 12.4786 10.709 12.0095V10.6948C10.709 10.6162 10.7988 10.5825 10.8916 10.5825C10.9814 10.5825 11.0741 10.6162 11.0741 10.6948V12.0095C11.0741 12.2286 11.1893 12.3326 11.3832 12.3326C11.577 12.3326 11.6921 12.2286 11.6921 12.0095V10.6948H11.6923Z" fill="black"/>
<path d="M12.4144 13.1919H11.0791C10.948 13.1919 10.8418 13.2981 10.8418 13.4291C10.8418 13.5602 10.948 13.6663 11.0791 13.6663H12.4144C12.5455 13.6663 12.6516 13.5602 12.6516 13.4291C12.6516 13.2981 12.5455 13.1919 12.4144 13.1919Z" fill="black"/>
<path d="M9.97559 13.1919H4.57117C4.44019 13.1919 4.33398 13.2981 4.33398 13.4291C4.33398 13.5602 4.44019 13.6663 4.57117 13.6663H9.97559C10.1067 13.6663 10.2128 13.5602 10.2128 13.4291C10.2128 13.2981 10.1067 13.1919 9.97559 13.1919Z" fill="black"/>
<path d="M12.4147 9.56982H4.57117C4.44019 9.56982 4.33398 9.67603 4.33398 9.80701C4.33398 9.93799 4.44019 10.0442 4.57117 10.0442H12.4147C12.5458 10.0442 12.6519 9.93799 12.6519 9.80701C12.6519 9.67603 12.5458 9.56982 12.4147 9.56982Z" fill="black"/>
<path d="M12.2827 6.62914H12.0525C11.9636 4.99475 10.7689 3.64978 9.20532 3.33142L9.2511 2.8938C9.26611 2.75098 9.21948 2.60791 9.12341 2.50134C9.02734 2.39465 8.88989 2.3335 8.74634 2.3335H8.23962C8.09595 2.3335 7.95862 2.39478 7.86243 2.50134C7.76636 2.60803 7.71985 2.7511 7.73486 2.8938L7.78064 3.33142C6.21704 3.64978 5.02234 4.99462 4.93347 6.62902H4.70325C4.49963 6.62902 4.33398 6.79467 4.33398 6.99828V7.48778C4.33398 7.6914 4.49963 7.85705 4.70325 7.85705H12.2826C12.4862 7.85705 12.6519 7.6914 12.6519 7.48778V6.99828C12.6519 6.79479 12.4863 6.62914 12.2827 6.62914ZM8.21497 2.81885C8.22156 2.81164 8.22974 2.80798 8.23962 2.80798H8.74634C8.7561 2.80798 8.7644 2.81164 8.771 2.81885C8.77759 2.82617 8.7804 2.83484 8.7793 2.84448L8.73499 3.26831C8.65503 3.26294 8.57434 3.25989 8.49304 3.25989C8.41162 3.25989 8.33105 3.26294 8.2511 3.26831L8.20667 2.84448C8.20569 2.83484 8.2085 2.82617 8.21497 2.81885ZM12.1775 7.38268H4.80847V7.10351H5.80811C5.93921 7.10351 6.04541 6.99731 6.04541 6.86632C6.04541 6.73534 5.93921 6.62914 5.80811 6.62914H5.40881C5.51013 5.01586 6.85461 3.73437 8.49292 3.73437C10.1313 3.73437 11.4758 5.01586 11.5771 6.62914H6.91187C6.78076 6.62914 6.67468 6.73534 6.67468 6.86632C6.67468 6.99731 6.78076 7.10351 6.91187 7.10351H12.1775V7.38268Z" fill="black"/>
<path d="M14.1089 0H2.87634C2.54333 0 2.27234 0.270996 2.27234 0.604003V1.03247H2.05103C1.6438 1.03247 1.3125 1.36389 1.3125 1.77111C1.3125 2.17834 1.6438 2.50976 2.05103 2.50976H2.27234V3.52404H2.05103C1.6438 3.52404 1.3125 3.85534 1.3125 4.26269C1.3125 4.66991 1.6438 5.00121 2.05103 5.00121H2.27234V6.01561H2.05103C1.6438 6.01561 1.3125 6.34691 1.3125 6.75426C1.3125 7.16149 1.6438 7.49278 2.05103 7.49278H2.27234V8.50719H2.05103C1.6438 8.50719 1.3125 8.83848 1.3125 9.24571C1.3125 9.65306 1.6438 9.98436 2.05103 9.98436H2.27234V10.9988H2.05103C1.6438 10.9988 1.3125 11.3301 1.3125 11.7373C1.3125 12.1446 1.6438 12.4759 2.05103 12.4759H2.27234V13.4903H2.05103C1.6438 13.4903 1.3125 13.8216 1.3125 14.2289C1.3125 14.6361 1.6438 14.9675 2.05103 14.9675H2.27234V15.396C2.27234 15.729 2.54333 16 2.87634 16H14.1089C14.4419 16 14.713 15.729 14.713 15.396V0.604003C14.713 0.270996 14.4419 0 14.1089 0ZM2.27222 2.0354H2.05103C1.9054 2.0354 1.78687 1.91687 1.78687 1.77111C1.78687 1.62549 1.9054 1.50696 2.05103 1.50696H2.27222V2.0354ZM2.27222 4.52685H2.05103C1.9054 4.52685 1.78687 4.40832 1.78687 4.26269C1.78687 4.11694 1.9054 3.99853 2.05103 3.99853H2.27222V4.52685ZM2.27222 7.01842H2.05103C1.9054 7.01842 1.78687 6.89989 1.78687 6.75426C1.78687 6.60851 1.9054 6.48998 2.05103 6.48998H2.27222V7.01842ZM2.27222 9.50999H2.05103C1.9054 9.50999 1.78687 9.39146 1.78687 9.24571C1.78687 9.10008 1.9054 8.98155 2.05103 8.98155H2.27222V9.50999ZM2.27222 12.0014H2.05103C1.9054 12.0014 1.78687 11.883 1.78687 11.7373C1.78687 11.5917 1.9054 11.4731 2.05103 11.4731H2.27222V12.0014ZM2.27222 14.493H2.05103C1.9054 14.493 1.78687 14.3745 1.78687 14.2289C1.78687 14.0831 1.9054 13.9647 2.05103 13.9647H2.27222V14.493ZM14.2385 15.3958C14.2385 15.4674 14.1804 15.5256 14.1089 15.5256H2.87634C2.80481 15.5256 2.7467 15.4674 2.7467 15.3958V0.604003C2.7467 0.532592 2.80481 0.474364 2.87634 0.474364H14.1089C14.1804 0.474364 14.2385 0.532592 14.2385 0.604003V15.3958Z" fill="black"/>
</svg>
