<svg width="16" height="16" viewBox="0 0 16 16" fill="none" xmlns="http://www.w3.org/2000/svg">
<mask id="mask0_1008_3323" style="mask-type:luminance" maskUnits="userSpaceOnUse" x="0" y="0" width="16" height="16">
<path d="M0 1.90735e-06H16V16H0V1.90735e-06Z" fill="white"/>
</mask>
<g mask="url(#mask0_1008_3323)">
<path d="M8 0.625001C3.92691 0.625001 0.625 3.92691 0.625 8C0.625 9.43391 1.03466 10.7719 1.74269 11.9043L0.625 15.375L4.09572 14.2573C5.22806 14.9653 6.56609 15.375 8 15.375C12.0731 15.375 15.375 12.0731 15.375 8C15.375 3.92691 12.0731 0.625001 8 0.625001Z" stroke="#141005" stroke-miterlimit="10" stroke-linecap="round" stroke-linejoin="round"/>
<path d="M8.78125 8C8.78125 8.43147 8.43147 8.78125 8 8.78125C7.56853 8.78125 7.21875 8.43147 7.21875 8C7.21875 7.56853 7.56853 7.21875 8 7.21875C8.43147 7.21875 8.78125 7.56853 8.78125 8Z" fill="#141005"/>
<path d="M11.9062 8C11.9062 8.43147 11.5565 8.78125 11.125 8.78125C10.6935 8.78125 10.3438 8.43147 10.3438 8C10.3438 7.56853 10.6935 7.21875 11.125 7.21875C11.5565 7.21875 11.9062 7.56853 11.9062 8Z" fill="#141005"/>
<path d="M5.65625 8C5.65625 8.43147 5.30647 8.78125 4.875 8.78125C4.44353 8.78125 4.09375 8.43147 4.09375 8C4.09375 7.56853 4.44353 7.21875 4.875 7.21875C5.30647 7.21875 5.65625 7.56853 5.65625 8Z" fill="#141005"/>
</g>
</svg>
