<svg width="28" height="28" viewBox="0 0 28 28" fill="none" xmlns="http://www.w3.org/2000/svg">
<path d="M23.5206 12.8461C23.2635 15.1703 22.1534 17.3141 20.4034 18.8945C18.8557 20.2891 16.9198 21.1313 14.8745 21.3227V26.25H16.5916C17.0729 26.25 17.4666 26.6437 17.4666 27.125C17.4666 27.6063 17.0729 28 16.5916 28H11.4018C10.9206 28 10.5268 27.6063 10.5268 27.125C10.5268 26.6437 10.9206 26.25 11.4018 26.25H13.1245V21.3227C11.0791 21.1367 9.14321 20.2891 7.59555 18.8945C5.84555 17.3141 4.73539 15.1703 4.47836 12.8461C4.42367 12.3648 4.76821 11.9328 5.24946 11.8781C5.73071 11.8234 6.16274 12.168 6.21742 12.6492C6.66039 16.6195 10.0073 19.6109 13.9995 19.6109C17.9916 19.6109 21.3385 16.6195 21.7815 12.6492C21.8362 12.168 22.2682 11.8234 22.7495 11.8781C23.2307 11.9328 23.5752 12.3648 23.5206 12.8461ZM8.10961 11.7797V5.88984C8.10961 2.64141 10.751 0 13.9995 0C17.2479 0 19.8893 2.64141 19.8893 5.88984V11.7797C19.8893 15.0281 17.2479 17.6695 13.9995 17.6695C10.751 17.6695 8.10961 15.0281 8.10961 11.7797ZM9.85961 11.7797C9.85961 14.0602 11.7135 15.9195 13.9995 15.9195C16.2854 15.9195 18.1393 14.0656 18.1393 11.7797V5.88984C18.1393 3.60937 16.2854 1.75 13.9995 1.75C11.7135 1.75 9.85961 3.60391 9.85961 5.88984V11.7797Z" fill="#1C72B0"/>
</svg>
