<svg width="63" height="26" viewBox="0 0 63 26" fill="none" xmlns="http://www.w3.org/2000/svg">
<rect x="0.25" y="1.25" width="62.5" height="23.5" rx="11.75" stroke="#141005" stroke-width="0.5"/>
<rect width="26" height="26" rx="13" fill="#141005"/>
<path fill-rule="evenodd" clip-rule="evenodd" d="M14.1935 5.42952C14.2799 5.32918 14.2991 5.18746 14.2427 5.06747C14.1858 4.94799 14.0642 4.87248 13.9318 4.87506C9.81689 4.95213 6.5 8.31712 6.5 12.4507C6.5 16.6329 9.89498 20.0279 14.0772 20.0279C16.3803 20.0279 18.4445 18.9981 19.8348 17.3745C19.9206 17.2742 19.9398 17.1325 19.8834 17.0125C19.827 16.893 19.7055 16.8175 19.5731 16.8201C19.5291 16.8206 19.4846 16.8211 19.4407 16.8211C15.6298 16.8211 12.5359 13.7272 12.5359 9.91634C12.5359 8.20436 13.1602 6.63669 14.1935 5.42952Z" fill="#C19632"/>
</svg>
