<svg width="16" height="16" viewBox="0 0 16 16" fill="none" xmlns="http://www.w3.org/2000/svg">
<path d="M7.88696 7.70726C8.9458 7.70726 9.86255 7.3275 10.6118 6.57823C11.3608 5.82909 11.7407 4.91247 11.7407 3.85351C11.7407 2.79492 11.361 1.87817 10.6117 1.12878C9.86243 0.37976 8.94568 0 7.88696 0C6.828 0 5.91138 0.37976 5.16223 1.1289C4.41309 1.87805 4.0332 2.79479 4.0332 3.85351C4.0332 4.91247 4.41309 5.82921 5.16223 6.57836C5.91162 7.32738 6.82837 7.70726 7.88696 7.70726ZM5.82532 1.79187C6.40015 1.21704 7.07446 0.93762 7.88696 0.93762C8.69934 0.93762 9.37378 1.21704 9.94873 1.79187C10.5236 2.36682 10.8031 3.04125 10.8031 3.85351C10.8031 4.66601 10.5236 5.34032 9.94873 5.91527C9.37378 6.49022 8.69934 6.76964 7.88696 6.76964C7.07471 6.76964 6.40039 6.4901 5.82532 5.91527C5.25037 5.34044 4.97083 4.66601 4.97083 3.85351C4.97083 3.04125 5.25037 2.36682 5.82532 1.79187Z" fill="black"/>
<path d="M14.629 12.2816C14.6074 11.9698 14.5637 11.6298 14.4994 11.2706C14.4344 10.9088 14.3508 10.5668 14.2507 10.2541C14.1472 9.93103 14.0067 9.61193 13.8328 9.30615C13.6525 8.98877 13.4406 8.7124 13.2028 8.48498C12.9541 8.24707 12.6497 8.05579 12.2976 7.91626C11.9468 7.77747 11.558 7.70715 11.1421 7.70715C10.9788 7.70715 10.8208 7.77417 10.5157 7.97278C10.328 8.09521 10.1084 8.23682 9.86328 8.39343C9.65369 8.52698 9.36975 8.6521 9.01904 8.76538C8.67688 8.8761 8.32947 8.93225 7.98645 8.93225C7.64368 8.93225 7.29626 8.8761 6.95386 8.76538C6.60352 8.65222 6.31946 8.5271 6.11023 8.39355C5.86743 8.2384 5.64771 8.0968 5.45715 7.97266C5.15234 7.77405 4.99438 7.70703 4.83105 7.70703C4.41504 7.70703 4.02637 7.77747 3.67566 7.91638C3.32385 8.05566 3.01929 8.24695 2.77039 8.48511C2.53259 8.71264 2.32068 8.98889 2.1405 9.30615C1.9668 9.61193 1.82617 9.9309 1.72266 10.2543C1.62268 10.5669 1.53906 10.9088 1.47412 11.2706C1.40967 11.6293 1.36609 11.9695 1.34448 12.282C1.32324 12.5875 1.3125 12.9055 1.3125 13.2268C1.3125 14.062 1.578 14.7381 2.10156 15.2368C2.61865 15.7289 3.30273 15.9784 4.13489 15.9784H11.839C12.6709 15.9784 13.355 15.7289 13.8722 15.2368C14.3959 14.7385 14.6614 14.0621 14.6614 13.2267C14.6613 12.9043 14.6504 12.5863 14.629 12.2816ZM13.2257 14.5575C12.884 14.8827 12.4304 15.0408 11.8389 15.0408H4.13489C3.54321 15.0408 3.0896 14.8827 2.74805 14.5576C2.41296 14.2386 2.25012 13.8032 2.25012 13.2268C2.25012 12.927 2.26001 12.631 2.27979 12.3468C2.29907 12.068 2.3385 11.7617 2.39697 11.4363C2.45471 11.1149 2.5282 10.8132 2.6156 10.5402C2.69946 10.2783 2.81384 10.019 2.95569 9.76928C3.09106 9.53125 3.24683 9.32702 3.4187 9.16247C3.57947 9.00854 3.7821 8.88257 4.02087 8.78808C4.2417 8.70068 4.48987 8.65283 4.75928 8.64563C4.79211 8.66308 4.85059 8.69641 4.94531 8.75818C5.13806 8.88379 5.36023 9.0271 5.60583 9.18396C5.88269 9.36047 6.23938 9.51989 6.66553 9.65747C7.1012 9.79834 7.54553 9.86987 7.98657 9.86987C8.42761 9.86987 8.87207 9.79834 9.3075 9.65759C9.73401 9.51977 10.0906 9.36047 10.3678 9.18371C10.6191 9.02307 10.8351 8.88391 11.0278 8.75818C11.1226 8.69653 11.181 8.66308 11.2139 8.64563C11.4834 8.65283 11.7316 8.70068 11.9525 8.78808C12.1912 8.88257 12.3938 9.00866 12.5546 9.16247C12.7264 9.3269 12.8822 9.53112 13.0176 9.76941C13.1595 10.019 13.274 10.2784 13.3578 10.54C13.4453 10.8135 13.5189 11.115 13.5765 11.4361C13.6349 11.7622 13.6744 12.0686 13.6937 12.3469V12.3472C13.7136 12.6302 13.7236 12.9261 13.7238 13.2268C13.7236 13.8033 13.5608 14.2386 13.2257 14.5575Z" fill="black"/>
</svg>
