<svg width="40" height="40" viewBox="0 0 40 40" fill="none" xmlns="http://www.w3.org/2000/svg">
<path d="M20.0001 39.1973C16.6566 39.1964 13.3713 38.3225 10.4692 36.662C7.56708 35.0016 5.14882 32.6122 3.45367 29.7302C1.75852 26.8483 0.84524 23.5737 0.804183 20.2304C0.763125 16.8871 1.59572 13.5911 3.21958 10.6684C3.32096 10.4865 3.49045 10.3523 3.69076 10.2953C3.89107 10.2384 4.1058 10.2634 4.28771 10.3647C4.46961 10.4661 4.6038 10.6356 4.66074 10.8359C4.71769 11.0362 4.69272 11.2509 4.59135 11.4329C2.71079 14.8137 1.99453 18.7192 2.55298 22.5473C3.11142 26.3754 4.91358 29.9135 7.68159 32.6162C10.4496 35.3189 14.0298 37.036 17.8701 37.5029C21.7105 37.9697 25.5978 37.1604 28.9327 35.1996C32.2676 33.2388 34.865 30.2355 36.3243 26.6527C37.7837 23.0699 38.024 19.1065 37.0082 15.3736C35.9924 11.6407 33.777 8.34557 30.7034 5.99623C27.6298 3.6469 23.8688 2.37381 20.0001 2.37325C17.2799 2.36534 14.5955 2.99352 12.1612 4.20762C11.9748 4.30038 11.7591 4.31526 11.5616 4.24898C11.3642 4.18271 11.2011 4.04071 11.1084 3.85423C11.0156 3.66775 11.0007 3.45206 11.067 3.25461C11.1333 3.05716 11.2753 2.89413 11.4618 2.80137C14.1132 1.47882 17.0371 0.794422 20.0001 0.802811C25.0916 0.802811 29.9744 2.82537 33.5746 6.42555C37.1748 10.0257 39.1974 14.9086 39.1974 20C39.1974 25.0915 37.1748 29.9744 33.5746 33.5745C29.9744 37.1747 25.0916 39.1973 20.0001 39.1973Z" fill="black"/>
<path d="M32.6912 23.306H7.30866C7.1004 23.306 6.90068 23.2232 6.75343 23.076C6.60617 22.9287 6.52344 22.729 6.52344 22.5207V17.4796C6.52344 17.2713 6.60617 17.0716 6.75343 16.9243C6.90068 16.7771 7.1004 16.6943 7.30866 16.6943H32.6912C32.8994 16.6943 33.0992 16.7771 33.2464 16.9243C33.3937 17.0716 33.4764 17.2713 33.4764 17.4796V22.5208C33.4764 22.729 33.3937 22.9287 33.2464 23.076C33.0992 23.2232 32.8994 23.306 32.6912 23.306ZM8.09388 21.7355H31.906V18.2648H8.09388V21.7355Z" fill="black"/>
<path d="M27.9129 23.306C27.7047 23.306 27.5049 23.2232 27.3577 23.076C27.2104 22.9287 27.1277 22.729 27.1277 22.5207V17.4796C27.1277 17.2713 27.2104 17.0716 27.3577 16.9243C27.5049 16.7771 27.7046 16.6943 27.9129 16.6943C28.1212 16.6943 28.3209 16.7771 28.4681 16.9243C28.6154 17.0716 28.6981 17.2713 28.6981 17.4796V22.5208C28.6981 22.729 28.6154 22.9287 28.4681 23.076C28.3209 23.2232 28.1212 23.306 27.9129 23.306Z" fill="black"/>
<path d="M10.2327 23.306C10.0245 23.306 9.82476 23.2232 9.6775 23.076C9.53024 22.9287 9.44751 22.729 9.44751 22.5207V17.4796C9.44751 17.2713 9.53024 17.0716 9.67749 16.9243C9.82475 16.7771 10.0245 16.6943 10.2327 16.6943C10.441 16.6943 10.6407 16.7771 10.788 16.9243C10.9352 17.0716 11.0179 17.2713 11.0179 17.4796V22.5208C11.0179 22.729 10.9352 22.9287 10.788 23.076C10.6407 23.2232 10.441 23.306 10.2327 23.306Z" fill="black"/>
<path d="M6.86379 15.1068C6.72327 15.1066 6.58538 15.0687 6.46449 14.9971C6.3436 14.9255 6.24414 14.8227 6.17647 14.6996C6.10881 14.5764 6.07541 14.4374 6.07978 14.2969C6.08414 14.1565 6.12611 14.0198 6.20129 13.901C6.20891 13.889 6.95263 12.6845 6.68988 11.4477C6.53149 10.7022 6.15751 10.1852 5.76138 9.63773C5.2789 8.97108 4.73218 8.21531 4.73218 7.11026C4.73218 5.41026 5.63718 3.87861 5.67563 3.81422C5.78289 3.63613 5.95639 3.50784 6.1581 3.45748C6.3598 3.40711 6.57324 3.43879 6.75163 3.54555C6.93001 3.65232 7.05879 3.82546 7.10971 4.02702C7.16063 4.22858 7.12956 4.44211 7.02329 4.6208C7.01704 4.63133 6.30262 5.85264 6.30262 7.11026C6.30262 7.67911 6.5669 8.07187 7.03387 8.71717C7.46371 9.31134 7.99883 10.0508 8.22619 11.1213C8.62505 12.9983 7.57113 14.6742 7.52619 14.7445C7.45517 14.8558 7.35723 14.9473 7.24144 15.0106C7.12565 15.0739 6.99576 15.107 6.86379 15.1068Z" fill="black"/>
<path d="M10.1199 12.4773C9.98068 12.4771 9.84404 12.44 9.72394 12.3697C9.60383 12.2993 9.50458 12.1983 9.43633 12.077C9.36808 11.9557 9.3333 11.8184 9.33555 11.6793C9.33779 11.5401 9.37697 11.404 9.44909 11.285C9.67309 10.9125 10.1971 9.75843 9.93631 8.8999C9.70745 8.14191 9.35126 7.42839 8.883 6.78991C8.4582 6.16782 8.01904 5.52429 8.01904 4.4283C8.04417 3.28169 8.36134 2.16043 8.94056 1.17055C9.05128 0.994148 9.22755 0.868953 9.43058 0.82251C9.63361 0.776067 9.84677 0.81218 10.0232 0.922904C10.1996 1.03363 10.3248 1.20989 10.3712 1.41292C10.4177 1.61595 10.3815 1.82912 10.2708 2.00552C9.84875 2.74514 9.61481 3.57711 9.58957 4.42832C9.58957 5.03943 9.79939 5.34674 10.1801 5.90446C10.7399 6.67381 11.1656 7.53232 11.439 8.44366C11.9502 10.1269 10.9112 11.9037 10.7911 12.1007C10.721 12.2159 10.6224 12.311 10.5048 12.3769C10.3872 12.4429 10.2547 12.4775 10.1199 12.4773Z" fill="black"/>
<path d="M8.28943 34.9937C8.14349 34.9936 8.00048 34.9528 7.87644 34.8759C7.75241 34.799 7.65225 34.689 7.5872 34.5584C7.52216 34.4277 7.4948 34.2816 7.5082 34.1362C7.5216 33.9909 7.57522 33.8522 7.66305 33.7357L29.8086 4.3628C29.8707 4.28046 29.9484 4.21116 30.0372 4.15884C30.1261 4.10653 30.2244 4.07223 30.3265 4.05791C30.4286 4.04358 30.5326 4.04951 30.6324 4.07535C30.7322 4.1012 30.826 4.14645 30.9083 4.20853C30.9906 4.27061 31.0599 4.3483 31.1123 4.43716C31.1646 4.52602 31.1989 4.62431 31.2132 4.72643C31.2275 4.82855 31.2216 4.93249 31.1957 5.03231C31.1699 5.13214 31.1246 5.2259 31.0626 5.30823L8.91702 34.6811C8.84386 34.7783 8.74906 34.8572 8.64013 34.9115C8.5312 34.9658 8.41113 34.9939 8.28943 34.9937Z" fill="black"/>
</svg>
