<svg width="16" height="16" viewBox="0 0 16 16" fill="none" xmlns="http://www.w3.org/2000/svg">
<g clip-path="url(#clip0_1080_4264)">
<path d="M15.6651 7.17582L14.5741 6.04626C14.4899 5.95935 14.4497 5.8361 14.4668 5.71635L14.6858 4.16185C14.7758 3.52445 14.3493 2.93842 13.7158 2.82754L12.1694 2.55635C12.05 2.53548 11.945 2.45901 11.8886 2.3516L11.1538 0.965541C10.8521 0.396134 10.1622 0.172072 9.58347 0.455603L8.17384 1.14554C8.06491 1.19885 7.93509 1.19885 7.82616 1.14554L6.41653 0.455603C5.83747 0.172041 5.14828 0.396103 4.84619 0.965541L4.11144 2.3516C4.05425 2.46054 3.9515 2.53473 3.83059 2.55635L2.28459 2.82754C1.65066 2.93801 1.22456 3.52445 1.31456 4.16145L1.53322 5.71632C1.55022 5.83763 1.51159 5.95813 1.42584 6.04623L0.334907 7.17579C-0.111656 7.63782 -0.111656 8.36251 0.334907 8.82454L1.42584 9.9541C1.51006 10.041 1.55022 10.1643 1.53322 10.284L1.31419 11.8385C1.22419 12.4759 1.65066 13.0619 2.28419 13.1728L3.83056 13.444C3.94994 13.4649 4.055 13.5414 4.11141 13.6488L4.84616 15.0348C5.14825 15.6042 5.83781 15.8283 6.4165 15.5448L7.82613 14.8548C7.93506 14.8015 8.06488 14.8015 8.17381 14.8548L9.58344 15.5448C9.75303 15.6278 9.93188 15.6672 10.108 15.6672C10.533 15.6672 10.9405 15.4374 11.1538 15.0349L11.8885 13.6488C11.9457 13.5399 12.0484 13.4657 12.1693 13.444L13.7153 13.1729C14.3493 13.0624 14.7754 12.4759 14.6853 11.8389L14.4667 10.2841C14.4497 10.1628 14.4883 10.0423 14.5741 9.95417L15.665 8.8246C16.1117 8.36254 16.1117 7.63785 15.6651 7.17582ZM15.096 8.27523L14.0051 9.40401C13.749 9.66901 13.6319 10.0298 13.6833 10.3945L13.902 11.949C13.9321 12.1615 13.7899 12.3569 13.579 12.394L12.0323 12.6652C11.6691 12.729 11.362 12.9526 11.1893 13.2783L10.4546 14.664C10.3542 14.854 10.1247 14.929 9.93116 14.8344L8.52153 14.144C8.3585 14.0644 8.17925 14.0243 8.00003 14.0243C7.82081 14.0243 7.64153 14.0644 7.47853 14.1444L6.06891 14.8339C5.87613 14.929 5.64591 14.854 5.54547 14.664L4.81072 13.2779C4.63803 12.9519 4.33053 12.7286 3.96703 12.6652L2.42103 12.3937C2.21013 12.3566 2.06794 12.1615 2.09769 11.949L2.31672 10.3945C2.36809 10.0298 2.25103 9.66904 1.99531 9.40442L0.904 8.27523C0.755282 8.1207 0.755282 7.87967 0.904 7.72513L1.99494 6.59635C2.25106 6.33135 2.36809 5.97054 2.31672 5.60585L2.09806 4.05135C2.06794 3.83888 2.21009 3.64342 2.421 3.60632L3.96778 3.33513C4.33091 3.27138 4.63803 3.04773 4.81069 2.72207L5.54544 1.33638C5.64588 1.14632 5.87613 1.07217 6.06888 1.16601L7.4785 1.85635C7.80453 2.01551 8.19547 2.01588 8.52153 1.85598L9.93116 1.16645C10.1243 1.07142 10.3542 1.14635 10.4546 1.33642L11.1893 2.72248C11.362 3.04851 11.6695 3.27182 12.033 3.33517L13.579 3.60673C13.7899 3.64382 13.9321 3.83888 13.9024 4.05138L13.6833 5.60588C13.632 5.97057 13.749 6.33135 14.0048 6.59598L15.0961 7.72513C15.2448 7.87967 15.2448 8.12073 15.096 8.27523Z" fill="#141005"/>
<path d="M10.6532 5.34686C10.4986 5.19232 10.2483 5.19232 10.0938 5.34686L5.34684 10.0938C5.19231 10.2483 5.19231 10.4986 5.34684 10.6532C5.42409 10.7304 5.52531 10.7691 5.62653 10.7691C5.72775 10.7691 5.82897 10.7304 5.90622 10.6532L10.6532 5.90623C10.8077 5.7517 10.8077 5.50139 10.6532 5.34686Z" fill="#141005"/>
<path d="M7.60598 6.02304C7.60598 5.14997 6.89595 4.43994 6.02288 4.43994C5.14982 4.43994 4.43979 5.14997 4.43979 6.02304C4.43979 6.8961 5.14982 7.60613 6.02288 7.60613C6.89595 7.60613 7.60598 6.8961 7.60598 6.02304ZM5.23098 6.02304C5.23098 5.5865 5.58638 5.2311 6.02291 5.2311C6.45945 5.2311 6.81485 5.5865 6.81485 6.02304C6.81485 6.45957 6.45945 6.81497 6.02291 6.81497C5.58635 6.81497 5.23098 6.45957 5.23098 6.02304Z" fill="#141005"/>
<path d="M9.97709 8.39404C9.10403 8.39404 8.394 9.10407 8.394 9.97714C8.394 10.8502 9.10403 11.5602 9.97709 11.5602C10.8502 11.5602 11.5602 10.8502 11.5602 9.97714C11.5602 9.10407 10.8502 8.39404 9.97709 8.39404ZM9.97709 10.769C9.54056 10.769 9.18515 10.4136 9.18515 9.97711C9.18515 9.54057 9.54056 9.18517 9.97709 9.18517C10.4136 9.18517 10.769 9.54057 10.769 9.97711C10.769 10.4136 10.4136 10.769 9.97709 10.769Z" fill="#141005"/>
</g>
<defs>
<clipPath id="clip0_1080_4264">
<rect width="16" height="16" fill="white"/>
</clipPath>
</defs>
</svg>
