<svg width="14" height="16" viewBox="0 0 14 16" fill="none" xmlns="http://www.w3.org/2000/svg">
<path fill-rule="evenodd" clip-rule="evenodd" d="M7.69354 0.554516C7.77992 0.454177 7.79905 0.312461 7.74268 0.192468C7.68578 0.0729914 7.56424 -0.00252169 7.43183 6.43792e-05C3.31689 0.0771291 0 3.44212 0 7.57568C0 11.7579 3.39498 15.1529 7.57717 15.1529C9.88032 15.1529 11.9445 14.1231 13.3348 12.4995C13.4206 12.3992 13.4398 12.2575 13.3834 12.1375C13.327 12.018 13.2055 11.9425 13.0731 11.9451C13.0291 11.9456 12.9846 11.9461 12.9407 11.9461C9.12984 11.9461 6.03587 8.85216 6.03587 5.04134C6.03587 3.32936 6.66015 1.76169 7.69354 0.554516Z" fill="#C19632"/>
</svg>
