<svg width="205" height="199" viewBox="0 0 205 199" fill="none" xmlns="http://www.w3.org/2000/svg">
<path d="M171.468 125.819C181.308 122.08 183.738 47.8293 142.003 21.7054C108.697 0.857552 61.3266 5.19695 38.5688 54.2972C15.811 103.398 171.468 125.819 171.468 125.819Z" fill="#A27E2A"/>
<path d="M171.468 125.819C181.308 122.08 183.738 47.8293 142.003 21.7054C108.697 0.857552 61.3266 5.19695 38.5688 54.2972C15.811 103.398 171.468 125.819 171.468 125.819Z" fill="#A27E2A"/>
<path d="M171.379 125.016C172.837 123.925 173.588 122.163 174.181 120.436C174.846 118.497 175.28 116.45 175.631 114.395C178.455 93.7618 174.92 71.8132 166.568 52.7908C161.392 41.3788 153.732 30.9251 143.332 23.8264C122.673 9.84482 94.3041 6.25551 72.0135 18.4784C60.9586 24.3783 51.8474 33.6327 45.2844 44.2517C43.6045 46.888 42.0742 49.6721 40.6998 52.4841C40.054 53.7814 39.2738 55.3633 38.7695 56.7145C37.5452 60.0129 37.089 63.6057 37.6583 67.0912C43.9222 101.442 140.668 120.002 171.379 125.016ZM171.557 126.622C137.161 121.476 63.0512 106.38 41.1537 79.3014C35.1964 72.008 33.389 63.1564 37.3226 54.4196C37.8988 53.0296 38.7741 51.421 39.4181 50.0588C52.9998 23.1534 77.7575 6.34361 108.478 9.10922C121.354 10.3051 133.787 14.9262 144.514 22.0967C162.452 34.4558 171.966 55.6027 176.055 76.3989C178.409 88.9824 179.305 101.974 177.305 114.676C176.61 118.227 175.348 125.27 171.557 126.622Z" fill="#141005"/>
<path d="M113.603 31.7749C122.919 31.7749 130.472 24.8757 130.472 16.365C130.472 7.85434 122.919 0.955078 113.603 0.955078C104.287 0.955078 96.7349 7.85434 96.7349 16.365C96.7349 24.8757 104.287 31.7749 113.603 31.7749Z" fill="#A27E2A"/>
<path d="M113.603 2.22412C104.677 2.22412 111.392 14.7027 113.603 15.5154C115.814 16.3286 122.53 2.22412 113.603 2.22412Z" fill="#E9F4FC"/>
<path d="M100.259 10.8141C95.3257 18.2542 109.437 19.5521 111.336 18.1591C113.235 16.7662 105.191 3.37465 100.259 10.8141Z" fill="#E9F4FC"/>
<path d="M127.798 12.8139C124.958 4.35132 115.264 14.6874 115.197 17.042C115.129 19.3966 130.637 21.2771 127.798 12.8139Z" fill="#E9F4FC"/>
<path opacity="0.5" d="M123.321 15.5952C119.501 14.5402 118.556 11.5161 115.909 9.06642C114.177 7.46364 111.604 7.9778 109.409 7.86709C106.452 7.71869 103.612 6.89498 102.283 4.94092C98.8756 7.76043 96.7349 11.8338 96.7349 16.3645C96.7349 24.8752 104.287 31.7744 113.603 31.7744C122.92 31.7744 130.472 24.8752 130.472 16.3645C130.472 15.3332 130.359 14.3269 130.147 13.3525C128.802 15.3489 126.47 16.4647 123.321 15.5952Z" fill="#EAD8AE"/>
<path d="M131.28 16.365C131.046 31.3547 111.959 37.7015 101.234 28.3213C93.7501 21.9716 93.7454 10.7567 101.233 4.40703C111.956 -4.97781 131.049 1.37768 131.28 16.365ZM129.664 16.365C129.367 2.89468 112.084 -2.44466 102.68 6.06373C96.3093 11.5178 96.3053 21.2134 102.679 26.6675C112.081 35.1811 129.37 29.8325 129.664 16.365Z" fill="#141005"/>
<path d="M123.583 27.3776C128.62 20.9085 115.787 18.7342 113.95 19.8773C112.113 21.021 118.546 33.8467 123.583 27.3776Z" fill="#E9F4FC"/>
<path d="M103.959 27.8489C109.977 34.4415 113.569 22.0696 112.607 19.9544C111.646 17.8386 97.9404 21.2563 103.959 27.8489Z" fill="#E9F4FC"/>
<path d="M144.69 46.1563C152.871 43.8133 157.424 34.654 154.86 25.6984C152.295 16.7428 143.583 11.3822 135.402 13.7252C127.221 16.0682 122.668 25.2275 125.232 34.1831C127.797 43.1387 136.509 48.4993 144.69 46.1563Z" fill="#A27E2A"/>
<path d="M153.652 26.0449C151.195 17.4635 141.047 27.3556 140.875 29.7044C140.702 32.0538 156.11 34.6264 153.652 26.0449Z" fill="#E9F4FC"/>
<path d="M141.72 15.5808C133.21 12.887 135.847 26.8101 137.709 28.2523C139.571 29.6951 150.231 18.2745 141.72 15.5808Z" fill="#E9F4FC"/>
<path opacity="0.5" d="M154.873 25.6954C154.514 24.445 154.033 23.2677 153.453 22.1687C153.406 24.1482 152.317 26.0774 150.28 26.9811C146.645 28.5949 142.491 25.9887 139.664 23.87C136.44 21.4534 134.167 18.4518 132.958 14.6846C126.356 17.9956 122.95 26.1678 125.245 34.1812C127.81 43.1376 136.521 48.4984 144.703 46.1548C152.884 43.8118 157.438 34.6518 154.873 25.6954Z" fill="#EAD8AE"/>
<path d="M144.925 46.9316C130.45 50.8339 119.094 34.2322 125.158 21.3386C129.202 12.396 139.982 9.30408 148.148 14.7535C160.123 22.4782 159.269 42.5835 144.925 46.9316ZM144.48 45.378C157.355 41.3604 157.727 23.3245 146.954 16.6004C139.957 11.9781 130.635 14.6434 127.147 22.2724C121.55 33.6554 131.452 48.8039 144.48 45.378Z" fill="#141005"/>
<path d="M132.218 42.5645C139.824 45.6257 138.382 32.6898 136.776 31.2389C135.172 29.7886 124.613 39.5032 132.218 42.5645Z" fill="#E9F4FC"/>
<path d="M147.38 42.6061C154.734 37.5462 142.127 31.073 139.846 31.6562C137.564 32.2399 140.026 47.666 147.38 42.6061Z" fill="#E9F4FC"/>
<path d="M126.363 23.8289C121.682 31.4301 134.565 31.4759 136.334 29.9688C138.102 28.4622 131.044 16.2277 126.363 23.8289Z" fill="#E9F4FC"/>
<path d="M164.097 77.4905C172.278 75.1476 176.831 65.9882 174.266 57.0326C171.702 48.077 162.99 42.7164 154.809 45.0594C146.628 47.4024 142.074 56.5617 144.639 65.5173C147.204 74.4729 155.915 79.8335 164.097 77.4905Z" fill="#A27E2A"/>
<path d="M173.061 57.3794C170.604 48.798 160.456 58.69 160.284 61.0389C160.11 63.3883 175.519 65.9608 173.061 57.3794Z" fill="#E9F4FC"/>
<path d="M161.129 46.9152C152.619 44.2215 155.256 58.1452 157.118 59.5868C158.98 61.0296 169.639 49.609 161.129 46.9152Z" fill="#E9F4FC"/>
<path opacity="0.5" d="M174.747 59.1202C174.697 59.4831 174.63 59.8454 174.525 60.2077C173.424 64.0074 169.528 65.4711 166.689 62.4765C165.901 61.6464 165.446 60.4349 164.4 59.8651C163.7 59.4842 162.729 59.5225 161.966 59.2431C160.308 58.6368 159.071 57.3899 158.284 55.8323C156.463 52.2291 156.837 48.165 158.207 44.5212C157.08 44.563 155.947 44.7346 154.823 45.0563C146.641 47.3993 142.088 56.5592 144.653 65.5157C147.218 74.4716 155.93 79.8329 164.111 77.4893C171.657 75.3283 176.111 67.3695 174.747 59.1202Z" fill="#EAD8AE"/>
<path d="M164.334 78.2663C149.859 82.1686 138.503 65.5669 144.567 52.6733C148.611 43.7307 159.391 40.6388 167.557 46.0883C179.532 53.8129 178.678 73.9182 164.334 78.2663ZM163.889 76.7133C176.764 72.6957 177.136 54.6598 166.363 47.9357C159.366 43.3134 150.044 45.9781 146.555 53.6077C140.959 64.9901 150.861 80.1386 163.889 76.7133Z" fill="#141005"/>
<path d="M151.628 73.8989C159.234 76.9602 157.791 64.0243 156.186 62.5734C154.581 61.123 144.022 70.8377 151.628 73.8989Z" fill="#E9F4FC"/>
<path d="M166.789 73.9413C174.143 68.8814 161.536 62.4082 159.255 62.9914C156.973 63.5745 159.435 79.0012 166.789 73.9413Z" fill="#E9F4FC"/>
<path d="M145.771 55.1634C141.09 62.764 153.973 62.8104 155.742 61.3032C157.511 59.7967 150.452 47.5628 145.771 55.1634Z" fill="#E9F4FC"/>
<path d="M64.8269 40.9973C74.143 40.9973 81.6952 34.0981 81.6952 25.5874C81.6952 17.0768 74.143 10.1775 64.8269 10.1775C55.5107 10.1775 47.9585 17.0768 47.9585 25.5874C47.9585 34.0981 55.5107 40.9973 64.8269 40.9973Z" fill="#A27E2A"/>
<path d="M64.8268 11.447C55.9004 11.447 62.6159 23.9256 64.8268 24.7383C67.037 25.5515 73.7531 11.447 64.8268 11.447Z" fill="#E9F4FC"/>
<path d="M51.4815 20.0373C46.5486 27.4774 60.66 28.7752 62.5596 27.3823C64.458 25.9888 56.414 12.5973 51.4815 20.0373Z" fill="#E9F4FC"/>
<path d="M74.8058 36.6005C79.8431 30.1314 67.0098 27.9571 65.1734 29.1002C63.337 30.2433 69.769 43.0696 74.8058 36.6005Z" fill="#E9F4FC"/>
<path d="M79.0205 22.0372C76.1807 13.5746 66.4869 23.9113 66.4197 26.2653C66.3524 28.6199 81.8603 30.4998 79.0205 22.0372Z" fill="#E9F4FC"/>
<path d="M55.1823 37.0718C61.2004 43.6644 64.792 31.2925 63.8304 29.1773C62.8687 27.0615 49.1642 30.4792 55.1823 37.0718Z" fill="#E9F4FC"/>
<path opacity="0.5" d="M77.2236 15.1406C75.6318 16.1098 73.8557 16.6252 71.9834 16.853C71.8269 17.2147 71.6437 17.5642 71.4362 17.8958C71.3313 18.0853 71.2484 18.2308 71.1858 18.3352C71.1174 18.8917 71.0333 19.4452 70.9255 19.9954C70.4623 22.6207 67.1182 23.5435 65.0471 22.3871C62.6693 21.0585 60.4422 19.6209 57.6505 19.8296C57.6899 19.8504 56.4929 20.0487 56.2123 20.0939C55.4066 20.2232 54.5661 20.375 53.7458 20.3733C51.906 20.3687 50.5513 19.7919 49.6412 18.8708C48.563 20.9014 47.9573 23.1801 47.9573 25.5886C47.9573 34.0993 55.5098 40.9985 64.8256 40.9985C74.1421 40.9985 81.694 34.0993 81.694 25.5886C81.6952 21.5558 79.9979 17.8871 77.2236 15.1406Z" fill="#EAD8AE"/>
<path d="M82.5032 25.5874C82.2696 40.5771 63.1829 46.9239 52.4572 37.5437C44.9737 31.194 44.9691 19.9791 52.4566 13.6294C63.1788 4.2446 82.2725 10.6001 82.5032 25.5874ZM80.8871 25.5874C80.5897 12.1171 63.3075 6.77776 53.9029 15.2861C47.5324 20.7402 47.5283 30.4358 53.9023 35.8899C63.304 44.4035 80.5932 39.0555 80.8871 25.5874Z" fill="#141005"/>
<path d="M176.19 86.3281C176.727 85.1763 177.123 83.9776 177.285 82.7145C177.575 80.4573 176.989 77.996 175.326 76.3671C173.753 74.8252 171.531 74.3458 169.778 73.0787C168.945 72.477 168.294 71.6208 167.878 70.6864C167.416 69.6476 167.365 68.5752 167.394 67.4559C167.425 66.256 167.398 65.0427 166.8 63.9668C166.319 63.102 165.534 62.4023 164.658 61.9531C162.605 60.9004 160.301 61.1595 158.267 62.1223C157.219 62.6185 156.272 63.2962 155.375 64.0271C155.311 64.0793 155.266 64.146 155.232 64.2178C153.591 65.372 153.013 67.5075 152.958 69.5067C152.885 72.1941 153.213 74.893 153.479 77.5624C154.022 82.9939 154.156 88.4289 154.093 93.8847C154.03 99.3365 153.832 104.788 153.905 110.241C153.923 111.608 153.959 112.976 154.018 114.342C154.047 115.025 154.082 115.708 154.124 116.391C154.157 116.919 154.159 117.484 154.336 117.989C154.526 118.531 154.888 118.986 155.455 119.157C156.069 119.343 156.822 119.22 157.456 119.209C158.827 119.186 160.198 119.162 161.569 119.138C164.061 119.095 166.684 119.133 169.03 118.172C170.989 117.369 172.767 115.861 173.389 113.775C173.743 112.586 173.616 111.346 173.412 110.143C173.217 108.992 172.921 107.823 173.054 106.648C173.274 104.681 174.684 103.06 175.519 101.331C175.976 100.385 176.315 99.3852 176.344 98.3256C176.372 97.2775 176.09 96.2416 175.733 95.2661C175.059 93.4279 173.891 91.4275 174.584 89.4276C174.964 88.3332 175.7 87.3762 176.19 86.3281Z" fill="#155684"/>
<path opacity="0.3" d="M167.008 113.222C163.313 111.019 160.662 106.592 160.488 102.294C160.31 97.9165 162.9 93.4478 167.314 92.3168C169.771 91.6873 172.357 91.9546 174.749 92.7371C174.388 91.6531 174.198 90.5407 174.583 89.4295C174.799 88.8081 175.129 88.2313 175.464 87.6575C175.014 87.7154 174.55 87.7485 174.068 87.7473C170.014 87.7357 166.331 85.6599 164.135 82.2723C162.589 79.8876 162.043 77.0165 162.006 74.2132C161.995 73.4341 162.105 72.6921 162.314 71.996C161.308 70.9491 160.558 69.6489 160.156 68.2606C159.605 66.361 159.827 65.182 160.111 63.2806C160.215 62.5926 160.494 61.9399 160.879 61.3364C159.987 61.4518 159.104 61.7265 158.267 62.1225C157.218 62.6187 156.271 63.2963 155.375 64.0272C155.311 64.0794 155.265 64.1461 155.231 64.218C153.591 65.3721 153.012 67.5076 152.958 69.5069C152.885 72.1942 153.212 74.8932 153.479 77.5625C154.022 82.994 154.155 88.429 154.093 93.8848C154.03 99.3366 153.832 104.788 153.905 110.241C153.923 111.608 153.958 112.976 154.017 114.342C154.047 115.025 154.082 115.708 154.124 116.391C154.156 116.919 154.158 117.484 154.335 117.989C154.525 118.531 154.888 118.986 155.454 119.157C156.069 119.343 156.822 119.22 157.456 119.209C158.827 119.186 160.198 119.162 161.569 119.138C164.061 119.095 166.683 119.133 169.03 118.172C170.724 117.478 172.283 116.254 173.074 114.587C171.032 114.748 168.98 114.398 167.008 113.222Z" fill="#155684"/>
<path d="M175.458 85.9863C176.795 83.2508 177.097 79.7102 175.07 77.3202C173.586 75.5238 170.669 75.0358 168.783 73.3727C167.335 72.1061 166.5 70.1248 166.51 68.2618C166.482 66.6427 166.685 65.1988 165.697 63.9589C163.246 60.9933 158.832 62.3172 156.3 64.5675L156.065 64.7582L156.013 64.8011C156.06 64.7623 156.128 64.6829 156.14 64.6458L155.81 65.0394C154.298 66.168 153.973 68.2426 154 70.1225C154.003 72.2394 154.24 74.3848 154.48 76.5649C155.469 85.3255 155.283 94.2095 155.064 102.982C154.995 107.782 154.921 112.735 155.316 117.493C155.521 118.448 156.269 118.167 157.164 118.164C157.427 118.158 158.155 118.147 158.431 118.146C162.384 117.953 167.296 118.741 170.563 116.191C173.539 113.914 172.628 111.248 172.169 107.984C171.82 105.599 173.404 103.319 174.503 101.441C177.61 96.5067 172.254 93.5887 173.895 88.9385C174.359 87.7757 175.043 86.879 175.458 85.9863ZM176.922 86.6697C176.405 87.7636 175.754 88.6429 175.416 89.5304C174.682 91.4572 175.975 93.3371 176.614 95.2587C176.993 96.3421 177.29 97.5681 177.153 98.8457C176.931 101.755 174.582 103.782 173.97 106.431C173.655 108.524 174.764 110.659 174.492 112.888C174.206 116.084 171.452 118.489 168.548 119.383C165.356 120.393 161.744 120.07 158.466 120.24C158.223 120.256 157.504 120.254 157.266 120.273C156.398 120.313 155.583 120.44 154.698 120C153.578 119.444 153.112 118.14 153.07 117.01C152.454 107.898 152.988 98.7947 152.969 89.8196C152.942 85.4594 152.75 81.1194 152.299 76.7893C152.09 74.6091 151.872 72.3832 151.898 70.1115C151.885 67.7134 152.478 64.9165 154.653 63.3966L154.323 63.7896C154.539 63.276 155.176 62.9427 155.589 62.5978C158.831 59.976 164.291 59.1575 167.144 62.8331C168.391 64.3119 168.329 66.5268 168.273 68.2183C168.258 69.7382 168.831 71.1091 169.924 72.098C171.833 73.6875 174.689 74.1715 176.344 76.2403C178.83 79.181 178.516 83.4601 176.922 86.6697Z" fill="#141005"/>
<path d="M160.799 49.3737C160.511 48.3679 160.045 47.4196 159.451 46.56C158.863 45.7078 158.177 44.9079 157.736 43.9636C156.834 42.0356 157.429 39.7413 157.166 37.6986C156.687 33.9823 153.982 30.7732 150.403 29.6667C148.578 29.1026 146.64 29.0302 144.748 28.8876C143.005 28.756 141.167 28.5838 139.607 27.7282C137.943 26.8158 136.988 25.1858 135.909 23.6943C135.336 22.9019 134.724 22.1286 133.97 21.4997C133.198 20.8557 132.346 20.3572 131.418 19.9752C129.62 19.2349 127.601 19.021 125.679 19.2697C124.584 19.4112 123.509 19.7079 122.621 20.3885C121.855 20.9751 121.272 21.7501 120.8 22.586C120.298 23.4741 119.868 24.4207 119.492 25.3673C119.072 26.4251 118.829 27.5793 119.108 28.7056C119.364 29.7391 120.021 30.6162 120.704 31.4091C121.371 32.1859 122.091 32.9186 122.843 33.6136C125.888 36.4308 129.429 38.6272 132.816 40.9975C136.504 43.5799 139.807 46.5942 143.132 49.6189C144.854 51.1863 146.601 52.7253 148.383 54.2255C149.277 54.9773 150.177 55.7199 151.086 56.4526C151.992 57.1841 152.891 57.9429 153.837 58.6229C154.269 58.9336 154.808 59.1399 155.343 59.0078C155.699 58.9197 156.038 58.6901 156.224 58.3713C157.912 57.9626 159.36 56.7627 160.216 55.2643C161.232 53.4847 161.357 51.3225 160.799 49.3737Z" fill="#155684"/>
<path opacity="0.3" d="M157.312 53.4714C155.955 51.1539 155.996 48.5343 156.156 45.9623C156.206 45.1467 156.339 44.3839 156.562 43.6651C153.388 44.5636 149.866 44.4094 146.963 42.7394C142.696 40.2862 139.822 34.791 141.128 29.9009C141.153 29.8104 141.184 29.7252 141.211 29.6365C140.509 29.7386 139.797 29.8133 139.072 29.8528C136.189 30.0087 133.093 29.3496 130.588 27.8888C128.272 26.5376 127.183 24.3482 125.628 22.3176C125.017 21.52 124.714 20.5131 124.613 19.4697C123.899 19.65 123.218 19.9311 122.621 20.3879C121.855 20.9745 121.272 21.7496 120.8 22.5854C120.298 23.4735 119.868 24.4201 119.492 25.3667C119.072 26.4246 118.829 27.5787 119.108 28.705C119.364 29.7386 120.021 30.6156 120.704 31.4086C121.371 32.1853 122.091 32.918 122.843 33.6131C125.888 36.4303 129.429 38.6266 132.816 40.9969C136.504 43.5793 139.807 46.5936 143.132 49.6183C144.854 51.1857 146.601 52.7248 148.383 54.2249C149.277 54.9768 150.177 55.7193 151.086 56.452C151.992 57.1836 152.891 57.9424 153.837 58.6223C154.269 58.933 154.808 59.1394 155.343 59.0072C155.699 58.9191 156.038 58.6896 156.224 58.3707C157.569 58.045 158.76 57.2166 159.622 56.1361C158.713 55.4127 157.926 54.5194 157.312 53.4714Z" fill="#155684"/>
<path d="M160.022 49.5958C159.432 47.1717 157.403 45.8993 156.649 43.3887C156.013 40.9454 156.8 38.6667 156.008 36.3916C154.474 31.698 150.462 29.9833 145.696 29.9126C141.379 29.7491 138.259 29.2025 135.761 25.2868C134.464 23.3768 133.189 21.8262 131.038 21.0037C129.116 20.2095 126.787 20.0698 124.791 20.5764C122.677 21.0941 121.757 23.0365 120.903 24.946C119.992 26.9186 119.674 28.5341 121.298 30.3531C125.033 34.8589 130.118 37.5984 134.897 41.2115C136.811 42.6688 138.627 44.2293 140.396 45.8193C144.768 49.7906 149.046 53.7984 153.696 57.4225L154.369 57.9541C154.538 58.0729 154.714 58.1529 154.86 58.1819C155.107 58.2578 155.382 58.1158 155.495 57.9454C155.611 57.7402 155.802 57.604 156.014 57.5524C159.377 56.7542 161.053 52.8089 160.022 49.5958ZM161.575 49.1512C162.879 53.1695 160.738 58.1483 156.422 59.1911L156.952 58.7958C155.869 60.4878 153.902 59.9899 152.679 58.7992C151.745 58.0549 150.775 57.3315 149.861 56.5785C144.31 52.1939 139.297 47.1108 133.64 42.8908C128.963 39.5061 123.415 36.4513 119.54 31.7872C117.405 29.4262 117.483 26.6595 118.811 24.033C119.815 21.6187 121.461 19.0235 124.209 18.4166C128.051 17.4961 132.257 18.3337 135.166 21.1416C137.877 24 138.528 27.1134 142.411 27.6356C145.903 28.2356 149.892 27.8217 153.039 29.8952C156.33 31.8968 158.355 35.849 158.074 39.662C158.044 40.8573 157.994 41.9836 158.252 42.9557C158.479 43.8913 159.167 44.7643 159.876 45.7439C160.613 46.7439 161.228 47.9125 161.575 49.1512Z" fill="#141005"/>
<path d="M115.785 12.967C113.706 10.1933 109.867 8.87395 106.547 9.98286C105.531 10.3225 104.578 10.8448 103.526 11.0796C102.566 11.2941 101.565 11.2019 100.621 10.9515C98.5885 10.4118 96.8582 9.18176 95.1337 8.0288C93.4793 6.92279 91.7351 5.82606 89.7602 5.41507C87.9365 5.03539 85.888 5.16291 84.3351 6.28747C82.7613 7.42768 82.0819 9.23567 81.1179 10.8466C80.1342 12.4899 78.6317 13.6185 76.9275 14.4457C74.9989 15.3819 72.8959 15.8868 70.8705 16.5633C69.9187 16.8809 68.913 17.2026 68.1009 17.8113C67.2945 18.4159 66.7641 19.261 66.5433 20.2442C66.3323 21.1838 66.3561 22.1553 66.4505 23.1077C66.5497 24.1059 66.7143 25.1088 67.0569 26.0548C67.3931 26.984 67.8841 27.9607 68.6243 28.6372C69.0051 28.9856 69.4381 29.2145 69.9529 29.2748C70.5221 29.3415 71.0902 29.2047 71.6502 29.1143C76.2904 28.3671 81.0066 28.2361 85.6944 28.0401C90.4251 27.8425 95.1563 27.6448 99.887 27.4471C102.162 27.3521 104.441 27.2883 106.714 27.1353C108.86 26.9904 111.021 26.7405 113.095 26.1487C114.093 25.8635 115.064 25.4919 115.999 25.0415C116.3 24.8966 116.409 24.5082 116.317 24.2016C117.612 20.6366 118.207 16.1981 115.785 12.967Z" fill="#155684"/>
<path opacity="0.3" d="M117.372 17.1203C114.957 19.2761 111.8 20.5897 108.437 20.6633C102.585 20.7914 96.8942 16.5801 95.8119 10.7295C93.4962 14.9228 89.5208 18.1278 84.6678 18.9915C82.4766 19.3816 80.0194 19.7202 77.7773 19.6552C76.3252 19.6129 74.7937 19.4657 73.4228 18.9793C71.9887 18.471 70.8543 17.7951 69.8514 16.9146C69.2318 17.1447 68.6255 17.4171 68.1009 17.8107C67.2945 18.4153 66.7641 19.2605 66.5433 20.2436C66.3323 21.1832 66.3561 22.1548 66.4505 23.1072C66.5497 24.1054 66.7143 25.1082 67.0569 26.0542C67.3931 26.9834 67.8841 27.9602 68.6243 28.6366C69.0051 28.985 69.4381 29.214 69.9529 29.2743C70.5221 29.3409 71.0902 29.2041 71.6502 29.1137C76.2904 28.3665 81.0066 28.2355 85.6944 28.0396C90.4251 27.8419 95.1563 27.6442 99.887 27.4466C102.162 27.3515 104.441 27.2877 106.714 27.1347C108.86 26.9898 111.021 26.74 113.095 26.1481C114.093 25.8629 115.064 25.4913 115.999 25.0409C116.3 24.896 116.409 24.5076 116.317 24.201C117.113 22.0104 117.643 19.4889 117.372 17.1203Z" fill="#155684"/>
<path d="M115.138 13.4517C113.498 11.2843 110.616 10.0937 107.923 10.5082C106.11 10.7864 104.558 12.0107 102.635 12.0478C99.9369 12.1202 97.5869 10.7232 95.4746 9.33665C93.4579 8.00168 91.5056 6.67249 89.3706 6.31194C87.2891 5.93342 85.1182 6.37106 83.8644 8.17326C83.2308 9.02131 82.7468 10.0925 82.1149 11.2014C81.4657 12.3776 80.4942 13.4175 79.427 14.1995C77.2671 15.7965 74.7601 16.5019 72.4889 17.2097C70.5389 17.8903 68.1895 18.2351 67.6661 20.4083C67.2684 22.7241 67.7055 26.0004 69.3918 27.7951C70.0879 28.4808 71.0247 28.0037 71.8838 27.9377C77.3338 27.1232 82.8552 27.0873 88.2635 26.8827L102.734 26.3824C106.316 26.2386 109.877 26.2497 113.282 25.1993C114.063 24.9686 114.858 24.633 115.6 24.2956C115.528 24.3443 115.507 24.3959 115.505 24.4081C115.518 24.582 115.517 23.891 115.524 23.913C116.746 20.5759 117.351 16.4364 115.138 13.4517ZM116.431 12.4825C119.041 15.924 118.49 20.6964 117.11 24.4904L117.125 23.9588C117.218 24.2753 117.214 24.5831 117.126 24.8886C117.035 25.2474 116.725 25.6555 116.324 25.8259L116.217 25.8769L116.002 25.9772C115.284 26.3024 114.546 26.5975 113.794 26.8322C110.245 27.9591 106.462 28.0571 102.832 28.2478L88.351 28.9799C83.5229 29.2558 78.6931 29.3341 73.9856 29.9201C71.9609 30.079 69.5407 31.1496 67.8533 29.4755C65.2866 27.1093 64.1788 20.6216 66.4899 17.816C67.8383 16.1512 69.9436 15.7165 71.8362 15.0933C74.1567 14.3902 76.3942 13.7433 78.1691 12.4721C80.253 11.1046 80.7533 8.95117 82.2535 6.95131C83.8829 4.62278 87.0734 3.84661 89.7161 4.43555C92.2783 4.91552 94.4172 6.44468 96.4704 7.84458C98.3132 9.09145 100.352 10.3922 102.574 10.343C104.121 10.3192 105.946 9.04856 107.67 8.85553C110.969 8.37092 114.43 9.81024 116.431 12.4825Z" fill="#141005"/>
<path d="M67.0335 33.3343C66.8486 32.1094 66.4817 30.9333 65.9617 29.8099C65.9014 29.6789 65.793 29.585 65.6649 29.5276C65.1942 27.2628 64.1775 24.9592 62.351 23.47C60.5621 22.0116 58.0214 21.2893 55.81 22.1867C53.751 23.0225 52.4392 24.892 51.4955 26.8252C50.5628 28.7363 49.9356 30.8869 48.5496 32.5424C47.8372 33.3934 46.9677 34.0148 45.9092 34.3632C44.7331 34.7498 43.4955 34.8924 42.2985 35.1967C41.1165 35.4976 39.9404 35.9405 38.9625 36.6836C38.0321 37.3902 37.3035 38.3246 36.7945 39.3744C35.6671 41.7024 35.5662 44.2807 35.4601 46.8185C35.4062 48.1066 35.3343 49.3934 35.0793 50.66C34.8515 51.7892 34.5158 52.9027 34.0683 53.9647C33.182 56.066 31.876 57.9917 30.2466 59.5869C29.3701 60.4448 28.3319 61.1503 27.5598 62.1108C26.7912 63.0672 26.3298 64.2109 26.1431 65.4201C25.7988 67.6489 26.0938 70.0244 26.67 72.193C27.2172 74.2531 28.147 76.2733 29.6391 77.8227C30.4037 78.6169 31.3543 79.342 32.396 79.7252C33.7344 80.2179 34.8364 79.5009 35.7882 78.6157C37.8779 76.6715 39.9566 74.7145 42.0405 72.7645C46.0513 69.0112 50.1182 65.2908 53.733 61.1456C57.2644 57.0966 60.4039 52.6483 63.1474 48.0306C65.7814 43.5985 67.8254 38.5814 67.0335 33.3343Z" fill="#155684"/>
<path opacity="0.3" d="M67.0336 33.3343C66.8486 32.1095 66.4817 30.9333 65.9618 29.8099C65.9015 29.6789 65.7931 29.585 65.665 29.5276C65.1943 27.2629 64.1775 24.9593 62.351 23.4701C61.0734 22.4284 59.4126 21.7664 57.7617 21.7972C57.9658 22.4789 58.08 23.1855 58.0841 23.8985C58.1148 28.9543 57.9409 33.6856 54.5475 37.7786C52.1129 40.7152 47.7201 42.3853 43.9656 41.2932C42.3779 40.8312 41.0545 40.0944 39.8929 39.1571C41.1339 40.5784 41.9008 42.4154 41.8701 44.2918C41.8075 48.142 40.7861 51.8733 38.675 55.1119C36.965 57.7349 34.9605 60.3515 32.9125 62.7073C31.0593 64.8393 28.6786 66.6195 26.0034 67.587C26.022 69.144 26.2776 70.7154 26.67 72.1924C27.2172 74.2526 28.147 76.2727 29.6391 77.8222C30.4037 78.6163 31.3543 79.3415 32.396 79.7247C33.7345 80.2174 34.8364 79.5003 35.7882 78.6152C37.8779 76.671 39.9566 74.714 42.0405 72.764C46.0513 69.0106 50.1182 65.2903 53.733 61.1451C57.2644 57.0961 60.4039 52.6477 63.1475 48.0301C65.7815 43.5985 67.8254 38.5815 67.0336 33.3343Z" fill="#155684"/>
<path d="M66.2348 33.455C66.0667 32.346 65.7236 31.2563 65.2575 30.2349L65.2326 30.1798L65.2204 30.1532C65.2303 30.1804 65.2511 30.2047 65.2668 30.2245C65.2946 30.2558 65.319 30.2685 65.3294 30.2737L64.8633 29.6935C64.5596 28.2762 64.0553 26.8989 63.275 25.7361C61.852 23.4986 58.8435 21.9978 56.2964 22.9195C50.1455 25.5923 52.612 34.7094 44.1303 35.7916C34.8521 37.2205 37.3795 44.4577 36.0689 51.2838C35.3709 54.4778 33.7873 57.4701 31.5527 59.8537C30.5632 60.9747 29.1841 61.8419 28.3361 62.9589C27.5408 64.0047 27.2214 65.3524 27.1651 66.6572C27.0121 71.039 28.6027 77.315 33.1357 78.7671C34.2678 78.8355 35.1976 77.5898 36.1129 76.809C40.0726 73.0782 45.7656 68.0455 49.523 64.2476C53.8299 59.9574 57.6186 55.1821 60.9001 50.0509C64.1011 45.1028 67.1177 39.4626 66.2348 33.455ZM67.833 33.2138C68.8335 39.6626 65.6899 45.7648 62.3482 50.9685C57.5004 58.9158 51.1159 65.8028 44.2932 72.0742L37.6079 78.4124C36.7233 79.2106 35.8051 80.2829 34.5379 80.7519C33.1131 81.3501 31.4785 80.7131 30.2994 79.8551C26.8057 77.3747 25.3676 73.0678 24.9294 68.9962C24.6917 66.4625 24.9172 63.694 26.5205 61.5979C27.0724 60.8652 27.7228 60.2965 28.314 59.7916C30.5985 57.9599 32.2993 55.5653 33.3114 52.8692C34.4359 50.0289 34.2951 47.1392 34.5582 44.0768C35.0365 38.2169 37.794 34.6954 43.7535 33.8949C47.0333 33.5065 48.4118 31.7565 49.647 28.7701C50.8551 25.8775 52.4254 22.4882 55.7167 21.3115C59.1008 20.1237 62.8206 21.959 64.6576 24.8161C65.5827 26.2143 66.1346 27.7806 66.4661 29.3602L66.0007 28.7799C66.2945 28.9074 66.5879 29.1799 66.7177 29.4964L66.7455 29.5584L66.96 30.0587C67.3745 31.0708 67.6713 32.1304 67.833 33.2138Z" fill="#141005"/>
<path d="M41.4505 40.3831C44.0642 42.234 46.1 44.7422 47.5631 47.5693C48.0553 48.5078 48.4286 49.5146 48.7086 50.5383C48.8268 50.9714 48.5718 51.4183 48.1393 51.5365C47.766 51.6391 47.3858 51.4623 47.2084 51.1383C45.7464 48.5837 44.1245 46.1613 42.2696 43.8745C41.6488 43.0994 40.9903 42.3181 40.37 41.5743C39.7683 40.8683 40.6981 39.8545 41.4505 40.3831Z" fill="#141005"/>
<path d="M58.408 25.798C59.6364 29.1596 59.4978 32.7755 59.1008 36.2611C58.9437 37.4013 58.735 38.5328 58.4411 39.6458C58.3252 40.0799 57.8794 40.3379 57.4452 40.222C56.4493 39.9176 56.9548 38.5125 56.8893 37.7387C57.0296 33.9459 57.2951 30.0725 56.8742 26.3053C56.6632 25.3395 58.0185 24.8903 58.408 25.798Z" fill="#141005"/>
<path d="M88.6037 9.14812C90.2117 11.6349 90.8349 14.5622 91.1438 17.4559C91.2308 18.4072 91.2609 19.3613 91.2087 20.316C91.1838 20.7664 90.7989 21.1108 90.3491 21.0864C89.9793 21.0661 89.6796 20.8024 89.5996 20.4592C89.159 18.6733 88.8651 16.8786 88.4692 15.0949C88.1191 13.4023 87.6768 11.5729 87.1899 9.9301C86.8386 9.03277 88.0472 8.36673 88.6037 9.14812Z" fill="#141005"/>
<path d="M110.718 14.2233C109.131 16.4011 107.845 18.8073 107.137 21.4251L107.113 21.4958C106.971 21.923 106.51 22.1549 106.083 22.0128C105.759 21.9056 105.548 21.6146 105.526 21.2946C105.396 19.682 105.81 18.0554 106.54 16.6231C106.959 15.6904 109.707 11.7075 110.78 13.2367C110.991 13.5532 110.941 13.9456 110.718 14.2233Z" fill="#141005"/>
<path d="M152.047 35.7278C148.589 36.9613 145.65 39.4093 143.803 42.5986C143.327 43.4385 142.039 42.8919 142.314 41.9714C143.202 38.8424 145.647 36.2159 148.628 34.947C149.632 34.5169 150.632 34.2218 151.788 34.1325C152.233 34.0983 152.621 34.4311 152.655 34.8757C152.689 35.282 152.417 35.6206 152.047 35.7278Z" fill="#141005"/>
<path d="M172.749 81.1166C168.78 81.924 164.812 83.2376 161.32 85.325L160.535 85.831C159.704 86.1724 158.63 87.7851 157.788 86.6959C157.589 86.3788 157.638 85.9765 157.882 85.7157C159.723 83.6694 162.11 82.1379 164.656 81.1229C167.221 80.1108 169.864 79.4993 172.646 79.5039C173.093 79.5063 173.453 79.8703 173.451 80.3172C173.449 80.7288 173.14 81.0609 172.749 81.1166Z" fill="#141005"/>
<path d="M171.637 99.2225C168.225 100.211 164.577 100.091 161.221 98.972C160.094 98.6109 159.031 98.0446 158.049 97.3936C157.676 97.1461 157.574 96.6435 157.822 96.2708C158.043 95.9369 158.464 95.8268 158.817 95.9717C161.797 97.1072 164.925 97.6423 168.113 97.6956C169.192 97.7171 170.31 97.6898 171.358 97.6394C172.299 97.5971 172.53 98.946 171.637 99.2225Z" fill="#141005"/>
<path d="M115.753 157.91C110.075 158.589 106.007 161.13 109.567 167.402C109.567 167.402 107.872 176.639 108.635 178.758C109.397 180.876 118.719 197.402 132.193 196.978C145.668 196.554 143.465 176.045 133.719 174.097L129.058 169.012C129.058 169.012 134.736 160.113 121.007 158.419L115.753 157.91Z" fill="white"/>
<path d="M140.594 180.658C138.954 184.835 135.487 188.201 130.972 189.372C126.769 190.463 122.234 189.529 118.619 187.182C116.194 185.607 114.034 183.877 112.269 181.592C111.07 180.04 110.123 178.392 109.362 176.637C109.05 176.435 108.751 176.211 108.465 175.967C108.405 177.184 108.438 178.209 108.635 178.757C109.398 180.876 118.719 197.401 132.194 196.977C141.241 196.694 143.22 187.354 140.594 180.658Z" fill="white"/>
<path d="M115.762 158.719C112.902 159.094 108.52 160.205 109.14 163.897C109.297 164.935 109.768 165.978 110.312 166.979C110.414 167.161 110.443 167.366 110.409 167.557C109.909 170.539 109.446 173.649 109.373 176.652C109.372 177.379 109.39 178.142 109.582 178.571C110.52 180.556 111.836 182.494 113.16 184.274C116.753 188.97 121.361 193.367 127.061 195.143C135.242 197.629 141.356 193.542 140.468 184.71C140.176 181.891 139.063 179.021 137.056 177.012C136.063 176.037 134.846 175.349 133.528 175.052C133.319 175.012 133.134 174.904 133.001 174.756L128.384 169.631C128.101 169.317 128.073 168.862 128.287 168.521C130.103 165.487 129.665 162.167 126.125 160.619C123.426 159.21 118.775 159.085 115.762 158.719ZM115.744 157.103C119.481 157.512 123.366 157.473 126.851 159.092C131.246 160.979 132.191 165.551 129.829 169.504L129.732 168.394L134.436 173.439L133.909 173.142C142.391 175.05 145.236 187.563 140.421 194.125C137.25 198.491 131.136 198.818 126.402 197.291C118.621 194.755 112.997 188.287 108.944 181.482C108.458 180.574 107.845 179.64 107.616 178.559C107.5 177.906 107.5 177.253 107.515 176.62C107.642 173.418 108.18 170.376 108.724 167.247L108.821 167.825C108.221 166.697 107.669 165.501 107.467 164.133C106.75 159.215 111.808 157.501 115.744 157.103Z" fill="#141005"/>
<path d="M121.286 178.676C122.433 174.129 127.959 173.119 131.995 173.051L133.807 173.096C134.362 173.109 134.801 173.571 134.788 174.126C134.777 174.729 134.225 175.186 133.631 175.098C129.658 174.695 123.712 174.459 121.805 178.769C121.738 179.102 121.227 179.016 121.286 178.676Z" fill="#141005"/>
<path d="M110.55 167.197C111.019 168.411 113.01 169.224 114.362 169.744C114.507 169.792 114.584 169.952 114.528 170.094C114.487 170.201 114.384 170.266 114.277 170.265L113.544 170.257C111.685 170.139 109.297 169.595 108.582 167.608C108.335 166.31 110.258 165.908 110.55 167.197Z" fill="#141005"/>
<path d="M129.873 169.6C128.04 171.5 124.818 171.347 122.43 170.925C122.127 170.881 122.15 170.412 122.453 170.398C124.448 170.122 126.709 169.881 128.223 168.459C128.904 167.395 130.653 168.4 129.873 169.6Z" fill="#141005"/>
<path d="M112.104 131.437C112.104 138.706 112.752 161.42 114.051 164.145C115.348 166.871 122.877 165.703 124.045 163.367C125.213 161.031 121.838 145.066 123.136 130.14L112.104 131.437Z" fill="#141005"/>
<path d="M118.5 139.978C120.012 139.978 121.472 140.174 122.873 140.537C122.786 137.138 122.834 133.611 123.136 130.14L112.104 131.438C112.104 133.605 112.162 137.148 112.277 141.124C114.289 140.384 116.417 139.978 118.5 139.978Z" fill="#141005"/>
<path d="M112.707 131.974C112.976 132.595 112.953 133.204 112.966 133.844C113.28 142.599 113.568 151.579 114.452 160.276C114.593 161.369 114.696 162.489 115.022 163.534C115.082 163.757 115.123 163.78 115.249 163.912C115.671 164.298 116.32 164.467 117.082 164.552C118.961 164.705 121.511 164.318 122.893 163.033C123.043 162.832 123.017 162.871 123.085 162.532C123.213 161.451 123.123 160.282 123.063 159.154C122.279 149.506 121.206 139.787 122.164 130.054L123.249 131.108C119.784 131.467 116.314 131.716 112.707 131.974ZM111.5 130.901C115.248 130.294 119.133 129.678 123.022 129.171C123.551 129.102 124.035 129.475 124.104 130.003C123.649 136.424 123.94 142.895 124.479 149.359C124.737 152.561 125.091 155.745 125.333 159.003C125.352 160.78 125.879 163.042 124.616 164.545C122.325 166.897 116.761 167.709 114.027 165.805C112.735 164.895 112.627 163.166 112.407 161.753C111.932 158.109 111.777 154.447 111.611 150.813C111.367 145.314 111.272 139.381 111.279 133.864C111.265 132.904 111.295 131.815 111.5 130.901Z" fill="#141005"/>
<path d="M75.8458 146.815C70.8763 147.004 68.2347 150.4 69.4294 154.867C69.4294 154.867 65.4036 156.879 62.9505 156.376C62.9505 156.376 56.5973 151.596 49.3004 157.697C42.0035 163.799 47.791 175.562 48.2309 176.128C48.6715 176.694 66.2215 182.293 89.7468 176.128C89.7468 176.128 91.7548 167.255 88.6147 157.446C88.6147 157.446 90.3201 156.376 90.3792 152.853C90.4389 149.331 85.7836 146.563 82.5131 146.814C79.2426 147.067 75.8458 146.815 75.8458 146.815Z" fill="white"/>
<path d="M86.7828 168.377C84.5963 170.854 81.8052 172.244 78.7736 173.379C73.9693 175.179 68.7482 174.875 63.7943 174.096C59.4457 173.413 55.3126 171.494 51.3685 169.629C48.8429 168.435 47.0431 165.974 45.9185 163.406C44.689 169.231 47.9079 175.711 48.232 176.128C48.6725 176.694 66.2226 182.292 89.7479 176.128C89.7479 176.128 90.9808 170.676 90.0018 163.596C89.1618 165.332 88.0494 166.943 86.7828 168.377Z" fill="white"/>
<path d="M75.8313 147.622C71.813 147.745 69.0735 150.565 70.2438 154.649C70.3522 155.042 70.1598 155.448 69.8062 155.62C68.1744 156.39 66.5322 157.011 64.7312 157.252C64.0483 157.301 63.1898 157.425 62.4867 157.105C61.332 156.317 59.797 155.763 58.3763 155.594C54.7116 155.102 50.9762 156.985 48.6628 159.763C45.2659 164.21 46.7701 170.689 49.0813 175.405C49.0935 175.425 49.1317 175.493 49.1137 175.462L49.1074 175.454C49.1074 175.454 49.1056 175.454 49.079 175.416C49.0384 175.36 48.9856 175.309 48.9277 175.271C48.8372 175.217 48.8975 175.251 48.8958 175.248C52.8491 176.689 57.1033 177.201 61.3001 177.588C70.7447 178.367 80.3011 177.443 89.4848 175.129L88.7393 175.9C89.8935 169.926 89.53 163.553 87.7643 157.719L88.1405 156.69C88.3295 156.533 88.6222 156.208 88.766 155.933C89.366 154.891 89.5764 153.577 89.4918 152.38C89.1735 150.055 86.4502 148.243 84.1617 147.77C82.3792 147.451 80.4883 147.862 78.667 147.738C77.7529 147.721 76.7472 147.688 75.8313 147.622ZM75.8603 146.007C76.211 146.039 76.9384 146.057 77.2909 146.076C78.6815 146.122 80.0837 146.124 81.4697 146.053C82.3989 145.984 83.5432 145.912 84.4979 146.138C87.7522 146.842 91.2823 149.333 91.2331 152.999C91.1879 154.728 90.7682 156.579 89.5068 157.858C89.3787 157.975 89.3103 158.053 89.09 158.202L89.4657 157.173C90.9485 161.785 91.5478 166.66 91.3096 171.496C91.2279 173.119 91.0783 174.692 90.7549 176.355C90.6778 176.75 90.3769 177.041 90.0088 177.127C77.4891 180.451 64.1764 181.277 51.466 178.348C50.196 178.001 48.8627 177.736 47.6785 177.092C47.4576 176.96 47.2646 176.695 47.1608 176.493C46.2252 174.711 45.5865 172.798 45.1355 170.85C43.9048 165.956 44.6155 159.871 48.9932 156.715C51.666 154.56 55.1678 153.28 58.6203 153.812C60.386 154.075 61.9656 154.653 63.4692 155.686L63.1238 155.53C65.123 155.803 67.2417 154.915 69.0526 154.112L68.6156 155.084C67.1907 149.956 70.7186 146.083 75.8603 146.007Z" fill="#141005"/>
<path d="M63.4438 155.5C66.6818 157.508 69.0283 160.937 69.5674 164.719C69.5854 164.864 69.4834 164.996 69.339 165.014C69.204 165.031 69.0834 164.943 69.0498 164.817C68.4817 163.19 67.5763 161.626 66.4239 160.347C65.3184 159.028 63.9151 158.02 62.4097 157.225C61.2295 156.54 62.2787 154.781 63.4438 155.5Z" fill="#141005"/>
<path d="M70.3539 154.472C71.1655 156.443 73.3792 157.531 75.2388 158.391C75.5159 158.499 75.4 158.94 75.1072 158.899C73.8818 158.77 72.6987 158.458 71.5353 157.943C70.3052 157.374 69.1552 156.556 68.5054 155.261C67.9164 153.982 69.8363 153.16 70.3539 154.472Z" fill="#141005"/>
<path d="M89.7496 157.771C87.6935 159.438 84.9279 159.258 82.5054 158.906C82.3611 158.88 82.2649 158.742 82.2915 158.597C82.3136 158.476 82.4133 158.39 82.5292 158.38C84.4833 158.051 86.8709 157.773 88.3224 156.355C89.2864 155.287 90.8115 156.795 89.7496 157.771Z" fill="#141005"/>
<path d="M73.3752 119.929C73.3752 127.197 74.0245 149.911 75.3223 152.637C76.6202 155.362 84.1484 154.194 85.3164 151.858C86.4845 149.522 83.1096 133.557 84.4081 118.632L73.3752 119.929Z" fill="#141005"/>
<path d="M76.5165 134.884C79.405 134.884 82.1016 135.596 84.5576 136.838C84.1397 131.304 83.8644 124.877 84.4075 118.632L73.3752 119.929C73.3752 123.066 73.4964 129.078 73.7381 135.119C74.6638 134.966 75.5942 134.884 76.5165 134.884Z" fill="#141005"/>
<path d="M73.9787 120.466C74.2476 121.086 74.2239 121.695 74.2372 122.335C74.5508 131.09 74.8389 140.071 75.7235 148.767C75.8284 149.723 75.9721 150.689 76.1652 151.618L76.2939 152.025C76.3356 152.189 76.3652 152.222 76.4255 152.299C77.3465 153.232 79.1818 153.137 80.4924 152.987C81.7149 152.82 83.3676 152.36 84.1646 151.525C84.3153 151.324 84.2887 151.362 84.3571 151.023C84.4846 149.942 84.3953 148.774 84.3345 147.646C83.5507 137.998 82.4778 128.278 83.4354 118.546L84.5211 119.6C81.0553 119.958 77.5854 120.208 73.9787 120.466ZM72.7712 119.392C76.5194 118.785 80.4043 118.169 84.2933 117.662C84.822 117.593 85.3066 117.966 85.3755 118.495C84.9199 124.916 85.2109 131.387 85.7506 137.85C86.0085 141.052 86.3633 144.237 86.605 147.494C86.6236 149.272 87.1505 151.533 85.8874 153.037C83.596 155.388 78.0323 156.2 75.2986 154.296C74.0053 153.386 73.8981 151.657 73.6784 150.244C73.2031 146.6 73.0483 142.938 72.8819 139.304C72.6385 133.805 72.5428 127.873 72.5498 122.355C72.5359 121.396 72.566 120.306 72.7712 119.392Z" fill="#141005"/>
<path d="M14.8165 97.9546C12.0208 93.741 10.4076 93.5294 8.87956 94.709C7.35155 95.8887 7.8576 97.4271 9.03896 100.811C10.2203 104.195 15.8118 103.398 15.8118 103.398L14.8165 97.9546Z" fill="white"/>
<path d="M14.0669 98.2564C13.0583 97.1481 11.4068 94.6248 10.0156 95.2601C9.56232 95.5186 9.07251 95.8705 9.05801 96.4374C9.05743 97.5927 9.57624 98.7897 9.96288 99.9722C10.1785 100.671 10.444 101.208 11.0619 101.587C12.2804 102.382 14.1991 102.48 15.6662 102.376L14.7962 103.584C14.5173 101.813 14.2727 100.047 14.0669 98.2564ZM15.5654 97.6524C16.0245 99.4882 16.4418 101.351 16.8273 103.212C16.9438 103.754 16.5989 104.287 16.0569 104.404C13.5441 104.743 10.6805 104.628 8.79542 102.626C8.34502 102.101 7.9833 101.347 7.79259 100.724C6.83382 98.0477 5.73245 94.7709 9.15945 93.3026C12.2079 92.171 14.195 95.3685 15.5654 97.6524Z" fill="#141005"/>
<path d="M11.806 100.349C8.24973 96.7534 6.6255 96.8577 5.35371 98.3098C4.08191 99.7619 4.87606 101.174 6.6881 104.266C8.50015 107.359 13.8331 105.497 13.8331 105.497L11.806 100.349Z" fill="white"/>
<path d="M11.129 100.79C9.92505 99.8969 7.81795 97.7399 6.57514 98.6315C6.18039 98.9723 5.76708 99.4123 5.86273 99.9711C6.08532 101.105 6.82498 102.179 7.43305 103.265C8.11532 104.722 9.4816 105.01 11.0496 104.927C11.8524 104.885 12.7393 104.741 13.4929 104.522L12.8727 105.876C12.2576 104.193 11.6768 102.507 11.129 100.79ZM12.4831 99.9073C13.2877 101.62 14.0569 103.367 14.7943 105.119C15.0128 105.627 14.7775 106.218 14.2685 106.436C11.8687 107.255 9.03642 107.694 6.80063 106.094C6.25748 105.666 5.75665 104.996 5.44942 104.421C3.99213 101.98 2.27921 98.9775 5.35784 96.8756C8.13039 95.1778 10.6977 97.9312 12.4831 99.9073Z" fill="#141005"/>
<path d="M23.6628 94.5293C30.329 96.4149 24.0714 112.514 14.1597 113.331C4.24733 114.149 0.262107 102.908 2.45905 101.12C4.656 99.3318 8.33458 105.156 8.33458 105.156C8.33458 105.156 9.91823 98.5145 16.356 99.7915C16.356 99.7915 1.49158 92.8204 4.99974 77.7038C8.5079 62.5878 26.1113 62.6515 36.4439 67.8175L32.872 79.0428C32.872 79.0428 27.5431 73.2612 18.8399 74.1319C10.5489 74.962 9.86085 90.6252 23.6628 94.5293Z" fill="#141005"/>
<path d="M23.6628 94.5293C30.329 96.415 24.0714 112.514 14.1597 113.331C4.24733 114.149 0.262107 102.908 2.45905 101.12C4.656 99.3319 8.33458 105.156 8.33458 105.156C8.33458 105.156 9.91823 98.5145 16.356 99.7915C16.356 99.7915 4.41949 95.4261 7.92707 80.31C11.4352 65.194 26.1113 62.6516 36.4439 67.8182L32.872 79.0434C32.872 79.0434 27.5431 73.2618 18.8399 74.1325C10.5489 74.962 9.86085 90.6252 23.6628 94.5293Z" fill="#141005"/>
<path d="M26.0306 64.8462C26.0468 64.8955 26.0654 64.9447 26.0816 64.9946C27.0438 67.9671 26.5384 71.7819 25.1646 74.6542C30.0506 75.9869 32.8724 79.044 32.8724 79.044L36.4443 67.8187C33.4179 66.3052 29.7677 65.2311 26.0306 64.8462Z" fill="#141005"/>
<path d="M23.8824 93.752C26.6492 94.4494 27.5505 97.641 27.179 100.113C26.535 104.833 23.9091 109.084 20.1099 111.911C16.2325 114.848 10.5575 115.051 6.52769 112.271C3.52732 110.194 1.33269 106.967 0.928665 103.285C0.811572 102.295 1.08807 100.686 2.18944 100.126C5.07967 98.7088 7.7705 102.617 9.19533 104.614L7.3456 104.922C8.12757 101.973 10.3599 99.1702 13.5104 98.6902C14.53 98.4827 15.5543 98.5911 16.5658 98.7378L15.8998 100.767C13.2994 99.4577 11.0891 97.7836 9.07591 95.7264C6.09931 92.6849 3.93541 88.6486 3.45544 84.3562C2.65376 77.2262 5.78919 69.3648 12.3847 66.0143C20.0572 62.1073 29.3846 63.2516 36.9128 66.9C37.3713 67.1307 37.5811 67.6582 37.4275 68.1318L33.7942 79.3374C33.5901 80.0237 32.6597 80.233 32.1769 79.7148C31.6349 79.1496 30.9225 78.5664 30.2199 78.0679C27.7355 76.3121 24.7931 75.2154 21.7579 74.987L20.456 74.9365L19.1523 75.0003C15.1392 75.1516 13.2947 79.5687 13.817 83.1557C14.4216 88.451 18.8457 92.402 23.8824 93.752ZM23.443 95.3067C19.7569 94.2882 16.2493 92.0942 14.1527 88.8231C10.8526 84.093 11.1465 75.4907 17.484 73.5135C23.1978 72.2747 29.4142 74.3424 33.5832 78.3885L31.9514 78.7508L35.4613 67.5058L35.983 68.741C31.2987 66.478 25.9344 65.4636 20.776 65.8995C10.6706 66.7157 4.8936 74.1482 5.70224 84.0982C6.39089 90.5325 11.223 95.8551 16.8133 98.8183C17.8782 99.3818 17.3246 101.025 16.1473 100.848C13.2803 100.21 10.8746 101.649 9.72746 104.314C9.55762 104.675 9.40633 105.093 9.31764 105.418C9.1675 105.962 8.60464 106.281 8.06091 106.131C7.80992 106.061 7.60587 105.903 7.47487 105.7C6.64362 104.442 5.64891 103.119 4.44378 102.22C3.22937 101.356 2.75868 101.747 2.84969 103.158C3.81773 110.844 12.649 115.326 19.121 110.526C22.4831 108.089 24.9913 104.05 25.5449 99.9348C25.7727 98.0816 25.4226 95.8736 23.443 95.3067Z" fill="#141005"/>
<path d="M23.6626 94.5292C22.1688 94.1067 20.8454 93.5461 19.6826 92.8818C18.4166 94.5281 16.808 95.928 15.087 97.0381C14.545 97.3876 13.9543 97.6873 13.3347 97.9458C15.0656 99.1863 16.3571 99.7926 16.3571 99.7926C9.91925 98.5156 8.33559 105.157 8.33559 105.157C8.33559 105.157 4.91902 99.715 2.46007 101.121C-1.66544 103.48 4.24834 114.15 14.1607 113.333C24.0713 112.514 30.3288 96.4149 23.6626 94.5292Z" fill="white"/>
<path d="M23.6626 94.5292C22.6024 94.2295 21.632 93.8568 20.7399 93.4302C22.4459 96.7928 22.4459 101.175 21.0413 104.504C19.5608 108.012 16.1814 110.42 12.2756 110.166C8.91406 109.948 5.77051 108.542 3.29185 106.273C2.15801 105.236 1.52444 103.907 1.3146 102.508C0.0300516 106.188 5.60473 114.037 14.1595 113.332C24.0712 112.514 30.3288 96.4149 23.6626 94.5292Z" fill="white"/>
<path d="M23.443 95.3066C22.0014 94.9054 20.591 94.3466 19.2717 93.6018L20.34 93.3873C18.5668 95.6468 16.2986 97.587 13.6738 98.7591L13.8483 97.2282C14.5503 97.7157 15.2737 98.1713 16.0221 98.5799C16.2644 98.7121 16.5304 98.8507 16.7501 98.9533C17.2139 99.1689 17.4144 99.7196 17.1994 100.183C17.015 100.579 16.5861 100.784 16.1768 100.7C14.6419 100.414 13.0559 100.601 11.8143 101.551C10.9007 102.227 10.1999 103.259 9.74252 104.319C9.59007 104.673 9.44283 105.093 9.36747 105.403C9.22835 105.973 8.6539 106.323 8.08351 106.184C7.80468 106.116 7.58093 105.946 7.43717 105.721C6.58216 104.485 5.54339 103.173 4.29595 102.355C3.62063 101.938 3.114 101.848 2.65316 102.391C1.90597 103.406 2.34652 104.806 2.89257 106.005C5.56368 111.623 13.5138 114.295 18.7743 110.614C22.2558 108.266 24.9159 104.211 25.5188 100.04C25.7762 98.1777 25.455 95.8642 23.443 95.3066ZM23.883 93.7519C29.4802 95.6828 26.9854 103.3 24.7333 106.964C22.2953 111.071 17.884 114.604 12.8779 114.443C7.88352 114.443 3.07168 111.5 0.820827 106.995C0.288111 105.841 -0.121711 104.549 0.0330606 103.067C0.154211 101.484 1.53846 99.7839 3.25254 99.777C6.03031 99.9039 7.82439 102.552 9.23357 104.592L7.30327 104.91C8.1264 101.972 10.3778 99.2298 13.5272 98.7701C14.5526 98.6188 15.5757 98.6826 16.5374 98.8831L15.9635 100.63C14.843 100.06 13.8298 99.3955 12.8211 98.6617C12.4194 98.38 12.3267 97.8206 12.6177 97.4247C13.1579 96.903 14.0732 96.7621 14.6813 96.2758C16.3229 95.2208 17.8295 93.9095 19.0259 92.3757C19.2798 92.0419 19.7412 91.9561 20.0942 92.1613C21.2756 92.8447 22.5555 93.3687 23.883 93.7519Z" fill="#141005"/>
<path d="M168.972 95.2957C171.468 112.419 164.1 125.633 171.468 125.819C171.468 125.819 139.007 141.16 90.0587 130.139C41.1097 119.118 25.476 104.415 24.7317 101.065C23.9874 97.7153 34.0371 10.4287 105.32 17.1268C160.783 22.3386 168.972 95.2957 168.972 95.2957Z" fill="#FAF5EB"/>
<path d="M168.972 95.2955C171.468 112.418 164.1 125.632 171.468 125.819C171.468 125.819 139.007 141.16 90.0584 130.139C41.1094 119.118 25.4758 104.415 24.7315 101.065C23.9872 97.7151 36.3162 14.6612 107.599 21.3593C163.062 26.5705 168.972 95.2955 168.972 95.2955Z" fill="#A27E2A"/>
<path opacity="0.3" d="M169.372 99.0142C168.843 100.337 163.954 98.2971 163.376 99.6095C156.021 116.307 146.856 118.878 134.326 121.32C126.39 122.868 118.294 123.353 110.227 122.957C102.216 122.564 94.0449 121.7 86.1996 120.03C79.4987 118.603 73.1014 116.236 66.5604 114.253C60.1992 112.325 53.6802 110.363 47.9032 106.997C44.7591 105.166 41.6497 102.869 39.2638 100.105C36.0629 96.397 33.9077 92.6436 32.051 88.1454C30.5937 84.614 29.7329 80.8387 29.2471 77.0088C25.4022 89.8647 24.4875 99.9678 24.7315 101.065C25.4758 104.415 41.1095 119.118 90.0585 130.139C139.007 141.16 171.468 125.819 171.468 125.819C164.643 125.646 170.461 114.295 169.372 99.0142Z" fill="#A27E2A"/>
<path d="M169.773 95.1925C170.571 100.609 170.428 106.182 169.843 111.609C169.536 114.984 168.903 118.278 168.956 121.609C169.079 126.537 172.206 123.839 172.345 125.851C172.331 126.187 172.123 126.469 171.835 126.596C166.996 128.705 162.072 130.172 156.998 131.379C129.375 138.02 101.276 134.982 74.2475 127.201C60.4363 123.385 32.3067 113.971 24.0597 102.31C23.8284 101.841 23.5618 101.267 23.5943 100.721C23.5693 99.0681 23.7925 97.5355 23.9722 95.9292C25.6579 83.5724 29.1736 71.5066 34.3761 60.1689C44.8832 36.8244 64.2563 18.2078 90.7159 16.0937C107.298 14.4857 124.821 18.4767 137.635 29.4899C156.42 45.1102 166.341 71.5385 169.773 95.1925ZM168.171 95.3994C164.732 72.2202 154.918 46.1751 136.455 30.9193C120.826 17.6588 98.335 14.906 78.9921 20.3781C59.1477 26.0681 44.6409 42.7336 36.4177 61.1108C33.0231 68.5196 30.4262 76.2941 28.4739 84.2153C27.2212 89.6717 25.9784 95.2371 25.8109 100.827C25.8381 100.884 25.8492 100.934 25.8718 101L25.9941 101.245C27.0265 102.922 28.6895 104.336 30.2494 105.604C33.3988 108.09 36.8895 110.209 40.4777 112.123C54.981 119.734 70.8245 124.484 86.7028 128.338C110.479 134.111 135.772 135.166 159.558 128.922C163.494 127.893 167.432 126.637 171.1 125.043L171.445 126.679C170.677 126.644 169.819 126.502 169.057 125.991C166.99 124.499 167.218 121.759 167.299 119.557C167.497 116.788 167.907 114.118 168.183 111.434C168.774 106.087 168.936 100.733 168.171 95.3994Z" fill="#141005"/>
<path d="M15.8116 99.7017C17.2915 100.832 22.1288 93.6651 21.3671 92.1423C20.606 90.6195 18.1424 88.3269 16.7988 88.7831C15.4551 89.2393 10.8867 95.3774 11.1105 97.3651C11.3348 99.3528 15.8116 99.7017 15.8116 99.7017Z" fill="white"/>
<path d="M16.4532 97.2317C14.5577 97.2317 12.9213 96.4184 11.7707 95.1414C11.3208 96.048 11.0525 96.8473 11.111 97.365C11.3348 99.3532 15.8115 99.7016 15.8115 99.7016C16.6509 100.342 18.5696 98.3145 19.9347 96.161C18.8983 96.834 17.6856 97.2317 16.4532 97.2317Z" fill="white"/>
<path d="M16.0997 98.9471C16.1582 98.9773 16.2892 99.0405 16.2208 99.0005C16.1814 98.9976 16.1913 98.9825 16.186 98.986C16.9889 98.5704 17.6027 97.7333 18.1685 96.9832C19.1041 95.6343 20.0582 94.2043 20.3469 92.6131C20.3492 92.5551 20.3324 92.4803 20.3602 92.6009C20.3649 92.6125 20.3712 92.6229 20.3788 92.6328C19.718 91.5082 18.6351 90.3976 17.4341 89.9229C17.248 89.8591 17.1152 89.8759 17.1674 89.8701C17.1605 89.9066 17.1651 89.8626 17.0451 89.9652L16.9071 90.0666C15.2487 91.5853 13.8853 93.5713 12.788 95.5062C12.4646 96.1311 12.1626 96.7079 12.122 97.2609C12.1446 97.298 12.1197 97.3444 12.1637 97.3936C12.6993 98.186 13.9984 98.477 14.9606 98.7205C15.1183 98.7408 15.5014 98.8451 15.6545 98.8596C15.7977 98.8868 15.9617 98.8996 16.0997 98.9471ZM15.5229 100.457C15.5542 100.472 15.5884 100.485 15.6232 100.493C15.6603 100.502 15.7032 100.506 15.673 100.504L15.604 100.499C15.3571 100.5 14.916 100.433 14.6673 100.414C13.1312 100.149 11.3533 99.8642 10.4102 98.3547C8.91873 95.8529 13.5978 90.0115 15.4313 88.3201C17.2909 86.5608 19.7104 88.3728 21.0367 89.8127C21.5717 90.4092 22.1016 91.0619 22.4186 91.8131C22.6151 92.4009 22.5438 92.6734 22.4853 93.151C22.1137 95.2558 18.0074 101.764 15.5229 100.457Z" fill="#141005"/>
<path d="M178.127 130.14C183.072 131.197 183.86 132.621 183.322 134.475C182.784 136.329 181.167 136.422 177.585 136.562C174.004 136.703 172.698 131.207 172.698 131.207L178.127 130.14Z" fill="white"/>
<path d="M178.133 129.332C181.507 129.748 185.987 131.277 184.098 135.489C183.021 137.691 180.133 137.551 178.123 137.689C177.473 137.739 176.639 137.68 175.986 137.453C173.453 136.443 172.304 133.857 171.686 131.42C171.547 130.857 171.925 130.287 172.498 130.194C174.371 129.871 176.257 129.577 178.133 129.332ZM178.12 130.947C176.378 131.411 174.645 131.831 172.896 132.221L173.701 130.969C173.923 131.722 174.28 132.546 174.677 133.245C175.449 134.607 176.436 135.608 178.027 135.395C179.268 135.322 180.574 135.366 181.648 134.942C182.17 134.721 182.318 134.136 182.392 133.62C182.477 132.094 179.518 131.479 178.12 130.947Z" fill="#141005"/>
<path d="M177.001 133.818C181.649 135.809 182.147 137.359 181.262 139.074C180.377 140.789 178.772 140.568 175.23 140.015C171.689 139.462 171.468 133.818 171.468 133.818H177.001Z" fill="white"/>
<path d="M177.164 133.026C179.656 133.96 183.161 135.345 182.595 138.546C181.765 142.181 178.349 141.687 175.541 141.225C174.423 141.11 173.199 140.596 172.445 139.716C170.946 138.001 170.567 135.984 170.435 133.831C170.408 133.251 170.889 132.765 171.468 132.785C173.368 132.829 175.276 132.905 177.164 133.026ZM176.839 134.609C175.041 134.728 173.259 134.805 171.468 134.85L172.5 133.777C172.572 134.559 172.763 135.437 173.019 136.199C173.517 137.688 174.284 138.854 175.89 138.955C177.122 139.123 178.395 139.418 179.53 139.209C180.085 139.093 180.344 138.547 180.515 138.055C180.893 136.575 178.109 135.4 176.839 134.609Z" fill="#141005"/>
<path d="M165.092 101.423C172.697 98.4317 189.977 96.1669 193.119 107.461C195.43 115.773 192.329 120.616 184.167 122.016C180.457 122.652 179.641 124.062 179.641 124.062C164.767 119.843 163.412 132.571 164.988 136.54C166.654 140.734 177.223 146.622 179.053 142.891C180.883 139.159 172.956 136.974 172.956 136.974C172.956 136.974 176.374 138.337 177.799 135.611C179.225 132.885 176.817 130.995 176.817 130.995C176.817 130.995 180.212 130.899 184.701 130.756C196.11 130.392 204.794 122.766 202.668 108.535C199.672 88.4747 182.08 85.257 163.013 91.2229C163.013 91.2229 158.94 95.9901 165.092 101.423Z" fill="#141005"/>
<path d="M202.669 108.536C194.299 86.3062 170.16 92.9892 170.16 92.9892L161.697 95.2997C161.75 97.0318 162.54 99.1696 165.093 101.423C172.698 98.4317 189.978 96.1669 193.119 107.461C195.431 115.772 192.33 120.616 184.168 122.016C180.457 122.652 179.641 124.062 179.641 124.062C164.768 119.843 163.412 132.571 164.989 136.54C166.655 140.734 177.223 146.622 179.053 142.891C180.592 139.752 175.23 137.708 173.487 137.137C174.502 137.395 176.721 137.675 177.8 135.611C179.226 132.885 176.818 130.995 176.818 130.995C176.818 130.995 180.213 130.899 184.702 130.756C196.11 130.393 204.794 122.766 202.669 108.536Z" fill="#141005"/>
<path d="M193.167 128.889C190.487 127.362 188.729 124.437 188.582 121.166C188.575 121.01 188.573 120.856 188.576 120.703C187.324 121.287 185.856 121.726 184.167 122.016C180.457 122.653 179.641 124.062 179.641 124.062C164.767 119.844 163.412 132.572 164.988 136.54C166.654 140.734 177.223 146.623 179.053 142.891C180.591 139.755 175.237 137.711 173.49 137.139C174.508 137.397 176.722 137.671 177.8 135.612C179.226 132.886 176.817 130.996 176.817 130.996C176.817 130.996 180.212 130.9 184.701 130.756C187.775 130.658 190.647 130.028 193.167 128.889Z" fill="#141005"/>
<path d="M165.232 100.627C165.22 100.574 165.206 100.543 165.172 100.524L165.226 100.504L165.657 100.345C172.92 97.8914 183.097 96.5089 189.803 101.059C193.091 103.286 194.467 107.237 194.798 111.048C195.263 115.028 193.637 119.155 189.992 121.108C188.31 122.076 186.501 122.621 184.632 122.97C183.155 123.266 181.582 123.545 180.515 124.616L180.537 124.58L179.358 125.058C175.666 124.018 171.114 123.594 168.197 126.386C165.843 128.663 165.054 132.585 165.865 135.748C166.277 137.094 167.31 138.069 168.385 139.029C169.915 140.325 171.695 141.423 173.546 142.191C174.725 142.639 177.229 143.577 178.032 142.42C178.358 141.753 178.194 141.3 177.705 140.725C176.504 139.425 174.374 138.603 172.653 138.072L173.379 135.913C173.965 136.118 174.769 136.242 175.375 136.121C177.161 135.809 177.615 133.385 176.425 132.203C176.309 132.055 176.169 131.936 176.086 131.861C175.283 131.227 175.784 129.856 176.785 129.86C180.025 129.669 184.935 129.855 188.035 129.295C198.134 127.631 203.087 119.364 201.73 109.524C199.996 94.1351 188.881 88.1077 174.282 89.7673C170.565 90.1592 166.881 90.9788 163.282 92.0796L163.696 91.806C161.731 94.2621 162.553 97.7418 164.657 99.8576L165.119 100.338C165.188 100.4 165.201 100.485 165.232 100.627ZM164.952 102.219C161.181 99.7376 159.338 94.4737 162.331 90.6403C162.441 90.5018 162.585 90.4107 162.745 90.3667C166.422 89.1946 170.205 88.3025 174.069 87.848C186.564 86.2615 198.708 90.4948 202.599 103.501C206.578 116.081 202.583 128.94 188.422 131.486C185.083 132.099 180.26 131.931 176.849 132.13L177.517 130.103C181.556 133.463 178.513 139.724 173.334 138.276C173.066 138.21 172.848 138.153 172.533 138.033C171.944 137.811 171.647 137.154 171.869 136.565C172.081 136.004 172.693 135.709 173.259 135.874C174.391 136.209 175.41 136.607 176.453 137.121C178.041 137.942 179.986 139.133 180.393 141.19C180.803 143.856 178.581 145.515 176.116 145.163C171.84 144.673 165.119 140.6 163.782 136.358C162.455 131.282 164.55 124.885 169.781 122.93C173.041 121.671 176.715 122.159 179.923 123.065L178.744 123.543C179.993 121.827 182.325 121.32 184.26 120.955C189.635 120.072 193.43 117.037 192.819 111.217C192.59 109.073 192.13 106.744 190.904 104.929C186.319 98.4218 175.566 99.4426 168.7 101.127C167.88 101.324 167.002 101.615 166.2 101.879C165.818 102.03 165.359 102.188 164.952 102.219Z" fill="#141005"/>
<path d="M173.49 137.139C174.508 137.396 176.722 137.671 177.8 135.611C179.226 132.885 176.817 130.995 176.817 130.995C176.817 130.995 178.82 130.941 181.715 130.471C180.586 128.45 179.768 126.236 179.327 123.977C164.75 120.027 163.423 132.6 164.988 136.54C166.654 140.734 177.223 146.622 179.053 142.891C180.591 139.754 175.237 137.711 173.49 137.139Z" fill="white"/>
<path d="M175.026 140.884C168.968 139.524 164.583 133.641 166.005 127.466C164.15 130.585 164.219 134.604 164.988 136.54C166.654 140.734 177.223 146.622 179.053 142.891C179.596 141.784 179.278 140.814 178.567 139.997C177.641 140.828 176.311 141.173 175.026 140.884Z" fill="white"/>
<path d="M178.211 126.228C178.486 127.099 178.642 128 178.89 128.878C178.905 128.931 179.008 129.208 179.091 129.449C179.63 129.732 180.047 130.164 180.342 130.673C180.772 130.616 181.229 130.55 181.715 130.471C180.586 128.451 179.768 126.236 179.327 123.977C178.484 123.749 177.687 123.578 176.931 123.456C177.508 124.297 177.913 125.286 178.211 126.228Z" fill="white"/>
<path d="M172.714 136.914C172.828 136.658 173.246 136.353 173.564 136.367C173.829 136.361 173.859 136.399 173.956 136.407C176.977 137.098 178.476 133.686 176.208 131.771C175.496 131.237 175.909 130.021 176.782 130.01C177.453 129.976 178.476 129.877 179.163 129.798C179.96 129.701 180.757 129.584 181.548 129.447L180.81 130.977C179.611 128.87 178.724 126.579 178.248 124.188L179.039 125.038C175.418 124.079 170.987 123.746 168.19 126.512C165.786 128.916 164.726 133.705 166.38 136.808C167.404 138.373 169.064 139.664 170.653 140.713C172.275 141.751 174.143 142.692 176.017 143.01C177.142 143.18 178.266 143.071 178.367 141.798C178.291 140.557 177.075 139.814 175.978 139.137C175.329 138.779 174.643 138.451 173.947 138.174L173.594 138.037C173.442 137.987 173.146 137.848 172.962 137.587C172.77 137.323 172.737 137.056 172.714 136.914ZM174.266 137.363C174.368 137.264 174.46 137.038 174.392 136.817C174.333 136.599 174.162 136.502 174.134 136.494L174.523 136.626C176.884 137.536 180.066 138.801 180.277 141.818C180.042 146.105 175.165 145.317 172.448 144.064C169.066 142.53 164.93 140.003 163.726 136.268C162.771 132.305 163.634 127.867 166.594 124.877C170.063 121.469 175.348 121.733 179.613 122.916C180.032 123.026 180.33 123.367 180.405 123.766C180.82 125.921 181.561 128.028 182.619 129.964C182.984 130.574 182.581 131.4 181.881 131.494C180.202 131.743 178.546 131.925 176.844 131.981L177.426 130.219C177.681 130.435 177.829 130.593 178.003 130.796C180.94 134.192 177.963 139.237 173.552 137.986C173.802 138.049 174.281 137.767 174.266 137.363Z" fill="#141005"/>
<path d="M177.357 121.55C176.039 122.732 175.895 130.135 177.502 131.397C179.11 132.66 183.402 132.239 184.328 131.692C185.254 131.144 185.133 121.718 183.468 121.045C181.802 120.372 178.577 120.456 177.357 121.55Z" fill="white"/>
<path d="M180.589 128.798C178.964 128.798 177.513 128.251 176.354 127.343C176.444 129.174 176.81 130.854 177.502 131.397C179.109 132.659 183.401 132.239 184.327 131.691C184.737 131.449 184.941 129.466 184.898 127.274C183.665 128.222 182.141 128.798 180.589 128.798Z" fill="white"/>
<path d="M177.896 122.151C177.298 123.112 177.254 124.581 177.201 125.736C177.225 127.364 177.275 129.112 178.019 130.465C178.521 130.966 179.39 131.011 180.186 131.09C181.346 131.134 182.619 131.09 183.722 130.709C183.722 130.715 183.791 130.669 183.638 130.768C183.575 130.814 183.53 130.876 183.483 130.933C183.451 130.993 183.462 130.969 183.479 130.933L183.502 130.857C183.963 128.427 183.873 125.714 183.513 123.294C183.465 122.88 183.211 122.082 183.063 121.863C183.075 121.877 183.093 121.886 183.112 121.889C181.608 121.296 179.256 121.219 177.896 122.151ZM176.817 120.948C178.287 119.809 179.88 119.77 181.57 119.787C182.342 119.837 183.143 119.935 183.874 120.232C186.186 121.367 186.31 129.243 185.699 131.506C185.592 131.885 185.412 132.292 185.084 132.552C183.147 133.773 177.588 133.739 176.32 131.553C175.046 129.454 175.1 122.715 176.817 120.948Z" fill="#141005"/>
<path d="M21.0349 51.9319C20.4367 53.1278 12.7387 50.6995 14.9565 47.4963C17.1743 44.2924 21.6917 50.6178 21.0349 51.9319Z" fill="#F4EBD7"/>
<path d="M21.6668 52.2478C21.3463 52.8761 20.5307 52.988 19.9209 52.9521C17.6886 52.7208 15.5142 52.0843 14.05 50.1836C12.5718 48.1263 14.7775 44.9439 17.2271 45.734C19.1145 46.3856 20.1098 47.8 21.0443 49.3575C21.4796 50.2566 22.0726 51.1568 21.6668 52.2478ZM20.4026 51.6153C20.355 50.1969 16.3646 45.5468 15.5554 48.6196C15.636 50.2172 18.9464 51.6362 20.413 51.5075C20.5405 51.5069 20.5313 51.4142 20.4026 51.6153Z" fill="#141005"/>
<path d="M19.9348 56.8602C20.5487 57.7773 14.6279 61.3782 13.3956 59.4067C12.1638 57.4353 18.6706 54.9711 19.9348 56.8602Z" fill="#F4EBD7"/>
<path d="M20.5221 56.4671C21.1105 57.5824 19.8834 58.4067 19.1779 59.0049C17.5722 60.1173 15.7178 61.3775 13.6165 60.7955C12.7186 60.5138 12.0068 59.3782 12.303 58.4067C12.9482 55.8886 18.935 54.2504 20.5221 56.4671ZM19.3472 57.2537C18.1675 56.2433 14.8478 57.7818 14.2466 58.8663C14.3197 59.002 14.6002 59.0217 14.8988 59.0136C16.3091 58.9028 17.9397 58.1881 19.026 57.2346C19.1188 57.1407 19.2138 57.0369 19.2527 56.9714C19.2689 56.947 19.2851 56.9094 19.2706 56.9534C19.2712 56.9668 19.2451 57.1308 19.3472 57.2537Z" fill="#141005"/>
<path d="M43.8038 28.8092C45.2889 27.5983 43.6699 25.5694 44.1382 23.5093C44.6072 21.4491 47.8446 17.2309 45.4894 15.9591C43.1342 14.6867 40.7906 19.8423 40.5228 23.9266C40.255 28.0104 43.3829 29.1524 43.8038 28.8092Z" fill="#F4EBD7"/>
<path d="M43.3569 28.2616C43.714 27.9399 43.7534 27.6216 43.7152 27.1272C43.5482 25.8699 43.0201 24.3981 43.4462 23.0109C43.9801 21.1873 45.111 19.5619 45.3597 17.7354C45.4808 16.9354 44.9081 16.5685 44.4009 16.8786C44.0757 17.0519 43.7007 17.4641 43.3935 17.9214C41.8313 20.4581 39.7363 26.2066 43.1645 28.0303C43.299 28.0969 43.4561 28.1427 43.5633 28.1549C43.5013 28.1729 43.4062 28.1972 43.3569 28.2616ZM44.2502 29.3572C43.3836 29.9188 42.2886 29.2592 41.5994 28.7108C39.8302 27.2802 39.4871 24.7836 39.796 22.6811C40.2453 19.9068 40.9119 16.8462 43.4161 15.1269C44.7505 14.2678 46.8263 15.0457 47.1996 16.6183C47.7155 19.1782 45.7429 21.2627 44.9754 23.477C44.3215 25.2896 46.1562 27.8651 44.2502 29.3572Z" fill="#141005"/>
<path d="M50.1311 12.6116C51.4809 12.6116 52.575 11.5175 52.575 10.1678C52.575 8.81804 51.4809 7.72388 50.1311 7.72388C48.7814 7.72388 47.6873 8.81804 47.6873 10.1678C47.6873 11.5175 48.7814 12.6116 50.1311 12.6116Z" fill="#F4EBD7"/>
<path d="M53.2816 10.1679C53.1546 14.516 46.8264 14.5461 46.6826 10.1679C46.8241 5.785 53.1552 5.81862 53.2816 10.1679ZM51.8678 10.1679C51.797 8.02716 48.7219 8.11063 48.6918 10.1679C48.7202 12.2286 51.797 12.3103 51.8678 10.1679Z" fill="#141005"/>
<path d="M169.704 23.3912C169.704 24.8606 168.513 26.0518 167.043 26.0518C165.574 26.0518 164.383 24.8606 164.383 23.3912C164.383 21.9217 165.574 20.7305 167.043 20.7305C168.513 20.7305 169.704 21.9217 169.704 23.3912Z" fill="#F4EBD7"/>
<path d="M170.411 23.3912C170.461 26.4101 166.677 28.0703 164.482 25.9528C163.029 24.6462 163.027 22.1356 164.48 20.8279C166.675 18.708 170.462 20.3723 170.411 23.3912ZM168.997 23.3912C168.904 20.9595 165.44 21.0435 165.388 23.3912C165.438 25.7435 168.904 25.8247 168.997 23.3912Z" fill="#141005"/>
<path d="M166.804 31.6197C165.351 31.4487 171.203 42.1106 172.927 42.285C174.652 42.4601 173.615 32.4202 166.804 31.6197Z" fill="#F4EBD7"/>
<path d="M166.722 32.3217C166.781 32.3304 166.843 32.3316 166.965 32.2881C167.122 32.2574 167.302 31.9745 167.286 31.9206C167.715 33.83 168.9 35.5633 169.9 37.2379C170.773 38.5729 171.702 39.9757 172.813 41.0678C172.955 41.2156 173.192 41.3507 173.109 41.3055C172.956 41.2521 172.721 41.3002 172.608 41.4057C172.509 41.477 172.525 41.5049 172.539 41.4533C172.79 40.6255 172.624 39.5879 172.464 38.7149C171.908 35.7621 169.938 32.6603 166.722 32.3217ZM166.887 30.9178C170.72 31.3068 173.472 34.7239 174.343 38.2819C174.567 39.1949 174.712 40.1426 174.636 41.1072C174.571 41.742 174.47 42.4497 173.846 42.9807C172.325 44.0201 171.008 42.0718 170.258 41.084C168.603 38.661 167.273 36.1105 166.211 33.3831C166.047 32.8979 165.871 32.4591 165.866 31.8876C165.875 31.7618 165.871 31.5902 166.019 31.3282C166.151 31.0569 166.611 30.8575 166.887 30.9178Z" fill="#141005"/>
<path d="M187.845 75.4421C187.983 77.2188 190.69 75.0543 192.846 75.4421C195.002 75.8299 197.848 75.7435 197.675 73.2428C197.502 70.7421 187.586 72.1223 187.845 75.4421Z" fill="#F4EBD7"/>
<path d="M188.55 75.3869C188.566 75.4159 188.57 75.5139 188.577 75.4918C188.579 75.4797 188.566 75.493 188.559 75.4756C188.552 75.453 188.53 75.4385 188.507 75.4391C189.875 75.2739 191.484 74.3487 193.014 74.6171C194.24 74.7528 196.859 74.9696 196.668 73.3187C195.179 72.4051 188.771 72.9987 188.55 75.3869ZM187.14 75.4965C186.784 71.7223 196.568 69.3903 198.408 72.3344C198.644 72.7106 198.702 73.1853 198.673 73.6068C198.707 74.8954 197.581 76.0982 196.439 76.3364C195.071 76.675 193.924 76.504 192.719 76.2732C191.984 76.1295 191.288 76.2785 190.532 76.4669C189.355 76.8054 187.34 77.4569 187.14 75.4965Z" fill="#141005"/>
<path d="M192.761 81.6932C192.761 82.8363 191.429 83.7626 189.785 83.7626C188.142 83.7626 186.81 82.8363 186.81 81.6932C186.81 80.5501 188.142 79.6238 189.785 79.6238C191.429 79.6238 192.761 80.5501 192.761 81.6932Z" fill="#F4EBD7"/>
<path d="M193.468 81.6933C193.172 85.5394 186.04 85.6681 185.805 81.6933C186.037 77.7144 193.172 77.8454 193.468 81.6933ZM192.054 81.6933C191.8 79.9832 188.14 80.1461 187.815 81.6933C188.137 83.245 191.8 83.4039 192.054 81.6933Z" fill="#141005"/>
<path d="M85.1446 97.8891C88.258 94.0789 93.9428 92.7179 98.4214 94.7467C99.3975 95.1501 100.407 95.7733 101.259 96.3727C101.626 96.6214 101.723 97.121 101.474 97.4891C101.233 97.8485 100.775 97.9279 100.409 97.7471C99.7923 97.5129 99.2207 97.2016 98.6156 96.9854C98.2799 96.8816 97.5791 96.63 97.2591 96.5315C96.9762 96.4701 96.1798 96.2956 95.8847 96.2283C93.7411 95.906 91.5505 96.1449 89.549 97.0381C88.3954 97.5448 87.2256 98.2491 86.268 99.0322C85.5202 99.6113 84.5534 98.623 85.1446 97.8891Z" fill="#141005"/>
<path d="M91.0561 99.9348C92.2357 98.303 94.7677 97.9906 96.305 99.2438C96.9015 99.6965 96.5508 100.717 95.8152 100.723C95.1225 100.752 94.5074 100.686 93.8547 100.784C93.1701 100.835 92.4606 101.131 91.7795 101.178C91.1181 101.277 90.6497 100.453 91.0561 99.9348Z" fill="#141005"/>
<path d="M81.4169 74.7834C81.1097 74.7365 80.8036 74.6797 80.497 74.6327C80.4309 74.6263 80.2152 74.6002 80.13 74.5921C78.9295 74.4739 77.7122 74.3649 76.5146 74.1719C76.3929 74.8141 76.3228 75.5045 76.3228 76.2274C76.3228 79.5599 77.7354 82.2612 79.4779 82.2612C81.2204 82.2612 82.633 79.5599 82.633 76.2274C82.633 75.788 82.6069 75.3608 82.5606 74.9475C82.1792 74.8953 81.7977 74.842 81.4169 74.7834Z" fill="#141005"/>
<path d="M81.1863 74.4549C81.7642 74.9366 81.8929 78.5653 81.0576 78.501C80.2229 78.4366 77.8787 75.0009 78.4242 74.3906C78.9708 73.7807 81.1863 74.4549 81.1863 74.4549Z" fill="white"/>
<path d="M68.6404 68.9568C68.0857 69.2895 68.0915 72.1832 68.6404 72.9153C69.1894 73.6469 84.5541 76.1163 85.0115 75.5679C85.4688 75.019 85.4688 73.2689 85.0115 72.9547C84.5541 72.6406 69.5546 68.4078 68.6404 68.9568Z" fill="#141005"/>
<path d="M111.426 78.8284C111.119 78.7814 110.813 78.7246 110.506 78.6776C110.44 78.6713 110.225 78.6452 110.14 78.6371C108.939 78.5188 107.722 78.4098 106.524 78.2168C106.402 78.8591 106.332 79.5495 106.332 80.2723C106.332 83.6048 107.745 86.3061 109.487 86.3061C111.23 86.3061 112.643 83.6048 112.643 80.2723C112.643 79.8329 112.616 79.4057 112.57 78.993C112.188 78.9402 111.807 78.8863 111.426 78.8284Z" fill="#141005"/>
<path d="M111.391 78.4463C111.969 78.928 112.097 82.5568 111.262 82.4924C110.427 82.4281 108.083 78.9924 108.629 78.382C109.175 77.7722 111.391 78.4463 111.391 78.4463Z" fill="white"/>
<path d="M98.1815 73.5372C97.6267 73.8699 97.6325 76.8477 98.1815 77.5792C98.7304 78.3108 114.096 80.7802 114.552 80.2318C115.01 79.6828 115.01 77.9328 114.552 77.6186C114.096 77.305 99.0962 72.9882 98.1815 73.5372Z" fill="#141005"/>
<path d="M69.4613 82.0827C69.0468 83.6855 65.643 84.1915 61.8589 83.213C58.0748 82.2346 55.3434 80.1414 55.7579 78.5386C56.1723 76.9358 59.5762 76.4297 63.3602 77.4082C67.1443 78.3867 69.8757 80.4793 69.4613 82.0827Z" fill="#E9F4FC"/>
<path d="M128.227 90.008C128.075 91.6565 124.797 92.704 120.906 92.3469C117.013 91.9898 113.981 90.3639 114.132 88.7147C114.283 87.0661 117.561 86.0187 121.453 86.3757C125.345 86.7334 128.378 88.3594 128.227 90.008Z" fill="#E9F4FC"/>
<path d="M58.6934 36.7838C62.2914 33.1081 66.3491 29.8515 70.8253 27.3004C72.3225 26.4518 73.8743 25.6976 75.4725 25.0594C75.6817 24.9759 75.9194 25.078 76.0029 25.2872C76.0823 25.4866 75.9918 25.7121 75.8029 25.8054C71.2542 28.0337 67.0539 30.8996 63.129 34.0918C61.8178 35.1578 60.5269 36.2534 59.2556 37.3745C58.8754 37.7124 58.3316 37.1548 58.6934 36.7838Z" fill="#141005"/>
<path d="M53.43 42.2207C53.9106 41.3558 54.5957 40.6086 55.4206 40.0614C55.7731 39.8336 56.2188 40.2666 56.0119 40.6231C55.7817 41.1338 53.9749 43.4925 53.4463 42.6276C53.3692 42.5001 53.3692 42.3453 53.43 42.2207Z" fill="#141005"/>
<path d="M45.1471 52.8117C46.1522 50.9551 47.3892 49.252 48.7369 47.6347C49.1879 47.0997 49.6499 46.5745 50.1444 46.076C50.3038 45.9154 50.5629 45.9143 50.7241 46.0737C50.8643 46.2128 50.8811 46.4308 50.778 46.5902C50.0122 47.7489 49.1873 48.8584 48.3631 49.9725C47.6251 50.9429 46.5881 52.3306 45.8282 53.2598C45.5244 53.6372 44.9192 53.2372 45.1471 52.8117Z" fill="#141005"/>
<path d="M155.674 63.9174C156.994 66.2883 158.006 68.8255 158.769 71.4271C159.017 72.2977 159.238 73.1759 159.399 74.068C159.44 74.29 159.294 74.5034 159.072 74.5445C158.871 74.5816 158.676 74.4634 158.611 74.2761C157.774 71.8282 156.839 69.1507 155.897 66.7567L154.936 64.2635C154.754 63.7992 155.435 63.4798 155.674 63.9174Z" fill="#141005"/>
<path d="M142.739 44.541C145.59 47.3571 148.008 50.5568 150.173 53.916C150.889 55.0365 151.561 56.186 152.187 57.3593C152.293 57.5581 152.218 57.8056 152.019 57.9117C151.832 58.012 151.6 57.9499 151.486 57.7766C149.297 54.4986 147.052 51.2623 144.616 48.1634C143.809 47.1269 142.979 46.0951 142.142 45.0969C141.819 44.7126 142.373 44.1886 142.739 44.541Z" fill="#141005"/>
<path d="M125.642 46.5676C125.496 48.6388 128.635 49.0312 129.757 47.6458C130.674 46.7607 131.27 44.8599 129.992 44.1238C129.602 43.9093 129.067 43.878 128.546 43.8774C128.047 43.8774 128.003 43.1285 128.494 43.067C132.079 42.4526 132.731 46.3045 130.579 48.4626C129.191 49.9338 126.563 49.9958 125.254 48.3646C124.831 47.8244 124.63 47.0331 124.854 46.3607C124.925 46.1468 125.156 46.0309 125.37 46.1022C125.567 46.1671 125.68 46.37 125.642 46.5676Z" fill="#141005"/>
<path d="M126.313 37.7264C126.57 38.8429 128.451 37.7432 127.827 36.9143C127.819 36.8366 127.671 36.8749 127.553 36.9328C127.346 37.0192 127.108 36.9213 127.022 36.7137C126.842 36.086 127.82 35.788 128.287 36.0448C129.769 36.9653 128.904 38.9385 127.448 39.2579C126.361 39.6289 124.959 38.5026 125.601 37.3259C125.719 37.1189 126.044 37.1386 126.138 37.3537L126.313 37.7264Z" fill="#141005"/>
<path d="M38.0135 95.8997C36.2977 97.0689 37.9353 99.7754 39.7178 99.7968C40.9814 99.9684 42.8422 99.2578 42.6283 97.7987C42.5541 97.3593 42.2474 96.9205 41.9251 96.5107C41.6156 96.1194 42.1767 95.6209 42.5292 95.9681C45.2333 98.401 42.6144 101.3 39.5873 100.949C37.5724 100.771 35.8948 98.7476 36.3638 96.7089C36.5255 96.0423 37.0217 95.3937 37.6883 95.1525C37.9005 95.0754 38.1347 95.1856 38.2112 95.3977C38.2819 95.5931 38.1927 95.807 38.0135 95.8997Z" fill="#141005"/>
<path d="M39.909 89.6775C39.3287 90.6652 41.4521 91.1574 41.568 90.1273C41.615 90.0653 41.4811 89.9911 41.3559 89.9528C41.146 89.8734 41.0405 89.6387 41.1199 89.4288C41.4196 88.8486 42.3355 89.3036 42.499 89.8108C42.8966 90.9945 41.6613 92.0164 40.5947 91.853C40.2556 91.8107 39.9844 91.7191 39.6829 91.5713C38.6384 91.0953 38.392 89.3135 39.6679 88.899C39.8951 88.8289 40.1183 89.0665 40.0383 89.2874L39.909 89.6775Z" fill="#141005"/>
<path d="M145.786 115.562C144.146 115.799 144.382 118.44 145.714 119.08C147.194 119.984 149.155 119.518 148.543 117.471C148.394 116.975 149.129 116.723 149.313 117.203C150.568 120.123 147.354 121.498 145.1 120.063C143.57 119.158 143.006 116.917 144.156 115.479C144.454 114.992 146.119 114.213 146.176 115.196C146.155 115.402 145.985 115.555 145.786 115.562Z" fill="#141005"/>
<path d="M152.441 112.189C151.861 113.177 153.985 113.669 154.1 112.639C154.148 112.577 154.014 112.503 153.888 112.465C153.678 112.385 153.573 112.151 153.652 111.941C153.952 111.361 154.868 111.816 155.031 112.323C155.429 113.506 154.194 114.528 153.127 114.365C152.788 114.323 152.517 114.231 152.215 114.083C151.171 113.607 150.924 111.825 152.2 111.41C152.428 111.34 152.651 111.578 152.571 111.799L152.441 112.189Z" fill="#141005"/>
<path d="M145.307 127.899C142.121 128.492 138.87 128.685 135.636 128.459C135.245 128.424 134.956 128.079 134.99 127.688C135.019 127.353 135.276 127.096 135.592 127.046C137.183 126.717 138.776 126.571 140.371 126.471C141.981 126.387 143.594 126.349 145.226 126.494C146.031 126.556 146.093 127.75 145.307 127.899Z" fill="#141005"/>
<path d="M166.607 124.28C162.511 125.893 158.154 126.651 153.797 127.079C153.173 127.117 152.553 127.17 151.928 127.187C151.535 127.198 151.208 126.889 151.197 126.497C151.188 126.154 151.425 125.861 151.745 125.785C152.949 125.499 154.158 125.272 155.363 125.032L158.978 124.333C160.771 123.997 164.38 123.295 166.167 122.936C167.007 122.742 167.399 123.944 166.607 124.28Z" fill="#141005"/>
</svg>
