<svg width="18" height="18" viewBox="0 0 18 18" fill="none" xmlns="http://www.w3.org/2000/svg">
<g clip-path="url(#clip0_1715_8804)">
<path d="M2.11779 15.8824C1.53301 15.8824 1.05896 15.4083 1.05896 14.8235V12.8362C1.05896 12.7064 1.07489 12.577 1.10638 12.451L1.34739 11.4871C1.39172 11.3097 1.46034 11.1436 1.54918 10.9918L0.930567 10.8371C0.646911 10.7662 0.474437 10.4788 0.545351 10.1951C0.616265 9.91148 0.903701 9.73901 1.18736 9.80993L2.18296 10.0588H2.80204L3.76696 7.3249C4.14049 6.26657 5.1408 5.55883 6.26311 5.55883H11.7372C12.8595 5.55883 13.8598 6.26657 14.2333 7.3249L15.1982 10.0588H15.8173L16.8129 9.80993C17.0966 9.73901 17.384 9.91148 17.4549 10.1951C17.5258 10.4788 17.3534 10.7662 17.0697 10.8371L16.4511 10.9918C16.5399 11.1436 16.6086 11.3097 16.6529 11.4871L16.8939 12.451C16.9254 12.577 16.9413 12.7064 16.9413 12.8362V14.8235C16.9413 15.4083 16.4673 15.8824 15.8825 15.8824V16.9412C15.8825 17.526 15.4084 18 14.8237 18H12.706C12.1213 18 11.6472 17.526 11.6472 16.9412V15.8824H6.35308V16.9412C6.35308 17.526 5.87903 18 5.29426 18H3.17661C2.59184 18 2.11779 17.526 2.11779 16.9412V15.8824ZM14.0754 10.0588L13.2349 7.67728C13.0107 7.04229 12.4106 6.61765 11.7372 6.61765H6.26311C5.58972 6.61765 4.98954 7.04229 4.76543 7.67728L3.92488 10.0588H14.0754ZM12.5207 14.8235H15.8825V12.8362C15.8825 12.793 15.8772 12.7498 15.8667 12.7078L15.6257 11.7439C15.5337 11.3758 15.203 11.1177 14.8237 11.1177H3.17661C2.79726 11.1177 2.4666 11.3758 2.37459 11.7439L2.13359 12.7078C2.12309 12.7498 2.11779 12.793 2.11779 12.8362V14.8235H5.47962L6.39871 12.7556C6.48368 12.5644 6.67327 12.4412 6.88249 12.4412H11.1178C11.327 12.4412 11.5166 12.5644 11.6016 12.7556L12.5207 14.8235ZM14.8237 15.8824H12.706V16.9412H14.8237V15.8824ZM11.362 14.8235L10.7737 13.5H7.22654L6.6383 14.8235H11.362ZM3.17661 15.8824V16.9412H5.29426V15.8824H3.17661ZM0.741748 4.72033C0.473876 4.83752 0.161714 4.71537 0.04452 4.4475C-0.0726738 4.17963 0.049481 3.86746 0.317353 3.75027L8.78794 0.0443872C8.92322 -0.0147957 9.07706 -0.0147957 9.21234 0.0443872L17.6829 3.75027C17.9508 3.86746 18.073 4.17963 17.9558 4.4475C17.8386 4.71537 17.5264 4.83752 17.2585 4.72033L10.2026 1.63336C9.43604 1.29799 8.56424 1.29799 7.79768 1.63336L0.741748 4.72033ZM14.2943 13.5C13.8557 13.5 13.5001 13.1445 13.5001 12.7059C13.5001 12.2673 13.8557 11.9118 14.2943 11.9118C14.7328 11.9118 15.0884 12.2673 15.0884 12.7059C15.0884 13.1445 14.7328 13.5 14.2943 13.5ZM3.70602 13.5C3.26744 13.5 2.9119 13.1445 2.9119 12.7059C2.9119 12.2673 3.26744 11.9118 3.70602 11.9118C4.1446 11.9118 4.50014 12.2673 4.50014 12.7059C4.50014 13.1445 4.1446 13.5 3.70602 13.5Z" fill="#141005"/>
</g>
<defs>
<clipPath id="clip0_1715_8804">
<rect width="18" height="18" fill="white"/>
</clipPath>
</defs>
</svg>
