<svg width="40" height="40" viewBox="0 0 40 40" fill="none" xmlns="http://www.w3.org/2000/svg">
<g clip-path="url(#clip0_2879_3579)">
<path fill-rule="evenodd" clip-rule="evenodd" d="M39.4531 34.1406H0.546875C0.234375 34.1406 0 33.9062 0 33.5938V30.0781C0 29.7656 0.234375 29.5312 0.546875 29.5312C1.17188 29.5312 1.71875 28.9844 1.71875 28.3594C1.71875 27.6562 1.17188 27.1094 0.546875 27.1094C0.234375 27.1094 0 26.875 0 26.5625V23.0469C0 22.7344 0.234375 22.5 0.546875 22.5C1.71875 22.5 2.73438 21.4844 2.73438 20.3125C2.73438 19.1406 1.71875 18.125 0.546875 18.125C0.234375 18.125 0 17.8906 0 17.5781V12.4219C0 12.1094 0.234375 11.875 0.546875 11.875H39.4531C39.7656 11.875 40 12.1094 40 12.4219V18.8281C40 19.1406 39.7656 19.375 39.4531 19.375C38.5938 19.375 37.8906 20.0781 37.8906 20.9375C37.8906 21.7969 38.5938 22.5 39.4531 22.5C39.7656 22.5 40 22.7344 40 23.0469V33.5938C40 33.9062 39.7656 34.1406 39.4531 34.1406ZM1.09375 33.0469H38.9062V23.5156C37.7344 23.2812 36.7969 22.1875 36.7969 20.9375C36.7969 19.6875 37.7344 18.5938 38.9062 18.3594V12.9688H1.09375V17.1094C2.65625 17.3438 3.82812 18.75 3.82812 20.3125C3.82812 21.875 2.65625 23.2812 1.09375 23.5156V26.0938C2.10938 26.3281 2.8125 27.2656 2.8125 28.3594C2.8125 29.4531 2.10938 30.3125 1.09375 30.5469V33.0469Z" fill="#141005"/>
<path fill-rule="evenodd" clip-rule="evenodd" d="M0.546819 12.9688C0.312444 12.9688 0.0780685 12.8125 -5.64512e-05 12.5781C-0.0781815 12.2656 0.156194 11.9531 0.390569 11.875L24.9218 5.85938H25.0781C25.2343 5.85938 27.9687 6.01562 31.2499 6.79688C35.6249 7.89062 38.5156 9.6875 39.9218 12.1875C40.0781 12.4219 39.9999 12.7344 39.6874 12.8906C39.4531 13.0469 39.1406 12.9688 38.9843 12.6562C36.1718 7.65625 26.0937 7.03125 25.1562 6.95312L0.703069 12.9688C0.624944 12.9688 0.624944 12.9688 0.546819 12.9688Z" fill="#141005"/>
<path fill-rule="evenodd" clip-rule="evenodd" d="M21.0938 23.2031C19.2969 23.2031 17.8906 21.7188 17.8906 19.9219C17.8906 18.125 19.2969 16.6406 21.0938 16.6406C22.8906 16.6406 24.375 18.125 24.375 19.9219C24.375 21.7188 22.8906 23.2031 21.0938 23.2031ZM21.0938 17.7344C19.9219 17.7344 18.9844 18.75 18.9844 19.9219C18.9844 21.0938 19.9219 22.1094 21.0938 22.1094C22.2656 22.1094 23.2812 21.0938 23.2812 19.9219C23.2812 18.75 22.2656 17.7344 21.0938 17.7344Z" fill="#141005"/>
<path fill-rule="evenodd" clip-rule="evenodd" d="M30 21.4062C28.4375 21.4062 27.1875 20.1562 27.1875 18.5938C27.1875 17.1094 28.4375 15.8594 30 15.8594C31.4844 15.8594 32.8125 17.1094 32.8125 18.5938C32.8125 20.1562 31.5625 21.4062 30 21.4062ZM30 16.9531C29.0625 16.9531 28.2812 17.7344 28.2812 18.5938C28.2812 19.5312 29.0625 20.3125 30 20.3125C30.9375 20.3125 31.7188 19.5312 31.7188 18.5938C31.7188 17.7344 30.9375 16.9531 30 16.9531Z" fill="#141005"/>
<path fill-rule="evenodd" clip-rule="evenodd" d="M31.25 30.3125C29.8438 30.3125 28.6719 29.2188 28.6719 27.8125C28.6719 26.4062 29.8438 25.3125 31.25 25.3125C32.6562 25.3125 33.75 26.4062 33.75 27.8125C33.75 29.2188 32.6562 30.3125 31.25 30.3125ZM31.25 26.4062C30.3906 26.4062 29.7656 27.0312 29.7656 27.8125C29.7656 28.5938 30.3906 29.2188 31.25 29.2188C32.0312 29.2188 32.6562 28.5938 32.6562 27.8125C32.6562 27.0312 32.0312 26.4062 31.25 26.4062Z" fill="#141005"/>
<path fill-rule="evenodd" clip-rule="evenodd" d="M9.53125 30.7031C8.28125 30.7031 7.26562 29.6875 7.26562 28.4375C7.26562 27.1875 8.28125 26.1719 9.53125 26.1719C10.7812 26.1719 11.7969 27.1875 11.7969 28.4375C11.7969 29.6875 10.7812 30.7031 9.53125 30.7031ZM9.53125 27.2656C8.90625 27.2656 8.35938 27.8125 8.35938 28.4375C8.35938 29.0625 8.90625 29.6094 9.53125 29.6094C10.1562 29.6094 10.7031 29.0625 10.7031 28.4375C10.7031 27.8125 10.1562 27.2656 9.53125 27.2656Z" fill="#141005"/>
<path fill-rule="evenodd" clip-rule="evenodd" d="M18.5156 32.1875C17.1094 32.1875 16.0156 31.0938 16.0156 29.6875C16.0156 28.3594 17.1094 27.2656 18.5156 27.2656C19.8438 27.2656 21.0156 28.3594 21.0156 29.6875C21.0156 31.0156 19.8438 32.1875 18.5156 32.1875ZM18.5156 28.3594C17.7344 28.3594 17.1094 28.9844 17.1094 29.6875C17.1094 30.4688 17.7344 31.0938 18.5156 31.0938C19.2969 31.0938 19.9219 30.4688 19.9219 29.6875C19.9219 28.9844 19.2188 28.3594 18.5156 28.3594Z" fill="#141005"/>
<path fill-rule="evenodd" clip-rule="evenodd" d="M25.7812 11.25C24.6875 11.25 23.8281 10.3906 23.8281 9.29688C23.8281 8.20312 24.6875 7.26562 25.7812 7.26562C26.875 7.26562 27.8125 8.20312 27.8125 9.29688C27.8125 10.3906 26.875 11.25 25.7812 11.25ZM25.7812 8.35938C25.3125 8.35938 24.9219 8.82812 24.9219 9.29688C24.9219 9.76562 25.3125 10.1562 25.7812 10.1562C26.25 10.1562 26.7188 9.76562 26.7188 9.29688C26.7188 8.82812 26.25 8.35938 25.7812 8.35938Z" fill="#141005"/>
<path fill-rule="evenodd" clip-rule="evenodd" d="M8.59375 21.5625C6.71875 21.5625 5.3125 20.1562 5.3125 18.3594C5.3125 16.4844 6.71875 15.0781 8.59375 15.0781C10.3906 15.0781 11.7969 16.4844 11.7969 18.3594C11.7969 20.1562 10.3906 21.5625 8.59375 21.5625ZM8.59375 16.1719C7.34375 16.1719 6.40625 17.1094 6.40625 18.3594C6.40625 19.5312 7.34375 20.4688 8.59375 20.4688C9.76562 20.4688 10.7031 19.5312 10.7031 18.3594C10.7031 17.1094 9.76562 16.1719 8.59375 16.1719Z" fill="#141005"/>
</g>
<defs>
<clipPath id="clip0_2879_3579">
<rect width="40" height="40" fill="white"/>
</clipPath>
</defs>
</svg>
