<svg width="16" height="16" viewBox="0 0 16 16" fill="none" xmlns="http://www.w3.org/2000/svg">
<g clip-path="url(#clip0_176_630)">
<path d="M14.8933 2.97177H5.24026L4.28801 1.32245C4.11564 1.02389 3.84679 0.825923 3.51048 0.750017C3.17414 0.673986 2.84633 0.737267 2.56245 0.932767L0.430764 2.40042C0.358858 2.44992 0.306483 2.52295 0.28267 2.60689C0.0227328 3.5228 0.0804828 4.68777 0.454326 6.06942C0.788483 7.30442 1.36286 8.64605 2.11533 9.94933C3.40217 12.1782 5.51711 14.7464 7.59383 15.2702C7.62401 15.2778 7.65479 15.2815 7.68554 15.2815C7.74089 15.2815 7.79601 15.2693 7.8467 15.2451L10.1835 14.1329C10.4949 13.9847 10.7135 13.7324 10.8159 13.4032C10.9182 13.0739 10.8812 12.7421 10.7088 12.4436L10.3728 11.8617H14.8933C15.4343 11.8617 15.8744 11.4216 15.8744 10.8806V3.95283C15.8744 3.41189 15.4343 2.97177 14.8933 2.97177ZM5.59536 3.72177H14.2892L9.56251 6.96208L5.58111 4.23267C5.62151 4.06667 5.62733 3.8923 5.59536 3.72177ZM10.0997 13.1805C10.0594 13.31 9.98364 13.3974 9.8612 13.4557L7.65079 14.5078C6.14542 14.051 4.24379 12.1359 2.76483 9.57436C1.28423 7.00992 0.605545 4.4878 0.971139 2.93892L2.98776 1.55045C3.09939 1.47358 3.21308 1.45167 3.34526 1.48155C3.47748 1.51142 3.57067 1.57999 3.63845 1.69742L4.80733 3.72195C4.92964 3.9338 4.85917 4.20961 4.65023 4.33683L3.35555 5.12517C3.22026 5.20758 3.15133 5.36608 3.1833 5.5212C3.55486 7.32333 5.14536 10.0782 6.52026 11.301C6.63858 11.4063 6.81039 11.4258 6.94933 11.3498L8.27939 10.6227C8.49405 10.5054 8.76817 10.5822 8.89045 10.7941L10.0593 12.8186C10.1271 12.936 10.1399 13.051 10.0997 13.1805ZM14.8933 11.1117H9.93983L9.53998 10.4191C9.21564 9.85736 8.48876 9.65349 7.91964 9.96464L6.82789 10.5615C5.67961 9.42811 4.38489 7.18567 3.97755 5.62455L5.04026 4.97749C5.09255 4.94564 5.14151 4.9103 5.18714 4.87192L9.35045 7.72605C9.41436 7.76986 9.48842 7.79177 9.56248 7.79177C9.63655 7.79177 9.71064 7.76986 9.77451 7.72605L15.1244 4.05849V10.8806C15.1244 11.0059 15.0186 11.1117 14.8933 11.1117Z" fill="#666666"/>
</g>
<defs>
<clipPath id="clip0_176_630">
<rect width="16" height="16" fill="white"/>
</clipPath>
</defs>
</svg>
