<svg width="16" height="16" viewBox="0 0 16 16" fill="none" xmlns="http://www.w3.org/2000/svg">
<g clip-path="url(#clip0_176_507)">
<path d="M11.8125 15.3335H11.7998C10.5718 15.2453 9.38293 14.8635 8.33316 14.2202C6.38037 13.0898 4.65919 11.6 3.26049 9.82951C2.08823 8.51441 1.24932 6.93674 0.814492 5.22951C0.632231 4.49724 0.649496 3.72951 0.864492 3.00618C1.00357 2.5509 1.22876 2.12656 1.52783 1.75618C1.81658 1.36782 2.20301 1.06282 2.64783 0.872179C3.09825 0.660969 3.61079 0.623461 4.08716 0.766846C4.53251 1.07422 4.911 1.46859 5.19983 1.92618L6.30583 3.40818C6.80516 4.19418 6.87716 4.49818 6.83916 4.79218C6.74416 5.17091 6.5568 5.52021 6.29383 5.80885C6.10183 6.07551 5.96049 6.24218 5.85116 6.36618C5.70849 6.53085 5.68983 6.55885 5.67916 6.61618C5.65183 6.76818 5.76183 6.94951 6.18649 7.46951C6.96598 8.396 7.83856 9.23998 8.79049 9.98818C9.01649 10.1788 9.20449 10.3215 9.37649 10.3015C9.44316 10.2935 9.47916 10.2682 9.70249 10.0788C9.80649 9.99085 9.93716 9.87885 10.1132 9.74085L10.1798 9.68485C10.44 9.42074 10.7711 9.23759 11.1332 9.15751C11.5631 9.15273 11.9833 9.28489 12.3332 9.53485L13.4312 10.2575L14.3325 10.9455C14.8765 11.4295 15.2045 11.7222 15.2938 12.1968C15.324 12.4857 15.2959 12.7776 15.211 13.0553C15.1261 13.3331 14.9863 13.5909 14.7998 13.8135C14.4696 14.294 14.0248 14.6847 13.5057 14.9501C12.9865 15.2155 12.4094 15.3473 11.8265 15.3335H11.8125ZM3.54449 1.33885C3.32093 1.34836 3.10114 1.39969 2.89649 1.49018C2.56121 1.6499 2.26786 1.88571 2.03983 2.17885C1.75146 2.53675 1.54649 2.95444 1.43983 3.40151C1.31392 3.95567 1.32054 4.53173 1.45916 5.08285C1.8733 6.68892 2.66634 8.17236 3.77183 9.40885C5.11865 11.1146 6.77573 12.5505 8.65583 13.6408C9.61134 14.2325 10.6957 14.5845 11.8165 14.6668C12.2928 14.6821 12.7653 14.5773 13.1905 14.3621C13.6157 14.1469 13.98 13.8283 14.2498 13.4355C14.521 13.1283 14.6631 12.7283 14.6465 12.3188C14.6005 12.0775 14.3965 11.8875 13.8965 11.4428L13.0538 10.8002L11.9998 10.1082C11.5578 9.87685 11.3865 9.80085 11.2145 9.81951C11.0718 9.83618 10.9305 9.94418 10.5965 10.2082L10.5258 10.2642C10.3578 10.3975 10.2332 10.5028 10.1338 10.5868C9.95551 10.7833 9.7175 10.9157 9.45649 10.9635C9.25144 10.9666 9.04801 10.9267 8.85934 10.8463C8.67067 10.7659 8.50096 10.6469 8.36116 10.4968C7.37811 9.72346 6.47736 8.85085 5.67316 7.89285C5.21583 7.33685 4.93983 6.97218 5.02449 6.49885C5.07333 6.28247 5.18569 6.0856 5.34716 5.93351C5.44583 5.81951 5.57849 5.66685 5.75516 5.42151C5.94144 5.21451 6.08547 4.97309 6.17916 4.71085C6.18716 4.64418 6.20649 4.49618 5.75716 3.78885L4.66649 2.32085C4.43572 1.97636 4.16196 1.66272 3.85183 1.38751C3.75308 1.35318 3.64901 1.3367 3.54449 1.33885Z" fill="#666666"/>
</g>
<defs>
<clipPath id="clip0_176_507">
<rect width="16" height="16" fill="white"/>
</clipPath>
</defs>
</svg>
