<svg width="24" height="24" viewBox="0 0 24 24" fill="none" xmlns="http://www.w3.org/2000/svg">
<path d="M24 5.30145C24 3.89542 23.4415 2.54697 22.4472 1.55276C21.453 0.558544 20.1046 0 18.6985 0H5.30541C3.89937 0 2.55093 0.558544 1.55671 1.55276C0.562497 2.54697 0.00395312 3.89542 0.00395312 5.30145V18.6946C-0.00131771 18.7128 -0.00131771 18.7322 0.00395312 18.7504C0.0186522 20.1467 0.583679 21.4809 1.57631 22.4631C2.56893 23.4452 3.90899 23.9961 5.30541 23.996H18.6985C20.0892 23.9933 21.4231 23.4442 22.4127 22.4671C23.4023 21.49 23.9683 20.1632 23.9888 18.7727V5.30145H24ZM5.30541 1.67414H18.6985C19.6597 1.67709 20.5806 2.06019 21.2602 2.73981C21.9398 3.41942 22.3229 4.34034 22.3259 5.30145V16.4624L17.6606 11.1275C17.3642 10.8119 17.0062 10.5604 16.6089 10.3885C16.2116 10.2166 15.7832 10.1279 15.3503 10.1279C14.9173 10.1279 14.489 10.2166 14.0916 10.3885C13.6943 10.5604 13.3364 10.8119 13.0399 11.1275L9.83675 14.7883L8.78762 13.5159C8.49853 13.1691 8.13673 12.8901 7.72785 12.6986C7.31897 12.5072 6.87299 12.4079 6.4215 12.4079C5.97001 12.4079 5.52403 12.5072 5.11515 12.6986C4.70627 12.8901 4.34447 13.1691 4.05538 13.5159L1.6781 16.3843V5.30145C1.68104 4.34034 2.06415 3.41942 2.74376 2.73981C3.42338 2.06019 4.34429 1.67709 5.30541 1.67414ZM18.6985 22.3219H5.30541C4.39368 22.319 3.51649 21.9729 2.84846 21.3524C2.18043 20.7319 1.77055 19.8826 1.70042 18.9736L5.30541 14.5874C5.44043 14.4369 5.60562 14.3166 5.79023 14.2343C5.97483 14.1519 6.17471 14.1093 6.37686 14.1093C6.579 14.1093 6.77888 14.1519 6.96348 14.2343C7.14809 14.3166 7.31328 14.4369 7.44831 14.5874L9.13361 16.6187C9.2109 16.7127 9.30801 16.7884 9.41799 16.8405C9.52796 16.8926 9.64809 16.9197 9.76979 16.92C9.8899 16.9169 10.0081 16.8896 10.1175 16.8398C10.2268 16.7899 10.3249 16.7185 10.406 16.6298L14.2453 12.2324C14.3819 12.0885 14.5464 11.974 14.7286 11.8957C14.9109 11.8174 15.1072 11.777 15.3056 11.777C15.504 11.777 15.7003 11.8174 15.8826 11.8957C16.0649 11.974 16.2293 12.0885 16.3659 12.2324L22.2477 18.929C22.1917 19.8374 21.7951 20.6912 21.1373 21.3202C20.4794 21.9491 19.6086 22.3068 18.6985 22.3219Z" fill="#1C72B0"/>
<path d="M6.42082 9.48667C7.02787 9.48667 7.62128 9.30666 8.12601 8.96941C8.63075 8.63215 9.02415 8.1528 9.25645 7.59196C9.48876 7.03113 9.54954 6.414 9.43111 5.81862C9.31268 5.22325 9.02036 4.67636 8.59112 4.24711C8.16188 3.81787 7.61499 3.52555 7.01961 3.40712C6.42423 3.28869 5.8071 3.34947 5.24627 3.58178C4.68543 3.81408 4.20608 4.20748 3.86883 4.71222C3.53157 5.21695 3.35156 5.81036 3.35156 6.41741C3.35156 7.23143 3.67493 8.01211 4.25053 8.5877C4.82613 9.1633 5.60681 9.48667 6.42082 9.48667ZM6.42082 5.02229C6.69675 5.02229 6.96649 5.10411 7.19591 5.25741C7.42534 5.41071 7.60415 5.62859 7.70975 5.88352C7.81534 6.13844 7.84297 6.41896 7.78914 6.68958C7.73531 6.96021 7.60243 7.2088 7.40732 7.40391C7.21221 7.59902 6.96363 7.73189 6.693 7.78572C6.42237 7.83955 6.14186 7.81192 5.88694 7.70633C5.63201 7.60074 5.41412 7.42192 5.26083 7.19249C5.10753 6.96307 5.02571 6.69334 5.02571 6.41741C5.02571 6.0474 5.17269 5.69255 5.43433 5.43091C5.69596 5.16927 6.05082 5.02229 6.42082 5.02229Z" fill="#1C72B0"/>
</svg>
