<svg width="24" height="24" viewBox="0 0 24 24" fill="none" xmlns="http://www.w3.org/2000/svg">
<g clip-path="url(#clip0_1223_5411)">
<path d="M19.3021 9.84404C19.3494 9.97131 19.473 10.0513 19.6003 10.0513C19.6367 10.0513 19.6767 10.044 19.713 10.0331L20.7821 9.63677C20.9458 9.57495 21.0294 9.39313 20.9676 9.22586C20.9058 9.06222 20.7239 8.97858 20.5567 9.0404L19.4876 9.43677C19.3239 9.49858 19.2403 9.6804 19.3021 9.84404Z" fill="#A27E2A"/>
<path d="M18.6004 8.79668C18.6804 8.79668 18.764 8.76759 18.8259 8.70214L19.6113 7.91668C19.735 7.79305 19.735 7.58941 19.6113 7.46577C19.4877 7.34214 19.284 7.34214 19.1604 7.46577L18.375 8.25123C18.2513 8.37487 18.2513 8.5785 18.375 8.70214C18.4404 8.76759 18.5204 8.79668 18.6004 8.79668Z" fill="#A27E2A"/>
<path d="M17.2364 7.77834C17.2727 7.79289 17.3091 7.79652 17.3455 7.79652C17.4764 7.79652 17.5964 7.71652 17.6436 7.58925L18.04 6.52016C18.1018 6.35652 18.0182 6.17107 17.8546 6.10925C17.6909 6.04743 17.5055 6.13107 17.4436 6.2947L17.0473 7.3638C16.9891 7.5347 17.0727 7.72016 17.2364 7.77834Z" fill="#A27E2A"/>
<path d="M21.6876 11.2148H17.6403L16.8912 9.72386C16.8367 9.61841 16.7276 9.54932 16.6076 9.54932H12.7058C12.5858 9.54932 12.4767 9.61841 12.4221 9.72386L11.6731 11.2148H7.62215C6.56397 11.2148 5.70215 12.0766 5.70215 13.1348V21.2002C5.70215 22.2584 6.56397 23.1202 7.62215 23.1202H21.684C22.7421 23.1202 23.604 22.2584 23.604 21.2002V13.1311C23.604 12.073 22.7458 11.2148 21.6876 11.2148ZM22.9676 21.1966C22.9676 21.9057 22.3931 22.4802 21.684 22.4802H7.62215C6.91669 22.4802 6.33851 21.9057 6.33851 21.1966V13.1311C6.33851 12.422 6.91306 11.8475 7.62215 11.8475H11.8658C11.9858 11.8475 12.0949 11.7784 12.1494 11.673L12.8985 10.182H16.404L17.1531 11.673C17.2076 11.7784 17.3167 11.8475 17.4367 11.8475H21.6803C22.3894 11.8475 22.964 12.422 22.964 13.1311V21.1966H22.9676Z" fill="#A27E2A"/>
<path d="M14.6546 12.6147C12.1455 12.6147 10.1055 14.6547 10.1055 17.1638C10.1055 19.6729 12.1455 21.7129 14.6546 21.7129C17.1637 21.7129 19.2037 19.6729 19.2037 17.1638C19.2037 14.6547 17.1637 12.6147 14.6546 12.6147ZM14.6546 21.0766C12.4982 21.0766 10.7418 19.3202 10.7418 17.1638C10.7418 15.0075 12.4982 13.2511 14.6546 13.2511C16.8109 13.2511 18.5673 15.0075 18.5673 17.1638C18.5673 19.3202 16.8109 21.0766 14.6546 21.0766Z" fill="#A27E2A"/>
<path d="M14.6546 14.0693C12.9491 14.0693 11.5601 15.4584 11.5601 17.1639C11.5601 18.8693 12.9491 20.2584 14.6546 20.2584C16.3601 20.2584 17.7492 18.8693 17.7492 17.1639C17.7492 15.4584 16.3601 14.0693 14.6546 14.0693ZM14.6546 19.6221C13.2982 19.6221 12.1964 18.5202 12.1964 17.1639C12.1964 15.8075 13.2982 14.7057 14.6546 14.7057C16.011 14.7057 17.1128 15.8075 17.1128 17.1639C17.1128 18.5202 16.011 19.6221 14.6546 19.6221Z" fill="#A27E2A"/>
<path d="M14.6545 15.5239C14.4799 15.5239 14.3345 15.6657 14.3345 15.8439C14.3345 16.0221 14.4763 16.1639 14.6545 16.1639C15.2072 16.1639 15.6581 16.6148 15.6581 17.1676C15.6581 17.3421 15.7999 17.4876 15.9781 17.4876C16.1563 17.4876 16.2981 17.3457 16.2981 17.1676C16.2945 16.2585 15.5599 15.5239 14.6545 15.5239Z" fill="#A27E2A"/>
<path d="M20.7494 12.6147C20.1312 12.6147 19.6294 13.1166 19.6294 13.7347C19.6294 14.3529 20.1312 14.8547 20.7494 14.8547C21.3676 14.8547 21.8694 14.3529 21.8694 13.7347C21.8694 13.1166 21.3676 12.6147 20.7494 12.6147ZM20.7494 14.2147C20.4839 14.2147 20.2658 14.0002 20.2658 13.7311C20.2658 13.462 20.4803 13.2475 20.7494 13.2475C21.0148 13.2475 21.233 13.462 21.233 13.7311C21.233 14.0002 21.0148 14.2147 20.7494 14.2147Z" fill="#A27E2A"/>
<path d="M9.20377 10.4331C9.30195 10.4331 9.36377 10.4294 9.38195 10.4294C9.46559 10.4258 9.54195 10.3894 9.60013 10.3276C9.69104 10.2331 11.7747 7.94944 10.7565 5.77126C10.3529 4.9058 9.32377 4.53126 8.45831 4.93489C7.96013 5.16762 7.61831 5.61126 7.50558 6.12398C7.04013 5.88035 6.47649 5.85853 5.97831 6.09126C5.56013 6.28762 5.24377 6.63307 5.08377 7.0658C4.92377 7.50217 4.94559 7.97126 5.14195 8.38944C6.02922 10.2949 8.50922 10.4331 9.20377 10.4331ZM5.68377 7.28398C5.78559 7.01126 5.98559 6.78944 6.2474 6.66944C6.39649 6.60035 6.55286 6.56762 6.70922 6.56762C7.03286 6.56762 7.34922 6.71308 7.56377 6.97853C7.65468 7.09489 7.81468 7.13126 7.94559 7.06944C8.08013 7.00762 8.15286 6.86217 8.12377 6.72035C8.02559 6.22217 8.27286 5.72762 8.7274 5.51307C9.27286 5.25853 9.92377 5.49489 10.1783 6.04035C10.9056 7.60398 9.57468 9.36398 9.21468 9.79671C8.65104 9.79671 6.44377 9.68398 5.71649 8.12035C5.59649 7.85489 5.58195 7.55671 5.68377 7.28398Z" fill="#A27E2A"/>
<path d="M1.12017 7.18201C1.01472 6.95655 1.00381 6.70201 1.08744 6.46928C1.17108 6.23656 1.34563 6.04746 1.57108 5.94201L10.8693 1.60746C11.3347 1.38928 11.8911 1.59292 12.1093 2.05837L15.1347 8.54565C15.2074 8.70565 15.3965 8.77474 15.5565 8.69837C15.7165 8.62565 15.7856 8.43655 15.7093 8.27655L12.6838 1.78928C12.3202 1.00746 11.382 0.665645 10.6002 1.02928L1.30199 5.36746C0.923807 5.54565 0.632898 5.85837 0.49108 6.2511C0.349262 6.64383 0.367444 7.06928 0.541989 7.4511L4.28017 15.4656C4.33472 15.582 4.44744 15.6475 4.56744 15.6475C4.61108 15.6475 4.65835 15.6366 4.70199 15.6184C4.86199 15.5456 4.93108 15.3566 4.85472 15.1966L1.12017 7.18201Z" fill="#A27E2A"/>
<path d="M2.604 7.02221L11.0295 3.0913L13.5749 8.54585C13.6476 8.70585 13.8367 8.77494 13.9967 8.69857C14.1567 8.62585 14.2258 8.43676 14.1495 8.27676L11.4731 2.53494C11.4004 2.37494 11.2113 2.30585 11.0513 2.38221L2.044 6.57857C1.88764 6.65494 1.81854 6.84403 1.89127 7.00403L4.40764 12.4004C4.46218 12.5168 4.57491 12.5822 4.69491 12.5822C4.73854 12.5822 4.78582 12.5713 4.82945 12.5531C4.98945 12.4804 5.05854 12.2913 4.98218 12.1313L2.604 7.02221Z" fill="#A27E2A"/>
</g>
<defs>
<clipPath id="clip0_1223_5411">
<rect width="24" height="24" fill="white"/>
</clipPath>
</defs>
</svg>
