<svg width="15" height="15" viewBox="0 0 15 15" fill="none" xmlns="http://www.w3.org/2000/svg">
<path d="M5.13965 0C5.09244 0.00070042 5.04639 0.0147616 5.00684 0.0405427C5.00684 0.0405427 4.80095 0.171938 4.5918 0.376476C4.38265 0.581025 4.14094 0.864849 4.12647 1.24171C4.11768 1.47057 4.22164 1.6271 4.32032 1.79934C4.41899 1.97155 4.5318 2.14207 4.59912 2.26223C4.61863 2.297 4.62162 2.32307 4.60838 2.37697C4.59514 2.43092 4.55829 2.50358 4.51073 2.5708C4.41558 2.70525 4.29295 2.80861 4.29295 2.80861C4.2659 2.82886 4.24323 2.8544 4.22632 2.88367C4.20941 2.91293 4.19861 2.94533 4.19457 2.97888C4.19053 3.01244 4.19334 3.04644 4.20282 3.07888C4.2123 3.11132 4.22826 3.14151 4.24974 3.16761C4.27121 3.19371 4.29775 3.21518 4.32776 3.23073C4.35776 3.24628 4.39061 3.2556 4.42432 3.2581C4.45802 3.2606 4.49188 3.25622 4.52386 3.24526C4.55583 3.23431 4.58525 3.21699 4.61034 3.19434C4.61034 3.19434 4.77666 3.05876 4.91844 2.85841C4.98934 2.75824 5.05847 2.64021 5.09374 2.49661C5.129 2.35301 5.1227 2.17426 5.03465 2.0171C4.95063 1.86715 4.84016 1.70088 4.75389 1.55031C4.66762 1.39975 4.62549 1.24703 4.62498 1.26028C4.63056 1.11507 4.77176 0.899321 4.94041 0.734383C5.10906 0.569444 5.27635 0.461455 5.27635 0.461455C5.32241 0.432376 5.35771 0.389051 5.37689 0.338068C5.39607 0.287084 5.39808 0.231209 5.3826 0.178982C5.36713 0.126755 5.33502 0.0810089 5.29116 0.0487032C5.24731 0.0163974 5.19412 -0.000707587 5.13965 0ZM7.64063 0C7.59275 0.000329546 7.54598 0.0144061 7.50586 0.0405427C7.50586 0.0405427 7.29949 0.171938 7.09033 0.376476C6.88118 0.581025 6.63996 0.864849 6.62549 1.24171C6.6167 1.47057 6.72066 1.6271 6.81934 1.79934C6.91802 1.97155 7.03229 2.14207 7.09961 2.26223C7.11911 2.297 7.12018 2.32307 7.10689 2.37697C7.09364 2.43092 7.05875 2.50358 7.01118 2.5708C6.91604 2.70525 6.79146 2.80861 6.79146 2.80861C6.7644 2.82886 6.74173 2.8544 6.72482 2.88367C6.70791 2.91293 6.69711 2.94533 6.69307 2.97888C6.68903 3.01244 6.69184 3.04644 6.70132 3.07888C6.7108 3.11132 6.72676 3.14151 6.74823 3.16761C6.76971 3.19371 6.79625 3.21518 6.82626 3.23073C6.85627 3.24628 6.88911 3.2556 6.92282 3.2581C6.95652 3.26059 6.99039 3.25625 7.02236 3.24529C7.05433 3.23434 7.08375 3.21699 7.10884 3.19434C7.10884 3.19434 7.27711 3.05876 7.4189 2.85841C7.48979 2.75824 7.55697 2.64021 7.59224 2.49661C7.62751 2.35301 7.62318 2.17426 7.53511 2.0171C7.45109 1.86715 7.33915 1.70088 7.25288 1.55031C7.16662 1.39975 7.12595 1.24703 7.12544 1.26028C7.13102 1.11507 7.27222 0.899321 7.44087 0.734383C7.60952 0.569444 7.77681 0.461455 7.77681 0.461455C7.82283 0.432398 7.85812 0.389117 7.87731 0.338183C7.89649 0.287249 7.89854 0.231442 7.88312 0.179242C7.86771 0.127041 7.83569 0.0812786 7.79191 0.0489339C7.74814 0.0165891 7.69505 -0.00059883 7.64063 0ZM10.1411 0C10.0932 0.000329907 10.0465 0.0144064 10.0063 0.0405427C10.0063 0.0405427 9.79998 0.171938 9.59082 0.376476C9.38167 0.581025 9.14045 0.864849 9.12598 1.24171C9.11719 1.47057 9.22115 1.6271 9.31983 1.79934C9.4185 1.97155 9.53131 2.14208 9.59863 2.26223C9.61814 2.297 9.62113 2.32307 9.6079 2.37697C9.59465 2.43092 9.55732 2.50358 9.50975 2.5708C9.41461 2.70525 9.29197 2.80861 9.29197 2.80861C9.26492 2.82887 9.24226 2.8544 9.22535 2.88367C9.20845 2.91293 9.19765 2.94533 9.19361 2.97888C9.18957 3.01243 9.19238 3.04644 9.20186 3.07888C9.21134 3.11132 9.2273 3.14151 9.24878 3.16761C9.27025 3.19371 9.29679 3.21518 9.32679 3.23073C9.3568 3.24628 9.38964 3.25557 9.42335 3.25807C9.45705 3.26057 9.49091 3.25622 9.52288 3.24526C9.55485 3.23431 9.58427 3.21698 9.60936 3.19434C9.60936 3.19434 9.77616 3.05876 9.91795 2.85841C9.98882 2.75824 10.058 2.64021 10.0932 2.49661C10.1285 2.353 10.1242 2.17426 10.0361 2.0171C9.95212 1.86715 9.83967 1.70088 9.7534 1.55031C9.66714 1.39975 9.62647 1.24703 9.62596 1.26028C9.63153 1.11507 9.77128 0.899321 9.93993 0.734383C10.1086 0.569444 10.2759 0.461455 10.2759 0.461455C10.3218 0.432462 10.357 0.389286 10.3762 0.3385C10.3954 0.287714 10.3976 0.232055 10.3824 0.179934C10.3671 0.127812 10.3354 0.0820873 10.2918 0.0496259C10.2483 0.0171646 10.1954 -0.000275038 10.1411 0ZM7.20069 3.66796C6.60518 3.66785 6.11707 4.15596 6.11719 4.75146C6.11719 4.75129 6.11719 4.75162 6.11719 4.75146C6.11739 4.93678 6.16589 5.11535 6.25244 5.27249C3.11427 5.73229 0.700685 8.43787 0.700685 11.7026C0.700872 11.9772 0.723985 12.2508 0.758789 12.5229C0.440884 12.6 0.201172 12.8878 0.201172 13.228V13.2744C0.201172 13.6726 0.528567 14.0015 0.926759 14.0015H13.4741C13.8723 14.0015 14.2012 13.6726 14.2012 13.2744V13.228C14.2012 12.8864 13.9584 12.5977 13.6382 12.522C13.6744 12.2507 13.699 11.978 13.7007 11.7041C13.7007 11.7035 13.7007 11.7029 13.7007 11.7022C13.7007 8.43746 11.2871 5.73137 8.14893 5.27156C8.23536 5.11465 8.28392 4.93657 8.28418 4.75154C8.28418 4.75138 8.28418 4.75171 8.28418 4.75154C8.2843 4.15604 7.79619 3.66785 7.20069 3.66796ZM7.20069 4.16797C7.52591 4.16791 7.78425 4.42624 7.78418 4.75146C7.78368 4.93767 7.6866 5.1026 7.53858 5.21144C7.42657 5.20577 7.31411 5.20294 7.20069 5.20294C7.08726 5.20294 6.9748 5.20577 6.86279 5.21144C6.71476 5.10244 6.61739 4.93732 6.61719 4.751C6.61739 4.426 6.87563 4.16791 7.20069 4.16797ZM7.20069 5.70265C7.3348 5.70265 7.46988 5.70925 7.60645 5.71823C7.6097 5.71829 7.61296 5.71829 7.61622 5.71823C10.7382 5.93146 13.2004 8.52551 13.2007 11.7021C13.1987 11.97 13.1653 12.2359 13.1279 12.5009H1.26906C1.23321 12.2359 1.20088 11.9702 1.20069 11.7026C1.20069 8.52562 3.66326 5.93124 6.78566 5.71823C6.78858 5.71828 6.79151 5.71828 6.79444 5.71823C6.93118 5.70878 7.0664 5.70265 7.20069 5.70265ZM7.20069 6.25148C7.13497 6.25238 7.07226 6.27912 7.02611 6.32591C6.97996 6.37269 6.95408 6.43577 6.95408 6.50148C6.95408 6.5672 6.97996 6.63028 7.02611 6.67706C7.07226 6.72385 7.13497 6.75056 7.20069 6.75146C7.79502 6.75146 8.35927 6.87433 8.87109 7.09619C9.95386 7.56554 11.089 8.51019 11.4648 9.584C11.4748 9.61609 11.4911 9.64584 11.5128 9.67149C11.5345 9.69714 11.5611 9.71816 11.5911 9.73328C11.6211 9.74841 11.6539 9.75733 11.6874 9.75952C11.7209 9.76171 11.7545 9.75712 11.7863 9.74603C11.818 9.73493 11.8471 9.71754 11.872 9.69493C11.8968 9.67232 11.9168 9.64495 11.9309 9.61442C11.9449 9.58389 11.9526 9.55083 11.9536 9.51725C11.9546 9.48366 11.9488 9.45024 11.9365 9.41895C11.49 8.14334 10.2558 7.15178 9.06983 6.6377C8.51308 6.39636 7.89865 6.26494 7.25586 6.25733C7.23774 6.2534 7.21923 6.25132 7.20069 6.25148ZM0.92676 13.001H1.03125C1.03418 13.0012 1.0371 13.0014 1.04003 13.0015H13.3555C13.3582 13.0014 13.361 13.0012 13.3638 13.001H13.4741C13.604 13.001 13.7007 13.0982 13.7007 13.228V13.2744C13.7007 13.4043 13.604 13.5015 13.4741 13.5015H0.92676C0.79692 13.5015 0.701662 13.4043 0.701662 13.2744V13.228C0.701662 13.0982 0.79692 13.001 0.92676 13.001Z" fill="white"/>
<rect x="-0.0784184" y="13.153" width="14.0219" height="1.4" rx="0.7" transform="rotate(-36.3026 -0.0784184 13.153)" fill="white" stroke="#999999" stroke-width="0.4"/>
</svg>
