<svg width="14" height="14" viewBox="0 0 14 14" fill="none" xmlns="http://www.w3.org/2000/svg">
<path d="M4.93848 0C4.89127 0.00070042 4.84522 0.0147616 4.80567 0.0405427C4.80567 0.0405427 4.59978 0.171938 4.39063 0.376476C4.18148 0.581025 3.93977 0.864849 3.92529 1.24171C3.91651 1.47057 4.02047 1.6271 4.11914 1.79934C4.21782 1.97155 4.33063 2.14207 4.39795 2.26223C4.41745 2.297 4.42045 2.32307 4.40721 2.37697C4.39396 2.43092 4.35712 2.50358 4.30955 2.5708C4.21441 2.70525 4.09178 2.80861 4.09178 2.80861C4.06473 2.82886 4.04206 2.8544 4.02515 2.88367C4.00824 2.91293 3.99744 2.94533 3.9934 2.97888C3.98936 3.01244 3.99217 3.04644 4.00165 3.07888C4.01113 3.11132 4.02709 3.14151 4.04856 3.16761C4.07004 3.19371 4.09658 3.21518 4.12659 3.23073C4.15659 3.24628 4.18944 3.2556 4.22315 3.2581C4.25685 3.2606 4.29071 3.25622 4.32268 3.24526C4.35466 3.23431 4.38408 3.21699 4.40916 3.19434C4.40916 3.19434 4.57548 3.05876 4.71727 2.85841C4.78816 2.75824 4.85729 2.64021 4.89256 2.49661C4.92783 2.35301 4.92153 2.17426 4.83348 2.0171C4.74946 1.86715 4.63899 1.70088 4.55272 1.55031C4.46645 1.39975 4.42432 1.24703 4.42381 1.26028C4.42939 1.11507 4.57059 0.899321 4.73924 0.734383C4.90789 0.569444 5.07518 0.461455 5.07518 0.461455C5.12124 0.432376 5.15654 0.389051 5.17572 0.338068C5.1949 0.287084 5.19691 0.231209 5.18143 0.178982C5.16596 0.126755 5.13385 0.0810089 5.08999 0.0487032C5.04613 0.0163974 4.99295 -0.000707587 4.93848 0ZM7.43946 0C7.39158 0.000329546 7.3448 0.0144061 7.30469 0.0405427C7.30469 0.0405427 7.09831 0.171938 6.88916 0.376476C6.68001 0.581025 6.43879 0.864849 6.42432 1.24171C6.41553 1.47057 6.51949 1.6271 6.61817 1.79934C6.71684 1.97155 6.83112 2.14207 6.89844 2.26223C6.91794 2.297 6.91901 2.32307 6.90571 2.37697C6.89247 2.43092 6.85758 2.50358 6.81001 2.5708C6.71486 2.70525 6.59028 2.80861 6.59028 2.80861C6.56323 2.82886 6.54056 2.8544 6.52365 2.88367C6.50674 2.91293 6.49594 2.94533 6.4919 2.97888C6.48786 3.01244 6.49067 3.04644 6.50015 3.07888C6.50963 3.11132 6.52559 3.14151 6.54706 3.16761C6.56854 3.19371 6.59508 3.21518 6.62509 3.23073C6.65509 3.24628 6.68794 3.2556 6.72165 3.2581C6.75535 3.26059 6.78921 3.25625 6.82119 3.24529C6.85316 3.23434 6.88258 3.21699 6.90767 3.19434C6.90767 3.19434 7.07594 3.05876 7.21773 2.85841C7.28862 2.75824 7.3558 2.64021 7.39107 2.49661C7.42634 2.35301 7.422 2.17426 7.33394 2.0171C7.24992 1.86715 7.13798 1.70088 7.05171 1.55031C6.96545 1.39975 6.92478 1.24703 6.92427 1.26028C6.92985 1.11507 7.07105 0.899321 7.2397 0.734383C7.40835 0.569444 7.57564 0.461455 7.57564 0.461455C7.62166 0.432398 7.65695 0.389117 7.67613 0.338183C7.69532 0.287249 7.69736 0.231442 7.68195 0.179242C7.66654 0.127041 7.63452 0.0812786 7.59074 0.0489339C7.54697 0.0165891 7.49388 -0.00059883 7.43946 0ZM9.93994 0C9.89207 0.000329907 9.84529 0.0144064 9.80518 0.0405427C9.80518 0.0405427 9.59881 0.171938 9.38965 0.376476C9.1805 0.581025 8.93928 0.864849 8.92481 1.24171C8.91602 1.47057 9.01998 1.6271 9.11865 1.79934C9.21733 1.97155 9.33014 2.14208 9.39746 2.26223C9.41697 2.297 9.41996 2.32307 9.40672 2.37697C9.39348 2.43092 9.35614 2.50358 9.30858 2.5708C9.21343 2.70525 9.0908 2.80861 9.0908 2.80861C9.06375 2.82887 9.04109 2.8544 9.02418 2.88367C9.00728 2.91293 8.99648 2.94533 8.99244 2.97888C8.9884 3.01243 8.99121 3.04644 9.00069 3.07888C9.01017 3.11132 9.02613 3.14151 9.0476 3.16761C9.06908 3.19371 9.09562 3.21518 9.12562 3.23073C9.15563 3.24628 9.18847 3.25557 9.22218 3.25807C9.25588 3.26057 9.28974 3.25622 9.32171 3.24526C9.35368 3.23431 9.3831 3.21698 9.40819 3.19434C9.40819 3.19434 9.57499 3.05876 9.71678 2.85841C9.78765 2.75824 9.85681 2.64021 9.89207 2.49661C9.92732 2.353 9.92301 2.17426 9.83495 2.0171C9.75095 1.86715 9.6385 1.70088 9.55223 1.55031C9.46596 1.39975 9.4253 1.24703 9.42479 1.26028C9.43036 1.11507 9.57011 0.899321 9.73875 0.734383C9.90741 0.569444 10.0747 0.461455 10.0747 0.461455C10.1206 0.432462 10.1558 0.389286 10.175 0.3385C10.1943 0.287714 10.1964 0.232055 10.1812 0.179934C10.166 0.127812 10.1342 0.0820873 10.0907 0.0496259C10.0471 0.0171646 9.99424 -0.000275038 9.93994 0ZM6.99951 3.66796C6.40401 3.66785 5.9159 4.15596 5.91602 4.75146C5.91602 4.75129 5.91602 4.75162 5.91602 4.75146C5.91621 4.93678 5.96472 5.11535 6.05127 5.27249C2.9131 5.73229 0.499513 8.43787 0.499513 11.7026C0.4997 11.9772 0.522813 12.2508 0.557618 12.5229C0.239713 12.6 0 12.8878 0 13.228V13.2744C0 13.6726 0.327395 14.0015 0.725588 14.0015H13.273C13.6711 14.0015 14 13.6726 14 13.2744V13.228C14 12.8864 13.7572 12.5977 13.437 12.522C13.4732 12.2507 13.4978 11.978 13.4995 11.7041C13.4995 11.7035 13.4995 11.7029 13.4995 11.7022C13.4995 8.43746 11.0859 5.73137 7.94776 5.27156C8.03419 5.11465 8.08275 4.93657 8.08301 4.75154C8.08301 4.75138 8.08301 4.75171 8.08301 4.75154C8.08313 4.15604 7.59502 3.66785 6.99951 3.66796ZM6.99951 4.16797C7.32473 4.16791 7.58308 4.42624 7.58301 4.75146C7.58251 4.93767 7.48543 5.1026 7.3374 5.21144C7.2254 5.20577 7.11294 5.20294 6.99951 5.20294C6.88609 5.20294 6.77363 5.20577 6.66162 5.21144C6.51358 5.10244 6.41622 4.93732 6.41602 4.751C6.41622 4.426 6.67446 4.16791 6.99951 4.16797ZM6.99951 5.70265C7.13363 5.70265 7.2687 5.70925 7.40528 5.71823C7.40853 5.71829 7.41179 5.71829 7.41505 5.71823C10.5371 5.93146 12.9993 8.52551 12.9995 11.7021C12.9975 11.97 12.9642 12.2359 12.9268 12.5009H1.06788C1.03204 12.2359 0.999713 11.9702 0.999523 11.7026C0.999523 8.52562 3.46208 5.93124 6.58448 5.71823C6.58741 5.71828 6.59034 5.71828 6.59327 5.71823C6.73001 5.70878 6.86523 5.70265 6.99951 5.70265ZM6.99951 6.25148C6.9338 6.25238 6.87109 6.27912 6.82494 6.32591C6.77879 6.37269 6.75291 6.43577 6.75291 6.50148C6.75291 6.5672 6.77879 6.63028 6.82494 6.67706C6.87109 6.72385 6.9338 6.75056 6.99951 6.75146C7.59385 6.75146 8.1581 6.87433 8.66992 7.09619C9.75268 7.56554 10.8878 8.51019 11.2637 9.584C11.2736 9.61609 11.2899 9.64584 11.3116 9.67149C11.3333 9.69714 11.36 9.71816 11.39 9.73328C11.42 9.74841 11.4527 9.75733 11.4862 9.75952C11.5197 9.76171 11.5534 9.75712 11.5851 9.74603C11.6168 9.73493 11.6459 9.71754 11.6708 9.69493C11.6956 9.67232 11.7157 9.64495 11.7297 9.61442C11.7437 9.58389 11.7515 9.55083 11.7524 9.51725C11.7534 9.48366 11.7476 9.45024 11.7354 9.41895C11.2888 8.14334 10.0546 7.15178 8.86865 6.6377C8.31191 6.39636 7.69748 6.26494 7.05469 6.25733C7.03657 6.2534 7.01806 6.25132 6.99951 6.25148ZM0.725588 13.001H0.830081C0.833003 13.0012 0.83593 13.0014 0.838858 13.0015H13.1543C13.1571 13.0014 13.1598 13.0012 13.1626 13.001H13.273C13.4028 13.001 13.4995 13.0982 13.4995 13.228V13.2744C13.4995 13.4043 13.4028 13.5015 13.273 13.5015H0.725588C0.595748 13.5015 0.50049 13.4043 0.50049 13.2744V13.228C0.50049 13.0982 0.595748 13.001 0.725588 13.001Z" fill="white"/>
</svg>
