<svg width="26" height="26" viewBox="0 0 26 26" fill="none" xmlns="http://www.w3.org/2000/svg">
<path fill-rule="evenodd" clip-rule="evenodd" d="M16.1099 21.892C15.0262 22.451 13.5567 22.8354 11.9469 23.0339C9.02864 23.3937 5.64981 23.1512 3.34045 22.3162C1.54997 21.6689 0.404541 20.6381 0.404541 19.3291C0.404541 14.4522 4.35782 10.4976 9.2348 10.4976C12.1181 10.4976 14.6791 11.8797 16.2909 14.0176C16.313 13.5276 16.5769 13.0587 17.0328 12.7954C17.4957 12.5282 18.0433 12.5383 18.4821 12.7745C18.4825 12.7747 18.4829 12.7749 18.4833 12.7751C18.5309 12.8009 18.5903 12.785 18.6186 12.7389C18.6188 12.7385 18.619 12.7381 18.6192 12.7378C18.8812 12.3138 19.3503 12.0312 19.8849 12.0312C20.4193 12.0312 20.8885 12.3138 21.1505 12.7377C21.1507 12.7381 21.1509 12.7385 21.1512 12.7389C21.1794 12.785 21.2389 12.8009 21.2864 12.7751C21.2868 12.7749 21.2872 12.7747 21.2875 12.7745C21.7264 12.5383 22.274 12.5282 22.7369 12.7954C23.1998 13.0627 23.4648 13.5419 23.4796 14.0401C23.4797 14.0405 23.4797 14.041 23.4797 14.0414C23.4811 14.0955 23.5246 14.139 23.5787 14.1405H23.58C24.0782 14.1553 24.5574 14.4203 24.8247 14.8832C25.0919 15.3461 25.0818 15.8937 24.8456 16.3326C24.8454 16.3329 24.8452 16.3333 24.845 16.3337C24.8192 16.3812 24.8351 16.4407 24.8812 16.469C24.8816 16.4692 24.882 16.4694 24.8823 16.4696C25.3063 16.7316 25.5889 17.2007 25.5889 17.7352C25.5889 18.2698 25.3063 18.7389 24.8824 19.0009C24.882 19.0011 24.8816 19.0013 24.8812 19.0016C24.8351 19.0298 24.8192 19.0893 24.845 19.1368C24.8452 19.1372 24.8454 19.1376 24.8456 19.138C25.0818 19.5768 25.0919 20.1243 24.8247 20.5873C24.5574 21.0502 24.0782 21.3152 23.58 21.3301C23.5796 21.3301 23.5792 21.3301 23.5787 21.3301C23.5246 21.3315 23.4811 21.375 23.4796 21.4291V21.4304C23.4783 21.4748 23.475 21.519 23.4698 21.5629L24.6766 23.6529C24.7467 23.7744 24.7392 23.9257 24.6573 24.0397C24.5755 24.1536 24.4345 24.209 24.297 24.1812L22.771 23.8734L22.2752 25.3489C22.2305 25.4818 22.112 25.5763 21.9724 25.5902C21.8328 25.6042 21.698 25.5351 21.6278 25.4136L20.4285 23.3367C20.26 23.4029 20.0767 23.4393 19.8849 23.4393C19.693 23.4393 19.5096 23.4029 19.3413 23.3367L18.1418 25.4136C18.0717 25.5351 17.9369 25.6042 17.7973 25.5902C17.6577 25.5763 17.5392 25.4818 17.4945 25.3489L16.9988 23.8734L15.4727 24.1812C15.3352 24.209 15.1942 24.1536 15.1124 24.0397C15.0305 23.9257 15.023 23.7744 15.0931 23.6529L16.1099 21.892ZM15.5945 14.2838C14.1072 12.4119 11.811 11.2113 9.2348 11.2113C4.75195 11.2113 1.11827 14.8463 1.11827 19.3291C1.11827 19.8228 1.35385 20.2494 1.74859 20.6184C2.19125 21.0321 2.8258 21.3713 3.58312 21.6451C5.80372 22.4479 9.05347 22.6715 11.8595 22.3255C13.3782 22.1383 14.7671 21.7872 15.7814 21.2603C15.4406 21.1519 15.1377 20.9211 14.945 20.5873C14.6778 20.1244 14.6879 19.5768 14.9241 19.138C14.9243 19.1376 14.9245 19.1372 14.9247 19.1368C14.9505 19.0892 14.9346 19.0298 14.8884 19.0015C14.8881 19.0013 14.8877 19.0011 14.8874 19.0009C14.4634 18.7389 14.1808 18.2698 14.1808 17.7352C14.1808 17.2008 14.4634 16.7316 14.8873 16.4696C14.8877 16.4694 14.8881 16.4692 14.8884 16.4689C14.9346 16.4407 14.9505 16.3812 14.9247 16.3337C14.9245 16.3333 14.9243 16.3329 14.9241 16.3326C14.6879 15.8937 14.6778 15.3461 14.945 14.8832C15.1016 14.612 15.3311 14.4087 15.5945 14.2838ZM23.1109 22.3687C23.0065 22.4876 22.8813 22.5917 22.7369 22.6751C22.274 22.9423 21.7264 22.9322 21.2875 22.696C21.2872 22.6958 21.2868 22.6956 21.2864 22.6954C21.2389 22.6696 21.1794 22.6855 21.1511 22.7317C21.1509 22.732 21.1507 22.7324 21.1505 22.7327C21.1094 22.7992 21.0633 22.8621 21.0127 22.9211L21.8505 24.3719L22.1947 23.3477C22.2519 23.1772 22.4272 23.0759 22.6035 23.1115L23.6632 23.3253L23.1109 22.3687ZM18.7571 22.9211C18.7064 22.8621 18.6603 22.7992 18.6192 22.7328C18.619 22.7324 18.6188 22.732 18.6185 22.7317C18.5903 22.6855 18.5308 22.6696 18.4833 22.6954C18.4829 22.6956 18.4825 22.6958 18.4821 22.696C18.0433 22.9322 17.4958 22.9423 17.0328 22.6751C16.8883 22.5917 16.7631 22.4876 16.6588 22.3687L16.1065 23.3253L17.1662 23.1115C17.3425 23.0759 17.5177 23.1772 17.575 23.3477L17.9192 24.3719L18.7571 22.9211ZM21.6259 13.4029C21.2452 13.6089 20.7699 13.4815 20.5432 13.1128C20.4069 12.8923 20.163 12.745 19.8849 12.745C19.6067 12.745 19.3628 12.8923 19.2265 13.1128C18.9998 13.4815 18.5245 13.6089 18.1438 13.4029C17.9154 13.2801 17.6306 13.2745 17.3897 13.4135C17.1488 13.5526 17.0113 13.8022 17.0035 14.0613C16.9915 14.494 16.6435 14.8419 16.2109 14.8539C15.9517 14.8616 15.7022 14.9993 15.5631 15.2401C15.4241 15.481 15.4296 15.7659 15.5525 15.9942C15.7585 16.3749 15.6311 16.8502 15.2624 17.0769C15.0418 17.2132 14.8945 17.4571 14.8945 17.7352C14.8945 18.0134 15.0418 18.2573 15.2624 18.3936C15.6311 18.6203 15.7585 19.0956 15.5525 19.4763C15.4296 19.7047 15.4241 19.9895 15.5631 20.2304C15.7022 20.4713 15.9517 20.6088 16.2109 20.6166C16.6435 20.6286 16.9915 20.9766 17.0035 21.4092C17.0113 21.6684 17.1488 21.9179 17.3897 22.057C17.6306 22.196 17.9154 22.1905 18.1438 22.0676C18.5245 21.8616 18.9997 21.989 19.2265 22.3577C19.3628 22.5783 19.6067 22.7256 19.8849 22.7256C20.163 22.7256 20.4069 22.5783 20.5432 22.3577C20.7699 21.989 21.2452 21.8616 21.6258 22.0676C21.8542 22.1905 22.1391 22.196 22.38 22.057C22.6208 21.9179 22.7585 21.6684 22.7662 21.4092C22.7782 20.9766 23.1261 20.6286 23.5588 20.6166C23.8179 20.6088 24.0675 20.4713 24.2066 20.2304C24.3456 19.9895 24.34 19.7047 24.2172 19.4763C24.0112 19.0956 24.1386 18.6204 24.5073 18.3936C24.7278 18.2573 24.8751 18.0134 24.8751 17.7352C24.8751 17.4571 24.7278 17.2132 24.5073 17.0769C24.1386 16.8502 24.0112 16.3749 24.2172 15.9943C24.34 15.7659 24.3456 15.481 24.2066 15.2401C24.0675 14.9993 23.8179 14.8616 23.5588 14.8539C23.1261 14.8419 22.7782 14.494 22.7662 14.0613C22.7585 13.8022 22.6209 13.5526 22.38 13.4135C22.1391 13.2745 21.8542 13.2801 21.6259 13.4029ZM19.8852 21.0721C18.0473 21.0721 16.548 19.5728 16.548 17.7349C16.548 15.8978 18.0473 14.3985 19.8852 14.3985C21.7223 14.3985 23.2216 15.8978 23.2216 17.7349C23.2216 19.5728 21.7223 21.0721 19.8852 21.0721ZM19.8852 20.3583C21.3294 20.3583 22.5079 19.1797 22.5079 17.7349C22.5079 16.2908 21.3293 15.1122 19.8852 15.1122C18.4404 15.1122 17.2618 16.2907 17.2618 17.7349C17.2618 19.1797 18.4404 20.3583 19.8852 20.3583ZM18.3732 17.8745C18.226 17.7435 18.2128 17.5178 18.3437 17.3706C18.4746 17.2235 18.7003 17.2102 18.8475 17.3412L19.5782 17.9911L20.9151 16.7359C21.0587 16.6011 21.2847 16.6082 21.4195 16.7518C21.5543 16.8953 21.5472 17.1214 21.4036 17.2562L19.829 18.7347C19.6944 18.861 19.4856 18.8638 19.3476 18.7411L18.3732 17.8745ZM13.509 4.68059C13.509 7.04169 11.5959 8.95478 9.2348 8.95478C6.87507 8.95478 4.96193 7.04174 4.96193 4.68059C4.96193 2.32086 6.87507 0.407715 9.2348 0.407715C11.596 0.407715 13.509 2.32086 13.509 4.68059ZM12.7953 4.68059C12.7953 2.71499 11.2016 1.12144 9.2348 1.12144C7.2692 1.12144 5.67566 2.71499 5.67566 4.68059C5.67566 6.64741 7.2692 8.24106 9.2348 8.24106C11.2016 8.24106 12.7953 6.64741 12.7953 4.68059ZM17.2376 3.97955L17.8767 5.60308L19.6184 5.70993C19.7648 5.7189 19.8907 5.81648 19.9359 5.95591C19.9812 6.09539 19.9366 6.24833 19.8234 6.34153L18.4764 7.45122L18.9141 9.14035C18.9509 9.28228 18.8971 9.43226 18.7785 9.51847C18.6599 9.60473 18.5006 9.60962 18.377 9.53086L16.9054 8.59369L15.4328 9.53091C15.3091 9.60962 15.1499 9.60468 15.0313 9.51847C14.9127 9.43221 14.859 9.28223 14.8957 9.14035L15.3334 7.45122L13.9864 6.34153C13.8733 6.24833 13.8286 6.09539 13.8739 5.95591C13.9192 5.81648 14.0451 5.7189 14.1915 5.70993L15.9333 5.60302L16.5735 3.97935C16.6273 3.84298 16.759 3.75335 16.9056 3.75341C17.0522 3.75346 17.1839 3.84313 17.2376 3.97955ZM16.9053 5.08379L16.5139 6.07622C16.4631 6.20521 16.3421 6.29304 16.2038 6.30151L15.1396 6.36681L15.9628 7.045C16.07 7.13325 16.1162 7.27564 16.0814 7.40997L15.8139 8.44238L16.7139 7.86956C16.8308 7.79513 16.9803 7.79518 17.0972 7.86961L17.9958 8.44197L17.7284 7.40997C17.6936 7.27564 17.7399 7.13325 17.847 7.045L18.6703 6.36681L17.606 6.30151C17.4676 6.29304 17.3467 6.2051 17.2959 6.07607L16.9053 5.08379ZM23.5315 7.15935L23.9957 8.33838L25.2605 8.41597C25.4069 8.42499 25.5328 8.52252 25.5781 8.662C25.6234 8.80143 25.5788 8.95437 25.4656 9.04762L24.4874 9.85346L24.8052 11.0801C24.842 11.222 24.7883 11.3721 24.6696 11.4583C24.551 11.5445 24.3918 11.5494 24.2681 11.4706L23.1994 10.79L22.1299 11.4707C22.0062 11.5494 21.8469 11.5445 21.7284 11.4582C21.6098 11.372 21.5561 11.222 21.5928 11.0801L21.9107 9.85346L20.9325 9.04762C20.8193 8.95437 20.7747 8.80143 20.8199 8.662C20.8652 8.52252 20.9911 8.42499 21.1375 8.41597L22.4025 8.33838L22.8675 7.15915C22.9213 7.02278 23.053 6.93315 23.1996 6.93321C23.3462 6.93326 23.4778 7.02293 23.5315 7.15935ZM23.1992 8.26359L22.9831 8.81158C22.9323 8.94051 22.8113 9.02835 22.673 9.03686L22.0856 9.0729L22.5401 9.44725C22.6472 9.5355 22.6935 9.67789 22.6587 9.81222L22.511 10.3821L23.0079 10.0659C23.1248 9.99147 23.2742 9.99152 23.3911 10.066L23.887 10.3817L23.7394 9.81222C23.7046 9.67789 23.7509 9.5355 23.858 9.44725L24.3124 9.0729L23.7251 9.03686C23.5866 9.02835 23.4656 8.9404 23.4148 8.81137L23.1992 8.26359ZM21.4917 0.735825L21.8123 1.55008L22.6858 1.60366C22.8322 1.61264 22.9582 1.71021 23.0034 1.8497C23.0487 1.98913 23.004 2.14207 22.8909 2.23531L22.2154 2.79181L22.4349 3.6389C22.4717 3.78088 22.4179 3.93087 22.2992 4.01708C22.1807 4.10328 22.0214 4.10823 21.8977 4.02941L21.1596 3.55937L20.4209 4.02951C20.2972 4.10823 20.138 4.10328 20.0194 4.01702C19.9008 3.93082 19.8471 3.78083 19.8838 3.6389L20.1034 2.79181L19.4278 2.23531C19.3146 2.14207 19.27 1.98913 19.3153 1.8497C19.3606 1.71021 19.4865 1.61264 19.6329 1.60366L20.5066 1.55008L20.8277 0.735621C20.8815 0.599248 21.0132 0.509625 21.1598 0.509676C21.3063 0.509727 21.438 0.599401 21.4917 0.735825ZM21.1594 1.84006L21.0872 2.02323C21.0364 2.15221 20.9154 2.24005 20.7771 2.24857L20.581 2.2606L20.7328 2.38565C20.8399 2.4739 20.8862 2.61624 20.8514 2.75057L20.802 2.94093L20.9681 2.83525C21.085 2.76082 21.2345 2.76087 21.3514 2.8353L21.5166 2.94052L21.4674 2.75057C21.4326 2.61624 21.4788 2.4739 21.5859 2.38565L21.7377 2.2606L21.5417 2.24857C21.4032 2.24005 21.2822 2.15211 21.2315 2.02308L21.1594 1.84006Z" fill="#513F15"/>
</svg>
