<svg width="12" height="12" viewBox="0 0 12 12" fill="none" xmlns="http://www.w3.org/2000/svg">
<g clip-path="url(#clip0_1079_3387)">
<path d="M1.94243 7.29192C2.02252 7.34552 2.11308 7.37114 2.20268 7.37114C2.35385 7.37114 2.50228 7.29811 2.59268 7.16304C3.35011 6.0312 4.61627 5.35547 5.97966 5.35547C7.33901 5.35547 8.60309 6.0281 9.36105 7.15477C9.50559 7.36957 9.79685 7.42655 10.0116 7.28203C10.2264 7.13752 10.2834 6.84623 10.1389 6.63145C9.5333 5.73131 8.66503 5.06712 7.67283 4.7118C8.26786 4.22573 8.64844 3.48659 8.64844 2.66016C8.64844 1.19979 7.46037 0.0117188 6 0.0117188C4.53963 0.0117188 3.35156 1.19979 3.35156 2.66016C3.35156 3.48066 3.72661 4.21516 4.31428 4.70135C3.30656 5.05535 2.42524 5.72759 1.81355 6.64165C1.66957 6.8568 1.72727 7.14795 1.94243 7.29192ZM6 0.949219C6.94341 0.949219 7.71094 1.71675 7.71094 2.66016C7.71094 3.60356 6.94341 4.37109 6 4.37109C5.05659 4.37109 4.28906 3.60356 4.28906 2.66016C4.28906 1.71675 5.05659 0.949219 6 0.949219ZM7.86933 8.31164L7.17052 8.81576C7.06655 8.89076 7.02302 9.02372 7.06275 9.14508L7.34416 9.96075C7.35605 9.99708 7.36062 10.0326 7.35909 10.0664C7.34913 10.2855 7.07456 10.4353 6.87319 10.2901L6.1744 9.78581C6.12241 9.74831 6.06122 9.72956 6.00002 9.72956C5.93883 9.72956 5.87763 9.74831 5.82565 9.78581L5.12686 10.2901C4.92548 10.4353 4.6496 10.2855 4.64088 10.0664C4.63955 10.0326 4.64423 9.99706 4.65612 9.96075L4.93727 9.14508C4.977 9.02372 4.93348 8.89076 4.82951 8.81576L4.1307 8.31164C3.8982 8.14392 4.01768 7.74609 4.30507 7.74609H5.16884C5.29737 7.74609 5.41127 7.69662 5.45098 7.57526L5.71788 6.75431C5.7623 6.61863 5.88115 6.55078 6.00002 6.55078C6.1189 6.55078 6.23775 6.61863 6.28216 6.75431L6.54907 7.57526C6.5888 7.69662 6.70268 7.74609 6.83121 7.74609H7.69498C7.98234 7.74609 8.10183 8.14392 7.86933 8.31164ZM11.8771 9.95227L11.1783 10.4564C11.0744 10.5314 11.0308 10.6643 11.0706 10.7857L11.352 11.6014C11.3639 11.6377 11.3684 11.6732 11.3669 11.707C11.3569 11.9261 11.0824 12.076 10.881 11.9307L10.1822 11.4264C10.1302 11.3889 10.069 11.3702 10.0078 11.3702C9.94664 11.3702 9.88545 11.3889 9.83346 11.4264L9.13467 11.9307C8.9333 12.076 8.65741 11.9261 8.64869 11.707C8.64736 11.6732 8.65205 11.6377 8.66393 11.6014L8.94509 10.7857C8.98481 10.6643 8.94129 10.5314 8.83732 10.4564L8.13851 9.95227C7.90601 9.78455 8.02549 9.38672 8.31288 9.38672H9.17665C9.30518 9.38672 9.41909 9.33724 9.45879 9.21588L9.7257 8.39494C9.77011 8.25926 9.88896 8.19141 10.0078 8.19141C10.1267 8.19141 10.2456 8.25926 10.29 8.39494L10.5569 9.21588C10.5966 9.33724 10.7105 9.38672 10.839 9.38672H11.7028C11.9902 9.38672 12.1096 9.78455 11.8771 9.95227ZM3.86152 9.95227L3.1627 10.4564C3.05873 10.5314 3.01521 10.6643 3.05494 10.7857L3.33635 11.6014C3.34823 11.6377 3.3528 11.6732 3.35128 11.707C3.34132 11.9261 3.06675 12.076 2.86538 11.9307L2.16656 11.4264C2.11458 11.3889 2.05338 11.3702 1.99219 11.3702C1.93099 11.3702 1.8698 11.3889 1.81781 11.4264L1.11902 11.9307C0.917648 12.076 0.641766 11.9261 0.633047 11.707C0.631711 11.6732 0.636398 11.6377 0.648281 11.6014L0.929437 10.7857C0.969164 10.6643 0.925641 10.5314 0.821672 10.4564L0.122859 9.95227C-0.109641 9.78455 0.00984373 9.38672 0.297234 9.38672H1.161C1.28953 9.38672 1.40344 9.33724 1.44314 9.21588L1.71005 8.39494C1.75446 8.25926 1.87331 8.19141 1.99219 8.19141C2.11106 8.19141 2.22991 8.25926 2.27433 8.39494L2.54123 9.21588C2.58096 9.33724 2.69484 9.38672 2.82337 9.38672H3.68714C3.97453 9.38672 4.09402 9.78455 3.86152 9.95227Z" fill="#795E20"/>
</g>
<defs>
<clipPath id="clip0_1079_3387">
<rect width="12" height="12" fill="white"/>
</clipPath>
</defs>
</svg>
