<svg width="16" height="16" viewBox="0 0 16 16" fill="none" xmlns="http://www.w3.org/2000/svg">
<g clip-path="url(#clip0_1741_8252)">
<path d="M14.9714 15.4516C15.0628 15.4516 15.1543 15.383 15.1543 15.2687C15.1543 15.1545 15.0857 15.0859 14.9714 15.0859H13.4857V12.5716C13.4857 12.183 13.2343 11.8402 12.8457 11.703C11.5428 11.2916 15.2228 12.4802 9.62285 10.6516V9.87445C10.2628 9.39445 10.6971 8.66302 10.7657 7.81731C11.2228 7.74874 11.5886 7.33731 11.5886 6.85731C11.5886 6.53731 11.4286 6.26302 11.2 6.08016C11.2 6.03445 11.2228 5.98874 11.2 5.96588L10.88 5.34874C11.7257 5.14302 12.32 4.41159 12.32 3.52016C12.32 2.24016 11.04 1.34874 9.85142 1.73731C9.53142 1.00588 8.79999 0.525879 7.97713 0.525879C7.15427 0.525879 6.4457 1.00588 6.10285 1.73731C5.91999 1.66874 5.71427 1.64588 5.50856 1.64588C4.47999 1.64588 3.63427 2.49159 3.63427 3.52016C3.63427 4.38874 4.22856 5.14302 5.07427 5.34874L4.75427 5.96588C4.73142 6.01159 4.73142 6.05731 4.75427 6.08016C4.5257 6.26302 4.38856 6.53731 4.38856 6.85731C4.38856 7.33731 4.75427 7.74874 5.21142 7.81731C5.25713 8.59445 5.6457 9.34874 6.35427 9.87445V10.6516C0.754274 12.4573 4.41142 11.2687 3.10856 11.703C2.7657 11.8402 2.51427 12.183 2.51427 12.5716V15.1087H1.02856C0.937132 15.1087 0.845703 15.1773 0.845703 15.2916C0.845703 15.4059 0.914275 15.4744 1.02856 15.4744H14.9714V15.4516ZM13.1428 12.5716V15.1087H7.7257V12.4802C8.18285 12.5259 8.50285 12.4573 8.47999 12.4573C9.69142 12.2745 10.2628 11.5202 10.4914 11.3373C10.4914 11.3373 10.4914 11.3145 10.5143 11.3145L12.7771 12.0459C12.9828 12.1145 13.1428 12.3202 13.1428 12.5716ZM10.1257 11.2002C9.9657 11.3145 9.53142 11.8859 8.61713 12.0916V11.4973C8.63999 11.4973 9.07427 11.383 9.50856 10.9945L10.1257 11.2002ZM7.7257 12.1373V11.5659C7.93142 11.5887 8.06856 11.5887 8.27427 11.5659V12.1373C8.09142 12.1602 7.95427 12.1602 7.7257 12.1373ZM6.49142 10.9945C6.83427 11.3145 7.10856 11.383 7.38285 11.4973V12.0916C6.46856 11.8859 5.91999 11.2459 5.87427 11.2002L6.49142 10.9945ZM5.39427 5.87445H5.23427L5.4857 5.39445H10.56L10.8114 5.87445H10.6514H5.39427ZM10.7886 7.49731V6.26302C11.0628 6.33159 11.2686 6.58302 11.2686 6.88017C11.2457 7.15445 11.0628 7.40588 10.7886 7.49731ZM3.99999 3.54302C3.99999 2.69731 4.6857 2.01159 5.53142 2.01159C5.75999 2.01159 5.9657 2.05731 6.14856 2.14874C6.19427 2.17159 6.23999 2.17159 6.2857 2.14874C6.33142 2.12588 6.35427 2.10302 6.37713 2.05731C6.6057 1.37159 7.2457 0.91445 7.97713 0.91445C8.70856 0.91445 9.34856 1.37159 9.57713 2.05731C9.59999 2.14874 9.71427 2.19445 9.8057 2.14874C10.7886 1.69159 11.9543 2.42302 11.9543 3.54302C11.9543 4.32016 11.3828 4.96017 10.6286 5.05159H5.34856C4.57142 4.96017 3.99999 4.29731 3.99999 3.54302ZM5.21142 7.49731C4.93713 7.42874 4.73142 7.17731 4.73142 6.88017C4.73142 6.58302 4.93713 6.33159 5.21142 6.26302V7.49731ZM5.55427 7.63445V6.21731H10.4228V7.63445C10.4228 8.77731 9.6457 9.73731 8.57142 9.98874C6.87999 10.3773 5.55427 9.09731 5.55427 7.63445ZM8.57142 10.3545C8.82285 10.3087 9.05142 10.2402 9.27999 10.1259V10.7202C8.54856 11.4059 7.42856 11.383 6.69713 10.7202V10.1259C7.22285 10.3773 7.93142 10.4916 8.57142 10.3545ZM2.85713 12.5716C2.85713 12.3202 3.01713 12.1145 3.2457 12.0459L5.50856 11.3145C5.6457 11.4287 6.19427 12.2059 7.38285 12.4345V15.1087H2.85713V12.5716Z" fill="#141005"/>
<path d="M14.24 13.4175C14.3314 13.4175 14.4228 13.349 14.4228 13.2347V12.5718C14.4228 11.7947 13.92 11.0861 13.1657 10.8347L12.5714 10.6518C12.48 10.629 12.3885 10.6747 12.3657 10.7661C12.3428 10.8575 12.3885 10.949 12.48 10.9718L13.0743 11.1547C13.6914 11.3604 14.1028 11.9318 14.1028 12.549V13.2118C14.0571 13.3261 14.1485 13.4175 14.24 13.4175Z" fill="#141005"/>
<path d="M11.4056 10.2861C11.3142 10.2632 11.2228 10.309 11.1999 10.4004C11.1771 10.4918 11.2228 10.5832 11.3142 10.6061L11.5885 10.6975H11.6342C11.7028 10.6975 11.7713 10.6518 11.7942 10.5832C11.8171 10.4918 11.7713 10.4004 11.6799 10.3775L11.4056 10.2861Z" fill="#141005"/>
<path d="M3.58862 12.5259C3.49719 12.5259 3.40576 12.5945 3.40576 12.7087V13.463C3.40576 13.5545 3.47433 13.6459 3.58862 13.6459C3.7029 13.6459 3.77148 13.5773 3.77148 13.463V12.7087C3.77148 12.6173 3.68005 12.5259 3.58862 12.5259Z" fill="#141005"/>
<path d="M3.58862 14.0347C3.49719 14.0347 3.40576 14.1032 3.40576 14.2175V14.3775C3.40576 14.469 3.47433 14.5604 3.58862 14.5604C3.7029 14.5604 3.77148 14.4918 3.77148 14.3775V14.2175C3.77148 14.1032 3.68005 14.0347 3.58862 14.0347Z" fill="#141005"/>
<path d="M5.1428 9.71451C5.21137 9.66879 5.23423 9.55451 5.18852 9.48594C5.02852 9.23451 4.89137 8.93736 4.79995 8.66308C4.77709 8.57165 4.68566 8.52594 4.59423 8.54879C4.5028 8.57165 4.45709 8.66308 4.47995 8.75451C4.57137 9.07451 4.73137 9.39451 4.91423 9.66879C4.95995 9.73736 5.05137 9.76022 5.1428 9.71451Z" fill="#141005"/>
<path d="M5.62289 10.24C5.69146 10.1714 5.69146 10.0571 5.62289 9.98856C5.60004 9.9657 5.57718 9.94285 5.55432 9.89713C5.48575 9.82856 5.37146 9.82856 5.30289 9.89713C5.23432 9.9657 5.23432 10.08 5.30289 10.1486C5.32575 10.1714 5.37146 10.2171 5.39432 10.24C5.46289 10.3086 5.55432 10.3086 5.62289 10.24Z" fill="#141005"/>
<path d="M6.30851 7.15434C6.23994 7.22291 6.23994 7.3372 6.30851 7.40577C6.37708 7.47434 6.49137 7.47434 6.55994 7.40577C6.67422 7.29148 6.85708 7.29148 6.97137 7.40577C7.03994 7.47434 7.15422 7.47434 7.22279 7.40577C7.29137 7.3372 7.29137 7.22291 7.22279 7.15434C6.94851 6.92577 6.55994 6.92577 6.30851 7.15434Z" fill="#141005"/>
<path d="M9.02854 7.40582C9.14282 7.29154 9.32568 7.29154 9.43996 7.40582C9.50853 7.47439 9.62282 7.47439 9.69139 7.40582C9.75996 7.33725 9.75996 7.22296 9.69139 7.15439C9.43996 6.90296 9.05139 6.90296 8.79996 7.15439C8.73139 7.22296 8.73139 7.33725 8.79996 7.40582C8.86854 7.47439 8.95996 7.47439 9.02854 7.40582Z" fill="#141005"/>
<path d="M8.5713 9.09729C8.63987 9.02872 8.63987 8.91443 8.5713 8.84586C8.50273 8.77729 8.38844 8.77729 8.31987 8.84586C8.13701 9.02872 7.83987 9.02872 7.63416 8.84586C7.56559 8.77729 7.4513 8.77729 7.38273 8.84586C7.31416 8.91443 7.31416 9.02872 7.38273 9.09729C7.74844 9.41729 8.2513 9.41729 8.5713 9.09729Z" fill="#141005"/>
<path d="M8 8.38896C8.09142 8.38896 8.18285 8.32039 8.18285 8.2061V7.79467C8.18285 7.70324 8.11428 7.61182 8 7.61182C7.88571 7.61182 7.81714 7.68039 7.81714 7.79467V8.22896C7.81714 8.32039 7.90857 8.38896 8 8.38896Z" fill="#141005"/>
<path d="M8.29714 12.8687H8.18286C8.09143 12.8687 8 12.9372 8 13.0515C8 13.1658 8.06857 13.2344 8.18286 13.2344H8.29714C8.38857 13.2344 8.48 13.1658 8.48 13.0515C8.48 12.9372 8.38857 12.8687 8.29714 12.8687Z" fill="#141005"/>
<path d="M8.29714 13.6001H8.18286C8.09143 13.6001 8 13.6687 8 13.783C8 13.8972 8.06857 13.9658 8.18286 13.9658H8.29714C8.38857 13.9658 8.48 13.8972 8.48 13.783C8.48 13.6687 8.38857 13.6001 8.29714 13.6001Z" fill="#141005"/>
<path d="M8.29714 14.3545H8.18286C8.09143 14.3545 8 14.4231 8 14.5373C8 14.6516 8.06857 14.7202 8.18286 14.7202H8.29714C8.38857 14.7202 8.48 14.6516 8.48 14.5373C8.48 14.4231 8.38857 14.3545 8.29714 14.3545Z" fill="#141005"/>
<path d="M10.4458 2.92577H10.4687C10.8344 2.92577 11.1315 3.24577 11.0858 3.61149C11.0858 3.70292 11.1315 3.79434 11.2458 3.79434H11.2687C11.3601 3.79434 11.4287 3.72577 11.4287 3.63434C11.4972 3.06292 11.0401 2.56006 10.4687 2.56006H10.4229C10.3315 2.56006 10.2629 2.65149 10.2629 2.74292C10.2629 2.8572 10.3544 2.92577 10.4458 2.92577Z" fill="#141005"/>
<path d="M7.54288 1.96584C7.68002 1.87441 7.84002 1.8287 8.00002 1.8287C8.34288 1.8287 8.64002 2.03441 8.75431 2.35441C8.77717 2.44584 8.89145 2.49155 8.98288 2.4687C9.07431 2.44584 9.12002 2.33155 9.09717 2.24013C8.93717 1.78298 8.50288 1.48584 8.02288 1.48584C7.79431 1.48584 7.56574 1.55441 7.36003 1.69155C7.29145 1.73727 7.2686 1.85155 7.31431 1.92013C7.36002 1.9887 7.47431 2.01155 7.54288 1.96584Z" fill="#141005"/>
<path d="M5.53153 2.92577C5.62296 2.92577 5.71439 2.8572 5.71439 2.74292C5.71439 2.62863 5.64582 2.56006 5.53153 2.56006C5.00582 2.56006 4.57153 2.99434 4.57153 3.52006C4.57153 3.61149 4.6401 3.70292 4.75439 3.70292C4.86868 3.70292 4.93725 3.63434 4.93725 3.52006C4.91439 3.20006 5.18868 2.92577 5.53153 2.92577Z" fill="#141005"/>
</g>
<defs>
<clipPath id="clip0_1741_8252">
<rect width="16" height="16" fill="white"/>
</clipPath>
</defs>
</svg>
