<svg width="20" height="20" viewBox="0 0 20 20" fill="none" xmlns="http://www.w3.org/2000/svg">
<path d="M5.68323 12.9981L2.36909 11.0847C2.03854 10.8934 1.92522 10.4692 2.11627 10.139L7.0569 1.58208C7.15721 1.40559 7.31092 1.29153 7.50057 1.2536L11.5074 0.444263C11.8645 0.371919 12.208 0.570083 12.3248 0.915474L13.6271 4.79028C13.6879 4.97247 13.6663 5.16168 13.565 5.33805L9.67487 12.0774L9.2692 11.8433L13.1591 5.10434C13.2039 5.02637 13.1941 4.97258 13.1829 4.93895L11.881 1.06512C11.8403 0.94481 11.7249 0.878091 11.6003 0.903326L7.59284 1.71278C7.55791 1.71977 7.50706 1.73786 7.46327 1.81489L2.52178 10.3733C2.45991 10.4802 2.49659 10.6173 2.60346 10.6791L5.91741 12.5924L5.68319 12.9981L5.68323 12.9981Z" fill="#082133"/>
<path d="M5.29757 9.72187C5.24273 9.72187 5.18769 9.70273 5.14324 9.66374C5.04601 9.57843 5.03632 9.43046 5.1216 9.33328L7.80125 6.27827C7.88652 6.18097 8.03457 6.17136 8.13171 6.25663C8.22894 6.34195 8.23863 6.48992 8.15336 6.5871L5.47371 9.6421C5.42742 9.69492 5.36265 9.72187 5.29757 9.72187Z" fill="#082133"/>
<path d="M6.90988 10.6531C6.85508 10.6531 6.80004 10.634 6.75558 10.595C6.65832 10.5097 6.64863 10.3618 6.73387 10.2646L9.41351 7.20846C9.49883 7.11119 9.6468 7.10151 9.74398 7.18678C9.84125 7.27205 9.85094 7.42002 9.7657 7.51725L7.08605 10.5733C7.03973 10.6262 6.97496 10.6531 6.90988 10.6531Z" fill="#082133"/>
<path d="M9.61879 8.84597C9.57903 8.84597 9.53879 8.83586 9.50192 8.81457L6.07707 6.83695C5.96508 6.77226 5.92668 6.62906 5.99141 6.51703C6.05606 6.40504 6.19926 6.36664 6.31129 6.43132L9.73614 8.40894C9.84813 8.47363 9.88653 8.61683 9.8218 8.72886C9.77844 8.80398 9.69973 8.84597 9.61879 8.84597Z" fill="#082133"/>
<path d="M8.692 10.4505C8.65227 10.4505 8.61204 10.4404 8.57516 10.4191L5.15036 8.44265C5.03837 8.378 4.99993 8.2348 5.06462 8.12276C5.12926 8.01077 5.27243 7.97237 5.3845 8.03698L8.8093 10.0135C8.9213 10.0781 8.95973 10.2213 8.89505 10.3334C8.85169 10.4085 8.77294 10.4505 8.692 10.4505Z" fill="#082133"/>
<path d="M10.1543 5.21083C9.89712 5.21083 9.64329 5.14329 9.41451 5.0111C8.70732 4.60177 8.46372 3.69294 8.87142 2.98513C9.06997 2.64149 9.39001 2.39591 9.77279 2.29337C10.1556 2.19075 10.5556 2.24353 10.8989 2.44192L10.8991 2.442C11.6066 2.85157 11.8496 3.76048 11.4408 4.46817C11.2432 4.81122 10.9236 5.05685 10.541 5.15954C10.4131 5.19384 10.2833 5.21083 10.1544 5.21083H10.1543ZM10.1582 2.71079C10.0701 2.71079 9.98138 2.72235 9.89396 2.74579C9.63201 2.81599 9.41294 2.98411 9.27712 3.21915C8.99822 3.70337 9.16497 4.32548 9.649 4.60567C9.88388 4.74138 10.1576 4.77743 10.4196 4.7072C10.6812 4.63696 10.8998 4.46899 11.0351 4.23419C11.3149 3.74974 11.1487 3.12786 10.6647 2.84751C10.5081 2.75704 10.3343 2.71083 10.1583 2.71083L10.1582 2.71079Z" fill="#082133"/>
<path d="M8.24727 18.8914C7.67852 18.8914 7.21582 18.4287 7.21582 17.86V16.0274C7.21582 15.8981 7.32066 15.7932 7.45 15.7932C7.57934 15.7932 7.68418 15.8981 7.68418 16.0274V17.86C7.68418 18.1704 7.9368 18.423 8.24727 18.423C8.55774 18.423 8.81031 18.1704 8.81031 17.86V16.0562C8.81031 15.9269 8.91516 15.822 9.04449 15.822C9.17383 15.822 9.27867 15.9269 9.27867 16.0562V17.86C9.27867 18.4287 8.81598 18.8914 8.24727 18.8914Z" fill="#082133"/>
<path d="M6.86457 15.493H6.02414C5.52137 15.493 5.1123 15.084 5.1123 14.5812V13.4341C5.1123 12.9312 5.52137 12.5222 6.02414 12.5222H6.86457C6.99395 12.5222 7.09875 12.6271 7.09875 12.7564C7.09875 12.8857 6.99391 12.9906 6.86457 12.9906H6.02414C5.77961 12.9906 5.58066 13.1895 5.58066 13.4341V14.5812C5.58066 14.8257 5.77961 15.0247 6.02414 15.0247H6.86457C6.99395 15.0247 7.09875 15.1295 7.09875 15.2589C7.09875 15.3882 6.99391 15.493 6.86457 15.493Z" fill="#082133"/>
<path d="M15.8367 16.3302C15.7073 16.3302 15.6025 16.2253 15.6025 16.096C15.6025 15.9667 15.7074 15.8618 15.8367 15.8618C16.8591 15.8618 17.6909 15.0301 17.6909 14.0077C17.6909 12.9853 16.8591 12.1546 15.8367 12.1546C15.7073 12.1546 15.6025 12.0498 15.6025 11.9205C15.6025 11.7911 15.7074 11.6863 15.8367 11.6863C17.1174 11.6863 18.1593 12.7276 18.1593 14.0077C18.1593 15.2877 17.1174 16.3302 15.8367 16.3302V16.3302Z" fill="#082133"/>
<path d="M13.8546 18.3056C13.82 18.3056 13.7849 18.2979 13.7517 18.2816L9.64475 16.2664C9.52862 16.2094 9.48069 16.069 9.53768 15.953C9.59464 15.8369 9.73495 15.7889 9.85104 15.8459L13.958 17.8611C14.0741 17.9181 14.122 18.0584 14.065 18.1745C14.0244 18.2574 13.9412 18.3056 13.8546 18.3056H13.8546ZM9.74811 12.1945C9.66155 12.1945 9.57835 12.1463 9.53768 12.0634C9.48069 11.9473 9.52866 11.807 9.64475 11.75L13.7362 9.74252C13.8523 9.68549 13.9926 9.73354 14.0495 9.84959C14.1065 9.96572 14.0585 10.106 13.9425 10.163L9.85104 12.1705C9.81784 12.1868 9.78272 12.1945 9.74811 12.1945Z" fill="#082133"/>
<path d="M14.8654 19.6476C14.2008 19.6476 13.6602 19.107 13.6602 18.4424V9.57417C13.6602 8.90956 14.2009 8.3689 14.8654 8.3689C15.53 8.3689 16.0707 8.90956 16.0707 9.57417V18.4424C16.0707 19.107 15.53 19.6476 14.8654 19.6476ZM14.8654 8.83722C14.4591 8.83722 14.1285 9.1678 14.1285 9.57413V18.4424C14.1285 18.8487 14.4591 19.1793 14.8654 19.1793C15.2718 19.1793 15.6023 18.8487 15.6023 18.4424V9.57417C15.6023 9.16784 15.2717 8.83726 14.8654 8.83726V8.83722Z" fill="#082133"/>
<path d="M9.9816 16.2903H7.66133C7.09258 16.2903 6.62988 15.8276 6.62988 15.2588V12.7564C6.62988 12.1883 7.09262 11.7261 7.66133 11.7261H9.9816V16.2903ZM7.66133 12.1944C7.35086 12.1944 7.09824 12.4465 7.09824 12.7564V15.2588C7.09824 15.5693 7.35086 15.8219 7.66133 15.8219H9.51324V12.1945H7.66133V12.1944Z" fill="#082133"/>
</svg>
