<svg width="40" height="40" viewBox="0 0 40 40" fill="none" xmlns="http://www.w3.org/2000/svg">
<path d="M34.9805 4.05908H18.2227C16.1334 4.05908 14.4336 5.75891 14.4336 7.8396L14.3164 16.52C14.3164 18.6093 16.0162 20.3091 18.1043 20.3091L21.1249 20.3161C20.8636 21.1785 20.3528 21.9467 19.6674 22.488C19.4775 22.6382 19.3909 22.8851 19.4464 23.121C19.6219 23.7641 20.4612 23.6516 20.9845 23.6993C23.1616 23.699 25.3632 22.3651 26.4288 20.3283L34.9414 20.3481C37.0306 20.3481 38.7305 18.6483 38.7305 16.5618L38.7695 7.84814C38.7695 5.75891 37.0697 4.05908 34.9805 4.05908ZM37.4805 16.5591C37.4805 17.9592 36.3415 19.0981 34.9426 19.0981L26.0376 19.0774C25.788 19.0774 25.5627 19.2248 25.4632 19.4525C24.7571 21.072 23.1128 22.2308 21.4508 22.4206C21.8898 21.8319 23.3232 19.2064 21.9007 19.0679C21.9006 19.0679 18.1055 19.0591 18.1055 19.0591C16.7053 19.0591 15.5664 17.9202 15.5664 16.5286L15.6836 7.84814C15.6836 6.448 16.8225 5.30908 18.2227 5.30908H34.9805C36.3806 5.30908 37.5195 6.448 37.5195 7.8454L37.4805 16.5591Z" fill="black"/>
<path d="M3.73047 28.4252H8.10547C8.13053 28.4252 8.15182 28.4138 8.17608 28.4109C8.3704 28.6412 8.59741 28.8473 8.86169 29.0139L19.2261 35.4897C20.1509 36.0642 21.2699 36.0916 22.2186 35.5642C23.1653 35.0377 23.7305 34.0755 23.7305 32.99V24.6086C23.7163 23.79 22.4953 23.7844 22.4805 24.6087C22.4805 24.6086 22.4805 32.99 22.4805 32.99C22.5255 34.2833 20.9604 35.1493 19.8871 34.4285C19.8871 34.4286 9.52637 27.9549 9.52637 27.9549C9.02771 27.6412 8.73047 27.1029 8.73047 26.5151V17.8337C8.73047 17.2539 9.03381 16.7052 9.52454 16.4009L13.4369 13.951C14.1266 13.5108 13.4756 12.4629 12.774 12.8914C12.2171 13.2878 8.50796 15.4103 8.18016 15.9402C8.15452 15.937 8.13198 15.9252 8.10547 15.9252H3.73047C2.35169 15.9252 1.23047 17.0467 1.23047 18.4252V25.9252C1.23047 27.3037 2.35169 28.4252 3.73047 28.4252ZM2.48047 18.4252C2.48047 17.7358 3.04138 17.1752 3.73047 17.1752H7.48047V27.1752H3.73047C3.04138 27.1752 2.48047 26.6146 2.48047 25.9252V18.4252Z" fill="black"/>
<path d="M18.2568 21.0635C18.0127 20.8193 17.6172 20.8193 17.373 21.0635L15.6055 22.8312L13.8379 21.0635C13.5937 20.8193 13.1982 20.8193 12.9541 21.0635C12.71 21.3076 12.71 21.7031 12.9541 21.9473L14.7217 23.715L12.9541 25.4827C12.71 25.7269 12.71 26.1224 12.9541 26.3665C13.1982 26.6106 13.5937 26.6106 13.8379 26.3665L15.6055 24.5988L17.373 26.3665C17.6172 26.6106 18.0127 26.6106 18.2568 26.3665C18.501 26.1224 18.501 25.7269 18.2568 25.4827L16.4892 23.715L18.2568 21.9473C18.501 21.7031 18.501 21.3076 18.2568 21.0635Z" fill="black"/>
<path d="M28.8818 9.52344C28.6377 9.2793 28.2422 9.2793 27.998 9.52344L26.2305 11.2912L24.4629 9.52344C24.2187 9.2793 23.8232 9.2793 23.5791 9.52344C23.335 9.76727 23.335 10.1631 23.5791 10.4072L25.3468 12.1751L23.5791 13.943C23.335 14.1871 23.335 14.5829 23.5791 14.8268C23.8232 15.0709 24.2187 15.0709 24.4629 14.8268L26.2305 13.059L27.998 14.8268C28.2422 15.0709 28.6377 15.0709 28.8818 14.8268C29.126 14.5829 29.126 14.1871 28.8818 13.943L27.1142 12.1751L28.8818 10.4072C29.126 10.1631 29.126 9.76727 28.8818 9.52344Z" fill="black"/>
<path d="M26.2305 6.55908C23.1287 6.55908 20.6055 9.08258 20.6055 12.1841C20.9145 19.6464 31.5476 19.6443 31.8555 12.184C31.8555 9.08258 29.3323 6.55908 26.2305 6.55908ZM26.2305 16.5591C23.8184 16.5591 21.8555 14.5965 21.8555 12.1841C22.0755 6.38807 30.3863 6.38963 30.6055 12.1841C30.6055 14.5965 28.6426 16.5591 26.2305 16.5591Z" fill="black"/>
<path d="M25.0684 24.0081C24.892 24.3047 24.989 24.6883 25.2856 24.865C26.8891 25.7516 26.8821 28.2566 25.2825 29.1487C24.9872 29.327 24.892 29.7109 25.0702 30.0066C25.2495 30.305 25.6372 30.3956 25.9283 30.2193C27.0685 29.5321 27.749 28.3297 27.749 27.0028C27.749 25.6719 27.0673 24.471 25.9253 23.7908C25.6293 23.615 25.2454 23.7117 25.0684 24.0081Z" fill="black"/>
<path d="M28.999 27.0027C28.999 28.7529 28.0694 30.3935 26.5728 31.2844C26.0274 31.5826 26.2836 32.471 26.8933 32.4464C31.2565 30.5283 31.2924 23.9473 27.2124 21.6469C26.4996 21.2412 25.8735 22.2866 26.5729 22.7211C28.0694 23.6119 28.999 25.2525 28.999 27.0027Z" fill="black"/>
</svg>
