<svg width="33" height="33" viewBox="0 0 33 33" fill="none" xmlns="http://www.w3.org/2000/svg">
<path d="M19.4279 28.1383C19.4279 26.9665 17.9545 25.9791 15.5821 25.5619C15.403 25.5296 15.2315 25.6499 15.2002 25.8296C15.1684 26.0092 15.2882 26.1802 15.4679 26.2116C17.4109 26.5536 18.7679 27.3459 18.7679 28.1383C18.7679 29.1373 16.5068 30.2502 13.2623 30.2502C10.0177 30.2502 7.75668 29.1373 7.75668 28.1383C7.75668 27.3476 9.1102 26.5562 11.0485 26.2128C11.2281 26.181 11.3476 26.01 11.3158 25.8304C11.284 25.6508 11.1095 25.5318 10.9334 25.5632C8.56664 25.9821 7.09668 26.9687 7.09668 28.1383C7.09668 29.6924 9.805 30.9102 13.2623 30.9102C16.7195 30.9102 19.4279 29.6924 19.4279 28.1383Z" fill="#082133"/>
<path d="M12.4579 19.7437C12.2757 19.7437 12.1279 19.8915 12.1279 20.0737V28.395C12.1279 28.8504 12.4988 29.2213 12.9542 29.2213H13.5704C14.0259 29.2213 14.3967 28.8504 14.3967 28.395V20.0737C14.3967 19.8915 14.2489 19.7437 14.0667 19.7437C13.8845 19.7437 13.7367 19.8915 13.7367 20.0737V28.395C13.7367 28.4865 13.6619 28.5613 13.5704 28.5613H12.9542C12.8627 28.5613 12.7879 28.4865 12.7879 28.395V20.0737C12.7879 19.8915 12.6401 19.7437 12.4579 19.7437Z" fill="#082133"/>
<path d="M23.7412 15.4057C23.7412 15.2235 23.5934 15.0757 23.4112 15.0757C23.229 15.0757 23.0812 15.2235 23.0812 15.4057C23.0812 16.8933 19.0486 18.5506 13.262 18.5506C7.47582 18.5506 3.4432 16.8933 3.4432 15.4057C3.4432 15.2235 3.29539 15.0757 3.1132 15.0757C2.93102 15.0757 2.7832 15.2235 2.7832 15.4057C2.7832 17.7874 8.1109 19.2106 13.262 19.2106C18.4131 19.2106 23.7412 17.7874 23.7412 15.4057Z" fill="#082133"/>
<path d="M8.17961 11.104C8.35793 11.0666 8.4718 10.8913 8.43398 10.7129C8.39617 10.5346 8.22129 10.4186 8.04297 10.4586C4.90281 11.1211 3.10156 12.2839 3.10156 13.649C3.10156 15.9624 8.26727 17.3452 13.2615 17.3452C18.2558 17.3452 23.4219 15.9624 23.4219 13.649C23.4219 12.4936 22.1225 11.4748 19.7636 10.78C19.59 10.7297 19.4052 10.8285 19.3536 11.0034C19.3021 11.1783 19.4022 11.3618 19.5771 11.4133C21.5712 12.0007 22.7619 12.8365 22.7619 13.649C22.7619 15.085 18.8604 16.6852 13.2615 16.6852C7.66312 16.6852 3.76156 15.085 3.76156 13.649C3.76156 12.6693 5.49578 11.6703 8.17961 11.104Z" fill="#082133"/>
<path d="M10.9034 8.85818C10.5128 8.90201 10.0749 9.14822 9.9065 9.41806L7.90888 12.6201C7.68606 12.9757 7.90099 13.4361 8.57833 13.3592C11.1698 13.0661 12.8744 14.4939 15.6201 14.1799C16.0102 14.1365 16.4485 13.8907 16.6178 13.62L18.6158 10.4179C18.8348 10.0665 18.6292 9.60362 17.9455 9.67888C15.3332 9.97897 13.681 8.54028 10.9034 8.85818ZM17.8806 10.3492L16.0579 13.2702C16.0124 13.3428 15.7657 13.4997 15.5461 13.5242C12.9633 13.8167 11.3483 12.4342 8.64407 12.6888L10.4668 9.7674C10.5115 9.69521 10.7581 9.53881 10.9777 9.51388C13.5523 9.22421 15.1895 10.6021 17.8806 10.3492Z" fill="#082133"/>
<path d="M20.9307 3.88423L20.0903 4.71353C19.8857 4.91505 19.8256 5.21541 19.9373 5.4788C20.1001 5.86123 20.4727 6.53154 21.1524 6.77689C21.268 7.24353 21.476 7.6006 21.7682 7.79654C21.5037 8.30798 21.4503 9.02018 21.8013 9.79716C22.5085 11.3591 23.8388 12.6782 25.7548 13.7176C26.0711 13.8892 26.4706 13.8311 26.7285 13.5767L29.9675 10.3824C30.2017 10.1512 30.2786 9.80705 30.163 9.50584C29.5894 8.01422 28.334 6.44659 26.0474 5.19865C25.1306 4.69761 24.593 4.65289 21.6212 3.71408C21.3785 3.64017 21.1125 3.70505 20.9307 3.88423ZM29.5038 9.91275L26.2653 13.1066C26.2129 13.159 26.1334 13.1711 26.0698 13.1376C25.2553 12.6959 24.5619 12.2006 23.9805 11.6598C23.9664 11.5233 23.9604 11.3838 24.0008 11.2787C24.1169 10.9771 24.6161 10.8916 25.0385 10.8508C26.3617 10.7225 26.7279 10.4258 27.3322 9.57459C27.8153 8.89363 28.0295 8.684 28.992 8.65081C29.2146 9.00055 29.4013 9.36404 29.5468 9.74259C29.5679 9.79802 29.5507 9.86634 29.5038 9.91275ZM28.5361 8.02051C27.052 8.2008 26.8937 9.35769 26.2279 9.84228C25.8919 10.0872 25.4248 10.1504 24.9749 10.1942C24.5822 10.232 23.6618 10.321 23.3847 11.042C23.3839 11.0439 23.3838 11.0459 23.3831 11.0478C22.9742 10.5715 22.6465 10.0633 22.4028 9.52474C22.1407 8.94619 22.1771 8.44148 22.3547 8.09947C22.4905 7.83521 22.4213 7.51767 22.1858 7.32732C22.0032 7.17908 21.8704 6.93673 21.7901 6.60673C21.7385 6.39361 21.5916 6.22775 21.3974 6.1633C20.9402 6.01119 20.6669 5.50716 20.5535 5.18361L21.3939 4.35431C21.4008 4.34744 21.4098 4.344 21.4188 4.344C21.8805 4.48443 24.8368 5.38357 24.6484 5.32627C26.0281 5.74651 27.6223 6.89732 28.5361 8.02051Z" fill="#082133"/>
<path d="M20.4228 2.30992L19.4719 2.11871C18.9923 2.02246 18.5025 2.17027 18.1562 2.51187C18.1122 2.55528 16.1313 4.50863 16.1753 4.46523C15.9695 4.66891 15.9673 5.00234 16.1706 5.20902L16.5663 5.61035C16.7718 5.81941 17.107 5.81897 17.311 5.61594L17.5662 5.36414L18.8497 5.05562C19.022 5.01394 19.1801 4.92629 19.3064 4.80168L20.7442 3.38414C21.1046 3.02743 20.9227 2.41047 20.4228 2.30992ZM18.695 4.41367L17.3226 4.74367C17.1807 4.77834 17.1383 4.87337 16.9427 5.05219L16.7343 4.84078L18.6198 2.98195C18.8097 2.79375 19.0804 2.71297 19.3421 2.76582L20.2466 2.94758C18.7639 4.38767 18.8471 4.37739 18.695 4.41367Z" fill="#082133"/>
<path d="M18.5143 9.43788C19.2626 9.43788 20.6278 7.47611 19.213 6.14347C19.0798 6.01843 18.8714 6.02487 18.7464 6.15722C18.6213 6.28999 18.6278 6.49882 18.7601 6.62386C19.1129 6.95558 19.2414 7.34831 19.143 7.79046C19.0759 8.09038 18.9213 8.34647 18.7747 8.52394C18.7391 7.50815 18.1293 6.03089 18.0503 5.84269C17.979 5.67425 17.7847 5.59605 17.618 5.66651C17.45 5.73741 17.3714 5.93077 17.4418 6.09878C17.6683 6.63589 18.2277 8.17245 18.0997 8.82171C18.0208 9.22175 18.2596 9.43788 18.5143 9.43788Z" fill="#082133"/>
<path d="M14.4173 7.78003L14.6652 7.41652C14.7679 7.2657 14.7292 7.06073 14.5788 6.95804C14.4276 6.85491 14.2226 6.89402 14.1204 7.04441L13.8724 7.40792C13.7213 7.62994 13.8846 7.92398 14.1444 7.92398C14.2501 7.92398 14.3537 7.8737 14.4173 7.78003Z" fill="#082133"/>
<path d="M14.8651 5.95468C14.7624 6.1055 14.8011 6.31046 14.9514 6.41316C15.102 6.51617 15.3079 6.47712 15.4099 6.32679L15.6579 5.96328C15.7605 5.81246 15.7219 5.6075 15.5715 5.5048C15.4202 5.40168 15.2153 5.44121 15.113 5.59117L14.8651 5.95468Z" fill="#082133"/>
<path d="M15.9473 7.7402C15.766 7.70067 15.5936 7.81583 15.5554 7.99372L15.4635 8.42384C15.4252 8.60216 15.5391 8.77747 15.717 8.81571C15.891 8.85368 16.0701 8.74332 16.1088 8.56219L16.2008 8.13208C16.239 7.95376 16.1252 7.77844 15.9473 7.7402Z" fill="#082133"/>
<path d="M16.4761 6.8409L16.568 6.41079C16.6063 6.23247 16.4924 6.05715 16.3145 6.01891C16.1319 5.97809 15.9604 6.09454 15.9226 6.27243L15.8307 6.70254C15.7869 6.90679 15.9422 7.10172 16.1538 7.10172C16.3059 7.10172 16.443 6.99559 16.4761 6.8409Z" fill="#082133"/>
<path d="M26.4564 20.7644C26.6038 20.6574 26.6369 20.4511 26.5299 20.3033L24.7428 17.8373C24.6363 17.69 24.4287 17.656 24.2818 17.7639C24.1344 17.8709 24.1013 18.0771 24.2083 18.2249L25.9954 20.6909C26.1028 20.8392 26.3105 20.8706 26.4564 20.7644Z" fill="#082133"/>
<path d="M27.4168 18.7451C27.5169 18.593 27.4743 18.3881 27.3222 18.288L25.7272 17.2391C25.5747 17.1394 25.3702 17.1815 25.27 17.3336C25.1699 17.4857 25.2125 17.6907 25.3646 17.7908L26.9596 18.8397C27.1137 18.9405 27.3172 18.8959 27.4168 18.7451Z" fill="#082133"/>
<path d="M23.8218 20.2924C23.8747 20.4187 23.9971 20.4947 24.126 20.4947C24.361 20.4947 24.5215 20.2546 24.4303 20.0371L23.9086 18.794C23.8386 18.626 23.6452 18.5461 23.4768 18.6174C23.3088 18.6879 23.2297 18.8813 23.3002 19.0493L23.8218 20.2924Z" fill="#082133"/>
</svg>
