<svg width="33" height="33" viewBox="0 0 33 33" fill="none" xmlns="http://www.w3.org/2000/svg">
<path d="M14.1032 14.8333C11.0082 14.8333 8.49023 12.4034 8.49023 9.41665C8.49023 6.42991 11.0082 4 14.1032 4C17.1981 4 19.7161 6.42991 19.7161 9.41665C19.7161 12.4034 17.1981 14.8333 14.1032 14.8333ZM14.1032 5.08333C11.6267 5.08333 9.61282 7.02682 9.61282 9.41665C9.61282 11.8065 11.6267 13.75 14.1032 13.75C16.5796 13.75 18.5935 11.8065 18.5935 9.41665C18.5935 7.02682 16.5796 5.08333 14.1032 5.08333Z" fill="#082133"/>
<path d="M13.542 26.75H4.56129C4.25146 26.75 4 26.5073 4 26.2083V21.875C4 19.1872 6.2665 17 9.05164 17H15.7872C16.097 17 16.3485 17.2427 16.3485 17.5417C16.3485 17.8407 16.097 18.0833 15.7872 18.0833H9.05164C6.88505 18.0833 5.12259 19.7842 5.12259 21.875V25.6666H13.542C13.8518 25.6666 14.1033 25.9093 14.1033 26.2083C14.1033 26.5073 13.8518 26.75 13.542 26.75Z" fill="#082133"/>
<path d="M23.0838 25.6667C21.5369 25.6667 20.2773 24.4512 20.2773 22.9583C20.2773 21.4655 21.5369 20.25 23.0838 20.25C24.6307 20.25 25.8903 21.4655 25.8903 22.9583C25.8903 24.4512 24.6307 25.6667 23.0838 25.6667ZM23.0838 21.3333C22.1554 21.3333 21.3999 22.0624 21.3999 22.9583C21.3999 23.8542 22.1554 24.5833 23.0838 24.5833C24.0122 24.5833 24.7677 23.8542 24.7677 22.9583C24.7677 22.0624 24.0122 21.3333 23.0838 21.3333Z" fill="#082133"/>
<path d="M23.9789 30.0002H22.1884C21.6091 30.0002 21.1287 29.5809 21.0714 29.0241L20.9289 27.6472C20.5887 27.5009 20.2643 27.3189 19.9578 27.1023L18.6466 27.6732C18.1201 27.905 17.5016 27.7111 17.2131 27.2269L16.3184 25.7308C16.0288 25.2465 16.1657 24.6355 16.635 24.3094L17.7901 23.5078C17.7676 23.3399 17.7519 23.1535 17.7519 22.9585C17.7519 22.7635 17.7676 22.5761 17.7901 22.4093L16.635 21.6076C16.1657 21.2815 16.0288 20.6705 16.3184 20.1863L17.2131 18.6902C17.5027 18.206 18.1179 18.0142 18.6466 18.2439L19.9578 18.8148C20.2643 18.5981 20.5887 18.4161 20.9289 18.2699L21.0714 16.893C21.1287 16.3372 21.6091 15.918 22.1884 15.918H23.9789C24.5582 15.918 25.0386 16.3372 25.0959 16.894L25.2385 18.271C25.5797 18.4172 25.9042 18.6003 26.2095 18.8159L27.5207 18.245C28.0494 18.0164 28.6657 18.2081 28.9542 18.6913L29.8489 20.1874C30.1386 20.6716 30.0016 21.2826 29.5324 21.6087L28.3772 22.4104C28.3997 22.5783 28.4154 22.7646 28.4154 22.9596C28.4154 23.1546 28.3997 23.342 28.3772 23.5089L29.5324 24.3105C30.0016 24.6366 30.1386 25.2476 29.8489 25.7319L28.9553 27.2269C28.6657 27.71 28.0517 27.9039 27.5218 27.6732L26.2106 27.1023C25.9042 27.3189 25.5797 27.5009 25.2396 27.6472L25.0959 29.0252C25.0386 29.5809 24.5582 30.0002 23.9789 30.0002ZM20.0364 25.9323C20.1655 25.9323 20.2935 25.9756 20.3967 26.059C20.7773 26.3667 21.1983 26.6018 21.6462 26.7599C21.8482 26.8314 21.9908 27.008 22.0121 27.2149L22.1895 28.9169H23.98L24.1563 27.2149C24.1776 27.008 24.3202 26.8314 24.5223 26.7599C24.9702 26.6018 25.3911 26.3656 25.7717 26.059C25.9378 25.9258 26.1668 25.8954 26.3622 25.981L27.9832 26.6874L28.8779 25.1913L27.4432 24.1968C27.2681 24.0754 27.1817 23.8674 27.2176 23.6627C27.2591 23.4341 27.2928 23.2012 27.2928 22.9607C27.2928 22.7202 27.2591 22.4873 27.2176 22.2587C27.1805 22.054 27.2681 21.847 27.4432 21.7246L28.8779 20.7301L27.9832 19.234L26.3622 19.9393C26.1657 20.0249 25.9367 19.9945 25.7706 19.8613C25.3911 19.5536 24.9713 19.3185 24.5211 19.1604C24.3191 19.0889 24.1765 18.9123 24.1552 18.7054L23.9789 17.0002H22.1884L22.0121 18.7021C21.9908 18.909 21.8482 19.0856 21.6462 19.1571C21.1983 19.3153 20.7773 19.5515 20.3967 19.858C20.2317 19.9913 20.0027 20.0227 19.8063 19.936L18.1852 19.2297L17.2905 20.7258L18.7252 21.7203C18.9003 21.8416 18.9868 22.0496 18.9509 22.2544C18.9093 22.483 18.8756 22.7159 18.8756 22.9564C18.8756 23.1969 18.9093 23.4298 18.9509 23.6584C18.9879 23.8631 18.9003 24.07 18.7252 24.1924L17.2905 25.1869L18.1852 26.683L19.8063 25.9778C19.8804 25.9474 19.9578 25.9323 20.0364 25.9323Z" fill="#082133"/>
</svg>
