<svg width="24" height="24" viewBox="0 0 24 24" fill="none" xmlns="http://www.w3.org/2000/svg">
<path d="M15.7308 10.0992L12.3175 12.8487L11.1895 11.4087C10.9593 11.1154 10.5355 11.0637 10.2415 11.2947C9.94829 11.5249 9.89654 11.9487 10.1268 12.2427L11.677 14.2204C11.788 14.3622 11.9523 14.4544 12.1315 14.4747C12.157 14.4777 12.1825 14.4792 12.208 14.4792C12.3618 14.4792 12.511 14.4267 12.631 14.3299L16.5768 11.1522C16.867 10.9174 16.9128 10.4929 16.6795 10.2027C16.447 9.91317 16.021 9.86442 15.7308 10.0992Z" fill="#A27E2A"/>
<path d="M23.1323 16.7567L20.7916 6.48544C20.6131 5.70469 19.9298 5.15869 19.1281 5.15869H4.85632C4.81957 5.15869 4.78432 5.16769 4.74832 5.17069C4.00282 5.22619 3.37957 5.74819 3.21157 6.48619L0.868566 16.7552C0.752316 17.2644 0.872316 17.7902 1.19782 18.1974C1.52332 18.6054 2.00932 18.8394 2.53057 18.8394H4.09882C4.47157 18.8394 4.77382 18.5372 4.77382 18.1644C4.77382 17.7917 4.47157 17.4894 4.09882 17.4894H2.53057C2.38132 17.4894 2.29282 17.4062 2.25307 17.3559C2.21332 17.3064 2.15182 17.2007 2.18482 17.0559L4.05157 8.87569L6.02107 17.5149C6.19882 18.2957 6.88282 18.8417 7.68307 18.8417H21.4696C21.9916 18.8417 22.4776 18.6069 22.8023 18.1997C23.1278 17.7917 23.2478 17.2659 23.1323 16.7567ZM21.7471 17.3574C21.7073 17.4069 21.6181 17.4909 21.4696 17.4909H7.68307C7.51657 17.4909 7.37407 17.3777 7.33732 17.2149L4.85782 6.51694C4.86382 6.51694 4.86757 6.51169 4.87357 6.51169H11.6393C11.6416 6.51169 11.6438 6.51019 11.6468 6.51019H19.1281C19.2953 6.51019 19.4378 6.62344 19.4746 6.78619L21.8153 17.0567C21.8491 17.2022 21.7868 17.3072 21.7471 17.3574Z" fill="#A27E2A"/>
</svg>
