<svg width="12" height="7" viewBox="0 0 12 7" fill="none" xmlns="http://www.w3.org/2000/svg">
<path d="M7.45268 2.47024L5.74606 3.84499L5.18206 3.12499C5.06693 2.97836 4.85506 2.95249 4.70806 3.06799C4.56143 3.18311 4.53556 3.39499 4.65068 3.54199L5.42581 4.53086C5.48131 4.60174 5.56343 4.64786 5.65306 4.65799C5.66581 4.65949 5.67856 4.66024 5.69131 4.66024C5.76818 4.66024 5.84281 4.63399 5.90281 4.58561L7.87568 2.99674C8.02081 2.87936 8.04368 2.66711 7.92706 2.52199C7.81081 2.37724 7.59781 2.35286 7.45268 2.47024Z" fill="#666666"/>
<path d="M11.1536 5.799L9.98319 0.663375C9.89394 0.273 9.55231 0 9.15144 0H2.01556C1.99719 0 1.97956 0.0045001 1.96156 0.0060001C1.58881 0.0337501 1.27719 0.29475 1.19319 0.66375L0.0216855 5.79825C-0.0364395 6.05288 0.0235606 6.31575 0.186311 6.51937C0.349061 6.72338 0.592061 6.84037 0.852686 6.84037H1.63681C1.82319 6.84037 1.97431 6.68925 1.97431 6.50287C1.97431 6.3165 1.82319 6.16537 1.63681 6.16537H0.852686C0.778061 6.16537 0.733811 6.12375 0.713936 6.09863C0.694061 6.07387 0.663311 6.021 0.679811 5.94862L1.61319 1.8585L2.59794 6.17813C2.68681 6.5685 3.02881 6.8415 3.42894 6.8415H10.3222C10.5832 6.8415 10.8262 6.72413 10.9886 6.5205C11.1513 6.3165 11.2113 6.05362 11.1536 5.799ZM10.4609 6.09937C10.4411 6.12413 10.3964 6.16612 10.3222 6.16612H3.42894C3.34569 6.16612 3.27444 6.1095 3.25606 6.02812L2.01631 0.679125C2.01931 0.679125 2.02119 0.6765 2.02419 0.6765H5.40706C5.40819 0.6765 5.40931 0.67575 5.41081 0.67575H9.15144C9.23506 0.67575 9.30631 0.732375 9.32469 0.81375L10.4951 5.949C10.5119 6.02175 10.4808 6.07425 10.4609 6.09937Z" fill="#666666"/>
</svg>
