<svg width="20" height="20" viewBox="0 0 20 20" fill="none" xmlns="http://www.w3.org/2000/svg">
<g clip-path="url(#clip0_1836_9164)">
<path d="M5.83375 14.9056H5.22696V14.2988H5.83375V14.9056ZM4.62017 14.9056H4.01338V14.2988H4.62017V14.9056ZM3.40659 14.9056H2.7998V14.2988H3.40659V14.9056Z" fill="#141005"/>
<path d="M18.7934 19.3932V16.0748H18.1866V16.9661H12.7281V13.611H18.1866V15.4693H18.7934V11.8188C19.1699 11.4354 19.4027 10.9104 19.4027 10.3318V9.68771L18.1227 4.56734H15.1219C14.9705 3.23337 14.3068 2.01211 13.2491 1.15253L12.8664 1.62344C13.9353 2.49212 14.5484 3.7794 14.5484 5.15516C14.5484 6.89713 13.5639 8.41325 12.1222 9.17703L12.1225 6.77468C12.8883 6.64357 13.3361 6.00118 13.3361 4.99986C13.3361 3.72957 12.6698 2.73451 11.8192 2.73451C10.9685 2.73451 10.3022 3.72957 10.3022 4.99986C10.3022 6.00114 10.75 6.64353 11.5157 6.77463L11.5155 9.44362C11.0412 9.6117 10.5312 9.70352 10.0001 9.70352C9.46823 9.70352 8.95759 9.61145 8.48284 9.44297L8.48422 6.38763H8.58547C9.19889 6.38763 9.69792 5.8886 9.69792 5.27518V3.04932H9.09113V3.958H8.48434V3.05033H7.87755V3.958H7.27076V3.04932H6.66397V5.27522C6.66397 5.88864 7.163 6.38767 7.77642 6.38767H7.87743L7.87617 9.17614C6.43542 8.41203 5.45169 6.89644 5.45169 5.15516C5.45165 2.64718 7.49204 0.606789 10 0.606789C10.8519 0.606789 11.6824 0.843639 12.4016 1.29177L12.7225 0.776771C11.9069 0.268605 10.9655 0 10 0C7.3562 0 5.17127 2.00058 4.87856 4.56734H1.87236L0.592283 9.68771V10.3318C0.592283 10.9104 0.825088 11.4354 1.20158 11.8188V19.3932H0.293945V20H19.7061V19.3932H18.7934ZM18.7959 10.3318C18.7959 11.1683 18.1155 11.8488 17.279 11.8488C16.4425 11.8488 15.762 11.1683 15.762 10.3318H15.7546L15.7215 10.0297H18.7959V10.3318ZM17.6489 5.17413L18.7111 9.4229H15.6551L15.1902 5.17413H17.6489ZM14.787 7.06804L15.0447 9.4229H12.8887C13.7347 8.84848 14.4015 8.02931 14.787 7.06804ZM15.1111 10.0297L15.153 10.4126C15.1109 11.2117 14.4476 11.8488 13.6382 11.8488C12.8182 11.8488 12.1485 11.1946 12.1225 10.3808L12.1224 10.0297H15.1111V10.0297ZM10.9089 4.9999C10.9089 4.2154 11.2827 3.34134 11.8191 3.34134C12.3555 3.34134 12.7293 4.2154 12.7293 4.9999C12.7293 5.79176 12.4231 6.19325 11.8191 6.19325C11.2152 6.19325 10.9089 5.79172 10.9089 4.9999ZM10 10.3104C10.5272 10.3104 11.0362 10.2306 11.5156 10.0829L11.5157 10.3318H11.5145C11.5145 11.1683 10.834 11.8488 9.99751 11.8488C9.19165 11.8488 8.52754 11.2204 8.48304 10.4173L8.48288 10.0824C8.96273 10.2305 9.47223 10.3104 10 10.3104ZM7.77638 5.78088C7.49754 5.78088 7.27072 5.55406 7.27072 5.27522V4.56475H9.09109V5.27522C9.09109 5.55406 8.86427 5.78088 8.58543 5.78088H7.77638ZM8.17965 11.4317C8.55262 12.0474 9.22907 12.4556 9.99751 12.4556C10.7691 12.4556 11.4459 12.042 11.8179 11.4249C12.1898 12.042 12.8666 12.4556 13.6382 12.4556C14.4098 12.4556 15.0866 12.042 15.4586 11.4249C15.8306 12.042 16.5074 12.4556 17.279 12.4556C17.6036 12.4556 17.9112 12.3822 18.1866 12.2514V13.0043H1.80837V12.2514C2.08377 12.3822 2.39145 12.4556 2.71604 12.4556C3.48942 12.4556 4.16752 12.0401 4.53892 11.4207C4.91031 12.0401 5.58846 12.4556 6.36183 12.4556C7.13023 12.4556 7.80668 12.0474 8.17965 11.4317ZM4.84486 10.3031L4.87524 10.0297H6.36183V9.4229H4.94268L5.20618 7.05129C5.69958 8.29432 6.663 9.30147 7.87601 9.85219L7.87626 10.4174C7.83172 11.2205 7.16765 11.8488 6.36183 11.8488C5.52535 11.8488 4.84486 11.1683 4.84486 10.3318V10.3031ZM2.34615 5.17413H4.80425L4.33216 9.4229H1.28394L2.34615 5.17413ZM1.19907 10.3318V10.0297H4.23302V10.3318C4.23302 11.1683 3.55252 11.8488 2.71604 11.8488C1.87957 11.8488 1.19907 11.1683 1.19907 10.3318ZM7.26947 19.3932H1.80837V17.5728H7.26947V19.3932ZM7.26947 16.9661H1.80837V13.611H7.26947V16.9661ZM12.1187 19.3932H7.87626V17.5728V13.611H12.1187V19.3932ZM18.1866 19.3932H12.7255V17.5728H18.1866V19.3932Z" fill="#141005"/>
<path d="M9.08691 15.7537H9.6937V16.9672H9.08691V15.7537Z" fill="#141005"/>
<path d="M10.3008 15.7537H10.9076V16.9672H10.3008V15.7537Z" fill="#141005"/>
</g>
<defs>
<clipPath id="clip0_1836_9164">
<rect width="20" height="20" fill="white"/>
</clipPath>
</defs>
</svg>
