<svg width="12" height="11" viewBox="0 0 12 11" fill="none" xmlns="http://www.w3.org/2000/svg">
<path d="M6 6.11133L7.11333 6.78867C7.20933 6.84911 7.30578 6.84422 7.40267 6.774C7.49911 6.70333 7.53511 6.60867 7.51067 6.49L7.21533 5.232L8.19533 4.39C8.28867 4.30689 8.31756 4.21089 8.282 4.102C8.24644 3.99311 8.16778 3.93311 8.046 3.922L6.75533 3.80533L6.24867 2.618C6.20156 2.51 6.11867 2.456 6 2.456C5.88133 2.456 5.79844 2.51 5.75133 2.618L5.24467 3.80467L3.954 3.922C3.83267 3.93311 3.754 3.99311 3.718 4.102C3.682 4.21089 3.71089 4.30689 3.80467 4.39L4.78467 5.232L4.49 6.48933C4.46511 6.60844 4.50089 6.70333 4.59733 6.774C4.69378 6.84467 4.79044 6.84956 4.88733 6.78867L6 6.11133ZM2.05133 9.33333L0.915333 10.4693C0.746889 10.6378 0.552222 10.6764 0.331333 10.5853C0.110444 10.4942 0 10.3287 0 10.0887V1.07733C0 0.770222 0.102889 0.514 0.308667 0.308667C0.514444 0.103333 0.770667 0.000444444 1.07733 0H10.9233C11.23 0 11.4862 0.102889 11.692 0.308667C11.8978 0.514444 12.0004 0.770667 12 1.07733V8.25667C12 8.56333 11.8973 8.81956 11.692 9.02533C11.4867 9.23111 11.2304 9.33378 10.9233 9.33333H2.05133ZM1.76667 8.66667H10.9233C11.0256 8.66667 11.1196 8.624 11.2053 8.53867C11.2911 8.45333 11.3338 8.35933 11.3333 8.25667V1.07667C11.3333 0.974444 11.2907 0.880444 11.2053 0.794667C11.12 0.708889 11.026 0.666222 10.9233 0.666667H1.07667C0.974444 0.666667 0.880444 0.709333 0.794667 0.794667C0.708889 0.88 0.666222 0.974 0.666667 1.07667V9.76333L1.76667 8.66667Z" fill="#141005"/>
</svg>
