<svg width="20" height="20" viewBox="0 0 20 20" fill="none" xmlns="http://www.w3.org/2000/svg">
<g clip-path="url(#clip0_1009_2971)">
<path fill-rule="evenodd" clip-rule="evenodd" d="M13.9816 3.36211V2.63594C13.9816 2.52813 14.0691 2.44062 14.177 2.44062C14.2848 2.44062 14.3723 2.52813 14.3723 2.63594V3.36211C14.3723 3.46992 14.2848 3.55742 14.177 3.55742C14.0691 3.55742 13.9816 3.46992 13.9816 3.36211ZM15.1973 3.98047C15.2473 3.98047 15.2973 3.96133 15.3355 3.92344L15.8492 3.40977C15.9254 3.33359 15.9254 3.20977 15.8492 3.13359C15.773 3.05742 15.6492 3.05742 15.573 3.13359L15.0594 3.64727C14.9832 3.72344 14.9832 3.84727 15.0594 3.92344C15.0973 3.96133 15.1473 3.98047 15.1973 3.98047ZM15.425 4.80547C15.425 4.91328 15.5125 5.00078 15.6203 5.00078H16.3465C16.4543 5.00078 16.5418 4.91328 16.5418 4.80547C16.5418 4.69766 16.4543 4.61016 16.3465 4.61016H15.6203C15.5121 4.61016 15.425 4.69766 15.425 4.80547ZM13.018 3.92305C13.0563 3.96133 13.1062 3.98008 13.1562 3.98008C13.2062 3.98008 13.2562 3.96094 13.2945 3.92305C13.3707 3.84687 13.3707 3.72305 13.2945 3.64687L12.7809 3.1332C12.7047 3.05703 12.5809 3.05703 12.5047 3.1332C12.4285 3.20937 12.4285 3.3332 12.5047 3.40937L13.018 3.92305ZM12.007 5.00078H12.7332C12.841 5.00078 12.9285 4.91328 12.9285 4.80547C12.9285 4.69766 12.841 4.61016 12.7332 4.61016H12.007C11.8992 4.61016 11.8117 4.69766 11.8117 4.80547C11.8117 4.91328 11.8992 5.00078 12.007 5.00078ZM19.5703 13.0012C19.5703 14.4457 19.0078 15.8039 17.9863 16.8254C16.9648 17.8469 15.6066 18.4094 14.1621 18.4094C12.7176 18.4094 11.3594 17.8469 10.3379 16.8254C10.15 16.6375 9.97773 16.4379 9.82148 16.2289V17.8602C10.2055 17.9488 10.4922 18.2934 10.4922 18.7039C10.4922 19.1816 10.1035 19.5699 9.62617 19.5699H1.2957C0.818359 19.5703 0.429688 19.1816 0.429688 18.7043C0.429688 18.2937 0.716797 17.9496 1.10039 17.8605V14.8145C1.10039 12.8781 2.26016 11.1414 4.05547 10.3898C4.21602 10.3227 4.30781 10.1805 4.30781 9.99961C4.30781 9.81875 4.21602 9.67656 4.05547 9.60938C2.26055 8.85781 1.10039 7.12109 1.10039 5.18477V2.13945C0.716797 2.05078 0.429688 1.70625 0.429688 1.2957C0.429688 0.818359 0.818359 0.429688 1.2957 0.429688H9.62539C10.1031 0.429688 10.4914 0.818359 10.4914 1.2957C10.4914 1.70625 10.2043 2.05039 9.8207 2.13945V5.18555C9.8207 7.12187 8.66094 8.85859 6.86562 9.61016C6.70547 9.67734 6.61328 9.81953 6.61328 10.0004C6.61328 10.1813 6.70508 10.3234 6.86562 10.3906C7.65039 10.7191 8.34219 11.2617 8.85625 11.9418C9.06211 10.9012 9.57031 9.94453 10.3371 9.17734C11.0445 8.46992 11.9133 7.98281 12.8605 7.75V7.14219C12.8605 6.725 13.2 6.38516 13.6176 6.38516H14.0336C14.2078 5.79766 14.1965 5.33125 13.9984 4.88477C13.9547 4.78633 13.9992 4.6707 14.0977 4.62695C14.1965 4.5832 14.3117 4.62773 14.3555 4.72617C14.5809 5.23438 14.6082 5.75352 14.4391 6.38477H14.7359C15.1531 6.38477 15.493 6.72422 15.493 7.1418V7.75664C16.4285 7.99219 17.2863 8.47656 17.9863 9.17656C19.0078 10.1984 19.5703 11.5566 19.5703 13.0012ZM13.2512 7.66875C13.5492 7.61836 13.8535 7.59258 14.1617 7.59258C14.4805 7.59258 14.7945 7.61992 15.1023 7.67344V7.14141C15.1023 6.93945 14.9379 6.775 14.7359 6.775H13.6176C13.4156 6.775 13.2512 6.93945 13.2512 7.14141V7.66875ZM1.2957 1.77148H9.62539C9.8875 1.77148 10.1008 1.5582 10.1008 1.29609C10.1008 1.03398 9.8875 0.820703 9.62539 0.820703H1.2957C1.03359 0.820312 0.820312 1.03359 0.820312 1.2957C0.820312 1.5582 1.03359 1.77148 1.2957 1.77148ZM9.62578 18.2285H1.2957C1.03359 18.2285 0.820312 18.4418 0.820312 18.7039C0.820312 18.966 1.03359 19.1797 1.2957 19.1797H9.62539C9.8875 19.1797 10.1008 18.9664 10.1008 18.7043C10.1008 18.4422 9.88789 18.2285 9.62578 18.2285ZM6.38086 8.45039C7.62734 7.92852 8.45937 6.76484 8.55508 5.44102C8.39023 5.48477 8.23437 5.52617 8.0875 5.56523C5.48555 6.25703 5.43672 6.25703 2.83477 5.56523C2.6875 5.52617 2.53203 5.48477 2.3668 5.44102C2.4625 6.76484 3.29453 7.92852 4.54102 8.45039C4.94219 8.61836 5.26328 8.93477 5.46094 9.3418C5.65859 8.93516 5.9793 8.61875 6.38086 8.45039ZM4.54063 15.1516C3.40742 15.6262 2.60508 16.6434 2.40547 17.8383H8.51562C8.31602 16.6434 7.51406 15.6262 6.38047 15.1516C5.97891 14.9836 5.6582 14.6672 5.46055 14.2602C5.26289 14.6668 4.94219 14.9832 4.54063 15.1516ZM9.43047 15.6258C8.98867 14.832 8.75352 13.9348 8.75352 13.0012C8.75352 12.8371 8.76133 12.6742 8.77539 12.5129C8.29102 11.7293 7.56211 11.1047 6.71523 10.75C6.41172 10.623 6.22305 10.3355 6.22305 9.99961C6.22305 9.66367 6.41172 9.37617 6.71523 9.24922C8.36445 8.55859 9.43047 6.96367 9.43047 5.18516V2.16172H1.49102V5.18516C1.49102 6.96367 2.55664 8.55898 4.20625 9.24922C4.50977 9.37617 4.69844 9.66367 4.69844 9.99961C4.69844 10.3355 4.50977 10.623 4.20625 10.75C2.55703 11.4406 1.49102 13.0355 1.49102 14.8141V17.8375H2.01016C2.21328 16.4828 3.11172 15.3254 4.38945 14.7906C4.84961 14.598 5.17578 14.1477 5.26484 13.5844V10.0164C5.17578 9.45313 4.84922 9.00273 4.38945 8.81016C2.91758 8.19414 1.96641 6.7707 1.96641 5.18477C1.96641 5.12422 1.99453 5.06719 2.04258 5.03008C2.09063 4.99297 2.15273 4.98047 2.21133 4.9957C2.47344 5.06445 2.71367 5.12852 2.93438 5.18711C5.46016 5.85859 5.46016 5.85859 7.98633 5.18711C8.20742 5.12852 8.44727 5.06445 8.70938 4.9957C8.76797 4.98047 8.83047 4.99297 8.87813 5.03008C8.92617 5.06719 8.9543 5.12422 8.9543 5.18477C8.9543 6.77109 8.00312 8.19414 6.53125 8.81016C6.07109 9.00273 5.74492 9.45313 5.65586 10.0164V13.5844C5.74492 14.1473 6.07148 14.5977 6.53125 14.7902C7.80937 15.3254 8.70781 16.4828 8.91055 17.8371H9.42969V15.6258H9.43047ZM19.1797 13.0012C19.1797 11.6609 18.6578 10.4008 17.7102 9.45312C16.7625 8.50547 15.5023 7.98359 14.1621 7.98359C12.8219 7.98359 11.5617 8.50547 10.6141 9.45312C9.66641 10.4008 9.14453 11.6609 9.14453 13.0012C9.14453 14.3414 9.66641 15.6016 10.6141 16.5492C11.5617 17.4969 12.8219 18.0187 14.1621 18.0187C15.5023 18.0187 16.7625 17.4969 17.7102 16.5492C18.6578 15.602 19.1797 14.3418 19.1797 13.0012ZM18.2137 13.0012C18.2137 15.2352 16.3961 17.0531 14.1617 17.0531C11.9273 17.0531 10.1102 15.2355 10.1102 13.0012C10.1102 10.7668 11.9277 8.94922 14.1617 8.94922C16.3957 8.94922 18.2137 10.7672 18.2137 13.0012ZM17.823 13.0012C17.823 10.9824 16.1809 9.33984 14.1617 9.33984C12.143 9.33984 10.5008 10.982 10.5008 13.0012C10.5008 15.0199 12.143 16.6625 14.1617 16.6625C16.1805 16.6625 17.823 15.0203 17.823 13.0012ZM17.3387 13.0012C17.3387 14.7531 15.9137 16.1781 14.1617 16.1781C12.4102 16.1781 10.9848 14.7531 10.9848 13.0012C10.9848 11.2492 12.4098 9.82422 14.1617 9.82422C15.9137 9.82461 17.3387 11.2496 17.3387 13.0012ZM16.948 13.0012C16.948 11.4648 15.698 10.2148 14.1617 10.2148C12.6254 10.2148 11.3754 11.4648 11.3754 13.0012C11.3754 14.5375 12.6254 15.7875 14.1617 15.7875C15.698 15.7875 16.948 14.5379 16.948 13.0012ZM16.4688 12.8066H16.3758C16.268 12.8066 16.1805 12.8941 16.1805 13.002C16.1805 13.1098 16.268 13.1973 16.3758 13.1973H16.4688C16.5766 13.1973 16.6641 13.1098 16.6641 13.002C16.6641 12.8941 16.5766 12.8066 16.4688 12.8066ZM14.1617 15.0207C14.0539 15.0207 13.9664 15.1082 13.9664 15.216V15.309C13.9664 15.4168 14.0539 15.5043 14.1617 15.5043C14.2695 15.5043 14.357 15.4168 14.357 15.309V15.216C14.357 15.1082 14.2695 15.0207 14.1617 15.0207ZM12.6691 11.2324C12.593 11.1562 12.4691 11.1562 12.393 11.2324C12.3168 11.3086 12.3168 11.4324 12.393 11.5086L12.4586 11.5742C12.4969 11.6125 12.5469 11.6313 12.5969 11.6313C12.6469 11.6313 12.6969 11.6121 12.7352 11.5742C12.8113 11.498 12.8113 11.3742 12.7352 11.298L12.6691 11.2324ZM15.8656 14.4293C15.7895 14.3531 15.6656 14.3531 15.5895 14.4293C15.5133 14.5055 15.5133 14.6293 15.5895 14.7055L15.6551 14.7711C15.6934 14.8094 15.7434 14.8281 15.7934 14.8281C15.8434 14.8281 15.8934 14.809 15.9316 14.7711C16.0078 14.6949 16.0078 14.5711 15.9316 14.4949L15.8656 14.4293ZM11.9484 12.8059H11.8555C11.7477 12.8059 11.6602 12.8934 11.6602 13.0012C11.6602 13.109 11.7477 13.1965 11.8555 13.1965H11.9484C12.0563 13.1965 12.1438 13.109 12.1438 13.0012C12.1438 12.8934 12.0563 12.8059 11.9484 12.8059ZM15.7273 11.6316C15.7773 11.6316 15.8273 11.6125 15.8656 11.5746L15.9312 11.509C16.0074 11.4328 16.0074 11.309 15.9312 11.2328C15.8551 11.1566 15.7312 11.1566 15.6551 11.2328L15.5895 11.2984C15.5133 11.3746 15.5133 11.4984 15.5895 11.5746C15.6273 11.6125 15.6773 11.6316 15.7273 11.6316ZM12.4586 14.4285L12.393 14.4941C12.3168 14.5703 12.3168 14.6941 12.393 14.7703C12.4313 14.8086 12.4812 14.8273 12.5312 14.8273C12.5812 14.8273 12.6312 14.8082 12.6695 14.7703L12.7352 14.7047C12.8113 14.6285 12.8113 14.5047 12.7352 14.4285C12.6586 14.352 12.5348 14.352 12.4586 14.4285ZM14.1617 10.9832C14.2695 10.9832 14.357 10.8957 14.357 10.7879V10.6949C14.357 10.5871 14.2695 10.4996 14.1617 10.4996C14.0539 10.4996 13.9664 10.5871 13.9664 10.6949V10.7879C13.9664 10.8957 14.0539 10.9832 14.1617 10.9832ZM14.5227 13.0863C14.5289 13.059 14.5328 13.0309 14.5328 13.0016C14.5328 12.8684 14.4625 12.752 14.357 12.6863V11.4453C14.357 11.3375 14.2695 11.25 14.1617 11.25C14.0539 11.25 13.9664 11.3375 13.9664 11.4453V12.6859C13.8609 12.7516 13.7906 12.868 13.7906 13.0012C13.7906 13.2062 13.9566 13.3723 14.1617 13.3723C14.191 13.3723 14.2191 13.3684 14.2465 13.3621L14.9484 14.0641C14.9867 14.1023 15.0363 14.1211 15.0867 14.1211C15.1367 14.1211 15.1867 14.102 15.225 14.0641C15.3012 13.9879 15.3012 13.8641 15.225 13.7879L14.5227 13.0863Z" fill="#FF000D"/>
</g>
<defs>
<clipPath id="clip0_1009_2971">
<rect width="20" height="20" fill="white"/>
</clipPath>
</defs>
</svg>
