<svg width="14" height="16" viewBox="0 0 14 16" fill="none" xmlns="http://www.w3.org/2000/svg">
<path d="M13.6895 12.5C13.599 13.2315 13.5595 13.5486 13.2217 14.2617L8.0332 15.333C8.15245 14.5623 8.31196 13.968 8.57031 13.6113L13.6895 12.5ZM6.46289 7.4541L8.01367 7.11816V2.21875C8.59127 1.57039 8.94632 1.27917 9.64355 0.911133V6.76367L13.6895 5.88574C13.599 6.6173 13.5595 6.93436 13.2217 7.64746L9.64355 8.40332V10.0488L13.6895 9.19336C13.599 9.92475 13.5595 10.242 13.2217 10.9551L9.64355 11.6934V11.709L8.01367 12.0459V8.74805L6.46289 9.0752V11.1543L6.43555 11.1592C6.07899 11.7844 5.5769 12.5362 5.0918 13.1357L0 14.1055C0.0456565 13.4503 0.140268 13.0808 0.436523 12.4209L4.83301 11.4678V9.41992L0.758789 10.2822C0.804459 9.6273 0.900076 9.25845 1.19629 8.59863L4.83301 7.80859V1.30762C5.41058 0.659274 5.76583 0.367979 6.46289 0V7.4541Z" fill="#513F15"/>
</svg>
