<svg width="40" height="35" viewBox="0 0 40 35" fill="none" xmlns="http://www.w3.org/2000/svg">
<path d="M20 0C8.972 0 0 5.682 0 12.6667C0.0139794 13.2785 0.08563 13.8876 0.214 14.486C0.832 18.214 3.2 26.7107 12 30V32.6667C12 32.8895 12.1113 33.0977 12.2967 33.2213C12.3853 33.28 14.528 34.6667 20 34.6667C25.472 34.6667 27.6147 33.28 27.7033 33.2213C27.8887 33.0977 28 32.8895 28 32.6667V30C36.8047 26.7127 39.1693 18.212 39.7867 14.486C39.9129 13.8873 39.9843 13.2783 40 12.6667C40 5.682 31.028 0 20 0ZM26.6667 32.2667C23.562 33.6947 16.4493 33.7 13.3333 32.2667V30.44C17.6971 31.6374 22.3029 31.6374 26.6667 30.44V32.2667ZM27.154 28.912C22.5064 30.3712 17.5235 30.3733 12.8747 28.918C8.2454 27.3471 4.56582 23.7811 2.85067 19.2033C10.554 27.3787 29.4773 27.3733 37.1647 19.1887C35.702 22.8207 32.8667 27.1227 27.154 28.9093V28.912ZM38.2207 15.108C36.344 20.2593 28.6807 24 20 24C11.3193 24 3.656 20.2593 1.778 15.1007C1.49021 14.3177 1.33978 13.4909 1.33333 12.6567C1.21 6.41333 9.71267 1.33333 20 1.33333C30.2873 1.33333 38.7853 6.41333 38.6667 12.6573C38.6607 13.493 38.5098 14.3213 38.2207 15.1053V15.108Z" fill="#141005"/>
<path d="M20 2.6665C9.63199 2.6665 0.697323 8.3765 3.03266 14.6492C4.69666 19.2198 11.9907 22.6665 20 22.6665C28.0093 22.6665 35.306 19.2118 36.972 14.6358C37.2092 14.0063 37.3316 13.3393 37.3333 12.6665C37.3333 7.24584 29.3953 2.6665 20 2.6665ZM20 3.99984C26.4213 3.99984 32.2467 6.2985 34.7333 9.4065C26.888 3.9765 13.1333 3.96784 5.27199 9.4065C7.75332 6.2985 13.5787 3.99984 20 3.99984ZM35.7213 14.1752C34.2353 18.2558 27.4767 21.3332 20 21.3332C12.5233 21.3332 5.76732 18.2665 4.28399 14.1885C4.03588 13.546 3.94935 12.8523 4.03199 12.1685C11.288 4.86984 28.662 4.81917 35.9653 12.1685C36.0486 12.8473 35.9648 13.5361 35.7213 14.1752Z" fill="#141005"/>
<path d="M8 14C8 14.3682 8.29848 14.6667 8.66667 14.6667C9.03486 14.6667 9.33333 14.3682 9.33333 14C9.33333 11.7467 13.6193 9.33333 20 9.33333C20.3682 9.33333 20.6667 9.03486 20.6667 8.66667C20.6667 8.29848 20.3682 8 20 8C13.2713 8 8 10.6353 8 14Z" fill="#141005"/>
<path d="M19.3333 19.3335C19.3333 19.7017 19.6317 20.0002 19.9999 20.0002C26.7286 20.0002 31.9999 17.3648 31.9999 14.0002C31.9999 13.632 31.7014 13.3335 31.3333 13.3335C30.9651 13.3335 30.6666 13.632 30.6666 14.0002C30.6666 16.2535 26.3806 18.6668 19.9999 18.6668C19.6317 18.6668 19.3333 18.9653 19.3333 19.3335Z" fill="#141005"/>
<path d="M20.6667 16.0002C20.6667 15.632 20.3683 15.3335 20.0001 15.3335C17.5187 15.3335 16.0001 14.4668 16.0001 14.0002C16.0001 13.632 15.7016 13.3335 15.3334 13.3335C14.9652 13.3335 14.6667 13.632 14.6667 14.0002C14.6667 15.7508 17.3494 16.6668 20.0001 16.6668C20.3683 16.6668 20.6667 16.3684 20.6667 16.0002Z" fill="#141005"/>
<path d="M19.3333 12.0002C19.3333 12.3684 19.6317 12.6668 19.9999 12.6668C22.4813 12.6668 23.9999 13.5335 23.9999 14.0002C23.9999 14.3684 24.2984 14.6668 24.6666 14.6668C25.0348 14.6668 25.3333 14.3684 25.3333 14.0002C25.3333 12.2495 22.6506 11.3335 19.9999 11.3335C19.6317 11.3335 19.3333 11.632 19.3333 12.0002Z" fill="#141005"/>
</svg>
