<svg width="24" height="8" viewBox="0 0 24 8" fill="none" xmlns="http://www.w3.org/2000/svg">
<path d="M20.2667 7.46663H3.73331C1.67147 7.46663 0 5.7952 0 3.73331C0 1.67142 1.67147 0 3.73331 0H20.2666C22.3285 0 24 1.67147 24 3.73331C24 5.79516 22.3285 7.46663 20.2667 7.46663ZM3.73331 0.533297C1.96612 0.533297 0.533297 1.96608 0.533297 3.73331C0.533297 5.50055 1.96608 6.93333 3.73331 6.93333H20.2666C22.0338 6.93333 23.4667 5.50055 23.4667 3.73331C23.4667 1.96608 22.0339 0.533297 20.2666 0.533297H3.73331Z" fill="#141005"/>
<path d="M5.59955 5.84046C5.53593 5.84046 5.47475 5.81527 5.42986 5.77013L4.46978 4.81004C4.37759 4.71477 4.38025 4.5628 4.47577 4.47066C4.56888 4.38087 4.71625 4.38087 4.80916 4.47066L5.76924 5.43074C5.86286 5.52458 5.86286 5.6765 5.76924 5.77013C5.72414 5.81527 5.66318 5.84046 5.59955 5.84046Z" fill="#141005"/>
<path d="M3.68011 5.36022C2.75222 5.36022 2 4.60801 2 3.68011C2 2.75222 2.75222 2 3.68011 2C4.60801 2 5.36022 2.75222 5.36022 3.68011C5.35925 4.60755 4.60754 5.3593 3.68011 5.36022ZM3.68011 2.48004C3.01742 2.48004 2.48004 3.01743 2.48004 3.68011C2.48004 4.3428 3.01742 4.88018 3.68011 4.88018C4.3428 4.88018 4.88018 4.3428 4.88018 3.68011C4.87946 3.01768 4.34255 2.48076 3.68011 2.48004Z" fill="#141005"/>
</svg>
