<svg width="16" height="16" viewBox="0 0 16 16" fill="none" xmlns="http://www.w3.org/2000/svg">
<path d="M12.775 3.2501C10.825 1.3001 7.65003 1.3001 5.70003 3.2501C3.87503 5.0751 3.75003 7.9751 5.35003 9.9501C4.42503 10.8751 3.50003 11.8001 2.55003 12.7501C2.40003 12.9001 2.25003 13.0501 2.12503 13.1751C1.67503 13.6251 2.37503 14.3501 2.82503 13.8751L5.90003 10.8001C5.95003 10.7501 6.00003 10.7001 6.07503 10.6251C7.00003 11.3751 8.12503 11.7501 9.25003 11.7501C10.525 11.7501 11.8 11.2751 12.775 10.3001C13.725 9.3501 14.25 8.1001 14.25 6.7751C14.225 5.4501 13.7 4.1751 12.775 3.2501ZM12.05 9.6001C10.5 11.1501 7.95003 11.1501 6.40003 9.6001C4.85003 8.0501 4.85003 5.5001 6.40003 3.9501C7.17503 3.1751 8.20003 2.7751 9.22503 2.7751C10.25 2.7751 11.275 3.1751 12.05 3.9501C12.8 4.7001 13.225 5.7001 13.225 6.7751C13.225 7.8501 12.825 8.8501 12.05 9.6001Z" fill="#666666"/>
<path d="M8.72493 4.37519V6.55019C8.24993 7.02519 7.74993 7.52519 7.27493 8.00019C6.82493 8.45019 7.52493 9.17519 7.97493 8.70019L9.42493 7.25019C9.49993 7.17519 9.59993 7.07519 9.67493 6.97519C9.74993 6.85019 9.72493 6.70019 9.72493 6.55019C9.72493 6.15019 9.72493 5.75019 9.72493 5.32519C9.72493 5.00019 9.72493 4.67519 9.72493 4.35019C9.72493 3.72519 8.72493 3.72519 8.72493 4.37519Z" fill="#666666"/>
</svg>
