<svg width="14" height="14" viewBox="0 0 14 14" fill="none" xmlns="http://www.w3.org/2000/svg">
<path fill-rule="evenodd" clip-rule="evenodd" d="M11.8701 0.987492C11.4638 1.06033 10.9089 1.24433 10.1001 1.51458L3.88047 3.58745C3.09176 3.85003 2.51963 4.04074 2.10276 4.20366C1.66959 4.37233 1.47984 4.48445 1.4003 4.56016C1.26058 4.69431 1.14942 4.85531 1.07348 5.0335C0.99754 5.21169 0.958396 5.40338 0.958396 5.59708C0.958396 5.79077 0.99754 5.98247 1.07348 6.16065C1.14942 6.33884 1.26058 6.49984 1.4003 6.63399C1.47984 6.71066 1.66959 6.82183 2.10276 6.99049C2.70273 7.21349 3.30759 7.42309 3.91688 7.61916C4.19672 7.71212 4.3903 7.77633 4.56568 7.86928C4.99046 8.09431 5.33773 8.44191 5.56234 8.86691C5.65626 9.04228 5.72047 9.23587 5.81343 9.5157L5.82588 9.55308C6.08847 10.3408 6.27918 10.9139 6.44209 11.3298C6.61076 11.763 6.72288 11.9527 6.79955 12.0323C6.93369 12.1719 7.09463 12.2829 7.27273 12.3587C7.45083 12.4346 7.64241 12.4737 7.83599 12.4737C8.02957 12.4737 8.22115 12.4346 8.39925 12.3587C8.57735 12.2829 8.73829 12.1719 8.87243 12.0323C8.94909 11.9527 9.06026 11.763 9.22893 11.3298C9.39184 10.9139 9.58351 10.3408 9.84513 9.55308L11.919 3.33253C12.1883 2.5237 12.3723 1.96787 12.4441 1.56249C12.517 1.15233 12.4451 1.05937 12.4087 1.02391C12.3732 0.987492 12.2803 0.914659 11.8701 0.987492ZM11.7024 0.0454502C12.1911 -0.0407998 12.7038 -0.036008 13.0872 0.346367C13.4696 0.7297 13.4743 1.24241 13.3881 1.73116C13.3018 2.21512 13.0948 2.83708 12.8418 3.59703L12.8275 3.63537L10.7546 9.85687L10.7498 9.87124C10.554 10.4786 10.3447 11.0815 10.1221 11.6796C9.95438 12.107 9.78668 12.4655 9.56339 12.6974C9.33981 12.9301 9.07151 13.1153 8.77459 13.2418C8.47767 13.3683 8.15825 13.4335 7.83551 13.4335C7.51276 13.4335 7.19335 13.3683 6.89643 13.2418C6.59951 13.1153 6.33121 12.9301 6.10763 12.6974C5.8853 12.4645 5.71663 12.107 5.54893 11.6796C5.37643 11.2378 5.17805 10.6417 4.92122 9.87124L4.91643 9.85687C4.80622 9.52624 4.76693 9.41316 4.71518 9.31637C4.58047 9.06123 4.3721 8.85253 4.11718 8.71741C4.02134 8.66662 3.9073 8.62733 3.57668 8.51616L3.5623 8.51233C2.95504 8.3162 2.3521 8.10692 1.75393 7.88462C1.32651 7.71691 0.968092 7.5492 0.736175 7.32591C0.503411 7.10233 0.318219 6.83404 0.191714 6.53712C0.0652096 6.2402 0 5.92078 0 5.59803C0 5.27529 0.0652096 4.95587 0.191714 4.65895C0.318219 4.36203 0.503411 4.09373 0.736175 3.87016C0.96905 3.64687 1.32651 3.47916 1.75393 3.31145C2.19572 3.13895 2.7918 2.94058 3.5623 2.68374L3.57668 2.67895L9.79722 0.606075L9.83651 0.592659C10.5965 0.339659 11.2184 0.132659 11.7024 0.0464089" fill="#FAF5EB"/>
</svg>
