<svg width="32" height="32" viewBox="0 0 32 32" fill="none" xmlns="http://www.w3.org/2000/svg">
<g clip-path="url(#clip0_423_1140)">
<path d="M19.6809 0.998211V0.514273C19.6809 0.307461 19.5131 0.139648 19.3063 0.139648C19.0995 0.139648 18.9316 0.307461 18.9316 0.514273V0.998211C18.9316 1.20502 19.0995 1.37284 19.3063 1.37284C19.5131 1.37284 19.6809 1.20502 19.6809 0.998211Z" fill="black"/>
<path d="M31.0602 16.1759C30.9003 15.6114 30.4957 15.1669 29.9513 14.9671C29.2819 14.7123 28.4577 14.8921 27.9482 15.4116L23.4274 19.9174C22.8779 19.1681 21.9538 18.7534 21.0047 18.8884L18.2622 19.283C17.3182 19.4179 16.369 19.253 15.5198 18.8085L15.4348 18.7635C13.6315 17.8144 11.4236 17.9942 9.80516 19.2181L5.83391 22.2252C5.14954 21.7057 4.11054 21.7457 3.4961 22.3651L0.983473 24.8777C0.913535 24.9477 0.873535 25.0426 0.873535 25.1425C0.873535 25.2424 0.913535 25.3373 0.983473 25.4072L7.32754 31.7513C7.47241 31.8962 7.70716 31.8962 7.85704 31.7513L10.3697 29.2387C10.9741 28.6292 11.049 27.6902 10.5945 27.0008L10.9641 26.6312C11.3238 26.2715 11.8682 26.1466 12.3528 26.3265L15.1701 27.3505C18.0374 28.3896 19.9257 26.7111 23.3973 25.6571C24.3065 25.3224 25.1157 24.7429 25.7252 23.9836L30.7255 17.7844C31.0952 17.3248 31.2151 16.7404 31.0602 16.1759ZM30.1412 17.3148L25.1458 23.514C24.6163 24.1684 23.922 24.6629 23.1377 24.9576C19.5511 26.0666 17.9427 27.5551 15.425 26.646L12.6076 25.622C11.8533 25.3472 10.9991 25.5371 10.4347 26.1016L10.09 26.4462L6.38847 22.7447L10.2548 19.8174C11.6435 18.7684 13.5417 18.6136 15.0853 19.4228L15.1702 19.4677C16.1593 19.9872 17.2682 20.1821 18.3722 20.0222L21.1097 19.6276C21.9089 19.5177 22.6832 19.9473 23.0178 20.6716C23.1078 20.8764 23.1078 21.1112 23.0128 21.311C22.9129 21.5208 22.7331 21.6707 22.5133 21.7256L17.3332 23.0794C17.1334 23.1343 17.0135 23.3391 17.0635 23.5389C17.1184 23.7387 17.3232 23.8586 17.523 23.8087L22.7032 22.455C23.1377 22.3401 23.4974 22.0404 23.6922 21.6307C23.8421 21.3111 23.8671 20.9564 23.7822 20.6217L28.4777 15.9411C28.7874 15.6264 29.277 15.5116 29.6866 15.6664C30.0063 15.7862 30.2461 16.046 30.336 16.3757C30.4308 16.7054 30.3559 17.0451 30.1412 17.3148Z" fill="black"/>
<path d="M25.6255 8.00855C24.9012 6.96955 23.7023 5.23618 23.6075 5.1113C23.5325 5.01636 23.4177 4.96643 23.3128 4.96643C18.2725 4.96143 20.1108 4.96143 15.3003 4.96143C15.1804 4.96143 15.0755 5.02136 15.0056 5.1113L14.9906 5.1263L12.9875 8.00855C12.8975 8.13343 12.9075 8.33324 12.9975 8.44811L19.0068 16.2807C19.1717 16.4906 19.4663 16.4556 19.6012 16.2807L25.6156 8.44811C25.7305 8.2983 25.6955 8.16843 25.6255 8.00855ZM14.0565 8.59805H17.0137L18.4923 14.3776L14.0565 8.59805ZM17.3034 7.56399L16.0146 5.71574H18.5872L17.3034 7.56399ZM22.5934 5.71574L21.3096 7.56399L20.0258 5.71574H22.5934ZM20.1207 14.3726L21.5993 8.59805H24.5565L20.1207 14.3726Z" fill="black"/>
<path d="M27.6862 9.26927C27.893 9.26927 28.0608 9.10146 28.0608 8.89464C28.0608 8.68783 27.893 8.52002 27.6862 8.52002H27.2027C26.9959 8.52002 26.8281 8.68783 26.8281 8.89464C26.8281 9.10146 26.9959 9.26927 27.2027 9.26927H27.6862Z" fill="black"/>
<path d="M11.4098 9.26829C11.6166 9.26829 11.7844 9.10048 11.7844 8.89367C11.7844 8.68686 11.6166 8.51904 11.4098 8.51904H10.9264C10.7196 8.51904 10.5518 8.68686 10.5518 8.89367C10.5518 9.10048 10.7196 9.26829 10.9264 9.26829H11.4098Z" fill="black"/>
<path d="M25.1547 3.57571L25.4966 3.23377C25.643 3.08739 25.643 2.85033 25.4966 2.70402C25.3502 2.55764 25.1132 2.55764 24.9669 2.70402L24.6249 3.04596C24.4785 3.19233 24.4785 3.42939 24.6249 3.57571C24.7713 3.72214 25.0083 3.72208 25.1547 3.57571Z" fill="black"/>
<path d="M13.4581 14.2128L13.1161 14.5547C12.9698 14.7011 12.9698 14.9382 13.1161 15.0845C13.2625 15.2309 13.4996 15.2309 13.6459 15.0845L13.9878 14.7426C14.1342 14.5962 14.1342 14.3591 13.9878 14.2128C13.8415 14.0664 13.6044 14.0664 13.4581 14.2128Z" fill="black"/>
<path d="M24.6249 14.2128C24.4785 14.3592 24.4785 14.5962 24.6249 14.7426L24.9669 15.0845C25.1132 15.2309 25.3503 15.2309 25.4966 15.0845C25.643 14.9381 25.643 14.7011 25.4966 14.5547L25.1547 14.2128C25.0084 14.0664 24.7713 14.0664 24.6249 14.2128Z" fill="black"/>
<path d="M13.9883 3.57522C14.1347 3.42884 14.1347 3.19178 13.9883 3.04547L13.6464 2.70353C13.5 2.55716 13.2629 2.55716 13.1166 2.70353C12.9702 2.84991 12.9702 3.08697 13.1166 3.23328L13.4586 3.57522C13.6049 3.72159 13.8419 3.72153 13.9883 3.57522Z" fill="black"/>
</g>
<defs>
<clipPath id="clip0_423_1140">
<rect width="32" height="32" fill="white"/>
</clipPath>
</defs>
</svg>
