<svg width="16" height="16" viewBox="0 0 16 16" fill="none" xmlns="http://www.w3.org/2000/svg">
<g clip-path="url(#clip0_1545_7144)">
<path d="M1.5 8.5H2.82884C2.77903 8.63859 2.77143 8.78883 2.80699 8.93173C2.84255 9.07464 2.91968 9.20379 3.02863 9.30287L5.08106 11.1841L5.08125 11.1839C5.08297 11.1855 5.08437 11.1873 5.08628 11.1888L8.32981 14H8.25C8.1837 14 8.12011 14.0263 8.07322 14.0732C8.02634 14.1201 8 14.1837 8 14.25V15.25C8 15.3163 8.02634 15.3799 8.07322 15.4268C8.12011 15.4737 8.1837 15.5 8.25 15.5H11.25C11.3163 15.5 11.3799 15.4737 11.4268 15.4268C11.4737 15.3799 11.5 15.3163 11.5 15.25V14.25C11.5 14.1837 11.4737 14.1201 11.4268 14.0732C11.3799 14.0263 11.3163 14 11.25 14V13.6035L11.3839 13.4697C11.5003 13.3539 11.5926 13.2161 11.6555 13.0644C11.7183 12.9127 11.7505 12.75 11.75 12.5858V11.0542L12.6562 9.06041C12.7369 8.88386 12.7456 8.68285 12.6805 8.5H14.5C14.6988 8.49977 14.8895 8.42068 15.0301 8.28007C15.1707 8.13947 15.2498 7.94884 15.25 7.75V7.25C15.25 7.1837 15.2237 7.12011 15.1768 7.07322C15.1299 7.02634 15.0663 7 15 7H14V6.75C14 3.85512 11.6449 1.5 8.75 1.5V1H9C9.0663 1 9.12989 0.973661 9.17678 0.926777C9.22366 0.879893 9.25 0.816304 9.25 0.75C9.25 0.683696 9.22366 0.620107 9.17678 0.573223C9.12989 0.526339 9.0663 0.5 9 0.5H7C6.9337 0.5 6.87011 0.526339 6.82322 0.573223C6.77634 0.620107 6.75 0.683696 6.75 0.75C6.75 0.816304 6.77634 0.879893 6.82322 0.926777C6.87011 0.973661 6.9337 1 7 1H7.25V1.5C4.35512 1.5 2 3.85512 2 6.75V7H1C0.933696 7 0.870107 7.02634 0.823223 7.07322C0.776339 7.12011 0.75 7.1837 0.75 7.25V7.75C0.750232 7.94884 0.829324 8.13947 0.969926 8.28007C1.11053 8.42068 1.30116 8.49977 1.5 8.5ZM3.30241 8.65938C3.32 8.61198 3.35185 8.5712 3.39358 8.54266C3.43531 8.51412 3.48486 8.49921 3.53541 8.5H3.67812C3.72611 8.50006 3.77307 8.5139 3.81342 8.53988C3.85377 8.56586 3.8858 8.60287 3.90572 8.64653L4.09366 9.05997V9.06034L4.51491 9.98706L3.36647 8.93437C3.32866 8.90079 3.30219 8.85631 3.29072 8.80706C3.27925 8.75781 3.28333 8.70621 3.30241 8.65938ZM11 15H8.5V14.5H11V15ZM12.1837 8.61466C12.2067 8.64967 12.2204 8.68999 12.2234 8.73178C12.2265 8.77358 12.2188 8.81545 12.2011 8.85344L11.2724 10.8965C11.2576 10.929 11.25 10.9643 11.25 11V12.5858C11.2503 12.6843 11.231 12.7819 11.1933 12.873C11.1556 12.964 11.1002 13.0466 11.0303 13.1161L10.8232 13.3232C10.8 13.3464 10.7816 13.374 10.769 13.4043C10.7565 13.4347 10.75 13.4672 10.75 13.5V14H9.09325L5.455 10.8469L4.54875 8.85347C4.53143 8.81537 4.52395 8.77354 4.527 8.73181C4.53004 8.69007 4.54351 8.64977 4.56618 8.61459C4.58885 8.57942 4.61998 8.55049 4.65672 8.53047C4.69347 8.51045 4.73465 8.49997 4.7765 8.5H4.94097C4.98743 8.49984 5.03301 8.5127 5.07254 8.53712C5.11206 8.56155 5.14396 8.59656 5.16459 8.63819L6.02641 10.3618C6.05379 10.4166 6.10031 10.4594 6.15716 10.4821L8.65716 11.4821C8.70595 11.5016 8.75965 11.5053 8.81063 11.4925L9.81063 11.2425C9.84415 11.2342 9.87558 11.2189 9.90292 11.1978C9.93026 11.1766 9.95292 11.1501 9.96947 11.1197L11.3273 8.63028C11.3489 8.59085 11.3806 8.55793 11.4192 8.53501C11.4579 8.51208 11.502 8.49999 11.5469 8.5H11.9736C12.0155 8.49962 12.0568 8.50995 12.0935 8.53001C12.1303 8.55008 12.1613 8.57922 12.1837 8.61466ZM5.6545 8.5H10.8289L9.58303 10.7841L8.76778 10.9878L6.43125 10.0531L5.6545 8.5ZM7.75 1H8.25V1.5H7.75V1ZM2.5 6.75C2.5 4.13084 4.63084 2 7.25 2H8.75C11.3692 2 13.5 4.13084 13.5 6.75V7H2.5V6.75ZM1.25 7.5H14.75V7.75C14.7499 7.81628 14.7236 7.87983 14.6767 7.92669C14.6298 7.97356 14.5663 7.99993 14.5 8H1.5C1.43372 7.99993 1.37017 7.97356 1.32331 7.92669C1.27644 7.87983 1.25007 7.81628 1.25 7.75V7.5Z" fill="#141005"/>
</g>
<defs>
<clipPath id="clip0_1545_7144">
<rect width="16" height="16" fill="white"/>
</clipPath>
</defs>
</svg>
