<svg width="32" height="32" viewBox="0 0 32 32" fill="none" xmlns="http://www.w3.org/2000/svg">
<g clip-path="url(#clip0_423_1141)">
<path d="M19.682 0.997297V0.513359C19.682 0.306484 19.5142 0.138672 19.3073 0.138672C19.1004 0.138672 18.9326 0.306484 18.9326 0.513359V0.997297C18.9326 1.20417 19.1004 1.37198 19.3073 1.37198C19.5142 1.37198 19.682 1.20417 19.682 0.997297Z" fill="black"/>
<path d="M5.8327 22.2252C5.14869 21.7056 4.1127 21.7475 3.49526 22.3654L0.98182 24.8783C0.91157 24.9486 0.87207 25.0437 0.87207 25.1432C0.87207 25.2427 0.91157 25.3378 0.98182 25.4081L7.32538 31.7512C7.47182 31.8976 7.70882 31.8976 7.8552 31.7512L10.3681 29.2383C10.9746 28.6318 11.0495 27.6918 10.5933 27.0027L10.9638 26.6321C11.3258 26.2701 11.8708 26.1487 12.3542 26.3253L15.1721 27.3493C18.0397 28.3902 19.9263 26.7132 23.3983 25.6598C24.3096 25.3213 25.115 24.7426 25.7278 23.985L30.7288 17.7849C31.0961 17.3268 31.2171 16.7399 31.0605 16.1745C30.9039 15.61 30.498 15.1695 29.9516 14.9675C29.2857 14.7114 28.4583 14.8934 27.949 15.4115L23.4302 19.9162C22.8813 19.1691 21.9543 18.753 21.0063 18.8879L18.2646 19.2826C17.3181 19.4168 16.3688 19.2533 15.5199 18.8074L15.4345 18.762C13.6343 17.8146 11.4243 17.9936 9.8037 19.2196L5.8327 22.2252ZM9.83838 28.7085L7.59032 30.9566L1.77657 25.1433L4.02507 22.8952C4.41245 22.5064 5.08907 22.5069 5.47645 22.8952L9.83838 27.2566C10.2384 27.6572 10.2384 28.308 9.83838 28.7085ZM15.0848 19.4251L15.1706 19.4705C16.1605 19.9901 17.2669 20.1808 18.3704 20.0242L21.1127 19.6295C21.9084 19.5163 22.6856 19.9461 23.0173 20.674C23.1109 20.8765 23.1094 21.1096 23.0134 21.3131C22.9158 21.5195 22.7338 21.6707 22.5138 21.7287L17.3333 23.0825C17.1328 23.1347 17.0132 23.3396 17.0654 23.5396C17.1178 23.7404 17.3234 23.8596 17.5226 23.8075L22.7036 22.4536C23.1388 22.339 23.4988 22.04 23.691 21.6326C23.8422 21.3125 23.8701 20.9558 23.785 20.6205L28.4808 15.9398C28.7891 15.6251 29.2765 15.5105 29.6873 15.6686C30.0098 15.7881 30.2473 16.0452 30.3386 16.375C30.4303 16.7048 30.3591 17.0478 30.1449 17.3152L25.1449 23.5143C24.617 24.1671 23.9228 24.6657 23.1369 24.9579C19.5518 26.0686 17.9443 27.5567 15.4278 26.6449L12.6099 25.6209C11.8538 25.3462 11.0005 25.536 10.4341 26.1024L10.0889 26.4476L6.38638 22.7454L10.2556 19.8174C11.6459 18.7665 13.5412 18.6128 15.0848 19.4251Z" fill="black"/>
<path d="M12.9979 8.44966L19.0088 16.2807C19.1701 16.4915 19.4667 16.4578 19.603 16.2807L25.6168 8.44966C25.7318 8.29998 25.6976 8.17035 25.6275 8.0101C24.9036 6.97123 23.7031 5.23473 23.6083 5.11304C23.5332 5.01723 23.4178 4.96735 23.316 4.96735C18.2751 4.96241 20.1098 4.96348 15.2996 4.96348C15.2991 4.96348 15.2991 4.96348 15.2991 4.96348C15.1815 4.96348 15.0746 5.02079 15.0046 5.11198C15.0005 5.11723 14.9936 5.11891 14.9898 5.12447L12.9871 8.00623C12.8977 8.13429 12.9073 8.33173 12.9979 8.44966ZM17.0129 8.59823L18.4911 14.3759L14.055 8.5961C14.1063 8.5961 17.2109 8.59835 17.0129 8.59823ZM24.6011 7.84666C24.5506 7.84666 21.8624 7.8456 22.032 7.84566L23.3161 5.99773L24.6011 7.84666ZM18.0237 7.84573L19.3079 5.99779L20.5929 7.84673C20.5424 7.84666 17.8542 7.84566 18.0237 7.84573ZM20.8284 8.59804L19.3068 14.541L17.7857 8.59604C17.837 8.59604 21.0264 8.59816 20.8284 8.59804ZM21.6022 8.59604C21.6535 8.59604 24.7562 8.59785 24.5583 8.59773L20.1236 14.3724L21.6022 8.59604ZM22.595 5.71623L21.3108 7.56416L20.0245 5.71329L22.595 5.71623ZM18.5868 5.71623L17.3026 7.56416L16.0162 5.71329L18.5868 5.71623ZM15.2976 5.99479L16.5847 7.84666C16.5341 7.84666 13.8416 7.8456 14.0111 7.84566L15.2976 5.99479Z" fill="black"/>
<path d="M27.6877 9.26891C27.8946 9.26891 28.0624 9.10109 28.0624 8.89422C28.0624 8.68734 27.8946 8.51953 27.6877 8.51953H27.2043C26.9974 8.51953 26.8296 8.68734 26.8296 8.89422C26.8296 9.10109 26.9974 9.26891 27.2043 9.26891H27.6877Z" fill="black"/>
<path d="M11.4104 9.26842C11.6172 9.26842 11.7851 9.10061 11.7851 8.89373C11.7851 8.68686 11.6172 8.51904 11.4104 8.51904H10.9269C10.7201 8.51904 10.5522 8.68686 10.5522 8.89373C10.5522 9.10061 10.7201 9.26842 10.9269 9.26842H11.4104Z" fill="black"/>
<path d="M25.1562 3.57534L25.4982 3.23334C25.6446 3.08697 25.6446 2.84991 25.4982 2.70353C25.3518 2.55716 25.1148 2.55716 24.9684 2.70353L24.6264 3.04553C24.48 3.19191 24.48 3.42897 24.6264 3.57534C24.7728 3.72172 25.0098 3.72166 25.1562 3.57534Z" fill="black"/>
<path d="M13.4581 14.2128L13.1161 14.5548C12.9698 14.7012 12.9698 14.9382 13.1161 15.0846C13.2626 15.2311 13.4996 15.231 13.6459 15.0846L13.9879 14.7426C14.1343 14.5962 14.1343 14.3592 13.9879 14.2128C13.8416 14.0664 13.6045 14.0664 13.4581 14.2128Z" fill="black"/>
<path d="M24.6264 14.2128C24.48 14.3592 24.48 14.5962 24.6264 14.7426L24.9684 15.0846C25.1148 15.2311 25.3518 15.231 25.4982 15.0846C25.6446 14.9382 25.6446 14.7012 25.4982 14.5548L25.1562 14.2128C25.0098 14.0664 24.7728 14.0664 24.6264 14.2128Z" fill="black"/>
<path d="M13.9884 3.57486C14.1348 3.42848 14.1348 3.19142 13.9884 3.04504L13.6464 2.70304C13.5001 2.55667 13.263 2.55667 13.1166 2.70304C12.9702 2.84942 12.9702 3.08648 13.1166 3.23286L13.4586 3.57486C13.6051 3.72123 13.8421 3.72123 13.9884 3.57486Z" fill="black"/>
</g>
<defs>
<clipPath id="clip0_423_1141">
<rect width="32" height="32" fill="white"/>
</clipPath>
</defs>
</svg>
