<svg width="16" height="16" viewBox="0 0 16 16" fill="none" xmlns="http://www.w3.org/2000/svg">
<g clip-path="url(#clip0_6013_41193)">
<path d="M15.0161 9.58494L14.8064 9.58653C14.7756 8.26382 14.3059 6.97522 13.4707 5.94497C12.6826 4.97488 11.6052 4.2745 10.406 3.94141C10.3833 3.61478 10.2631 3.32882 10.0226 3.02982C9.61306 2.51957 8.94193 2.2661 8.25621 2.42044C7.86137 2.51144 7.50062 2.73241 7.239 3.04603C7.00499 3.32716 6.85715 3.67816 6.8149 4.04213C5.68878 4.41425 4.67156 5.09672 3.90618 6.00672C3.04171 7.03532 2.51846 8.32878 2.41937 9.66775L2.18703 9.66938C1.67024 9.67425 1.25106 10.0984 1.2559 10.6151C1.25915 11.1302 1.68003 11.5478 2.19999 11.5478L2.95074 11.5429C2.81912 12.2059 3.10021 12.9355 3.65271 13.3223C4.25396 13.7431 5.10868 13.7237 5.68393 13.267C6.19581 12.8608 6.41843 12.1442 6.25106 11.5218L11.1065 11.4893C10.9488 12.1669 11.2283 12.9258 11.7954 13.3223C12.3983 13.7431 13.2514 13.7237 13.8267 13.267C14.3548 12.8494 14.5742 12.1036 14.3792 11.4682L15.0308 11.4633C15.5475 11.4601 15.9667 11.0359 15.9619 10.5192C15.9585 10.0042 15.5377 9.58494 15.0161 9.58494ZM7.48921 3.25407C7.70371 2.99569 8.00271 2.81207 8.32771 2.73894C8.88509 2.61219 9.43431 2.81532 9.76906 3.23457C9.93968 3.44582 10.0356 3.64244 10.0697 3.85853C10.0534 3.85532 10.0388 3.85041 10.0226 3.84716C9.17593 3.67329 8.27246 3.68303 7.41121 3.87641C7.32671 3.89594 7.24384 3.91541 7.16096 3.93819C7.21296 3.68794 7.32509 3.45069 7.48921 3.25407ZM5.48074 13.012C5.02578 13.3743 4.32053 13.3922 3.83953 13.0558C3.32443 12.6967 3.07743 11.9493 3.36181 11.322C3.54703 10.9223 3.96956 10.4884 4.41478 10.4884C4.55774 10.49 4.75278 10.5469 4.88762 10.5989C5.66599 10.8995 5.86096 11.4114 5.87562 11.4277V11.4293C6.10962 11.9558 5.93734 12.6512 5.48074 13.012ZM13.6251 13.012C13.1701 13.3743 12.4632 13.3922 11.9822 13.0558C11.5012 12.7195 11.2721 12.0614 11.4395 11.4927C11.5792 11.0149 12.1187 10.4234 12.6371 10.4933C13.1587 10.5632 13.8103 10.958 14.0199 11.4293C14.2539 11.9558 14.0801 12.6512 13.6251 13.012ZM2.74593 9.66619C2.84343 8.40522 3.34065 7.18488 4.15478 6.21638C5.0144 5.19591 6.20062 4.48091 7.48109 4.19329C8.29846 4.00969 9.15481 4.00157 9.95593 4.16566C11.2185 4.42728 12.4064 5.14879 13.2172 6.14972C13.994 7.10844 14.4506 8.35319 14.4814 9.58816L2.74593 9.66619Z" fill="#141005"/>
<path d="M10.0199 4.81111C8.83658 4.50167 7.53471 4.6483 6.44896 5.21371C5.36367 5.77911 4.49742 6.76155 4.07246 7.90902C4.05689 7.95114 4.07833 7.99789 4.12039 8.01342C4.16192 8.02889 4.20917 8.00796 4.2248 7.96549C4.63596 6.85524 5.47399 5.90477 6.52417 5.35777C7.57405 4.81102 8.83324 4.66874 9.97896 4.96836C10.022 4.97939 10.0666 4.95361 10.078 4.91027C10.0895 4.86689 10.0634 4.82246 10.0199 4.81111Z" fill="#141005"/>
<path d="M8.86857 5.24921C8.86826 5.24921 8.86795 5.24921 8.86764 5.24921C7.35423 5.26793 5.86067 6.03955 4.96964 7.26311C4.94329 7.29936 4.95123 7.35024 4.98757 7.37664C5.0241 7.40314 5.07479 7.39489 5.10104 7.3588C5.96239 6.17586 7.40645 5.4298 8.86957 5.41171C8.91448 5.41114 8.95035 5.37433 8.94985 5.32943C8.94935 5.28493 8.91301 5.24921 8.86857 5.24921Z" fill="#141005"/>
<path d="M4.92016 7.53171C4.88048 7.51202 4.83129 7.52837 4.81148 7.56862L4.66563 7.86387C4.64579 7.90409 4.66229 7.9528 4.70244 7.97274C4.74294 7.99271 4.7916 7.97587 4.81132 7.93593L4.95716 7.64052C4.97697 7.60027 4.96048 7.55155 4.92016 7.53171Z" fill="#141005"/>
<path d="M4.10466 3.27887L1.2697 3.33331C1.18004 3.33506 1.10863 3.40915 1.11038 3.4989C1.11213 3.58762 1.18448 3.65831 1.27288 3.65831H1.27607L4.11104 3.60387C4.2007 3.60212 4.2721 3.52803 4.27035 3.43828C4.2686 3.34956 4.19626 3.27887 4.10785 3.27887C4.10688 3.27887 4.10579 3.27887 4.10466 3.27887Z" fill="#141005"/>
<path d="M3.14263 4.76046C3.13897 4.6708 3.06519 4.60083 2.97363 4.60471L0.193909 4.71761C0.104252 4.72127 0.0345962 4.79686 0.0382212 4.88655C0.0417212 4.97399 0.113752 5.04246 0.200409 5.04246C0.202627 5.04246 0.204846 5.04236 0.207221 5.0423L2.98697 4.92939C3.07663 4.92574 3.14628 4.85011 3.14263 4.76046Z" fill="#141005"/>
<path d="M3.22415 6.14858C3.22271 6.0598 3.15021 5.98877 3.06165 5.98877C3.06086 5.98877 3.0599 5.98877 3.05896 5.98877L1.13249 6.02068C1.04283 6.02218 0.97127 6.09614 0.972677 6.18586C0.974114 6.27464 1.04661 6.34568 1.13518 6.34568H1.13786L3.06433 6.31377C3.15402 6.31227 3.22558 6.23833 3.22415 6.14858Z" fill="#141005"/>
<path d="M5.49194 11.923C5.44719 11.9263 5.41354 11.9654 5.41688 12.01C5.4426 12.3523 5.16963 12.7052 4.82101 12.7806C4.47697 12.8553 4.09166 12.6776 3.90632 12.3585C3.72922 12.0533 3.74238 11.6361 3.93916 11.3205C3.96282 11.2824 3.95122 11.2323 3.91313 11.2085C3.87554 11.1851 3.82507 11.1963 3.8011 11.2345C3.57354 11.5999 3.55926 12.0843 3.76572 12.44C3.98447 12.8165 4.44129 13.0287 4.85529 12.9394C5.28629 12.8462 5.61097 12.4239 5.57907 11.9979C5.57557 11.9531 5.53479 11.92 5.49194 11.923Z" fill="#141005"/>
<path d="M13.5459 11.2611C13.5054 11.2806 13.4886 11.3292 13.5081 11.3696C13.6438 11.6494 13.626 12.0012 13.4626 12.2659C13.1102 12.8362 12.2674 12.8637 11.8894 12.2866C11.8646 12.2489 11.8138 12.2387 11.777 12.2631C11.7394 12.2877 11.7289 12.3381 11.7535 12.3756C12.1933 13.0476 13.1817 13.0297 13.601 12.3512C13.7928 12.0405 13.8138 11.6273 13.6544 11.2987C13.6349 11.2583 13.5864 11.2416 13.5459 11.2611Z" fill="#141005"/>
</g>
<defs>
<clipPath id="clip0_6013_41193">
<rect width="16" height="16" fill="white"/>
</clipPath>
</defs>
</svg>
