<svg width="21" height="21" viewBox="0 0 21 21" fill="none" xmlns="http://www.w3.org/2000/svg">
<mask id="path-1-outside-1_293_1565" maskUnits="userSpaceOnUse" x="-0.800781" y="-0.799805" width="22" height="22" fill="black">
<rect fill="white" x="-0.800781" y="-0.799805" width="22" height="22"/>
<path d="M19.0242 7.70019H18.5442C18.4098 7.70283 18.2779 7.6639 18.1665 7.58872C18.0551 7.51354 17.9696 7.40579 17.9217 7.2802C17.8659 7.15561 17.8497 7.01692 17.8752 6.88281C17.9006 6.74871 17.9666 6.62564 18.0642 6.5302L18.4017 6.1927C18.5505 6.04731 18.6683 5.8734 18.7482 5.68138C18.8281 5.48935 18.8684 5.28317 18.8667 5.07519C18.869 4.86935 18.8289 4.66524 18.7489 4.47557C18.6689 4.2859 18.5507 4.11472 18.4017 3.97269L16.8192 2.3977C16.6747 2.24987 16.502 2.13255 16.3114 2.05267C16.1207 1.9728 15.9159 1.932 15.7092 1.9327C15.5025 1.932 15.2977 1.9728 15.1071 2.05267C14.9164 2.13255 14.7437 2.24987 14.5992 2.3977L14.2617 2.7352C14.1663 2.83279 14.0432 2.89877 13.9091 2.92425C13.775 2.94973 13.6363 2.93348 13.5117 2.87769C13.3861 2.82983 13.2784 2.74434 13.2032 2.63292C13.128 2.5215 13.0891 2.38958 13.0917 2.25519V1.7752C13.0917 1.35748 12.9258 0.956872 12.6304 0.661502C12.335 0.366132 11.9344 0.200195 11.5167 0.200195H9.26672C8.849 0.200195 8.44839 0.366132 8.15303 0.661502C7.85766 0.956872 7.69172 1.35748 7.69172 1.7752V2.25519C7.69435 2.38958 7.65542 2.5215 7.58024 2.63292C7.50507 2.74434 7.39732 2.82983 7.27172 2.87769C7.14713 2.93348 7.00844 2.94973 6.87434 2.92425C6.74023 2.89877 6.61716 2.83279 6.52172 2.7352L6.18422 2.3977C6.03972 2.24987 5.86702 2.13255 5.67636 2.05267C5.48569 1.9728 5.28094 1.932 5.07422 1.9327C4.86838 1.9304 4.66427 1.97051 4.4746 2.0505C4.28492 2.1305 4.11374 2.24868 3.97172 2.3977L2.39672 3.9802C2.24612 4.12631 2.12639 4.30118 2.04463 4.49442C1.96287 4.68767 1.92075 4.89536 1.92075 5.10519C1.92075 5.31503 1.96287 5.52272 2.04463 5.71597C2.12639 5.90921 2.24612 6.08408 2.39672 6.23019L2.73422 6.56769C2.83181 6.66314 2.89779 6.78621 2.92327 6.92031C2.94875 7.05442 2.9325 7.19311 2.87672 7.31769C2.82885 7.44329 2.74336 7.55104 2.63194 7.62622C2.52052 7.70139 2.3886 7.74033 2.25422 7.73769H1.77422C1.3565 7.73769 0.955895 7.90363 0.660525 8.199C0.365156 8.49437 0.199219 8.89498 0.199219 9.31269V11.5627C0.199219 11.9804 0.365156 12.381 0.660525 12.6764C0.955895 12.9718 1.3565 13.1377 1.77422 13.1377H2.25422C2.3886 13.1351 2.52052 13.174 2.63194 13.2492C2.74336 13.3243 2.82885 13.4321 2.87672 13.5577C2.9325 13.6823 2.94875 13.821 2.92327 13.9551C2.89779 14.0892 2.83181 14.2123 2.73422 14.3077L2.39672 14.6452C2.24798 14.7906 2.13013 14.9645 2.05023 15.1565C1.97033 15.3485 1.93002 15.5547 1.93172 15.7627C1.92943 15.9685 1.96953 16.1726 2.04953 16.3623C2.12953 16.552 2.24771 16.7232 2.39672 16.8652L3.97922 18.4552C4.12372 18.603 4.29642 18.7203 4.48708 18.8002C4.67775 18.8801 4.8825 18.9209 5.08922 18.9202C5.29594 18.9209 5.50069 18.8801 5.69135 18.8002C5.88202 18.7203 6.05472 18.603 6.19922 18.4552L6.53672 18.1177C6.63248 18.0258 6.75297 17.9638 6.88344 17.9393C7.0139 17.9148 7.14867 17.9289 7.27125 17.9798C7.39383 18.0308 7.49889 18.1164 7.57357 18.2261C7.64825 18.3358 7.68931 18.465 7.69172 18.5977V19.0777C7.69172 19.4954 7.85766 19.896 8.15303 20.1914C8.44839 20.4868 8.849 20.6527 9.26672 20.6527H11.5167C11.9344 20.6527 12.335 20.4868 12.6304 20.1914C12.9258 19.896 13.0917 19.4954 13.0917 19.0777V18.5977C13.0941 18.465 13.1352 18.3358 13.2099 18.2261C13.2845 18.1164 13.3896 18.0308 13.5122 17.9798C13.6348 17.9289 13.7695 17.9148 13.9 17.9393C14.0305 17.9638 14.151 18.0258 14.2467 18.1177L14.5842 18.4552C14.7287 18.603 14.9014 18.7203 15.0921 18.8002C15.2827 18.8801 15.4875 18.9209 15.6942 18.9202C15.9001 18.9225 16.1042 18.8824 16.2938 18.8024C16.4835 18.7224 16.6547 18.6042 16.7967 18.4552L18.3867 16.8727C18.5373 16.7266 18.657 16.5517 18.7388 16.3585C18.8206 16.1652 18.8627 15.9575 18.8627 15.7477C18.8627 15.5379 18.8206 15.3302 18.7388 15.1369C18.657 14.9437 18.5373 14.7688 18.3867 14.6227L18.0492 14.2852C17.9516 14.1898 17.8856 14.0667 17.8602 13.9326C17.8347 13.7985 17.8509 13.6598 17.9067 13.5352C17.9546 13.4096 18.0401 13.3018 18.1515 13.2267C18.2629 13.1515 18.3948 13.1126 18.5292 13.1152H19.0092C19.4269 13.1152 19.8275 12.9493 20.1229 12.6539C20.4183 12.3585 20.5842 11.9579 20.5842 11.5402V9.2902C20.5862 9.08336 20.5474 8.87816 20.4701 8.68631C20.3928 8.49447 20.2784 8.31973 20.1335 8.17209C19.9887 8.02444 19.8162 7.90677 19.6258 7.82581C19.4355 7.74484 19.2311 7.70216 19.0242 7.70019ZM19.6992 11.5252C19.6992 11.7042 19.6281 11.8759 19.5015 12.0025C19.3749 12.1291 19.2032 12.2002 19.0242 12.2002H18.5442C18.2317 12.1974 17.9257 12.289 17.6661 12.4629C17.4065 12.6369 17.2054 12.8851 17.0892 13.1752C16.9578 13.4624 16.9203 13.7838 16.9823 14.0936C17.0442 14.4033 17.2024 14.6856 17.4342 14.9002L17.7717 15.2377C17.8984 15.3681 17.9685 15.5433 17.9667 15.7252C17.9669 15.8129 17.9497 15.8998 17.9162 15.9809C17.8828 16.0619 17.8337 16.1356 17.7717 16.1977L16.1742 17.7727C16.114 17.8351 16.0418 17.8846 15.9618 17.9181C15.8819 17.9517 15.7959 17.9685 15.7092 17.9677C15.53 17.9675 15.3578 17.8976 15.2292 17.7727L14.8992 17.4352C14.679 17.2164 14.399 17.0676 14.0945 17.0074C13.7899 16.9472 13.4744 16.9784 13.1875 17.097C12.9006 17.2156 12.6551 17.4164 12.482 17.674C12.3088 17.9317 12.2157 18.2348 12.2142 18.5452V19.0252C12.2142 19.2042 12.1431 19.3759 12.0165 19.5025C11.8899 19.6291 11.7182 19.7002 11.5392 19.7002H9.28922C9.1102 19.7002 8.93851 19.6291 8.81192 19.5025C8.68533 19.3759 8.61422 19.2042 8.61422 19.0252V18.5452C8.61223 18.1268 8.44463 17.7262 8.14807 17.431C7.85151 17.1359 7.45013 16.9702 7.03172 16.9702C6.82588 16.9679 6.62177 17.008 6.43209 17.088C6.24242 17.168 6.07124 17.2862 5.92922 17.4352L5.59172 17.7727C5.52868 17.8376 5.45269 17.8884 5.36871 17.922C5.28472 17.9556 5.19461 17.9712 5.10422 17.9677C5.01651 17.9678 4.92964 17.9507 4.84856 17.9172C4.76749 17.8838 4.6938 17.8346 4.63172 17.7727L3.02672 16.1752C2.9643 16.115 2.91482 16.0427 2.88129 15.9628C2.84776 15.8828 2.83089 15.7969 2.83172 15.7102C2.82994 15.5283 2.90002 15.3531 3.02672 15.2227L3.36422 14.9002C3.59284 14.6867 3.749 14.4071 3.81086 14.1005C3.87272 13.7939 3.83718 13.4756 3.70922 13.1902C3.59299 12.9001 3.39193 12.6519 3.13234 12.4779C2.87274 12.304 2.5667 12.2124 2.25422 12.2152H1.77422C1.5952 12.2152 1.42351 12.1441 1.29692 12.0175C1.17033 11.8909 1.09922 11.7192 1.09922 11.5402V9.2902C1.09922 9.11117 1.17033 8.93948 1.29692 8.8129C1.42351 8.68631 1.5952 8.61519 1.77422 8.61519H2.25422C2.5667 8.61799 2.87274 8.52642 3.13234 8.35246C3.39193 8.17851 3.59299 7.93027 3.70922 7.64019C3.8442 7.35117 3.88353 7.02663 3.82149 6.71373C3.75945 6.40083 3.59927 6.11585 3.36422 5.90019L3.02672 5.5627C2.90002 5.43224 2.82994 5.25704 2.83172 5.07519C2.83159 4.98749 2.84874 4.90061 2.8822 4.81954C2.91566 4.73846 2.96477 4.66478 3.02672 4.6027L4.62422 3.0277C4.68158 2.9597 4.75445 2.9065 4.83668 2.87256C4.91891 2.83862 5.0081 2.82495 5.09672 2.8327C5.27597 2.83288 5.44812 2.90281 5.57672 3.0277L5.91422 3.36519C6.12769 3.59381 6.4073 3.74998 6.71391 3.81184C7.02052 3.8737 7.3388 3.83816 7.62422 3.71019C7.91429 3.59397 8.16253 3.39291 8.33649 3.13331C8.51044 2.87372 8.60201 2.56767 8.59922 2.25519V1.7752C8.59922 1.59617 8.67033 1.42449 8.79692 1.2979C8.92351 1.17131 9.0952 1.1002 9.27422 1.1002H11.5242C11.7032 1.1002 11.8749 1.17131 12.0015 1.2979C12.1281 1.42449 12.1992 1.59617 12.1992 1.7752V2.25519C12.1977 2.56873 12.2897 2.87559 12.4636 3.13648C12.6375 3.39737 12.8853 3.60043 13.1753 3.71965C13.4653 3.83886 13.7843 3.86882 14.0914 3.80567C14.3985 3.74253 14.6798 3.58915 14.8992 3.36519L15.2367 3.0277C15.3653 2.90281 15.5375 2.83288 15.7167 2.8327C15.8948 2.83861 16.065 2.90774 16.1967 3.0277L17.7717 4.6252C17.8341 4.68537 17.8836 4.75764 17.9171 4.8376C17.9507 4.91755 17.9675 5.0035 17.9667 5.09019C17.9685 5.27204 17.8984 5.44724 17.7717 5.57769L17.4342 5.91519C17.2056 6.12867 17.0494 6.40827 16.9876 6.71489C16.9257 7.0215 16.9613 7.33978 17.0892 7.62519C17.2054 7.91527 17.4065 8.16351 17.6661 8.33747C17.9257 8.51142 18.2317 8.60299 18.5442 8.60019H19.0242C19.2032 8.60019 19.3749 8.67131 19.5015 8.7979C19.6281 8.92448 19.6992 9.09617 19.6992 9.2752V11.5252ZM10.3992 5.82519C9.49437 5.82519 8.60984 6.09351 7.85748 6.59622C7.10513 7.09893 6.51874 7.81345 6.17247 8.64942C5.8262 9.48539 5.7356 10.4053 5.91213 11.2927C6.08865 12.1802 6.52438 12.9954 7.1642 13.6352C7.80403 14.275 8.61922 14.7108 9.50668 14.8873C10.3941 15.0638 11.314 14.9732 12.15 14.6269C12.986 14.2807 13.7005 13.6943 14.2032 12.9419C14.7059 12.1896 14.9742 11.305 14.9742 10.4002C14.9722 9.18744 14.4896 8.02492 13.632 7.16737C12.7745 6.30982 11.612 5.82718 10.3992 5.82519ZM10.3992 14.0752C9.67237 14.0752 8.96185 13.8597 8.3575 13.4558C7.75315 13.052 7.28211 12.4781 7.00396 11.8066C6.72581 11.135 6.65303 10.3961 6.79483 9.68324C6.93663 8.97036 7.28664 8.31554 7.8006 7.80158C8.31456 7.28762 8.96938 6.93761 9.68226 6.79581C10.3951 6.65401 11.1341 6.72679 11.8056 7.00494C12.4771 7.28309 13.0511 7.75412 13.4549 8.35847C13.8587 8.96282 14.0742 9.67335 14.0742 10.4002C14.0722 11.3743 13.6844 12.3079 12.9956 12.9966C12.3069 13.6854 11.3733 14.0732 10.3992 14.0752Z"/>
</mask>
<path d="M19.0242 7.70019H18.5442C18.4098 7.70283 18.2779 7.6639 18.1665 7.58872C18.0551 7.51354 17.9696 7.40579 17.9217 7.2802C17.8659 7.15561 17.8497 7.01692 17.8752 6.88281C17.9006 6.74871 17.9666 6.62564 18.0642 6.5302L18.4017 6.1927C18.5505 6.04731 18.6683 5.8734 18.7482 5.68138C18.8281 5.48935 18.8684 5.28317 18.8667 5.07519C18.869 4.86935 18.8289 4.66524 18.7489 4.47557C18.6689 4.2859 18.5507 4.11472 18.4017 3.97269L16.8192 2.3977C16.6747 2.24987 16.502 2.13255 16.3114 2.05267C16.1207 1.9728 15.9159 1.932 15.7092 1.9327C15.5025 1.932 15.2977 1.9728 15.1071 2.05267C14.9164 2.13255 14.7437 2.24987 14.5992 2.3977L14.2617 2.7352C14.1663 2.83279 14.0432 2.89877 13.9091 2.92425C13.775 2.94973 13.6363 2.93348 13.5117 2.87769C13.3861 2.82983 13.2784 2.74434 13.2032 2.63292C13.128 2.5215 13.0891 2.38958 13.0917 2.25519V1.7752C13.0917 1.35748 12.9258 0.956872 12.6304 0.661502C12.335 0.366132 11.9344 0.200195 11.5167 0.200195H9.26672C8.849 0.200195 8.44839 0.366132 8.15303 0.661502C7.85766 0.956872 7.69172 1.35748 7.69172 1.7752V2.25519C7.69435 2.38958 7.65542 2.5215 7.58024 2.63292C7.50507 2.74434 7.39732 2.82983 7.27172 2.87769C7.14713 2.93348 7.00844 2.94973 6.87434 2.92425C6.74023 2.89877 6.61716 2.83279 6.52172 2.7352L6.18422 2.3977C6.03972 2.24987 5.86702 2.13255 5.67636 2.05267C5.48569 1.9728 5.28094 1.932 5.07422 1.9327C4.86838 1.9304 4.66427 1.97051 4.4746 2.0505C4.28492 2.1305 4.11374 2.24868 3.97172 2.3977L2.39672 3.9802C2.24612 4.12631 2.12639 4.30118 2.04463 4.49442C1.96287 4.68767 1.92075 4.89536 1.92075 5.10519C1.92075 5.31503 1.96287 5.52272 2.04463 5.71597C2.12639 5.90921 2.24612 6.08408 2.39672 6.23019L2.73422 6.56769C2.83181 6.66314 2.89779 6.78621 2.92327 6.92031C2.94875 7.05442 2.9325 7.19311 2.87672 7.31769C2.82885 7.44329 2.74336 7.55104 2.63194 7.62622C2.52052 7.70139 2.3886 7.74033 2.25422 7.73769H1.77422C1.3565 7.73769 0.955895 7.90363 0.660525 8.199C0.365156 8.49437 0.199219 8.89498 0.199219 9.31269V11.5627C0.199219 11.9804 0.365156 12.381 0.660525 12.6764C0.955895 12.9718 1.3565 13.1377 1.77422 13.1377H2.25422C2.3886 13.1351 2.52052 13.174 2.63194 13.2492C2.74336 13.3243 2.82885 13.4321 2.87672 13.5577C2.9325 13.6823 2.94875 13.821 2.92327 13.9551C2.89779 14.0892 2.83181 14.2123 2.73422 14.3077L2.39672 14.6452C2.24798 14.7906 2.13013 14.9645 2.05023 15.1565C1.97033 15.3485 1.93002 15.5547 1.93172 15.7627C1.92943 15.9685 1.96953 16.1726 2.04953 16.3623C2.12953 16.552 2.24771 16.7232 2.39672 16.8652L3.97922 18.4552C4.12372 18.603 4.29642 18.7203 4.48708 18.8002C4.67775 18.8801 4.8825 18.9209 5.08922 18.9202C5.29594 18.9209 5.50069 18.8801 5.69135 18.8002C5.88202 18.7203 6.05472 18.603 6.19922 18.4552L6.53672 18.1177C6.63248 18.0258 6.75297 17.9638 6.88344 17.9393C7.0139 17.9148 7.14867 17.9289 7.27125 17.9798C7.39383 18.0308 7.49889 18.1164 7.57357 18.2261C7.64825 18.3358 7.68931 18.465 7.69172 18.5977V19.0777C7.69172 19.4954 7.85766 19.896 8.15303 20.1914C8.44839 20.4868 8.849 20.6527 9.26672 20.6527H11.5167C11.9344 20.6527 12.335 20.4868 12.6304 20.1914C12.9258 19.896 13.0917 19.4954 13.0917 19.0777V18.5977C13.0941 18.465 13.1352 18.3358 13.2099 18.2261C13.2845 18.1164 13.3896 18.0308 13.5122 17.9798C13.6348 17.9289 13.7695 17.9148 13.9 17.9393C14.0305 17.9638 14.151 18.0258 14.2467 18.1177L14.5842 18.4552C14.7287 18.603 14.9014 18.7203 15.0921 18.8002C15.2827 18.8801 15.4875 18.9209 15.6942 18.9202C15.9001 18.9225 16.1042 18.8824 16.2938 18.8024C16.4835 18.7224 16.6547 18.6042 16.7967 18.4552L18.3867 16.8727C18.5373 16.7266 18.657 16.5517 18.7388 16.3585C18.8206 16.1652 18.8627 15.9575 18.8627 15.7477C18.8627 15.5379 18.8206 15.3302 18.7388 15.1369C18.657 14.9437 18.5373 14.7688 18.3867 14.6227L18.0492 14.2852C17.9516 14.1898 17.8856 14.0667 17.8602 13.9326C17.8347 13.7985 17.8509 13.6598 17.9067 13.5352C17.9546 13.4096 18.0401 13.3018 18.1515 13.2267C18.2629 13.1515 18.3948 13.1126 18.5292 13.1152H19.0092C19.4269 13.1152 19.8275 12.9493 20.1229 12.6539C20.4183 12.3585 20.5842 11.9579 20.5842 11.5402V9.2902C20.5862 9.08336 20.5474 8.87816 20.4701 8.68631C20.3928 8.49447 20.2784 8.31973 20.1335 8.17209C19.9887 8.02444 19.8162 7.90677 19.6258 7.82581C19.4355 7.74484 19.2311 7.70216 19.0242 7.70019ZM19.6992 11.5252C19.6992 11.7042 19.6281 11.8759 19.5015 12.0025C19.3749 12.1291 19.2032 12.2002 19.0242 12.2002H18.5442C18.2317 12.1974 17.9257 12.289 17.6661 12.4629C17.4065 12.6369 17.2054 12.8851 17.0892 13.1752C16.9578 13.4624 16.9203 13.7838 16.9823 14.0936C17.0442 14.4033 17.2024 14.6856 17.4342 14.9002L17.7717 15.2377C17.8984 15.3681 17.9685 15.5433 17.9667 15.7252C17.9669 15.8129 17.9497 15.8998 17.9162 15.9809C17.8828 16.0619 17.8337 16.1356 17.7717 16.1977L16.1742 17.7727C16.114 17.8351 16.0418 17.8846 15.9618 17.9181C15.8819 17.9517 15.7959 17.9685 15.7092 17.9677C15.53 17.9675 15.3578 17.8976 15.2292 17.7727L14.8992 17.4352C14.679 17.2164 14.399 17.0676 14.0945 17.0074C13.7899 16.9472 13.4744 16.9784 13.1875 17.097C12.9006 17.2156 12.6551 17.4164 12.482 17.674C12.3088 17.9317 12.2157 18.2348 12.2142 18.5452V19.0252C12.2142 19.2042 12.1431 19.3759 12.0165 19.5025C11.8899 19.6291 11.7182 19.7002 11.5392 19.7002H9.28922C9.1102 19.7002 8.93851 19.6291 8.81192 19.5025C8.68533 19.3759 8.61422 19.2042 8.61422 19.0252V18.5452C8.61223 18.1268 8.44463 17.7262 8.14807 17.431C7.85151 17.1359 7.45013 16.9702 7.03172 16.9702C6.82588 16.9679 6.62177 17.008 6.43209 17.088C6.24242 17.168 6.07124 17.2862 5.92922 17.4352L5.59172 17.7727C5.52868 17.8376 5.45269 17.8884 5.36871 17.922C5.28472 17.9556 5.19461 17.9712 5.10422 17.9677C5.01651 17.9678 4.92964 17.9507 4.84856 17.9172C4.76749 17.8838 4.6938 17.8346 4.63172 17.7727L3.02672 16.1752C2.9643 16.115 2.91482 16.0427 2.88129 15.9628C2.84776 15.8828 2.83089 15.7969 2.83172 15.7102C2.82994 15.5283 2.90002 15.3531 3.02672 15.2227L3.36422 14.9002C3.59284 14.6867 3.749 14.4071 3.81086 14.1005C3.87272 13.7939 3.83718 13.4756 3.70922 13.1902C3.59299 12.9001 3.39193 12.6519 3.13234 12.4779C2.87274 12.304 2.5667 12.2124 2.25422 12.2152H1.77422C1.5952 12.2152 1.42351 12.1441 1.29692 12.0175C1.17033 11.8909 1.09922 11.7192 1.09922 11.5402V9.2902C1.09922 9.11117 1.17033 8.93948 1.29692 8.8129C1.42351 8.68631 1.5952 8.61519 1.77422 8.61519H2.25422C2.5667 8.61799 2.87274 8.52642 3.13234 8.35246C3.39193 8.17851 3.59299 7.93027 3.70922 7.64019C3.8442 7.35117 3.88353 7.02663 3.82149 6.71373C3.75945 6.40083 3.59927 6.11585 3.36422 5.90019L3.02672 5.5627C2.90002 5.43224 2.82994 5.25704 2.83172 5.07519C2.83159 4.98749 2.84874 4.90061 2.8822 4.81954C2.91566 4.73846 2.96477 4.66478 3.02672 4.6027L4.62422 3.0277C4.68158 2.9597 4.75445 2.9065 4.83668 2.87256C4.91891 2.83862 5.0081 2.82495 5.09672 2.8327C5.27597 2.83288 5.44812 2.90281 5.57672 3.0277L5.91422 3.36519C6.12769 3.59381 6.4073 3.74998 6.71391 3.81184C7.02052 3.8737 7.3388 3.83816 7.62422 3.71019C7.91429 3.59397 8.16253 3.39291 8.33649 3.13331C8.51044 2.87372 8.60201 2.56767 8.59922 2.25519V1.7752C8.59922 1.59617 8.67033 1.42449 8.79692 1.2979C8.92351 1.17131 9.0952 1.1002 9.27422 1.1002H11.5242C11.7032 1.1002 11.8749 1.17131 12.0015 1.2979C12.1281 1.42449 12.1992 1.59617 12.1992 1.7752V2.25519C12.1977 2.56873 12.2897 2.87559 12.4636 3.13648C12.6375 3.39737 12.8853 3.60043 13.1753 3.71965C13.4653 3.83886 13.7843 3.86882 14.0914 3.80567C14.3985 3.74253 14.6798 3.58915 14.8992 3.36519L15.2367 3.0277C15.3653 2.90281 15.5375 2.83288 15.7167 2.8327C15.8948 2.83861 16.065 2.90774 16.1967 3.0277L17.7717 4.6252C17.8341 4.68537 17.8836 4.75764 17.9171 4.8376C17.9507 4.91755 17.9675 5.0035 17.9667 5.09019C17.9685 5.27204 17.8984 5.44724 17.7717 5.57769L17.4342 5.91519C17.2056 6.12867 17.0494 6.40827 16.9876 6.71489C16.9257 7.0215 16.9613 7.33978 17.0892 7.62519C17.2054 7.91527 17.4065 8.16351 17.6661 8.33747C17.9257 8.51142 18.2317 8.60299 18.5442 8.60019H19.0242C19.2032 8.60019 19.3749 8.67131 19.5015 8.7979C19.6281 8.92448 19.6992 9.09617 19.6992 9.2752V11.5252ZM10.3992 5.82519C9.49437 5.82519 8.60984 6.09351 7.85748 6.59622C7.10513 7.09893 6.51874 7.81345 6.17247 8.64942C5.8262 9.48539 5.7356 10.4053 5.91213 11.2927C6.08865 12.1802 6.52438 12.9954 7.1642 13.6352C7.80403 14.275 8.61922 14.7108 9.50668 14.8873C10.3941 15.0638 11.314 14.9732 12.15 14.6269C12.986 14.2807 13.7005 13.6943 14.2032 12.9419C14.7059 12.1896 14.9742 11.305 14.9742 10.4002C14.9722 9.18744 14.4896 8.02492 13.632 7.16737C12.7745 6.30982 11.612 5.82718 10.3992 5.82519ZM10.3992 14.0752C9.67237 14.0752 8.96185 13.8597 8.3575 13.4558C7.75315 13.052 7.28211 12.4781 7.00396 11.8066C6.72581 11.135 6.65303 10.3961 6.79483 9.68324C6.93663 8.97036 7.28664 8.31554 7.8006 7.80158C8.31456 7.28762 8.96938 6.93761 9.68226 6.79581C10.3951 6.65401 11.1341 6.72679 11.8056 7.00494C12.4771 7.28309 13.0511 7.75412 13.4549 8.35847C13.8587 8.96282 14.0742 9.67335 14.0742 10.4002C14.0722 11.3743 13.6844 12.3079 12.9956 12.9966C12.3069 13.6854 11.3733 14.0732 10.3992 14.0752Z" fill="#141005"/>
<path d="M19.0242 7.70019H18.5442C18.4098 7.70283 18.2779 7.6639 18.1665 7.58872C18.0551 7.51354 17.9696 7.40579 17.9217 7.2802C17.8659 7.15561 17.8497 7.01692 17.8752 6.88281C17.9006 6.74871 17.9666 6.62564 18.0642 6.5302L18.4017 6.1927C18.5505 6.04731 18.6683 5.8734 18.7482 5.68138C18.8281 5.48935 18.8684 5.28317 18.8667 5.07519C18.869 4.86935 18.8289 4.66524 18.7489 4.47557C18.6689 4.2859 18.5507 4.11472 18.4017 3.97269L16.8192 2.3977C16.6747 2.24987 16.502 2.13255 16.3114 2.05267C16.1207 1.9728 15.9159 1.932 15.7092 1.9327C15.5025 1.932 15.2977 1.9728 15.1071 2.05267C14.9164 2.13255 14.7437 2.24987 14.5992 2.3977L14.2617 2.7352C14.1663 2.83279 14.0432 2.89877 13.9091 2.92425C13.775 2.94973 13.6363 2.93348 13.5117 2.87769C13.3861 2.82983 13.2784 2.74434 13.2032 2.63292C13.128 2.5215 13.0891 2.38958 13.0917 2.25519V1.7752C13.0917 1.35748 12.9258 0.956872 12.6304 0.661502C12.335 0.366132 11.9344 0.200195 11.5167 0.200195H9.26672C8.849 0.200195 8.44839 0.366132 8.15303 0.661502C7.85766 0.956872 7.69172 1.35748 7.69172 1.7752V2.25519C7.69435 2.38958 7.65542 2.5215 7.58024 2.63292C7.50507 2.74434 7.39732 2.82983 7.27172 2.87769C7.14713 2.93348 7.00844 2.94973 6.87434 2.92425C6.74023 2.89877 6.61716 2.83279 6.52172 2.7352L6.18422 2.3977C6.03972 2.24987 5.86702 2.13255 5.67636 2.05267C5.48569 1.9728 5.28094 1.932 5.07422 1.9327C4.86838 1.9304 4.66427 1.97051 4.4746 2.0505C4.28492 2.1305 4.11374 2.24868 3.97172 2.3977L2.39672 3.9802C2.24612 4.12631 2.12639 4.30118 2.04463 4.49442C1.96287 4.68767 1.92075 4.89536 1.92075 5.10519C1.92075 5.31503 1.96287 5.52272 2.04463 5.71597C2.12639 5.90921 2.24612 6.08408 2.39672 6.23019L2.73422 6.56769C2.83181 6.66314 2.89779 6.78621 2.92327 6.92031C2.94875 7.05442 2.9325 7.19311 2.87672 7.31769C2.82885 7.44329 2.74336 7.55104 2.63194 7.62622C2.52052 7.70139 2.3886 7.74033 2.25422 7.73769H1.77422C1.3565 7.73769 0.955895 7.90363 0.660525 8.199C0.365156 8.49437 0.199219 8.89498 0.199219 9.31269V11.5627C0.199219 11.9804 0.365156 12.381 0.660525 12.6764C0.955895 12.9718 1.3565 13.1377 1.77422 13.1377H2.25422C2.3886 13.1351 2.52052 13.174 2.63194 13.2492C2.74336 13.3243 2.82885 13.4321 2.87672 13.5577C2.9325 13.6823 2.94875 13.821 2.92327 13.9551C2.89779 14.0892 2.83181 14.2123 2.73422 14.3077L2.39672 14.6452C2.24798 14.7906 2.13013 14.9645 2.05023 15.1565C1.97033 15.3485 1.93002 15.5547 1.93172 15.7627C1.92943 15.9685 1.96953 16.1726 2.04953 16.3623C2.12953 16.552 2.24771 16.7232 2.39672 16.8652L3.97922 18.4552C4.12372 18.603 4.29642 18.7203 4.48708 18.8002C4.67775 18.8801 4.8825 18.9209 5.08922 18.9202C5.29594 18.9209 5.50069 18.8801 5.69135 18.8002C5.88202 18.7203 6.05472 18.603 6.19922 18.4552L6.53672 18.1177C6.63248 18.0258 6.75297 17.9638 6.88344 17.9393C7.0139 17.9148 7.14867 17.9289 7.27125 17.9798C7.39383 18.0308 7.49889 18.1164 7.57357 18.2261C7.64825 18.3358 7.68931 18.465 7.69172 18.5977V19.0777C7.69172 19.4954 7.85766 19.896 8.15303 20.1914C8.44839 20.4868 8.849 20.6527 9.26672 20.6527H11.5167C11.9344 20.6527 12.335 20.4868 12.6304 20.1914C12.9258 19.896 13.0917 19.4954 13.0917 19.0777V18.5977C13.0941 18.465 13.1352 18.3358 13.2099 18.2261C13.2845 18.1164 13.3896 18.0308 13.5122 17.9798C13.6348 17.9289 13.7695 17.9148 13.9 17.9393C14.0305 17.9638 14.151 18.0258 14.2467 18.1177L14.5842 18.4552C14.7287 18.603 14.9014 18.7203 15.0921 18.8002C15.2827 18.8801 15.4875 18.9209 15.6942 18.9202C15.9001 18.9225 16.1042 18.8824 16.2938 18.8024C16.4835 18.7224 16.6547 18.6042 16.7967 18.4552L18.3867 16.8727C18.5373 16.7266 18.657 16.5517 18.7388 16.3585C18.8206 16.1652 18.8627 15.9575 18.8627 15.7477C18.8627 15.5379 18.8206 15.3302 18.7388 15.1369C18.657 14.9437 18.5373 14.7688 18.3867 14.6227L18.0492 14.2852C17.9516 14.1898 17.8856 14.0667 17.8602 13.9326C17.8347 13.7985 17.8509 13.6598 17.9067 13.5352C17.9546 13.4096 18.0401 13.3018 18.1515 13.2267C18.2629 13.1515 18.3948 13.1126 18.5292 13.1152H19.0092C19.4269 13.1152 19.8275 12.9493 20.1229 12.6539C20.4183 12.3585 20.5842 11.9579 20.5842 11.5402V9.2902C20.5862 9.08336 20.5474 8.87816 20.4701 8.68631C20.3928 8.49447 20.2784 8.31973 20.1335 8.17209C19.9887 8.02444 19.8162 7.90677 19.6258 7.82581C19.4355 7.74484 19.2311 7.70216 19.0242 7.70019ZM19.6992 11.5252C19.6992 11.7042 19.6281 11.8759 19.5015 12.0025C19.3749 12.1291 19.2032 12.2002 19.0242 12.2002H18.5442C18.2317 12.1974 17.9257 12.289 17.6661 12.4629C17.4065 12.6369 17.2054 12.8851 17.0892 13.1752C16.9578 13.4624 16.9203 13.7838 16.9823 14.0936C17.0442 14.4033 17.2024 14.6856 17.4342 14.9002L17.7717 15.2377C17.8984 15.3681 17.9685 15.5433 17.9667 15.7252C17.9669 15.8129 17.9497 15.8998 17.9162 15.9809C17.8828 16.0619 17.8337 16.1356 17.7717 16.1977L16.1742 17.7727C16.114 17.8351 16.0418 17.8846 15.9618 17.9181C15.8819 17.9517 15.7959 17.9685 15.7092 17.9677C15.53 17.9675 15.3578 17.8976 15.2292 17.7727L14.8992 17.4352C14.679 17.2164 14.399 17.0676 14.0945 17.0074C13.7899 16.9472 13.4744 16.9784 13.1875 17.097C12.9006 17.2156 12.6551 17.4164 12.482 17.674C12.3088 17.9317 12.2157 18.2348 12.2142 18.5452V19.0252C12.2142 19.2042 12.1431 19.3759 12.0165 19.5025C11.8899 19.6291 11.7182 19.7002 11.5392 19.7002H9.28922C9.1102 19.7002 8.93851 19.6291 8.81192 19.5025C8.68533 19.3759 8.61422 19.2042 8.61422 19.0252V18.5452C8.61223 18.1268 8.44463 17.7262 8.14807 17.431C7.85151 17.1359 7.45013 16.9702 7.03172 16.9702C6.82588 16.9679 6.62177 17.008 6.43209 17.088C6.24242 17.168 6.07124 17.2862 5.92922 17.4352L5.59172 17.7727C5.52868 17.8376 5.45269 17.8884 5.36871 17.922C5.28472 17.9556 5.19461 17.9712 5.10422 17.9677C5.01651 17.9678 4.92964 17.9507 4.84856 17.9172C4.76749 17.8838 4.6938 17.8346 4.63172 17.7727L3.02672 16.1752C2.9643 16.115 2.91482 16.0427 2.88129 15.9628C2.84776 15.8828 2.83089 15.7969 2.83172 15.7102C2.82994 15.5283 2.90002 15.3531 3.02672 15.2227L3.36422 14.9002C3.59284 14.6867 3.749 14.4071 3.81086 14.1005C3.87272 13.7939 3.83718 13.4756 3.70922 13.1902C3.59299 12.9001 3.39193 12.6519 3.13234 12.4779C2.87274 12.304 2.5667 12.2124 2.25422 12.2152H1.77422C1.5952 12.2152 1.42351 12.1441 1.29692 12.0175C1.17033 11.8909 1.09922 11.7192 1.09922 11.5402V9.2902C1.09922 9.11117 1.17033 8.93948 1.29692 8.8129C1.42351 8.68631 1.5952 8.61519 1.77422 8.61519H2.25422C2.5667 8.61799 2.87274 8.52642 3.13234 8.35246C3.39193 8.17851 3.59299 7.93027 3.70922 7.64019C3.8442 7.35117 3.88353 7.02663 3.82149 6.71373C3.75945 6.40083 3.59927 6.11585 3.36422 5.90019L3.02672 5.5627C2.90002 5.43224 2.82994 5.25704 2.83172 5.07519C2.83159 4.98749 2.84874 4.90061 2.8822 4.81954C2.91566 4.73846 2.96477 4.66478 3.02672 4.6027L4.62422 3.0277C4.68158 2.9597 4.75445 2.9065 4.83668 2.87256C4.91891 2.83862 5.0081 2.82495 5.09672 2.8327C5.27597 2.83288 5.44812 2.90281 5.57672 3.0277L5.91422 3.36519C6.12769 3.59381 6.4073 3.74998 6.71391 3.81184C7.02052 3.8737 7.3388 3.83816 7.62422 3.71019C7.91429 3.59397 8.16253 3.39291 8.33649 3.13331C8.51044 2.87372 8.60201 2.56767 8.59922 2.25519V1.7752C8.59922 1.59617 8.67033 1.42449 8.79692 1.2979C8.92351 1.17131 9.0952 1.1002 9.27422 1.1002H11.5242C11.7032 1.1002 11.8749 1.17131 12.0015 1.2979C12.1281 1.42449 12.1992 1.59617 12.1992 1.7752V2.25519C12.1977 2.56873 12.2897 2.87559 12.4636 3.13648C12.6375 3.39737 12.8853 3.60043 13.1753 3.71965C13.4653 3.83886 13.7843 3.86882 14.0914 3.80567C14.3985 3.74253 14.6798 3.58915 14.8992 3.36519L15.2367 3.0277C15.3653 2.90281 15.5375 2.83288 15.7167 2.8327C15.8948 2.83861 16.065 2.90774 16.1967 3.0277L17.7717 4.6252C17.8341 4.68537 17.8836 4.75764 17.9171 4.8376C17.9507 4.91755 17.9675 5.0035 17.9667 5.09019C17.9685 5.27204 17.8984 5.44724 17.7717 5.57769L17.4342 5.91519C17.2056 6.12867 17.0494 6.40827 16.9876 6.71489C16.9257 7.0215 16.9613 7.33978 17.0892 7.62519C17.2054 7.91527 17.4065 8.16351 17.6661 8.33747C17.9257 8.51142 18.2317 8.60299 18.5442 8.60019H19.0242C19.2032 8.60019 19.3749 8.67131 19.5015 8.7979C19.6281 8.92448 19.6992 9.09617 19.6992 9.2752V11.5252ZM10.3992 5.82519C9.49437 5.82519 8.60984 6.09351 7.85748 6.59622C7.10513 7.09893 6.51874 7.81345 6.17247 8.64942C5.8262 9.48539 5.7356 10.4053 5.91213 11.2927C6.08865 12.1802 6.52438 12.9954 7.1642 13.6352C7.80403 14.275 8.61922 14.7108 9.50668 14.8873C10.3941 15.0638 11.314 14.9732 12.15 14.6269C12.986 14.2807 13.7005 13.6943 14.2032 12.9419C14.7059 12.1896 14.9742 11.305 14.9742 10.4002C14.9722 9.18744 14.4896 8.02492 13.632 7.16737C12.7745 6.30982 11.612 5.82718 10.3992 5.82519ZM10.3992 14.0752C9.67237 14.0752 8.96185 13.8597 8.3575 13.4558C7.75315 13.052 7.28211 12.4781 7.00396 11.8066C6.72581 11.135 6.65303 10.3961 6.79483 9.68324C6.93663 8.97036 7.28664 8.31554 7.8006 7.80158C8.31456 7.28762 8.96938 6.93761 9.68226 6.79581C10.3951 6.65401 11.1341 6.72679 11.8056 7.00494C12.4771 7.28309 13.0511 7.75412 13.4549 8.35847C13.8587 8.96282 14.0742 9.67335 14.0742 10.4002C14.0722 11.3743 13.6844 12.3079 12.9956 12.9966C12.3069 13.6854 11.3733 14.0732 10.3992 14.0752Z" stroke="black" stroke-width="0.4" mask="url(#path-1-outside-1_293_1565)"/>
</svg>
