<svg width="18" height="16" viewBox="0 0 18 16" fill="none" xmlns="http://www.w3.org/2000/svg">
<path d="M12.2979 0.5C12.4548 0.500007 12.6764 0.578706 12.958 0.860352L17.0322 4.93457C17.3339 5.2362 17.5 5.63721 17.5 6.06836C17.5 6.49961 17.3339 6.90063 17.0322 7.20215L12.958 11.2764C12.6764 11.558 12.4548 11.6367 12.2979 11.6367L12.2188 11.6289C12.1394 11.6135 12.0605 11.5738 11.9941 11.501C11.906 11.4041 11.7969 11.2005 11.7969 10.7959V8.91016L11.2783 8.92969C7.01753 9.08998 3.12878 11.1225 0.548828 14.5566C0.543703 14.5633 0.535957 14.5674 0.527344 14.5674L0.518555 14.5664C0.507516 14.5627 0.5 14.5519 0.5 14.54L0.513672 13.9756C0.650937 11.1623 1.81151 8.53895 3.81738 6.5332C5.8375 4.51328 8.48338 3.35117 11.3184 3.22754L11.7969 3.20703V1.34082C11.7969 0.93619 11.906 0.732611 11.9941 0.635742C12.0826 0.538671 12.1933 0.5 12.2979 0.5Z" stroke="#141005"/>
</svg>
