<svg width="16" height="16" viewBox="0 0 16 16" fill="none" xmlns="http://www.w3.org/2000/svg">
<g clip-path="url(#clip0_1204_5729)">
<path d="M7 5.27258V3C7 2.9337 6.97366 2.87011 6.92678 2.82322C6.87989 2.77634 6.8163 2.75 6.75 2.75C6.6837 2.75 6.62011 2.77634 6.57322 2.82322C6.52634 2.87011 6.5 2.9337 6.5 3V5.27258C6.66531 5.24247 6.83469 5.24247 7 5.27258Z" fill="#082133"/>
<path d="M9.25012 7C9.31643 7 9.38001 6.97366 9.4269 6.92678C9.47378 6.87989 9.50012 6.8163 9.50012 6.75C9.50012 6.6837 9.47378 6.62011 9.4269 6.57322C9.38001 6.52634 9.31643 6.5 9.25012 6.5H8.22754C8.25765 6.66531 8.25765 6.83469 8.22754 7H9.25012Z" fill="#082133"/>
<path d="M5.75 6.75C5.75 6.94778 5.80865 7.14112 5.91853 7.30557C6.02841 7.47002 6.18459 7.59819 6.36732 7.67388C6.55004 7.74957 6.75111 7.76937 6.94509 7.73079C7.13907 7.6922 7.31725 7.59696 7.45711 7.45711C7.59696 7.31725 7.6922 7.13907 7.73079 6.94509C7.76937 6.75111 7.74957 6.55004 7.67388 6.36732C7.59819 6.18459 7.47002 6.02841 7.30557 5.91853C7.14112 5.80865 6.94778 5.75 6.75 5.75C6.48488 5.7503 6.2307 5.85576 6.04323 6.04323C5.85576 6.2307 5.7503 6.48488 5.75 6.75ZM6.75 6.25C6.84889 6.25 6.94556 6.27932 7.02779 6.33427C7.11001 6.38921 7.1741 6.46729 7.21194 6.55866C7.24978 6.65002 7.25969 6.75055 7.24039 6.84755C7.2211 6.94454 7.17348 7.03363 7.10355 7.10355C7.03363 7.17348 6.94454 7.2211 6.84755 7.24039C6.75055 7.25969 6.65002 7.24978 6.55866 7.21194C6.46729 7.1741 6.38921 7.11001 6.33427 7.02779C6.27932 6.94556 6.25 6.84889 6.25 6.75C6.25015 6.61744 6.30288 6.49035 6.39661 6.39661C6.49035 6.30288 6.61744 6.25015 6.75 6.25Z" fill="#082133"/>
<path d="M4.63953 13.1604C4.67946 13.1035 4.72714 13.0524 4.78119 13.0087L5.07779 12.7711C4.12154 12.5045 3.24256 12.0139 2.5136 11.34L3.25037 10.6033C3.29704 10.5563 3.3232 10.4928 3.32311 10.4266C3.32302 10.3605 3.29669 10.297 3.24989 10.2502C3.2031 10.2034 3.13965 10.1771 3.07347 10.177C3.00729 10.1769 2.94377 10.2031 2.89685 10.2497L2.16009 10.9865C1.15112 9.89742 0.564602 8.4836 0.506339 7.00011H1.54999C1.61629 7.00011 1.67988 6.97377 1.72676 6.92689C1.77365 6.88 1.79999 6.81642 1.79999 6.75011C1.79999 6.68381 1.77365 6.62022 1.72676 6.57333C1.67988 6.52645 1.61629 6.50011 1.54999 6.50011H0.506339C0.564603 5.01663 1.15112 3.6028 2.16009 2.51371L2.89685 3.25048C2.94376 3.29721 3.0073 3.32342 3.07351 3.32336C3.13972 3.32329 3.20321 3.29696 3.25003 3.25014C3.29685 3.20332 3.32318 3.13984 3.32325 3.07362C3.32331 3.00741 3.2971 2.94387 3.25037 2.89696L2.51361 2.1602C3.60269 1.15124 5.01651 0.564714 6.5 0.50645V1.5501C6.5 1.6164 6.52634 1.67999 6.57322 1.72687C6.62011 1.77376 6.68369 1.8001 6.75 1.8001C6.8163 1.8001 6.87989 1.77376 6.92678 1.72687C6.97366 1.67999 7 1.6164 7 1.5501V0.50645C8.48334 0.565036 9.89692 1.15179 10.9857 2.16087L10.2496 2.89696C10.2264 2.92017 10.208 2.94773 10.1954 2.97806C10.1828 3.00839 10.1764 3.0409 10.1764 3.07373C10.1764 3.10657 10.1828 3.13908 10.1954 3.16942C10.2079 3.19975 10.2264 3.22732 10.2496 3.25053C10.2728 3.27375 10.3004 3.29216 10.3307 3.30473C10.361 3.31729 10.3935 3.32375 10.4264 3.32375C10.4592 3.32374 10.4917 3.31727 10.5221 3.3047C10.5524 3.29213 10.5799 3.2737 10.6031 3.25048L11.3392 2.51439C12.3483 3.60319 12.9351 5.01677 12.9937 6.50011H11.95C11.8837 6.50011 11.8201 6.52645 11.7732 6.57333C11.7264 6.62022 11.7 6.68381 11.7 6.75011C11.7 6.81642 11.7264 6.88 11.7732 6.92689C11.8201 6.97377 11.8837 7.00011 11.95 7.00011H12.994C12.9356 8.48363 12.3489 9.89744 11.3399 10.9865L10.6031 10.2497C10.5562 10.203 10.4927 10.1768 10.4265 10.1769C10.3603 10.1769 10.2968 10.2033 10.25 10.2501C10.2031 10.2969 10.1768 10.3604 10.1768 10.4266C10.1767 10.4928 10.2029 10.5564 10.2496 10.6033L10.9864 11.34C10.979 11.3468 10.9713 11.3531 10.9639 11.3599C11.4346 11.1564 11.8803 10.8996 12.2924 10.5943C13.0998 9.42939 13.5198 8.03974 13.4928 6.62258C13.4659 5.20543 12.9933 3.83276 12.1421 2.69936C11.291 1.56596 10.1045 0.729404 8.75107 0.308399C7.39762 -0.112605 5.94596 -0.0966728 4.60209 0.353936C3.25821 0.804544 2.09038 1.66694 1.2643 2.81875C0.438233 3.97055 -0.00411568 5.35327 2.88598e-05 6.77067C0.0041734 8.18808 0.454601 9.56818 1.28739 10.7151C2.12019 11.8621 3.29304 12.7176 4.63953 13.1604Z" fill="#082133"/>
<path d="M15.6813 6H15.681C15.6206 6.00009 15.5622 6.02205 15.5168 6.06181C15.4713 6.10158 15.4417 6.15646 15.4336 6.21631C15.1949 7.92777 14.3465 9.4956 13.0445 10.6317C11.7425 11.7679 10.0742 12.396 8.34619 12.4008H8.19231V11.438C8.1923 11.3909 8.17899 11.3448 8.15391 11.3049C8.12884 11.265 8.09301 11.2331 8.05056 11.2127C8.00811 11.1923 7.96076 11.1843 7.91397 11.1896C7.86717 11.1949 7.82284 11.2134 7.78606 11.2428L5.09375 13.3988C5.06449 13.4222 5.04088 13.4519 5.02465 13.4857C5.00842 13.5195 5 13.5565 5 13.594C5 13.6315 5.00842 13.6685 5.02465 13.7023C5.04088 13.736 5.06449 13.7657 5.09375 13.7892L7.78607 15.9452C7.82284 15.9746 7.86718 15.993 7.91397 15.9984C7.96076 16.0037 8.00811 15.9957 8.05056 15.9753C8.09301 15.9549 8.12883 15.923 8.15391 15.8831C8.17899 15.8432 8.19231 15.7971 8.19232 15.75V14.922H8.34612C9.43973 14.9204 10.5203 14.6848 11.5154 14.231C12.5104 13.7772 13.3968 13.1158 14.115 12.2911C14.8333 11.4665 15.3668 10.4976 15.6796 9.44973C15.9925 8.40183 16.0775 7.29911 15.9289 6.21564C15.9207 6.15586 15.891 6.1011 15.8455 6.06147C15.8 6.02183 15.7417 6 15.6813 6ZM8.34619 14.422L7.94238 14.4219C7.87608 14.4219 7.81244 14.4482 7.76556 14.4951C7.71868 14.542 7.69233 14.6056 7.69232 14.6719V15.2295L5.64996 13.594L7.69232 11.9585V12.6506C7.69231 12.6835 7.69877 12.716 7.71133 12.7463C7.72389 12.7766 7.7423 12.8042 7.76551 12.8274C7.78872 12.8506 7.81627 12.869 7.8466 12.8816C7.87692 12.8942 7.90943 12.9006 7.94226 12.9006L8.34613 12.9008C9.87509 12.896 11.3679 12.4354 12.6338 11.5779C13.8997 10.7205 14.8811 9.50498 15.4527 8.08686C15.249 9.82968 14.4131 11.4372 13.1033 12.6049C11.7935 13.7725 10.1009 14.419 8.34619 14.422Z" fill="#082133"/>
</g>
<defs>
<clipPath id="clip0_1204_5729">
<rect width="16" height="16" fill="white"/>
</clipPath>
</defs>
</svg>
