<svg width="16" height="16" viewBox="0 0 16 16" fill="none" xmlns="http://www.w3.org/2000/svg">
<path d="M10.7471 3.78125C11.5716 3.78225 12.3623 4.11028 12.9453 4.69336C13.5282 5.27646 13.8556 6.06711 13.8564 6.8916L13.8486 7.04688C13.8117 7.42775 13.648 7.93884 13.3965 8.52344C13.1129 9.18248 12.732 9.90336 12.3438 10.5791C11.6411 11.8019 10.9236 12.8624 10.7471 13.1201C10.5687 12.8586 9.85231 11.7989 9.15039 10.5781C8.76198 9.90258 8.3804 9.18224 8.09668 8.52344C7.80895 7.85531 7.63673 7.28294 7.63672 6.8916L7.64062 6.7373C7.67956 5.96887 8.00219 5.24 8.54883 4.69336C9.09547 4.14672 9.82434 3.82409 10.5928 3.78516L10.7471 3.78125ZM10.7471 4.64941C10.4505 4.64941 10.1607 4.73766 9.91406 4.90234C9.66752 5.06708 9.47488 5.30129 9.36133 5.5752C9.2478 5.84928 9.21752 6.15142 9.27539 6.44238C9.33326 6.7333 9.47681 7.0002 9.68652 7.20996C9.89624 7.41968 10.1632 7.56319 10.4541 7.62109C10.7451 7.67897 11.0472 7.64869 11.3213 7.53516C11.5951 7.42165 11.8294 7.22984 11.9941 6.9834C12.159 6.73672 12.2471 6.44609 12.2471 6.14941C12.2471 5.95181 12.2078 5.75737 12.1328 5.57617C12.0575 5.39423 11.9467 5.22916 11.8076 5.08984C11.6684 4.95049 11.5032 4.83914 11.3213 4.76367C11.1849 4.7071 11.0409 4.67176 10.8945 4.65723L10.7471 4.64941Z" stroke="#141005" stroke-width="0.5"/>
<path d="M9.06937 13.7963C7.56937 13.7963 3.44437 13.6938 2.32625 12.5953C2.10969 12.3828 2 12.14 2 11.8732C2 10.9044 3.28469 10.6141 4.52719 10.3341C5.50094 10.1153 6.60469 9.86534 6.60469 9.36971C6.60469 9.03971 5.585 8.7069 4.67 8.6144C4.62976 8.6103 4.59073 8.59831 4.55512 8.57912C4.51952 8.55993 4.48804 8.53391 4.46249 8.50256C4.43694 8.47121 4.41782 8.43513 4.40621 8.39638C4.3946 8.35764 4.39074 8.31698 4.39484 8.27675C4.39895 8.23651 4.41094 8.19747 4.43013 8.16187C4.44932 8.12626 4.47533 8.09479 4.50669 8.06924C4.53804 8.04369 4.57412 8.02456 4.61286 8.01295C4.65161 8.00135 4.69226 7.99749 4.7325 8.00159C5.14781 8.04315 7.22125 8.30503 7.22125 9.36971C7.22125 10.3585 5.92125 10.651 4.66344 10.9347C3.70437 11.151 2.61656 11.396 2.61656 11.8722C2.61656 11.9347 2.63156 12.03 2.75844 12.1535C3.70062 13.0816 7.98187 13.2078 9.55219 13.1763C9.63257 13.1767 9.70962 13.2085 9.76687 13.2649C9.82413 13.3214 9.85707 13.3979 9.85866 13.4783C9.86025 13.5587 9.83036 13.6365 9.77538 13.6951C9.7204 13.7538 9.64468 13.7886 9.56437 13.7922C9.48187 13.7938 9.30844 13.7963 9.06937 13.7963Z" fill="#141005"/>
<path d="M4.06934 2.41211C4.51218 2.41262 4.93683 2.58826 5.25 2.90137C5.56312 3.21449 5.73966 3.63922 5.74023 4.08203C5.74023 4.28274 5.65797 4.57 5.51758 4.90527C5.37919 5.23576 5.19142 5.59617 4.99707 5.93848C4.60853 6.62278 4.19798 7.22279 4.11426 7.34375V7.34473C4.10924 7.35199 4.10254 7.35819 4.09473 7.3623C4.08691 7.36639 4.07815 7.36816 4.06934 7.36816C4.06053 7.36816 4.05175 7.36638 4.04395 7.3623C4.03615 7.3582 4.02943 7.35197 4.02441 7.34473C3.94084 7.22377 3.5304 6.62286 3.1416 5.93848C2.94716 5.59621 2.75956 5.23576 2.62109 4.90527C2.48078 4.57036 2.39862 4.28375 2.39844 4.08301C2.39904 3.63996 2.57534 3.21459 2.88867 2.90137C3.16279 2.62747 3.52205 2.45822 3.9043 2.41992L4.06934 2.41211ZM3.90137 2.86035C3.73497 2.89353 3.5819 2.97575 3.46191 3.0957C3.34187 3.21585 3.25962 3.36954 3.22656 3.53613C3.19359 3.70263 3.21037 3.87544 3.27539 4.03223C3.3404 4.18893 3.45075 4.32273 3.5918 4.41699C3.73305 4.51129 3.8995 4.56159 4.06934 4.56152C4.29704 4.56132 4.51582 4.47065 4.67676 4.30957C4.83739 4.14863 4.92761 3.93051 4.92773 3.70312V3.70215C4.92757 3.53254 4.87746 3.3666 4.7832 3.22559C4.6888 3.08443 4.55437 2.97411 4.39746 2.90918C4.24063 2.8443 4.06782 2.82724 3.90137 2.86035Z" stroke="#141005" stroke-width="0.3"/>
</svg>
