<svg width="30" height="30" viewBox="0 0 30 30" fill="none" xmlns="http://www.w3.org/2000/svg">
<path d="M18.4969 27.1875H5.625C4.07812 27.1875 2.8125 25.9219 2.8125 24.375V10.3125H25.3125V11.7375C25.3125 12.2531 25.7344 12.675 26.25 12.675C26.7656 12.675 27.1875 12.2531 27.1875 11.7375V7.5C27.1875 4.9125 25.0875 2.8125 22.5 2.8125V1.875C22.5 1.35938 22.0781 0.9375 21.5625 0.9375C21.0469 0.9375 20.625 1.35938 20.625 1.875V2.8125H7.5V1.875C7.5 1.35938 7.07812 0.9375 6.5625 0.9375C6.04688 0.9375 5.625 1.35938 5.625 1.875V2.8125C3.0375 2.8125 0.9375 4.9125 0.9375 7.5V24.375C0.9375 26.9625 3.0375 29.0625 5.625 29.0625H18.4969C19.0125 29.0625 19.4344 28.6406 19.4344 28.125C19.4344 27.6094 19.0125 27.1875 18.4969 27.1875ZM5.625 4.6875V5.625C5.625 6.14062 6.04688 6.5625 6.5625 6.5625C7.07812 6.5625 7.5 6.14062 7.5 5.625V4.6875H20.625V5.625C20.625 6.14062 21.0469 6.5625 21.5625 6.5625C22.0781 6.5625 22.5 6.14062 22.5 5.625V4.6875C24.0469 4.6875 25.3125 5.95312 25.3125 7.5V8.4375H2.8125V7.5C2.8125 5.95312 4.07812 4.6875 5.625 4.6875ZM9.375 15.9375C9.375 16.4531 8.95312 16.875 8.4375 16.875C7.92188 16.875 7.5 16.4531 7.5 15.9375C7.5 15.4219 7.92188 15 8.4375 15C8.95312 15 9.375 15.4219 9.375 15.9375ZM9.375 21.5625C9.375 22.0781 8.95312 22.5 8.4375 22.5C7.92188 22.5 7.5 22.0781 7.5 21.5625C7.5 21.0469 7.92188 20.625 8.4375 20.625C8.95312 20.625 9.375 21.0469 9.375 21.5625ZM15 15.9375C15 16.4531 14.5781 16.875 14.0625 16.875C13.5469 16.875 13.125 16.4531 13.125 15.9375C13.125 15.4219 13.5469 15 14.0625 15C14.5781 15 15 15.4219 15 15.9375ZM15 21.5625C15 22.0781 14.5781 22.5 14.0625 22.5C13.5469 22.5 13.125 22.0781 13.125 21.5625C13.125 21.0469 13.5469 20.625 14.0625 20.625C14.5781 20.625 15 21.0469 15 21.5625ZM23.4375 14.0625C20.3344 14.0625 17.8125 16.5844 17.8125 19.6875C17.8125 23.775 22.575 28.5844 22.7719 28.7906C22.95 28.9594 23.1844 29.0625 23.4375 29.0625C23.6906 29.0625 23.925 28.9594 24.1031 28.7906C24.3 28.5844 29.0625 23.775 29.0625 19.6875C29.0625 16.5844 26.5406 14.0625 23.4375 14.0625ZM23.4375 26.7563C21.9937 25.125 19.6875 22.0312 19.6875 19.6875C19.6875 17.6156 21.3656 15.9375 23.4375 15.9375C25.5094 15.9375 27.1875 17.6156 27.1875 19.6875C27.1875 22.0312 24.8813 25.125 23.4375 26.7563ZM25.3125 19.6875C25.3125 20.7188 24.4688 21.5625 23.4375 21.5625C22.4062 21.5625 21.5625 20.7188 21.5625 19.6875C21.5625 18.6562 22.4062 17.8125 23.4375 17.8125C24.4688 17.8125 25.3125 18.6562 25.3125 19.6875Z" fill="#795E20"/>
</svg>
