<svg width="40" height="40" viewBox="0 0 40 40" fill="none" xmlns="http://www.w3.org/2000/svg">
<path d="M12.6001 18.7998C12.0481 18.7998 11.6001 19.2478 11.6001 19.7998C11.6001 20.3518 12.0481 20.7998 12.6001 20.7998C13.1521 20.7998 13.6001 20.3518 13.6001 19.7998C13.6001 19.2478 13.1521 18.7998 12.6001 18.7998ZM12.6001 19.9998C12.4881 19.9998 12.4001 19.9118 12.4001 19.7998C12.4001 19.6878 12.4881 19.5998 12.6001 19.5998C12.7121 19.5998 12.8001 19.6878 12.8001 19.7998C12.8001 19.9118 12.7121 19.9998 12.6001 19.9998Z" fill="#141005"/>
<path d="M16.2 21.2002C15.648 21.2002 15.2 21.6482 15.2 22.2002C15.2 22.7522 15.648 23.2002 16.2 23.2002C16.752 23.2002 17.2 22.7522 17.2 22.2002C17.2 21.6482 16.752 21.2002 16.2 21.2002ZM16.2 22.4002C16.088 22.4002 16 22.3122 16 22.2002C16 22.0882 16.088 22.0002 16.2 22.0002C16.312 22.0002 16.4 22.0882 16.4 22.2002C16.4 22.3122 16.312 22.4002 16.2 22.4002Z" fill="#141005"/>
<path d="M17 16C16.448 16 16 16.448 16 17C16 17.552 16.448 18 17 18C17.552 18 18 17.552 18 17C18 16.448 17.552 16 17 16ZM17 17.2C16.888 17.2 16.8 17.112 16.8 17C16.8 16.888 16.888 16.8 17 16.8C17.112 16.8 17.2 16.888 17.2 17C17.2 17.112 17.112 17.2 17 17.2Z" fill="#141005"/>
<path d="M20.2 20.3999C20.752 20.3999 21.2 19.9519 21.2 19.3999C21.2 18.8479 20.752 18.3999 20.2 18.3999C19.648 18.3999 19.2 18.8479 19.2 19.3999C19.2 19.9519 19.648 20.3999 20.2 20.3999ZM20.2 19.1999C20.312 19.1999 20.4 19.2879 20.4 19.3999C20.4 19.5119 20.312 19.5999 20.2 19.5999C20.088 19.5999 20 19.5119 20 19.3999C20 19.2879 20.088 19.1999 20.2 19.1999Z" fill="#141005"/>
<path d="M23 18C23.552 18 24 17.552 24 17C24 16.448 23.552 16 23 16C22.448 16 22 16.448 22 17C22 17.552 22.448 18 23 18ZM23 16.8C23.112 16.8 23.2 16.888 23.2 17C23.2 17.112 23.112 17.2 23 17.2C22.888 17.2 22.8 17.112 22.8 17C22.8 16.888 22.888 16.8 23 16.8Z" fill="#141005"/>
<path d="M26.6001 20.3999C27.1521 20.3999 27.6001 19.9519 27.6001 19.3999C27.6001 18.8479 27.1521 18.3999 26.6001 18.3999C26.0481 18.3999 25.6001 18.8479 25.6001 19.3999C25.6001 19.9519 26.0481 20.3999 26.6001 20.3999ZM26.6001 19.1999C26.7121 19.1999 26.8001 19.2879 26.8001 19.3999C26.8001 19.5119 26.7121 19.5999 26.6001 19.5999C26.4881 19.5999 26.4001 19.5119 26.4001 19.3999C26.4001 19.2879 26.4881 19.1999 26.6001 19.1999Z" fill="#141005"/>
<path d="M23.2 22.2002C23.2 22.7522 23.648 23.2002 24.2 23.2002C24.752 23.2002 25.2 22.7522 25.2 22.2002C25.2 21.6482 24.752 21.2002 24.2 21.2002C23.648 21.2002 23.2 21.6482 23.2 22.2002ZM24.2 22.0002C24.312 22.0002 24.4 22.0882 24.4 22.2002C24.4 22.3122 24.312 22.4002 24.2 22.4002C24.088 22.4002 24 22.3122 24 22.2002C24 22.0882 24.088 22.0002 24.2 22.0002Z" fill="#141005"/>
<path d="M31.24 20.0039C30.748 18.8919 29.776 17.8719 28.484 17.2239C27.156 16.5599 26.372 15.8919 25.68 15.3039C24.3 14.1279 23.212 13.1999 19.148 13.1999C18.42 13.1999 17.656 13.3519 16.888 13.6119C16.744 13.6479 16.356 13.7159 16 13.4679C15.68 13.2439 15.308 12.6999 15.22 11.3959C15.808 11.5879 16.672 11.3839 17.056 10.7799C18.524 10.5439 18.884 9.94789 19.128 9.12389C19.316 8.49589 19.524 7.78389 20.976 7.03189C24.224 5.35189 29.82 6.77189 29.876 6.78389C30.808 7.02789 31.816 6.53989 32.22 5.65589C32.588 4.85189 32.46 3.63189 31.004 2.62389C28.24 0.715887 20.432 3.74789 19.416 4.24789C18.968 4.49589 18.384 3.71589 18.356 3.65989C18.332 3.61189 17.776 2.46389 16.716 2.10389C16.144 1.90789 15.56 1.98789 15.016 2.26389C14.492 2.52789 13.844 2.56789 13.216 2.60389C12.288 2.65989 11.164 2.72789 10.868 3.79589C10.404 3.61989 9.71204 3.47589 9.10004 3.80789C8.36404 4.21189 7.99204 5.17189 7.99204 6.65989C7.99204 8.40389 8.36404 9.50789 9.09604 9.93989C9.31204 10.0679 9.53204 10.1199 9.74404 10.1319C9.30804 11.3039 8.58404 13.6879 9.22004 15.2919C9.85604 16.8999 8.74004 19.5599 8.44804 20.2039C5.31604 22.1679 3.59204 24.7879 3.59204 27.5999C3.59204 33.3359 10.948 37.9999 19.992 37.9999C29.036 37.9999 36.392 33.3359 36.392 27.5999C36.392 24.7599 34.42 21.9719 31.232 20.0039H31.24ZM9.97204 14.9999C9.38004 13.5039 10.264 10.9999 10.624 10.0999C10.852 10.2199 11.12 10.2639 11.388 10.2719C11.044 11.2239 10.668 13.2639 11.188 17.2599C10.708 17.7079 10.272 18.1599 9.89604 18.5959C10.204 17.4799 10.404 16.0999 9.96804 15.0039L9.97204 14.9999ZM13.892 3.35989C14.12 3.33589 14.348 3.30789 14.576 3.25589C14.128 4.58789 14.244 6.79189 14.404 8.82789C14.452 9.41589 14.456 9.85589 14.444 10.1719C14.244 10.3239 14 10.4599 13.812 10.3759C13.452 10.2159 13.052 9.24789 13.012 7.49989C12.968 5.46389 13.432 3.67989 13.888 3.35989H13.892ZM12.796 10.4159C12.744 10.8839 12.468 13.6799 13.184 15.6159C12.744 15.9359 12.32 16.2679 11.92 16.6119C11.4 12.0879 12.14 10.4639 12.308 10.1679C12.432 10.1399 12.544 10.1079 12.64 10.0799C12.688 10.1999 12.744 10.3119 12.8 10.4159H12.796ZM9.14004 23.4799C8.58004 24.0359 7.22004 25.7319 7.90004 28.5199C7.11204 27.2599 6.84404 26.0599 7.10004 24.9559C7.37204 23.7959 8.16804 22.9959 8.64404 22.6079C8.76404 22.9319 8.93204 23.2199 9.14004 23.4759V23.4799ZM9.58804 30.5199C7.34004 26.6199 9.20404 24.5039 9.72004 24.0279C9.99204 24.2239 10.288 24.3759 10.588 24.4879C9.98004 25.2959 9.01204 27.3679 11.168 30.8639C10.988 31.0039 10.788 31.1359 10.58 31.2639C10.244 31.0519 9.91204 30.8079 9.58804 30.5239V30.5199ZM13.592 25.1239C13.632 25.3999 13.788 26.8319 13.12 28.3919C12.164 26.7959 12.76 25.3199 13.028 24.8119C13.16 24.8039 13.276 24.7959 13.372 24.7839C13.444 24.8999 13.52 25.0119 13.592 25.1199V25.1239ZM12.692 29.2039C12.452 29.5879 12.152 29.9679 11.78 30.3319C9.54004 26.6119 11.26 24.8879 11.444 24.7199C11.688 24.7639 11.928 24.7919 12.156 24.8079C11.792 25.7079 11.396 27.4479 12.692 29.2039ZM14.408 26.1999C14.788 26.6319 15.18 27.0039 15.592 27.3079C15.536 27.9919 15.104 31.3519 12.212 32.0759C11.936 31.9679 11.652 31.8479 11.368 31.7039C13.792 30.0239 14.332 27.6479 14.412 26.1959L14.408 26.1999ZM15.816 29.7039C16.12 28.9599 16.268 28.2559 16.336 27.7879C16.62 27.9399 16.912 28.0639 17.208 28.1599C17.252 28.7599 17.3 31.7079 14.408 32.7239C14.084 32.6439 13.776 32.5679 13.424 32.4719C14.468 31.9279 15.284 30.9919 15.812 29.7039H15.816ZM18.016 28.3519C18.296 28.3919 18.58 28.4159 18.86 28.3999C18.956 29.2079 19.008 31.4879 16.94 33.3039C16.472 33.4679 16.108 33.5999 15.88 33.3239C15.792 33.2359 15.676 33.1599 15.544 33.0919C17.808 31.8079 18.02 29.3119 18.012 28.3519H18.016ZM24.868 25.1959C25.02 26.0879 25.344 28.8199 23.864 30.4399C22.904 31.4919 21.296 31.8879 19.148 31.6359C19.324 31.2359 19.452 30.8439 19.532 30.4759C19.724 30.5039 19.964 30.5279 20.236 30.5279C20.912 30.5279 21.78 30.3879 22.52 29.8239C23.492 29.0799 23.988 27.8119 23.996 26.0479C24.396 25.6919 24.696 25.3839 24.864 25.1959H24.868ZM22.044 29.1839C21.244 29.7959 20.2 29.7599 19.66 29.6879C19.716 29.1199 19.692 28.6439 19.656 28.3279C21.012 28.1039 22.232 27.4199 23.164 26.7279C23.056 27.8639 22.684 28.6919 22.044 29.1839ZM18.752 32.4039C20.792 32.7559 23.276 32.4039 24.456 30.9839C26.1 29.1799 25.868 26.3679 25.684 25.2239C25.96 25.2319 26.22 25.2359 26.472 25.2279C27.436 30.5359 25.412 32.0519 25.376 32.0799C22.168 34.7959 20.048 33.6519 18.204 33.1559C18.412 32.9079 18.596 32.6559 18.752 32.4039ZM29.896 24.4279C30.324 24.7679 31.716 26.0879 30.86 28.1839C30.492 28.4519 30.104 28.6079 29.724 28.6879C30.1 26.6479 29.48 25.4279 29.004 24.8239C29.344 24.7079 29.64 24.5719 29.9 24.4239L29.896 24.4279ZM28.128 25.0599C28.34 25.2399 29.424 26.2999 28.892 28.7639C28.28 28.7479 27.768 28.5919 27.52 28.5039C27.568 27.5879 27.508 26.4879 27.276 25.1799C27.58 25.1519 27.864 25.1079 28.124 25.0559L28.128 25.0599ZM26.904 31.2879C27.32 31.4519 28.168 31.7199 29.24 31.7199C28.164 32.4319 27.024 32.3599 26.352 32.2159C26.528 31.9919 26.724 31.6879 26.904 31.2879ZM30.524 30.7599C29.072 31.0479 27.7 30.6879 27.192 30.5239C27.296 30.1719 27.388 29.7719 27.448 29.3159C27.808 29.4239 28.372 29.5559 29.02 29.5559C30.152 29.5559 31.524 29.1559 32.468 27.5519C32.84 28.1079 32.96 28.6119 32.824 29.0559C32.544 29.9599 31.224 30.5439 30.524 30.7599ZM32.044 26.6319C32.008 26.7079 31.972 26.7839 31.936 26.8559C31.924 25.4039 31.056 24.4039 30.56 23.9479C31.06 23.4959 31.312 23.0119 31.436 22.6479C33.26 24.0999 32.096 26.5199 32.044 26.6279V26.6319ZM25.164 15.9239C25.892 16.5439 26.716 17.2439 28.128 17.9519C30.008 18.8919 31.144 20.7999 30.712 22.2959C30.244 23.9279 28.076 24.6799 24.76 24.3639C24.632 24.3519 24.5 24.4039 24.416 24.5039C24.388 24.5359 21.552 27.8399 18.412 27.5959C16.716 27.4599 15.204 26.3039 13.92 24.1559C13.836 24.0159 13.672 23.9399 13.512 23.9679C13.492 23.9679 11.276 24.3199 10.036 23.2719C9.48004 22.7999 9.20004 22.0959 9.20004 21.1759C9.20004 20.1319 13.18 15.7599 17.028 14.4079C17.748 14.1719 18.448 14.0039 19.148 14.0079C22.916 14.0079 23.856 14.8119 25.16 15.9199L25.164 15.9239ZM15.556 14.1439C15.168 14.4479 14.376 14.7719 13.868 15.1559C13.444 13.8319 13.48 12.0839 13.544 11.1359C13.812 11.2439 14.112 11.2399 14.416 11.1199C14.464 12.6279 14.844 13.6479 15.56 14.1439H15.556ZM17.496 4.38789C17.544 4.33589 17.62 4.29589 17.724 4.27589C17.904 4.55989 18.18 4.88389 18.572 5.05189C18.832 5.15989 19.252 5.23989 19.776 4.97989C21.636 4.06389 28.412 1.81589 30.556 3.29589C31.448 3.91189 31.804 4.67589 31.5 5.33589C31.256 5.87189 30.644 6.16789 30.084 6.01989C29.844 5.95589 24.132 4.50789 20.616 6.33189C18.864 7.23989 18.576 8.20389 18.368 8.90389C18.22 9.39589 18.084 9.69589 17.472 9.87989C17.524 9.68789 17.568 9.48789 17.6 9.26389C17.76 8.11989 17.612 7.02389 17.492 6.14389C17.384 5.36789 17.284 4.63189 17.5 4.38789H17.496ZM17.34 3.55189C17.16 3.61989 17.012 3.72389 16.896 3.85989C16.444 4.37589 16.556 5.20389 16.7 6.25189C16.82 7.12789 16.956 8.11989 16.808 9.15189C16.732 9.69189 16.544 10.3839 16.092 10.5999C15.796 10.7399 15.448 10.6559 15.232 10.5719C15.256 10.2439 15.272 9.65189 15.204 8.77989C15.076 7.17989 14.816 3.85589 15.62 2.98789C15.836 2.74789 16.192 2.79989 16.464 2.87589C16.84 3.00389 17.14 3.29589 17.344 3.55589L17.34 3.55189ZM12.88 3.44389C12.364 4.51189 12.188 6.29189 12.216 7.52789C12.228 8.02789 12.272 8.69189 12.408 9.31989C11.976 9.44789 11.32 9.57189 10.992 9.39589C10.884 9.33989 10.824 9.25589 10.796 9.11989C10.14 6.17189 11.128 5.00389 11.364 4.76789C11.516 4.61589 11.604 4.55989 11.604 4.40389C11.604 3.67589 11.928 3.51989 12.884 3.43989L12.88 3.44389ZM9.50804 9.25989C9.24404 9.09989 8.80404 8.55189 8.80404 6.67189C8.80404 5.51589 9.04404 4.77189 9.49604 4.52389C9.80404 4.35189 10.208 4.41989 10.532 4.53189C10.064 5.19189 9.42804 6.64789 10.016 9.29589C9.97204 9.39589 9.66804 9.35189 9.51204 9.25989H9.50804ZM20.004 37.2079C11.404 37.2079 4.40404 32.8999 4.40404 27.6079C4.40404 25.2239 5.82004 22.9719 8.40404 21.2039C8.40404 21.3999 8.42004 21.5879 8.44404 21.7679C8.00004 22.0759 6.72804 23.0879 6.32804 24.7719C6.01204 26.1159 6.32804 27.5439 7.26804 29.0239C9.34804 32.2959 12.292 33.0279 14.052 33.4639C14.628 33.6079 15.172 33.7399 15.324 33.8919C15.928 34.4959 16.568 34.2799 17.08 34.1039C17.536 33.9279 18.02 33.8399 18.492 34.0599C19.128 34.2799 20.092 34.6119 21.264 34.6119C22.54 34.6119 24.064 34.2199 25.688 32.8599C26.448 33.0999 28.824 33.6199 30.628 31.5599C31.156 31.4079 33.132 30.7399 33.588 29.2919C33.836 28.4999 33.596 27.6439 32.872 26.7439C33.408 25.4759 33.696 23.1399 31.6 21.7879C31.608 21.5919 31.6 21.3919 31.572 21.1919C34.072 22.9639 35.6 25.2839 35.6 27.6079C35.6 32.8999 28.6 37.2079 20 37.2079H20.004Z" fill="#141005"/>
</svg>
