<svg width="12" height="12" viewBox="0 0 12 12" fill="none" xmlns="http://www.w3.org/2000/svg">
<g clip-path="url(#clip0_1078_3201)">
<path d="M0.850823 10.4388V7.00522H4.14342V10.4388C4.14342 10.4969 4.19048 10.5439 4.24851 10.5439C4.30654 10.5439 4.3536 10.4969 4.3536 10.4388V7.00522H7.6462V10.4388C7.6462 10.4969 7.69326 10.5439 7.75129 10.5439C7.80932 10.5439 7.85636 10.4969 7.85636 10.4388V7.00522H11.1489V10.4388C11.1489 10.4969 11.196 10.5439 11.254 10.5439C11.312 10.5439 11.3591 10.4969 11.3591 10.4388C11.359 6.15168 11.359 6.59268 11.3591 2.43564C11.3591 2.37756 11.312 2.33057 11.254 2.33057C11.1959 2.33057 11.1489 2.37756 11.1489 2.43564V5.83143H7.85632V2.43564C7.85632 2.37756 7.80925 2.33057 7.75124 2.33057C7.69321 2.33057 7.64615 2.37756 7.64615 2.43564V5.83143H4.35356V2.43564C4.35356 2.37756 4.30649 2.33057 4.24846 2.33057C4.19043 2.33057 4.14337 2.37756 4.14337 2.43564V5.83143H0.850823V2.43564C0.850823 2.37756 0.80376 2.33057 0.745729 2.33057C0.687698 2.33057 0.640635 2.37756 0.640635 2.43564C0.640612 3.3171 0.640635 9.63789 0.640635 10.4388C0.640635 10.4969 0.687698 10.5439 0.745729 10.5439C0.80376 10.5439 0.850823 10.4969 0.850823 10.4388ZM11.1488 6.79506H0.850729V6.04161H11.1488V6.79506Z" fill="#155684"/>
<path d="M1.99655 4.63896H3.00112C3.33633 4.63896 3.60848 4.32162 3.60848 3.93281V3.6333H3.69673C3.75476 3.6333 3.80182 3.58631 3.80182 3.52821C3.80182 3.47013 3.75476 3.42312 3.69673 3.42312H3.60848V1.43081C3.60848 1.13763 3.40535 0.875977 3.12825 0.875977C2.1042 0.87682 1.85271 0.876469 1.84624 0.878086C1.61892 0.883922 1.38914 1.10517 1.38914 1.43081V3.42314H1.30041C1.24238 3.42314 1.19531 3.47013 1.19531 3.52823C1.19531 3.58631 1.24238 3.63333 1.30041 3.63333H1.38914V3.93284C1.38916 4.32162 1.66134 4.63896 1.99655 4.63896ZM3.12933 1.08614L2.86556 1.77863H2.13525L1.86834 1.0872L3.12827 1.08614H3.12933ZM2.82879 3.14051H2.16783V1.98879H2.82879V3.14051ZM1.97552 3.74576L2.10581 3.35067H2.89078L3.02213 3.74576C3.02845 3.76474 3.01793 3.78715 2.99691 3.792C2.75522 3.8561 2.57344 3.89182 2.49881 3.89182C2.42316 3.89182 2.24241 3.8561 1.99966 3.792C1.9827 3.78776 1.96699 3.76629 1.97552 3.74576ZM1.59933 1.43081C1.59933 1.33727 1.6298 1.24903 1.68129 1.18596L1.95766 1.90158V3.16992C1.94505 3.18148 1.93559 3.1962 1.93034 3.213L1.77586 3.67955C1.73112 3.80958 1.80413 3.95728 1.94714 3.99584C2.21721 4.06624 2.40216 4.10196 2.49881 4.10196C2.59444 4.10196 2.78044 4.06624 3.05048 3.99584C3.19465 3.95632 3.26395 3.8082 3.22177 3.67955L3.06626 3.213C3.06101 3.19617 3.05154 3.18148 3.03893 3.16887V1.91524L3.31636 1.18598C3.36785 1.25009 3.39832 1.3373 3.39832 1.43084V3.93284C3.39832 4.20605 3.21968 4.42882 3.0011 4.42882H1.99655C1.77691 4.42882 1.59933 4.20605 1.59933 3.93284V1.43081Z" fill="#155684"/>
<path d="M8.86309 11.197H10.1325C10.411 11.197 10.6127 10.9351 10.6127 10.6432V8.65074H10.7006C10.7586 8.65074 10.8057 8.60375 10.8057 8.54567C10.8057 8.48759 10.7586 8.44057 10.7006 8.44057H10.6127V8.14121C10.6127 7.7524 10.3395 7.43506 10.0053 7.43506H8.99968C8.66551 7.43506 8.39232 7.7524 8.39232 8.14121V8.44057H8.30431C8.24628 8.44057 8.19922 8.48757 8.19922 8.54567C8.19922 8.60377 8.24628 8.65074 8.30431 8.65074H8.39232V10.6432C8.39232 10.9716 8.63049 11.197 8.86309 11.197ZM10.1325 10.9868H8.87255L9.13946 10.2954H9.86977L10.1335 10.9868C10.1325 10.9868 10.1325 10.9868 10.1325 10.9868ZM9.17202 8.93354H9.83298V10.0852H9.17202V8.93354ZM10.0263 8.32826L9.89499 8.72337H9.11002L8.97868 8.32826C8.97301 8.31125 8.98095 8.28863 9.0039 8.28099C9.24559 8.21794 9.42739 8.18117 9.50199 8.18117C9.57765 8.18117 9.75943 8.21794 10.0011 8.28204C10.0239 8.28771 10.032 8.31127 10.0263 8.32826ZM8.99968 7.64522H10.0053C10.2239 7.64522 10.4025 7.86802 10.4025 8.14121V10.6432C10.4025 10.7367 10.372 10.826 10.3205 10.8891L10.0431 10.1619V8.9041C10.0557 8.89254 10.0652 8.87782 10.0704 8.86102L10.226 8.39447C10.2704 8.25884 10.1904 8.11289 10.0536 8.07818C9.7846 8.00778 9.5986 7.971 9.50195 7.971C9.40632 7.971 9.22032 8.00778 8.95027 8.07818C8.88512 8.09499 8.82943 8.13912 8.79685 8.19903C8.71269 8.35381 8.82085 8.459 8.9345 8.86104C8.93975 8.87785 8.94922 8.89257 8.96183 8.90518V10.1693L8.6844 10.8891C8.63291 10.8261 8.60244 10.7368 8.60244 10.6432C8.60244 9.70524 8.60244 9.03136 8.60244 8.14123C8.60248 7.86802 8.78113 7.64522 8.99968 7.64522Z" fill="#155684"/>
<path d="M9.03161 4.56518H10.0362C10.3714 4.56518 10.6436 4.24889 10.6436 3.86006V3.56032H10.7319C10.7899 3.56032 10.837 3.51332 10.837 3.45522C10.837 3.39714 10.7899 3.35013 10.7319 3.35013H10.6436V1.357C10.6436 1.065 10.4408 0.803223 10.1634 0.803223H8.90446C8.65879 0.803223 8.42423 1.02616 8.42423 1.357V3.35013H8.33554C8.27751 3.35013 8.23047 3.39712 8.23047 3.45522C8.23047 3.5133 8.27753 3.56032 8.33554 3.56032H8.42423V3.86006C8.42423 4.24889 8.69641 4.56518 9.03161 4.56518ZM10.1644 1.01339L9.90065 1.70482L9.17034 1.70587L8.90341 1.01444C9.64881 1.01383 9.41786 1.01402 10.1644 1.01339ZM9.86385 1.91604V3.06775H9.20289V1.91604H9.86385ZM9.01059 3.67197L9.1409 3.27792H9.92587L10.0572 3.67197C10.0635 3.69236 10.053 3.71442 10.032 3.71925C9.79031 3.78335 9.6085 3.81909 9.5339 3.81909C9.45824 3.81909 9.27749 3.78335 9.03581 3.71925C9.01225 3.71383 9.0033 3.68653 9.01059 3.67197ZM8.63439 1.357C8.63439 1.26349 8.66486 1.17628 8.71635 1.11323L8.99273 1.83093V3.09717C8.95886 3.12825 8.97524 3.12309 8.81095 3.60578C8.76449 3.74292 8.84533 3.88619 8.98223 3.92313C9.2523 3.99354 9.43724 4.02925 9.5339 4.02925C9.62952 4.02925 9.81552 3.99351 10.0856 3.92313C10.2255 3.88474 10.3002 3.74015 10.2569 3.60578C10.0923 3.1244 10.1066 3.12604 10.074 3.09614V1.84249L10.3514 1.11323C10.4029 1.17733 10.4334 1.26454 10.4334 1.357V3.86006C10.4334 4.13329 10.2547 4.35501 10.0362 4.35501H9.03159C8.81195 4.35501 8.63437 4.13329 8.63437 3.86006V1.357H8.63439Z" fill="#155684"/>
<path d="M2.49742 10.2586C2.55545 10.2586 2.60249 10.2116 2.60249 10.1535V7.77956L3.04754 8.3088C3.08495 8.35324 3.15123 8.35898 3.19558 8.32162C3.24001 8.28426 3.24571 8.21798 3.20835 8.17354L2.57739 7.42319C2.53513 7.37301 2.45837 7.37351 2.41654 7.42319L1.78635 8.17354C1.74899 8.21808 1.7548 8.28426 1.79922 8.32162C1.84387 8.35905 1.91005 8.35305 1.94725 8.3088L2.3923 7.77888V10.1535C2.39233 10.2116 2.43939 10.2586 2.49742 10.2586Z" fill="#155684"/>
<path d="M6.00133 10.2586C6.05936 10.2586 6.1064 10.2116 6.1064 10.1535V7.77964L6.55145 8.30881C6.58886 8.35325 6.65509 8.35899 6.69948 8.32163C6.74392 8.28427 6.74961 8.21799 6.71226 8.17355L6.08125 7.4232C6.03915 7.37321 5.9624 7.3733 5.9204 7.4232L5.29026 8.17355C5.2529 8.21808 5.25871 8.28427 5.30312 8.32163C5.34777 8.35906 5.41396 8.35306 5.45115 8.30881L5.89621 7.77884V10.1535C5.89626 10.2116 5.9433 10.2586 6.00133 10.2586Z" fill="#155684"/>
<path d="M6.00131 2.45898C5.94328 2.45898 5.89622 2.50598 5.89622 2.56405V4.93881L5.45116 4.40884C5.41385 4.36441 5.34757 4.35876 5.30313 4.39602C5.25869 4.43338 5.2529 4.49957 5.29026 4.5441L5.9204 5.29445C5.94037 5.31815 5.96976 5.33191 6.00079 5.33191H6.00084C6.03187 5.33191 6.06129 5.31815 6.08123 5.29445L6.71224 4.5441C6.7496 4.49966 6.7439 4.43338 6.69947 4.39602C6.65503 4.35866 6.58879 4.36441 6.55144 4.40884L6.10638 4.93802V2.56408C6.1064 2.50598 6.05934 2.45898 6.00131 2.45898Z" fill="#155684"/>
</g>
<defs>
<clipPath id="clip0_1078_3201">
<rect width="12" height="12" fill="white"/>
</clipPath>
</defs>
</svg>
