<svg width="12" height="12" viewBox="0 0 12 12" fill="none" xmlns="http://www.w3.org/2000/svg">
<g clip-path="url(#clip0_668_3055)">
<path d="M0.181641 11.1089C0.181641 11.5089 0.490732 11.818 0.890732 11.818H11.1089C11.4907 11.818 11.818 11.5089 11.818 11.1089V3.96346C11.818 3.58164 11.5089 3.25437 11.1089 3.25437H8.618C8.87255 1.59982 7.58164 0.181641 5.99982 0.181641C4.54528 0.181641 3.34528 1.36346 3.34528 2.83619C3.34528 2.96346 3.36346 3.07255 3.38164 3.19982V3.25437V3.27255H0.890732C0.508913 3.27255 0.181641 3.58164 0.181641 3.98164V11.1089ZM1.45437 6.5271C1.9271 6.618 2.29073 7.03619 2.29073 7.5271C2.29073 8.018 1.9271 8.45437 1.45437 8.5271V6.5271ZM1.09073 9.36346C1.09073 9.56346 0.927095 9.70891 0.745277 9.70891H0.527095V5.34528H0.745277C0.945277 5.34528 1.09073 5.50891 1.09073 5.69073V9.36346ZM3.90891 1.87255L4.14528 2.418L3.69073 2.818C3.70891 2.47255 3.78164 2.16346 3.90891 1.87255ZM3.74528 3.25437L4.418 2.67255L4.98164 2.79982L5.27255 3.63619L4.99982 4.05437L4.10891 4.10891C3.9271 3.85437 3.79982 3.56346 3.74528 3.25437ZM5.99982 2.218L6.67255 2.70891L6.418 3.49073H5.58164L5.3271 2.70891L5.99982 2.218ZM7.018 2.78164L7.58164 2.65437L8.25437 3.23619C8.19982 3.54528 8.07255 3.83619 7.90891 4.10891L7.018 4.05437L6.7271 3.63619L7.018 2.78164ZM8.29073 2.818L7.83619 2.418L8.07255 1.87255C8.21801 2.16346 8.29073 2.47255 8.29073 2.818ZM7.03619 4.418L7.63619 4.45437C7.418 4.69073 7.1271 4.85437 6.818 4.98164L7.03619 4.418ZM4.96346 4.418L5.18164 4.98164C4.87255 4.87255 4.59982 4.69073 4.36346 4.45437L4.96346 4.418ZM5.59982 5.09073L5.27255 4.25437L5.54528 3.83619H6.43619L6.70891 4.25437L6.39982 5.09073C6.1271 5.14528 5.89073 5.14528 5.59982 5.09073ZM6.18164 6.25437C6.79982 6.34528 7.29073 6.87255 7.29073 7.5271C7.29073 8.18164 6.79982 8.70891 6.18164 8.79982V6.25437ZM5.818 8.79982C5.19982 8.70891 4.70891 8.18164 4.70891 7.5271C4.70891 6.87255 5.19982 6.34528 5.818 6.25437V8.79982ZM11.1089 3.59982C11.3089 3.59982 11.4544 3.76346 11.4544 3.94528V4.98164H11.2362C10.8544 4.98164 10.5271 5.29073 10.5271 5.69073V6.18164C9.85437 6.27255 9.3271 6.83619 9.3271 7.54528C9.3271 8.23619 9.85437 8.818 10.5271 8.90891V9.38164C10.5271 9.76346 10.8362 10.0907 11.2362 10.0907H11.4544V11.1271C11.4544 11.3271 11.2907 11.4725 11.1089 11.4725H6.18164V9.16346C6.99982 9.07255 7.63619 8.38164 7.63619 7.5271C7.63619 6.69073 6.99982 5.98164 6.18164 5.89073V5.45437C7.3271 5.38164 8.23619 4.58164 8.54528 3.58164H11.1089V3.59982ZM10.5453 8.54528C10.0725 8.45437 9.70891 8.03619 9.70891 7.54528C9.70891 7.05437 10.0725 6.618 10.5453 6.54528V8.54528ZM10.9089 5.70891C10.9089 5.50891 11.0726 5.36346 11.2544 5.36346H11.4725V9.7271H11.2544C11.0544 9.7271 10.9089 9.56346 10.9089 9.38164V5.70891ZM7.85437 1.49073L7.50891 2.30891L6.90891 2.43619L6.16346 1.89073V1.23619L6.90891 0.727095C7.29073 0.890732 7.618 1.16346 7.85437 1.49073ZM6.49073 0.581641L5.99982 0.945277L5.50891 0.599822C5.67255 0.545277 5.83619 0.527095 5.99982 0.527095C6.16346 0.527095 6.3271 0.545277 6.49073 0.581641ZM5.09073 0.727095L5.818 1.25437V1.90891L5.07255 2.45437L4.47255 2.3271L4.1271 1.50891C4.38164 1.14528 4.70891 0.890732 5.09073 0.727095ZM0.890732 3.59982H3.47255C3.78164 4.59982 4.69073 5.38164 5.83619 5.47255V5.90891C5.018 5.99982 4.38164 6.69073 4.38164 7.54528C4.38164 8.38164 5.018 9.09073 5.83619 9.18164V11.4907H0.890732C0.690732 11.4907 0.545277 11.3271 0.545277 11.1453V10.1089H0.763459C1.14528 10.1089 1.47255 9.79982 1.47255 9.39982V8.9271C2.14528 8.83619 2.67255 8.27255 2.67255 7.56346C2.67255 6.87255 2.14528 6.29073 1.47255 6.19982V5.7271C1.47255 5.34528 1.16346 5.018 0.763459 5.018H0.527095V3.98164C0.527095 3.76346 0.690732 3.59982 0.890732 3.59982Z" fill="#082133"/>
</g>
<defs>
<clipPath id="clip0_668_3055">
<rect width="12" height="12" fill="white"/>
</clipPath>
</defs>
</svg>
