<svg width="16" height="16" viewBox="0 0 16 16" fill="none" xmlns="http://www.w3.org/2000/svg">
<path d="M10.7226 10.41H10.6551C9.29012 10.41 8.18262 9.30251 8.18262 7.93751V6.25751H13.1951V7.93751C13.1951 9.30251 12.0901 10.41 10.7226 10.41Z" stroke="#141005" stroke-width="0.5" stroke-miterlimit="10" stroke-linecap="round" stroke-linejoin="round"/>
<path d="M8.18227 6.25498V5.47748C8.18227 5.47748 7.07227 5.19748 7.07227 4.22748C7.07227 3.09998 8.28227 2.88248 8.84727 3.23248C8.84727 3.23248 8.48727 2.17748 9.45227 1.37998C11.1048 0.0124808 14.2848 1.34998 13.2473 3.84248C13.2473 3.84248 13.8273 3.57748 14.2248 4.16248C14.5498 4.64498 14.2473 5.57748 13.1973 5.41498V6.25498" stroke="#141005" stroke-width="0.5" stroke-miterlimit="10" stroke-linecap="round" stroke-linejoin="round"/>
<path d="M8.18196 6.59748C8.18196 6.59748 7.86196 6.06498 7.50946 6.38748C7.17446 6.69248 7.62446 7.95498 8.18196 7.39748" stroke="#141005" stroke-width="0.5" stroke-miterlimit="10" stroke-linecap="round" stroke-linejoin="round"/>
<path d="M13.1943 6.59748C13.1943 6.59748 13.5143 6.06498 13.8668 6.38748C14.1993 6.69248 13.7518 7.95498 13.1943 7.39748" stroke="#141005" stroke-width="0.5" stroke-miterlimit="10" stroke-linecap="round" stroke-linejoin="round"/>
<path d="M9.63184 10.1825V11.1675" stroke="#141005" stroke-width="0.5" stroke-miterlimit="10" stroke-linecap="round" stroke-linejoin="round"/>
<path d="M11.7441 10.1825V11.1675H12.2041C12.7866 11.1675 13.3466 11.375 13.7916 11.75C13.9816 11.9125 14.1816 12.0825 14.3441 12.22C14.5641 12.4075 14.6916 12.6825 14.6916 12.97V15.1675" stroke="#141005" stroke-width="0.5" stroke-miterlimit="10" stroke-linecap="round" stroke-linejoin="round"/>
<path d="M11.745 11.1675L9.84746 12.12C9.57246 12.2575 9.39746 12.54 9.39746 12.85V15.1675" stroke="#141005" stroke-width="0.5" stroke-miterlimit="10" stroke-linecap="round" stroke-linejoin="round"/>
<path d="M10.4145 11.835L9.63199 11.17H8.84949C8.49949 11.17 8.14949 11.235 7.82449 11.365L6.39199 11.9275C6.08699 12.0475 5.74199 11.9225 5.58199 11.6375L4.97949 10.565" stroke="#141005" stroke-width="0.5" stroke-miterlimit="10" stroke-linecap="round" stroke-linejoin="round"/>
<path d="M8.84668 3.23248C8.84668 3.23248 9.04168 3.77498 9.33168 3.96248" stroke="#141005" stroke-width="0.5" stroke-miterlimit="10" stroke-linecap="round" stroke-linejoin="round"/>
<path d="M10.2998 13.1275V13.37" stroke="#141005" stroke-width="0.5" stroke-miterlimit="10" stroke-linecap="round" stroke-linejoin="round"/>
<path d="M10.2998 14.5075V14.7475" stroke="#141005" stroke-width="0.5" stroke-miterlimit="10" stroke-linecap="round" stroke-linejoin="round"/>
<path d="M3.7168 10.5625L4.7843 13.125C4.9343 13.485 5.2893 13.7175 5.6768 13.7125L6.9918 13.695V15.1675" stroke="#141005" stroke-width="0.5" stroke-miterlimit="10" stroke-linecap="round" stroke-linejoin="round"/>
<path d="M7.76207 9.6675H1.30957C1.30957 9.6675 1.55957 6.9975 4.53457 6.9975C7.51207 6.9975 7.76207 9.6675 7.76207 9.6675Z" stroke="#141005" stroke-width="0.5" stroke-miterlimit="10" stroke-linecap="round" stroke-linejoin="round"/>
<path d="M3.64941 7.09001C3.64941 7.09001 3.76691 6.19501 4.53441 6.19501C5.30191 6.19501 5.36691 7.07751 5.36691 7.07751" stroke="#141005" stroke-width="0.5" stroke-miterlimit="10" stroke-linecap="round" stroke-linejoin="round"/>
<path d="M2.55176 10.5625H6.61426" stroke="#141005" stroke-width="0.5" stroke-miterlimit="10" stroke-linecap="round" stroke-linejoin="round"/>
</svg>
