<svg width="20" height="20" viewBox="0 0 20 20" fill="none" xmlns="http://www.w3.org/2000/svg">
<g clip-path="url(#clip0_1009_2891)">
<path d="M10.4214 6.93066L11.6088 9.35766L14.2641 9.74699C14.3512 9.76037 14.4328 9.79773 14.4999 9.85488C14.5669 9.91203 14.6168 9.98672 14.6438 10.0706C14.6708 10.1545 14.674 10.2442 14.6529 10.3297C14.6318 10.4153 14.5873 10.4933 14.5244 10.555L12.6031 12.4443L13.0564 15.111C13.0719 15.1976 13.0628 15.2869 13.0301 15.3686C12.9975 15.4503 12.9425 15.5212 12.8716 15.5733C12.8006 15.6254 12.7165 15.6565 12.6287 15.6632C12.541 15.6698 12.4531 15.6518 12.3751 15.611L10.0001 14.3517L7.62508 15.6113C7.54708 15.6521 7.45921 15.6702 7.37145 15.6635C7.28369 15.6569 7.19956 15.6257 7.1286 15.5737C7.05764 15.5216 7.00271 15.4507 6.97003 15.3689C6.93736 15.2872 6.92825 15.198 6.94375 15.1113L7.39708 12.4447L5.47575 10.5553C5.41285 10.4936 5.36837 10.4156 5.34729 10.3301C5.3262 10.2445 5.32935 10.1548 5.35637 10.0709C5.38339 9.98705 5.43322 9.91236 5.50028 9.85521C5.56735 9.79806 5.64899 9.7607 5.73608 9.74732L8.39142 9.35799L9.57875 6.93099C9.61664 6.85135 9.67631 6.78408 9.75086 6.73697C9.82541 6.68985 9.91179 6.66483 9.99998 6.66479C10.0882 6.66476 10.1746 6.68972 10.2492 6.73677C10.3237 6.78382 10.3835 6.85105 10.4214 6.93066Z" fill="#D5B15D"/>
<path d="M3.24077 11.4897L3.91944 12.928L5.43677 13.1587C5.48734 13.1684 5.53432 13.1917 5.5727 13.226C5.61107 13.2604 5.63941 13.3045 5.65467 13.3536C5.66993 13.4028 5.67156 13.4552 5.65936 13.5053C5.64717 13.5553 5.62162 13.6011 5.58544 13.6377L4.48744 14.757L4.74677 16.338C4.75713 16.3881 4.75308 16.4402 4.73511 16.4881C4.71713 16.536 4.68595 16.5778 4.64519 16.6088C4.60442 16.6397 4.55573 16.6585 4.50475 16.6629C4.45377 16.6673 4.40258 16.6572 4.35711 16.6337L3.00011 15.8874L1.64311 16.6334C1.59763 16.6568 1.54644 16.6669 1.49546 16.6625C1.44448 16.6581 1.39579 16.6394 1.35502 16.6084C1.31426 16.5775 1.28308 16.5357 1.26511 16.4877C1.24713 16.4398 1.24308 16.3878 1.25344 16.3377L1.51277 14.7567L0.414773 13.6377C0.378593 13.6011 0.353043 13.5553 0.34085 13.5053C0.328657 13.4552 0.330279 13.4028 0.345542 13.3536C0.360806 13.3045 0.389138 13.2604 0.427515 13.226C0.465891 13.1917 0.512871 13.1684 0.563439 13.1587L2.08077 12.928L2.75944 11.4897C2.78012 11.4431 2.81386 11.4036 2.85658 11.3758C2.8993 11.348 2.94916 11.3333 3.00011 11.3333C3.05106 11.3333 3.10091 11.348 3.14363 11.3758C3.18635 11.4036 3.22009 11.4431 3.24077 11.4897Z" fill="#C19632"/>
<path d="M17.2408 11.4896L17.9194 12.928L19.4368 13.1586C19.4873 13.1683 19.5343 13.1916 19.5727 13.2259C19.6111 13.2603 19.6394 13.3044 19.6547 13.3536C19.6699 13.4027 19.6716 13.4551 19.6594 13.5052C19.6472 13.5552 19.6216 13.601 19.5854 13.6376L18.4874 14.757L18.7468 16.338C18.7571 16.3881 18.7531 16.4401 18.7351 16.488C18.7171 16.5359 18.686 16.5778 18.6452 16.6087C18.6044 16.6396 18.5557 16.6584 18.5048 16.6628C18.4538 16.6672 18.4026 16.6571 18.3571 16.6336L17.0001 15.8873L15.6431 16.6333C15.5976 16.6568 15.5464 16.6669 15.4955 16.6625C15.4445 16.658 15.3958 16.6393 15.355 16.6084C15.3143 16.5774 15.2831 16.5356 15.2651 16.4877C15.2471 16.4398 15.2431 16.3877 15.2534 16.3376L15.5128 14.7566L14.4148 13.6373C14.3786 13.6006 14.353 13.5549 14.3408 13.5048C14.3287 13.4548 14.3303 13.4024 14.3455 13.3532C14.3608 13.3041 14.3891 13.2599 14.4275 13.2256C14.4659 13.1913 14.5129 13.168 14.5634 13.1583L16.0808 12.9276L16.7594 11.4893C16.7802 11.4427 16.8139 11.4032 16.8567 11.3755C16.8994 11.3477 16.9493 11.333 17.0002 11.333C17.0512 11.333 17.101 11.3479 17.1437 11.3757C17.1864 11.4035 17.2201 11.443 17.2408 11.4896Z" fill="#C19632"/>
<path d="M9.99984 5.66667C9.91143 5.66667 9.82665 5.63155 9.76413 5.56904C9.70162 5.50652 9.6665 5.42174 9.6665 5.33333V3.33333C9.6665 3.24493 9.70162 3.16014 9.76413 3.09763C9.82665 3.03512 9.91143 3 9.99984 3C10.0882 3 10.173 3.03512 10.2355 3.09763C10.2981 3.16014 10.3332 3.24493 10.3332 3.33333V5.33333C10.3332 5.42174 10.2981 5.50652 10.2355 5.56904C10.173 5.63155 10.0882 5.66667 9.99984 5.66667Z" fill="#A7D2F1"/>
<path d="M6.99995 6.30834C6.93562 6.30837 6.87266 6.28979 6.81866 6.25483C6.76466 6.21988 6.72192 6.17004 6.69561 6.11134L5.87761 4.28634C5.84466 4.20625 5.84417 4.11648 5.87625 4.03604C5.90833 3.9556 5.97045 3.89079 6.04947 3.85536C6.12849 3.81992 6.2182 3.81663 6.29961 3.84618C6.38102 3.87573 6.44773 3.9358 6.48561 4.01368L7.30361 5.83868C7.32635 5.8894 7.33604 5.945 7.3318 6.00042C7.32756 6.05584 7.30953 6.10932 7.27936 6.15599C7.24918 6.20267 7.20781 6.24106 7.15901 6.26767C7.11021 6.29427 7.05553 6.30826 6.99995 6.30834Z" fill="#A7D2F1"/>
<path d="M13.0001 6.30834C12.9445 6.30826 12.8898 6.29427 12.841 6.26767C12.7922 6.24106 12.7508 6.20267 12.7206 6.15599C12.6905 6.10932 12.6724 6.05584 12.6682 6.00042C12.664 5.945 12.6737 5.8894 12.6964 5.83868L13.5144 4.01368C13.5523 3.9358 13.619 3.87573 13.7004 3.84618C13.7818 3.81663 13.8715 3.81992 13.9505 3.85536C14.0296 3.89079 14.0917 3.9556 14.1238 4.03604C14.1558 4.11648 14.1553 4.20625 14.1224 4.28634L13.3044 6.11134C13.2781 6.17004 13.2353 6.21988 13.1813 6.25483C13.1273 6.28979 13.0644 6.30837 13.0001 6.30834Z" fill="#A7D2F1"/>
</g>
<defs>
<clipPath id="clip0_1009_2891">
<rect width="20" height="20" fill="white"/>
</clipPath>
</defs>
</svg>
