<svg width="26" height="26" viewBox="0 0 26 26" fill="none" xmlns="http://www.w3.org/2000/svg">
<path d="M20.1646 9.81024L16.5037 9.27826L14.8664 5.96091C14.2341 4.67951 12.4055 4.6799 11.7733 5.96087L10.1361 9.27822L6.47517 9.81024C5.06098 10.0157 4.49648 11.7548 5.51937 12.752L8.16845 15.3342L7.5431 18.9802C7.30156 20.3887 8.78098 21.4629 10.0455 20.7983L13.3199 19.0768L16.5944 20.7983C17.8571 21.4622 19.3383 20.3885 19.0968 18.9802L18.4714 15.3341L21.1206 12.7519C22.1436 11.7544 21.5782 10.0157 20.1646 9.81024ZM20.0885 11.6934L17.1612 14.5468C16.987 14.7166 16.9075 14.9613 16.9486 15.201L17.6397 19.2302C17.6744 19.4325 17.4638 19.5853 17.2822 19.4899L13.6638 17.5876C13.4485 17.4745 13.1912 17.4745 12.9759 17.5876L9.35752 19.4899C9.17579 19.5854 8.96535 19.4325 9.00004 19.2302L9.69109 15.201C9.73219 14.9613 9.65272 14.7166 9.47853 14.5468L6.55118 11.6934C6.40414 11.5501 6.48457 11.3027 6.68774 11.2731L10.7332 10.6853C10.9739 10.6503 11.1821 10.4991 11.2897 10.281L13.099 6.61511C13.1898 6.43113 13.4499 6.431 13.5408 6.61515L15.35 10.281C15.4577 10.4991 15.6658 10.6503 15.9066 10.6853L19.952 11.2731C20.1552 11.3027 20.2355 11.5501 20.0885 11.6934Z" fill="#B3B3B3"/>
</svg>
