<svg width="27" height="27" viewBox="0 0 27 27" fill="none" xmlns="http://www.w3.org/2000/svg">
<g clip-path="url(#clip0_1836_9174)" filter="url(#filter0_d_1836_9174)">
<path d="M20.0309 9.89894L16.2337 9.34717L14.5356 5.90638C13.8799 4.57768 11.9833 4.57719 11.3273 5.90634L9.62916 9.34717L5.83197 9.89894C4.36572 10.112 3.77927 11.9155 4.84059 12.9502L7.58827 15.6285L6.93965 19.4103C6.68916 20.8705 8.22306 21.9857 9.53518 21.2961L12.9315 19.5105L16.3278 21.2961C17.6415 21.9866 19.1732 20.8672 18.9232 19.4103L18.2746 15.6285L21.0223 12.9502C22.0832 11.9159 21.4978 10.1121 20.0309 9.89894Z" fill="#A27E2A"/>
<path d="M8.05282 3.57797L7.13592 2.31603C6.88701 1.97355 6.40756 1.89758 6.06508 2.1465C5.72255 2.39536 5.64663 2.87481 5.8955 3.21734L6.8124 4.47928C7.06144 4.82195 7.54094 4.89764 7.88324 4.64882C8.22577 4.4 8.30169 3.9205 8.05282 3.57797Z" fill="#A27E2A"/>
<path d="M5.00961 14.8872C4.87875 14.4845 4.44634 14.264 4.04357 14.395L2.52993 14.8868C2.12725 15.0176 1.90691 15.4501 2.03772 15.8529C2.1688 16.2563 2.60212 16.4757 3.00376 16.3451L4.51745 15.8532C4.92013 15.7224 5.14047 15.2899 5.00961 14.8872Z" fill="#A27E2A"/>
<path d="M20.935 2.14651C20.5925 1.8976 20.1131 1.97351 19.8642 2.31604L18.9473 3.57799C18.6984 3.92052 18.7743 4.40001 19.1169 4.64883C19.4595 4.89779 19.9389 4.82169 20.1877 4.4793L21.1046 3.21735C21.3535 2.87483 21.2775 2.39538 20.935 2.14651Z" fill="#A27E2A"/>
<path d="M24.4696 14.8868L22.9559 14.395C22.5533 14.2639 22.1207 14.4845 21.9899 14.8872C21.859 15.2899 22.0794 15.7224 22.4821 15.8533L23.9958 16.3451C24.3977 16.4758 24.8308 16.2561 24.9618 15.8529C25.0926 15.4502 24.8723 15.0177 24.4696 14.8868Z" fill="#A27E2A"/>
<path d="M13.1162 21.0098C12.6929 21.0098 12.3496 21.353 12.3496 21.7764V23.3324C12.3496 23.7558 12.6929 24.099 13.1162 24.099C13.5396 24.099 13.8829 23.7558 13.8829 23.3324V21.7764C13.8829 21.353 13.5397 21.0098 13.1162 21.0098Z" fill="#A27E2A"/>
</g>
<defs>
<filter id="filter0_d_1836_9174" x="0" y="-0.540283" width="27" height="27" filterUnits="userSpaceOnUse" color-interpolation-filters="sRGB">
<feFlood flood-opacity="0" result="BackgroundImageFix"/>
<feColorMatrix in="SourceAlpha" type="matrix" values="0 0 0 0 0 0 0 0 0 0 0 0 0 0 0 0 0 0 127 0" result="hardAlpha"/>
<feOffset/>
<feGaussianBlur stdDeviation="1"/>
<feComposite in2="hardAlpha" operator="out"/>
<feColorMatrix type="matrix" values="0 0 0 0 0.0313726 0 0 0 0 0.129412 0 0 0 0 0.2 0 0 0 0.3 0"/>
<feBlend mode="normal" in2="BackgroundImageFix" result="effect1_dropShadow_1836_9174"/>
<feBlend mode="normal" in="SourceGraphic" in2="effect1_dropShadow_1836_9174" result="shape"/>
</filter>
<clipPath id="clip0_1836_9174">
<rect width="23" height="23" fill="white" transform="translate(2 1.45972)"/>
</clipPath>
</defs>
</svg>
