<svg width="12" height="12" viewBox="0 0 12 12" fill="none" xmlns="http://www.w3.org/2000/svg">
<g clip-path="url(#clip0_1078_3195)">
<path d="M5.99833 11.1426C5.35547 11.1426 4.71261 11.0141 4.11261 10.7998C2.14118 10.0284 0.855469 8.14265 0.855469 5.99979C0.855469 3.17122 3.16975 0.856934 5.99833 0.856934C7.36975 0.856934 8.65547 1.37122 9.64118 2.35693C9.81261 2.52836 9.81261 2.78551 9.64118 2.95693C9.46975 3.12836 9.21261 3.12836 9.04118 2.95693C8.2269 2.14265 7.15547 1.71408 5.99833 1.71408C3.64118 1.71408 1.71261 3.64265 1.71261 5.99979C1.71261 7.79979 2.78404 9.34265 4.45547 9.98551C4.96975 10.1998 5.48404 10.2855 5.99833 10.2855C6.25547 10.2855 6.4269 10.4569 6.4269 10.7141C6.4269 10.9712 6.25547 11.1426 5.99833 11.1426ZM7.71261 10.8426C7.24118 10.8426 7.11261 10.1998 7.54118 10.0284C9.21261 9.3855 10.284 7.79979 10.284 6.04265C10.284 5.78551 10.4555 5.61408 10.7126 5.61408C10.9698 5.61408 11.1412 5.78551 11.1412 6.04265C11.1412 8.18551 9.85547 10.0712 7.88404 10.8426C7.79833 10.7998 7.75547 10.8426 7.71261 10.8426ZM5.99833 8.99979C4.3269 8.99979 2.99833 7.67122 2.99833 5.99979C2.99833 4.32836 4.3269 2.99979 5.99833 2.99979C6.81261 2.99979 7.54118 3.29979 8.14118 3.89979C8.31261 4.07122 8.31261 4.32836 8.14118 4.49979C7.96975 4.67122 7.71261 4.67122 7.54118 4.49979C7.11261 4.07122 6.55547 3.85693 5.99833 3.85693C4.79833 3.85693 3.85547 4.79979 3.85547 5.99979C3.85547 7.19979 4.79833 8.14265 5.99833 8.14265C7.19833 8.14265 8.14118 7.19979 8.14118 5.99979C8.14118 5.74265 8.31261 5.57122 8.56975 5.57122C8.8269 5.57122 8.99833 5.74265 8.99833 5.99979C8.99833 7.67122 7.66975 8.99979 5.99833 8.99979Z" fill="#155684"/>
</g>
<defs>
<clipPath id="clip0_1078_3195">
<rect width="12" height="12" fill="white"/>
</clipPath>
</defs>
</svg>
