<svg width="96" height="96" viewBox="0 0 96 96" fill="none" xmlns="http://www.w3.org/2000/svg">
<path d="M73.6002 60.7977C73.6002 71.4018 65.0015 80.0005 54.4012 80.0005C43.797 80.0005 35.2012 71.4018 35.2012 60.7977C35.2012 50.1954 43.798 41.5977 54.4012 41.5977C65.0015 41.5977 73.6002 50.1954 73.6002 60.7977Z" fill="#EEFFE5"/>
<path d="M54.4001 35.1973C40.2612 35.1973 28.7988 46.6606 28.7988 60.7976C28.7988 74.9394 40.2612 86.4017 54.4001 86.4017C68.538 86.4017 80.0004 74.9403 80.0004 60.7976C80.0004 46.6606 68.538 35.1973 54.4001 35.1973ZM54.4001 80.0005C43.7959 80.0005 35.2001 71.4017 35.2001 60.7976C35.2001 50.1953 43.7969 41.5976 54.4001 41.5976C65.0004 41.5976 73.5991 50.1953 73.5991 60.7976C73.5991 71.4017 65.0004 80.0005 54.4001 80.0005Z" fill="#339900"/>
<path d="M71.8993 52.9014L54.4004 70.4022L57.1162 73.1171L73.2241 57.0073C72.9361 55.575 72.4858 54.2002 71.8993 52.9014Z" fill="#DDFFCC"/>
<path d="M43.7202 55.4775C42.5489 56.649 42.5489 58.5481 43.7201 59.7196L52.2788 68.2809C53.4504 69.4528 55.3502 69.4529 56.5219 68.281L84.2789 40.5198C85.4504 39.3482 85.4503 37.4489 84.2788 36.2773L83.9967 35.9953C82.8252 34.8238 80.9257 34.8237 79.7541 35.9953L56.5215 59.2271C55.3499 60.3986 53.4505 60.3987 52.279 59.2272L48.2456 55.1944C47.074 54.0228 45.1744 54.023 44.0029 55.1947L43.7202 55.4775Z" fill="#7CB342"/>
<path d="M71.8965 52.9024C72.484 54.2023 72.9352 55.5741 73.2242 57.0064L78.387 51.8436C77.907 50.5562 77.3166 49.3293 76.6466 48.1533L71.8965 52.9024Z" fill="#339900"/>
<path d="M69.2002 30.6C69.2002 29.8263 69.826 29.2 70.5997 29.2H71.3C71.6866 29.2 72 28.8866 72 28.5C72 28.1134 71.6866 27.8 71.3 27.8H70.5997C69.826 27.8 69.2002 27.1741 69.2002 26.4V25.7002C69.2002 25.3135 68.8867 25 68.5 25C68.1133 25 67.7998 25.3135 67.7998 25.7002V26.4C67.7998 27.1741 67.1711 27.8 66.3999 27.8H65.7C65.3134 27.8 65 28.1134 65 28.5C65 28.8866 65.3134 29.2 65.7 29.2H66.3999C67.1711 29.2 67.7973 29.8267 67.7998 30.6V31.2998C67.7998 31.6865 68.1133 32 68.5 32C68.8867 32 69.2002 31.6865 69.2002 31.2998V30.6Z" fill="#082133"/>
<path d="M21 31.0001C21 29.8958 21.8955 29 22.9998 29H23.5C23.7762 29 24 28.7761 24 28.5C24 28.2239 23.7762 28 23.5 28H22.9998C21.8955 28 21 27.1051 21 25.9999V25.5C21 25.2238 20.7761 25 20.5 25C20.2239 25 20 25.2238 20 25.5V25.9999C20 27.1039 19.1036 28 17.9999 28H17.5C17.2238 28 17 28.2239 17 28.5C17 28.7761 17.2238 29 17.5 29H17.9999C19.1033 29 20 29.8952 20 31.0001V31.5C20 31.7762 20.2239 32 20.5 32C20.7761 32 21 31.7762 21 31.5V31.0001Z" fill="#1A1400"/>
<path d="M22.3988 49.5979C22.3988 52.2503 20.2523 54.3979 17.5988 54.3979C14.9559 54.3979 12.7988 52.2503 12.7988 49.5979C12.7988 46.9492 14.955 44.7979 17.5988 44.7979C20.2523 44.7979 22.3988 46.9492 22.3988 49.5979Z" fill="#BBFF99"/>
<path d="M54.3993 15.9985C54.3993 17.762 52.9612 19.1982 51.1977 19.1982C49.4352 19.1982 47.998 17.762 47.998 15.9985C47.998 14.2379 49.4352 12.7979 51.1977 12.7979C52.9612 12.7979 54.3993 14.2369 54.3993 15.9985Z" fill="#BBFF99"/>
<path d="M38.3974 31.9975C38.3974 33.7611 36.9603 35.1972 35.1977 35.1972C33.4352 35.1972 31.998 33.7611 31.998 31.9975C31.998 30.2369 33.4361 28.7979 35.1977 28.7979C36.9603 28.7979 38.3974 30.2369 38.3974 31.9975Z" fill="#BBFF99"/>
<path d="M22.3994 70.4028C22.3994 72.1634 20.9613 73.6005 19.1997 73.6005C17.4371 73.6005 16 72.1634 16 70.4028C16 68.6383 17.4381 67.2021 19.1997 67.2021C20.9613 67.2021 22.3994 68.6383 22.3994 70.4028Z" fill="#BBFF99"/>
<path d="M34.1725 34.17C34.1725 32.4017 35.6067 30.9713 37.3722 30.9713C37.6832 30.9713 37.977 31.0289 38.2602 31.1105C37.8733 29.7771 36.656 28.7979 35.1997 28.7979C33.4342 28.7979 32 30.2292 32 31.9975C32 33.451 32.9811 34.6702 34.3136 35.058C34.2301 34.7748 34.1725 34.4801 34.1725 34.17Z" fill="#339900"/>
<path d="M18.1725 72.5734C18.1725 70.805 19.6067 69.3737 21.3722 69.3737C21.6822 69.3737 21.976 69.4332 22.2602 69.5148C21.8723 68.1804 20.656 67.2002 19.1997 67.2022C17.4342 67.2002 16 68.6326 16 70.398C16 71.8553 16.9811 73.0725 18.3136 73.4594C18.2301 73.1762 18.1725 72.8825 18.1725 72.5734Z" fill="#339900"/>
<path d="M50.1734 18.171C50.1734 16.4027 51.6067 14.9713 53.3731 14.9723C53.6832 14.9713 53.977 15.0299 54.2611 15.1124C53.8742 13.778 52.657 12.7979 51.2006 12.7979C49.4352 12.7979 48 14.2311 48 15.9975C48 17.4519 48.9811 18.6702 50.3136 19.058C50.2301 18.7758 50.1734 18.4801 50.1734 18.171Z" fill="#339900"/>
<path d="M15.5157 52.3147C15.5157 49.6698 17.6651 47.5146 20.3157 47.5146C20.9339 47.5146 21.5224 47.6366 22.0657 47.8497C21.3649 46.0679 19.6312 44.7979 17.6008 44.7979C14.9512 44.7979 12.8008 46.955 12.8008 49.5979C12.8008 51.635 14.0661 53.3659 15.8497 54.0647C15.6366 53.5223 15.5157 52.9339 15.5157 52.3147Z" fill="#339900"/>
<path d="M57.6604 44.8578C61.4341 44.8568 64.9429 45.9589 67.9103 47.8386L68.2434 47.5064C64.75 43.868 59.8444 41.5967 54.4031 41.5967C43.7999 41.5967 35.2012 50.1944 35.2012 60.7967C35.2012 66.9292 38.0802 72.3839 42.5557 75.9004C39.9925 72.6364 38.4594 68.5256 38.4594 64.0578C38.4585 53.4546 47.0581 44.8578 57.6604 44.8578Z" fill="#99FF66"/>
</svg>
