<svg width="16" height="16" viewBox="0 0 16 16" fill="none" xmlns="http://www.w3.org/2000/svg">
<mask id="mask0_474_5283" style="mask-type:luminance" maskUnits="userSpaceOnUse" x="1" y="2" width="13" height="13">
<path d="M13.75 14.75V2.25H1.25V14.75H13.75Z" fill="white" stroke="white" stroke-width="0.5" stroke-linecap="round"/>
</mask>
<g mask="url(#mask0_474_5283)">
<path d="M12.9793 3.59215L11.2012 3.7414L11.3504 5.51953" stroke="#666666" stroke-width="0.5" stroke-miterlimit="10" stroke-linecap="round"/>
<path d="M7.49966 2.38496C4.12222 2.38496 1.38428 5.1229 1.38428 8.50034C1.38428 11.8778 4.12222 14.6157 7.49966 14.6157C10.8771 14.6157 13.615 11.8778 13.615 8.50034C13.615 6.57022 12.7244 4.85178 11.3277 3.73102" stroke="#666666" stroke-width="0.5" stroke-miterlimit="10" stroke-linecap="round"/>
<path d="M11.1494 8.50025C11.1494 10.5159 9.51541 12.1499 7.49977 12.1499C5.48411 12.1499 3.8501 10.5159 3.8501 8.50025C3.8501 6.48459 5.48411 4.85061 7.49977 4.85061C9.51541 4.85061 11.1494 6.48459 11.1494 8.50025Z" stroke="#666666" stroke-width="0.5" stroke-miterlimit="10" stroke-linecap="round"/>
<path d="M7.5 5.0875L7.5 6.0625" stroke="#666666" stroke-width="0.5" stroke-miterlimit="10" stroke-linecap="round"/>
<path d="M7.5 11.0578V12.1499" stroke="#666666" stroke-width="0.5" stroke-miterlimit="10" stroke-linecap="round"/>
<path d="M11.1493 8.5H10.0571" stroke="#666666" stroke-width="0.5" stroke-miterlimit="10" stroke-linecap="round"/>
<path d="M4.94222 8.5H3.8501" stroke="#666666" stroke-width="0.5" stroke-miterlimit="10" stroke-linecap="round"/>
<path d="M7.5 6.0625V7.92791C7.5 8.15097 7.42542 8.36762 7.28813 8.54342L6.6875 9.3125" stroke="#666666" stroke-width="0.5" stroke-miterlimit="10" stroke-linecap="round"/>
</g>
</svg>
