<svg width="20" height="20" viewBox="0 0 20 20" fill="none" xmlns="http://www.w3.org/2000/svg">
<g clip-path="url(#clip0_6008_40468)">
<path d="M16.5245 18.3511C16.1245 18.3511 15.7245 18.2 15.4222 17.8934L13.6533 16.1245C13.4045 15.8756 13.4045 15.4711 13.6533 15.2178C13.7645 15.1067 13.9111 15.0445 14.0578 15.0311C14.0667 14.8756 14.1333 14.7334 14.2445 14.6267C14.3556 14.5156 14.4978 14.4534 14.6489 14.44C14.6578 14.2934 14.72 14.1467 14.8356 14.0356C15.0845 13.7867 15.4889 13.7867 15.7422 14.0356C15.8311 14.1245 15.8311 14.2622 15.7422 14.3511C15.6533 14.44 15.5156 14.44 15.4267 14.3511C15.3511 14.2756 15.2267 14.2756 15.1511 14.3511C15.0756 14.4267 15.0756 14.5511 15.1511 14.6267C15.1956 14.6711 15.2178 14.7289 15.2178 14.7823C15.2178 14.84 15.1956 14.8978 15.1511 14.9378C15.0622 15.0267 14.9245 15.0267 14.8356 14.9378C14.8 14.9023 14.7511 14.88 14.6978 14.88C14.6445 14.88 14.5956 14.9023 14.56 14.9378C14.5245 14.9734 14.5022 15.0223 14.5022 15.0756C14.5022 15.1289 14.5245 15.1778 14.56 15.2134C14.6045 15.2578 14.6267 15.3156 14.6267 15.3689C14.6267 15.4267 14.6045 15.4845 14.56 15.5245C14.4711 15.6134 14.3333 15.6134 14.2445 15.5245C14.1689 15.4489 14.0445 15.4489 13.9689 15.5245C13.9333 15.56 13.9111 15.6089 13.9111 15.6622C13.9111 15.7156 13.9333 15.7645 13.9689 15.8L15.7378 17.5689C15.9467 17.7778 16.2267 17.8934 16.5245 17.8934C16.8222 17.8934 17.1022 17.7778 17.3111 17.5689L18.1556 16.7245C18.6 16.28 18.3867 15.7422 18.0045 14.9067C17.8489 14.56 17.6845 14.2045 17.5822 13.8311C17.5556 13.7289 17.4489 13.6667 17.3422 13.6934C17.24 13.72 17.1778 13.8267 17.2045 13.9334L17.36 14.5111C17.3867 14.6089 17.3422 14.7111 17.2578 14.76C17.1689 14.8089 17.0622 14.7956 16.9911 14.7245L14.8533 12.5867C14.7778 12.5111 14.6533 12.5111 14.5778 12.5867C14.5022 12.6623 14.5022 12.7867 14.5778 12.8622C14.6667 12.9511 14.6667 13.0889 14.5778 13.1778C14.4889 13.2667 14.3511 13.2667 14.2622 13.1778C14.0133 12.9289 14.0133 12.5245 14.2622 12.2711C14.5111 12.0223 14.9156 12.0223 15.1689 12.2711L16.76 13.8622C16.7645 13.76 16.7911 13.6578 16.8445 13.5645C16.9289 13.4178 17.0667 13.3111 17.2311 13.2667C17.5733 13.1734 17.9245 13.3778 18.0133 13.72C18.1022 14.0578 18.2578 14.3956 18.4089 14.7245C18.7733 15.5245 19.1556 16.3556 18.4667 17.04L17.6222 17.8845C17.32 18.2 16.92 18.3511 16.5245 18.3511Z" fill="#141005"/>
<path d="M17.8266 19.2888C17.7688 19.2888 17.711 19.2666 17.671 19.2221L16.6933 18.2444C16.6044 18.1555 16.6044 18.0177 16.6933 17.9288C16.7821 17.8399 16.9199 17.8399 17.0088 17.9288L17.831 18.751L19.2577 17.3244L18.4533 16.5199C18.3644 16.431 18.3644 16.2933 18.4533 16.2044C18.5421 16.1155 18.6799 16.1155 18.7688 16.2044L19.7333 17.1688C19.8221 17.2577 19.8221 17.3955 19.7333 17.4844L17.991 19.2266C17.9421 19.2666 17.8844 19.2888 17.8266 19.2888Z" fill="#141005"/>
<path d="M15.2711 17.6534H1.55552C0.826635 17.6534 0.231079 17.0578 0.231079 16.3289V2.10228C0.231079 1.37339 0.826635 0.777832 1.55552 0.777832H15.7022C16.4311 0.777832 17.0266 1.37339 17.0266 2.10228V14.2445C17.0266 14.3689 16.9289 14.4667 16.8044 14.4667C16.68 14.4667 16.5822 14.3689 16.5822 14.2445V2.10228C16.5822 1.61783 16.1866 1.22228 15.7022 1.22228H1.55552C1.07108 1.22228 0.675524 1.61783 0.675524 2.10228V16.3289C0.675524 16.8134 1.07108 17.2089 1.55552 17.2089H15.2666C15.3911 17.2089 15.4889 17.3067 15.4889 17.4312C15.4889 17.5556 15.3911 17.6534 15.2711 17.6534Z" fill="#141005"/>
<path d="M16.8089 3.68907H0.453301C0.328857 3.68907 0.231079 3.5913 0.231079 3.46685C0.231079 3.34241 0.328857 3.24463 0.453301 3.24463H16.8089C16.9333 3.24463 17.0311 3.34241 17.0311 3.46685C17.0311 3.5913 16.9333 3.68907 16.8089 3.68907Z" fill="#141005"/>
<path d="M3.12889 2.45323H2.12444C2 2.45323 1.90222 2.35546 1.90222 2.23101C1.90222 2.10657 2 2.00879 2.12444 2.00879H3.12889C3.25333 2.00879 3.35111 2.10657 3.35111 2.23101C3.35111 2.35546 3.25333 2.45323 3.12889 2.45323Z" fill="#141005"/>
<path d="M5.35557 2.45323H4.35113C4.22668 2.45323 4.12891 2.35546 4.12891 2.23101C4.12891 2.10657 4.22668 2.00879 4.35113 2.00879H5.35557C5.48002 2.00879 5.5778 2.10657 5.5778 2.23101C5.5778 2.35546 5.48002 2.45323 5.35557 2.45323Z" fill="#141005"/>
<path d="M7.58214 2.45323H6.57769C6.45325 2.45323 6.35547 2.35546 6.35547 2.23101C6.35547 2.10657 6.45325 2.00879 6.57769 2.00879H7.58214C7.70658 2.00879 7.80436 2.10657 7.80436 2.23101C7.80436 2.35546 7.70658 2.45323 7.58214 2.45323Z" fill="#141005"/>
<path d="M16.1333 14.9735C16.0756 14.9735 16.0178 14.9513 15.9778 14.9069L14.2622 13.1913C14.1733 13.1024 14.1733 12.9646 14.2622 12.8757C14.3511 12.7869 14.4889 12.7869 14.5778 12.8757L16.2933 14.5913C16.3822 14.6802 16.3822 14.818 16.2933 14.9069C16.2444 14.9513 16.1911 14.9735 16.1333 14.9735Z" fill="#141005"/>
<path d="M15.5421 15.5645C15.4844 15.5645 15.4266 15.5422 15.3866 15.4978L14.8355 14.9467C14.7466 14.8578 14.7466 14.72 14.8355 14.6311C14.9244 14.5422 15.0621 14.5422 15.151 14.6311L15.7021 15.1822C15.791 15.2711 15.791 15.4089 15.7021 15.4978C15.6577 15.5422 15.5999 15.5645 15.5421 15.5645Z" fill="#141005"/>
<path d="M14.9511 16.1558C14.8933 16.1558 14.8355 16.1335 14.7955 16.0891L14.2444 15.538C14.1555 15.4491 14.1555 15.3113 14.2444 15.2224C14.3333 15.1335 14.4711 15.1335 14.56 15.2224L15.1111 15.7735C15.2 15.8624 15.2 16.0002 15.1111 16.0891C15.0666 16.1335 15.0088 16.1558 14.9511 16.1558Z" fill="#141005"/>
<path d="M6.80439 13.2714H5.72883C5.60439 13.2714 5.50661 13.1736 5.50661 13.0492V11.627H4.85772V13.0492C4.85772 13.1736 4.75994 13.2714 4.6355 13.2714H3.56439C3.43994 13.2714 3.34216 13.1736 3.34216 13.0492V7.84918C3.34216 7.72473 3.43994 7.62695 3.56439 7.62695H4.63994C4.76439 7.62695 4.86216 7.72473 4.86216 7.84918V10.3114H6.80439C6.92883 10.3114 7.02661 10.4092 7.02661 10.5336V13.0447C7.02661 13.1692 6.92883 13.2714 6.80439 13.2714ZM5.95105 12.827H6.58216V10.7558H4.63994C4.5155 10.7558 4.41772 10.6581 4.41772 10.5336V8.0714H3.78661V12.8225H4.41772V11.4003C4.41772 11.2758 4.5155 11.1781 4.63994 11.1781H5.73327C5.85772 11.1781 5.9555 11.2758 5.9555 11.4003L5.95105 12.827Z" fill="#141005"/>
<path d="M9.04003 13.2712H8.20892C8.08447 13.2712 7.98669 13.1734 7.98669 13.0489V9.65337C7.98669 9.52893 8.08447 9.43115 8.20892 9.43115C8.33336 9.43115 8.43114 9.52893 8.43114 9.65337V12.8267H8.81781V9.65337C8.81781 9.52893 8.91558 9.43115 9.04003 9.43115C9.16447 9.43115 9.26225 9.52893 9.26225 9.65337V13.0489C9.26225 13.1689 9.16003 13.2712 9.04003 13.2712Z" fill="#141005"/>
<path d="M11.24 9.87575H6.00884C5.8844 9.87575 5.78662 9.77797 5.78662 9.65353V8.42242C5.78662 8.29797 5.8844 8.2002 6.00884 8.2002H11.24C11.3644 8.2002 11.4622 8.29797 11.4622 8.42242V9.65353C11.4622 9.77353 11.36 9.87575 11.24 9.87575ZM6.23107 9.43131H11.0177V8.64464H6.23107V9.43131Z" fill="#141005"/>
<path d="M13.6977 13.2714H12.6222C12.4977 13.2714 12.4 13.1736 12.4 13.0492V11.627H11.7511V13.0492C11.7511 13.1736 11.6533 13.2714 11.5289 13.2714H10.4533C10.3289 13.2714 10.2311 13.1736 10.2311 13.0492V10.5336C10.2311 10.4092 10.3289 10.3114 10.4533 10.3114H12.3955V7.84918C12.3955 7.72473 12.4933 7.62695 12.6177 7.62695H13.6933C13.8177 7.62695 13.9155 7.72473 13.9155 7.84918V13.0447C13.92 13.1692 13.8222 13.2714 13.6977 13.2714ZM12.8489 12.827H13.48V8.0714H12.8489V10.5336C12.8489 10.6581 12.7511 10.7558 12.6266 10.7558H10.6844V12.8225H11.3155V11.4003C11.3155 11.2758 11.4133 11.1781 11.5377 11.1781H12.6311C12.7555 11.1781 12.8533 11.2758 12.8533 11.4003V12.827H12.8489Z" fill="#141005"/>
<path d="M14.8799 14.6266H2.24883C2.12439 14.6266 2.02661 14.5288 2.02661 14.4043V6.49322C2.02661 6.36877 2.12439 6.271 2.24883 6.271H15.0133C15.1377 6.271 15.2355 6.36877 15.2355 6.49322V12.4488C15.2355 12.5732 15.1377 12.671 15.0133 12.671C14.8888 12.671 14.7911 12.5732 14.7911 12.4488V6.71544H2.47106V14.1821H14.8799C15.0044 14.1821 15.1022 14.2799 15.1022 14.4043C15.1022 14.5288 14.9999 14.6266 14.8799 14.6266Z" fill="#141005"/>
</g>
<defs>
<clipPath id="clip0_6008_40468">
<rect width="20" height="20" fill="white"/>
</clipPath>
</defs>
</svg>
