<svg width="24" height="24" viewBox="0 0 24 24" fill="none" xmlns="http://www.w3.org/2000/svg">
<g clip-path="url(#clip0_1244_5904)">
<path d="M14.5545 18.9355L13.5 18.2325V12H18.5C18.7652 12 19.0196 11.8946 19.2071 11.7071C19.3946 11.5196 19.5 11.2652 19.5 11V10C19.5 9.73478 19.3946 9.48043 19.2071 9.29289C19.0196 9.10536 18.7652 9 18.5 9H16.9745C16.8577 7.85308 16.3488 6.78159 15.5336 5.96641C14.7184 5.15122 13.6469 4.64228 12.5 4.5255V4H13C13.1326 4 13.2598 3.94732 13.3536 3.85355C13.4473 3.75979 13.5 3.63261 13.5 3.5C13.5 3.36739 13.4473 3.24021 13.3536 3.14645C13.2598 3.05268 13.1326 3 13 3H11C10.8674 3 10.7402 3.05268 10.6464 3.14645C10.5527 3.24021 10.5 3.36739 10.5 3.5C10.5 3.63261 10.5527 3.75979 10.6464 3.85355C10.7402 3.94732 10.8674 4 11 4H11.5V4.5255C10.3531 4.64228 9.28159 5.15122 8.46641 5.96641C7.65122 6.78159 7.14228 7.85308 7.0255 9H5C4.73478 9 4.48043 9.10536 4.29289 9.29289C4.10536 9.48043 4 9.73478 4 10V11C4 11.2652 4.10536 11.5196 4.29289 11.7071C4.48043 11.8946 4.73478 12 5 12H10.5V18.2325L9.4455 18.9355C9.30849 19.0268 9.19614 19.1505 9.11843 19.2956C9.04071 19.4408 9.00003 19.6029 9 19.7675V20C9 20.2652 9.10536 20.5196 9.29289 20.7071C9.48043 20.8946 9.73478 21 10 21H14C14.2652 21 14.5196 20.8946 14.7071 20.7071C14.8946 20.5196 15 20.2652 15 20V19.7675C15 19.6029 14.9593 19.4408 14.8816 19.2956C14.8039 19.1505 14.6915 19.0268 14.5545 18.9355ZM12 5.5C12.9735 5.50162 13.9131 5.85784 14.6429 6.50203C15.3728 7.14622 15.843 8.03425 15.9655 9H8.0345C8.15704 8.03425 8.62722 7.14622 9.35708 6.50203C10.087 5.85784 11.0265 5.50162 12 5.5ZM5 11V10H18.5V11H5ZM14 20H10V19.7675L11.0545 19.0645C11.1915 18.9732 11.3039 18.8495 11.3816 18.7044C11.4593 18.5592 11.5 18.3971 11.5 18.2325V12H12.5V18.2325C12.5 18.3971 12.5407 18.5592 12.6184 18.7044C12.6961 18.8495 12.8085 18.9732 12.9455 19.0645L14 19.7675V20Z" fill="#141005"/>
<path d="M23.1873 15.2L23.9913 9.1335C24.0103 8.99243 23.999 8.84893 23.958 8.7126C23.9171 8.57626 23.8476 8.45023 23.7541 8.34293C23.6605 8.23563 23.5452 8.14953 23.4157 8.09039C23.2862 8.03125 23.1456 8.00043 23.0033 8H22.4603C22.2407 8.0006 22.0275 8.07344 21.8535 8.20726C21.6794 8.34109 21.5543 8.52848 21.4973 8.7405L20.2038 13.5715H17.1218C16.7902 13.5717 16.468 13.6822 16.2062 13.8857C15.9444 14.0893 15.7577 14.3742 15.6758 14.6955L15.5323 15.25C15.4945 15.3963 15.4903 15.5492 15.5201 15.6974C15.5499 15.8455 15.6129 15.985 15.7043 16.1053C15.7958 16.2255 15.9132 16.3236 16.048 16.3919C16.1827 16.4603 16.3312 16.4973 16.4823 16.5L15.5163 20.381C15.5004 20.4448 15.4973 20.511 15.5071 20.576C15.5168 20.641 15.5393 20.7034 15.5732 20.7596C15.6071 20.8159 15.6518 20.865 15.7046 20.904C15.7575 20.943 15.8175 20.9712 15.8813 20.987C15.9203 20.9963 15.9602 21.0006 16.0003 21C16.1118 21 16.2201 20.9627 16.308 20.894C16.3959 20.8253 16.4583 20.7292 16.4853 20.621L17.5113 16.5H21.6003L22.5128 20.6085C22.5375 20.7194 22.5992 20.8187 22.6878 20.8899C22.7764 20.961 22.8866 20.9999 23.0003 21C23.0369 20.9999 23.0735 20.9959 23.1093 20.988C23.1734 20.9738 23.2341 20.9471 23.2879 20.9094C23.3417 20.8718 23.3876 20.8239 23.4229 20.7685C23.4582 20.7131 23.4822 20.6513 23.4936 20.5866C23.505 20.5219 23.5035 20.4556 23.4893 20.3915L22.5623 16.221C22.7311 16.103 22.8738 15.9514 22.9814 15.7757C23.0889 15.6001 23.159 15.404 23.1873 15.2ZM16.5003 15.5L16.6433 14.9455C16.6701 14.839 16.7316 14.7444 16.8182 14.6767C16.9048 14.6091 17.0114 14.5722 17.1213 14.572H20.5873C20.6973 14.572 20.8043 14.5357 20.8917 14.4687C20.979 14.4017 21.0418 14.3078 21.0703 14.2015L22.4603 9H23.0003L22.1963 15.0665C22.1803 15.1857 22.1219 15.2951 22.0318 15.3747C21.9418 15.4543 21.826 15.4988 21.7058 15.5H16.5003Z" fill="#141005"/>
<path d="M8.29024 16.1135C8.38425 15.9929 8.44924 15.8523 8.48019 15.7026C8.51115 15.5528 8.50723 15.398 8.46874 15.25L8.32574 14.697C8.24379 14.3755 8.05714 14.0904 7.79522 13.8867C7.53331 13.683 7.21104 13.5723 6.87924 13.572H3.79674L2.50324 8.7405C2.44627 8.52848 2.32111 8.34109 2.14707 8.20726C1.97303 8.07344 1.75978 8.0006 1.54024 8H0.997239C0.855043 8.00046 0.71458 8.03124 0.585224 8.09029C0.455867 8.14934 0.340591 8.2353 0.247088 8.34243C0.153584 8.44956 0.0840039 8.5754 0.0429892 8.71156C0.00197444 8.84771 -0.00953142 8.99105 0.00923934 9.132L0.813239 15.2C0.840046 15.3951 0.905126 15.583 1.00475 15.7529C1.10436 15.9228 1.23656 16.0713 1.39374 16.19L0.459739 20.3915C0.430963 20.521 0.454806 20.6566 0.526023 20.7685C0.59724 20.8804 0.709997 20.9595 0.839489 20.9883C0.968981 21.017 1.1046 20.9932 1.21651 20.922C1.32843 20.8507 1.40746 20.738 1.43624 20.6085L2.35024 16.5H6.43774L7.46374 20.621C7.49079 20.7295 7.55341 20.8257 7.6416 20.8944C7.72979 20.9631 7.83845 21.0003 7.95024 21C7.99105 21.0002 8.03171 20.9951 8.07124 20.985C8.13497 20.9691 8.19495 20.9409 8.24776 20.9019C8.30056 20.8628 8.34517 20.8138 8.37901 20.7575C8.41286 20.7012 8.43529 20.6388 8.44503 20.5739C8.45476 20.5089 8.4516 20.4427 8.43574 20.379L7.46774 16.5H7.50274C7.65487 16.5004 7.80504 16.4657 7.94161 16.3987C8.07818 16.3317 8.19747 16.2341 8.29024 16.1135ZM2.29474 15.5C2.17452 15.4988 2.05877 15.4543 1.96869 15.3747C1.8786 15.2951 1.82022 15.1857 1.80424 15.0665L0.997239 9H1.53724L2.92974 14.2C2.95825 14.3063 3.02103 14.4002 3.10836 14.4672C3.19569 14.5342 3.30268 14.5705 3.41274 14.5705H6.87874C6.98871 14.5708 7.09544 14.6078 7.18209 14.6755C7.26873 14.7432 7.33036 14.8379 7.35724 14.9445L7.50024 15.5H2.29474Z" fill="#141005"/>
</g>
<defs>
<clipPath id="clip0_1244_5904">
<rect width="24" height="24" fill="white"/>
</clipPath>
</defs>
</svg>
