<svg width="12" height="12" viewBox="0 0 12 12" fill="none" xmlns="http://www.w3.org/2000/svg">
<path d="M11.356 11.7403C10.8073 11.0385 10.2065 9.33985 10.1776 8.43094C10.2546 8.37546 10.3104 8.29548 10.3359 8.20412C10.3615 8.11275 10.3552 8.01542 10.3182 7.92807C10.3182 7.92807 10.1414 7.51032 10.08 7.37222C10.0541 7.31434 10.0146 7.26358 9.96478 7.22428C9.27563 6.67463 7.16166 5.08557 7.16166 5.08557C7.16641 5.05477 7.16389 5.02328 7.15428 4.99364C7.14467 4.96399 7.12826 4.93701 7.10635 4.91485L6.19453 4.00425C6.17028 3.98033 6.14188 3.96102 6.11072 3.94725V3.0931C6.37662 3.22415 6.67064 3.28786 6.96694 3.27863C7.23031 3.27731 7.49263 3.24538 7.74863 3.18347C7.76822 3.17834 7.78614 3.16822 7.80066 3.1541C7.81517 3.13998 7.82578 3.12234 7.83144 3.10289C7.83711 3.08345 7.83764 3.06287 7.83298 3.04317C7.82833 3.02346 7.81864 3.00529 7.80488 2.99044L7.53366 2.69804C7.59683 2.5807 7.63872 2.4531 7.65741 2.32116C7.6595 2.30429 7.65791 2.28717 7.65273 2.27098C7.64755 2.25479 7.63891 2.23993 7.62741 2.22741C7.61614 2.21463 7.60209 2.20461 7.58634 2.19811C7.57059 2.19161 7.55356 2.1888 7.53656 2.18991C6.94716 2.21297 6.25781 2.14744 6.11063 2.00307V1.83057C6.11063 1.79949 6.09828 1.76968 6.0763 1.7477C6.05433 1.72573 6.02452 1.71338 5.99344 1.71338C5.96236 1.71338 5.93255 1.72573 5.91057 1.7477C5.8886 1.76968 5.87625 1.79949 5.87625 1.83057V3.94763C5.84488 3.96132 5.81629 3.98064 5.79188 4.00463L4.87978 4.91569C4.85797 4.93783 4.84164 4.96476 4.8321 4.99434C4.82256 5.02392 4.82007 5.05532 4.82484 5.08603C4.82484 5.08603 2.71453 6.67979 2.02172 7.22466C1.97372 7.26561 1.93458 7.31592 1.90669 7.3725C1.84688 7.51135 1.66856 7.92844 1.66856 7.92844C1.63146 8.01578 1.62517 8.11314 1.65073 8.20453C1.67628 8.29592 1.73216 8.37589 1.80919 8.43132C1.78031 9.33985 1.17947 11.0386 0.630845 11.7407C0.611699 11.7652 0.603057 11.7962 0.60682 11.8271C0.610582 11.8579 0.626441 11.886 0.650907 11.9051C0.675373 11.9243 0.706443 11.9329 0.737281 11.9292C0.768119 11.9254 0.796199 11.9095 0.815344 11.8851C1.37953 11.1632 1.97409 9.51085 2.03888 8.53191C2.35838 8.63091 2.78297 8.63203 3.22219 8.25478C3.23053 8.26669 3.24094 8.27972 3.25031 8.29228C3.16594 8.64516 2.64197 10.7204 1.77394 11.7367C1.7545 11.7604 1.74512 11.7908 1.74783 11.8213C1.75054 11.8519 1.76511 11.8801 1.78842 11.9C1.81173 11.92 1.84192 11.93 1.87251 11.9279C1.90311 11.9258 1.93167 11.9118 1.95206 11.8889C2.77706 10.9221 3.28547 9.11485 3.44081 8.49947C3.58266 8.62984 3.76085 8.71392 3.95166 8.7405C4.16257 8.76137 4.37471 8.71546 4.55813 8.60925C4.32816 9.28838 3.74025 10.8746 3.00431 11.7367C2.98487 11.7604 2.9755 11.7908 2.97821 11.8213C2.98091 11.8519 2.99549 11.8801 3.01879 11.9C3.0421 11.92 3.07229 11.93 3.10289 11.9279C3.13348 11.9258 3.16204 11.9118 3.18244 11.8889C4.11431 10.7973 4.78781 8.67778 4.87763 8.38585C4.88981 8.37544 4.902 8.36644 4.91419 8.35557C5.20266 8.81288 5.65481 8.91085 5.98913 8.91085H5.99738C6.33197 8.91085 6.78488 8.81288 7.07278 8.35557C7.08506 8.36644 7.09725 8.37553 7.10953 8.38594C7.19944 8.67816 7.87284 10.7975 8.80453 11.8889C8.82493 11.9118 8.85349 11.9258 8.88408 11.9279C8.91467 11.93 8.94487 11.92 8.96818 11.9C8.99149 11.8801 9.00606 11.8519 9.00876 11.8213C9.01147 11.7908 9.0021 11.7604 8.98266 11.7367C8.24672 10.8747 7.65891 9.28838 7.42884 8.60925C7.61222 8.71547 7.82433 8.76138 8.03522 8.7405C8.22605 8.71393 8.40425 8.62981 8.54606 8.49938C8.70141 9.11475 9.20953 10.9221 10.0348 11.8889C10.0552 11.9118 10.0838 11.9258 10.1144 11.9279C10.145 11.93 10.1751 11.92 10.1985 11.9C10.2218 11.8801 10.2363 11.8519 10.239 11.8213C10.2418 11.7908 10.2324 11.7604 10.2129 11.7367C9.345 10.7198 8.82103 8.64488 8.73666 8.29191C8.74603 8.27935 8.75625 8.26632 8.76478 8.25441C9.20409 8.63138 9.62869 8.63044 9.94819 8.53153C10.013 9.51047 10.6075 11.1632 11.1717 11.8847C11.191 11.9086 11.219 11.924 11.2496 11.9275C11.2802 11.931 11.3109 11.9224 11.3351 11.9034C11.3594 11.8845 11.3752 11.8567 11.3791 11.8262C11.3831 11.7957 11.3749 11.7648 11.3563 11.7403H11.356ZM6.11034 2.26819C6.45881 2.41885 7.08038 2.43197 7.39472 2.42757C7.37443 2.50226 7.34017 2.57244 7.29375 2.63438C7.27563 2.65625 7.26608 2.68396 7.26688 2.71235C7.26767 2.74073 7.27875 2.76787 7.29806 2.78869L7.491 2.99682C7.161 3.05307 6.49725 3.11522 6.11034 2.81438V2.26819ZM6.96347 5.25788C6.97376 5.25715 6.98397 5.25564 6.99403 5.25338L9.59916 7.24088H8.53594L6.82969 5.244C6.90188 5.25169 6.94866 5.25685 6.95053 5.25704C6.95489 5.25756 6.95927 5.25784 6.96366 5.25788H6.96347ZM5.89988 5.17735C5.93653 5.17538 5.96859 5.17416 5.99297 5.17416C6.01734 5.17416 6.04922 5.17538 6.08597 5.17735L6.67153 7.24069H5.31469L5.89988 5.17735ZM5.07113 7.24069H3.75863L5.49375 5.21007C5.54653 5.2051 5.59969 5.20069 5.65153 5.19572L5.07113 7.24069ZM6.33497 5.19572C6.38681 5.20022 6.43988 5.2051 6.49266 5.21007L8.22778 7.24069H6.91528L6.33497 5.19572ZM5.95781 4.17038C5.96723 4.16104 5.97995 4.1558 5.9932 4.1558C6.00646 4.1558 6.01918 4.16104 6.02859 4.17038L6.87234 5.01282C6.65616 4.98966 6.16922 4.93969 5.99353 4.93969C5.81784 4.93969 5.33081 4.98966 5.11472 5.01282L5.95781 4.17038ZM4.98938 5.25544C5.00465 5.25798 5.02018 5.25855 5.03559 5.25713C5.03738 5.25713 5.08416 5.25179 5.15634 5.2441L3.45009 7.24097H2.38697L4.98938 5.25544ZM10.0144 8.25657C10.0136 8.25657 10.013 8.25741 10.0121 8.25778C9.61688 8.43469 9.23981 8.36597 8.89125 8.05341C8.86991 8.03433 8.84472 8.02006 8.81737 8.01158C8.79003 8.0031 8.76118 8.00061 8.73279 8.00428C8.7044 8.00794 8.67713 8.01768 8.65284 8.03282C8.62854 8.04796 8.60779 8.06816 8.592 8.09203C8.50013 8.23163 8.30203 8.47116 8.00672 8.50763C7.7595 8.5381 7.48875 8.41941 7.20047 8.15485C7.1785 8.13461 7.15228 8.11955 7.12373 8.11077C7.09518 8.10199 7.06502 8.09972 7.03548 8.10411C7.00593 8.10851 6.97775 8.11947 6.95299 8.13618C6.92823 8.15289 6.90753 8.17493 6.89241 8.20069C6.70706 8.51625 6.40594 8.67619 5.99681 8.67619H5.98931C5.58084 8.67619 5.27972 8.51616 5.09428 8.20069C5.07914 8.17497 5.05844 8.15296 5.03369 8.13627C5.00895 8.11958 4.98078 8.10863 4.95126 8.10423C4.92174 8.09982 4.89161 8.10208 4.86307 8.11082C4.83453 8.11956 4.8083 8.13457 4.78631 8.15475C4.49822 8.41941 4.22738 8.53828 3.98006 8.50763C3.68484 8.47116 3.48666 8.23163 3.39488 8.09203C3.37912 8.06816 3.3584 8.04797 3.33413 8.03282C3.30987 8.01768 3.28262 8.00795 3.25425 8.00428C3.22572 8.0006 3.19672 8.00307 3.16923 8.01155C3.14174 8.02002 3.11638 8.0343 3.09488 8.05341C2.74622 8.36607 2.36906 8.4345 1.97391 8.25769C1.97316 8.25769 1.97259 8.25685 1.97194 8.25657C1.92953 8.23637 1.89661 8.20051 1.88009 8.15654C1.86356 8.11257 1.86473 8.06391 1.88334 8.02078L2.11697 7.47507H9.86813L10.1019 8.02078C10.1205 8.06385 10.1218 8.11244 10.1054 8.15639C10.089 8.20033 10.0562 8.23623 10.0139 8.25657H10.0144Z" fill="black"/>
<path d="M6.10134 9.19118C6.09243 9.16984 6.07741 9.15162 6.05817 9.1388C6.03893 9.12598 6.01632 9.11914 5.9932 9.11914C5.97008 9.11914 5.94748 9.12598 5.92823 9.1388C5.90899 9.15162 5.89397 9.16984 5.88506 9.19118C5.87915 9.20524 5.28065 10.621 4.32881 11.7363C4.30937 11.76 4.3 11.7904 4.3027 11.8209C4.30541 11.8515 4.31998 11.8798 4.34329 11.8997C4.3666 11.9196 4.39679 11.9296 4.42739 11.9275C4.45798 11.9254 4.48654 11.9114 4.50694 11.8886C5.24634 11.0222 5.77669 9.98149 5.99334 9.5209C6.20991 9.98149 6.74034 11.0222 7.47975 11.8886C7.50038 11.9106 7.52871 11.9238 7.55886 11.9255C7.58901 11.9272 7.61864 11.9172 7.64159 11.8976C7.66454 11.878 7.67904 11.8502 7.68208 11.8202C7.68511 11.7902 7.67644 11.7601 7.65787 11.7363C6.70575 10.621 6.10734 9.20524 6.10134 9.19118Z" fill="black"/>
<path d="M11.5971 11.9297H0.40332C0.37224 11.9297 0.342433 11.9173 0.320456 11.8954C0.298479 11.8734 0.286133 11.8436 0.286133 11.8125C0.286133 11.7814 0.298479 11.7516 0.320456 11.7296C0.342433 11.7077 0.37224 11.6953 0.40332 11.6953H11.5971C11.6281 11.6953 11.658 11.7077 11.6799 11.7296C11.7019 11.7516 11.7143 11.7814 11.7143 11.8125C11.7143 11.8436 11.7019 11.8734 11.6799 11.8954C11.658 11.9173 11.6281 11.9297 11.5971 11.9297Z" fill="black"/>
</svg>
