<svg width="16" height="16" viewBox="0 0 16 16" fill="none" xmlns="http://www.w3.org/2000/svg">
<path d="M3.375 16H12.625C12.8238 15.9998 13.0145 15.9207 13.1551 15.7801C13.2957 15.6395 13.3748 15.4488 13.375 15.25V1.75C13.3748 1.55115 13.2957 1.36051 13.1551 1.21991C13.0145 1.0793 12.8238 1.00022 12.625 1H10V0.75C9.99978 0.551154 9.9207 0.360515 9.78009 0.21991C9.63948 0.0793044 9.44885 0.000217049 9.25 0L6.75 0C6.55115 0.000217049 6.36051 0.0793044 6.21991 0.21991C6.0793 0.360515 6.00022 0.551154 6 0.75V1H3.375C3.17615 1.00022 2.98551 1.0793 2.84491 1.21991C2.7043 1.36051 2.62522 1.55115 2.625 1.75V15.25C2.62522 15.4488 2.7043 15.6395 2.84491 15.7801C2.98551 15.9207 3.17615 15.9998 3.375 16ZM6.5 0.75C6.50008 0.683719 6.52644 0.620175 6.57331 0.573307C6.62017 0.526439 6.68372 0.500076 6.75 0.5H9.25C9.31628 0.500076 9.37983 0.526439 9.42669 0.573307C9.47356 0.620175 9.49992 0.683719 9.5 0.75V1H6.5V0.75ZM5.75 1.5H10.25V2C10.2499 2.06628 10.2236 2.12983 10.1767 2.17669C10.1298 2.22356 10.0663 2.24992 10 2.25H6C5.93372 2.24992 5.87017 2.22356 5.82331 2.17669C5.77644 2.12983 5.75008 2.06628 5.75 2V1.5ZM3.125 1.75C3.12508 1.68372 3.15144 1.62017 3.19831 1.57331C3.24517 1.52644 3.30872 1.50008 3.375 1.5H5.25V2C5.25022 2.19885 5.3293 2.38949 5.46991 2.53009C5.61051 2.6707 5.80115 2.74978 6 2.75H10C10.1988 2.74978 10.3895 2.6707 10.5301 2.53009C10.6707 2.38949 10.7498 2.19885 10.75 2V1.5H12.625C12.6913 1.50008 12.7548 1.52644 12.8017 1.57331C12.8486 1.62017 12.8749 1.68372 12.875 1.75V15.25C12.8749 15.3163 12.8486 15.3798 12.8017 15.4267C12.7548 15.4736 12.6913 15.4999 12.625 15.5H3.375C3.30872 15.4999 3.24517 15.4736 3.19831 15.4267C3.15144 15.3798 3.12508 15.3163 3.125 15.25V1.75Z" fill="#082133"/>
<path d="M11.625 8.5H6.125C6.0587 8.5 5.99511 8.52634 5.94822 8.57322C5.90134 8.62011 5.875 8.6837 5.875 8.75C5.875 8.8163 5.90134 8.87989 5.94822 8.92678C5.99511 8.97366 6.0587 9 6.125 9H11.625C11.6913 9 11.7549 8.97366 11.8018 8.92678C11.8487 8.87989 11.875 8.8163 11.875 8.75C11.875 8.6837 11.8487 8.62011 11.8018 8.57322C11.7549 8.52634 11.6913 8.5 11.625 8.5Z" fill="#082133"/>
<path d="M6.125 10H9.125C9.1913 10 9.25489 9.97366 9.30178 9.92678C9.34866 9.87989 9.375 9.8163 9.375 9.75C9.375 9.6837 9.34866 9.62011 9.30178 9.57322C9.25489 9.52634 9.1913 9.5 9.125 9.5H6.125C6.0587 9.5 5.99511 9.52634 5.94822 9.57322C5.90134 9.62011 5.875 9.6837 5.875 9.75C5.875 9.8163 5.90134 9.87989 5.94822 9.92678C5.99511 9.97366 6.0587 10 6.125 10Z" fill="#082133"/>
<path d="M11.625 11H6.125C6.0587 11 5.99511 11.0263 5.94822 11.0732C5.90134 11.1201 5.875 11.1837 5.875 11.25C5.875 11.3163 5.90134 11.3799 5.94822 11.4268C5.99511 11.4737 6.0587 11.5 6.125 11.5H11.625C11.6913 11.5 11.7549 11.4737 11.8018 11.4268C11.8487 11.3799 11.875 11.3163 11.875 11.25C11.875 11.1837 11.8487 11.1201 11.8018 11.0732C11.7549 11.0263 11.6913 11 11.625 11Z" fill="#082133"/>
<path d="M6.125 12.5H9.125C9.1913 12.5 9.25489 12.4737 9.30178 12.4268C9.34866 12.3799 9.375 12.3163 9.375 12.25C9.375 12.1837 9.34866 12.1201 9.30178 12.0732C9.25489 12.0263 9.1913 12 9.125 12H6.125C6.0587 12 5.99511 12.0263 5.94822 12.0732C5.90134 12.1201 5.875 12.1837 5.875 12.25C5.875 12.3163 5.90134 12.3799 5.94822 12.4268C5.99511 12.4737 6.0587 12.5 6.125 12.5Z" fill="#082133"/>
<path d="M11.625 13.5H6.125C6.0587 13.5 5.99511 13.5263 5.94822 13.5732C5.90134 13.6201 5.875 13.6837 5.875 13.75C5.875 13.8163 5.90134 13.8799 5.94822 13.9268C5.99511 13.9737 6.0587 14 6.125 14H11.625C11.6913 14 11.7549 13.9737 11.8018 13.9268C11.8487 13.8799 11.875 13.8163 11.875 13.75C11.875 13.6837 11.8487 13.6201 11.8018 13.5732C11.7549 13.5263 11.6913 13.5 11.625 13.5Z" fill="#082133"/>
<path d="M9.125 14.5H6.125C6.0587 14.5 5.99511 14.5263 5.94822 14.5732C5.90134 14.6201 5.875 14.6837 5.875 14.75C5.875 14.8163 5.90134 14.8799 5.94822 14.9268C5.99511 14.9737 6.0587 15 6.125 15H9.125C9.1913 15 9.25489 14.9737 9.30178 14.9268C9.34866 14.8799 9.375 14.8163 9.375 14.75C9.375 14.6837 9.34866 14.6201 9.30178 14.5732C9.25489 14.5263 9.1913 14.5 9.125 14.5Z" fill="#082133"/>
<path d="M3.875 6.5H12.125C12.1913 6.5 12.2549 6.47366 12.3018 6.42678C12.3487 6.37989 12.375 6.3163 12.375 6.25C12.375 6.1837 12.3487 6.12011 12.3018 6.07322C12.2549 6.02634 12.1913 6 12.125 6H3.875C3.8087 6 3.74511 6.02634 3.69822 6.07322C3.65134 6.12011 3.625 6.1837 3.625 6.25C3.625 6.3163 3.65134 6.37989 3.69822 6.42678C3.74511 6.47366 3.8087 6.5 3.875 6.5Z" fill="#082133"/>
<path d="M3.875 7.5H8.375C8.4413 7.5 8.50489 7.47366 8.55178 7.42678C8.59866 7.37989 8.625 7.3163 8.625 7.25C8.625 7.1837 8.59866 7.12011 8.55178 7.07322C8.50489 7.02634 8.4413 7 8.375 7H3.875C3.8087 7 3.74511 7.02634 3.69822 7.07322C3.65134 7.12011 3.625 7.1837 3.625 7.25C3.625 7.3163 3.65134 7.37989 3.69822 7.42678C3.74511 7.47366 3.8087 7.5 3.875 7.5Z" fill="#082133"/>
<path d="M5.125 8.5C5.0587 8.5 4.99511 8.52634 4.94823 8.57323C4.90134 8.62011 4.875 8.6837 4.875 8.75V9.75C4.875 9.8163 4.90134 9.87989 4.94822 9.92678C4.99511 9.97366 5.0587 10 5.125 10C5.1913 10 5.25489 9.97366 5.30178 9.92678C5.34866 9.87989 5.375 9.8163 5.375 9.75V8.75C5.375 8.6837 5.34866 8.62011 5.30177 8.57323C5.25489 8.52634 5.1913 8.5 5.125 8.5Z" fill="#082133"/>
<path d="M5.125 11C5.0587 11 4.99511 11.0263 4.94823 11.0732C4.90134 11.1201 4.875 11.1837 4.875 11.25V12.25C4.875 12.3163 4.90134 12.3799 4.94822 12.4268C4.99511 12.4737 5.0587 12.5 5.125 12.5C5.1913 12.5 5.25489 12.4737 5.30178 12.4268C5.34866 12.3799 5.375 12.3163 5.375 12.25V11.25C5.375 11.1837 5.34866 11.1201 5.30177 11.0732C5.25489 11.0263 5.1913 11 5.125 11Z" fill="#082133"/>
<path d="M5.125 13.5C5.0587 13.5 4.99511 13.5263 4.94823 13.5732C4.90134 13.6201 4.875 13.6837 4.875 13.75V14.75C4.875 14.8163 4.90134 14.8799 4.94822 14.9268C4.99511 14.9737 5.0587 15 5.125 15C5.1913 15 5.25489 14.9737 5.30178 14.9268C5.34866 14.8799 5.375 14.8163 5.375 14.75V13.75C5.375 13.6837 5.34866 13.6201 5.30177 13.5732C5.25489 13.5263 5.1913 13.5 5.125 13.5Z" fill="#082133"/>
<path d="M4.375 9H4.125C4.0587 9 3.99511 9.02634 3.94822 9.07322C3.90134 9.12011 3.875 9.1837 3.875 9.25C3.875 9.3163 3.90134 9.37989 3.94822 9.42678C3.99511 9.47366 4.0587 9.5 4.125 9.5H4.375C4.4413 9.5 4.50489 9.47366 4.55178 9.42678C4.59866 9.37989 4.625 9.3163 4.625 9.25C4.625 9.1837 4.59866 9.12011 4.55178 9.07322C4.50489 9.02634 4.4413 9 4.375 9Z" fill="#082133"/>
<path d="M4.375 11.5H4.125C4.0587 11.5 3.99511 11.5263 3.94822 11.5732C3.90134 11.6201 3.875 11.6837 3.875 11.75C3.875 11.8163 3.90134 11.8799 3.94822 11.9268C3.99511 11.9737 4.0587 12 4.125 12H4.375C4.4413 12 4.50489 11.9737 4.55178 11.9268C4.59866 11.8799 4.625 11.8163 4.625 11.75C4.625 11.6837 4.59866 11.6201 4.55178 11.5732C4.50489 11.5263 4.4413 11.5 4.375 11.5Z" fill="#082133"/>
<path d="M4.375 14H4.125C4.0587 14 3.99511 14.0263 3.94822 14.0732C3.90134 14.1201 3.875 14.1837 3.875 14.25C3.875 14.3163 3.90134 14.3799 3.94822 14.4268C3.99511 14.4737 4.0587 14.5 4.125 14.5H4.375C4.4413 14.5 4.50489 14.4737 4.55178 14.4268C4.59866 14.3799 4.625 14.3163 4.625 14.25C4.625 14.1837 4.59866 14.1201 4.55178 14.0732C4.50489 14.0263 4.4413 14 4.375 14Z" fill="#082133"/>
<path d="M5.5625 3.875H5.8125V5.125C5.8125 5.1913 5.83884 5.25489 5.88572 5.30178C5.93261 5.34866 5.9962 5.375 6.0625 5.375C6.1288 5.375 6.19239 5.34866 6.23928 5.30178C6.28616 5.25489 6.3125 5.1913 6.3125 5.125V3.875H6.5625C6.6288 3.875 6.69239 3.84866 6.73928 3.80178C6.78616 3.75489 6.8125 3.6913 6.8125 3.625C6.8125 3.5587 6.78616 3.49511 6.73928 3.44822C6.69239 3.40134 6.6288 3.375 6.5625 3.375H5.5625C5.4962 3.375 5.43261 3.40134 5.38572 3.44822C5.33884 3.49511 5.3125 3.5587 5.3125 3.625C5.3125 3.6913 5.33884 3.75489 5.38572 3.80178C5.43261 3.84866 5.4962 3.875 5.5625 3.875Z" fill="#082133"/>
<path d="M10.1545 5.375H10.4375C10.5038 5.375 10.5674 5.34866 10.6143 5.30178C10.6612 5.25489 10.6875 5.1913 10.6875 5.125C10.6875 5.0587 10.6612 4.99511 10.6143 4.94822C10.5674 4.90134 10.5038 4.875 10.4375 4.875H10.1545C10.0307 4.87486 9.912 4.82561 9.82444 4.73806C9.73689 4.6505 9.68764 4.53178 9.6875 4.40796V4.34204C9.68764 4.21822 9.73689 4.0995 9.82444 4.01194C9.912 3.92439 10.0307 3.87514 10.1545 3.875H10.4375C10.5038 3.875 10.5674 3.84866 10.6143 3.80178C10.6612 3.75489 10.6875 3.6913 10.6875 3.625C10.6875 3.5587 10.6612 3.49511 10.6143 3.44822C10.5674 3.40134 10.5038 3.375 10.4375 3.375H10.1545C9.89816 3.3753 9.65236 3.47728 9.47107 3.65857C9.28978 3.83986 9.1878 4.08566 9.1875 4.34204V4.40796C9.1878 4.66434 9.28978 4.91014 9.47107 5.09143C9.65236 5.27272 9.89816 5.3747 10.1545 5.375Z" fill="#082133"/>
<path d="M7.93033 5.49988C7.93998 5.49988 7.94986 5.49976 7.95975 5.49946C7.99257 5.49857 8.02489 5.49122 8.05487 5.47784C8.08485 5.46446 8.11189 5.4453 8.13446 5.42146C8.15703 5.39762 8.17469 5.36956 8.18641 5.3389C8.19813 5.30823 8.2037 5.27556 8.20279 5.24274C8.20028 5.17671 8.17199 5.11429 8.12401 5.06886C8.07602 5.02343 8.01215 4.9986 7.94608 4.9997C7.90399 5.00433 7.86139 5.00018 7.82098 4.9875C7.78057 4.97482 7.74324 4.95389 7.71134 4.92603C7.70266 4.91627 7.69611 4.90481 7.6921 4.89238C7.68808 4.87995 7.6867 4.86682 7.68802 4.85383C7.68855 4.83868 7.69229 4.82383 7.69898 4.81023C7.70567 4.79664 7.71516 4.78462 7.72684 4.77497L7.91972 4.6297L8.25272 4.99634C8.2748 5.02065 8.30144 5.04036 8.33114 5.05437C8.36083 5.06837 8.39299 5.07639 8.42578 5.07797C8.45858 5.07954 8.49136 5.07464 8.52226 5.06355C8.55316 5.05246 8.58157 5.03539 8.60587 5.01331C8.63017 4.99124 8.64989 4.96459 8.6639 4.9349C8.6779 4.90521 8.68592 4.87304 8.6875 4.84025C8.68907 4.80746 8.68417 4.77468 8.67308 4.74378C8.66199 4.71288 8.64491 4.68446 8.62284 4.66016L8.32097 4.32776L8.3228 4.32636C8.42695 4.24727 8.50255 4.13646 8.5382 4.01064C8.57385 3.88482 8.56761 3.75082 8.52043 3.62885C8.48369 3.52158 8.41528 3.42798 8.32423 3.3604C8.23318 3.29283 8.12378 3.25446 8.01047 3.25037C7.89716 3.24627 7.78527 3.27665 7.68958 3.33748C7.59389 3.39831 7.51891 3.48673 7.47453 3.59107C7.4284 3.69238 7.4108 3.80436 7.42362 3.91494C7.43644 4.02552 7.4792 4.1305 7.54728 4.21857C7.55131 4.22364 7.55546 4.22858 7.55973 4.23334L7.58219 4.258L7.42619 4.37537C7.3569 4.42818 7.29984 4.49534 7.25892 4.57225C7.218 4.64917 7.1942 4.73402 7.18913 4.82099C7.18281 4.90578 7.19489 4.99094 7.22453 5.07063C7.25418 5.15032 7.30069 5.22267 7.36088 5.28272C7.43654 5.35504 7.52589 5.4115 7.62368 5.44879C7.72148 5.48608 7.82573 5.50345 7.93033 5.49988ZM7.93046 3.79621C7.93466 3.78407 7.94214 3.77333 7.95208 3.76519C7.96201 3.75705 7.97401 3.75181 7.98673 3.75007C8.01579 3.74848 8.03788 3.76582 8.05167 3.80268C8.06065 3.82382 8.06263 3.84727 8.05731 3.86961C8.05199 3.89195 8.03967 3.912 8.02213 3.92683L7.98331 3.95606L7.93827 3.90638C7.92773 3.89019 7.92148 3.87158 7.92011 3.85231C7.91874 3.83303 7.92231 3.81373 7.93046 3.79621Z" fill="#082133"/>
</svg>
