<svg width="16" height="16" viewBox="0 0 16 16" fill="none" xmlns="http://www.w3.org/2000/svg">
<path d="M14.118 7.12354C14.0296 7.03027 13.9069 6.97754 13.7786 6.97754H12.3854C11.3065 8.56494 9.47354 9.73999 9.23502 9.88892C9.03079 10.0164 8.79581 10.0837 8.55533 10.0837C8.31619 10.0837 8.08231 10.0171 7.87906 9.89111C7.6387 9.74207 5.79312 8.56689 4.715 6.97754H3.05875C2.90237 6.97754 2.75626 7.05591 2.66922 7.1864L1.3555 9.15649C1.34976 9.16504 1.34439 9.17395 1.33914 9.18286C1.17862 9.46191 1.17862 9.79504 1.33914 10.074C1.49954 10.3531 1.78702 10.5198 2.10794 10.5198H3.08609L3.18521 12.8545C3.18179 13.2039 3.33035 13.5343 3.59439 13.7631C3.86014 13.9933 4.21011 14.0923 4.55606 14.0356L5.56546 13.9052L7.57742 13.4277C7.88992 13.3534 8.15286 13.1461 8.29898 12.8593C8.58524 12.2972 8.94962 11.5602 8.95328 11.5527C9.06839 11.3199 9.34964 11.2249 9.58157 11.3405C9.81339 11.4561 9.90811 11.7384 9.793 11.9712C9.78934 11.9786 9.42252 12.7207 9.1337 13.2877C8.86234 13.8207 8.37393 14.2056 7.79373 14.3436C7.79373 14.3436 6.29434 14.7068 5.5701 14.8783L5.57315 15.5316C5.57437 15.7906 5.78384 16 6.0419 16H11.8153C12.0742 16 12.2841 15.7893 12.2841 15.5294V11.9509C13.6444 10.5183 14.1375 9.75049 14.2469 7.47083C14.2531 7.34229 14.2065 7.21667 14.118 7.12354Z" fill="#A27E2A"/>
<path d="M8.5535 9.14636C8.49027 9.14636 8.42704 9.12903 8.37113 9.09436C8.26859 9.03076 5.84965 7.51636 5.08805 5.73047C4.9318 5.36401 4.85355 5.00513 4.8555 4.66382C4.85929 4.03894 5.06901 3.44971 5.4462 3.00476C5.83829 2.54236 6.36454 2.2876 6.92814 2.2876C7.57377 2.2876 8.16813 2.63196 8.5535 3.19153C8.93888 2.63196 9.53324 2.2876 10.1787 2.2876C10.6855 2.2876 11.1734 2.49854 11.5524 2.88147C12.0006 3.33411 12.2554 3.98523 12.2514 4.66797C12.2494 5.00842 12.1682 5.36633 12.0103 5.73206C11.2395 7.51624 8.83854 9.03027 8.73661 9.09387C8.68058 9.12878 8.61698 9.14636 8.5535 9.14636Z" fill="#A27E2A"/>
<path d="M3.17322 5.70239H2.81641C2.5575 5.70239 2.34766 5.4917 2.34766 5.23181C2.34766 4.97192 2.5575 4.76123 2.81641 4.76123H3.17322C3.43213 4.76123 3.64197 4.97192 3.64197 5.23181C3.64197 5.4917 3.43213 5.70239 3.17322 5.70239Z" fill="#A27E2A"/>
<path d="M14.2972 5.70239H13.9336C13.6748 5.70239 13.4648 5.4917 13.4648 5.23181C13.4648 4.97192 13.6748 4.76123 13.9336 4.76123H14.2972C14.5562 4.76123 14.766 4.97192 14.766 5.23181C14.766 5.4917 14.5562 5.70239 14.2972 5.70239Z" fill="#A27E2A"/>
<path d="M4.57216 2.66975C4.45216 2.66975 4.33229 2.62386 4.24074 2.53194L3.94203 2.23225C3.75893 2.04854 3.75893 1.75056 3.94191 1.5666C4.12489 1.38277 4.42165 1.38277 4.60475 1.56648L4.90346 1.86617C5.08656 2.04988 5.08669 2.34785 4.9037 2.53181C4.81215 2.62373 4.69215 2.66975 4.57216 2.66975Z" fill="#A27E2A"/>
<path d="M12.586 2.6698C12.4658 2.6698 12.3458 2.62378 12.2544 2.53186C12.0714 2.34802 12.0714 2.04993 12.2545 1.86621L12.5532 1.56653C12.7365 1.38269 13.0332 1.38281 13.2162 1.56665C13.3992 1.75049 13.3992 2.04858 13.216 2.2323L12.9173 2.53198C12.8257 2.6239 12.7058 2.6698 12.586 2.6698Z" fill="#A27E2A"/>
<path d="M8.55078 1.27844C8.29187 1.27844 8.08203 1.06775 8.08203 0.807861V0.470581C8.08203 0.210693 8.29187 0 8.55078 0C8.80969 0 9.01953 0.210693 9.01953 0.470581V0.807861C9.01953 1.06775 8.80969 1.27844 8.55078 1.27844Z" fill="#A27E2A"/>
</svg>
