<svg width="30" height="30" viewBox="0 0 30 30" fill="none" xmlns="http://www.w3.org/2000/svg">
<rect width="30" height="30" rx="15" fill="#DFC486" fill-opacity="0.2"/>
<g clip-path="url(#clip0_469_1441)">
<path d="M18.6533 8.58105C19.6176 8.58118 20.5443 8.97148 21.2627 9.69434C22.0518 10.4884 22.5073 11.6201 22.5 12.7988C22.494 13.7416 22.1175 14.7977 21.3174 15.9424C20.6991 16.8269 19.8334 17.7585 18.7354 18.709C16.9497 20.2545 15.1905 21.3006 14.999 21.4131C14.7999 21.2969 13.0332 20.2511 11.2451 18.709C10.1429 17.7583 9.27603 16.8266 8.66016 15.9424C7.86261 14.7972 7.4941 13.742 7.5 12.7998C7.50719 11.6643 7.91394 10.6063 8.63379 9.81543C9.36426 9.01304 10.3274 8.58105 11.3477 8.58105C12.6515 8.58123 13.8643 9.31228 14.5703 10.5029L15 11.2275L15.4297 10.5029C16.1358 9.31217 17.3493 8.58105 18.6533 8.58105Z" stroke="#141005"/>
</g>
<defs>
<clipPath id="clip0_469_1441">
<rect width="16" height="16" fill="white" transform="translate(7 7)"/>
</clipPath>
</defs>
</svg>
