<svg width="22" height="16" viewBox="0 0 22 16" fill="none" xmlns="http://www.w3.org/2000/svg">
<path d="M17.3937 8.27067C18.5442 7.43957 19.3016 6.09573 19.3016 4.57143C19.3016 2.05093 17.2506 0 14.7301 0C12.2096 0 10.1587 2.05093 10.1587 4.57143C10.1587 6.09573 10.9161 7.43957 12.0665 8.27067C10.0522 8.73322 8.12695 10.4659 8.12695 15.4074C8.12695 15.6878 8.35447 15.9153 8.63489 15.9153C8.91531 15.9153 9.14283 15.6878 9.14283 15.4074C9.14283 11.2507 10.5668 9.14286 13.3756 9.14286H16.0846C18.8935 9.14286 20.3174 11.2507 20.3174 15.4074C20.3174 15.6878 20.5449 15.9153 20.8254 15.9153C21.1058 15.9153 21.3333 15.6878 21.3333 15.4074C21.3333 10.4659 19.408 8.73322 17.3937 8.27067ZM11.1746 4.57143C11.1746 2.61111 12.7698 1.01587 14.7301 1.01587C16.6904 1.01587 18.2857 2.61111 18.2857 4.57143C18.2857 6.53175 16.6904 8.12698 14.7301 8.12698C12.7698 8.12698 11.1746 6.53175 11.1746 4.57143Z" fill="white"/>
<path d="M5.92593 7.44972H3.72487V5.24866C3.72487 4.96824 3.49735 4.74072 3.21693 4.74072C2.93651 4.74072 2.70899 4.96824 2.70899 5.24866V7.44972H0.507937C0.227513 7.44972 0 7.67723 0 7.95765C0 8.23808 0.227513 8.46559 0.507937 8.46559H2.70899V10.6666C2.70899 10.9471 2.93651 11.1746 3.21693 11.1746C3.49735 11.1746 3.72487 10.9471 3.72487 10.6666V8.46559H5.92593C6.20635 8.46559 6.43386 8.23808 6.43386 7.95765C6.43386 7.67723 6.20635 7.44972 5.92593 7.44972Z" fill="white"/>
</svg>
