<svg width="20" height="20" viewBox="0 0 20 20" fill="none" xmlns="http://www.w3.org/2000/svg">
<path d="M8.93441 8.40469C8.97871 8.46363 9.04809 8.49828 9.12176 8.49828C9.19543 8.49828 9.26484 8.46363 9.3091 8.40469L12.7075 3.88328C12.764 3.8082 12.7701 3.70668 12.7232 3.62531L11.5904 1.66324C11.5485 1.59074 11.4711 1.54605 11.3874 1.54605H6.85613C6.77238 1.54605 6.695 1.59074 6.65316 1.66324L5.52035 3.62531C5.4734 3.70668 5.47953 3.80824 5.53598 3.88328L8.93441 8.40469ZM9.95426 3.97684L9.12176 7.29949L8.28926 3.97684H9.95426ZM8.39492 3.50809L9.1218 2.24914L9.84867 3.50809H8.39492ZM10.4375 3.97684H12.0509L9.63078 7.1966L10.4375 3.97684H10.4375ZM9.52773 2.01477H10.9814L10.2546 3.27371L9.5277 2.01477H9.52773ZM7.98899 3.27371L7.26211 2.01477H8.71582L7.98895 3.27371H7.98899ZM7.58305 3.50809H6.12934L6.85617 2.24914L7.58305 3.50809ZM7.80613 3.97684L8.61281 7.1966L6.19273 3.97684H7.80613ZM12.1143 3.50809H10.6606L11.3875 2.24914L12.1143 3.50809ZM18.3468 15.2957C18.0826 14.9957 17.5445 14.8498 16.9381 15.1999C16.0803 15.6951 14.5932 16.3884 13.4173 16.807C13.517 16.5111 13.4842 16.1886 13.3181 15.9092C13.1117 15.5619 12.7482 15.3636 12.3467 15.3766C12.2591 15.3766 12.1768 15.377 12.099 15.3773C11.2446 15.3807 10.9873 15.3824 10.1374 14.8761L9.06246 14.2356C8.33355 13.8014 7.68742 13.6472 6.90148 13.7197L4.33906 13.9567C4.25465 13.5613 3.90281 13.2639 3.48266 13.2639H1.68555C1.55613 13.2639 1.45117 13.3689 1.45117 13.4983V19.3286C1.45117 19.458 1.55613 19.5629 1.68555 19.5629H3.48266C3.91238 19.5629 4.27055 19.2518 4.3443 18.8429C5.35402 18.8861 6.38848 19.089 7.47926 19.3032C8.74125 19.551 10.0332 19.8046 11.327 19.8046C11.8852 19.8046 12.4436 19.7574 13.0002 19.6421C14.1024 19.4138 17.6134 17.4121 18.2959 16.5151C18.6125 16.0988 18.6325 15.6201 18.3468 15.2957L18.3468 15.2957ZM3.88969 18.6871C3.88969 18.9116 3.70711 19.0942 3.48266 19.0942H1.91992V13.7327H3.48266C3.70711 13.7327 3.88969 13.9153 3.88969 14.1397V18.6871ZM17.9227 16.2313C17.3109 17.0355 13.8884 18.9795 12.905 19.1832C11.151 19.5464 9.33031 19.1889 7.56953 18.8432C6.50707 18.6346 5.41094 18.4195 4.3584 18.3745V14.4257L6.94461 14.1865C7.62387 14.1237 8.18551 14.2588 8.8225 14.6383L9.89746 15.2787C10.8593 15.8518 11.2228 15.8504 12.1011 15.8461C12.1795 15.8457 12.2624 15.8453 12.3508 15.8453C12.3538 15.8453 12.3567 15.8452 12.3596 15.8452C12.5889 15.8357 12.797 15.9499 12.9151 16.1486C13.0332 16.3473 13.0336 16.5839 12.9161 16.7815C12.8234 16.9375 12.6288 17.0513 12.3377 17.1198C11.2957 17.365 9.42043 16.9296 8.79484 16.5264C8.68602 16.4562 8.54098 16.4876 8.4709 16.5964C8.40078 16.7052 8.43211 16.8503 8.5409 16.9204C9.10281 17.2826 10.5019 17.6571 11.6384 17.6571C11.8111 17.6571 11.9775 17.6482 12.1341 17.6296L12.1342 17.6304C13.3458 17.5113 16.0581 16.2491 17.1724 15.6058C17.5492 15.3883 17.8571 15.4489 17.995 15.6055C18.1286 15.7572 18.1009 15.997 17.9227 16.2313H17.9227ZM2.9048 17.3349C2.51074 17.3349 2.19016 17.6555 2.19016 18.0495C2.19016 18.4436 2.51078 18.7642 2.9048 18.7642C3.29883 18.7642 3.61945 18.4436 3.61945 18.0495C3.61945 17.6555 3.29883 17.3349 2.9048 17.3349ZM2.9048 18.2955C2.76922 18.2955 2.65891 18.1852 2.65891 18.0495C2.65891 17.9139 2.76922 17.8036 2.9048 17.8036C3.04039 17.8036 3.1507 17.9139 3.1507 18.0495C3.1507 18.1851 3.04039 18.2955 2.9048 18.2955ZM10.2768 1.07773L10.541 0.561641C10.6 0.446367 10.7411 0.400781 10.8564 0.459805C10.9716 0.518789 11.0172 0.66 10.9582 0.775195L10.6941 1.29129C10.6526 1.37234 10.5705 1.41895 10.4853 1.41895C10.4493 1.41895 10.4129 1.41066 10.3787 1.39316C10.2634 1.33418 10.2179 1.19293 10.2768 1.07773ZM8.88742 1.00945V0.429688C8.88742 0.300273 8.99238 0.195312 9.1218 0.195312C9.25121 0.195312 9.35617 0.300273 9.35617 0.429688V1.00945C9.35617 1.13887 9.25121 1.24383 9.1218 1.24383C8.99238 1.24383 8.88742 1.13887 8.88742 1.00945ZM7.28531 0.775195C7.22633 0.66 7.27191 0.518789 7.38715 0.459805C7.50238 0.400781 7.64359 0.446367 7.70258 0.561641L7.96676 1.07773C8.02574 1.19293 7.98016 1.33414 7.86492 1.39313C7.83074 1.41063 7.79426 1.41891 7.75832 1.41891C7.67312 1.41891 7.59098 1.37234 7.54949 1.29125L7.28531 0.775195ZM1.75398 10.9843C1.66246 10.8928 1.66246 10.7444 1.75398 10.6529L5.73812 6.66879C5.82965 6.57719 5.97805 6.57727 6.06957 6.66879L9.12176 9.72098L13.4821 5.36062L13.2962 5.38785C13.1681 5.40664 13.0491 5.31797 13.0303 5.18992C13.0116 5.06187 13.1002 4.94281 13.2282 4.92406L14.1139 4.79441C14.1871 4.78352 14.2612 4.80824 14.3136 4.86059C14.3659 4.91293 14.3905 4.98695 14.3798 5.06023L14.2501 5.9459C14.233 6.06246 14.1329 6.14637 14.0185 6.14637C14.0072 6.14637 13.9957 6.14555 13.9843 6.14387C13.8562 6.12516 13.7676 6.00609 13.7863 5.87801L13.8136 5.69211L9.28754 10.2182C9.24359 10.2621 9.18398 10.2868 9.1218 10.2868C9.05961 10.2868 9.00004 10.2621 8.95605 10.2182L5.90387 7.16598L2.08547 10.9843C2.03973 11.0301 1.97969 11.053 1.91973 11.053C1.85977 11.053 1.79977 11.0301 1.75398 10.9843V10.9843ZM10.3037 11.387C10.3037 13.3075 11.8662 14.87 13.7867 14.87C15.7072 14.87 17.2696 13.3075 17.2696 11.387C17.2696 9.46652 15.7072 7.90406 13.7867 7.90406C11.8662 7.90406 10.3037 9.46652 10.3037 11.387ZM16.8009 11.387C16.8009 13.0491 15.4487 14.4012 13.7867 14.4012C12.1246 14.4012 10.7725 13.0491 10.7725 11.387C10.7725 9.72496 12.1246 8.37281 13.7867 8.37281C15.4487 8.37281 16.8009 9.72496 16.8009 11.387ZM10.9604 11.387C10.9604 12.9455 12.2282 14.2133 13.7867 14.2133C15.3451 14.2133 16.613 12.9455 16.613 11.387C16.613 9.82859 15.3451 8.56074 13.7867 8.56074C12.2282 8.56074 10.9604 9.82859 10.9604 11.387ZM16.1442 11.387C16.1442 12.687 15.0866 13.7446 13.7866 13.7446C12.4867 13.7446 11.4291 12.687 11.4291 11.387C11.4291 10.0871 12.4867 9.02949 13.7866 9.02949C15.0866 9.02949 16.1442 10.0871 16.1442 11.387ZM13.5523 9.59488V9.84352C13.2861 9.8802 13.0313 9.98031 12.8575 10.1614C12.697 10.3286 12.6173 10.5394 12.6331 10.755C12.6493 10.9757 12.7661 11.1811 12.962 11.3331C13.1273 11.4613 13.3422 11.5323 13.5523 11.5866V12.4477C13.3114 12.3934 13.0994 12.2684 13.0518 12.0644C13.0225 11.9384 12.8964 11.86 12.7704 11.8894C12.6443 11.9188 12.5659 12.0448 12.5953 12.1709C12.6872 12.565 13.0525 12.8462 13.5522 12.9254V13.1792C13.5522 13.3086 13.6572 13.4136 13.7866 13.4136C13.916 13.4136 14.021 13.3086 14.021 13.1792V12.9389C14.4351 12.8966 14.8402 12.7069 14.9493 12.3336C15.0087 12.1303 14.9908 11.9337 14.8976 11.7649C14.768 11.5302 14.4973 11.353 14.0932 11.2381C14.0698 11.2314 14.0452 11.2254 14.021 11.2191V10.316C14.0529 10.3219 14.0845 10.3287 14.1154 10.3373C14.2204 10.3664 14.4695 10.4562 14.5159 10.6599C14.5445 10.7861 14.6701 10.8651 14.7964 10.8365C14.9226 10.8079 15.0016 10.6822 14.9729 10.556C14.9009 10.2391 14.634 9.99477 14.2407 9.88566C14.1714 9.86641 14.0973 9.85215 14.0209 9.84219V9.59488C14.0209 9.46547 13.916 9.36051 13.7866 9.36051C13.6571 9.36051 13.5522 9.46547 13.5522 9.59488H13.5523ZM13.2494 10.9628C13.1585 10.8923 13.107 10.8086 13.1006 10.7208C13.0947 10.6395 13.1284 10.5561 13.1957 10.4861C13.2733 10.4052 13.4026 10.3478 13.5523 10.318V11.1004C13.4323 11.0643 13.3248 11.0213 13.2494 10.9628H13.2494ZM14.4874 11.9916C14.508 12.029 14.5317 12.0915 14.4994 12.2021C14.4618 12.3307 14.2673 12.4329 14.021 12.467V11.7058C14.2621 11.7815 14.4268 11.882 14.4874 11.9916Z" fill="#141005"/>
</svg>
