<svg width="16" height="16" viewBox="0 0 16 16" fill="none" xmlns="http://www.w3.org/2000/svg">
<path d="M4.38708 11.2726C4.38708 11.6486 4.0812 11.9545 3.70526 11.9545C3.32932 11.9545 3.02344 11.6486 3.02344 11.2726C3.02344 10.8967 3.32932 10.5908 3.70526 10.5908C3.7102 10.5908 3.71506 10.5909 3.71991 10.591C4.08912 10.5988 4.38708 10.9016 4.38708 11.2726Z" fill="#C19632"/>
<path d="M5.00106 13.5225V13.9998H2.41016V13.5225C2.41016 12.8082 2.99132 12.2271 3.70561 12.2271C4.4199 12.2271 5.00106 12.8082 5.00106 13.5225Z" fill="#C19632"/>
<path d="M7.25036 11.2726C7.25036 11.6486 6.94448 11.9545 6.56854 11.9545C6.1926 11.9545 5.88672 11.6486 5.88672 11.2726C5.88672 10.9016 6.18467 10.5988 6.55387 10.591C6.55873 10.5909 6.56359 10.5908 6.56853 10.5908C6.57185 10.5908 6.57518 10.5908 6.57841 10.5909C6.57995 10.591 6.58157 10.591 6.58319 10.591C6.95241 10.5988 7.25036 10.9016 7.25036 11.2726Z" fill="#C19632"/>
<path d="M7.86434 13.5225V13.9998H5.27344V13.5225C5.27344 12.8082 5.8546 12.2271 6.56889 12.2271C7.28318 12.2271 7.86434 12.8082 7.86434 13.5225Z" fill="#C19632"/>
<path d="M10.1136 11.2726C10.1136 11.6486 9.80775 11.9545 9.43181 11.9545C9.05587 11.9545 8.75 11.6486 8.75 11.2726C8.75 10.9016 9.04795 10.5988 9.41716 10.591C9.42202 10.5909 9.42687 10.5908 9.43181 10.5908C9.43514 10.5908 9.43846 10.5908 9.4417 10.5909C9.44323 10.591 9.44485 10.591 9.44647 10.591C9.81568 10.5988 10.1136 10.9016 10.1136 11.2726Z" fill="#C19632"/>
<path d="M10.7276 13.5225V13.9998H8.13672V13.5225C8.13672 12.8082 8.71788 12.2271 9.43217 12.2271C10.1465 12.2271 10.7276 12.8082 10.7276 13.5225Z" fill="#C19632"/>
<path d="M12.9789 11.2726C12.9789 11.6486 12.673 11.9545 12.2971 11.9545C11.9211 11.9545 11.6152 11.6486 11.6152 11.2726C11.6152 10.9016 11.9132 10.5988 12.2824 10.591C12.284 10.591 12.2856 10.591 12.2872 10.5909C12.2905 10.5908 12.2937 10.5908 12.2971 10.5908C12.673 10.5908 12.9789 10.8967 12.9789 11.2726Z" fill="#C19632"/>
<path d="M13.5929 13.5225V13.9998H11.002V13.5225C11.002 12.8082 11.5831 12.2271 12.2974 12.2271C13.0117 12.2271 13.5929 12.8082 13.5929 13.5225Z" fill="#C19632"/>
<path d="M5.81872 8.40887C5.81872 8.78481 5.51284 9.09069 5.1369 9.09069C4.76096 9.09069 4.45508 8.78481 4.45508 8.40887C4.45508 8.03293 4.76096 7.72705 5.1369 7.72705C5.14022 7.72705 5.14346 7.72705 5.1467 7.72714C5.14832 7.72722 5.14995 7.72722 5.15156 7.72722C5.52077 7.73506 5.81872 8.03787 5.81872 8.40887Z" fill="#C19632"/>
<path d="M6.02048 12.0531C5.62708 12.2005 5.30807 12.5016 5.13719 12.883C4.9663 12.5016 4.6473 12.2005 4.25389 12.0531C4.49926 11.8803 4.65991 11.5948 4.65991 11.2724C4.65991 10.8066 4.32472 10.4178 3.88281 10.3344C4.0283 9.77194 4.54452 9.36328 5.13719 9.36328C5.4833 9.36328 5.80852 9.49802 6.05321 9.7428C6.21915 9.90865 6.33463 10.1111 6.39182 10.3344C5.94983 10.4176 5.61446 10.8065 5.61446 11.2724C5.61446 11.5948 5.77512 11.8803 6.02048 12.0531Z" fill="#C19632"/>
<path d="M8.682 8.40887C8.682 8.78481 8.37612 9.09069 8.00018 9.09069C7.62424 9.09069 7.31836 8.78481 7.31836 8.40887C7.31836 8.03788 7.61631 7.73507 7.98552 7.72722C7.98713 7.72722 7.98875 7.72722 7.99029 7.72714C7.99352 7.72705 7.99685 7.72705 8.00017 7.72705C8.00512 7.72705 8.00998 7.72714 8.01483 7.72722C8.38405 7.73506 8.682 8.03787 8.682 8.40887Z" fill="#DFC486"/>
<path d="M8.88377 12.0531C8.49036 12.2005 8.17135 12.5016 8.00047 12.883C7.82959 12.5016 7.51059 12.2005 7.11717 12.0531C7.36254 11.8803 7.5232 11.5948 7.5232 11.2724C7.5232 10.8066 7.18799 10.4178 6.74609 10.3344C6.89158 9.77194 7.4078 9.36328 8.00047 9.36328C8.34649 9.36328 8.6718 9.49802 8.91649 9.7428C9.08243 9.90865 9.19791 10.1111 9.2551 10.3344C8.81312 10.4176 8.47774 10.8065 8.47774 11.2724C8.47774 11.5948 8.6384 11.8803 8.88377 12.0531Z" fill="#DFC486"/>
<path d="M11.5453 8.40887C11.5453 8.78481 11.2394 9.09069 10.8635 9.09069C10.4875 9.09069 10.1816 8.78481 10.1816 8.40887C10.1816 8.03788 10.4796 7.73507 10.8488 7.72722C10.8504 7.72722 10.852 7.72722 10.8536 7.72714C10.8568 7.72705 10.8601 7.72705 10.8635 7.72705C11.2394 7.72705 11.5453 8.03293 11.5453 8.40887Z" fill="#C19632"/>
<path d="M11.747 12.0531C11.3536 12.2005 11.0346 12.5016 10.8638 12.883C10.6929 12.5016 10.3739 12.2005 9.98045 12.0531C10.2258 11.8803 10.3865 11.5948 10.3865 11.2724C10.3865 10.8066 10.0513 10.4178 9.60938 10.3344C9.75486 9.77194 10.2711 9.36328 10.8638 9.36328C11.2098 9.36328 11.5351 9.49802 11.7798 9.7428C11.9457 9.90865 12.0612 10.1111 12.1184 10.3344C11.6764 10.4176 11.341 10.8065 11.341 11.2724C11.341 11.5948 11.5017 11.8803 11.747 12.0531Z" fill="#C19632"/>
<path d="M7.25036 5.54559C7.25036 5.92153 6.94448 6.22741 6.56854 6.22741C6.1926 6.22741 5.88672 5.92153 5.88672 5.54559C5.88672 5.16965 6.1926 4.86377 6.56854 4.86377C6.57348 4.86377 6.57834 4.86386 6.5832 4.86394C6.95241 4.87179 7.25036 5.1746 7.25036 5.54559Z" fill="#C19632"/>
<path d="M7.45213 9.18986C7.2763 9.2554 7.11241 9.35255 6.96888 9.4781C6.79681 9.62853 6.66104 9.8133 6.56916 10.0183C6.49203 9.8456 6.3832 9.68759 6.2459 9.55029C6.08448 9.38878 5.89399 9.26691 5.6863 9.18935C5.93124 9.01642 6.09155 8.73117 6.09155 8.40909C6.09155 7.94333 5.75636 7.55452 5.31445 7.47116C5.45994 6.90866 5.97616 6.5 6.56883 6.5C6.91494 6.5 7.24016 6.63474 7.48485 6.87952C7.65079 7.04537 7.76627 7.24778 7.82346 7.47108C7.38147 7.55434 7.0461 7.94323 7.0461 8.40909C7.0461 8.73151 7.20676 9.01702 7.45213 9.18986Z" fill="#C19632"/>
<path d="M10.1136 5.54559C10.1136 5.92153 9.80775 6.22741 9.43181 6.22741C9.05587 6.22741 8.75 5.92153 8.75 5.54559C8.75 5.1746 9.04795 4.87179 9.41716 4.86394C9.41877 4.86394 9.42039 4.86394 9.42193 4.86386C9.42516 4.86377 9.42849 4.86377 9.43181 4.86377C9.80776 4.86377 10.1136 5.16965 10.1136 5.54559Z" fill="#C19632"/>
<path d="M10.3154 9.18986C10.1396 9.2554 9.97569 9.35255 9.83216 9.4781C9.66009 9.62853 9.52432 9.8133 9.43245 10.0183C9.35531 9.8456 9.24648 9.68759 9.10918 9.55029C8.94776 9.38878 8.75728 9.26691 8.54958 9.18935C8.79452 9.01642 8.95484 8.73117 8.95484 8.40909C8.95484 7.94333 8.61963 7.55452 8.17773 7.47116C8.32322 6.90866 8.83944 6.5 9.43211 6.5C9.77813 6.5 10.1034 6.63474 10.3481 6.87952C10.5141 7.04537 10.6296 7.24778 10.6867 7.47108C10.2448 7.55434 9.90938 7.94323 9.90938 8.40909C9.90938 8.73151 10.07 9.01702 10.3154 9.18986Z" fill="#C19632"/>
<path d="M8.00018 3.36364C8.37674 3.36364 8.682 3.05838 8.682 2.68182C8.682 2.30526 8.37674 2 8.00018 2C7.62362 2 7.31836 2.30526 7.31836 2.68182C7.31836 3.05838 7.62362 3.36364 8.00018 3.36364Z" fill="#D5B15D"/>
<path d="M8.88376 6.32609C8.70794 6.39163 8.54404 6.48879 8.40052 6.61433C8.22845 6.76476 8.09268 6.94954 8.0008 7.15459C7.92367 6.98183 7.81484 6.82382 7.67754 6.68652C7.51612 6.52501 7.32563 6.40314 7.11794 6.32558C7.36288 6.15265 7.5232 5.8674 7.5232 5.54532C7.5232 5.07956 7.18799 4.69075 6.74609 4.60739C6.89158 4.04489 7.4078 3.63623 8.00047 3.63623C8.34649 3.63623 8.6718 3.77097 8.91649 4.01575C9.08243 4.1816 9.19791 4.38401 9.2551 4.60731C8.81312 4.69057 8.47774 5.07946 8.47774 5.54532C8.47773 5.86774 8.63839 6.15325 8.88376 6.32609Z" fill="#D5B15D"/>
</svg>
