<svg width="12" height="11" viewBox="0 0 12 11" fill="none" xmlns="http://www.w3.org/2000/svg">
<path d="M11.7447 8.30634C11.5152 8.42384 11.2327 8.334 11.1142 8.10328H11.1142C10.3955 6.70263 8.48719 4.69462 5.99998 4.69462C3.76938 4.69462 1.78711 6.34678 0.885751 8.1033C0.767181 8.33316 0.484806 8.42388 0.254767 8.30571C0.0247515 8.18754 -0.0662798 7.90573 0.0515405 7.67552C1.08715 5.65331 3.36455 3.75712 5.99998 3.75712C9.0056 3.75712 11.1582 6.13256 11.9484 7.67552C12.0664 7.90596 11.9752 8.18841 11.7447 8.30634ZM0.182134 3.27197L1.22613 4.21378C1.41949 4.38823 1.71579 4.37077 1.88817 4.1797C2.06156 3.98747 2.04633 3.69108 1.8541 3.51766L0.810095 2.57585C0.617931 2.40248 0.321541 2.41767 0.148056 2.60993C-0.0253344 2.80216 -0.0101001 3.09855 0.182134 3.27197ZM10.7738 4.21378L11.8178 3.27197C12.01 3.09855 12.0252 2.80216 11.8519 2.60993C11.6784 2.41772 11.382 2.40244 11.1898 2.57585L10.1458 3.51766C9.9536 3.69105 9.93837 3.98747 10.1118 4.1797C10.2843 4.37098 10.5807 4.38802 10.7738 4.21378ZM5.99995 2.34502C6.25885 2.34502 6.4687 2.13513 6.4687 1.87627V0.46875C6.4687 0.209883 6.25885 0 5.99995 0C5.74106 0 5.5312 0.209883 5.5312 0.46875V1.87627C5.53123 2.13516 5.74109 2.34502 5.99995 2.34502ZM8.30269 7.88909C8.30269 9.16074 7.26968 10.1953 5.99998 10.1953C4.73027 10.1953 3.69727 9.16074 3.69727 7.88909C3.69727 6.61744 4.73027 5.58286 5.99998 5.58286C7.26968 5.58286 8.30269 6.61744 8.30269 7.88909ZM7.36521 7.88909C7.36521 7.13438 6.75279 6.52036 6 6.52036C5.24721 6.52036 4.63477 7.13438 4.63477 7.88909C4.63477 8.6438 5.24719 9.25781 5.99998 9.25781C6.75277 9.25781 7.36521 8.6438 7.36521 7.88909Z" fill="#666666"/>
</svg>
