<svg width="10" height="10" viewBox="0 0 10 10" fill="none" xmlns="http://www.w3.org/2000/svg">
<g clip-path="url(#clip0_1110_3402)">
<path d="M4.71906 5.45312V7.80688C4.71906 7.96219 4.845 8.08812 5.00031 8.08812C5.15563 8.08812 5.28156 7.96219 5.28156 7.80688V5.45312C6.56281 5.3125 7.56313 4.22469 7.56313 2.90656C7.56313 1.49344 6.41313 0.34375 5.00031 0.34375C3.5875 0.34375 2.4375 1.49344 2.4375 2.90656C2.4375 4.22469 3.43781 5.3125 4.71906 5.45312ZM5.00031 0.90625C6.10313 0.90625 7.00031 1.80375 7.00031 2.90656C7.00031 4.00937 6.10313 4.90687 5.00031 4.90687C3.8975 4.90687 3.00031 4.00937 3.00031 2.90656C3.00031 1.80375 3.8975 0.90625 5.00031 0.90625Z" fill="#795E20"/>
<path d="M5.26451 2.04027C5.55295 2.12964 5.77732 2.35527 5.86451 2.64464C5.90107 2.7662 6.01295 2.84464 6.13357 2.84464C6.16045 2.84464 6.18795 2.84058 6.21482 2.83245C6.36389 2.78745 6.44764 2.63058 6.40295 2.48183C6.2617 2.01339 5.89826 1.64745 5.43076 1.50277C5.28295 1.45714 5.12482 1.53995 5.0792 1.68839C5.03295 1.83683 5.11607 1.99433 5.26451 2.04027Z" fill="#795E20"/>
<path d="M6.96828 6.91621C6.82141 6.86465 6.66109 6.94058 6.60891 7.08652C6.55672 7.23277 6.63297 7.39371 6.77922 7.4459C7.29391 7.62933 7.62672 7.89715 7.62672 8.12777C7.62672 8.53121 6.62703 9.0934 4.99891 9.0934C3.37078 9.0934 2.37109 8.5309 2.37109 8.12777C2.37109 7.89715 2.70359 7.62933 3.21859 7.4459C3.36484 7.39371 3.44109 7.23277 3.38891 7.08652C3.33703 6.94027 3.17641 6.86433 3.02953 6.91621C2.24203 7.19683 1.80859 7.62715 1.80859 8.12777C1.80859 8.99902 3.18047 9.6559 4.99922 9.6559C6.81797 9.6559 8.18984 8.99902 8.18984 8.12777C8.18922 7.62746 7.75547 7.19715 6.96828 6.91621Z" fill="#795E20"/>
</g>
<defs>
<clipPath id="clip0_1110_3402">
<rect width="10" height="10" fill="white"/>
</clipPath>
</defs>
</svg>
